<?xml version="1.0" encoding="UTF-8"?>
<!--Generator: Apple Native CoreSVG 175.5-->
<!DOCTYPE svg
PUBLIC "-//W3C//DTD SVG 1.1//EN"
       "http://www.w3.org/Graphics/SVG/1.1/DTD/svg11.dtd">
<svg version="1.1" xmlns="http://www.w3.org/2000/svg" xmlns:xlink="http://www.w3.org/1999/xlink" width="3300" height="2200">
 <!--glyph: "uni100AAC.medium", point size: 100.0, font version: "18.0d12e2", template writer version: "101"-->
 <g id="Notes">
  <rect height="2200" id="artboard" style="fill:white;opacity:1" width="3300" x="0" y="0"/>
  <line style="fill:none;stroke:black;opacity:1;stroke-width:0.5;" x1="263" x2="3036" y1="292" y2="292"/>
  <text style="stroke:none;fill:black;font-family:sans-serif;font-size:13;font-weight:bold;" transform="matrix(1 0 0 1 263 322)">Weight/Scale Variations</text>
  <text style="stroke:none;fill:black;font-family:sans-serif;font-size:13;text-anchor:middle;" transform="matrix(1 0 0 1 559.711 322)">Ultralight</text>
  <text style="stroke:none;fill:black;font-family:sans-serif;font-size:13;text-anchor:middle;" transform="matrix(1 0 0 1 856.422 322)">Thin</text>
  <text style="stroke:none;fill:black;font-family:sans-serif;font-size:13;text-anchor:middle;" transform="matrix(1 0 0 1 1153.13 322)">Light</text>
  <text style="stroke:none;fill:black;font-family:sans-serif;font-size:13;text-anchor:middle;" transform="matrix(1 0 0 1 1449.84 322)">Regular</text>
  <text style="stroke:none;fill:black;font-family:sans-serif;font-size:13;text-anchor:middle;" transform="matrix(1 0 0 1 1746.56 322)">Medium</text>
  <text style="stroke:none;fill:black;font-family:sans-serif;font-size:13;text-anchor:middle;" transform="matrix(1 0 0 1 2043.27 322)">Semibold</text>
  <text style="stroke:none;fill:black;font-family:sans-serif;font-size:13;text-anchor:middle;" transform="matrix(1 0 0 1 2339.98 322)">Bold</text>
  <text style="stroke:none;fill:black;font-family:sans-serif;font-size:13;text-anchor:middle;" transform="matrix(1 0 0 1 2636.69 322)">Heavy</text>
  <text style="stroke:none;fill:black;font-family:sans-serif;font-size:13;text-anchor:middle;" transform="matrix(1 0 0 1 2933.4 322)">Black</text>
  <line style="fill:none;stroke:black;opacity:1;stroke-width:0.5;" x1="263" x2="3036" y1="1903" y2="1903"/>
  <g transform="matrix(1 0 0 1 263 1933)">
   <path d="M9.24805 0.830078C13.5547 0.830078 17.1387-2.74414 17.1387-7.05078C17.1387-11.3574 13.5449-14.9316 9.23828-14.9316C4.94141-14.9316 1.36719-11.3574 1.36719-7.05078C1.36719-2.74414 4.95117 0.830078 9.24805 0.830078ZM9.24805-0.654297C5.70312-0.654297 2.87109-3.49609 2.87109-7.05078C2.87109-10.6055 5.69336-13.4473 9.23828-13.4473C12.793-13.4473 15.6445-10.6055 15.6445-7.05078C15.6445-3.49609 12.8027-0.654297 9.24805-0.654297ZM5.6543-7.05078C5.6543-6.62109 5.95703-6.32812 6.40625-6.32812L8.50586-6.32812L8.50586-4.20898C8.50586-3.76953 8.79883-3.4668 9.22852-3.4668C9.67773-3.4668 9.9707-3.76953 9.9707-4.20898L9.9707-6.32812L12.0898-6.32812C12.5293-6.32812 12.832-6.62109 12.832-7.05078C12.832-7.49023 12.5293-7.79297 12.0898-7.79297L9.9707-7.79297L9.9707-9.90234C9.9707-10.3516 9.67773-10.6543 9.22852-10.6543C8.79883-10.6543 8.50586-10.3516 8.50586-9.90234L8.50586-7.79297L6.40625-7.79297C5.95703-7.79297 5.6543-7.49023 5.6543-7.05078Z"/>
  </g>
  <g transform="matrix(1 0 0 1 281.867 1933)">
   <path d="M11.709 2.91016C17.1582 2.91016 21.6699-1.61133 21.6699-7.05078C21.6699-12.5 17.1484-17.0117 11.6992-17.0117C6.25977-17.0117 1.74805-12.5 1.74805-7.05078C1.74805-1.61133 6.26953 2.91016 11.709 2.91016ZM11.709 1.25C7.09961 1.25 3.41797-2.44141 3.41797-7.05078C3.41797-11.6602 7.08984-15.3516 11.6992-15.3516C16.3086-15.3516 20.0098-11.6602 20.0098-7.05078C20.0098-2.44141 16.3184 1.25 11.709 1.25ZM7.17773-7.05078C7.17773-6.57227 7.50977-6.25 8.00781-6.25L10.8789-6.25L10.8789-3.36914C10.8789-2.88086 11.2109-2.53906 11.6895-2.53906C12.1777-2.53906 12.5195-2.87109 12.5195-3.36914L12.5195-6.25L15.4004-6.25C15.8887-6.25 16.2305-6.57227 16.2305-7.05078C16.2305-7.53906 15.8887-7.88086 15.4004-7.88086L12.5195-7.88086L12.5195-10.752C12.5195-11.25 12.1777-11.5918 11.6895-11.5918C11.2109-11.5918 10.8789-11.25 10.8789-10.752L10.8789-7.88086L8.00781-7.88086C7.50977-7.88086 7.17773-7.53906 7.17773-7.05078Z"/>
  </g>
  <g transform="matrix(1 0 0 1 305.646 1933)">
   <path d="M14.9707 5.66406C21.9336 5.66406 27.6953-0.0976562 27.6953-7.05078C27.6953-14.0137 21.9238-19.7754 14.9609-19.7754C8.00781-19.7754 2.25586-14.0137 2.25586-7.05078C2.25586-0.0976562 8.01758 5.66406 14.9707 5.66406ZM14.9707 3.84766C8.93555 3.84766 4.08203-1.01562 4.08203-7.05078C4.08203-13.0957 8.92578-17.9492 14.9609-17.9492C21.0059-17.9492 25.8691-13.0957 25.8691-7.05078C25.8691-1.01562 21.0156 3.84766 14.9707 3.84766ZM9.19922-7.05078C9.19922-6.5332 9.57031-6.17188 10.1172-6.17188L14.0625-6.17188L14.0625-2.2168C14.0625-1.67969 14.4336-1.29883 14.9512-1.29883C15.4883-1.29883 15.8594-1.66992 15.8594-2.2168L15.8594-6.17188L19.8145-6.17188C20.3516-6.17188 20.7324-6.5332 20.7324-7.05078C20.7324-7.59766 20.3613-7.96875 19.8145-7.96875L15.8594-7.96875L15.8594-11.9141C15.8594-12.4609 15.4883-12.8418 14.9512-12.8418C14.4336-12.8418 14.0625-12.4609 14.0625-11.9141L14.0625-7.96875L10.1172-7.96875C9.57031-7.96875 9.19922-7.59766 9.19922-7.05078Z"/>
  </g>
  <text style="stroke:none;fill:black;font-family:sans-serif;font-size:13;font-weight:bold;" transform="matrix(1 0 0 1 263 1953)">Design Variations</text>
  <text style="stroke:none;fill:black;font-family:sans-serif;font-size:13;" transform="matrix(1 0 0 1 263 1971)">Symbols are supported in up to nine weights and three scales.</text>
  <text style="stroke:none;fill:black;font-family:sans-serif;font-size:13;" transform="matrix(1 0 0 1 263 1989)">For optimal layout with text and other symbols, vertically align</text>
  <text style="stroke:none;fill:black;font-family:sans-serif;font-size:13;" transform="matrix(1 0 0 1 263 2007)">symbols with the adjacent text.</text>
  <line style="fill:none;stroke:#00AEEF;stroke-width:0.5;opacity:1.0;" x1="776" x2="776" y1="1919" y2="1933"/>
  <g transform="matrix(1 0 0 1 776 1933)">
   <path d="M3.31055 0.15625C3.82812 0.15625 4.08203-0.0390625 4.26758-0.585938L5.52734-4.0332L11.2891-4.0332L12.5488-0.585938C12.7344-0.0390625 12.9883 0.15625 13.4961 0.15625C14.0137 0.15625 14.3457-0.15625 14.3457-0.644531C14.3457-0.810547 14.3164-0.966797 14.2383-1.17188L9.6582-13.3691C9.43359-13.9648 9.0332-14.2676 8.4082-14.2676C7.80273-14.2676 7.39258-13.9746 7.17773-13.3789L2.59766-1.16211C2.51953-0.957031 2.49023-0.800781 2.49023-0.634766C2.49023-0.146484 2.80273 0.15625 3.31055 0.15625ZM6.00586-5.51758L8.37891-12.0898L8.42773-12.0898L10.8008-5.51758Z"/>
  </g>
  <line style="fill:none;stroke:#00AEEF;stroke-width:0.5;opacity:1.0;" x1="793.197" x2="793.197" y1="1919" y2="1933"/>
  <text style="stroke:none;fill:black;font-family:sans-serif;font-size:13;font-weight:bold;" transform="matrix(1 0 0 1 776 1953)">Margins</text>
  <text style="stroke:none;fill:black;font-family:sans-serif;font-size:13;" transform="matrix(1 0 0 1 776 1971)">Leading and trailing margins on the left and right side of each symbol</text>
  <text style="stroke:none;fill:black;font-family:sans-serif;font-size:13;" transform="matrix(1 0 0 1 776 1989)">can be adjusted by modifying the x-location of the margin guidelines.</text>
  <text style="stroke:none;fill:black;font-family:sans-serif;font-size:13;" transform="matrix(1 0 0 1 776 2007)">Modifications are automatically applied proportionally to all</text>
  <text style="stroke:none;fill:black;font-family:sans-serif;font-size:13;" transform="matrix(1 0 0 1 776 2025)">scales and weights.</text>
  <g transform="matrix(1 0 0 1 1289 1933)">
   <path d="M2.8418 1.86523L4.54102 3.57422C5.40039 4.44336 6.38672 4.38477 7.31445 3.35938L18.0078-8.42773L17.041-9.4043L6.42578 2.27539C6.07422 2.67578 5.74219 2.77344 5.27344 2.30469L4.10156 1.14258C3.63281 0.683594 3.74023 0.341797 4.14062-0.0195312L15.6152-10.8203L14.6387-11.7871L3.04688-0.898438C2.06055 0.0195312 1.98242 0.996094 2.8418 1.86523ZM9.25781-16.3281C8.83789-15.918 8.80859-15.3418 9.04297-14.9512C9.27734-14.5898 9.73633-14.3555 10.3809-14.5215C11.8457-14.8633 13.3691-14.9219 14.7949-13.9844L14.209-12.5293C13.8672-11.6992 14.043-11.1133 14.5801-10.5664L16.875-8.25195C17.3633-7.76367 17.7734-7.74414 18.3398-7.8418L19.4043-8.03711L20.0684-7.36328L20.0293-6.80664C19.9902-6.30859 20.1172-5.92773 20.6055-5.44922L21.3672-4.70703C21.8457-4.22852 22.4609-4.19922 22.9297-4.66797L25.8398-7.58789C26.3086-8.05664 26.2891-8.65234 25.8105-9.13086L25.0391-9.89258C24.5605-10.3711 24.1895-10.5273 23.7109-10.4883L23.1348-10.4395L22.4902-11.0742L22.7344-12.1973C22.8613-12.7637 22.7051-13.2031 22.1191-13.7891L19.9219-15.9766C16.582-19.2969 12.1484-19.2188 9.25781-16.3281ZM10.752-15.957C13.1836-17.7344 16.4746-17.4316 18.7012-15.2051L21.1328-12.793C21.3672-12.5586 21.4062-12.373 21.3379-12.0312L21.0156-10.5469L22.5195-9.0625L23.5059-9.12109C23.7598-9.13086 23.8379-9.11133 24.0332-8.91602L24.6094-8.33984L22.168-5.89844L21.5918-6.47461C21.3965-6.66992 21.3672-6.74805 21.377-7.01172L21.4453-7.98828L19.9512-9.47266L18.4277-9.21875C18.1055-9.15039 17.959-9.17969 17.7148-9.41406L15.7129-11.416C15.459-11.6504 15.4297-11.8164 15.5859-12.1875L16.4648-14.2773C14.9023-15.7324 12.8711-16.3574 10.8398-15.7617C10.6836-15.7227 10.625-15.8496 10.752-15.957Z"/>
  </g>
  <text style="stroke:none;fill:black;font-family:sans-serif;font-size:13;font-weight:bold;" transform="matrix(1 0 0 1 1289 1953)">Exporting</text>
  <text style="stroke:none;fill:black;font-family:sans-serif;font-size:13;" transform="matrix(1 0 0 1 1289 1971)">Symbols should be outlined when exporting to ensure the</text>
  <text style="stroke:none;fill:black;font-family:sans-serif;font-size:13;" transform="matrix(1 0 0 1 1289 1989)">design is preserved when submitting to Xcode.</text>
  <text id="template-version" style="stroke:none;fill:black;font-family:sans-serif;font-size:13;text-anchor:end;" transform="matrix(1 0 0 1 3036 1933)">Template v.2.0</text>
  <text style="stroke:none;fill:black;font-family:sans-serif;font-size:13;text-anchor:end;" transform="matrix(1 0 0 1 3036 1951)">Requires Xcode 12 or greater</text>
  <text id="descriptive-name" style="stroke:none;fill:black;font-family:sans-serif;font-size:13;text-anchor:end;" transform="matrix(1 0 0 1 3036 1969)">Generated from server.rack</text>
  <text style="stroke:none;fill:black;font-family:sans-serif;font-size:13;text-anchor:end;" transform="matrix(1 0 0 1 3036 1987)">Typeset at 100 points</text>
  <text style="stroke:none;fill:black;font-family:sans-serif;font-size:13;" transform="matrix(1 0 0 1 263 726)">Small</text>
  <text style="stroke:none;fill:black;font-family:sans-serif;font-size:13;" transform="matrix(1 0 0 1 263 1156)">Medium</text>
  <text style="stroke:none;fill:black;font-family:sans-serif;font-size:13;" transform="matrix(1 0 0 1 263 1586)">Large</text>
 </g>
 <g id="Guides">
  <g id="H-reference" style="fill:#27AAE1;stroke:none;" transform="matrix(1 0 0 1 339 696)">
   <path d="M0.993654 0L3.63775 0L29.3281-67.1323L30.0303-67.1323L30.0303-70.459L28.1226-70.459ZM11.6885-24.4799L46.9815-24.4799L46.2315-26.7285L12.4385-26.7285ZM55.1196 0L57.7637 0L30.6382-70.459L29.4326-70.459L29.4326-67.1323Z"/>
  </g>
  <line id="Baseline-S" style="fill:none;stroke:#27AAE1;opacity:1;stroke-width:0.5;" x1="263" x2="3036" y1="696" y2="696"/>
  <line id="Capline-S" style="fill:none;stroke:#27AAE1;opacity:1;stroke-width:0.5;" x1="263" x2="3036" y1="625.541" y2="625.541"/>
  <g id="H-reference" style="fill:#27AAE1;stroke:none;" transform="matrix(1 0 0 1 339 1126)">
   <path d="M0.993654 0L3.63775 0L29.3281-67.1323L30.0303-67.1323L30.0303-70.459L28.1226-70.459ZM11.6885-24.4799L46.9815-24.4799L46.2315-26.7285L12.4385-26.7285ZM55.1196 0L57.7637 0L30.6382-70.459L29.4326-70.459L29.4326-67.1323Z"/>
  </g>
  <line id="Baseline-M" style="fill:none;stroke:#27AAE1;opacity:1;stroke-width:0.5;" x1="263" x2="3036" y1="1126" y2="1126"/>
  <line id="Capline-M" style="fill:none;stroke:#27AAE1;opacity:1;stroke-width:0.5;" x1="263" x2="3036" y1="1055.54" y2="1055.54"/>
  <g id="H-reference" style="fill:#27AAE1;stroke:none;" transform="matrix(1 0 0 1 339 1556)">
   <path d="M0.993654 0L3.63775 0L29.3281-67.1323L30.0303-67.1323L30.0303-70.459L28.1226-70.459ZM11.6885-24.4799L46.9815-24.4799L46.2315-26.7285L12.4385-26.7285ZM55.1196 0L57.7637 0L30.6382-70.459L29.4326-70.459L29.4326-67.1323Z"/>
  </g>
  <line id="Baseline-L" style="fill:none;stroke:#27AAE1;opacity:1;stroke-width:0.5;" x1="263" x2="3036" y1="1556" y2="1556"/>
  <line id="Capline-L" style="fill:none;stroke:#27AAE1;opacity:1;stroke-width:0.5;" x1="263" x2="3036" y1="1485.54" y2="1485.54"/>
  <line id="left-margin" style="fill:none;stroke:#00AEEF;stroke-width:0.5;opacity:1.0;" x1="1379.84" x2="1379.84" y1="1030.79" y2="1150.12"/>
  <line id="right-margin" style="fill:none;stroke:#00AEEF;stroke-width:0.5;opacity:1.0;" x1="1519.85" x2="1519.85" y1="1030.79" y2="1150.12"/>
 </g>
 <g id="Symbols">
  <g id="Black-L" transform="matrix(1 0 0 1 2841.56 1556)">
   <path d="M130.278-60.8201C133.952-60.9005 136.999-63.8894 136.999-67.5633C136.999-71.2967 133.952-74.3868 130.278-74.3868C126.625-74.3868 123.475-71.1799 123.475-67.5633C123.475-63.8894 126.625-60.7397 130.278-60.8201ZM130.278-28.4294C133.952-28.5098 136.999-31.4986 136.999-35.1725C136.999-38.906 133.952-41.9961 130.278-41.9961C126.625-41.9961 123.475-38.7892 123.475-35.1725C123.475-31.4986 126.625-28.3489 130.278-28.4294ZM130.278 3.90299C133.952 3.82257 136.999 0.833707 136.999-2.84015C136.999-6.57362 133.952-9.66372 130.278-9.66372C126.625-9.66372 123.475-6.4568 123.475-2.84015C123.475 0.833707 126.625 3.98341 130.278 3.90299ZM160.059-44.3942L160.059-58.3472L23.6599-58.3472L23.6599-44.3942ZM160.059-11.9706L160.059-25.9236L23.6599-25.9236L23.6599-11.9706ZM39.8556 26.4201L143.831 26.4201C158.995 26.4201 167.603 17.8102 167.603 2.71095L167.603-73.0919C167.603-88.1912 158.995-96.8011 143.831-96.8011L39.8556-96.8011C24.7123-96.8011 16.084-88.1936 16.084-73.0919L16.084 2.71095C16.084 17.8126 24.7123 26.4201 39.8556 26.4201ZM42.5864 6.41832C38.2704 6.41832 36.065 4.48814 36.065-0.123868L36.065-70.2571C36.065-74.8899 38.2704-76.7993 42.5864-76.7993L141.1-76.7993C145.411-76.7993 147.622-74.8899 147.622-70.2571L147.622-0.123868C147.622 4.48814 145.411 6.41832 141.1 6.41832Z"/>
  </g>
  <g id="Heavy-L" transform="matrix(1 0 0 1 2545.23 1556)">
   <path d="M130.822-61.1665C134.645-61.2469 137.809-64.3658 137.809-68.1885C137.809-72.0614 134.645-75.291 130.822-75.291C127.03-75.291 123.75-71.9722 123.75-68.1885C123.75-64.3658 127.03-61.0861 130.822-61.1665ZM130.822-28.183C134.645-28.2634 137.809-31.3824 137.809-35.205C137.809-39.0779 134.645-42.3075 130.822-42.3075C127.03-42.3075 123.75-38.9887 123.75-35.205C123.75-31.3824 127.03-28.1026 130.822-28.183ZM130.822 4.75585C134.645 4.67543 137.809 1.55649 137.809-2.26618C137.809-6.13908 134.645-9.36863 130.822-9.36863C127.03-9.36863 123.75-6.04984 123.75-2.26618C123.75 1.55649 127.03 4.83627 130.822 4.75585ZM159.878-45.313L159.878-58.0795L23.127-58.0795L23.127-45.313ZM159.878-12.2432L159.878-25.0097L23.127-25.0097L23.127-12.2432ZM38.8315 25.5046L144.087 25.5046C158.73 25.5046 166.834 17.3888 166.834 2.84772L166.834-73.2375C166.834-87.7786 158.73-95.8944 144.087-95.8944L38.8315-95.8944C24.2188-95.8944 16.084-87.7898 16.084-73.2375L16.084 2.84772C16.084 17.4 24.2188 25.5046 38.8315 25.5046ZM40.9557 7.97405C36.118 7.97405 33.5844 5.67933 33.5844 0.57256L33.5844-70.9624C33.5844-76.0993 36.118-78.3638 40.9557-78.3638L141.963-78.3638C146.778-78.3638 149.334-76.0993 149.334-70.9624L149.334 0.57256C149.334 5.67933 146.778 7.97405 141.963 7.97405Z"/>
  </g>
  <g id="Bold-L" transform="matrix(1 0 0 1 2249.01 1556)">
   <path d="M131.536-61.5967C135.498-61.6772 138.77-64.9202 138.77-68.8826C138.77-72.8874 135.498-76.2488 131.536-76.2488C127.611-76.2488 124.207-72.829 124.207-68.8826C124.207-64.9202 127.611-61.5163 131.536-61.5967ZM131.536-27.9502C135.498-28.0306 138.77-31.2737 138.77-35.2361C138.77-39.2409 135.498-42.6023 131.536-42.6023C127.611-42.6023 124.207-39.1824 124.207-35.2361C124.207-31.2737 127.611-27.8698 131.536-27.9502ZM131.536 5.66707C135.498 5.58665 138.77 2.34362 138.77-1.61875C138.77-5.62355 135.498-8.98499 131.536-8.98499C127.611-8.98499 124.207-5.56515 124.207-1.61875C124.207 2.34362 127.611 5.74749 131.536 5.66707ZM159.714-46.4801L159.714-57.6596L22.3917-57.6596L22.3917-46.4801ZM159.714-12.6633L159.714-23.8428L22.3917-23.8428L22.3917-12.6633ZM37.5412 24.3601L144.394 24.3601C158.347 24.3601 165.852 16.829 165.852 3.01678L165.852-73.4218C165.852-87.2341 158.347-94.7651 144.394-94.7651L37.5412-94.7651C23.6265-94.7651 16.084-87.2605 16.084-73.4218L16.084 3.01678C16.084 16.8555 23.6265 24.3601 37.5412 24.3601ZM38.987 9.88032C33.4665 9.88032 30.5257 7.1323 30.5257 1.38106L30.5257-71.7861C30.5257-77.5753 33.4665-80.2853 38.987-80.2853L142.949-80.2853C148.416-80.2853 151.41-77.5753 151.41-71.7861L151.41 1.38106C151.41 7.1323 148.416 9.88032 142.949 9.88032Z"/>
  </g>
  <g id="Semibold-L" transform="matrix(1 0 0 1 1952.64 1556)">
   <path d="M132.028-61.8934C136.086-61.9738 139.433-65.3024 139.433-69.361C139.433-73.4568 136.086-76.9091 132.028-76.9091C128.012-76.9091 124.523-73.4196 124.523-69.361C124.523-65.3024 128.012-61.8129 132.028-61.8934ZM132.028-27.7898C136.086-27.8702 139.433-31.1988 139.433-35.2574C139.433-39.3532 136.086-42.8055 132.028-42.8055C128.012-42.8055 124.523-39.316 124.523-35.2574C124.523-31.1988 128.012-27.7093 132.028-27.7898ZM132.028 6.29526C136.086 6.21484 139.433 2.88626 139.433-1.17242C139.433-5.26815 136.086-8.72052 132.028-8.72052C128.012-8.72052 124.523-5.231 124.523-1.17242C124.523 2.88626 128.012 6.37568 132.028 6.29526ZM159.602-47.2846L159.602-57.3702L21.8847-57.3702L21.8847-47.2846ZM159.602-12.9529L159.602-23.0384L21.8847-23.0384L21.8847-12.9529ZM36.6517 23.571L144.607 23.571C158.083 23.571 165.174 16.4431 165.174 3.13332L165.174-73.5488C165.174-86.8587 158.083-93.9865 144.607-93.9865L36.6517-93.9865C23.2182-93.9865 16.084-86.8956 16.084-73.5488L16.084 3.13332C16.084 16.4801 23.2182 23.571 36.6517 23.571ZM37.6298 11.1945C31.6387 11.1945 28.4171 8.13396 28.4171 1.93843L28.4171-72.354C28.4171-78.5929 31.6387-81.61 37.6298-81.61L143.628-81.61C149.546-81.61 152.841-78.5929 152.841-72.354L152.841 1.93843C152.841 8.13396 149.546 11.1945 143.628 11.1945Z"/>
  </g>
  <g id="Medium-L" transform="matrix(1 0 0 1 1656.18 1556)">
   <path d="M132.4-62.1183C136.532-62.1987 139.936-65.5921 139.936-69.7238C139.936-73.8885 136.532-77.4098 132.4-77.4098C128.316-77.4098 124.762-73.8675 124.762-69.7238C124.762-65.5921 128.316-62.0378 132.4-62.1183ZM132.4-27.6681C136.532-27.7485 139.936-31.142 139.936-35.2737C139.936-39.4383 136.532-42.9596 132.4-42.9596C128.316-42.9596 124.762-39.4173 124.762-35.2737C124.762-31.142 128.316-27.5877 132.4-27.6681ZM132.4 6.77158C136.532 6.69116 139.936 3.29771 139.936-0.83399C139.936-4.99867 136.532-8.51998 132.4-8.51998C128.316-8.51998 124.762-4.97764 124.762-0.83399C124.762 3.29771 128.316 6.852 132.4 6.77158ZM159.516-47.8947L159.516-57.1507L21.5004-57.1507L21.5004-47.8947ZM159.516-13.1724L159.516-22.4284L21.5004-22.4284L21.5004-13.1724ZM35.9773 22.9727L144.767 22.9727C157.883 22.9727 164.661 16.1505 164.661 3.22169L164.661-73.6452C164.661-86.574 157.883-93.3962 144.767-93.3962L35.9773-93.3962C22.9086-93.3962 16.084-86.619 16.084-73.6452L16.084 3.22169C16.084 16.1955 22.9086 22.9727 35.9773 22.9727ZM36.6007 12.1909C30.2527 12.1909 26.8183 8.89347 26.8183 2.36106L26.8183-72.7845C26.8183-79.3644 30.2527-82.6144 36.6007-82.6144L144.144-82.6144C150.402-82.6144 153.926-79.3644 153.926-72.7845L153.926 2.36106C153.926 8.89347 150.402 12.1909 144.144 12.1909Z"/>
  </g>
  <g id="Regular-L" transform="matrix(1 0 0 1 1359.81 1556)">
   <path d="M132.887-62.4116C137.114-62.492 140.592-65.9701 140.592-70.1971C140.592-74.4517 137.114-78.0629 132.887-78.0629C128.713-78.0629 125.074-74.4517 125.074-70.1971C125.074-65.9701 128.713-62.3312 132.887-62.4116ZM132.887-27.5094C137.114-27.5898 140.592-31.0679 140.592-35.2948C140.592-39.5494 137.114-43.1607 132.887-43.1607C128.713-43.1607 125.074-39.5494 125.074-35.2948C125.074-31.0679 128.713-27.429 132.887-27.5094ZM132.887 7.39287C137.114 7.31245 140.592 3.83439 140.592-0.392563C140.592-4.64717 137.114-8.25841 132.887-8.25841C128.713-8.25841 125.074-4.64717 125.074-0.392563C125.074 3.83439 128.713 7.47329 132.887 7.39287ZM159.405-48.6904L159.405-56.8644L20.999-56.8644L20.999-48.6904ZM159.405-13.4588L159.405-21.6328L20.999-21.6328L20.999-13.4588ZM35.0976 22.1923L144.977 22.1923C157.623 22.1923 163.991 15.7689 163.991 3.33696L163.991-73.7708C163.991-86.2028 157.623-92.6262 144.977-92.6262L35.0976-92.6262C22.5048-92.6262 16.084-86.2581 16.084-73.7708L16.084 3.33696C16.084 15.8242 22.5048 22.1923 35.0976 22.1923ZM35.2584 13.4907C28.4449 13.4907 24.7328 9.88413 24.7328 2.9123L24.7328-73.3462C24.7328-80.3708 28.4449-83.9245 35.2584-83.9245L144.816-83.9245C151.519-83.9245 155.342-80.3708 155.342-73.3462L155.342 2.9123C155.342 9.88413 151.519 13.4907 144.816 13.4907Z"/>
  </g>
  <g id="Light-L" transform="matrix(1 0 0 1 1063.53 1556)">
   <path d="M133.631-62.717C137.667-62.7974 140.993-66.1228 140.993-70.1589C140.993-74.2417 137.667-77.6812 133.631-77.6812C129.629-77.6812 126.143-74.2417 126.143-70.1589C126.143-66.1228 129.629-62.6366 133.631-62.717ZM133.631-27.8147C137.667-27.8952 140.993-31.2205 140.993-35.2566C140.993-39.3395 137.667-42.779 133.631-42.779C129.629-42.779 126.143-39.3395 126.143-35.2566C126.143-31.2205 129.629-27.7343 133.631-27.8147ZM133.631 7.0875C137.667 7.00708 140.993 3.6817 140.993-0.354392C140.993-4.43723 137.667-7.87671 133.631-7.87671C129.629-7.87671 126.143-4.43723 126.143-0.354392C126.143 3.6817 129.629 7.16792 133.631 7.0875ZM159.691-49.6829L159.691-56.0056L20.0066-56.0056L20.0066-49.6829ZM159.691-14.2795L159.691-20.6022L20.0066-20.6022L20.0066-14.2795ZM34.067 21.3335L145.13 21.3335C157.012 21.3335 163.113 15.1391 163.113 3.45147L163.113-73.9235C163.113-85.6111 157.012-91.8055 145.13-91.8055L34.067-91.8055C22.2185-91.8055 16.084-85.7046 16.084-73.9235L16.084 3.45147C16.084 15.2326 22.2185 21.3335 34.067 21.3335ZM34.2278 14.674C26.7082 14.674 22.7098 10.743 22.7098 3.12224L22.7098-73.5943C22.7098-81.2487 26.7082-85.146 34.2278-85.146L144.969-85.146C152.302-85.146 156.487-81.2487 156.487-73.5943L156.487 3.12224C156.487 10.743 152.302 14.674 144.969 14.674Z"/>
  </g>
  <g id="Thin-L" transform="matrix(1 0 0 1 767.404 1556)">
   <path d="M134.616-63.1209C138.399-63.2013 141.523-66.3247 141.523-70.1084C141.523-73.9641 138.399-77.1764 134.616-77.1764C130.84-77.1764 127.556-73.9641 127.556-70.1084C127.556-66.3247 130.84-63.0404 134.616-63.1209ZM134.616-28.2186C138.399-28.299 141.523-31.4225 141.523-35.2062C141.523-39.0618 138.399-42.2741 134.616-42.2741C130.84-42.2741 127.556-39.0618 127.556-35.2062C127.556-31.4225 130.84-28.1382 134.616-28.2186ZM134.616 6.68364C138.399 6.60322 141.523 3.47977 141.523-0.303908C141.523-4.15957 138.399-7.37187 134.616-7.37187C130.84-7.37187 127.556-4.15957 127.556-0.303908C127.556 3.47977 130.84 6.76406 134.616 6.68364ZM160.07-50.9954L160.07-54.8697L18.694-54.8697L18.694-50.9954ZM160.07-15.3649L160.07-19.2392L18.694-19.2392L18.694-15.3649ZM32.7039 20.1976L145.332 20.1976C156.204 20.1976 161.952 14.3061 161.952 3.60292L161.952-74.1255C161.952-84.8286 156.204-90.7201 145.332-90.7201L32.7039-90.7201C21.8399-90.7201 16.084-84.9726 16.084-74.1255L16.084 3.60292C16.084 14.4501 21.8399 20.1976 32.7039 20.1976ZM32.8648 16.2389C24.4111 16.2389 20.0342 11.8788 20.0342 3.3999L20.0342-73.9224C20.0342-82.4098 24.4111-86.7615 32.8648-86.7615L145.171-86.7615C153.337-86.7615 158.001-82.4098 158.001-73.9224L158.001 3.3999C158.001 11.8788 153.337 16.2389 145.171 16.2389Z"/>
  </g>
  <g id="Ultralight-L" transform="matrix(1 0 0 1 470.991 1556)">
   <path d="M135.12-63.3277C138.774-63.4081 141.794-66.4282 141.794-70.0825C141.794-73.8218 138.774-76.9178 135.12-76.9178C131.461-76.9178 128.28-73.8218 128.28-70.0825C128.28-66.4282 131.461-63.2473 135.12-63.3277ZM135.12-28.4255C138.774-28.5059 141.794-31.5259 141.794-35.1803C141.794-38.9196 138.774-42.0155 135.12-42.0155C131.461-42.0155 128.28-38.9196 128.28-35.1803C128.28-31.5259 131.461-28.3451 135.12-28.4255ZM135.12 6.47678C138.774 6.39636 141.794 3.37634 141.794-0.278051C141.794-4.01735 138.774-7.1133 135.12-7.1133C131.461-7.1133 128.28-4.01735 128.28-0.278051C128.28 3.37634 131.461 6.5572 135.12 6.47678ZM160.264-51.6677L160.264-54.2879L18.0217-54.2879L18.0217-51.6677ZM160.264-15.9208L160.264-18.541L18.0217-18.541L18.0217-15.9208ZM32.0058 19.6158L145.435 19.6158C155.79 19.6158 161.357 13.8795 161.357 3.6805L161.357-74.2289C161.357-84.4278 155.79-90.1642 145.435-90.1642L32.0058-90.1642C21.646-90.1642 16.084-84.5977 16.084-74.2289L16.084 3.6805C16.084 14.0493 21.646 19.6158 32.0058 19.6158ZM32.1666 17.0405C23.2346 17.0405 18.6637 12.4606 18.6637 3.54212L18.6637-74.0905C18.6637-83.0045 23.2346-87.5889 32.1666-87.5889L145.274-87.5889C153.867-87.5889 158.777-83.0045 158.777-74.0905L158.777 3.54212C158.777 12.4606 153.867 17.0405 145.274 17.0405Z"/>
  </g>
  <g id="Black-M" transform="matrix(1 0 0 1 2861.97 1126)">
   <path d="M100.565-54.7993C103.257-54.8616 105.498-57.0448 105.498-59.7373C105.498-62.4867 103.257-64.7376 100.565-64.7376C97.8777-64.7376 95.57-62.3725 95.57-59.7373C95.57-57.0448 97.8777-54.737 100.565-54.7993ZM100.565-30.2143C103.257-30.2766 105.498-32.4597 105.498-35.1522C105.498-37.9016 103.257-40.1525 100.565-40.1525C97.8777-40.1525 95.57-37.7874 95.57-35.1522C95.57-32.4597 97.8777-30.1519 100.565-30.2143ZM100.565-5.68626C103.257-5.74856 105.498-7.93169 105.498-10.6242C105.498-13.3736 103.257-15.6245 100.565-15.6245C97.8777-15.6245 95.57-13.2594 95.57-10.6242C95.57-7.93169 97.8777-5.62395 100.565-5.68626ZM124.2-41.6745L124.2-53.2534L18.6538-53.2534L18.6538-41.6745ZM124.2-17.0868L124.2-28.6656L18.6538-28.6656L18.6538-17.0868ZM31.6184 13.2035L111.233 13.2035C123.325 13.2035 130.39 6.13945 130.39-5.93747L130.39-64.4586C130.39-76.5356 123.325-83.5996 111.233-83.5996L31.6184-83.5996C19.5311-83.5996 12.4609-76.535 12.4609-64.4586L12.4609-5.93747C12.4609 6.13889 19.5311 13.2035 31.6184 13.2035ZM34.2553-4.13991C31.2643-4.13991 29.7989-5.36596 29.7989-8.60178L29.7989-61.7943C29.7989-65.0356 31.2643-66.2562 34.2553-66.2562L108.596-66.2562C111.588-66.2562 113.052-65.0356 113.052-61.7943L113.052-8.60178C113.052-5.36596 111.588-4.13991 108.596-4.13991Z"/>
  </g>
  <g id="Heavy-M" transform="matrix(1 0 0 1 2565.6 1126)">
   <path d="M101.028-55.1097C103.884-55.1721 106.252-57.4964 106.252-60.352C106.252-63.2536 103.884-65.6566 101.028-65.6566C98.1891-65.6566 95.7401-63.1663 95.7401-60.352C95.7401-57.4964 98.1891-55.0474 101.028-55.1097ZM101.028-29.9452C103.884-30.0075 106.252-32.3319 106.252-35.1875C106.252-38.0891 103.884-40.4921 101.028-40.4921C98.1891-40.4921 95.7401-38.0018 95.7401-35.1875C95.7401-32.3319 98.1891-29.8829 101.028-29.9452ZM101.028-4.82436C103.884-4.88667 106.252-7.21103 106.252-10.0667C106.252-12.9682 103.884-15.3713 101.028-15.3713C98.1891-15.3713 95.7401-12.8809 95.7401-10.0667C95.7401-7.21103 98.1891-4.76206 101.028-4.82436ZM123.996-42.4812L123.996-53.071L18.2244-53.071L18.2244-42.4812ZM123.996-17.2775L123.996-27.8673L18.2244-27.8673L18.2244-17.2775ZM30.7123 12.3878L111.469 12.3878C123.122 12.3878 129.72 5.78558 129.72-5.81433L129.72-64.5869C129.72-76.1868 123.122-82.789 111.469-82.789L30.7123-82.789C19.075-82.789 12.4609-76.1914 12.4609-64.5869L12.4609-5.81433C12.4609 5.79013 19.075 12.3878 30.7123 12.3878ZM32.7562-2.72824C29.3203-2.72824 27.5605-4.28072 27.5605-7.94034L27.5605-62.4609C27.5605-66.1369 29.3203-67.673 32.7562-67.673L109.425-67.673C112.852-67.673 114.62-66.1369 114.62-62.4609L114.62-7.94034C114.62-4.28072 112.852-2.72824 109.425-2.72824Z"/>
  </g>
  <g id="Bold-M" transform="matrix(1 0 0 1 2269.26 1126)">
   <path d="M101.547-55.457C104.585-55.5193 107.096-58.0017 107.096-61.0397C107.096-64.1114 104.585-66.6847 101.547-66.6847C98.5374-66.6847 95.9304-64.0543 95.9304-61.0397C95.9304-58.0017 98.5374-55.3947 101.547-55.457ZM101.547-29.6443C104.585-29.7066 107.096-32.189 107.096-35.227C107.096-38.2988 104.585-40.8721 101.547-40.8721C98.5374-40.8721 95.9304-38.2417 95.9304-35.227C95.9304-32.189 98.5374-29.582 101.547-29.6443ZM101.547-3.8602C104.585-3.92251 107.096-6.40487 107.096-9.44292C107.096-12.5147 104.585-15.0879 101.547-15.0879C98.5374-15.0879 95.9304-12.4576 95.9304-9.44292C95.9304-6.40487 98.5374-3.7979 101.547-3.8602ZM123.767-43.3836L123.767-52.8669L17.7441-52.8669L17.7441-43.3836ZM123.767-17.491L123.767-26.9743L17.7441-26.9743L17.7441-17.491ZM29.6986 11.4753L111.733 11.4753C122.895 11.4753 128.97 5.38973 128.97-5.67659L128.97-64.7304C128.97-75.7967 122.895-81.8822 111.733-81.8822L29.6986-81.8822C18.5648-81.8822 12.4609-75.8069 12.4609-64.7304L12.4609-5.67659C12.4609 5.39999 18.5648 11.4753 29.6986 11.4753ZM31.0794-1.14908C27.1457-1.14908 25.0566-3.06672 25.0566-7.20043L25.0566-63.2065C25.0566-67.3688 27.1457-69.2579 31.0794-69.2579L110.352-69.2579C114.265-69.2579 116.375-67.3688 116.375-63.2065L116.375-7.20043C116.375-3.06672 114.265-1.14908 110.352-1.14908Z"/>
  </g>
  <g id="Semibold-M" transform="matrix(1 0 0 1 1972.81 1126)">
   <path d="M101.904-55.6964C105.068-55.7587 107.678-58.35 107.678-61.5138C107.678-64.7028 105.068-67.3935 101.904-67.3935C98.7775-67.3935 96.0616-64.6665 96.0616-61.5138C96.0616-58.35 98.7775-55.6341 101.904-55.6964ZM101.904-29.4369C105.068-29.4992 107.678-32.0905 107.678-35.2543C107.678-38.4433 105.068-41.134 101.904-41.134C98.7775-41.134 96.0616-38.407 96.0616-35.2543C96.0616-32.0905 98.7775-29.3746 101.904-29.4369ZM101.904-3.19552C105.068-3.25782 107.678-5.84911 107.678-9.01293C107.678-12.202 105.068-14.8926 101.904-14.8926C98.7775-14.8926 96.0616-12.1657 96.0616-9.01293C96.0616-5.84911 98.7775-3.13321 101.904-3.19552ZM123.61-44.0057L123.61-52.7262L17.413-52.7262L17.413-44.0057ZM123.61-17.6381L123.61-26.3586L17.413-26.3586L17.413-17.6381ZM28.9998 10.8462L111.915 10.8462C122.739 10.8462 128.454 5.11683 128.454-5.58162L128.454-64.8293C128.454-75.5277 122.739-81.2571 111.915-81.2571L28.9998-81.2571C18.2131-81.2571 12.4609-75.5419 12.4609-64.8293L12.4609-5.58162C12.4609 5.13104 18.2131 10.8462 28.9998 10.8462ZM29.9233-0.0604106C25.6466-0.0604106 23.3305-2.2298 23.3305-6.69034L23.3305-63.7206C23.3305-68.2181 25.6466-70.3505 29.9233-70.3505L110.991-70.3505C115.24-70.3505 117.584-68.2181 117.584-63.7206L117.584-6.69034C117.584-2.2298 115.24-0.0604106 110.991-0.0604106Z"/>
  </g>
  <g id="Medium-M" transform="matrix(1 0 0 1 1676.29 1126)">
   <path d="M102.175-55.8779C105.435-55.9402 108.119-58.6141 108.119-61.8732C108.119-65.1513 105.435-67.9309 102.175-67.9309C98.9596-67.9309 96.1611-65.1307 96.1611-61.8732C96.1611-58.6141 98.9596-55.8156 102.175-55.8779ZM102.175-29.2796C105.435-29.3419 108.119-32.0157 108.119-35.2749C108.119-38.553 105.435-41.3326 102.175-41.3326C98.9596-41.3326 96.1611-38.5324 96.1611-35.2749C96.1611-32.0157 98.9596-29.2173 102.175-29.2796ZM102.175-2.69153C105.435-2.75383 108.119-5.42771 108.119-8.68688C108.119-11.9649 105.435-14.7445 102.175-14.7445C98.9596-14.7445 96.1611-11.9444 96.1611-8.68688C96.1611-5.42771 98.9596-2.62922 102.175-2.69153ZM123.49-44.4774L123.49-52.6195L17.1619-52.6195L17.1619-44.4774ZM123.49-17.7497L123.49-25.8918L17.1619-25.8918L17.1619-17.7497ZM28.47 10.3692L112.053 10.3692C122.62 10.3692 128.062 4.9099 128.062-5.50962L128.062-64.9043C128.062-75.3238 122.62-80.783 112.053-80.783L28.47-80.783C17.9464-80.783 12.4609-75.341 12.4609-64.9043L12.4609-5.50962C12.4609 4.9271 17.9464 10.3692 28.47 10.3692ZM29.0468 0.76506C24.5098 0.76506 22.0216-1.59521 22.0216-6.30356L22.0216-64.1103C22.0216-68.8621 24.5098-71.1789 29.0468-71.1789L111.476-71.1789C115.979-71.1789 118.501-68.8621 118.501-64.1103L118.501-6.30356C118.501-1.59521 115.979 0.76506 111.476 0.76506Z"/>
  </g>
  <g id="Regular-M" transform="matrix(1 0 0 1 1379.84 1126)">
   <path d="M102.529-56.1146C105.912-56.1769 108.694-58.9585 108.694-62.3421C108.694-65.7362 105.912-68.6319 102.529-68.6319C99.1971-68.6319 96.2909-65.7362 96.2909-62.3421C96.2909-58.9585 99.1971-56.0523 102.529-56.1146ZM102.529-29.0744C105.912-29.1367 108.694-31.9183 108.694-35.3018C108.694-38.696 105.912-41.5916 102.529-41.5916C99.1971-41.5916 96.2909-38.696 96.2909-35.3018C96.2909-31.9183 99.1971-29.0121 102.529-29.0744ZM102.529-2.03415C105.912-2.09645 108.694-4.87806 108.694-8.26161C108.694-11.6557 105.912-14.5514 102.529-14.5514C99.1971-14.5514 96.2909-11.6557 96.2909-8.26161C96.2909-4.87806 99.1971-1.97184 102.529-2.03415ZM123.335-45.0927L123.335-52.4804L16.8344-52.4804L16.8344-45.0927ZM123.335-17.8952L123.335-25.2829L16.8344-25.2829L16.8344-17.8952ZM27.7789 9.74698L112.233 9.74698C122.465 9.74698 127.551 4.64 127.551-5.4157L127.551-65.0021C127.551-75.0578 122.465-80.1648 112.233-80.1648L27.7789-80.1648C17.5986-80.1648 12.4609-75.0789 12.4609-65.0021L12.4609-5.4157C12.4609 4.6611 17.5986 9.74698 27.7789 9.74698ZM27.9035 1.84176C23.0272 1.84176 20.3144-0.767488 20.3144-5.79908L20.3144-64.6187C20.3144-69.702 23.0272-72.2595 27.9035-72.2595L112.108-72.2595C116.942-72.2595 119.697-69.702 119.697-64.6187L119.697-5.79908C119.697-0.767488 116.942 1.84176 112.108 1.84176Z"/>
  </g>
  <g id="Light-M" transform="matrix(1 0 0 1 1083.52 1126)">
   <path d="M103.196-56.3884C106.409-56.4507 109.053-59.0954 109.053-62.3079C109.053-65.548 106.409-68.2896 103.196-68.2896C100.018-68.2896 97.2491-65.548 97.2491-62.3079C97.2491-59.0954 100.018-56.3261 103.196-56.3884ZM103.196-29.3482C106.409-29.4105 109.053-32.0552 109.053-35.2676C109.053-38.5077 106.409-41.2494 103.196-41.2494C100.018-41.2494 97.2491-38.5077 97.2491-35.2676C97.2491-32.0552 100.018-29.2859 103.196-29.3482ZM103.196-2.30792C106.409-2.37023 109.053-5.01495 109.053-8.22739C109.053-11.4675 106.409-14.2092 103.196-14.2092C100.018-14.2092 97.2491-11.4675 97.2491-8.22739C97.2491-5.01495 100.018-2.24562 103.196-2.30792ZM123.591-45.9825L123.591-51.7104L15.9446-51.7104L15.9446-45.9825ZM123.591-18.631L123.591-24.3589L15.9446-24.3589L15.9446-18.631ZM26.8549 8.97699L112.37 8.97699C121.917 8.97699 126.764 4.07534 126.764-5.31303L126.764-65.139C126.764-74.5273 121.917-79.429 112.37-79.429L26.8549-79.429C17.3419-79.429 12.4609-74.5827 12.4609-65.139L12.4609-5.31303C12.4609 4.13066 17.3419 8.97699 26.8549 8.97699ZM26.9795 2.90264C21.4701 2.90264 18.5006 0.00250377 18.5006-5.61085L18.5006-64.8411C18.5006-70.4892 21.4701-73.3546 26.9795-73.3546L112.245-73.3546C117.644-73.3546 120.724-70.4892 120.724-64.8411L120.724-5.61085C120.724 0.00250377 117.644 2.90264 112.245 2.90264Z"/>
  </g>
  <g id="Thin-M" transform="matrix(1 0 0 1 787.33 1126)">
   <path d="M104.079-56.7505C107.065-56.8128 109.529-59.2765 109.529-62.2626C109.529-65.299 107.065-67.837 104.079-67.837C101.105-67.837 98.5164-65.299 98.5164-62.2626C98.5164-59.2765 101.105-56.6882 104.079-56.7505ZM104.079-29.7102C107.065-29.7726 109.529-32.2362 109.529-35.2224C109.529-38.2588 107.065-40.7968 104.079-40.7968C101.105-40.7968 98.5164-38.2588 98.5164-35.2224C98.5164-32.2362 101.105-29.6479 104.079-29.7102ZM104.079-2.67001C107.065-2.73232 109.529-5.19599 109.529-8.18213C109.529-11.2186 107.065-13.7566 104.079-13.7566C101.105-13.7566 98.5164-11.2186 98.5164-8.18213C98.5164-5.19599 101.105-2.60771 104.079-2.67001ZM123.931-47.1593L123.931-50.692L14.7678-50.692L14.7678-47.1593ZM123.931-19.6041L123.931-23.1368L14.7678-23.1368L14.7678-19.6041ZM25.6328 7.95861L112.551 7.95861C121.193 7.95861 125.723 3.32853 125.723-5.17725L125.723-65.32C125.723-73.8258 121.193-78.4559 112.551-78.4559L25.6328-78.4559C17.0024-78.4559 12.4609-73.9264 12.4609-65.32L12.4609-5.17725C12.4609 3.42911 17.0024 7.95861 25.6328 7.95861ZM25.7574 4.30574C19.4107 4.30574 16.1018 1.02088 16.1018-5.36192L16.1018-65.1353C16.1018-71.5302 19.4107-74.803 25.7574-74.803L112.426-74.803C118.572-74.803 122.082-71.5302 122.082-65.1353L122.082-5.36192C122.082 1.02088 118.572 4.30574 112.426 4.30574Z"/>
  </g>
  <g id="Ultralight-M" transform="matrix(1 0 0 1 490.886 1126)">
   <path d="M104.531-56.9359C107.401-56.9982 109.772-59.3692 109.772-62.2394C109.772-65.1715 107.401-67.6052 104.531-67.6052C101.661-67.6052 99.1655-65.1715 99.1655-62.2394C99.1655-59.3692 101.661-56.8736 104.531-56.9359ZM104.531-29.8957C107.401-29.958 109.772-32.329 109.772-35.1992C109.772-38.1313 107.401-40.565 104.531-40.565C101.661-40.565 99.1655-38.1313 99.1655-35.1992C99.1655-32.329 101.661-29.8334 104.531-29.8957ZM104.531-2.85547C107.401-2.91778 109.772-5.28872 109.772-8.15895C109.772-11.0911 107.401-13.5247 104.531-13.5247C101.661-13.5247 99.1655-11.0911 99.1655-8.15895C99.1655-5.28872 101.661-2.79317 104.531-2.85547ZM124.105-47.762L124.105-50.1704L14.165-50.1704L14.165-47.762ZM124.105-20.1025L124.105-22.5109L14.165-22.5109L14.165-20.1025ZM25.0069 7.437L112.644 7.437C120.822 7.437 125.189 2.94602 125.189-5.1077L125.189-65.4127C125.189-73.4665 120.822-77.9575 112.644-77.9575L25.0069-77.9575C16.8286-77.9575 12.4609-73.5902 12.4609-65.4127L12.4609-5.1077C12.4609 3.06978 16.8286 7.437 25.0069 7.437ZM25.1315 5.0244C18.3559 5.0244 14.8731 1.54249 14.8731-5.23441L14.8731-65.286C14.8731-72.0634 18.3559-75.5448 25.1315-75.5448L112.519-75.5448C119.047-75.5448 122.777-72.0634 122.777-65.286L122.777-5.23441C122.777 1.54249 119.047 5.0244 112.519 5.0244Z"/>
  </g>
  <g id="Black-S" transform="matrix(1 0 0 1 2877.35 696)">
   <path d="M78.7109-50.4883C80.7617-50.5371 82.4707-52.1973 82.4707-54.248C82.4707-56.3477 80.7617-58.0566 78.7109-58.0566C76.6602-58.0566 74.9023-56.25 74.9023-54.248C74.9023-52.1973 76.6602-50.4395 78.7109-50.4883ZM78.7109-31.3965C80.7617-31.4453 82.4707-33.1055 82.4707-35.1562C82.4707-37.2559 80.7617-38.9648 78.7109-38.9648C76.6602-38.9648 74.9023-37.1582 74.9023-35.1562C74.9023-33.1055 76.6602-31.3477 78.7109-31.3965ZM78.7109-12.3535C80.7617-12.4023 82.4707-14.0625 82.4707-16.1133C82.4707-18.2129 80.7617-19.9219 78.7109-19.9219C76.6602-19.9219 74.9023-18.1152 74.9023-16.1133C74.9023-14.0625 76.6602-12.3047 78.7109-12.3535ZM97.4121-40.0879L97.4121-49.3652L14.6973-49.3652L14.6973-40.0879ZM97.4121-20.9961L97.4121-30.2734L14.6973-30.2734L14.6973-20.9961ZM25 2.92969L87.1094 2.92969C96.6797 2.92969 102.344-2.73438 102.344-12.3047L102.344-58.1055C102.344-67.6758 96.6797-73.3398 87.1094-73.3398L25-73.3398C15.4297-73.3398 9.76562-67.6758 9.76562-58.1055L9.76562-12.3047C9.76562-2.73438 15.4297 2.92969 25 2.92969ZM27.2461-11.2305C25-11.2305 23.9258-12.1094 23.9258-14.5508L23.9258-55.8594C23.9258-58.3008 25-59.1797 27.2461-59.1797L84.8633-59.1797C87.1094-59.1797 88.1836-58.3008 88.1836-55.8594L88.1836-14.5508C88.1836-12.1094 87.1094-11.2305 84.8633-11.2305Z"/>
  </g>
  <g id="Heavy-S" transform="matrix(1 0 0 1 2580.87 696)">
   <path d="M79.0221-50.7188C81.2342-50.7676 83.07-52.566 83.07-54.7782C83.07-57.0276 81.2342-58.8864 79.0221-58.8864C76.8215-58.8864 74.9254-56.953 74.9254-54.7782C74.9254-52.566 76.8215-50.6699 79.0221-50.7188ZM79.0221-31.1314C81.2342-31.1802 83.07-32.9787 83.07-35.1908C83.07-37.4403 81.2342-39.2991 79.0221-39.2991C76.8215-39.2991 74.9254-37.3656 74.9254-35.1908C74.9254-32.9787 76.8215-31.0826 79.0221-31.1314ZM79.0221-11.5814C81.2342-11.6302 83.07-13.4287 83.07-15.6408C83.07-17.8902 81.2342-19.749 79.0221-19.749C76.8215-19.749 74.9254-17.8156 74.9254-15.6408C74.9254-13.4287 76.8215-11.5325 79.0221-11.5814ZM97.2047-40.6641L97.2047-49.3076L14.4437-49.3076L14.4437-40.6641ZM97.2047-21.0652L97.2047-29.7087L14.4437-29.7087L14.4437-21.0652ZM24.3431 2.33042L87.2938 2.33042C96.576 2.33042 101.871-2.96486 101.871-12.2125L101.871-58.1977C101.871-67.4453 96.576-72.7406 87.2938-72.7406L24.3431-72.7406C15.0724-72.7406 9.76562-67.4453 9.76562-58.1977L9.76562-12.2125C9.76562-2.96486 15.0724 2.33042 24.3431 2.33042ZM26.0821-10.1587C23.5364-10.1587 22.2432-11.2796 22.2432-14.0091L22.2432-56.401C22.2432-59.1421 23.5364-60.2515 26.0821-60.2515L85.5547-60.2515C88.1005-60.2515 89.3937-59.1421 89.3937-56.401L89.3937-14.0091C89.3937-11.2796 88.1005-10.1587 85.5547-10.1587Z"/>
  </g>
  <g id="Bold-S" transform="matrix(1 0 0 1 2284.42 696)">
   <path d="M79.3701-50.9766C81.7627-51.0254 83.7402-52.9785 83.7402-55.3711C83.7402-57.7881 81.7627-59.8145 79.3701-59.8145C77.002-59.8145 74.9512-57.7393 74.9512-55.3711C74.9512-52.9785 77.002-50.9277 79.3701-50.9766ZM79.3701-30.835C81.7627-30.8838 83.7402-32.8369 83.7402-35.2295C83.7402-37.6465 81.7627-39.6729 79.3701-39.6729C77.002-39.6729 74.9512-37.5977 74.9512-35.2295C74.9512-32.8369 77.002-30.7861 79.3701-30.835ZM79.3701-10.7178C81.7627-10.7666 83.7402-12.7197 83.7402-15.1123C83.7402-17.5293 81.7627-19.5557 79.3701-19.5557C77.002-19.5557 74.9512-17.4805 74.9512-15.1123C74.9512-12.7197 77.002-10.6689 79.3701-10.7178ZM96.9727-41.3086L96.9727-49.2432L14.1602-49.2432L14.1602-41.3086ZM96.9727-21.1426L96.9727-29.0771L14.1602-29.0771L14.1602-21.1426ZM23.6084 1.66016L87.5 1.66016C96.46 1.66016 101.343-3.22266 101.343-12.1094L101.343-58.3008C101.343-67.1875 96.46-72.0703 87.5-72.0703L23.6084-72.0703C14.6729-72.0703 9.76562-67.1875 9.76562-58.3008L9.76562-12.1094C9.76562-3.22266 14.6729 1.66016 23.6084 1.66016ZM24.7803-8.95996C21.8994-8.95996 20.3613-10.3516 20.3613-13.4033L20.3613-57.0068C20.3613-60.083 21.8994-61.4502 24.7803-61.4502L86.3281-61.4502C89.209-61.4502 90.7471-60.083 90.7471-57.0068L90.7471-13.4033C90.7471-10.3516 89.209-8.95996 86.3281-8.95996Z"/>
  </g>
  <g id="Semibold-S" transform="matrix(1 0 0 1 1987.89 696)">
   <path d="M79.6101-51.1543C82.1271-51.2031 84.2023-53.2629 84.2023-55.7799C84.2023-58.3124 82.1271-60.4543 79.6101-60.4543C77.1264-60.4543 74.9689-58.2813 74.9689-55.7799C74.9689-53.2629 77.1264-51.1055 79.6101-51.1543ZM79.6101-30.6306C82.1271-30.6794 84.2023-32.7392 84.2023-35.2562C84.2023-37.7887 82.1271-39.9306 79.6101-39.9306C77.1264-39.9306 74.9689-37.7576 74.9689-35.2562C74.9689-32.7392 77.1264-30.5817 79.6101-30.6306ZM79.6101-10.1224C82.1271-10.1712 84.2023-12.231 84.2023-14.7479C84.2023-17.2805 82.1271-19.4224 79.6101-19.4224C77.1264-19.4224 74.9689-17.2494 74.9689-14.7479C74.9689-12.231 77.1264-10.0735 79.6101-10.1224ZM96.8127-41.7529L96.8127-49.1987L13.9646-49.1987L13.9646-41.7529ZM96.8127-21.1959L96.8127-28.6417L13.9646-28.6417L13.9646-21.1959ZM23.1019 1.19805L87.6422 1.19805C96.38 1.19805 100.978-3.40039 100.978-12.0383L100.978-58.3719C100.978-67.0098 96.38-71.6082 87.6422-71.6082L23.1019-71.6082C14.3974-71.6082 9.76562-67.0098 9.76562-58.3719L9.76562-12.0383C9.76562-3.40039 14.3974 1.19805 23.1019 1.19805ZM23.8827-8.1335C20.7708-8.1335 19.0639-9.71172 19.0639-12.9856L19.0639-57.4245C19.0639-60.7317 20.7708-62.2767 23.8827-62.2767L86.8613-62.2767C89.9732-62.2767 91.6802-60.7317 91.6802-57.4245L91.6802-12.9856C91.6802-9.71172 89.9732-8.1335 86.8613-8.1335Z"/>
  </g>
  <g id="Medium-S" transform="matrix(1 0 0 1 1691.32 696)">
   <path d="M79.792-51.2891C82.4033-51.3379 84.5527-53.4785 84.5527-56.0898C84.5527-58.71 82.4033-60.9395 79.792-60.9395C77.2207-60.9395 74.9824-58.6924 74.9824-56.0898C74.9824-53.4785 77.2207-51.2402 79.792-51.2891ZM79.792-30.4756C82.4033-30.5244 84.5527-32.665 84.5527-35.2764C84.5527-37.8965 82.4033-40.126 79.792-40.126C77.2207-40.126 74.9824-37.8789 74.9824-35.2764C74.9824-32.665 77.2207-30.4268 79.792-30.4756ZM79.792-9.6709C82.4033-9.71973 84.5527-11.8604 84.5527-14.4717C84.5527-17.0918 82.4033-19.3213 79.792-19.3213C77.2207-19.3213 74.9824-17.0742 74.9824-14.4717C74.9824-11.8604 77.2207-9.62207 79.792-9.6709ZM96.6914-42.0898L96.6914-49.165L13.8164-49.165L13.8164-42.0898ZM96.6914-21.2363L96.6914-28.3115L13.8164-28.3115L13.8164-21.2363ZM22.7178 0.847656L87.75 0.847656C96.3193 0.847656 100.702-3.53516 100.702-11.9844L100.702-58.4258C100.702-66.875 96.3193-71.2578 87.75-71.2578L22.7178-71.2578C14.1885-71.2578 9.76562-66.875 9.76562-58.4258L9.76562-11.9844C9.76562-3.53516 14.1885 0.847656 22.7178 0.847656ZM23.2021-7.50684C19.915-7.50684 18.0801-9.22656 18.0801-12.6689L18.0801-57.7412C18.0801-61.2236 19.915-62.9033 23.2021-62.9033L87.2656-62.9033C90.5527-62.9033 92.3877-61.2236 92.3877-57.7412L92.3877-12.6689C92.3877-9.22656 90.5527-7.50684 87.2656-7.50684Z"/>
  </g>
  <g id="Regular-S" transform="matrix(1 0 0 1 1394.79 696)">
   <path d="M80.0293-51.4648C82.7637-51.5137 85.0098-53.7598 85.0098-56.4941C85.0098-59.2285 82.7637-61.5723 80.0293-61.5723C77.3438-61.5723 75-59.2285 75-56.4941C75-53.7598 77.3438-51.416 80.0293-51.4648ZM80.0293-30.2734C82.7637-30.3223 85.0098-32.5684 85.0098-35.3027C85.0098-38.0371 82.7637-40.3809 80.0293-40.3809C77.3438-40.3809 75-38.0371 75-35.3027C75-32.5684 77.3438-30.2246 80.0293-30.2734ZM80.0293-9.08203C82.7637-9.13086 85.0098-11.377 85.0098-14.1113C85.0098-16.8457 82.7637-19.1895 80.0293-19.1895C77.3438-19.1895 75-16.8457 75-14.1113C75-11.377 77.3438-9.0332 80.0293-9.08203ZM96.5332-42.5293L96.5332-49.1211L13.623-49.1211L13.623-42.5293ZM96.5332-21.2891L96.5332-27.8809L13.623-27.8809L13.623-21.2891ZM22.2168 0.390625L87.8906 0.390625C96.2402 0.390625 100.342-3.71094 100.342-11.9141L100.342-58.4961C100.342-66.6992 96.2402-70.8008 87.8906-70.8008L22.2168-70.8008C13.916-70.8008 9.76562-66.6992 9.76562-58.4961L9.76562-11.9141C9.76562-3.71094 13.916 0.390625 22.2168 0.390625ZM22.3145-6.68945C18.7988-6.68945 16.7969-8.59375 16.7969-12.2559L16.7969-58.1543C16.7969-61.8652 18.7988-63.7207 22.3145-63.7207L87.793-63.7207C91.3086-63.7207 93.3105-61.8652 93.3105-58.1543L93.3105-12.2559C93.3105-8.59375 91.3086-6.68945 87.793-6.68945Z"/>
  </g>
  <g id="Light-S" transform="matrix(1 0 0 1 1098.43 696)">
   <path d="M80.6196-51.707C83.2026-51.7559 85.3276-53.8809 85.3276-56.4639C85.3276-59.062 83.2026-61.2695 80.6196-61.2695C78.0703-61.2695 75.8476-59.062 75.8476-56.4639C75.8476-53.8809 78.0703-51.6582 80.6196-51.707ZM80.6196-30.5156C83.2026-30.5645 85.3276-32.6895 85.3276-35.2725C85.3276-37.8706 83.2026-40.0781 80.6196-40.0781C78.0703-40.0781 75.8476-37.8706 75.8476-35.2725C75.8476-32.6895 78.0703-30.4668 80.6196-30.5156ZM80.6196-9.32422C83.2026-9.37304 85.3276-11.498 85.3276-14.0811C85.3276-16.6792 83.2026-18.8867 80.6196-18.8867C78.0703-18.8867 75.8476-16.6792 75.8476-14.0811C75.8476-11.498 78.0703-9.27539 80.6196-9.32422ZM96.7603-43.3164L96.7603-48.4399L12.8359-48.4399L12.8359-43.3164ZM96.7603-21.9399L96.7603-27.0635L12.8359-27.0635L12.8359-21.9399ZM21.3994-0.290522L88.0117-0.290522C95.7559-0.290522 99.6455-4.21045 99.6455-11.8232L99.6455-58.6172C99.6455-66.23 95.7559-70.1499 88.0117-70.1499L21.3994-70.1499C13.689-70.1499 9.76562-66.2603 9.76562-58.6172L9.76562-11.8232C9.76562-4.18017 13.689-0.290522 21.3994-0.290522ZM21.4971-5.75098C17.4214-5.75098 15.1924-7.9126 15.1924-12.0894L15.1924-58.3511C15.1924-62.5615 17.4214-64.6894 21.4971-64.6894L87.9141-64.6894C91.9292-64.6894 94.2187-62.5615 94.2187-58.3511L94.2187-12.0894C94.2187-7.9126 91.9292-5.75098 87.9141-5.75098Z"/>
  </g>
  <g id="Thin-S" transform="matrix(1 0 0 1 802.177 696)">
   <path d="M81.4004-52.0273C83.7832-52.0762 85.748-54.041 85.748-56.4238C85.748-58.8418 83.7832-60.8691 81.4004-60.8691C79.0312-60.8691 76.9687-58.8418 76.9687-56.4238C76.9687-54.041 79.0312-51.9785 81.4004-52.0273ZM81.4004-30.8359C83.7832-30.8848 85.748-32.8496 85.748-35.2324C85.748-37.6504 83.7832-39.6777 81.4004-39.6777C79.0312-39.6777 76.9687-37.6504 76.9687-35.2324C76.9687-32.8496 79.0312-30.7871 81.4004-30.8359ZM81.4004-9.64453C83.7832-9.69335 85.748-11.6582 85.748-14.041C85.748-16.459 83.7832-18.4863 81.4004-18.4863C79.0312-18.4863 76.9687-16.459 76.9687-14.041C76.9687-11.6582 79.0312-9.5957 81.4004-9.64453ZM97.0605-44.3574L97.0605-47.5391L11.7949-47.5391L11.7949-44.3574ZM97.0605-22.8008L97.0605-25.9824L11.7949-25.9824L11.7949-22.8008ZM20.3184-1.19139L88.1719-1.19139C95.1152-1.19139 98.7246-4.87108 98.7246-11.7031L98.7246-58.7773C98.7246-65.6094 95.1152-69.2891 88.1719-69.2891L20.3184-69.2891C13.3887-69.2891 9.76562-65.6797 9.76562-58.7773L9.76562-11.7031C9.76562-4.80077 13.3887-1.19139 20.3184-1.19139ZM20.416-4.50978C15.5996-4.50978 13.0703-7.01173 13.0703-11.8691L13.0703-58.6113C13.0703-63.4824 15.5996-65.9707 20.416-65.9707L88.0742-65.9707C92.75-65.9707 95.4199-63.4824 95.4199-58.6113L95.4199-11.8691C95.4199-7.01173 92.75-4.50978 88.0742-4.50978Z"/>
  </g>
  <g id="Ultralight-S" transform="matrix(1 0 0 1 505.702 696)">
   <path d="M81.8003-52.1914C84.0806-52.2402 85.9634-54.123 85.9634-56.4033C85.9634-58.729 84.0806-60.6641 81.8003-60.6641C79.5234-60.6641 77.5429-58.729 77.5429-56.4033C77.5429-54.123 79.5234-52.1426 81.8003-52.1914ZM81.8003-31C84.0806-31.0488 85.9634-32.9316 85.9634-35.2119C85.9634-37.5376 84.0806-39.4727 81.8003-39.4727C79.5234-39.4727 77.5429-37.5376 77.5429-35.2119C77.5429-32.9316 79.5234-30.9512 81.8003-31ZM81.8003-9.80859C84.0806-9.85742 85.9634-11.7402 85.9634-14.0205C85.9634-16.3462 84.0806-18.2813 81.8003-18.2813C79.5234-18.2813 77.5429-16.3462 77.5429-14.0205C77.5429-11.7402 79.5234-9.75976 81.8003-9.80859ZM97.2144-44.8906L97.2144-47.0777L11.2617-47.0777L11.2617-44.8906ZM97.2144-23.2417L97.2144-25.4287L11.2617-25.4287L11.2617-23.2417ZM19.7647-1.65282L88.2539-1.65282C94.7871-1.65282 98.2529-5.20946 98.2529-11.6416L98.2529-58.8594C98.2529-65.2915 94.7871-68.8482 88.2539-68.8482L19.7647-68.8482C13.2349-68.8482 9.76562-65.3823 9.76562-58.8594L9.76562-11.6416C9.76562-5.11864 13.2349-1.65282 19.7647-1.65282ZM19.8623-3.87405C14.6665-3.87405 11.9834-6.55031 11.9834-11.7564L11.9834-58.7446C11.9834-63.9541 14.6665-66.6269 19.8623-66.6269L88.1562-66.6269C93.1704-66.6269 96.0351-63.9541 96.0351-58.7446L96.0351-11.7564C96.0351-6.55031 93.1704-3.87405 88.1562-3.87405Z"/>
  </g>
 </g>
</svg>
