<?xml version="1.0" encoding="UTF-8"?>
<!--Generator: Apple Native CoreSVG 123-->
<!DOCTYPE svg
PUBLIC "-//W3C//DTD SVG 1.1//EN"
       "http://www.w3.org/Graphics/SVG/1.1/DTD/svg11.dtd">
<svg version="1.1" xmlns="http://www.w3.org/2000/svg" xmlns:xlink="http://www.w3.org/1999/xlink" width="3300" height="2200">
 <!--glyph: "uni10024C.medium", point size: 100.000000, font version: "Version 15.0d7e11", template writer version: "5"-->
 <g id="Notes">
  <rect height="2200" id="artboard" style="fill:white;opacity:1" width="3300" x="0" y="0"/>
  <line id="" style="fill:none;stroke:black;opacity:1;stroke-width:0.5;" x1="263" x2="3036" y1="292" y2="292"/>
  <text style="stroke:none;fill:black;font-family:-apple-system,&quot;SF Pro Display&quot;,&quot;SF Pro Text&quot;,Helvetica,sans-serif;font-weight:bold;" transform="matrix(1 0 0 1 263 322)">Weight/Scale Variations</text>
  <text style="stroke:none;fill:black;font-family:-apple-system,&quot;SF Pro Display&quot;,&quot;SF Pro Text&quot;,Helvetica,sans-serif;text-anchor:middle;" transform="matrix(1 0 0 1 559.711 322)">Ultralight</text>
  <text style="stroke:none;fill:black;font-family:-apple-system,&quot;SF Pro Display&quot;,&quot;SF Pro Text&quot;,Helvetica,sans-serif;text-anchor:middle;" transform="matrix(1 0 0 1 856.422 322)">Thin</text>
  <text style="stroke:none;fill:black;font-family:-apple-system,&quot;SF Pro Display&quot;,&quot;SF Pro Text&quot;,Helvetica,sans-serif;text-anchor:middle;" transform="matrix(1 0 0 1 1153.13 322)">Light</text>
  <text style="stroke:none;fill:black;font-family:-apple-system,&quot;SF Pro Display&quot;,&quot;SF Pro Text&quot;,Helvetica,sans-serif;text-anchor:middle;" transform="matrix(1 0 0 1 1449.84 322)">Regular</text>
  <text style="stroke:none;fill:black;font-family:-apple-system,&quot;SF Pro Display&quot;,&quot;SF Pro Text&quot;,Helvetica,sans-serif;text-anchor:middle;" transform="matrix(1 0 0 1 1746.56 322)">Medium</text>
  <text style="stroke:none;fill:black;font-family:-apple-system,&quot;SF Pro Display&quot;,&quot;SF Pro Text&quot;,Helvetica,sans-serif;text-anchor:middle;" transform="matrix(1 0 0 1 2043.27 322)">Semibold</text>
  <text style="stroke:none;fill:black;font-family:-apple-system,&quot;SF Pro Display&quot;,&quot;SF Pro Text&quot;,Helvetica,sans-serif;text-anchor:middle;" transform="matrix(1 0 0 1 2339.98 322)">Bold</text>
  <text style="stroke:none;fill:black;font-family:-apple-system,&quot;SF Pro Display&quot;,&quot;SF Pro Text&quot;,Helvetica,sans-serif;text-anchor:middle;" transform="matrix(1 0 0 1 2636.69 322)">Heavy</text>
  <text style="stroke:none;fill:black;font-family:-apple-system,&quot;SF Pro Display&quot;,&quot;SF Pro Text&quot;,Helvetica,sans-serif;text-anchor:middle;" transform="matrix(1 0 0 1 2933.4 322)">Black</text>
  <line id="" style="fill:none;stroke:black;opacity:1;stroke-width:0.5;" x1="263" x2="3036" y1="1903" y2="1903"/>
  <g id="" transform="matrix(1 0 0 1 263 1933)">
   <path d="M 9.24805 0.830078 C 13.5547 0.830078 17.1387 -2.74414 17.1387 -7.05078 C 17.1387 -11.3574 13.5449 -14.9316 9.23828 -14.9316 C 4.94141 -14.9316 1.36719 -11.3574 1.36719 -7.05078 C 1.36719 -2.74414 4.95117 0.830078 9.24805 0.830078 Z M 9.24805 -0.654297 C 5.70312 -0.654297 2.87109 -3.49609 2.87109 -7.05078 C 2.87109 -10.6055 5.69336 -13.4473 9.23828 -13.4473 C 12.793 -13.4473 15.6348 -10.6055 15.6445 -7.05078 C 15.6543 -3.49609 12.8027 -0.654297 9.24805 -0.654297 Z M 9.22852 -3.42773 C 9.69727 -3.42773 9.9707 -3.74023 9.9707 -4.25781 L 9.9707 -6.31836 L 12.1973 -6.31836 C 12.6953 -6.31836 13.0371 -6.57227 13.0371 -7.04102 C 13.0371 -7.51953 12.7148 -7.7832 12.1973 -7.7832 L 9.9707 -7.7832 L 9.9707 -10.0098 C 9.9707 -10.5273 9.69727 -10.8496 9.22852 -10.8496 C 8.75977 -10.8496 8.50586 -10.5078 8.50586 -10.0098 L 8.50586 -7.7832 L 6.29883 -7.7832 C 5.78125 -7.7832 5.44922 -7.51953 5.44922 -7.04102 C 5.44922 -6.57227 5.80078 -6.31836 6.29883 -6.31836 L 8.50586 -6.31836 L 8.50586 -4.25781 C 8.50586 -3.75977 8.75977 -3.42773 9.22852 -3.42773 Z"/>
  </g>
  <g id="" transform="matrix(1 0 0 1 281.506 1933)">
   <path d="M 11.709 2.91016 C 17.1582 2.91016 21.6699 -1.60156 21.6699 -7.05078 C 21.6699 -12.4902 17.1484 -17.0117 11.6992 -17.0117 C 6.25977 -17.0117 1.74805 -12.4902 1.74805 -7.05078 C 1.74805 -1.60156 6.26953 2.91016 11.709 2.91016 Z M 11.709 1.25 C 7.09961 1.25 3.41797 -2.44141 3.41797 -7.05078 C 3.41797 -11.6504 7.08984 -15.3516 11.6992 -15.3516 C 16.3086 -15.3516 20 -11.6504 20.0098 -7.05078 C 20.0195 -2.44141 16.3184 1.25 11.709 1.25 Z M 11.6895 -2.41211 C 12.207 -2.41211 12.5195 -2.77344 12.5195 -3.33984 L 12.5195 -6.23047 L 15.5762 -6.23047 C 16.123 -6.23047 16.5039 -6.51367 16.5039 -7.03125 C 16.5039 -7.55859 16.1426 -7.86133 15.5762 -7.86133 L 12.5195 -7.86133 L 12.5195 -10.9277 C 12.5195 -11.5039 12.207 -11.8555 11.6895 -11.8555 C 11.1719 -11.8555 10.8789 -11.4844 10.8789 -10.9277 L 10.8789 -7.86133 L 7.83203 -7.86133 C 7.26562 -7.86133 6.89453 -7.55859 6.89453 -7.03125 C 6.89453 -6.51367 7.28516 -6.23047 7.83203 -6.23047 L 10.8789 -6.23047 L 10.8789 -3.33984 C 10.8789 -2.79297 11.1719 -2.41211 11.6895 -2.41211 Z"/>
  </g>
  <g id="" transform="matrix(1 0 0 1 304.924 1933)">
   <path d="M 14.9707 5.67383 C 21.9336 5.67383 27.6953 -0.078125 27.6953 -7.04102 C 27.6953 -14.0039 21.9238 -19.7559 14.9609 -19.7559 C 8.00781 -19.7559 2.25586 -14.0039 2.25586 -7.04102 C 2.25586 -0.078125 8.01758 5.67383 14.9707 5.67383 Z M 14.9707 3.85742 C 8.93555 3.85742 4.08203 -1.00586 4.08203 -7.04102 C 4.08203 -13.0762 8.92578 -17.9395 14.9609 -17.9395 C 21.0059 -17.9395 25.8594 -13.0762 25.8691 -7.04102 C 25.8789 -1.00586 21.0156 3.85742 14.9707 3.85742 Z M 14.9512 -1.06445 C 15.5176 -1.06445 15.8691 -1.45508 15.8691 -2.06055 L 15.8691 -6.13281 L 20.1074 -6.13281 C 20.6934 -6.13281 21.1133 -6.46484 21.1133 -7.02148 C 21.1133 -7.59766 20.7227 -7.93945 20.1074 -7.93945 L 15.8691 -7.93945 L 15.8691 -12.1875 C 15.8691 -12.8027 15.5176 -13.1934 14.9512 -13.1934 C 14.3848 -13.1934 14.0625 -12.7832 14.0625 -12.1875 L 14.0625 -7.93945 L 9.83398 -7.93945 C 9.21875 -7.93945 8.80859 -7.59766 8.80859 -7.02148 C 8.80859 -6.46484 9.23828 -6.13281 9.83398 -6.13281 L 14.0625 -6.13281 L 14.0625 -2.06055 C 14.0625 -1.47461 14.3848 -1.06445 14.9512 -1.06445 Z"/>
  </g>
  <text style="stroke:none;fill:black;font-family:-apple-system,&quot;SF Pro Display&quot;,&quot;SF Pro Text&quot;,Helvetica,sans-serif;font-weight:bold;" transform="matrix(1 0 0 1 263 1953)">Design Variations</text>
  <text style="stroke:none;fill:black;font-family:-apple-system,&quot;SF Pro Display&quot;,&quot;SF Pro Text&quot;,Helvetica,sans-serif;" transform="matrix(1 0 0 1 263 1971)">Symbols are supported in up to nine weights and three scales.</text>
  <text style="stroke:none;fill:black;font-family:-apple-system,&quot;SF Pro Display&quot;,&quot;SF Pro Text&quot;,Helvetica,sans-serif;" transform="matrix(1 0 0 1 263 1989)">For optimal layout with text and other symbols, vertically align</text>
  <text style="stroke:none;fill:black;font-family:-apple-system,&quot;SF Pro Display&quot;,&quot;SF Pro Text&quot;,Helvetica,sans-serif;" transform="matrix(1 0 0 1 263 2007)">symbols with the adjacent text.</text>
  <rect height="14" id="" style="fill:#00AEEF;stroke:none;opacity:0.4;" width="3" x="776" y="1919"/>
  <g id="" transform="matrix(1 0 0 1 779 1933)">
   <path d="M 10.5273 0 L 12.373 0 L 7.17773 -14.0918 L 5.43945 -14.0918 L 0.244141 0 L 2.08984 0 L 3.50586 -4.0332 L 9.11133 -4.0332 Z M 6.2793 -11.9531 L 6.33789 -11.9531 L 8.59375 -5.52734 L 4.02344 -5.52734 Z"/>
  </g>
  <rect height="14" id="" style="fill:#00AEEF;stroke:none;opacity:0.4;" width="3" x="791.617" y="1919"/>
  <text style="stroke:none;fill:black;font-family:-apple-system,&quot;SF Pro Display&quot;,&quot;SF Pro Text&quot;,Helvetica,sans-serif;font-weight:bold;" transform="matrix(1 0 0 1 776 1953)">Margins</text>
  <text style="stroke:none;fill:black;font-family:-apple-system,&quot;SF Pro Display&quot;,&quot;SF Pro Text&quot;,Helvetica,sans-serif;" transform="matrix(1 0 0 1 776 1971)">Leading and trailing margins on the left and right side of each symbol</text>
  <text style="stroke:none;fill:black;font-family:-apple-system,&quot;SF Pro Display&quot;,&quot;SF Pro Text&quot;,Helvetica,sans-serif;" transform="matrix(1 0 0 1 776 1989)">can be adjusted by modifying the width of the blue rectangles.</text>
  <text style="stroke:none;fill:black;font-family:-apple-system,&quot;SF Pro Display&quot;,&quot;SF Pro Text&quot;,Helvetica,sans-serif;" transform="matrix(1 0 0 1 776 2007)">Modifications are automatically applied proportionally to all</text>
  <text style="stroke:none;fill:black;font-family:-apple-system,&quot;SF Pro Display&quot;,&quot;SF Pro Text&quot;,Helvetica,sans-serif;" transform="matrix(1 0 0 1 776 2025)">scales and weights.</text>
  <g id="" transform="matrix(1 0 0 1 1289 1933)">
   <path d="M 2.83203 3.11523 L 4.375 4.6582 C 5.22461 5.48828 6.19141 5.41992 7.06055 4.46289 L 17.2754 -6.66016 C 17.7051 -6.36719 18.0957 -6.37695 18.5645 -6.47461 L 19.6094 -6.68945 L 20.3027 -5.99609 L 20.2539 -5.47852 C 20.1855 -4.95117 20.3516 -4.53125 20.8496 -4.0332 L 21.6602 -3.22266 C 22.168 -2.71484 22.8223 -2.68555 23.3008 -3.16406 L 26.5527 -6.41602 C 27.0312 -6.89453 27.0117 -7.54883 26.5039 -8.05664 L 25.6836 -8.87695 C 25.1855 -9.375 24.7754 -9.55078 24.2383 -9.47266 L 23.7109 -9.41406 L 23.0566 -10.0781 L 23.3398 -11.2207 C 23.4863 -11.7871 23.3398 -12.2559 22.7148 -12.8613 L 20.3027 -15.2539 C 16.7578 -18.7793 12.2266 -18.6719 9.11133 -15.5371 C 8.69141 -15.1074 8.64258 -14.5215 8.91602 -14.0918 C 9.15039 -13.7207 9.62891 -13.4961 10.2734 -13.6621 C 11.7871 -14.043 13.3008 -13.9258 14.7852 -12.9199 L 14.1602 -11.3379 C 13.9258 -10.752 13.9453 -10.2734 14.1797 -9.83398 L 3.01758 0.439453 C 2.08008 1.30859 1.97266 2.25586 2.83203 3.11523 Z M 10.6738 -15.1465 C 13.3398 -17.1387 16.6504 -16.8262 19.0527 -14.4141 L 21.6797 -11.8066 C 21.9141 -11.5723 21.9434 -11.3867 21.8848 -11.0938 L 21.5039 -9.53125 L 23.0762 -7.95898 L 24.043 -8.04688 C 24.3262 -8.07617 24.4141 -8.05664 24.6387 -7.83203 L 25.2637 -7.20703 L 22.5098 -4.46289 L 21.8848 -5.07812 C 21.6602 -5.30273 21.6406 -5.40039 21.6699 -5.68359 L 21.7578 -6.64062 L 20.1953 -8.20312 L 18.5742 -7.89062 C 18.291 -7.83203 18.1445 -7.83203 17.9102 -8.07617 L 15.7324 -10.2539 C 15.5078 -10.4883 15.4785 -10.625 15.6055 -10.9473 L 16.5527 -13.2227 C 14.9512 -14.7559 12.8418 -15.6055 10.8008 -14.9512 C 10.7129 -14.9219 10.6445 -14.9414 10.6152 -14.9805 C 10.5859 -15.0293 10.5859 -15.0781 10.6738 -15.1465 Z M 4.10156 2.41211 C 3.61328 1.91406 3.78906 1.61133 4.12109 1.30859 L 15.0781 -8.80859 L 16.3086 -7.57812 L 6.15234 3.34961 C 5.84961 3.68164 5.46875 3.7793 5.06836 3.37891 Z"/>
  </g>
  <text style="stroke:none;fill:black;font-family:-apple-system,&quot;SF Pro Display&quot;,&quot;SF Pro Text&quot;,Helvetica,sans-serif;font-weight:bold;" transform="matrix(1 0 0 1 1289 1953)">Exporting</text>
  <text style="stroke:none;fill:black;font-family:-apple-system,&quot;SF Pro Display&quot;,&quot;SF Pro Text&quot;,Helvetica,sans-serif;" transform="matrix(1 0 0 1 1289 1971)">Symbols should be outlined when exporting to ensure the</text>
  <text style="stroke:none;fill:black;font-family:-apple-system,&quot;SF Pro Display&quot;,&quot;SF Pro Text&quot;,Helvetica,sans-serif;" transform="matrix(1 0 0 1 1289 1989)">design is preserved when submitting to Xcode.</text>
  <text id="template-version" style="stroke:none;fill:black;font-family:-apple-system,&quot;SF Pro Display&quot;,&quot;SF Pro Text&quot;,Helvetica,sans-serif;text-anchor:end;" transform="matrix(1 0 0 1 3036 1933)">Template v.1.0</text>
  <text style="stroke:none;fill:black;font-family:-apple-system,&quot;SF Pro Display&quot;,&quot;SF Pro Text&quot;,Helvetica,sans-serif;text-anchor:end;" transform="matrix(1 0 0 1 3036 1951)">Generated from arrowshape.turn.up.left</text>
  <text style="stroke:none;fill:black;font-family:-apple-system,&quot;SF Pro Display&quot;,&quot;SF Pro Text&quot;,Helvetica,sans-serif;text-anchor:end;" transform="matrix(1 0 0 1 3036 1969)">Typeset at 100 points</text>
  <text style="stroke:none;fill:black;font-family:-apple-system,&quot;SF Pro Display&quot;,&quot;SF Pro Text&quot;,Helvetica,sans-serif;" transform="matrix(1 0 0 1 263 726)">Small</text>
  <text style="stroke:none;fill:black;font-family:-apple-system,&quot;SF Pro Display&quot;,&quot;SF Pro Text&quot;,Helvetica,sans-serif;" transform="matrix(1 0 0 1 263 1156)">Medium</text>
  <text style="stroke:none;fill:black;font-family:-apple-system,&quot;SF Pro Display&quot;,&quot;SF Pro Text&quot;,Helvetica,sans-serif;" transform="matrix(1 0 0 1 263 1586)">Large</text>
 </g>
 <g id="Guides">
  <g id="H-reference" style="fill:#27AAE1;stroke:none;" transform="matrix(1 0 0 1 339 696)">
   <path d="M 54.9316 0 L 57.666 0 L 30.5664 -70.459 L 28.0762 -70.459 L 0.976562 0 L 3.66211 0 L 12.9395 -24.4629 L 45.7031 -24.4629 Z M 29.1992 -67.0898 L 29.4434 -67.0898 L 44.8242 -26.709 L 13.8184 -26.709 Z"/>
  </g>
  <line id="Baseline-S" style="fill:none;stroke:#27AAE1;opacity:1;stroke-width:0.577;" x1="263" x2="3036" y1="696" y2="696"/>
  <line id="Capline-S" style="fill:none;stroke:#27AAE1;opacity:1;stroke-width:0.577;" x1="263" x2="3036" y1="625.541" y2="625.541"/>
  <g id="H-reference" style="fill:#27AAE1;stroke:none;" transform="matrix(1 0 0 1 339 1126)">
   <path d="M 54.9316 0 L 57.666 0 L 30.5664 -70.459 L 28.0762 -70.459 L 0.976562 0 L 3.66211 0 L 12.9395 -24.4629 L 45.7031 -24.4629 Z M 29.1992 -67.0898 L 29.4434 -67.0898 L 44.8242 -26.709 L 13.8184 -26.709 Z"/>
  </g>
  <line id="Baseline-M" style="fill:none;stroke:#27AAE1;opacity:1;stroke-width:0.577;" x1="263" x2="3036" y1="1126" y2="1126"/>
  <line id="Capline-M" style="fill:none;stroke:#27AAE1;opacity:1;stroke-width:0.577;" x1="263" x2="3036" y1="1055.54" y2="1055.54"/>
  <g id="H-reference" style="fill:#27AAE1;stroke:none;" transform="matrix(1 0 0 1 339 1556)">
   <path d="M 54.9316 0 L 57.666 0 L 30.5664 -70.459 L 28.0762 -70.459 L 0.976562 0 L 3.66211 0 L 12.9395 -24.4629 L 45.7031 -24.4629 Z M 29.1992 -67.0898 L 29.4434 -67.0898 L 44.8242 -26.709 L 13.8184 -26.709 Z"/>
  </g>
  <line id="Baseline-L" style="fill:none;stroke:#27AAE1;opacity:1;stroke-width:0.577;" x1="263" x2="3036" y1="1556" y2="1556"/>
  <line id="Capline-L" style="fill:none;stroke:#27AAE1;opacity:1;stroke-width:0.577;" x1="263" x2="3036" y1="1485.54" y2="1485.54"/>
  <rect height="119.336" id="left-margin" style="fill:#00AEEF;stroke:none;opacity:0.4;" width="9.96094" x="1387.86" y="1030.79"/>
  <rect height="119.336" id="right-margin" style="fill:#00AEEF;stroke:none;opacity:0.4;" width="8.74023" x="1503.09" y="1030.79"/>
 </g>
 <g id="Symbols">
  <g id="Black-L" transform="matrix(1 0 0 1 2851.76 1556)">
   <path d="M 79.5898 26.416 C 86.4746 26.416 91.7969 21.1426 91.7969 14.209 L 91.7969 -3.71094 L 92.4316 -3.71094 C 111.035 -3.71094 120.85 4.73633 127.539 16.6016 C 130.859 23.0469 134.814 25.2441 140.088 25.2441 C 147.754 25.2441 152.051 17.5293 152.051 1.95312 C 152.051 -40.9668 131.055 -66.2109 92.4316 -66.2109 L 91.7969 -66.2109 L 91.7969 -84.4727 C 91.7969 -91.3574 86.4746 -96.7773 79.541 -96.7773 C 75.2441 -96.7773 72.0703 -95.166 67.2852 -90.918 L 16.7969 -44.3848 C 14.2578 -41.9434 12.8906 -38.4277 12.8906 -35.2051 C 12.8906 -32.1289 14.3066 -28.418 16.8457 -25.9766 L 67.2852 20.7031 C 71.6309 24.6582 75.0488 26.416 79.5898 26.416 Z M 74.2676 1.36719 C 73.9258 1.36719 73.584 1.2207 73.291 0.927734 L 36.0352 -34.2285 C 35.6445 -34.6191 35.498 -34.9121 35.498 -35.2051 C 35.498 -35.5469 35.6445 -35.7422 36.0352 -36.1328 L 73.291 -71.4844 C 73.584 -71.7285 73.9258 -71.8262 74.2676 -71.8262 C 74.8535 -71.8262 75.3418 -71.3867 75.3418 -70.6543 L 75.3418 -50.7324 C 75.3418 -49.3164 75.9277 -48.7305 77.3438 -48.7305 L 84.5215 -48.7305 C 117.92 -48.7305 134.961 -30.6641 135.4 -1.02539 C 135.4 -0.683594 135.254 -0.537109 135.01 -0.537109 C 134.814 -0.537109 134.668 -0.683594 134.521 -1.02539 C 126.611 -16.0645 110.303 -21.6797 84.5215 -21.6797 L 77.3438 -21.6797 C 75.9277 -21.6797 75.3418 -21.0449 75.3418 -19.6777 L 75.3418 0.146484 C 75.3418 0.878906 74.8535 1.36719 74.2676 1.36719 Z"/>
  </g>
  <g id="Heavy-L" transform="matrix(1 0 0 1 2555.63 1556)">
   <path d="M 78.125 25.293 C 84.3262 25.293 89.0625 20.6055 89.0625 14.4043 L 89.0625 -5.12695 L 90.0391 -5.12695 C 110.254 -5.12695 121.533 2.88086 129.102 16.7969 C 132.129 22.5586 135.742 24.4141 140.332 24.4141 C 146.924 24.4141 150.83 17.8711 150.83 4.83398 C 150.83 -39.1602 129.834 -64.9414 90.0391 -64.9414 L 89.0625 -64.9414 L 89.0625 -84.668 C 89.0625 -90.8691 84.3262 -95.752 78.0762 -95.752 C 74.1699 -95.752 71.2891 -94.1406 66.9434 -90.332 L 16.6504 -43.8477 C 14.1113 -41.3574 12.8906 -38.1836 12.8906 -35.2051 C 12.8906 -32.4219 14.1602 -29.0527 16.6992 -26.6113 L 66.9434 20.0684 C 70.8984 23.6328 74.0234 25.293 78.125 25.293 Z M 73.3887 3.4668 C 73.0469 3.4668 72.7051 3.32031 72.3633 2.97852 L 33.0566 -34.082 C 32.5684 -34.5703 32.4219 -34.9121 32.4219 -35.2051 C 32.4219 -35.5957 32.5684 -35.8887 33.0566 -36.377 L 72.3633 -73.6328 C 72.7051 -73.9258 72.998 -74.0723 73.3887 -74.0723 C 73.9746 -74.0723 74.4629 -73.6328 74.4629 -72.9492 L 74.4629 -51.6602 C 74.4629 -50.2441 75.0488 -49.6094 76.4648 -49.6094 L 83.6914 -49.6094 C 119.141 -49.6094 135.791 -29.1992 136.328 1.36719 C 136.328 1.75781 136.182 1.9043 135.889 1.9043 C 135.645 1.9043 135.498 1.75781 135.352 1.36719 C 127.539 -14.1602 110.547 -20.8008 83.6914 -20.8008 L 76.4648 -20.8008 C 75.0488 -20.8008 74.4629 -20.2148 74.4629 -18.7988 L 74.4629 2.29492 C 74.4629 2.97852 73.9746 3.4668 73.3887 3.4668 Z"/>
  </g>
  <g id="Bold-L" transform="matrix(1 0 0 1 2259.58 1556)">
   <path d="M 76.5625 24.0234 C 81.9824 24.0234 85.9863 19.9707 85.9863 14.5996 L 85.9863 -6.73828 L 87.3535 -6.73828 C 109.424 -6.73828 122.314 0.78125 130.859 16.9434 C 133.496 21.9727 136.719 23.4375 140.625 23.4375 C 145.996 23.4375 149.512 18.2617 149.512 8.00781 C 149.512 -37.207 128.467 -63.4766 87.3535 -63.4766 L 85.9863 -63.4766 L 85.9863 -84.9121 C 85.9863 -90.2832 81.9824 -94.5801 76.4648 -94.5801 C 72.9492 -94.5801 70.459 -93.0664 66.5527 -89.6484 L 16.5039 -43.2129 C 13.916 -40.7227 12.8906 -37.8906 12.8906 -35.2539 C 12.8906 -32.7637 13.9648 -29.7852 16.5039 -27.3438 L 66.5527 19.3359 C 70.1172 22.5098 72.9004 24.0234 76.5625 24.0234 Z M 72.4121 5.81055 C 72.0703 5.81055 71.7285 5.61523 71.3379 5.27344 L 29.7363 -33.9355 C 29.1504 -34.4727 28.9551 -34.8633 28.9551 -35.2539 C 28.9551 -35.6934 29.1992 -36.084 29.7363 -36.6211 L 71.3379 -76.0742 C 71.6309 -76.3672 72.0215 -76.5625 72.4121 -76.5625 C 72.998 -76.5625 73.4375 -76.1719 73.4375 -75.5371 L 73.4375 -52.6367 C 73.4375 -51.2207 74.0234 -50.6348 75.4395 -50.6348 L 82.7637 -50.6348 C 120.508 -50.6348 136.67 -27.5879 137.402 4.05273 C 137.402 4.44336 137.207 4.6875 136.914 4.6875 C 136.621 4.6875 136.475 4.44336 136.279 4.05273 C 128.613 -12.0117 110.791 -19.8242 82.7637 -19.8242 L 75.4395 -19.8242 C 74.0234 -19.8242 73.4375 -19.1895 73.4375 -17.8223 L 73.4375 4.6875 C 73.4375 5.37109 72.998 5.81055 72.4121 5.81055 Z"/>
  </g>
  <g id="Semibold-L" transform="matrix(1 0 0 1 1963.34 1556)">
   <path d="M 75.4395 23.1934 C 80.3223 23.1934 83.8867 19.5312 83.8867 14.7461 L 83.8867 -7.86133 L 85.498 -7.86133 C 108.838 -7.86133 122.803 -0.683594 132.08 17.0898 C 134.473 21.6309 137.402 22.8027 140.82 22.8027 C 145.361 22.8027 148.633 18.5059 148.633 10.2539 C 148.633 -35.791 127.539 -62.4512 85.498 -62.4512 L 83.8867 -62.4512 L 83.8867 -85.0586 C 83.8867 -89.8926 80.3223 -93.75 75.3906 -93.75 C 72.1191 -93.75 69.873 -92.2852 66.3086 -89.209 L 16.3574 -42.7734 C 13.8184 -40.2832 12.8906 -37.6953 12.8906 -35.3027 C 12.8906 -32.959 13.8672 -30.2734 16.4062 -27.832 L 66.3086 18.8477 C 69.5312 21.7285 72.1191 23.1934 75.4395 23.1934 Z M 71.7773 7.42188 C 71.3867 7.42188 71.0449 7.22656 70.6055 6.83594 L 27.4902 -33.7891 C 26.8066 -34.4238 26.6113 -34.8633 26.6113 -35.3027 C 26.6113 -35.7422 26.8555 -36.1816 27.4902 -36.8164 L 70.6055 -77.7832 C 70.9473 -78.0762 71.2891 -78.3203 71.7285 -78.3203 C 72.3145 -78.3203 72.7539 -77.8809 72.7539 -77.2949 L 72.7539 -53.3203 C 72.7539 -51.9043 73.3398 -51.3184 74.7559 -51.3184 L 82.1777 -51.3184 C 121.436 -51.3184 137.305 -26.4648 138.086 5.9082 C 138.086 6.34766 137.939 6.5918 137.598 6.5918 C 137.305 6.5918 137.109 6.29883 136.914 5.85938 C 129.346 -10.5469 110.986 -19.1406 82.1777 -19.1406 L 74.7559 -19.1406 C 73.3398 -19.1406 72.7539 -18.5547 72.7539 -17.1387 L 72.7539 6.34766 C 72.7539 6.98242 72.3145 7.42188 71.7773 7.42188 Z"/>
  </g>
  <g id="Medium-L" transform="matrix(1 0 0 1 1666.97 1556)">
   <path d="M 74.6094 22.5098 C 79.1016 22.5098 82.2754 19.2383 82.2754 14.8438 L 82.2754 -8.69141 L 84.082 -8.69141 C 108.398 -8.69141 123.242 -1.75781 133.008 17.1387 C 135.156 21.3379 137.939 22.3145 140.967 22.3145 C 144.873 22.3145 147.9 18.7012 147.9 11.9141 C 147.9 -34.7656 126.855 -61.6699 84.082 -61.6699 L 82.2754 -61.6699 L 82.2754 -85.2051 C 82.2754 -89.5996 79.1016 -93.1641 74.5605 -93.1641 C 71.4844 -93.1641 69.4336 -91.6992 66.0645 -88.8672 L 16.3086 -42.4805 C 13.7207 -39.9414 12.8906 -37.5488 12.8906 -35.3027 C 12.8906 -33.1543 13.7695 -30.6641 16.3086 -28.2227 L 66.0645 18.5059 C 69.0918 21.1426 71.5332 22.5098 74.6094 22.5098 Z M 71.2402 8.64258 C 70.8984 8.64258 70.5078 8.44727 70.0684 8.05664 L 25.7324 -33.6914 C 25.0488 -34.375 24.8047 -34.8145 24.8047 -35.3027 C 24.8047 -35.791 25.0488 -36.2793 25.7324 -36.9141 L 70.0684 -79.0527 C 70.4102 -79.3457 70.8008 -79.6387 71.2402 -79.6387 C 71.8262 -79.6387 72.2168 -79.248 72.2168 -78.6133 L 72.2168 -53.8574 C 72.2168 -52.4414 72.8027 -51.8555 74.2188 -51.8555 L 81.6895 -51.8555 C 122.119 -51.8555 137.744 -25.5859 138.623 7.27539 C 138.623 7.76367 138.477 8.00781 138.086 8.00781 C 137.793 8.00781 137.598 7.71484 137.402 7.27539 C 129.883 -9.42383 111.133 -18.6035 81.6895 -18.6035 L 74.2188 -18.6035 C 72.8027 -18.6035 72.2168 -18.0176 72.2168 -16.6016 L 72.2168 7.61719 C 72.2168 8.20312 71.8262 8.64258 71.2402 8.64258 Z"/>
  </g>
  <g id="Regular-L" transform="matrix(1 0 0 1 1370.69 1556)">
   <path d="M 73.5352 21.6797 C 77.4414 21.6797 80.1758 18.7988 80.1758 14.9414 L 80.1758 -9.81445 L 82.2266 -9.81445 C 107.812 -9.81445 123.73 -3.22266 134.18 17.2852 C 136.133 20.9473 138.623 21.6797 141.162 21.6797 C 144.238 21.6797 147.021 18.9453 147.021 14.1113 C 147.021 -33.3984 125.928 -60.6934 82.2266 -60.6934 L 80.1758 -60.6934 L 80.1758 -85.3516 C 80.1758 -89.209 77.4414 -92.3828 73.4375 -92.3828 C 70.6543 -92.3828 68.8477 -90.9668 65.8203 -88.3789 L 16.1621 -42.041 C 13.623 -39.5508 12.8906 -37.4023 12.8906 -35.3516 C 12.8906 -33.3496 13.623 -31.1523 16.1621 -28.7109 L 65.8203 18.0176 C 68.5547 20.3613 70.752 21.6797 73.5352 21.6797 Z M 70.6055 10.2539 C 70.2148 10.2539 69.8242 10.0586 69.3848 9.61914 L 23.4863 -33.5938 C 22.7051 -34.3262 22.4609 -34.8145 22.4609 -35.3516 C 22.4609 -35.8887 22.7539 -36.377 23.4863 -37.1094 L 69.3359 -80.7129 C 69.7266 -81.0547 70.0684 -81.3477 70.5566 -81.3477 C 71.1426 -81.3477 71.5332 -80.957 71.5332 -80.3711 L 71.5332 -54.541 C 71.5332 -53.125 72.1191 -52.5391 73.5352 -52.5391 L 81.0547 -52.5391 C 123.047 -52.5391 138.379 -24.4629 139.355 9.13086 C 139.355 9.61914 139.16 9.91211 138.77 9.91211 C 138.428 9.91211 138.281 9.57031 138.037 9.08203 C 130.566 -7.95898 111.328 -17.9688 81.0547 -17.9688 L 73.5352 -17.9688 C 72.1191 -17.9688 71.5332 -17.334 71.5332 -15.9668 L 71.5332 9.22852 C 71.5332 9.81445 71.1914 10.2539 70.6055 10.2539 Z"/>
  </g>
  <g id="Light-L" transform="matrix(1 0 0 1 1075.13 1556)">
   <path d="M 72.3145 20.5078 C 75.7324 20.5078 77.9297 18.0176 77.9297 14.6973 L 77.9297 -10.9863 L 80.2734 -10.9863 C 107.52 -10.9863 124.121 -3.80859 133.789 16.5039 C 135.4 19.7266 137.354 20.5078 139.648 20.5078 C 142.383 20.5078 144.727 18.2129 144.727 14.1602 C 144.727 -34.668 121.826 -59.5215 80.2734 -59.5215 L 77.9297 -59.5215 L 77.9297 -85.4004 C 77.9297 -88.7207 75.7324 -91.4062 72.2656 -91.4062 C 69.8242 -91.4062 68.1641 -90.1367 65.8203 -88.1348 L 16.3086 -41.9922 C 13.4766 -39.3066 12.8906 -37.3535 12.8906 -35.4492 C 12.8906 -33.5449 13.5254 -31.5918 16.3086 -28.9062 L 65.8203 17.4316 C 68.0176 19.3359 69.9219 20.5078 72.3145 20.5078 Z M 70.3125 12.0117 C 69.873 12.0117 69.4336 11.8164 68.8477 11.2793 L 21.6309 -32.9102 C 20.459 -33.9844 20.1172 -34.668 20.1172 -35.4492 C 20.1172 -36.1816 20.5078 -36.9141 21.6309 -37.9395 L 68.7988 -82.373 C 69.2383 -82.7637 69.6777 -83.1543 70.2637 -83.1543 C 70.8984 -83.1543 71.2891 -82.7148 71.2891 -82.0801 L 71.2891 -55.0781 C 71.2891 -53.7598 71.8262 -53.2227 73.1445 -53.2227 L 79.4434 -53.2227 C 119.775 -53.2227 138.184 -27.832 138.818 11.0352 C 138.818 11.6211 138.623 11.9629 138.086 11.9629 C 137.646 11.9629 137.402 11.4746 137.158 10.8887 C 129.346 -7.71484 110.156 -17.2852 79.4434 -17.2852 L 73.1445 -17.2852 C 71.8262 -17.2852 71.2891 -16.748 71.2891 -15.4297 L 71.2891 10.8887 C 71.2891 11.5723 70.9473 12.0117 70.3125 12.0117 Z"/>
  </g>
  <g id="Thin-L" transform="matrix(1 0 0 1 779.933 1556)">
   <path d="M 70.7031 18.9941 C 73.4863 18.9941 74.9512 16.9434 74.9512 14.3555 L 74.9512 -12.5 L 77.7344 -12.5 C 107.129 -12.5 124.609 -4.58984 133.252 15.4297 C 134.424 18.0664 135.693 18.9941 137.695 18.9941 C 139.941 18.9941 141.699 17.1875 141.699 14.2578 C 141.699 -36.2793 116.357 -58.0078 77.7344 -58.0078 L 74.9512 -58.0078 L 74.9512 -85.4492 C 74.9512 -88.0371 73.4863 -90.1367 70.7031 -90.1367 C 68.7988 -90.1367 67.2852 -89.1113 65.8691 -87.793 L 16.5039 -41.9434 C 13.3301 -38.9648 12.8906 -37.3047 12.8906 -35.5469 C 12.8906 -33.8379 13.3789 -32.1289 16.5039 -29.1504 L 65.8691 16.6992 C 67.2852 18.0176 68.7988 18.9941 70.7031 18.9941 Z M 69.9219 14.3555 C 69.4336 14.3555 68.9453 14.1602 68.2129 13.4277 L 19.1406 -32.0312 C 17.5293 -33.5449 17.041 -34.5215 17.041 -35.5469 C 17.041 -36.6211 17.5781 -37.5977 19.1406 -39.0625 L 68.1152 -84.6191 C 68.6523 -85.1074 69.1406 -85.5469 69.8242 -85.5469 C 70.5566 -85.5469 70.9961 -85.0586 70.9961 -84.375 L 70.9961 -55.8105 C 70.9961 -54.5898 71.4355 -54.1504 72.6562 -54.1504 L 77.2949 -54.1504 C 115.43 -54.1504 137.988 -32.2266 138.086 13.5742 C 138.086 14.209 137.891 14.6973 137.207 14.6973 C 136.572 14.6973 136.279 14.0137 135.986 13.2324 C 127.686 -7.37305 108.643 -16.3574 77.2949 -16.3574 L 72.6562 -16.3574 C 71.4355 -16.3574 70.9961 -15.918 70.9961 -14.6973 L 70.9961 13.0371 C 70.9961 13.8184 70.6055 14.3555 69.9219 14.3555 Z"/>
  </g>
  <g id="Ultralight-L" transform="matrix(1 0 0 1 484.003 1556)">
   <path d="M 69.873 18.2129 C 72.3145 18.2129 73.3887 16.4062 73.3887 14.1602 L 73.3887 -13.2812 L 76.416 -13.2812 C 106.934 -13.2812 124.854 -4.98047 132.959 14.8926 C 133.887 17.2363 134.863 18.2129 136.719 18.2129 C 138.672 18.2129 140.137 16.6992 140.137 14.3066 C 140.137 -37.1094 113.574 -57.2754 76.416 -57.2754 L 73.3887 -57.2754 L 73.3887 -85.4492 C 73.3887 -87.6953 72.3145 -89.502 69.9219 -89.502 C 68.2617 -89.502 66.8457 -88.5742 65.8691 -87.5977 L 16.6016 -41.9434 C 13.2324 -38.8184 12.8906 -37.2559 12.8906 -35.6445 C 12.8906 -33.9844 13.3301 -32.4219 16.6016 -29.2969 L 65.8691 16.3574 C 66.8945 17.334 68.2617 18.2129 69.873 18.2129 Z M 69.7266 15.5762 C 69.1895 15.5762 68.7012 15.332 67.8711 14.5508 L 17.8711 -31.5918 C 16.0156 -33.3008 15.4785 -34.4238 15.4785 -35.6445 C 15.4785 -36.8164 16.0645 -37.9395 17.8711 -39.6484 L 67.7734 -85.7422 C 68.3594 -86.2793 68.8477 -86.7676 69.6289 -86.7676 C 70.3613 -86.7676 70.8496 -86.2793 70.8496 -85.5469 L 70.8496 -56.2012 C 70.8496 -55.0293 71.2402 -54.6387 72.4121 -54.6387 L 76.1719 -54.6387 C 113.184 -54.6387 137.842 -34.5215 137.744 14.8926 C 137.744 15.5762 137.5 16.0645 136.719 16.0645 C 136.035 16.0645 135.693 15.2832 135.4 14.4531 C 126.807 -7.17773 107.861 -15.918 76.1719 -15.918 L 72.4121 -15.918 C 71.2402 -15.918 70.8496 -15.5273 70.8496 -14.3555 L 70.8496 14.1602 C 70.8496 14.9902 70.459 15.5762 69.7266 15.5762 Z"/>
  </g>
  <g id="Black-M" transform="matrix(1 0 0 1 2869.95 1126)">
   <path d="M 62.9395 13.4277 C 68.9453 13.4277 73.6328 8.78906 73.6328 2.73438 L 73.6328 -9.47266 L 73.8281 -9.47266 C 86.8652 -9.47266 92.9199 -2.05078 96.5332 4.3457 C 99.3652 9.91211 102.637 12.1582 107.422 12.1582 C 114.648 12.1582 118.213 4.78516 118.213 -10.2539 C 118.213 -42.7246 100.977 -60.4004 73.8281 -60.4004 L 73.6328 -60.4004 L 73.6328 -73.1445 C 73.6328 -79.1504 68.9453 -83.8379 62.9395 -83.8379 C 59.375 -83.8379 56.543 -82.5684 52.6367 -79.0527 L 13.2812 -43.0664 C 11.1816 -41.0645 9.96094 -38.0371 9.96094 -35.2051 C 9.96094 -32.5684 11.2305 -29.2969 13.3789 -27.2949 L 52.6367 8.64258 C 56.2012 11.9629 59.082 13.4277 62.9395 13.4277 Z M 58.5449 -8.74023 C 58.3008 -8.74023 58.0566 -8.88672 57.8125 -9.13086 L 30.9082 -34.3262 C 30.5176 -34.7168 30.4199 -34.9609 30.4199 -35.2051 C 30.4199 -35.498 30.5176 -35.6934 30.9082 -36.084 L 57.8125 -61.2793 C 58.0566 -61.4746 58.3008 -61.5234 58.5449 -61.5234 C 59.0332 -61.5234 59.4727 -61.1328 59.4727 -60.498 L 59.4727 -46.3379 C 59.4727 -45.2637 59.9121 -44.873 60.9863 -44.873 L 65.7227 -44.873 C 87.9883 -44.873 103.418 -35.4492 103.418 -10.9375 C 103.418 -10.6934 103.271 -10.5957 103.076 -10.5957 C 102.881 -10.5957 102.783 -10.6934 102.637 -10.9375 C 96.1914 -22.8027 84.5703 -25.5371 65.7227 -25.5371 L 60.9863 -25.5371 C 59.9121 -25.5371 59.4727 -25.0977 59.4727 -24.0723 L 59.4727 -9.81445 C 59.4727 -9.17969 59.0332 -8.74023 58.5449 -8.74023 Z"/>
  </g>
  <g id="Heavy-M" transform="matrix(1 0 0 1 2573.58 1126)">
   <path d="M 61.6699 12.5 C 67.0898 12.5 71.1914 8.34961 71.1914 2.97852 L 71.1914 -10.7422 L 71.7285 -10.7422 C 86.1328 -10.7422 93.6035 -3.95508 98.3398 4.6875 C 100.928 9.7168 103.906 11.5234 108.057 11.5234 C 114.209 11.5234 117.48 5.37109 117.48 -7.12891 C 117.48 -40.4785 100.732 -59.2773 71.7285 -59.2773 L 71.1914 -59.2773 L 71.1914 -73.3398 C 71.1914 -78.7598 67.0898 -82.9102 61.6699 -82.9102 C 58.3984 -82.9102 55.8594 -81.6895 52.2461 -78.4668 L 13.0859 -42.4316 C 11.0352 -40.4785 9.96094 -37.7441 9.96094 -35.2051 C 9.96094 -32.8125 11.084 -29.8828 13.1348 -27.9297 L 52.2461 8.10547 C 55.5664 11.1328 58.2031 12.5 61.6699 12.5 Z M 57.666 -6.93359 C 57.4219 -6.93359 57.1777 -7.03125 56.8848 -7.27539 L 28.1738 -34.3262 C 27.7832 -34.7168 27.6367 -34.9609 27.6367 -35.2051 C 27.6367 -35.5469 27.7832 -35.7422 28.1738 -36.1328 L 56.8848 -63.2324 C 57.1777 -63.4277 57.4219 -63.5254 57.666 -63.5254 C 58.1543 -63.5254 58.5449 -63.1348 58.5449 -62.5488 L 58.5449 -47.168 C 58.5449 -46.0938 58.9844 -45.6543 60.0586 -45.6543 L 65.2344 -45.6543 C 90.1855 -45.6543 104.346 -32.959 104.541 -8.83789 C 104.541 -8.54492 104.443 -8.39844 104.248 -8.39844 C 104.053 -8.39844 103.906 -8.54492 103.809 -8.83789 C 97.5586 -20.8008 85.1074 -24.7559 65.2344 -24.7559 L 60.0586 -24.7559 C 58.9844 -24.7559 58.5449 -24.3164 58.5449 -23.2422 L 58.5449 -7.91016 C 58.5449 -7.32422 58.1543 -6.93359 57.666 -6.93359 Z"/>
  </g>
  <g id="Bold-M" transform="matrix(1 0 0 1 2277.26 1126)">
   <path d="M 60.3027 11.4746 C 64.9902 11.4746 68.5059 7.91016 68.5059 3.27148 L 68.5059 -12.1582 L 69.3359 -12.1582 C 85.3027 -12.1582 94.2871 -6.05469 100.391 5.12695 C 102.637 9.47266 105.371 10.8398 108.838 10.8398 C 113.721 10.8398 116.699 6.00586 116.699 -3.66211 C 116.699 -37.9395 100.439 -58.0078 69.3359 -58.0078 L 68.5059 -58.0078 L 68.5059 -73.584 C 68.5059 -78.2715 64.9902 -81.9336 60.2539 -81.9336 C 57.2754 -81.9336 55.127 -80.7129 51.8066 -77.832 L 12.8906 -41.7969 C 10.8887 -39.8926 9.96094 -37.4512 9.96094 -35.2539 C 9.96094 -33.1055 10.9375 -30.5664 12.8906 -28.6621 L 51.8066 7.51953 C 54.834 10.2051 57.1777 11.4746 60.3027 11.4746 Z M 56.6895 -4.88281 C 56.4453 -4.88281 56.2012 -4.98047 55.9082 -5.27344 L 25.0977 -34.3262 C 24.707 -34.7168 24.5605 -34.9609 24.5605 -35.2539 C 24.5605 -35.5469 24.707 -35.7422 25.0977 -36.1328 L 55.9082 -65.3809 C 56.1523 -65.625 56.3965 -65.7227 56.6895 -65.7227 C 57.1777 -65.7227 57.5195 -65.3809 57.5195 -64.8926 L 57.5195 -48.0957 C 57.5195 -47.0215 58.0078 -46.5332 59.082 -46.5332 L 64.7461 -46.5332 C 92.627 -46.5332 105.371 -30.2246 105.859 -6.44531 C 105.859 -6.15234 105.713 -6.00586 105.518 -6.00586 C 105.322 -6.00586 105.225 -6.15234 105.078 -6.44531 C 99.0723 -18.5547 85.7422 -23.877 64.7461 -23.877 L 59.082 -23.877 C 58.0078 -23.877 57.5195 -23.4375 57.5195 -22.3145 L 57.5195 -5.76172 C 57.5195 -5.22461 57.1777 -4.88281 56.6895 -4.88281 Z"/>
  </g>
  <g id="Semibold-M" transform="matrix(1 0 0 1 1980.82 1126)">
   <path d="M 59.375 10.7422 C 63.5254 10.7422 66.6504 7.61719 66.6504 3.4668 L 66.6504 -13.1348 L 67.6758 -13.1348 C 84.7168 -13.1348 94.8242 -7.51953 101.758 5.41992 C 103.809 9.32617 106.396 10.3516 109.326 10.3516 C 113.379 10.3516 116.162 6.44531 116.162 -1.2207 C 116.162 -36.1816 100.293 -57.1289 67.6758 -57.1289 L 66.6504 -57.1289 L 66.6504 -73.7793 C 66.6504 -77.9297 63.5254 -81.25 59.2773 -81.25 C 56.543 -81.25 54.6387 -80.0293 51.5137 -77.3926 L 12.6953 -41.3086 C 10.791 -39.4531 9.96094 -37.2559 9.96094 -35.2539 C 9.96094 -33.3008 10.8398 -31.0059 12.7441 -29.1504 L 51.5137 7.08008 C 54.3457 9.57031 56.4941 10.7422 59.375 10.7422 Z M 56.0547 -3.4668 C 55.7617 -3.4668 55.5176 -3.61328 55.2246 -3.85742 L 22.9492 -34.3262 C 22.5586 -34.7168 22.4609 -34.9609 22.4609 -35.2539 C 22.4609 -35.5469 22.6074 -35.791 22.9492 -36.1816 L 55.2246 -66.8945 C 55.4688 -67.0898 55.7617 -67.2363 56.0547 -67.2363 C 56.4941 -67.2363 56.7871 -66.9434 56.7871 -66.4551 L 56.7871 -48.7305 C 56.7871 -47.6562 57.2754 -47.168 58.3984 -47.168 L 64.3555 -47.168 C 94.2871 -47.168 106.104 -28.3203 106.738 -4.78516 C 106.738 -4.49219 106.592 -4.3457 106.396 -4.3457 C 106.201 -4.3457 106.104 -4.49219 105.957 -4.78516 C 100.098 -16.9922 86.1816 -23.291 64.3555 -23.291 L 58.3984 -23.291 C 57.2754 -23.291 56.7871 -22.8027 56.7871 -21.6797 L 56.7871 -4.29688 C 56.7871 -3.80859 56.4941 -3.4668 56.0547 -3.4668 Z"/>
  </g>
  <g id="Medium-M" transform="matrix(1 0 0 1 1684.3 1126)">
   <path d="M 58.6426 10.2051 C 62.4512 10.2051 65.2344 7.42188 65.2344 3.61328 L 65.2344 -13.8672 L 66.4551 -13.8672 C 84.3262 -13.8672 95.2148 -8.64258 102.832 5.61523 C 104.736 9.17969 107.129 10.0098 109.717 10.0098 C 113.135 10.0098 115.771 6.73828 115.771 0.585938 C 115.771 -34.8633 100.146 -56.4941 66.4551 -56.4941 L 65.2344 -56.4941 L 65.2344 -73.877 C 65.2344 -77.6855 62.4512 -80.7129 58.5449 -80.7129 C 55.957 -80.7129 54.248 -79.541 51.2695 -77.0508 L 12.5977 -40.9668 C 10.7422 -39.1113 9.96094 -37.1094 9.96094 -35.2539 C 9.96094 -33.4473 10.7422 -31.3965 12.5977 -29.541 L 51.2695 6.73828 C 53.9551 9.08203 55.957 10.2051 58.6426 10.2051 Z M 55.5176 -2.39258 C 55.2734 -2.39258 54.9805 -2.53906 54.7363 -2.7832 L 21.3379 -34.3262 C 20.9473 -34.7168 20.8496 -34.9609 20.8496 -35.2539 C 20.8496 -35.5469 20.9961 -35.791 21.3379 -36.1816 L 54.6875 -68.0176 C 54.9316 -68.2617 55.2246 -68.4082 55.5176 -68.4082 C 55.957 -68.4082 56.25 -68.1152 56.25 -67.6758 L 56.25 -49.2188 C 56.25 -48.1445 56.7383 -47.6074 57.8613 -47.6074 L 64.1113 -47.6074 C 95.5566 -47.6074 106.641 -26.8555 107.422 -3.56445 C 107.422 -3.22266 107.275 -3.07617 107.08 -3.07617 C 106.885 -3.07617 106.738 -3.22266 106.592 -3.56445 C 100.879 -15.7715 86.4746 -22.8516 64.1113 -22.8516 L 57.8613 -22.8516 C 56.7383 -22.8516 56.25 -22.3145 56.25 -21.2402 L 56.25 -3.17383 C 56.25 -2.68555 55.957 -2.39258 55.5176 -2.39258 Z"/>
  </g>
  <g id="Regular-M" transform="matrix(1 0 0 1 1387.86 1126)">
   <path d="M 57.7148 9.52148 C 60.9863 9.52148 63.4277 7.08008 63.4277 3.80859 L 63.4277 -14.8438 L 64.8438 -14.8438 C 83.7402 -14.8438 95.7031 -10.0586 104.199 5.9082 C 105.908 9.0332 108.154 9.52148 110.205 9.52148 C 112.842 9.52148 115.234 7.17773 115.234 2.97852 C 115.234 -33.1055 99.9512 -55.6152 64.8438 -55.6152 L 63.4277 -55.6152 L 63.4277 -74.0723 C 63.4277 -77.3438 60.9863 -80.0781 57.6172 -80.0781 C 55.1758 -80.0781 53.7109 -78.8574 50.9766 -76.5625 L 12.4512 -40.5273 C 10.6445 -38.7207 9.96094 -36.9141 9.96094 -35.2539 C 9.96094 -33.6426 10.6445 -31.8359 12.4512 -30.0293 L 50.9766 6.34766 C 53.418 8.44727 55.2734 9.52148 57.7148 9.52148 Z M 54.8828 -0.976562 C 54.5898 -0.976562 54.3457 -1.12305 54.0527 -1.41602 L 19.2871 -34.3262 C 18.8477 -34.7168 18.75 -34.9609 18.75 -35.2539 C 18.75 -35.5469 18.8965 -35.8398 19.2871 -36.1816 L 54.0527 -69.5312 C 54.248 -69.7266 54.541 -69.9219 54.8828 -69.9219 C 55.2734 -69.9219 55.5664 -69.6289 55.5664 -69.2383 L 55.5664 -49.8535 C 55.5664 -48.7305 56.0547 -48.2422 57.1777 -48.2422 L 63.7695 -48.2422 C 97.2656 -48.2422 107.324 -25 108.301 -1.95312 C 108.301 -1.61133 108.154 -1.41602 107.959 -1.41602 C 107.715 -1.41602 107.617 -1.5625 107.471 -1.9043 C 101.904 -14.2578 86.9141 -22.2168 63.7695 -22.2168 L 57.1777 -22.2168 C 56.0547 -22.2168 55.5664 -21.7285 55.5664 -20.6055 L 55.5664 -1.70898 C 55.5664 -1.26953 55.2734 -0.976562 54.8828 -0.976562 Z"/>
  </g>
  <g id="Light-M" transform="matrix(1 0 0 1 1092.17 1126)">
   <path d="M 56.5918 8.49609 C 59.4727 8.49609 61.377 6.39648 61.377 3.56445 L 61.377 -15.918 L 63.0859 -15.918 C 83.4473 -15.918 95.9961 -10.5957 103.857 5.22461 C 105.225 7.91016 107.031 8.49609 108.887 8.49609 C 111.182 8.49609 113.184 6.49414 113.184 3.02734 C 113.184 -34.2285 96.2402 -54.5898 63.0859 -54.5898 L 61.377 -54.5898 L 61.377 -74.0723 C 61.377 -76.9043 59.4727 -79.1992 56.543 -79.1992 C 54.4922 -79.1992 53.125 -78.1738 51.0254 -76.3672 L 12.5977 -40.4785 C 10.498 -38.4766 9.96094 -36.8652 9.96094 -35.3516 C 9.96094 -33.8379 10.5469 -32.2266 12.5977 -30.2246 L 51.0254 5.85938 C 52.9297 7.51953 54.541 8.49609 56.5918 8.49609 Z M 54.5898 0.585938 C 54.2969 0.585938 54.0039 0.439453 53.6133 0.0976562 L 17.5781 -33.7402 C 16.8457 -34.4238 16.6504 -34.8633 16.6504 -35.3516 C 16.6504 -35.8398 16.8945 -36.2793 17.5781 -36.9629 L 53.5645 -71.0449 C 53.8574 -71.2891 54.1992 -71.5332 54.5898 -71.5332 C 55.0293 -71.5332 55.3711 -71.2402 55.3711 -70.8008 L 55.3711 -50.3906 C 55.3711 -49.3164 55.8105 -48.877 56.8848 -48.877 L 62.3047 -48.877 C 94.2871 -48.877 107.178 -27.9785 107.812 -0.244141 C 107.812 0.195312 107.666 0.439453 107.324 0.439453 C 107.031 0.439453 106.885 0.146484 106.689 -0.292969 C 100.781 -14.0137 85.8887 -21.6309 62.3047 -21.6309 L 56.8848 -21.6309 C 55.8105 -21.6309 55.3711 -21.1914 55.3711 -20.1172 L 55.3711 -0.244141 C 55.3711 0.244141 55.0781 0.585938 54.5898 0.585938 Z"/>
  </g>
  <g id="Thin-M" transform="matrix(1 0 0 1 796.828 1126)">
   <path d="M 55.1758 7.12891 C 57.4219 7.12891 58.7402 5.41992 58.7402 3.27148 L 58.7402 -17.2852 L 60.791 -17.2852 C 83.1055 -17.2852 96.4355 -11.3281 103.369 4.24805 C 104.346 6.44531 105.518 7.12891 107.129 7.12891 C 108.984 7.12891 110.449 5.61523 110.449 3.07617 C 110.449 -35.6934 91.3574 -53.2227 60.791 -53.2227 L 58.7402 -53.2227 L 58.7402 -74.1211 C 58.7402 -76.3184 57.4219 -78.0762 55.127 -78.0762 C 53.5645 -78.0762 52.3438 -77.1973 51.0254 -76.0254 L 12.7441 -40.4785 C 10.3516 -38.1836 9.96094 -36.8164 9.96094 -35.4492 C 9.96094 -34.082 10.4004 -32.7148 12.7441 -30.4688 L 51.0254 5.17578 C 52.2949 6.29883 53.5645 7.12891 55.1758 7.12891 Z M 54.248 2.68555 C 53.9062 2.68555 53.5645 2.53906 53.0273 2.00195 L 15.3809 -32.959 C 14.209 -34.0332 13.8672 -34.7168 13.8672 -35.4492 C 13.8672 -36.2305 14.2578 -36.9141 15.3809 -37.9883 L 52.9297 -73.0469 C 53.3691 -73.3887 53.7109 -73.6816 54.1992 -73.6816 C 54.7363 -73.6816 55.0781 -73.3398 55.0781 -72.8027 L 55.0781 -51.0254 C 55.0781 -50.0488 55.4688 -49.707 56.4453 -49.707 L 60.3516 -49.707 C 90.3809 -49.707 106.982 -31.9824 107.178 2.05078 C 107.178 2.53906 107.031 2.88086 106.543 2.88086 C 106.104 2.88086 105.859 2.39258 105.615 1.80664 C 99.3164 -13.7207 84.5215 -20.8008 60.3516 -20.8008 L 56.4453 -20.8008 C 55.4688 -20.8008 55.0781 -20.459 55.0781 -19.4824 L 55.0781 1.70898 C 55.0781 2.29492 54.7852 2.68555 54.248 2.68555 Z"/>
  </g>
  <g id="Ultralight-M" transform="matrix(1 0 0 1 500.8 1126)">
   <path d="M 54.3945 6.44531 C 56.3965 6.44531 57.373 4.98047 57.373 3.125 L 57.373 -17.9688 L 59.6191 -17.9688 C 82.959 -17.9688 96.6797 -11.6699 103.125 3.75977 C 103.906 5.66406 104.785 6.44531 106.25 6.44531 C 107.861 6.44531 109.082 5.12695 109.082 3.125 C 109.082 -36.4258 88.8672 -52.5391 59.6191 -52.5391 L 57.373 -52.5391 L 57.373 -74.1699 C 57.373 -75.9766 56.3965 -77.4902 54.3945 -77.4902 C 53.0762 -77.4902 51.9531 -76.709 51.0254 -75.8789 L 12.8418 -40.4297 C 10.2539 -38.0371 9.96094 -36.8164 9.96094 -35.498 C 9.96094 -34.2285 10.3516 -32.959 12.8418 -30.6152 L 51.0254 4.83398 C 51.9531 5.71289 53.0762 6.44531 54.3945 6.44531 Z M 54.1016 3.75977 C 53.7109 3.75977 53.3203 3.61328 52.6855 3.02734 L 14.2578 -32.5684 C 12.8418 -33.7891 12.4512 -34.6191 12.4512 -35.498 C 12.4512 -36.377 12.9395 -37.207 14.2578 -38.4766 L 52.6367 -74.0234 C 53.0762 -74.4141 53.4668 -74.8047 54.0039 -74.8047 C 54.5898 -74.8047 54.9805 -74.4141 54.9805 -73.877 L 54.9805 -51.3672 C 54.9805 -50.4395 55.2734 -50.1465 56.2012 -50.1465 L 59.375 -50.1465 C 88.3789 -50.1465 106.885 -33.9844 106.836 3.22266 C 106.836 3.71094 106.689 4.10156 106.104 4.10156 C 105.615 4.10156 105.371 3.51562 105.078 2.92969 C 98.5352 -13.5742 83.8379 -20.4102 59.375 -20.4102 L 56.2012 -20.4102 C 55.2734 -20.4102 54.9805 -20.0684 54.9805 -19.1406 L 54.9805 2.73438 C 54.9805 3.32031 54.6387 3.75977 54.1016 3.75977 Z"/>
  </g>
  <g id="Black-S" transform="matrix(1 0 0 1 2883.69 696)">
   <path d="M 49.2188 2.83203 C 53.9062 2.83203 57.5195 -0.78125 57.5195 -5.46875 L 57.5195 -15.1367 L 57.7148 -15.1367 C 68.0176 -15.1367 72.8516 -9.375 75.7812 -4.19922 C 77.9785 0.146484 80.5176 1.85547 84.2285 1.85547 C 89.7949 1.85547 92.5781 -3.80859 92.5781 -15.4297 C 92.5781 -40.918 79.1504 -54.8828 57.7148 -54.8828 L 57.5195 -54.8828 L 57.5195 -64.9414 C 57.5195 -69.6289 53.9062 -73.2422 49.2188 -73.2422 C 46.4355 -73.2422 44.2383 -72.2656 41.2109 -69.5312 L 10.4004 -41.3086 C 8.74023 -39.7461 7.8125 -37.4023 7.8125 -35.2051 C 7.8125 -33.1543 8.78906 -30.6152 10.4492 -29.0527 L 41.2109 -0.878906 C 43.9941 1.70898 46.2402 2.83203 49.2188 2.83203 Z M 45.8008 -14.3555 C 45.6055 -14.3555 45.4102 -14.4531 45.2148 -14.6484 L 24.0234 -34.5215 C 23.7305 -34.8145 23.6328 -35.0098 23.6328 -35.2051 C 23.6328 -35.4492 23.7305 -35.5957 24.0234 -35.8887 L 45.2148 -55.7617 C 45.4102 -55.9082 45.6055 -55.957 45.8008 -55.957 C 46.1914 -55.957 46.5332 -55.6641 46.5332 -55.1758 L 46.5332 -43.9941 C 46.5332 -43.1641 46.875 -42.8223 47.7051 -42.8223 L 51.4648 -42.8223 C 69.1406 -42.8223 81.1035 -35.1562 81.1035 -16.0645 C 81.1035 -15.8691 81.0059 -15.7715 80.8594 -15.7715 C 80.7129 -15.7715 80.6152 -15.8691 80.5176 -16.0645 C 75.4883 -25.3418 66.3086 -27.5879 51.4648 -27.5879 L 47.7051 -27.5879 C 46.875 -27.5879 46.5332 -27.2461 46.5332 -26.416 L 46.5332 -15.1855 C 46.5332 -14.6973 46.1914 -14.3555 45.8008 -14.3555 Z"/>
  </g>
  <g id="Heavy-S" transform="matrix(1 0 0 1 2587.13 696)">
   <path d="M 48.3887 2.24609 C 52.6367 2.24609 55.9082 -1.02539 55.9082 -5.22461 L 55.9082 -16.0156 L 56.2988 -16.0156 C 67.4805 -16.0156 73.291 -10.7422 77.1973 -3.85742 C 79.248 0.0976562 81.6406 1.51367 84.8633 1.51367 C 89.6484 1.51367 92.2852 -3.32031 92.2852 -13.0371 C 92.2852 -39.0625 79.3945 -54.1504 56.2988 -54.1504 L 55.9082 -54.1504 L 55.9082 -65.0879 C 55.9082 -69.3359 52.6367 -72.6562 48.3887 -72.6562 C 45.752 -72.6562 43.7988 -71.6797 40.918 -69.0918 L 10.2539 -40.8691 C 8.64258 -39.3555 7.8125 -37.207 7.8125 -35.2051 C 7.8125 -33.3496 8.69141 -31.0547 10.2539 -29.541 L 40.918 -1.2207 C 43.5547 1.17188 45.6543 2.24609 48.3887 2.24609 Z M 45.166 -13.1348 C 44.9707 -13.1348 44.7754 -13.2324 44.5801 -13.4277 L 22.1191 -34.5703 C 21.8262 -34.8633 21.7773 -35.0098 21.7773 -35.2051 C 21.7773 -35.4492 21.8262 -35.5469 22.1191 -35.8398 L 44.5801 -57.0801 C 44.7754 -57.2266 44.9707 -57.2754 45.166 -57.2754 C 45.5566 -57.2754 45.8496 -57.0312 45.8496 -56.5918 L 45.8496 -44.5801 C 45.8496 -43.75 46.1914 -43.3594 47.0703 -43.3594 L 51.2695 -43.3594 C 71.1426 -43.3594 81.8359 -32.959 82.0312 -14.6484 C 82.0312 -14.4043 81.9336 -14.3066 81.7871 -14.3066 C 81.6895 -14.3066 81.5918 -14.4043 81.4941 -14.5996 C 76.6602 -23.8281 66.8457 -27.0508 51.2695 -27.0508 L 47.0703 -27.0508 C 46.1914 -27.0508 45.8496 -26.709 45.8496 -25.8301 L 45.8496 -13.8672 C 45.8496 -13.4277 45.5566 -13.1348 45.166 -13.1348 Z"/>
  </g>
  <g id="Bold-S" transform="matrix(1 0 0 1 2290.59 696)">
   <path d="M 47.4609 1.5625 C 51.2207 1.5625 54.1016 -1.26953 54.1016 -4.98047 L 54.1016 -16.9434 L 54.6875 -16.9434 C 66.8945 -16.9434 73.8281 -12.3047 78.8086 -3.41797 C 80.6152 0.0488281 82.9102 1.07422 85.5957 1.07422 C 89.502 1.07422 91.9434 -2.73438 91.9434 -10.3516 C 91.9434 -36.9629 79.6387 -53.2715 54.6875 -53.2715 L 54.1016 -53.2715 L 54.1016 -65.2832 C 54.1016 -69.043 51.2207 -72.0215 47.4121 -72.0215 C 45.0195 -72.0215 43.3105 -70.9961 40.5762 -68.6523 L 10.0586 -40.332 C 8.54492 -38.916 7.8125 -36.9629 7.8125 -35.2051 C 7.8125 -33.5449 8.59375 -31.4941 10.0586 -30.0781 L 40.5762 -1.66016 C 43.0664 0.585938 44.9707 1.5625 47.4609 1.5625 Z M 44.4824 -11.7676 C 44.2871 -11.7676 44.043 -11.8652 43.8965 -12.0605 L 19.9707 -34.668 C 19.7266 -34.9121 19.6777 -35.0586 19.6777 -35.2051 C 19.6777 -35.4004 19.7266 -35.5469 19.9707 -35.7422 L 43.8965 -58.5449 C 44.043 -58.6914 44.2383 -58.7891 44.4824 -58.7891 C 44.8242 -58.7891 45.0684 -58.5449 45.0684 -58.1543 L 45.0684 -45.2148 C 45.0684 -44.3359 45.459 -43.9941 46.3379 -43.9941 L 51.0742 -43.9941 C 73.3887 -43.9941 82.6172 -30.4688 83.1055 -13.0371 C 83.1055 -12.793 83.0078 -12.6953 82.8613 -12.6953 C 82.7148 -12.6953 82.666 -12.793 82.5684 -12.9883 C 77.9297 -22.1191 67.4316 -26.4648 51.0742 -26.4648 L 46.3379 -26.4648 C 45.459 -26.4648 45.0684 -26.0742 45.0684 -25.1953 L 45.0684 -12.4512 C 45.0684 -12.0605 44.8242 -11.7676 44.4824 -11.7676 Z"/>
  </g>
  <g id="Semibold-S" transform="matrix(1 0 0 1 1994 696)">
   <path d="M 46.8262 1.12305 C 50.2441 1.12305 52.832 -1.41602 52.832 -4.83398 L 52.832 -17.627 L 53.5645 -17.627 C 66.4551 -17.627 74.1699 -13.3789 79.8828 -3.125 C 81.5918 0.0488281 83.7402 0.830078 86.1328 0.830078 C 89.4043 0.830078 91.6992 -2.34375 91.6992 -8.54492 C 91.6992 -35.5469 79.7852 -52.6855 53.5645 -52.6855 L 52.832 -52.6855 L 52.832 -65.4297 C 52.832 -68.7988 50.2441 -71.5332 46.7773 -71.5332 C 44.4824 -71.5332 42.9688 -70.5566 40.332 -68.3105 L 9.91211 -39.9902 C 8.49609 -38.5742 7.8125 -36.8164 7.8125 -35.2051 C 7.8125 -33.6914 8.49609 -31.8359 9.91211 -30.4199 L 40.332 -1.95312 C 42.7246 0.146484 44.4824 1.12305 46.8262 1.12305 Z M 43.9941 -10.8398 C 43.7988 -10.8398 43.5547 -10.9375 43.4082 -11.084 L 18.5059 -34.7168 C 18.3105 -34.9121 18.2129 -35.0586 18.2129 -35.2051 C 18.2129 -35.4004 18.3105 -35.498 18.5059 -35.6934 L 43.4082 -59.5703 C 43.5547 -59.7168 43.75 -59.8145 43.9941 -59.8145 C 44.2871 -59.8145 44.5312 -59.6191 44.5312 -59.2285 L 44.5312 -45.6543 C 44.5312 -44.7754 44.9707 -44.3848 45.8496 -44.3848 L 50.9277 -44.3848 C 74.9023 -44.3848 83.2031 -28.7598 83.8379 -11.9141 C 83.8379 -11.6699 83.7402 -11.5723 83.5938 -11.5723 C 83.4473 -11.5723 83.3984 -11.6699 83.3008 -11.8652 C 78.8086 -20.9473 67.8711 -26.0742 50.9277 -26.0742 L 45.8496 -26.0742 C 44.9707 -26.0742 44.5312 -25.6348 44.5312 -24.7559 L 44.5312 -11.4258 C 44.5312 -11.084 44.2871 -10.8398 43.9941 -10.8398 Z"/>
  </g>
  <g id="Medium-S" transform="matrix(1 0 0 1 1697.39 696)">
   <path d="M 46.3379 0.78125 C 49.5117 0.78125 51.9043 -1.5625 51.9043 -4.6875 L 51.9043 -18.1152 L 52.7344 -18.1152 C 66.1621 -18.1152 74.4629 -14.209 80.7617 -2.92969 C 82.3242 0 84.4238 0.585938 86.5234 0.585938 C 89.3066 0.585938 91.5039 -2.05078 91.5039 -7.12891 C 91.5039 -34.4727 79.9316 -52.2461 52.7344 -52.2461 L 51.9043 -52.2461 L 51.9043 -65.5273 C 51.9043 -68.6523 49.5117 -71.1914 46.2891 -71.1914 C 44.0918 -71.1914 42.7246 -70.2148 40.1855 -68.0664 L 9.81445 -39.7461 C 8.44727 -38.3789 7.8125 -36.7188 7.8125 -35.2051 C 7.8125 -33.7891 8.44727 -32.0801 9.81445 -30.7129 L 40.1855 -2.14844 C 42.4316 -0.146484 44.1406 0.78125 46.3379 0.78125 Z M 43.6035 -10.1074 C 43.4082 -10.1074 43.2129 -10.2051 43.0176 -10.4004 L 17.3828 -34.7656 C 17.1875 -34.9609 17.1387 -35.0586 17.1387 -35.2051 C 17.1387 -35.3516 17.1875 -35.498 17.3828 -35.6445 L 43.0176 -60.3516 C 43.2129 -60.498 43.4082 -60.5957 43.6035 -60.5957 C 43.8965 -60.5957 44.1406 -60.4004 44.1406 -60.0586 L 44.1406 -45.9961 C 44.1406 -45.1172 44.5801 -44.7266 45.459 -44.7266 L 50.7812 -44.7266 C 76.0742 -44.7266 83.5938 -27.4414 84.375 -11.084 C 84.375 -10.8398 84.2773 -10.7422 84.1309 -10.7422 C 84.0332 -10.7422 83.9844 -10.791 83.8379 -11.0352 C 79.4922 -20.0684 68.1641 -25.7324 50.7812 -25.7324 L 45.459 -25.7324 C 44.5801 -25.7324 44.1406 -25.3418 44.1406 -24.4141 L 44.1406 -10.6934 C 44.1406 -10.3516 43.9453 -10.1074 43.6035 -10.1074 Z"/>
  </g>
  <g id="Regular-S" transform="matrix(1 0 0 1 1400.8 696)">
   <path d="M 45.752 0.341797 C 48.5352 0.341797 50.6836 -1.70898 50.6836 -4.54102 L 50.6836 -18.75 L 51.6113 -18.75 C 65.7227 -18.75 74.8047 -15.2832 81.8359 -2.63672 C 83.3008 -0.0488281 85.2539 0.341797 87.0117 0.341797 C 89.209 0.341797 91.2598 -1.66016 91.2598 -5.32227 C 91.2598 -33.0566 80.0781 -51.709 51.6113 -51.709 L 50.6836 -51.709 L 50.6836 -65.625 C 50.6836 -68.457 48.5352 -70.752 45.6543 -70.752 C 43.6035 -70.752 42.3828 -69.7754 39.9414 -67.7246 L 9.66797 -39.4043 C 8.39844 -38.0371 7.8125 -36.5723 7.8125 -35.2051 C 7.8125 -33.9355 8.39844 -32.373 9.66797 -31.1035 L 39.9414 -2.44141 C 42.0898 -0.585938 43.7012 0.341797 45.752 0.341797 Z M 43.1152 -9.17969 C 42.9199 -9.17969 42.7246 -9.27734 42.5781 -9.42383 L 15.918 -34.8145 C 15.7715 -34.9609 15.6738 -35.1074 15.6738 -35.2051 C 15.6738 -35.3516 15.7715 -35.4492 15.918 -35.5957 L 42.5781 -61.377 C 42.7246 -61.5234 42.9199 -61.6211 43.1152 -61.6211 C 43.4082 -61.6211 43.6035 -61.4258 43.6035 -61.1328 L 43.6035 -46.4844 C 43.6035 -45.5566 44.043 -45.1172 44.9707 -45.1172 L 50.6348 -45.1172 C 77.6367 -45.1172 84.1797 -25.7812 85.0586 -10.0098 C 85.0586 -9.7168 84.9609 -9.61914 84.8633 -9.61914 C 84.7656 -9.61914 84.7168 -9.7168 84.5703 -9.91211 C 80.3711 -18.8965 68.6035 -25.3418 50.6348 -25.3418 L 44.9707 -25.3418 C 44.043 -25.3418 43.6035 -24.9023 43.6035 -23.9746 L 43.6035 -9.66797 C 43.6035 -9.375 43.4082 -9.17969 43.1152 -9.17969 Z"/>
  </g>
  <g id="Light-S" transform="matrix(1 0 0 1 1104.99 696)">
   <path d="M 44.7754 -0.585938 C 47.168 -0.585938 48.877 -2.34375 48.877 -4.73633 L 48.877 -19.6777 L 50.0977 -19.6777 C 65.4785 -19.6777 75.0977 -15.7227 81.4941 -3.27148 C 82.7148 -1.02539 84.2773 -0.585938 85.8398 -0.585938 C 87.7441 -0.585938 89.4531 -2.24609 89.4531 -5.27344 C 89.4531 -34.0332 76.8066 -50.7812 50.0977 -50.7812 L 48.877 -50.7812 L 48.877 -65.6738 C 48.877 -68.0176 47.168 -70.0195 44.6777 -70.0195 C 42.9688 -70.0195 41.8457 -69.1406 39.9414 -67.5293 L 9.81445 -39.3555 C 8.30078 -37.8418 7.8125 -36.5234 7.8125 -35.3027 C 7.8125 -34.082 8.30078 -32.7148 9.81445 -31.25 L 39.9414 -2.88086 C 41.6504 -1.36719 43.0176 -0.585938 44.7754 -0.585938 Z M 42.8711 -7.76367 C 42.6758 -7.76367 42.4316 -7.86133 42.1387 -8.1543 L 14.4043 -34.2773 C 13.9648 -34.7168 13.8672 -35.0098 13.8672 -35.3027 C 13.8672 -35.5957 14.0137 -35.8887 14.4043 -36.2793 L 42.1387 -62.6953 C 42.3828 -62.8906 42.5781 -63.0859 42.8711 -63.0859 C 43.2129 -63.0859 43.457 -62.8418 43.457 -62.5 L 43.457 -46.9238 C 43.457 -46.0449 43.7988 -45.6543 44.6777 -45.6543 L 49.3652 -45.6543 C 75 -45.6543 84.0332 -28.418 84.668 -8.44727 C 84.668 -8.1543 84.5215 -8.00781 84.3262 -8.00781 C 84.1309 -8.00781 84.0332 -8.20312 83.8867 -8.49609 C 79.3945 -18.7012 67.6758 -24.8047 49.3652 -24.8047 L 44.6777 -24.8047 C 43.7988 -24.8047 43.457 -24.4141 43.457 -23.584 L 43.457 -8.39844 C 43.457 -8.00781 43.2129 -7.76367 42.8711 -7.76367 Z"/>
  </g>
  <g id="Thin-S" transform="matrix(1 0 0 1 809.474 696)">
   <path d="M 43.5059 -1.75781 C 45.3613 -1.75781 46.5332 -3.17383 46.5332 -4.98047 L 46.5332 -20.8984 L 48.0469 -20.8984 C 65.1855 -20.8984 75.4883 -16.3574 81.1035 -4.10156 C 81.9336 -2.29492 82.959 -1.75781 84.2773 -1.75781 C 85.791 -1.75781 87.0605 -3.07617 87.0605 -5.22461 C 87.0605 -35.3027 72.5098 -49.6094 48.0469 -49.6094 L 46.5332 -49.6094 L 46.5332 -65.6738 C 46.5332 -67.5293 45.3613 -68.9941 43.457 -68.9941 C 42.1387 -68.9941 41.1621 -68.3105 39.9902 -67.2852 L 9.96094 -39.3555 C 8.1543 -37.5977 7.8125 -36.5234 7.8125 -35.4004 C 7.8125 -34.2773 8.20312 -33.1543 9.96094 -31.4453 L 39.9902 -3.41797 C 41.1133 -2.44141 42.1387 -1.75781 43.5059 -1.75781 Z M 42.5781 -5.9082 C 42.334 -5.9082 42.041 -6.05469 41.6504 -6.39648 L 12.4512 -33.5938 C 11.6211 -34.375 11.4258 -34.8633 11.4258 -35.4004 C 11.4258 -35.9375 11.6699 -36.4258 12.4512 -37.1582 L 41.6016 -64.4531 C 41.8945 -64.6973 42.1875 -64.9414 42.5293 -64.9414 C 42.9688 -64.9414 43.2129 -64.6973 43.2129 -64.3066 L 43.2129 -47.4609 C 43.2129 -46.6797 43.5059 -46.3867 44.2871 -46.3867 L 47.6562 -46.3867 C 71.582 -46.3867 83.8379 -31.9336 84.082 -6.44531 C 84.082 -6.10352 83.9844 -5.85938 83.5938 -5.85938 C 83.3008 -5.85938 83.1543 -6.20117 82.959 -6.5918 C 78.0762 -18.457 66.5039 -24.0723 47.6562 -24.0723 L 44.2871 -24.0723 C 43.5059 -24.0723 43.2129 -23.7793 43.2129 -22.998 L 43.2129 -6.64062 C 43.2129 -6.20117 42.9688 -5.9082 42.5781 -5.9082 Z"/>
  </g>
  <g id="Ultralight-S" transform="matrix(1 0 0 1 513.373 696)">
   <path d="M 42.8223 -2.39258 C 44.4336 -2.39258 45.3125 -3.61328 45.3125 -5.12695 L 45.3125 -21.5332 L 47.0215 -21.5332 C 65.0391 -21.5332 75.6836 -16.6992 80.8594 -4.54102 C 81.543 -2.97852 82.2754 -2.39258 83.4961 -2.39258 C 84.8145 -2.39258 85.8398 -3.4668 85.8398 -5.17578 C 85.8398 -35.9863 70.2637 -48.9746 47.0215 -48.9746 L 45.3125 -48.9746 L 45.3125 -65.7227 C 45.3125 -67.2363 44.4336 -68.457 42.8223 -68.457 C 41.6992 -68.457 40.8203 -67.8711 39.9902 -67.1387 L 10.0586 -39.3066 C 8.05664 -37.5 7.8125 -36.4746 7.8125 -35.4492 C 7.8125 -34.375 8.10547 -33.3984 10.0586 -31.543 L 39.9902 -3.75977 C 40.7715 -2.97852 41.6992 -2.39258 42.8223 -2.39258 Z M 42.4316 -4.93164 C 42.1387 -4.93164 41.8457 -5.07812 41.3574 -5.51758 L 11.4746 -33.252 C 10.4492 -34.1797 10.1562 -34.7656 10.1562 -35.4492 C 10.1562 -36.084 10.498 -36.7188 11.4746 -37.6465 L 41.3086 -65.3809 C 41.6504 -65.6738 41.9434 -65.918 42.3828 -65.918 C 42.8223 -65.918 43.1152 -65.6738 43.1152 -65.2344 L 43.1152 -47.8027 C 43.1152 -47.0215 43.3594 -46.7773 44.0918 -46.7773 L 46.7773 -46.7773 C 69.7754 -46.7773 83.7402 -33.7402 83.7891 -5.41992 C 83.7891 -5.0293 83.6426 -4.73633 83.252 -4.73633 C 82.8613 -4.73633 82.666 -5.17578 82.4707 -5.66406 C 77.3926 -18.3105 65.8691 -23.7305 46.7773 -23.7305 L 44.0918 -23.7305 C 43.3594 -23.7305 43.1152 -23.4863 43.1152 -22.7051 L 43.1152 -5.76172 C 43.1152 -5.27344 42.8711 -4.93164 42.4316 -4.93164 Z"/>
  </g>
 </g>
</svg>
