<?xml version="1.0" encoding="UTF-8"?>
<!--Generator: Apple Native CoreSVG 123-->
<!DOCTYPE svg
PUBLIC "-//W3C//DTD SVG 1.1//EN"
       "http://www.w3.org/Graphics/SVG/1.1/DTD/svg11.dtd">
<svg version="1.1" xmlns="http://www.w3.org/2000/svg" xmlns:xlink="http://www.w3.org/1999/xlink" width="3300" height="2200">
 <!--glyph: "uni100496.medium", point size: 100.000000, font version: "Version 15.0d7e11", template writer version: "5"-->
 <g id="Notes">
  <rect height="2200" id="artboard" style="fill:white;opacity:1" width="3300" x="0" y="0"/>
  <line id="" style="fill:none;stroke:black;opacity:1;stroke-width:0.5;" x1="263" x2="3036" y1="292" y2="292"/>
  <text style="stroke:none;fill:black;font-family:-apple-system,&quot;SF Pro Display&quot;,&quot;SF Pro Text&quot;,Helvetica,sans-serif;font-weight:bold;" transform="matrix(1 0 0 1 263 322)">Weight/Scale Variations</text>
  <text style="stroke:none;fill:black;font-family:-apple-system,&quot;SF Pro Display&quot;,&quot;SF Pro Text&quot;,Helvetica,sans-serif;text-anchor:middle;" transform="matrix(1 0 0 1 559.711 322)">Ultralight</text>
  <text style="stroke:none;fill:black;font-family:-apple-system,&quot;SF Pro Display&quot;,&quot;SF Pro Text&quot;,Helvetica,sans-serif;text-anchor:middle;" transform="matrix(1 0 0 1 856.422 322)">Thin</text>
  <text style="stroke:none;fill:black;font-family:-apple-system,&quot;SF Pro Display&quot;,&quot;SF Pro Text&quot;,Helvetica,sans-serif;text-anchor:middle;" transform="matrix(1 0 0 1 1153.13 322)">Light</text>
  <text style="stroke:none;fill:black;font-family:-apple-system,&quot;SF Pro Display&quot;,&quot;SF Pro Text&quot;,Helvetica,sans-serif;text-anchor:middle;" transform="matrix(1 0 0 1 1449.84 322)">Regular</text>
  <text style="stroke:none;fill:black;font-family:-apple-system,&quot;SF Pro Display&quot;,&quot;SF Pro Text&quot;,Helvetica,sans-serif;text-anchor:middle;" transform="matrix(1 0 0 1 1746.56 322)">Medium</text>
  <text style="stroke:none;fill:black;font-family:-apple-system,&quot;SF Pro Display&quot;,&quot;SF Pro Text&quot;,Helvetica,sans-serif;text-anchor:middle;" transform="matrix(1 0 0 1 2043.27 322)">Semibold</text>
  <text style="stroke:none;fill:black;font-family:-apple-system,&quot;SF Pro Display&quot;,&quot;SF Pro Text&quot;,Helvetica,sans-serif;text-anchor:middle;" transform="matrix(1 0 0 1 2339.98 322)">Bold</text>
  <text style="stroke:none;fill:black;font-family:-apple-system,&quot;SF Pro Display&quot;,&quot;SF Pro Text&quot;,Helvetica,sans-serif;text-anchor:middle;" transform="matrix(1 0 0 1 2636.69 322)">Heavy</text>
  <text style="stroke:none;fill:black;font-family:-apple-system,&quot;SF Pro Display&quot;,&quot;SF Pro Text&quot;,Helvetica,sans-serif;text-anchor:middle;" transform="matrix(1 0 0 1 2933.4 322)">Black</text>
  <line id="" style="fill:none;stroke:black;opacity:1;stroke-width:0.5;" x1="263" x2="3036" y1="1903" y2="1903"/>
  <g id="" transform="matrix(1 0 0 1 263 1933)">
   <path d="M 9.24805 0.830078 C 13.5547 0.830078 17.1387 -2.74414 17.1387 -7.05078 C 17.1387 -11.3574 13.5449 -14.9316 9.23828 -14.9316 C 4.94141 -14.9316 1.36719 -11.3574 1.36719 -7.05078 C 1.36719 -2.74414 4.95117 0.830078 9.24805 0.830078 Z M 9.24805 -0.654297 C 5.70312 -0.654297 2.87109 -3.49609 2.87109 -7.05078 C 2.87109 -10.6055 5.69336 -13.4473 9.23828 -13.4473 C 12.793 -13.4473 15.6348 -10.6055 15.6445 -7.05078 C 15.6543 -3.49609 12.8027 -0.654297 9.24805 -0.654297 Z M 9.22852 -3.42773 C 9.69727 -3.42773 9.9707 -3.74023 9.9707 -4.25781 L 9.9707 -6.31836 L 12.1973 -6.31836 C 12.6953 -6.31836 13.0371 -6.57227 13.0371 -7.04102 C 13.0371 -7.51953 12.7148 -7.7832 12.1973 -7.7832 L 9.9707 -7.7832 L 9.9707 -10.0098 C 9.9707 -10.5273 9.69727 -10.8496 9.22852 -10.8496 C 8.75977 -10.8496 8.50586 -10.5078 8.50586 -10.0098 L 8.50586 -7.7832 L 6.29883 -7.7832 C 5.78125 -7.7832 5.44922 -7.51953 5.44922 -7.04102 C 5.44922 -6.57227 5.80078 -6.31836 6.29883 -6.31836 L 8.50586 -6.31836 L 8.50586 -4.25781 C 8.50586 -3.75977 8.75977 -3.42773 9.22852 -3.42773 Z"/>
  </g>
  <g id="" transform="matrix(1 0 0 1 281.506 1933)">
   <path d="M 11.709 2.91016 C 17.1582 2.91016 21.6699 -1.60156 21.6699 -7.05078 C 21.6699 -12.4902 17.1484 -17.0117 11.6992 -17.0117 C 6.25977 -17.0117 1.74805 -12.4902 1.74805 -7.05078 C 1.74805 -1.60156 6.26953 2.91016 11.709 2.91016 Z M 11.709 1.25 C 7.09961 1.25 3.41797 -2.44141 3.41797 -7.05078 C 3.41797 -11.6504 7.08984 -15.3516 11.6992 -15.3516 C 16.3086 -15.3516 20 -11.6504 20.0098 -7.05078 C 20.0195 -2.44141 16.3184 1.25 11.709 1.25 Z M 11.6895 -2.41211 C 12.207 -2.41211 12.5195 -2.77344 12.5195 -3.33984 L 12.5195 -6.23047 L 15.5762 -6.23047 C 16.123 -6.23047 16.5039 -6.51367 16.5039 -7.03125 C 16.5039 -7.55859 16.1426 -7.86133 15.5762 -7.86133 L 12.5195 -7.86133 L 12.5195 -10.9277 C 12.5195 -11.5039 12.207 -11.8555 11.6895 -11.8555 C 11.1719 -11.8555 10.8789 -11.4844 10.8789 -10.9277 L 10.8789 -7.86133 L 7.83203 -7.86133 C 7.26562 -7.86133 6.89453 -7.55859 6.89453 -7.03125 C 6.89453 -6.51367 7.28516 -6.23047 7.83203 -6.23047 L 10.8789 -6.23047 L 10.8789 -3.33984 C 10.8789 -2.79297 11.1719 -2.41211 11.6895 -2.41211 Z"/>
  </g>
  <g id="" transform="matrix(1 0 0 1 304.924 1933)">
   <path d="M 14.9707 5.67383 C 21.9336 5.67383 27.6953 -0.078125 27.6953 -7.04102 C 27.6953 -14.0039 21.9238 -19.7559 14.9609 -19.7559 C 8.00781 -19.7559 2.25586 -14.0039 2.25586 -7.04102 C 2.25586 -0.078125 8.01758 5.67383 14.9707 5.67383 Z M 14.9707 3.85742 C 8.93555 3.85742 4.08203 -1.00586 4.08203 -7.04102 C 4.08203 -13.0762 8.92578 -17.9395 14.9609 -17.9395 C 21.0059 -17.9395 25.8594 -13.0762 25.8691 -7.04102 C 25.8789 -1.00586 21.0156 3.85742 14.9707 3.85742 Z M 14.9512 -1.06445 C 15.5176 -1.06445 15.8691 -1.45508 15.8691 -2.06055 L 15.8691 -6.13281 L 20.1074 -6.13281 C 20.6934 -6.13281 21.1133 -6.46484 21.1133 -7.02148 C 21.1133 -7.59766 20.7227 -7.93945 20.1074 -7.93945 L 15.8691 -7.93945 L 15.8691 -12.1875 C 15.8691 -12.8027 15.5176 -13.1934 14.9512 -13.1934 C 14.3848 -13.1934 14.0625 -12.7832 14.0625 -12.1875 L 14.0625 -7.93945 L 9.83398 -7.93945 C 9.21875 -7.93945 8.80859 -7.59766 8.80859 -7.02148 C 8.80859 -6.46484 9.23828 -6.13281 9.83398 -6.13281 L 14.0625 -6.13281 L 14.0625 -2.06055 C 14.0625 -1.47461 14.3848 -1.06445 14.9512 -1.06445 Z"/>
  </g>
  <text style="stroke:none;fill:black;font-family:-apple-system,&quot;SF Pro Display&quot;,&quot;SF Pro Text&quot;,Helvetica,sans-serif;font-weight:bold;" transform="matrix(1 0 0 1 263 1953)">Design Variations</text>
  <text style="stroke:none;fill:black;font-family:-apple-system,&quot;SF Pro Display&quot;,&quot;SF Pro Text&quot;,Helvetica,sans-serif;" transform="matrix(1 0 0 1 263 1971)">Symbols are supported in up to nine weights and three scales.</text>
  <text style="stroke:none;fill:black;font-family:-apple-system,&quot;SF Pro Display&quot;,&quot;SF Pro Text&quot;,Helvetica,sans-serif;" transform="matrix(1 0 0 1 263 1989)">For optimal layout with text and other symbols, vertically align</text>
  <text style="stroke:none;fill:black;font-family:-apple-system,&quot;SF Pro Display&quot;,&quot;SF Pro Text&quot;,Helvetica,sans-serif;" transform="matrix(1 0 0 1 263 2007)">symbols with the adjacent text.</text>
  <rect height="14" id="" style="fill:#00AEEF;stroke:none;opacity:0.4;" width="3" x="776" y="1919"/>
  <g id="" transform="matrix(1 0 0 1 779 1933)">
   <path d="M 10.5273 0 L 12.373 0 L 7.17773 -14.0918 L 5.43945 -14.0918 L 0.244141 0 L 2.08984 0 L 3.50586 -4.0332 L 9.11133 -4.0332 Z M 6.2793 -11.9531 L 6.33789 -11.9531 L 8.59375 -5.52734 L 4.02344 -5.52734 Z"/>
  </g>
  <rect height="14" id="" style="fill:#00AEEF;stroke:none;opacity:0.4;" width="3" x="791.617" y="1919"/>
  <text style="stroke:none;fill:black;font-family:-apple-system,&quot;SF Pro Display&quot;,&quot;SF Pro Text&quot;,Helvetica,sans-serif;font-weight:bold;" transform="matrix(1 0 0 1 776 1953)">Margins</text>
  <text style="stroke:none;fill:black;font-family:-apple-system,&quot;SF Pro Display&quot;,&quot;SF Pro Text&quot;,Helvetica,sans-serif;" transform="matrix(1 0 0 1 776 1971)">Leading and trailing margins on the left and right side of each symbol</text>
  <text style="stroke:none;fill:black;font-family:-apple-system,&quot;SF Pro Display&quot;,&quot;SF Pro Text&quot;,Helvetica,sans-serif;" transform="matrix(1 0 0 1 776 1989)">can be adjusted by modifying the width of the blue rectangles.</text>
  <text style="stroke:none;fill:black;font-family:-apple-system,&quot;SF Pro Display&quot;,&quot;SF Pro Text&quot;,Helvetica,sans-serif;" transform="matrix(1 0 0 1 776 2007)">Modifications are automatically applied proportionally to all</text>
  <text style="stroke:none;fill:black;font-family:-apple-system,&quot;SF Pro Display&quot;,&quot;SF Pro Text&quot;,Helvetica,sans-serif;" transform="matrix(1 0 0 1 776 2025)">scales and weights.</text>
  <g id="" transform="matrix(1 0 0 1 1289 1933)">
   <path d="M 2.83203 3.11523 L 4.375 4.6582 C 5.22461 5.48828 6.19141 5.41992 7.06055 4.46289 L 17.2754 -6.66016 C 17.7051 -6.36719 18.0957 -6.37695 18.5645 -6.47461 L 19.6094 -6.68945 L 20.3027 -5.99609 L 20.2539 -5.47852 C 20.1855 -4.95117 20.3516 -4.53125 20.8496 -4.0332 L 21.6602 -3.22266 C 22.168 -2.71484 22.8223 -2.68555 23.3008 -3.16406 L 26.5527 -6.41602 C 27.0312 -6.89453 27.0117 -7.54883 26.5039 -8.05664 L 25.6836 -8.87695 C 25.1855 -9.375 24.7754 -9.55078 24.2383 -9.47266 L 23.7109 -9.41406 L 23.0566 -10.0781 L 23.3398 -11.2207 C 23.4863 -11.7871 23.3398 -12.2559 22.7148 -12.8613 L 20.3027 -15.2539 C 16.7578 -18.7793 12.2266 -18.6719 9.11133 -15.5371 C 8.69141 -15.1074 8.64258 -14.5215 8.91602 -14.0918 C 9.15039 -13.7207 9.62891 -13.4961 10.2734 -13.6621 C 11.7871 -14.043 13.3008 -13.9258 14.7852 -12.9199 L 14.1602 -11.3379 C 13.9258 -10.752 13.9453 -10.2734 14.1797 -9.83398 L 3.01758 0.439453 C 2.08008 1.30859 1.97266 2.25586 2.83203 3.11523 Z M 10.6738 -15.1465 C 13.3398 -17.1387 16.6504 -16.8262 19.0527 -14.4141 L 21.6797 -11.8066 C 21.9141 -11.5723 21.9434 -11.3867 21.8848 -11.0938 L 21.5039 -9.53125 L 23.0762 -7.95898 L 24.043 -8.04688 C 24.3262 -8.07617 24.4141 -8.05664 24.6387 -7.83203 L 25.2637 -7.20703 L 22.5098 -4.46289 L 21.8848 -5.07812 C 21.6602 -5.30273 21.6406 -5.40039 21.6699 -5.68359 L 21.7578 -6.64062 L 20.1953 -8.20312 L 18.5742 -7.89062 C 18.291 -7.83203 18.1445 -7.83203 17.9102 -8.07617 L 15.7324 -10.2539 C 15.5078 -10.4883 15.4785 -10.625 15.6055 -10.9473 L 16.5527 -13.2227 C 14.9512 -14.7559 12.8418 -15.6055 10.8008 -14.9512 C 10.7129 -14.9219 10.6445 -14.9414 10.6152 -14.9805 C 10.5859 -15.0293 10.5859 -15.0781 10.6738 -15.1465 Z M 4.10156 2.41211 C 3.61328 1.91406 3.78906 1.61133 4.12109 1.30859 L 15.0781 -8.80859 L 16.3086 -7.57812 L 6.15234 3.34961 C 5.84961 3.68164 5.46875 3.7793 5.06836 3.37891 Z"/>
  </g>
  <text style="stroke:none;fill:black;font-family:-apple-system,&quot;SF Pro Display&quot;,&quot;SF Pro Text&quot;,Helvetica,sans-serif;font-weight:bold;" transform="matrix(1 0 0 1 1289 1953)">Exporting</text>
  <text style="stroke:none;fill:black;font-family:-apple-system,&quot;SF Pro Display&quot;,&quot;SF Pro Text&quot;,Helvetica,sans-serif;" transform="matrix(1 0 0 1 1289 1971)">Symbols should be outlined when exporting to ensure the</text>
  <text style="stroke:none;fill:black;font-family:-apple-system,&quot;SF Pro Display&quot;,&quot;SF Pro Text&quot;,Helvetica,sans-serif;" transform="matrix(1 0 0 1 1289 1989)">design is preserved when submitting to Xcode.</text>
  <text id="template-version" style="stroke:none;fill:black;font-family:-apple-system,&quot;SF Pro Display&quot;,&quot;SF Pro Text&quot;,Helvetica,sans-serif;text-anchor:end;" transform="matrix(1 0 0 1 3036 1933)">Template v.1.0</text>
  <text style="stroke:none;fill:black;font-family:-apple-system,&quot;SF Pro Display&quot;,&quot;SF Pro Text&quot;,Helvetica,sans-serif;text-anchor:end;" transform="matrix(1 0 0 1 3036 1951)">Generated from rectangle.and.paperclip</text>
  <text style="stroke:none;fill:black;font-family:-apple-system,&quot;SF Pro Display&quot;,&quot;SF Pro Text&quot;,Helvetica,sans-serif;text-anchor:end;" transform="matrix(1 0 0 1 3036 1969)">Typeset at 100 points</text>
  <text style="stroke:none;fill:black;font-family:-apple-system,&quot;SF Pro Display&quot;,&quot;SF Pro Text&quot;,Helvetica,sans-serif;" transform="matrix(1 0 0 1 263 726)">Small</text>
  <text style="stroke:none;fill:black;font-family:-apple-system,&quot;SF Pro Display&quot;,&quot;SF Pro Text&quot;,Helvetica,sans-serif;" transform="matrix(1 0 0 1 263 1156)">Medium</text>
  <text style="stroke:none;fill:black;font-family:-apple-system,&quot;SF Pro Display&quot;,&quot;SF Pro Text&quot;,Helvetica,sans-serif;" transform="matrix(1 0 0 1 263 1586)">Large</text>
 </g>
 <g id="Guides">
  <g id="H-reference" style="fill:#27AAE1;stroke:none;" transform="matrix(1 0 0 1 339 696)">
   <path d="M 54.9316 0 L 57.666 0 L 30.5664 -70.459 L 28.0762 -70.459 L 0.976562 0 L 3.66211 0 L 12.9395 -24.4629 L 45.7031 -24.4629 Z M 29.1992 -67.0898 L 29.4434 -67.0898 L 44.8242 -26.709 L 13.8184 -26.709 Z"/>
  </g>
  <line id="Baseline-S" style="fill:none;stroke:#27AAE1;opacity:1;stroke-width:0.577;" x1="263" x2="3036" y1="696" y2="696"/>
  <line id="Capline-S" style="fill:none;stroke:#27AAE1;opacity:1;stroke-width:0.577;" x1="263" x2="3036" y1="625.541" y2="625.541"/>
  <g id="H-reference" style="fill:#27AAE1;stroke:none;" transform="matrix(1 0 0 1 339 1126)">
   <path d="M 54.9316 0 L 57.666 0 L 30.5664 -70.459 L 28.0762 -70.459 L 0.976562 0 L 3.66211 0 L 12.9395 -24.4629 L 45.7031 -24.4629 Z M 29.1992 -67.0898 L 29.4434 -67.0898 L 44.8242 -26.709 L 13.8184 -26.709 Z"/>
  </g>
  <line id="Baseline-M" style="fill:none;stroke:#27AAE1;opacity:1;stroke-width:0.577;" x1="263" x2="3036" y1="1126" y2="1126"/>
  <line id="Capline-M" style="fill:none;stroke:#27AAE1;opacity:1;stroke-width:0.577;" x1="263" x2="3036" y1="1055.54" y2="1055.54"/>
  <g id="H-reference" style="fill:#27AAE1;stroke:none;" transform="matrix(1 0 0 1 339 1556)">
   <path d="M 54.9316 0 L 57.666 0 L 30.5664 -70.459 L 28.0762 -70.459 L 0.976562 0 L 3.66211 0 L 12.9395 -24.4629 L 45.7031 -24.4629 Z M 29.1992 -67.0898 L 29.4434 -67.0898 L 44.8242 -26.709 L 13.8184 -26.709 Z"/>
  </g>
  <line id="Baseline-L" style="fill:none;stroke:#27AAE1;opacity:1;stroke-width:0.577;" x1="263" x2="3036" y1="1556" y2="1556"/>
  <line id="Capline-L" style="fill:none;stroke:#27AAE1;opacity:1;stroke-width:0.577;" x1="263" x2="3036" y1="1485.54" y2="1485.54"/>
  <rect height="119.336" id="left-margin" style="fill:#00AEEF;stroke:none;opacity:0.4;" width="12.4512" x="1382.1" y="1030.79"/>
  <rect height="119.336" id="right-margin" style="fill:#00AEEF;stroke:none;opacity:0.4;" width="11.217" x="1506.38" y="1030.79"/>
 </g>
 <g id="Symbols">
  <g id="Black-L" transform="matrix(1 0 0 1 2842.16 1556)">
   <path d="M 96.582 -20.2148 C 106.104 -10.7422 120.898 -10.4004 130.957 -20.4102 L 158.838 -48.3887 C 160.596 -50.1953 160.596 -53.5156 158.789 -55.2734 C 156.885 -57.1289 153.906 -57.0312 152.002 -55.1758 L 124.414 -27.6367 C 117.92 -21.2402 109.277 -21.3867 103.564 -27.1973 C 97.8027 -33.0078 97.5586 -41.6016 104.053 -48.0957 L 141.064 -85.1074 C 144.629 -88.6719 149.951 -89.5996 153.662 -86.1328 C 157.275 -82.7148 156.152 -77.2461 152.588 -73.6816 L 116.357 -37.3535 C 115.479 -36.4746 114.355 -36.4746 113.672 -37.3047 C 112.891 -38.1348 112.842 -39.1602 113.721 -40.0391 L 138.721 -65.0391 C 140.625 -66.9434 140.674 -69.7754 138.916 -71.6797 C 137.109 -73.584 134.082 -73.4375 132.227 -71.5332 L 107.129 -46.3867 C 102.49 -41.7969 102.686 -34.668 106.787 -30.4688 C 111.328 -25.8789 118.115 -26.0742 122.705 -30.6641 L 159.277 -67.041 C 167.139 -74.9512 167.139 -85.498 160.01 -92.6758 C 152.881 -99.8047 141.992 -99.9512 134.229 -92.1387 L 96.875 -54.5898 C 86.7676 -44.5312 87.1094 -29.6875 96.582 -20.2148 Z M 39.7461 22.998 L 143.896 22.998 C 159.082 22.998 167.578 14.5508 167.578 -0.585938 L 167.578 -37.3535 L 147.314 -16.9434 L 147.314 -0.585938 C 147.314 2.73438 145.508 4.54102 142.285 4.54102 L 41.3574 4.54102 C 38.1348 4.54102 36.3281 2.73438 36.3281 -0.585938 L 36.3281 -69.3359 C 36.3281 -72.6562 38.1348 -74.5117 41.3574 -74.5117 L 98.2422 -74.5117 L 116.699 -92.9688 L 39.7461 -92.9688 C 24.5605 -92.9688 16.0645 -84.5215 16.0645 -69.4336 L 16.0645 -0.585938 C 16.0645 14.5508 24.5605 22.998 39.7461 22.998 Z"/>
  </g>
  <g id="Heavy-L" transform="matrix(1 0 0 1 2546.6 1556)">
   <path d="M 95.459 -20.3613 C 104.883 -10.9863 119.434 -10.6445 129.395 -20.5566 L 157.764 -48.9746 C 159.375 -50.6836 159.375 -53.7109 157.666 -55.3711 C 155.908 -57.0801 153.174 -56.9824 151.416 -55.2734 L 123.34 -27.1973 C 116.748 -20.6543 107.812 -20.8496 101.904 -26.8066 C 95.9473 -32.8613 95.7031 -41.6992 102.295 -48.291 L 139.404 -85.4004 C 143.262 -89.2578 148.828 -89.8926 152.539 -86.377 C 156.201 -82.8613 155.42 -77.1973 151.562 -73.3887 L 115.283 -36.9629 C 114.209 -35.9375 112.891 -35.9375 112.012 -36.9141 C 111.035 -37.8906 110.986 -39.1602 112.061 -40.2344 L 137.354 -65.4785 C 139.111 -67.2852 139.111 -69.873 137.5 -71.6797 C 135.791 -73.3887 133.105 -73.291 131.299 -71.4844 L 105.957 -46.0938 C 101.465 -41.6016 101.562 -34.668 105.615 -30.6152 C 110.059 -26.1719 116.602 -26.3184 121.143 -30.8105 L 157.715 -67.2363 C 165.527 -75.0488 165.43 -85.4492 158.447 -92.4316 C 151.465 -99.4141 140.771 -99.6094 133.105 -91.8945 L 95.7031 -54.3457 C 85.6934 -44.3359 86.084 -29.7363 95.459 -20.3613 Z M 38.5254 22.3633 L 142.627 22.3633 C 157.129 22.3633 165.039 14.4531 165.039 0 L 165.039 -37.5 L 147.559 -19.8242 L 147.559 -0.0976562 C 147.559 4.05273 145.361 6.20117 141.357 6.20117 L 39.7949 6.20117 C 35.7422 6.20117 33.5938 4.05273 33.5938 -0.0976562 L 33.5938 -69.3359 C 33.5938 -73.4863 35.7422 -75.6348 39.7949 -75.6348 L 98.9746 -75.6348 L 115.088 -91.7969 L 38.5254 -91.7969 C 24.0234 -91.7969 16.0645 -83.9355 16.0645 -69.4824 L 16.0645 0 C 16.0645 14.4531 24.0234 22.3633 38.5254 22.3633 Z"/>
  </g>
  <g id="Bold-L" transform="matrix(1 0 0 1 2251.18 1556)">
   <path d="M 94.1895 -20.5566 C 103.467 -11.3281 117.773 -10.8887 127.637 -20.7031 L 156.494 -49.6094 C 158.057 -51.2207 158.008 -53.9551 156.445 -55.4688 C 154.834 -56.9824 152.393 -56.9336 150.732 -55.3223 L 122.119 -26.7578 C 115.381 -20.0195 106.104 -20.2148 100.049 -26.416 C 93.8965 -32.666 93.6035 -41.7969 100.391 -48.5352 L 137.598 -85.7422 C 141.748 -89.8926 147.607 -90.2344 151.318 -86.6211 C 155.029 -83.0566 154.59 -77.1973 150.391 -73.0469 L 114.014 -36.5723 C 112.793 -35.3027 111.182 -35.3516 110.107 -36.4746 C 108.936 -37.6465 108.936 -39.209 110.205 -40.4785 L 135.742 -66.0156 C 137.402 -67.6758 137.402 -70.0195 135.889 -71.6309 C 134.375 -73.1934 131.982 -73.1445 130.322 -71.4844 L 104.639 -45.752 C 100.244 -41.4062 100.342 -34.668 104.297 -30.7129 C 108.594 -26.4648 114.941 -26.5625 119.385 -30.9082 L 156.006 -67.4805 C 163.672 -75.1953 163.477 -85.3516 156.641 -92.1875 C 149.854 -98.9258 139.404 -99.2188 131.885 -91.6504 L 94.4336 -54.0527 C 84.5215 -44.1406 84.9609 -29.7363 94.1895 -20.5566 Z M 37.1582 21.582 L 141.162 21.582 C 154.98 21.582 162.256 14.3555 162.256 0.683594 L 162.256 -37.6465 L 147.803 -23.0469 L 147.803 0.488281 C 147.803 5.51758 145.215 8.05664 140.283 8.05664 L 38.0371 8.05664 C 33.1055 8.05664 30.5176 5.51758 30.5176 0.488281 L 30.5176 -69.3359 C 30.5176 -74.4141 33.1055 -76.9531 38.0371 -76.9531 L 99.8047 -76.9531 L 113.281 -90.4785 L 37.1582 -90.4785 C 23.4375 -90.4785 16.0645 -83.252 16.0645 -69.5312 L 16.0645 0.683594 C 16.0645 14.3555 23.4375 21.582 37.1582 21.582 Z"/>
  </g>
  <g id="Semibold-L" transform="matrix(1 0 0 1 1955.35 1556)">
   <path d="M 93.2617 -20.6543 C 102.49 -11.5234 116.65 -11.0352 126.465 -20.8496 L 155.664 -50.0488 C 157.129 -51.5625 157.08 -54.1016 155.615 -55.5176 C 154.102 -56.9336 151.855 -56.8848 150.293 -55.3711 L 121.289 -26.416 C 114.453 -19.5801 104.98 -19.8242 98.7793 -26.123 C 92.4805 -32.5195 92.1875 -41.8945 99.0234 -48.7305 L 136.377 -85.9863 C 140.723 -90.332 146.729 -90.4785 150.488 -86.8164 C 154.199 -83.2031 154.004 -77.1973 149.609 -72.8027 L 113.184 -36.2305 C 111.816 -34.8633 110.059 -34.9121 108.838 -36.1816 C 107.52 -37.4512 107.52 -39.209 108.936 -40.625 L 134.668 -66.3574 C 136.23 -67.9199 136.182 -70.1172 134.814 -71.582 C 133.398 -72.998 131.201 -73.0469 129.639 -71.4355 L 103.711 -45.5566 C 99.4141 -41.2109 99.5117 -34.668 103.418 -30.8105 C 107.617 -26.709 113.77 -26.709 118.164 -31.0059 L 154.785 -67.627 C 162.402 -75.293 162.109 -85.3027 155.42 -91.9922 C 148.779 -98.584 138.525 -98.9746 131.006 -91.4551 L 93.5059 -53.8574 C 83.6426 -44.043 84.1797 -29.7852 93.2617 -20.6543 Z M 36.2305 21.0938 L 140.186 21.0938 C 153.467 21.0938 160.303 14.3066 160.303 1.12305 L 160.303 -37.7441 L 147.998 -25.2441 L 147.998 0.830078 C 147.998 6.54297 145.117 9.32617 139.6 9.32617 L 36.8164 9.32617 C 31.2988 9.32617 28.418 6.54297 28.418 0.830078 L 28.418 -69.2871 C 28.418 -75 31.2988 -77.832 36.8164 -77.832 L 100.342 -77.832 L 112.061 -89.5508 L 36.2305 -89.5508 C 22.998 -89.5508 16.0645 -82.7637 16.0645 -69.5801 L 16.0645 1.12305 C 16.0645 14.3066 22.998 21.0938 36.2305 21.0938 Z"/>
  </g>
  <g id="Medium-L" transform="matrix(1 0 0 1 1659.32 1556)">
   <path d="M 92.627 -20.752 C 101.758 -11.6699 115.771 -11.1816 125.537 -20.8984 L 155.029 -50.3906 C 156.396 -51.8555 156.396 -54.248 154.98 -55.5664 C 153.516 -56.8848 151.416 -56.8848 149.951 -55.4199 L 120.703 -26.1719 C 113.721 -19.2383 104.102 -19.4824 97.8027 -25.8789 C 91.4062 -32.4219 91.0645 -41.9434 97.998 -48.8281 L 135.4 -86.1816 C 139.941 -90.6738 146.045 -90.6738 149.854 -86.9629 C 153.564 -83.3008 153.564 -77.1484 149.023 -72.6562 L 112.549 -36.0352 C 111.084 -34.5215 109.18 -34.6191 107.861 -35.9375 C 106.445 -37.3535 106.445 -39.209 107.959 -40.7227 L 133.838 -66.6016 C 135.352 -68.1152 135.254 -70.166 133.984 -71.5332 C 132.617 -72.9004 130.615 -72.9492 129.102 -71.4355 L 103.027 -45.3613 C 98.8281 -41.1133 98.877 -34.668 102.734 -30.9082 C 106.836 -26.8555 112.891 -26.8066 117.236 -31.1035 L 153.906 -67.7246 C 161.426 -75.3418 161.084 -85.2539 154.492 -91.8457 C 147.949 -98.3398 137.793 -98.7793 130.371 -91.3086 L 92.8223 -53.7598 C 83.0566 -43.9453 83.5449 -29.7852 92.627 -20.752 Z M 35.5469 20.7031 L 139.404 20.7031 C 152.295 20.7031 158.887 14.2578 158.887 1.46484 L 158.887 -37.8418 L 148.145 -26.9531 L 148.145 1.12305 C 148.145 7.32422 145.068 10.3027 139.062 10.3027 L 35.8887 10.3027 C 29.8828 10.3027 26.8066 7.32422 26.8066 1.12305 L 26.8066 -69.2871 C 26.8066 -75.4883 29.8828 -78.5156 35.8887 -78.5156 L 100.781 -78.5156 L 111.133 -88.8672 L 35.5469 -88.8672 C 22.6562 -88.8672 16.0645 -82.4219 16.0645 -69.6289 L 16.0645 1.46484 C 16.0645 14.2578 22.6562 20.7031 35.5469 20.7031 Z"/>
  </g>
  <g id="Regular-L" transform="matrix(1 0 0 1 1363.49 1556)">
   <path d="M 91.748 -20.8984 C 100.781 -11.9141 114.648 -11.3281 124.365 -21.0449 L 154.15 -50.8789 C 155.469 -52.2461 155.469 -54.3945 154.15 -55.6152 C 152.783 -56.8359 150.879 -56.8359 149.512 -55.4688 L 119.873 -25.8789 C 112.793 -18.7988 102.93 -19.043 96.5332 -25.5859 C 89.9902 -32.3242 89.6484 -42.041 96.6797 -49.0234 L 134.18 -86.4258 C 138.916 -91.1133 145.215 -90.918 149.023 -87.1582 C 152.783 -83.4473 152.979 -77.1484 148.242 -72.4121 L 111.719 -35.7422 C 110.107 -34.082 108.008 -34.1797 106.592 -35.6445 C 105.029 -37.1582 105.029 -39.2578 106.689 -40.8691 L 132.764 -66.9434 C 134.229 -68.4082 134.082 -70.2637 132.91 -71.5332 C 131.641 -72.7539 129.834 -72.8516 128.418 -71.3867 L 102.148 -45.1172 C 97.998 -40.9668 98.0469 -34.7168 101.807 -31.0059 C 105.859 -27.0996 111.768 -27.002 116.016 -31.2012 L 152.734 -67.9199 C 160.205 -75.4395 159.766 -85.2051 153.271 -91.6504 C 146.875 -98.0469 136.865 -98.5352 129.541 -91.1133 L 91.9434 -53.5645 C 82.2266 -43.7988 82.7637 -29.7852 91.748 -20.8984 Z M 34.6191 20.166 L 138.428 20.166 C 150.83 20.166 156.934 14.1602 156.934 1.9043 L 156.934 -37.9395 L 148.291 -29.1504 L 148.291 1.51367 C 148.291 8.30078 144.971 11.6211 138.33 11.6211 L 34.7168 11.6211 C 28.0762 11.6211 24.7559 8.30078 24.7559 1.51367 L 24.7559 -69.2871 C 24.7559 -76.123 28.0762 -79.3945 34.7168 -79.3945 L 101.367 -79.3945 L 109.912 -87.9883 L 34.6191 -87.9883 C 22.2656 -87.9883 16.0645 -81.9824 16.0645 -69.6777 L 16.0645 1.9043 C 16.0645 14.1602 22.2656 20.166 34.6191 20.166 Z"/>
  </g>
  <g id="Light-L" transform="matrix(1 0 0 1 1068.22 1556)">
   <path d="M 93.4082 -23.9258 C 101.465 -15.9668 114.014 -14.9414 123.096 -24.0234 L 151.318 -52.3438 C 152.441 -53.4668 152.393 -55.2246 151.367 -56.2012 C 150.293 -57.1289 148.73 -57.2266 147.559 -56.0547 L 119.385 -27.8809 C 112.598 -21.0938 103.223 -21.6797 97.2656 -27.7344 C 91.1133 -33.9844 90.5762 -43.2129 97.2656 -49.9023 L 133.154 -85.6934 C 137.793 -90.2832 143.799 -89.6973 147.314 -86.2305 C 150.781 -82.7637 151.367 -76.7578 146.729 -72.1191 L 111.768 -37.0117 C 110.059 -35.2539 107.91 -35.4492 106.445 -36.9141 C 104.785 -38.3789 104.785 -40.625 106.494 -42.3828 L 131.885 -67.6758 C 133.105 -68.8965 132.91 -70.4102 131.982 -71.3867 C 131.006 -72.4121 129.541 -72.5586 128.271 -71.2891 L 102.881 -45.8496 C 99.0234 -41.9434 99.1699 -36.4258 102.539 -33.1543 C 106.104 -29.6875 111.426 -29.3945 115.332 -33.3008 L 150.439 -68.4082 C 157.373 -75.3906 156.445 -84.3262 150.83 -89.9414 C 145.312 -95.459 136.23 -96.3867 129.346 -89.502 L 93.5547 -53.6621 C 84.4238 -44.5312 85.4004 -31.8848 93.4082 -23.9258 Z M 33.252 18.1641 L 137.061 18.1641 C 148.535 18.1641 154.248 12.5977 154.248 1.12305 L 154.248 -38.8184 L 147.656 -32.0801 L 147.656 0.878906 C 147.656 8.25195 144.238 11.6211 137.012 11.6211 L 33.3496 11.6211 C 26.123 11.6211 22.7051 8.25195 22.7051 0.878906 L 22.7051 -69.5312 C 22.7051 -76.8555 26.123 -80.2734 33.3496 -80.2734 L 102.686 -80.2734 L 109.18 -86.7676 L 33.252 -86.7676 C 21.8262 -86.7676 16.0645 -81.2012 16.0645 -69.7754 L 16.0645 1.12305 C 16.0645 12.5977 21.8262 18.1641 33.252 18.1641 Z"/>
  </g>
  <g id="Thin-L" transform="matrix(1 0 0 1 773.414 1556)">
   <path d="M 95.6055 -27.9785 C 102.393 -21.2891 113.135 -19.6777 121.387 -28.0273 L 147.607 -54.2969 C 148.389 -55.0781 148.34 -56.2988 147.656 -56.9336 C 147.021 -57.5684 145.898 -57.7148 145.02 -56.8359 L 118.701 -30.5664 C 112.354 -24.1699 103.662 -25.0977 98.1934 -30.5664 C 92.627 -36.1328 91.748 -44.8242 98.0469 -51.123 L 131.787 -84.7168 C 136.328 -89.209 141.943 -88.1348 145.117 -84.9609 C 148.193 -81.8848 149.268 -76.2695 144.775 -71.7285 L 111.865 -38.6719 C 110.01 -36.8652 107.715 -37.1582 106.201 -38.5254 C 104.541 -39.9902 104.492 -42.4805 106.299 -44.3359 L 130.664 -68.6523 C 131.641 -69.5801 131.348 -70.6055 130.762 -71.2402 C 130.127 -71.9727 129.102 -72.2168 128.125 -71.1914 L 103.809 -46.7773 C 100.391 -43.2617 100.635 -38.6719 103.467 -35.9863 C 106.445 -33.1543 110.938 -32.666 114.453 -36.1328 L 147.412 -69.0918 C 153.613 -75.3418 152.051 -83.1055 147.607 -87.5977 C 143.213 -92.041 135.352 -93.6035 129.15 -87.3047 L 95.7031 -53.8086 C 87.3535 -45.459 88.8184 -34.668 95.6055 -27.9785 Z M 31.4941 15.4785 L 135.254 15.4785 C 145.557 15.4785 150.684 10.498 150.684 0.146484 L 150.684 -39.9414 L 146.777 -35.9863 L 146.777 0.0976562 C 146.777 8.10547 143.262 11.6699 135.254 11.6699 L 31.543 11.6699 C 23.5352 11.6699 20.0195 8.10547 20.0195 0.0976562 L 20.0195 -69.8242 C 20.0195 -77.8809 23.5352 -81.4453 31.543 -81.4453 L 104.395 -81.4453 L 108.203 -85.2051 L 31.4941 -85.2051 C 21.2402 -85.2051 16.0645 -80.2246 16.0645 -69.9219 L 16.0645 0.146484 C 16.0645 10.498 21.2402 15.4785 31.4941 15.4785 Z"/>
  </g>
  <g id="Ultralight-L" transform="matrix(1 0 0 1 477.68 1556)">
   <path d="M 96.7285 -30.0781 C 102.832 -24.0723 112.695 -22.1191 120.557 -30.0781 L 145.703 -55.2734 C 146.338 -55.957 146.24 -56.8359 145.752 -57.3242 C 145.312 -57.8125 144.434 -58.0078 143.701 -57.2754 L 118.359 -31.8848 C 112.207 -25.7324 103.857 -26.8555 98.6816 -32.0312 C 93.4082 -37.2559 92.3828 -45.6543 98.4863 -51.709 L 131.055 -84.2285 C 135.547 -88.623 141.016 -87.3047 143.945 -84.3262 C 146.826 -81.4453 148.193 -75.9766 143.799 -71.5332 L 111.865 -39.5508 C 110.01 -37.6953 107.617 -38.0371 106.104 -39.3555 C 104.395 -40.8203 104.297 -43.457 106.201 -45.3125 L 130.078 -69.1406 C 130.859 -69.9219 130.518 -70.7031 130.127 -71.1914 C 129.639 -71.7285 128.906 -72.0215 128.076 -71.0938 L 104.297 -47.2168 C 101.123 -43.9453 101.367 -39.8438 103.955 -37.4023 C 106.641 -34.9121 110.693 -34.2773 113.965 -37.5488 L 145.85 -69.4336 C 151.709 -75.293 149.756 -82.5195 145.947 -86.4258 C 142.139 -90.332 134.912 -92.1387 129.004 -86.1816 L 96.7773 -53.9062 C 88.8672 -45.9473 90.625 -36.1328 96.7285 -30.0781 Z M 30.6152 14.0625 L 134.326 14.0625 C 143.994 14.0625 148.877 9.42383 148.877 -0.390625 L 148.877 -40.5273 L 146.289 -37.9883 L 146.289 -0.341797 C 146.289 8.05664 142.725 11.7188 134.326 11.7188 L 30.6152 11.7188 C 22.2168 11.7188 18.6523 8.05664 18.6523 -0.341797 L 18.6523 -70.0195 C 18.6523 -78.3691 22.2168 -82.0312 30.6152 -82.0312 L 105.273 -82.0312 L 107.666 -84.4238 L 30.6152 -84.4238 C 20.9473 -84.4238 16.0645 -79.7363 16.0645 -69.9707 L 16.0645 -0.390625 C 16.0645 9.42383 20.9473 14.0625 30.6152 14.0625 Z"/>
  </g>
  <g id="Black-M" transform="matrix(1 0 0 1 2861.92 1126)">
   <path d="M 77.2949 -25.0488 C 84.3262 -18.0176 95.3613 -17.627 102.881 -25.1465 L 123.096 -45.4102 C 124.463 -46.875 124.463 -49.5605 123.047 -50.9766 C 121.533 -52.4902 119.092 -52.4414 117.578 -50.9277 L 97.5586 -30.957 C 92.9199 -26.3672 86.8652 -26.6602 82.8613 -30.6641 C 78.9062 -34.6191 78.5645 -40.6738 83.3008 -45.3613 L 110.938 -73.0957 C 113.281 -75.4395 116.992 -76.3184 119.629 -73.8281 C 122.266 -71.4355 121.191 -67.5781 118.848 -65.2344 L 91.6992 -38.0859 C 91.2109 -37.5977 90.5762 -37.5977 90.2344 -38.0371 C 89.8926 -38.4766 89.7949 -39.0137 90.2832 -39.502 L 108.936 -58.1055 C 110.449 -59.6191 110.498 -61.9141 109.082 -63.4766 C 107.617 -65.0391 105.127 -64.8438 103.613 -63.3789 L 84.9609 -44.6777 C 81.4453 -41.1133 81.6406 -35.6934 84.7168 -32.5195 C 88.1348 -29.0039 93.4082 -29.1504 96.875 -32.666 L 124.268 -59.8633 C 130.273 -65.8691 130.127 -73.8281 124.854 -79.1504 C 119.58 -84.4727 111.279 -84.668 105.42 -78.7598 L 77.4902 -50.6348 C 69.873 -43.0176 70.2637 -32.0312 77.2949 -25.0488 Z M 31.7383 9.7168 L 112.5 9.7168 C 124.707 9.7168 131.787 2.63672 131.787 -9.57031 L 131.787 -37.1582 L 113.477 -18.75 L 113.477 -9.375 C 113.477 -7.61719 112.549 -6.64062 110.791 -6.64062 L 33.4473 -6.64062 C 31.6895 -6.64062 30.7617 -7.61719 30.7617 -9.375 L 30.7617 -61.8164 C 30.7617 -63.5742 31.6895 -64.5996 33.4473 -64.5996 L 75.8301 -64.5996 L 92.1875 -80.957 L 31.7383 -80.957 C 19.5312 -80.957 12.4512 -73.877 12.4512 -61.6699 L 12.4512 -9.57031 C 12.4512 2.63672 19.5312 9.7168 31.7383 9.7168 Z"/>
  </g>
  <g id="Heavy-M" transform="matrix(1 0 0 1 2566.08 1126)">
   <path d="M 75.5859 -24.4141 C 82.7637 -17.2852 93.8965 -16.9434 101.514 -24.5117 L 122.607 -45.6543 C 123.926 -47.0703 123.926 -49.5605 122.559 -50.9277 C 121.143 -52.2949 118.848 -52.2461 117.432 -50.8301 L 96.5332 -29.9805 C 91.6504 -25.1465 85.1562 -25.3418 80.8594 -29.6875 C 76.6113 -33.9844 76.3184 -40.4785 81.25 -45.3613 L 109.424 -73.6328 C 112.109 -76.2695 116.113 -76.9531 118.896 -74.3652 C 121.582 -71.7773 120.752 -67.6758 118.115 -64.9902 L 90.4785 -37.3535 C 89.7949 -36.6699 88.9648 -36.7188 88.4766 -37.3047 C 87.8906 -37.8906 87.8418 -38.6719 88.5254 -39.3066 L 107.617 -58.3984 C 109.082 -59.8633 109.082 -62.0117 107.764 -63.4766 C 106.396 -64.9414 104.102 -64.7949 102.686 -63.3301 L 83.4961 -44.1406 C 79.9805 -40.625 80.127 -35.2539 83.252 -32.1289 C 86.6699 -28.6133 91.8457 -28.7598 95.3125 -32.2266 L 123.193 -59.9609 C 129.199 -65.9668 129.053 -73.9746 123.73 -79.3457 C 118.408 -84.7168 110.156 -84.8633 104.248 -78.9551 L 75.7812 -50.3418 C 68.1152 -42.6758 68.5059 -31.543 75.5859 -24.4141 Z M 30.7617 9.52148 L 111.475 9.52148 C 123.145 9.52148 129.736 2.92969 129.736 -8.74023 L 129.736 -37.0605 L 113.916 -21.1426 L 113.916 -8.64258 C 113.916 -6.15234 112.598 -4.83398 110.107 -4.83398 L 32.0801 -4.83398 C 29.6387 -4.83398 28.2715 -6.15234 28.2715 -8.64258 L 28.2715 -61.7676 C 28.2715 -64.2578 29.6387 -65.625 32.0801 -65.625 L 76.2695 -65.625 L 90.625 -79.9805 L 30.7617 -79.9805 C 19.043 -79.9805 12.4512 -73.3887 12.4512 -61.7188 L 12.4512 -8.74023 C 12.4512 2.92969 19.043 9.52148 30.7617 9.52148 Z"/>
  </g>
  <g id="Bold-M" transform="matrix(1 0 0 1 2270.35 1126)">
   <path d="M 73.7305 -23.6816 C 81.0059 -16.4551 92.2852 -16.1621 100 -23.8281 L 122.07 -45.9473 C 123.34 -47.2656 123.34 -49.6094 122.021 -50.8301 C 120.703 -52.1484 118.604 -52.0996 117.285 -50.7324 L 95.3613 -28.9062 C 90.2344 -23.7793 83.252 -23.9258 78.6621 -28.6133 C 73.9746 -33.3008 73.7793 -40.2344 78.9551 -45.3613 L 107.764 -74.2188 C 110.791 -77.2461 115.137 -77.6855 118.066 -74.9023 C 120.898 -72.2168 120.312 -67.7734 117.285 -64.7461 L 89.1113 -36.4746 C 88.2812 -35.6445 87.207 -35.6445 86.4746 -36.4258 C 85.6934 -37.2559 85.6934 -38.2812 86.5234 -39.1113 L 106.152 -58.7402 C 107.52 -60.1074 107.52 -62.1094 106.299 -63.4766 C 105.029 -64.7949 102.979 -64.6973 101.611 -63.3301 L 81.8848 -43.6035 C 78.418 -40.1367 78.4668 -34.7656 81.5918 -31.6406 C 85.0098 -28.2227 90.0879 -28.3203 93.6035 -31.7871 L 121.973 -60.0586 C 128.027 -66.1133 127.93 -74.1699 122.51 -79.541 C 117.139 -84.9121 108.887 -85.1074 102.979 -79.1504 L 73.9258 -50 C 66.1621 -42.2363 66.4551 -30.957 73.7305 -23.6816 Z M 29.6387 9.27734 L 110.303 9.27734 C 121.436 9.27734 127.49 3.32031 127.49 -7.8125 L 127.49 -37.0117 L 114.404 -23.7793 L 114.404 -7.86133 C 114.404 -4.54102 112.646 -2.7832 109.375 -2.7832 L 30.5664 -2.7832 C 27.2949 -2.7832 25.5371 -4.54102 25.5371 -7.86133 L 25.5371 -61.6699 C 25.5371 -65.0391 27.2949 -66.748 30.5664 -66.748 L 76.8066 -66.748 L 88.916 -78.8574 L 29.6387 -78.8574 C 18.5059 -78.8574 12.4512 -72.8516 12.4512 -61.7676 L 12.4512 -7.8125 C 12.4512 3.32031 18.5059 9.27734 29.6387 9.27734 Z"/>
  </g>
  <g id="Semibold-M" transform="matrix(1 0 0 1 1974.32 1126)">
   <path d="M 72.4121 -23.1934 C 79.834 -15.8691 91.1621 -15.5762 98.9258 -23.3398 L 121.729 -46.1426 C 122.949 -47.4121 122.949 -49.6094 121.68 -50.7812 C 120.361 -52.002 118.457 -51.9531 117.139 -50.6836 L 94.5801 -28.125 C 89.2578 -22.8516 81.9336 -22.9492 77.0996 -27.832 C 72.2168 -32.8613 72.0215 -40.0879 77.3438 -45.4102 L 106.592 -74.6094 C 109.863 -77.8809 114.502 -78.1738 117.48 -75.3418 C 120.41 -72.4609 120.02 -67.8223 116.699 -64.5508 L 88.1836 -35.8887 C 87.207 -34.9121 85.9375 -34.9609 85.1074 -35.8887 C 84.1797 -36.8164 84.1797 -37.9883 85.1562 -39.0137 L 105.176 -58.9844 C 106.494 -60.3027 106.445 -62.1582 105.273 -63.4277 C 104.053 -64.6973 102.148 -64.6484 100.879 -63.3301 L 80.7129 -43.2129 C 77.2949 -39.7461 77.3438 -34.4238 80.4688 -31.2988 C 83.8867 -27.9297 88.916 -27.9785 92.3828 -31.4453 L 121.143 -60.1562 C 127.197 -66.2109 127.1 -74.2676 121.68 -79.6875 C 116.26 -85.1074 108.008 -85.2539 102.051 -79.248 L 72.6074 -49.7559 C 64.7949 -41.9434 65.0879 -30.5176 72.4121 -23.1934 Z M 28.9062 9.13086 L 109.473 9.13086 C 120.264 9.13086 125.928 3.56445 125.928 -7.12891 L 125.928 -36.9141 L 114.746 -25.6348 L 114.746 -7.37305 C 114.746 -3.36914 112.695 -1.41602 108.887 -1.41602 L 29.4922 -1.41602 C 25.6836 -1.41602 23.6328 -3.36914 23.6328 -7.37305 L 23.6328 -61.5723 C 23.6328 -65.5273 25.6836 -67.5781 29.4922 -67.5781 L 77.1973 -67.5781 L 87.6953 -78.125 L 28.9062 -78.125 C 18.1641 -78.125 12.4512 -72.5098 12.4512 -61.8164 L 12.4512 -7.12891 C 12.4512 3.56445 18.1641 9.13086 28.9062 9.13086 Z"/>
  </g>
  <g id="Medium-M" transform="matrix(1 0 0 1 1678.12 1126)">
   <path d="M 71.4355 -22.8516 C 78.9062 -15.4297 90.332 -15.1855 98.1445 -22.998 L 121.436 -46.2891 C 122.607 -47.5586 122.607 -49.6094 121.387 -50.7324 C 120.117 -51.9043 118.311 -51.8555 117.041 -50.6348 L 93.9941 -27.5879 C 88.5254 -22.1191 80.9082 -22.168 75.9277 -27.2949 C 70.8496 -32.5195 70.7031 -39.9902 76.1719 -45.4102 L 105.713 -74.9023 C 109.18 -78.3691 114.014 -78.5645 116.992 -75.6348 C 120.02 -72.7051 119.775 -67.8711 116.26 -64.4043 L 87.4512 -35.4492 C 86.4258 -34.375 85.0098 -34.4238 84.082 -35.4492 C 83.0078 -36.4746 83.0078 -37.793 84.1309 -38.916 L 104.395 -59.1797 C 105.664 -60.4492 105.664 -62.207 104.541 -63.4277 C 103.369 -64.5996 101.562 -64.5996 100.293 -63.3301 L 79.8828 -42.9199 C 76.4648 -39.4531 76.4648 -34.1797 79.6387 -31.0547 C 83.0078 -27.7344 87.9883 -27.7344 91.5039 -31.2012 L 120.508 -60.2051 C 126.562 -66.3086 126.514 -74.3652 121.045 -79.834 C 115.576 -85.2051 107.324 -85.3516 101.367 -79.3457 L 71.6309 -49.6094 C 63.7695 -41.748 64.0625 -30.2246 71.4355 -22.8516 Z M 28.3203 9.0332 L 108.887 9.0332 C 119.336 9.0332 124.707 3.71094 124.707 -6.64062 L 124.707 -36.8652 L 114.99 -27.002 L 114.99 -6.93359 C 114.99 -2.53906 112.744 -0.341797 108.496 -0.341797 L 28.7109 -0.341797 C 24.4629 -0.341797 22.2168 -2.53906 22.2168 -6.93359 L 22.2168 -61.5723 C 22.2168 -65.9668 24.4629 -68.1641 28.7109 -68.1641 L 77.4414 -68.1641 L 86.7676 -77.5391 L 28.3203 -77.5391 C 17.8711 -77.5391 12.4512 -72.2168 12.4512 -61.8652 L 12.4512 -6.64062 C 12.4512 3.71094 17.8711 9.0332 28.3203 9.0332 Z"/>
  </g>
  <g id="Regular-M" transform="matrix(1 0 0 1 1382.1 1126)">
   <path d="M 70.166 -22.3633 C 77.7344 -14.8438 89.209 -14.6484 97.1191 -22.5098 L 121.094 -46.4844 C 122.217 -47.7051 122.217 -49.6094 121.045 -50.6836 C 119.824 -51.7578 118.164 -51.7578 116.943 -50.5859 L 93.1641 -26.8066 C 87.5488 -21.1914 79.6387 -21.1914 74.4141 -26.5625 C 69.0918 -32.0312 68.9941 -39.7949 74.6094 -45.4102 L 104.59 -75.293 C 108.301 -79.0039 113.33 -79.0527 116.455 -76.0254 C 119.531 -72.998 119.482 -67.9688 115.723 -64.209 L 86.5234 -34.8633 C 85.3516 -33.6426 83.7891 -33.6914 82.7148 -34.8633 C 81.4941 -36.0352 81.543 -37.5488 82.7637 -38.7695 L 103.418 -59.4238 C 104.639 -60.6445 104.59 -62.3047 103.516 -63.4277 C 102.393 -64.502 100.781 -64.5508 99.5605 -63.2812 L 78.7598 -42.5293 C 75.3418 -39.1113 75.3418 -33.8379 78.5156 -30.7129 C 81.8848 -27.4414 86.8164 -27.4414 90.2832 -30.9082 L 119.678 -60.2539 C 125.781 -66.4062 125.684 -74.4629 120.166 -79.9805 C 114.697 -85.3516 106.445 -85.498 100.488 -79.4922 L 70.3613 -49.3652 C 62.4512 -41.4551 62.6953 -29.834 70.166 -22.3633 Z M 27.5879 8.88672 L 108.057 8.88672 C 118.164 8.88672 123.193 3.95508 123.193 -6.00586 L 123.193 -36.8164 L 115.332 -28.8086 L 115.332 -6.39648 C 115.332 -1.41602 112.744 1.02539 107.959 1.02539 L 27.6855 1.02539 C 22.8516 1.02539 20.3125 -1.41602 20.3125 -6.39648 L 20.3125 -61.4746 C 20.3125 -66.4551 22.8516 -68.9453 27.6855 -68.9453 L 77.7832 -68.9453 L 85.5957 -76.7578 L 27.5879 -76.7578 C 17.4805 -76.7578 12.4512 -71.875 12.4512 -61.8652 L 12.4512 -6.00586 C 12.4512 3.95508 17.4805 8.88672 27.5879 8.88672 Z"/>
  </g>
  <g id="Light-M" transform="matrix(1 0 0 1 1086.68 1126)">
   <path d="M 71.6309 -25.0977 C 78.3203 -18.457 88.623 -17.8711 95.9473 -25.1953 L 118.555 -47.8516 C 119.482 -48.8281 119.482 -50.3418 118.555 -51.2207 C 117.578 -52.0508 116.211 -52.0996 115.234 -51.123 L 92.7246 -28.6133 C 87.3535 -23.2422 79.8828 -23.5352 75.0488 -28.4668 C 70.1172 -33.4961 69.7754 -40.918 75.1465 -46.1914 L 103.662 -74.6582 C 107.275 -78.2715 112.061 -77.9785 114.941 -75.1953 C 117.773 -72.3633 118.018 -67.5781 114.404 -63.9648 L 86.5723 -36.0352 C 85.3027 -34.7168 83.6914 -34.8633 82.5684 -35.9863 C 81.2988 -37.1094 81.2988 -38.8184 82.6172 -40.0879 L 102.588 -60.0586 C 103.662 -61.084 103.516 -62.4023 102.686 -63.3301 C 101.807 -64.209 100.537 -64.3066 99.4629 -63.2324 L 79.3945 -43.1152 C 76.2695 -39.9902 76.3672 -35.4004 79.1504 -32.666 C 82.1289 -29.7852 86.4746 -29.6387 89.6973 -32.8125 L 117.627 -60.7422 C 123.242 -66.3574 122.705 -73.6816 118.018 -78.418 C 113.281 -83.0566 105.859 -83.5938 100.342 -78.0273 L 71.7773 -49.4629 C 64.4531 -42.0898 64.9902 -31.6895 71.6309 -25.0977 Z M 26.3672 7.03125 L 106.836 7.03125 C 116.162 7.03125 120.752 2.53906 120.752 -6.68945 L 120.752 -37.5977 L 114.697 -31.4941 L 114.697 -6.98242 C 114.697 -1.51367 112.109 1.07422 106.787 1.07422 L 26.4648 1.07422 C 21.0938 1.07422 18.5059 -1.51367 18.5059 -6.98242 L 18.5059 -61.7188 C 18.5059 -67.1387 21.0938 -69.7266 26.4648 -69.7266 L 79.0039 -69.7266 L 84.9121 -75.7324 L 26.3672 -75.7324 C 17.0898 -75.7324 12.4512 -71.1914 12.4512 -61.9629 L 12.4512 -6.68945 C 12.4512 2.53906 17.0898 7.03125 26.3672 7.03125 Z"/>
  </g>
  <g id="Thin-M" transform="matrix(1 0 0 1 791.676 1126)">
   <path d="M 73.6328 -28.7598 C 79.1504 -23.291 87.8418 -22.168 94.4336 -28.7598 L 115.186 -49.5605 C 115.869 -50.293 115.82 -51.3184 115.234 -51.9043 C 114.648 -52.4414 113.672 -52.5391 112.939 -51.8066 L 92.1387 -31.0059 C 87.1094 -25.9766 80.2246 -26.6602 75.8789 -31.0059 C 71.4844 -35.4492 70.8496 -42.334 75.8301 -47.2656 L 102.393 -73.8281 C 105.957 -77.2949 110.4 -76.5625 112.939 -74.0723 C 115.43 -71.582 116.113 -67.1387 112.646 -63.5742 L 86.6699 -37.5488 C 85.3027 -36.1328 83.5449 -36.377 82.373 -37.4512 C 81.0547 -38.5742 81.0547 -40.4785 82.4219 -41.8457 L 101.514 -60.8887 C 102.344 -61.7188 102.1 -62.5977 101.611 -63.1836 C 101.025 -63.8184 100.146 -63.9648 99.3652 -63.0859 L 80.2246 -43.9453 C 77.5391 -41.1621 77.6367 -37.4023 79.9805 -35.2051 C 82.4219 -32.8613 86.084 -32.5195 88.8672 -35.3027 L 114.893 -61.3281 C 119.873 -66.3086 118.799 -72.6074 115.088 -76.3184 C 111.426 -80.0293 105.078 -81.0547 100.146 -76.0742 L 73.6816 -49.6094 C 67.0898 -42.9688 68.1152 -34.2285 73.6328 -28.7598 Z M 24.8047 4.63867 L 105.225 4.63867 C 113.428 4.63867 117.529 0.634766 117.529 -7.61719 L 117.529 -38.623 L 113.916 -34.9609 L 113.916 -7.66602 C 113.916 -1.61133 111.23 1.12305 105.176 1.12305 L 24.8047 1.12305 C 18.7988 1.12305 16.1133 -1.61133 16.1133 -7.66602 L 16.1133 -62.0117 C 16.1133 -68.0664 18.7988 -70.8008 24.8047 -70.8008 L 80.5176 -70.8008 L 84.0332 -74.3164 L 24.8047 -74.3164 C 16.5527 -74.3164 12.4512 -70.3125 12.4512 -62.0605 L 12.4512 -7.61719 C 12.4512 0.634766 16.5527 4.63867 24.8047 4.63867 Z"/>
  </g>
  <g id="Ultralight-M" transform="matrix(1 0 0 1 495.844 1126)">
   <path d="M 74.6094 -30.6152 C 79.541 -25.7324 87.4512 -24.3652 93.6523 -30.6152 L 113.477 -50.4883 C 114.014 -51.0254 113.965 -51.8066 113.525 -52.2461 C 113.135 -52.6855 112.402 -52.7832 111.768 -52.1973 L 91.8457 -32.2266 C 87.0117 -27.3926 80.4199 -28.2227 76.3184 -32.3242 C 72.168 -36.4746 71.3867 -43.0664 76.1719 -47.8516 L 101.807 -73.3887 C 105.273 -76.8066 109.57 -75.8301 111.914 -73.4863 C 114.209 -71.1914 115.137 -66.8945 111.719 -63.4277 L 86.7188 -38.3301 C 85.2539 -36.8652 83.4473 -37.1094 82.2754 -38.1836 C 80.957 -39.3066 80.9082 -41.3086 82.3242 -42.7734 L 100.977 -61.3281 C 101.66 -62.0117 101.416 -62.6953 101.025 -63.1348 C 100.635 -63.623 99.9512 -63.7695 99.2676 -63.0371 L 80.6641 -44.3848 C 78.125 -41.7969 78.3203 -38.4766 80.4199 -36.4746 C 82.5684 -34.4727 85.8887 -34.0332 88.4766 -36.6211 L 113.525 -61.6699 C 118.164 -66.3086 116.748 -72.0703 113.623 -75.2441 C 110.498 -78.4668 104.688 -79.7852 100 -75.0488 L 74.6582 -49.6582 C 68.4082 -43.4082 69.6777 -35.498 74.6094 -30.6152 Z M 23.9746 3.41797 L 104.395 3.41797 C 112.061 3.41797 115.918 -0.292969 115.918 -8.05664 L 115.918 -39.1602 L 113.525 -36.7676 L 113.525 -8.05664 C 113.525 -1.66016 110.791 1.12305 104.395 1.12305 L 23.9746 1.12305 C 17.627 1.12305 14.8438 -1.66016 14.8438 -8.05664 L 14.8438 -62.1582 C 14.8438 -68.5059 17.627 -71.3379 23.9746 -71.3379 L 81.3477 -71.3379 L 83.5938 -73.584 L 23.9746 -73.584 C 16.3086 -73.584 12.4512 -69.873 12.4512 -62.1094 L 12.4512 -8.05664 C 12.4512 -0.292969 16.3086 3.41797 23.9746 3.41797 Z"/>
  </g>
  <g id="Black-S" transform="matrix(1 0 0 1 2877.44 696)">
   <path d="M 60.4004 -27.1484 C 65.918 -21.6309 74.6094 -21.3379 80.5176 -27.2461 L 96.4355 -43.2129 C 97.5098 -44.3359 97.5098 -46.4355 96.3867 -47.5586 C 95.2148 -48.7305 93.3105 -48.6816 92.1387 -47.5098 L 76.3672 -31.7871 C 72.7051 -28.1738 67.9199 -28.3691 64.7461 -31.543 C 61.6211 -34.668 61.377 -39.4531 65.0879 -43.1641 L 86.8164 -64.9414 C 88.6719 -66.7969 91.6016 -67.4805 93.7012 -65.5273 C 95.752 -63.623 94.9219 -60.5957 93.0664 -58.7402 L 71.7285 -37.4023 C 71.3379 -37.0117 70.8496 -37.0117 70.5566 -37.3535 C 70.2637 -37.6953 70.2148 -38.1348 70.6055 -38.5254 L 85.2539 -53.1738 C 86.4258 -54.3457 86.4746 -56.1523 85.3516 -57.373 C 84.2285 -58.5938 82.2754 -58.4473 81.1035 -57.2754 L 66.4551 -42.5781 C 63.6719 -39.7949 63.8184 -35.5469 66.2598 -33.0566 C 68.9453 -30.2734 73.0469 -30.4199 75.7812 -33.1543 L 97.3145 -54.541 C 102.002 -59.2285 101.904 -65.4785 97.7539 -69.6777 C 93.6035 -73.877 87.1094 -74.0234 82.5195 -69.3848 L 60.5469 -47.2656 C 54.5898 -41.3086 54.8828 -32.666 60.4004 -27.1484 Z M 24.8047 0 L 88.0859 0 C 97.6074 0 103.125 -5.51758 103.125 -15.0391 L 103.125 -36.7188 L 88.9648 -22.4609 L 88.9648 -14.8926 C 88.9648 -13.4766 88.1836 -12.6953 86.7676 -12.6953 L 26.123 -12.6953 C 24.707 -12.6953 23.9258 -13.4766 23.9258 -14.8926 L 23.9258 -56.0547 C 23.9258 -57.4707 24.707 -58.3008 26.123 -58.3008 L 59.4238 -58.3008 L 72.1191 -70.9961 L 24.8047 -70.9961 C 15.2832 -70.9961 9.76562 -65.4785 9.76562 -55.957 L 9.76562 -15.0391 C 9.76562 -5.51758 15.2832 0 24.8047 0 Z"/>
  </g>
  <g id="Heavy-S" transform="matrix(1 0 0 1 2581.27 696)">
   <path d="M 58.9355 -26.3672 C 64.6484 -20.6543 73.584 -20.459 79.5898 -26.4648 L 96.3379 -43.2617 C 97.4121 -44.3848 97.4121 -46.3867 96.2891 -47.4609 C 95.166 -48.584 93.3594 -48.5352 92.2363 -47.4121 L 75.6348 -30.8594 C 71.7773 -27.002 66.6016 -27.1484 63.1348 -30.5664 C 59.7168 -34.0332 59.5703 -39.1602 63.4766 -43.0664 L 85.791 -65.4297 C 87.8906 -67.5293 91.0645 -68.1152 93.3105 -66.0156 C 95.459 -63.9648 94.7754 -60.6934 92.627 -58.5938 L 70.8008 -36.7188 C 70.2637 -36.1816 69.6289 -36.1816 69.2383 -36.6699 C 68.75 -37.1582 68.75 -37.7441 69.2871 -38.2324 L 84.3262 -53.3203 C 85.498 -54.4922 85.5469 -56.2012 84.4238 -57.373 C 83.3496 -58.5449 81.543 -58.3984 80.3711 -57.2754 L 65.2344 -42.1387 C 62.4512 -39.3555 62.5977 -35.0586 65.0391 -32.5195 C 67.7734 -29.7363 71.875 -29.8828 74.6582 -32.6172 L 96.7285 -54.541 C 101.465 -59.3262 101.416 -65.6738 97.168 -70.0195 C 92.8711 -74.2676 86.3281 -74.3652 81.6406 -69.6777 L 59.082 -47.0215 C 53.0273 -40.9668 53.2715 -32.0312 58.9355 -26.3672 Z M 24.1699 0.0488281 L 87.4023 0.0488281 C 96.6797 0.0488281 101.855 -5.12695 101.855 -14.3066 L 101.855 -36.5723 L 89.3555 -23.9746 L 89.3555 -14.3066 C 89.3555 -12.3535 88.2812 -11.3281 86.377 -11.3281 L 25.1953 -11.3281 C 23.291 -11.3281 22.2656 -12.3535 22.2656 -14.3066 L 22.2656 -55.957 C 22.2656 -57.9102 23.291 -58.9844 25.1953 -58.9844 L 59.668 -58.9844 L 70.9961 -70.3613 L 24.1699 -70.3613 C 14.9414 -70.3613 9.76562 -65.1855 9.76562 -56.0059 L 9.76562 -14.3066 C 9.76562 -5.12695 14.9414 0.0488281 24.1699 0.0488281 Z"/>
  </g>
  <g id="Bold-S" transform="matrix(1 0 0 1 2285.14 696)">
   <path d="M 57.3242 -25.4883 C 63.2324 -19.5801 72.4121 -19.4336 78.5645 -25.5859 L 96.2402 -43.3105 C 97.3145 -44.3848 97.3145 -46.2891 96.2402 -47.3145 C 95.0684 -48.3887 93.4082 -48.3398 92.2852 -47.2656 L 74.8047 -29.7852 C 70.7031 -25.6836 65.0879 -25.7324 61.377 -29.541 C 57.6172 -33.3496 57.5195 -38.8672 61.6211 -42.9688 L 84.6191 -65.918 C 87.0117 -68.3594 90.5273 -68.7988 92.8223 -66.5527 C 95.1172 -64.3555 94.6289 -60.791 92.1875 -58.3984 L 69.7754 -35.8887 C 69.0918 -35.2539 68.2617 -35.2539 67.7246 -35.8887 C 67.0898 -36.5234 67.0898 -37.3047 67.7734 -37.9395 L 83.3496 -53.5156 C 84.4238 -54.6387 84.4727 -56.25 83.4473 -57.373 C 82.373 -58.4473 80.7129 -58.3984 79.5898 -57.2754 L 63.916 -41.6016 C 61.1328 -38.8184 61.1816 -34.4727 63.7207 -31.9336 C 66.5039 -29.1504 70.6055 -29.248 73.4375 -32.0312 L 96.0449 -54.5898 C 100.879 -59.4238 100.928 -65.918 96.4844 -70.3613 C 92.0898 -74.7559 85.4004 -74.7559 80.6641 -70.0195 L 57.4707 -46.7773 C 51.2695 -40.5762 51.416 -31.3965 57.3242 -25.4883 Z M 23.4863 0.0976562 L 86.6699 0.0976562 C 95.6055 0.0976562 100.391 -4.6875 100.391 -13.5254 L 100.391 -36.4258 L 89.7949 -25.6836 L 89.7949 -13.623 C 89.7949 -11.084 88.4277 -9.76562 85.9863 -9.76562 L 24.2188 -9.76562 C 21.7285 -9.76562 20.3613 -11.084 20.3613 -13.623 L 20.3613 -55.8594 C 20.3613 -58.4473 21.7285 -59.7656 24.2188 -59.7656 L 59.9121 -59.7656 L 69.7266 -69.6289 L 23.4863 -69.6289 C 14.5996 -69.6289 9.76562 -64.8438 9.76562 -56.0059 L 9.76562 -13.5254 C 9.76562 -4.6875 14.5996 0.0976562 23.4863 0.0976562 Z"/>
  </g>
  <g id="Semibold-S" transform="matrix(1 0 0 1 1988.85 696)">
   <path d="M 56.2012 -24.8535 C 62.3047 -18.7988 71.582 -18.75 77.8809 -25 L 96.1914 -43.3594 C 97.2168 -44.4336 97.2168 -46.2402 96.1426 -47.2656 C 95.0684 -48.2422 93.457 -48.2422 92.334 -47.168 L 74.2188 -29.0527 C 69.9707 -24.8047 64.0625 -24.8047 60.1562 -28.7598 C 56.1523 -32.8613 56.1035 -38.6719 60.4004 -42.9199 L 83.7891 -66.3086 C 86.377 -68.8965 90.0879 -69.2871 92.5293 -66.9434 C 94.9219 -64.6484 94.4824 -60.8887 91.8457 -58.3008 L 69.043 -35.3516 C 68.3105 -34.6191 67.334 -34.6191 66.6992 -35.3516 C 65.9668 -36.084 65.9668 -36.9629 66.748 -37.7441 L 82.6172 -53.6621 C 83.7402 -54.7363 83.7402 -56.2988 82.7148 -57.373 C 81.6895 -58.3984 80.127 -58.3496 79.0527 -57.2754 L 62.9883 -41.2598 C 60.2051 -38.4766 60.2051 -34.082 62.793 -31.4941 C 65.625 -28.7109 69.7266 -28.8086 72.5586 -31.6406 L 95.5566 -54.5898 C 100.488 -59.5215 100.537 -66.1133 96.0449 -70.6055 C 91.5039 -75.0488 84.7656 -75.0488 79.9805 -70.2148 L 56.3477 -46.582 C 50.0488 -40.2832 50.1465 -30.9082 56.2012 -24.8535 Z M 22.998 0.146484 L 86.1816 0.146484 C 94.873 0.146484 99.4141 -4.3457 99.4141 -12.9883 L 99.4141 -36.2793 L 90.0879 -26.8555 L 90.0879 -13.1836 C 90.0879 -10.2051 88.5254 -8.69141 85.6934 -8.69141 L 23.4863 -8.69141 C 20.6543 -8.69141 19.0918 -10.2051 19.0918 -13.1836 L 19.0918 -55.8105 C 19.0918 -58.7891 20.6543 -60.3027 23.4863 -60.3027 L 60.0586 -60.3027 L 68.8965 -69.1406 L 22.998 -69.1406 C 14.3555 -69.1406 9.76562 -64.6484 9.76562 -56.0547 L 9.76562 -12.9883 C 9.76562 -4.3457 14.3555 0.146484 22.998 0.146484 Z"/>
  </g>
  <g id="Medium-S" transform="matrix(1 0 0 1 1692.45 696)">
   <path d="M 55.3223 -24.4141 C 61.5723 -18.2617 70.9961 -18.2129 77.3438 -24.5605 L 96.1426 -43.3594 C 97.168 -44.4336 97.168 -46.1914 96.0938 -47.168 C 95.0195 -48.1445 93.457 -48.1445 92.3828 -47.1191 L 73.7793 -28.5156 C 69.3848 -24.1211 63.2812 -24.0723 59.2285 -28.2227 C 55.0781 -32.4707 55.0293 -38.5254 59.4238 -42.8711 L 83.1543 -66.6016 C 85.9375 -69.3359 89.7949 -69.6289 92.2852 -67.2363 C 94.7266 -64.8438 94.4336 -60.9375 91.6016 -58.2031 L 68.5059 -34.9609 C 67.6758 -34.082 66.6504 -34.1309 65.8691 -34.9121 C 65.0879 -35.7422 65.0879 -36.7188 65.918 -37.5488 L 82.1289 -53.7598 C 83.1543 -54.7852 83.1543 -56.3477 82.2266 -57.373 C 81.2012 -58.3496 79.6875 -58.3496 78.6133 -57.2754 L 62.3047 -40.9668 C 59.5215 -38.1836 59.5215 -33.7891 62.1094 -31.2012 C 64.9414 -28.418 69.043 -28.5156 71.9238 -31.2988 L 95.2148 -54.5898 C 100.146 -59.5703 100.293 -66.2109 95.6543 -70.8008 C 91.1133 -75.293 84.3262 -75.2441 79.4434 -70.4102 L 55.5176 -46.4355 C 49.1699 -40.0879 49.2188 -30.5664 55.3223 -24.4141 Z M 22.6562 0.146484 L 85.791 0.146484 C 94.2871 0.146484 98.6328 -4.15039 98.6328 -12.5488 L 98.6328 -36.2305 L 90.332 -27.7832 L 90.332 -12.8418 C 90.332 -9.57031 88.5742 -7.91016 85.4492 -7.91016 L 22.9492 -7.91016 C 19.8242 -7.91016 18.0664 -9.57031 18.0664 -12.8418 L 18.0664 -55.7617 C 18.0664 -59.0332 19.8242 -60.7422 22.9492 -60.7422 L 60.2051 -60.7422 L 68.2129 -68.7988 L 22.6562 -68.7988 C 14.1602 -68.7988 9.76562 -64.4531 9.76562 -56.0547 L 9.76562 -12.5488 C 9.76562 -4.15039 14.1602 0.146484 22.6562 0.146484 Z"/>
  </g>
  <g id="Regular-S" transform="matrix(1 0 0 1 1396.13 696)">
   <path d="M 54.248 -23.8281 C 60.5957 -17.5293 70.166 -17.5293 76.6113 -23.9746 L 96.0938 -43.4082 C 97.0703 -44.4824 97.0703 -46.1426 96.0449 -47.1191 C 94.9707 -48.0469 93.5059 -47.998 92.4805 -47.0215 L 73.2422 -27.7832 C 68.6523 -23.2422 62.2559 -23.0957 58.0078 -27.4902 C 53.6133 -32.0312 53.6621 -38.2812 58.2031 -42.8223 L 82.373 -66.9434 C 85.3516 -69.9219 89.4043 -70.1172 91.9434 -67.5781 C 94.4824 -65.0879 94.2871 -61.0352 91.3086 -58.0566 L 67.7734 -34.4238 C 66.8945 -33.4473 65.7227 -33.4961 64.8926 -34.4238 C 63.916 -35.3027 63.9648 -36.4258 64.9414 -37.3535 L 81.3965 -53.8574 C 82.4707 -54.8828 82.4707 -56.3477 81.4941 -57.373 C 80.5176 -58.3008 79.1016 -58.3008 78.0762 -57.2754 L 61.377 -40.625 C 58.5938 -37.8418 58.5449 -33.3984 61.1816 -30.7617 C 64.0625 -27.9785 68.1641 -28.0762 71.0449 -30.9082 L 94.7266 -54.5898 C 99.7559 -59.668 99.9512 -66.3574 95.2148 -71.0449 C 90.5762 -75.6348 83.6914 -75.5371 78.8086 -70.6055 L 54.4434 -46.2402 C 47.9492 -39.7949 47.9492 -30.0781 54.248 -23.8281 Z M 22.168 0.195312 L 85.2539 0.195312 C 93.6035 0.195312 97.6562 -3.85742 97.6562 -12.0117 L 97.6562 -36.084 L 90.625 -28.9062 L 90.625 -12.4023 C 90.625 -8.69141 88.6719 -6.83594 85.1562 -6.83594 L 22.2656 -6.83594 C 18.75 -6.83594 16.7969 -8.69141 16.7969 -12.4023 L 16.7969 -55.7129 C 16.7969 -59.375 18.75 -61.2793 22.2656 -61.2793 L 60.4004 -61.2793 L 67.3828 -68.3105 L 22.168 -68.3105 C 13.916 -68.3105 9.76562 -64.2578 9.76562 -56.0547 L 9.76562 -12.0117 C 9.76562 -3.85742 13.916 0.195312 22.168 0.195312 Z"/>
  </g>
  <g id="Light-S" transform="matrix(1 0 0 1 1100.57 696)">
   <path d="M 55.5664 -26.2695 C 61.1328 -20.7031 69.6777 -20.4102 75.6348 -26.3672 L 93.8477 -44.5801 C 94.6777 -45.459 94.6289 -46.8262 93.8477 -47.5586 C 92.9688 -48.291 91.7969 -48.291 90.918 -47.4609 L 72.8027 -29.3457 C 68.5059 -25.0488 62.5 -25.1953 58.5449 -29.1992 C 54.541 -33.3008 54.3457 -39.2578 58.6426 -43.5059 L 81.543 -66.3574 C 84.4238 -69.2383 88.2812 -69.1406 90.625 -66.8457 C 92.9199 -64.5508 93.0176 -60.7422 90.1367 -57.8125 L 67.8223 -35.4004 C 66.8457 -34.4238 65.625 -34.4727 64.7461 -35.4004 C 63.7695 -36.2793 63.7695 -37.5488 64.7949 -38.5254 L 80.7129 -54.4434 C 81.5918 -55.3223 81.4941 -56.4941 80.7617 -57.2754 C 79.9805 -58.0566 78.8574 -58.1055 77.9785 -57.1777 L 61.9629 -41.1621 C 59.4238 -38.623 59.4238 -34.7656 61.7676 -32.4707 C 64.2578 -30.0781 67.8711 -30.0293 70.5078 -32.6172 L 92.9199 -55.0293 C 97.5098 -59.6191 97.2656 -65.6738 93.2617 -69.6289 C 89.3066 -73.584 83.1543 -73.8281 78.6621 -69.3359 L 55.7129 -46.3379 C 49.707 -40.3809 50.0488 -31.7383 55.5664 -26.2695 Z M 21.1426 -1.41602 L 84.1797 -1.41602 C 91.7969 -1.41602 95.5078 -5.07812 95.5078 -12.5977 L 95.5078 -36.8164 L 90.0879 -31.25 L 90.0879 -12.8906 C 90.0879 -8.78906 88.0859 -6.78711 84.1309 -6.78711 L 21.1914 -6.78711 C 17.2363 -6.78711 15.1855 -8.78906 15.1855 -12.8906 L 15.1855 -55.9082 C 15.1855 -59.9609 17.2363 -61.9629 21.1914 -61.9629 L 61.4258 -61.9629 L 66.7969 -67.334 L 21.1426 -67.334 C 13.5742 -67.334 9.76562 -63.6719 9.76562 -56.1523 L 9.76562 -12.5977 C 9.76562 -5.07812 13.5742 -1.41602 21.1426 -1.41602 Z"/>
  </g>
  <g id="Thin-S" transform="matrix(1 0 0 1 805.372 696)">
   <path d="M 57.2754 -29.4434 C 61.8652 -24.9512 68.9941 -24.1699 74.2676 -29.4922 L 90.8691 -46.1426 C 91.4551 -46.7285 91.4551 -47.6562 90.918 -48.1445 C 90.3809 -48.6328 89.5508 -48.7305 88.916 -48.0957 L 72.3145 -31.4941 C 68.3105 -27.4902 62.793 -27.9297 59.2773 -31.4453 C 55.7129 -35.0586 55.3223 -40.5273 59.2773 -44.4824 L 80.4688 -65.625 C 83.252 -68.3594 86.8164 -67.8711 88.8672 -65.8691 C 90.8691 -63.8672 91.3574 -60.3027 88.5742 -57.5195 L 67.8711 -36.7676 C 66.8457 -35.6934 65.4785 -35.8398 64.5508 -36.6699 C 63.5742 -37.5488 63.5254 -39.0137 64.5996 -40.0879 L 79.7363 -55.1758 C 80.4199 -55.8594 80.2734 -56.6406 79.834 -57.1777 C 79.2969 -57.7148 78.5156 -57.8125 77.8809 -57.0801 L 62.6953 -41.8945 C 60.498 -39.6484 60.5957 -36.5723 62.5 -34.7168 C 64.502 -32.8125 67.5293 -32.5684 69.7754 -34.8145 L 90.5273 -55.5664 C 94.5312 -59.6191 93.7988 -64.6973 90.7227 -67.8223 C 87.6465 -70.8984 82.4707 -71.6309 78.4668 -67.5781 L 57.373 -46.4355 C 52.0508 -41.1133 52.7832 -33.9355 57.2754 -29.4434 Z M 19.7266 -3.51562 L 82.7637 -3.51562 C 89.4043 -3.51562 92.7246 -6.73828 92.7246 -13.4277 L 92.7246 -37.6953 L 89.4043 -34.375 L 89.4043 -13.5254 C 89.4043 -8.88672 87.3047 -6.78711 82.7148 -6.78711 L 19.7754 -6.78711 C 15.1855 -6.78711 13.0859 -8.88672 13.0859 -13.5254 L 13.0859 -56.1523 C 13.0859 -60.791 15.1855 -62.8906 19.7754 -62.8906 L 62.793 -62.8906 L 66.0156 -66.1133 L 19.7266 -66.1133 C 13.0859 -66.1133 9.76562 -62.8906 9.76562 -56.25 L 9.76562 -13.4277 C 9.76562 -6.73828 13.0859 -3.51562 19.7266 -3.51562 Z"/>
  </g>
  <g id="Ultralight-S" transform="matrix(1 0 0 1 509.443 696)">
   <path d="M 58.2031 -31.1035 C 62.207 -27.1484 68.6523 -26.123 73.584 -31.1035 L 89.3555 -46.9238 C 89.8438 -47.4121 89.7949 -48.0957 89.4043 -48.4863 C 89.0137 -48.8281 88.3789 -48.9258 87.8906 -48.4375 L 72.0215 -32.5684 C 68.2129 -28.7109 62.9395 -29.2969 59.668 -32.6172 C 56.3477 -35.9375 55.8105 -41.1621 59.6191 -44.9707 L 79.9316 -65.2344 C 82.666 -67.9199 86.084 -67.2363 87.9395 -65.332 C 89.7949 -63.5254 90.4785 -60.1074 87.793 -57.373 L 67.9199 -37.4512 C 66.7969 -36.3281 65.3809 -36.5234 64.4531 -37.3535 C 63.4766 -38.2324 63.4277 -39.7461 64.502 -40.8691 L 79.248 -55.5664 C 79.834 -56.1523 79.6387 -56.7383 79.2969 -57.0801 C 78.9551 -57.5195 78.3691 -57.666 77.7832 -57.0312 L 63.0859 -42.2852 C 61.0352 -40.1855 61.1816 -37.5 62.8906 -35.8887 C 64.6484 -34.1797 67.334 -33.8867 69.4336 -35.9863 L 89.3066 -55.8594 C 93.0176 -59.5703 91.9922 -64.209 89.4043 -66.8457 C 86.8164 -69.4824 82.1289 -70.459 78.3691 -66.6992 L 58.252 -46.5332 C 53.2227 -41.5039 54.1504 -35.1074 58.2031 -31.1035 Z M 18.9941 -4.63867 L 81.9824 -4.63867 C 88.1836 -4.63867 91.2598 -7.61719 91.2598 -13.8184 L 91.2598 -38.1836 L 89.0625 -35.9863 L 89.0625 -13.8184 C 89.0625 -8.93555 86.9141 -6.73828 81.9824 -6.73828 L 18.9941 -6.73828 C 14.1113 -6.73828 11.9629 -8.93555 11.9629 -13.8184 L 11.9629 -56.25 C 11.9629 -61.1816 14.1113 -63.3789 18.9941 -63.3789 L 63.5254 -63.3789 L 65.625 -65.4785 L 18.9941 -65.4785 C 12.8418 -65.4785 9.76562 -62.5 9.76562 -56.2988 L 9.76562 -13.8184 C 9.76562 -7.61719 12.8418 -4.63867 18.9941 -4.63867 Z"/>
  </g>
 </g>
</svg>
