<?xml version="1.0" encoding="UTF-8"?>
<!--Generator: Apple Native CoreSVG 123-->
<!DOCTYPE svg
PUBLIC "-//W3C//DTD SVG 1.1//EN"
       "http://www.w3.org/Graphics/SVG/1.1/DTD/svg11.dtd">
<svg version="1.1" xmlns="http://www.w3.org/2000/svg" xmlns:xlink="http://www.w3.org/1999/xlink" width="3300" height="2200">
 <!--glyph: "uni100211.medium", point size: 100.000000, font version: "Version 15.0d7e11", template writer version: "5"-->
 <g id="Notes">
  <rect height="2200" id="artboard" style="fill:white;opacity:1" width="3300" x="0" y="0"/>
  <line id="" style="fill:none;stroke:black;opacity:1;stroke-width:0.5;" x1="263" x2="3036" y1="292" y2="292"/>
  <text style="stroke:none;fill:black;font-family:-apple-system,&quot;SF Pro Display&quot;,&quot;SF Pro Text&quot;,Helvetica,sans-serif;font-weight:bold;" transform="matrix(1 0 0 1 263 322)">Weight/Scale Variations</text>
  <text style="stroke:none;fill:black;font-family:-apple-system,&quot;SF Pro Display&quot;,&quot;SF Pro Text&quot;,Helvetica,sans-serif;text-anchor:middle;" transform="matrix(1 0 0 1 559.711 322)">Ultralight</text>
  <text style="stroke:none;fill:black;font-family:-apple-system,&quot;SF Pro Display&quot;,&quot;SF Pro Text&quot;,Helvetica,sans-serif;text-anchor:middle;" transform="matrix(1 0 0 1 856.422 322)">Thin</text>
  <text style="stroke:none;fill:black;font-family:-apple-system,&quot;SF Pro Display&quot;,&quot;SF Pro Text&quot;,Helvetica,sans-serif;text-anchor:middle;" transform="matrix(1 0 0 1 1153.13 322)">Light</text>
  <text style="stroke:none;fill:black;font-family:-apple-system,&quot;SF Pro Display&quot;,&quot;SF Pro Text&quot;,Helvetica,sans-serif;text-anchor:middle;" transform="matrix(1 0 0 1 1449.84 322)">Regular</text>
  <text style="stroke:none;fill:black;font-family:-apple-system,&quot;SF Pro Display&quot;,&quot;SF Pro Text&quot;,Helvetica,sans-serif;text-anchor:middle;" transform="matrix(1 0 0 1 1746.56 322)">Medium</text>
  <text style="stroke:none;fill:black;font-family:-apple-system,&quot;SF Pro Display&quot;,&quot;SF Pro Text&quot;,Helvetica,sans-serif;text-anchor:middle;" transform="matrix(1 0 0 1 2043.27 322)">Semibold</text>
  <text style="stroke:none;fill:black;font-family:-apple-system,&quot;SF Pro Display&quot;,&quot;SF Pro Text&quot;,Helvetica,sans-serif;text-anchor:middle;" transform="matrix(1 0 0 1 2339.98 322)">Bold</text>
  <text style="stroke:none;fill:black;font-family:-apple-system,&quot;SF Pro Display&quot;,&quot;SF Pro Text&quot;,Helvetica,sans-serif;text-anchor:middle;" transform="matrix(1 0 0 1 2636.69 322)">Heavy</text>
  <text style="stroke:none;fill:black;font-family:-apple-system,&quot;SF Pro Display&quot;,&quot;SF Pro Text&quot;,Helvetica,sans-serif;text-anchor:middle;" transform="matrix(1 0 0 1 2933.4 322)">Black</text>
  <line id="" style="fill:none;stroke:black;opacity:1;stroke-width:0.5;" x1="263" x2="3036" y1="1903" y2="1903"/>
  <g id="" transform="matrix(1 0 0 1 263 1933)">
   <path d="M 9.24805 0.830078 C 13.5547 0.830078 17.1387 -2.74414 17.1387 -7.05078 C 17.1387 -11.3574 13.5449 -14.9316 9.23828 -14.9316 C 4.94141 -14.9316 1.36719 -11.3574 1.36719 -7.05078 C 1.36719 -2.74414 4.95117 0.830078 9.24805 0.830078 Z M 9.24805 -0.654297 C 5.70312 -0.654297 2.87109 -3.49609 2.87109 -7.05078 C 2.87109 -10.6055 5.69336 -13.4473 9.23828 -13.4473 C 12.793 -13.4473 15.6348 -10.6055 15.6445 -7.05078 C 15.6543 -3.49609 12.8027 -0.654297 9.24805 -0.654297 Z M 9.22852 -3.42773 C 9.69727 -3.42773 9.9707 -3.74023 9.9707 -4.25781 L 9.9707 -6.31836 L 12.1973 -6.31836 C 12.6953 -6.31836 13.0371 -6.57227 13.0371 -7.04102 C 13.0371 -7.51953 12.7148 -7.7832 12.1973 -7.7832 L 9.9707 -7.7832 L 9.9707 -10.0098 C 9.9707 -10.5273 9.69727 -10.8496 9.22852 -10.8496 C 8.75977 -10.8496 8.50586 -10.5078 8.50586 -10.0098 L 8.50586 -7.7832 L 6.29883 -7.7832 C 5.78125 -7.7832 5.44922 -7.51953 5.44922 -7.04102 C 5.44922 -6.57227 5.80078 -6.31836 6.29883 -6.31836 L 8.50586 -6.31836 L 8.50586 -4.25781 C 8.50586 -3.75977 8.75977 -3.42773 9.22852 -3.42773 Z"/>
  </g>
  <g id="" transform="matrix(1 0 0 1 281.506 1933)">
   <path d="M 11.709 2.91016 C 17.1582 2.91016 21.6699 -1.60156 21.6699 -7.05078 C 21.6699 -12.4902 17.1484 -17.0117 11.6992 -17.0117 C 6.25977 -17.0117 1.74805 -12.4902 1.74805 -7.05078 C 1.74805 -1.60156 6.26953 2.91016 11.709 2.91016 Z M 11.709 1.25 C 7.09961 1.25 3.41797 -2.44141 3.41797 -7.05078 C 3.41797 -11.6504 7.08984 -15.3516 11.6992 -15.3516 C 16.3086 -15.3516 20 -11.6504 20.0098 -7.05078 C 20.0195 -2.44141 16.3184 1.25 11.709 1.25 Z M 11.6895 -2.41211 C 12.207 -2.41211 12.5195 -2.77344 12.5195 -3.33984 L 12.5195 -6.23047 L 15.5762 -6.23047 C 16.123 -6.23047 16.5039 -6.51367 16.5039 -7.03125 C 16.5039 -7.55859 16.1426 -7.86133 15.5762 -7.86133 L 12.5195 -7.86133 L 12.5195 -10.9277 C 12.5195 -11.5039 12.207 -11.8555 11.6895 -11.8555 C 11.1719 -11.8555 10.8789 -11.4844 10.8789 -10.9277 L 10.8789 -7.86133 L 7.83203 -7.86133 C 7.26562 -7.86133 6.89453 -7.55859 6.89453 -7.03125 C 6.89453 -6.51367 7.28516 -6.23047 7.83203 -6.23047 L 10.8789 -6.23047 L 10.8789 -3.33984 C 10.8789 -2.79297 11.1719 -2.41211 11.6895 -2.41211 Z"/>
  </g>
  <g id="" transform="matrix(1 0 0 1 304.924 1933)">
   <path d="M 14.9707 5.67383 C 21.9336 5.67383 27.6953 -0.078125 27.6953 -7.04102 C 27.6953 -14.0039 21.9238 -19.7559 14.9609 -19.7559 C 8.00781 -19.7559 2.25586 -14.0039 2.25586 -7.04102 C 2.25586 -0.078125 8.01758 5.67383 14.9707 5.67383 Z M 14.9707 3.85742 C 8.93555 3.85742 4.08203 -1.00586 4.08203 -7.04102 C 4.08203 -13.0762 8.92578 -17.9395 14.9609 -17.9395 C 21.0059 -17.9395 25.8594 -13.0762 25.8691 -7.04102 C 25.8789 -1.00586 21.0156 3.85742 14.9707 3.85742 Z M 14.9512 -1.06445 C 15.5176 -1.06445 15.8691 -1.45508 15.8691 -2.06055 L 15.8691 -6.13281 L 20.1074 -6.13281 C 20.6934 -6.13281 21.1133 -6.46484 21.1133 -7.02148 C 21.1133 -7.59766 20.7227 -7.93945 20.1074 -7.93945 L 15.8691 -7.93945 L 15.8691 -12.1875 C 15.8691 -12.8027 15.5176 -13.1934 14.9512 -13.1934 C 14.3848 -13.1934 14.0625 -12.7832 14.0625 -12.1875 L 14.0625 -7.93945 L 9.83398 -7.93945 C 9.21875 -7.93945 8.80859 -7.59766 8.80859 -7.02148 C 8.80859 -6.46484 9.23828 -6.13281 9.83398 -6.13281 L 14.0625 -6.13281 L 14.0625 -2.06055 C 14.0625 -1.47461 14.3848 -1.06445 14.9512 -1.06445 Z"/>
  </g>
  <text style="stroke:none;fill:black;font-family:-apple-system,&quot;SF Pro Display&quot;,&quot;SF Pro Text&quot;,Helvetica,sans-serif;font-weight:bold;" transform="matrix(1 0 0 1 263 1953)">Design Variations</text>
  <text style="stroke:none;fill:black;font-family:-apple-system,&quot;SF Pro Display&quot;,&quot;SF Pro Text&quot;,Helvetica,sans-serif;" transform="matrix(1 0 0 1 263 1971)">Symbols are supported in up to nine weights and three scales.</text>
  <text style="stroke:none;fill:black;font-family:-apple-system,&quot;SF Pro Display&quot;,&quot;SF Pro Text&quot;,Helvetica,sans-serif;" transform="matrix(1 0 0 1 263 1989)">For optimal layout with text and other symbols, vertically align</text>
  <text style="stroke:none;fill:black;font-family:-apple-system,&quot;SF Pro Display&quot;,&quot;SF Pro Text&quot;,Helvetica,sans-serif;" transform="matrix(1 0 0 1 263 2007)">symbols with the adjacent text.</text>
  <rect height="14" id="" style="fill:#00AEEF;stroke:none;opacity:0.4;" width="3" x="776" y="1919"/>
  <g id="" transform="matrix(1 0 0 1 779 1933)">
   <path d="M 10.5273 0 L 12.373 0 L 7.17773 -14.0918 L 5.43945 -14.0918 L 0.244141 0 L 2.08984 0 L 3.50586 -4.0332 L 9.11133 -4.0332 Z M 6.2793 -11.9531 L 6.33789 -11.9531 L 8.59375 -5.52734 L 4.02344 -5.52734 Z"/>
  </g>
  <rect height="14" id="" style="fill:#00AEEF;stroke:none;opacity:0.4;" width="3" x="791.617" y="1919"/>
  <text style="stroke:none;fill:black;font-family:-apple-system,&quot;SF Pro Display&quot;,&quot;SF Pro Text&quot;,Helvetica,sans-serif;font-weight:bold;" transform="matrix(1 0 0 1 776 1953)">Margins</text>
  <text style="stroke:none;fill:black;font-family:-apple-system,&quot;SF Pro Display&quot;,&quot;SF Pro Text&quot;,Helvetica,sans-serif;" transform="matrix(1 0 0 1 776 1971)">Leading and trailing margins on the left and right side of each symbol</text>
  <text style="stroke:none;fill:black;font-family:-apple-system,&quot;SF Pro Display&quot;,&quot;SF Pro Text&quot;,Helvetica,sans-serif;" transform="matrix(1 0 0 1 776 1989)">can be adjusted by modifying the width of the blue rectangles.</text>
  <text style="stroke:none;fill:black;font-family:-apple-system,&quot;SF Pro Display&quot;,&quot;SF Pro Text&quot;,Helvetica,sans-serif;" transform="matrix(1 0 0 1 776 2007)">Modifications are automatically applied proportionally to all</text>
  <text style="stroke:none;fill:black;font-family:-apple-system,&quot;SF Pro Display&quot;,&quot;SF Pro Text&quot;,Helvetica,sans-serif;" transform="matrix(1 0 0 1 776 2025)">scales and weights.</text>
  <g id="" transform="matrix(1 0 0 1 1289 1933)">
   <path d="M 2.83203 3.11523 L 4.375 4.6582 C 5.22461 5.48828 6.19141 5.41992 7.06055 4.46289 L 17.2754 -6.66016 C 17.7051 -6.36719 18.0957 -6.37695 18.5645 -6.47461 L 19.6094 -6.68945 L 20.3027 -5.99609 L 20.2539 -5.47852 C 20.1855 -4.95117 20.3516 -4.53125 20.8496 -4.0332 L 21.6602 -3.22266 C 22.168 -2.71484 22.8223 -2.68555 23.3008 -3.16406 L 26.5527 -6.41602 C 27.0312 -6.89453 27.0117 -7.54883 26.5039 -8.05664 L 25.6836 -8.87695 C 25.1855 -9.375 24.7754 -9.55078 24.2383 -9.47266 L 23.7109 -9.41406 L 23.0566 -10.0781 L 23.3398 -11.2207 C 23.4863 -11.7871 23.3398 -12.2559 22.7148 -12.8613 L 20.3027 -15.2539 C 16.7578 -18.7793 12.2266 -18.6719 9.11133 -15.5371 C 8.69141 -15.1074 8.64258 -14.5215 8.91602 -14.0918 C 9.15039 -13.7207 9.62891 -13.4961 10.2734 -13.6621 C 11.7871 -14.043 13.3008 -13.9258 14.7852 -12.9199 L 14.1602 -11.3379 C 13.9258 -10.752 13.9453 -10.2734 14.1797 -9.83398 L 3.01758 0.439453 C 2.08008 1.30859 1.97266 2.25586 2.83203 3.11523 Z M 10.6738 -15.1465 C 13.3398 -17.1387 16.6504 -16.8262 19.0527 -14.4141 L 21.6797 -11.8066 C 21.9141 -11.5723 21.9434 -11.3867 21.8848 -11.0938 L 21.5039 -9.53125 L 23.0762 -7.95898 L 24.043 -8.04688 C 24.3262 -8.07617 24.4141 -8.05664 24.6387 -7.83203 L 25.2637 -7.20703 L 22.5098 -4.46289 L 21.8848 -5.07812 C 21.6602 -5.30273 21.6406 -5.40039 21.6699 -5.68359 L 21.7578 -6.64062 L 20.1953 -8.20312 L 18.5742 -7.89062 C 18.291 -7.83203 18.1445 -7.83203 17.9102 -8.07617 L 15.7324 -10.2539 C 15.5078 -10.4883 15.4785 -10.625 15.6055 -10.9473 L 16.5527 -13.2227 C 14.9512 -14.7559 12.8418 -15.6055 10.8008 -14.9512 C 10.7129 -14.9219 10.6445 -14.9414 10.6152 -14.9805 C 10.5859 -15.0293 10.5859 -15.0781 10.6738 -15.1465 Z M 4.10156 2.41211 C 3.61328 1.91406 3.78906 1.61133 4.12109 1.30859 L 15.0781 -8.80859 L 16.3086 -7.57812 L 6.15234 3.34961 C 5.84961 3.68164 5.46875 3.7793 5.06836 3.37891 Z"/>
  </g>
  <text style="stroke:none;fill:black;font-family:-apple-system,&quot;SF Pro Display&quot;,&quot;SF Pro Text&quot;,Helvetica,sans-serif;font-weight:bold;" transform="matrix(1 0 0 1 1289 1953)">Exporting</text>
  <text style="stroke:none;fill:black;font-family:-apple-system,&quot;SF Pro Display&quot;,&quot;SF Pro Text&quot;,Helvetica,sans-serif;" transform="matrix(1 0 0 1 1289 1971)">Symbols should be outlined when exporting to ensure the</text>
  <text style="stroke:none;fill:black;font-family:-apple-system,&quot;SF Pro Display&quot;,&quot;SF Pro Text&quot;,Helvetica,sans-serif;" transform="matrix(1 0 0 1 1289 1989)">design is preserved when submitting to Xcode.</text>
  <text id="template-version" style="stroke:none;fill:black;font-family:-apple-system,&quot;SF Pro Display&quot;,&quot;SF Pro Text&quot;,Helvetica,sans-serif;text-anchor:end;" transform="matrix(1 0 0 1 3036 1933)">Template v.1.0</text>
  <text style="stroke:none;fill:black;font-family:-apple-system,&quot;SF Pro Display&quot;,&quot;SF Pro Text&quot;,Helvetica,sans-serif;text-anchor:end;" transform="matrix(1 0 0 1 3036 1951)">Generated from trash</text>
  <text style="stroke:none;fill:black;font-family:-apple-system,&quot;SF Pro Display&quot;,&quot;SF Pro Text&quot;,Helvetica,sans-serif;text-anchor:end;" transform="matrix(1 0 0 1 3036 1969)">Typeset at 100 points</text>
  <text style="stroke:none;fill:black;font-family:-apple-system,&quot;SF Pro Display&quot;,&quot;SF Pro Text&quot;,Helvetica,sans-serif;" transform="matrix(1 0 0 1 263 726)">Small</text>
  <text style="stroke:none;fill:black;font-family:-apple-system,&quot;SF Pro Display&quot;,&quot;SF Pro Text&quot;,Helvetica,sans-serif;" transform="matrix(1 0 0 1 263 1156)">Medium</text>
  <text style="stroke:none;fill:black;font-family:-apple-system,&quot;SF Pro Display&quot;,&quot;SF Pro Text&quot;,Helvetica,sans-serif;" transform="matrix(1 0 0 1 263 1586)">Large</text>
 </g>
 <g id="Guides">
  <g id="H-reference" style="fill:#27AAE1;stroke:none;" transform="matrix(1 0 0 1 339 696)">
   <path d="M 54.9316 0 L 57.666 0 L 30.5664 -70.459 L 28.0762 -70.459 L 0.976562 0 L 3.66211 0 L 12.9395 -24.4629 L 45.7031 -24.4629 Z M 29.1992 -67.0898 L 29.4434 -67.0898 L 44.8242 -26.709 L 13.8184 -26.709 Z"/>
  </g>
  <line id="Baseline-S" style="fill:none;stroke:#27AAE1;opacity:1;stroke-width:0.577;" x1="263" x2="3036" y1="696" y2="696"/>
  <line id="Capline-S" style="fill:none;stroke:#27AAE1;opacity:1;stroke-width:0.577;" x1="263" x2="3036" y1="625.541" y2="625.541"/>
  <g id="H-reference" style="fill:#27AAE1;stroke:none;" transform="matrix(1 0 0 1 339 1126)">
   <path d="M 54.9316 0 L 57.666 0 L 30.5664 -70.459 L 28.0762 -70.459 L 0.976562 0 L 3.66211 0 L 12.9395 -24.4629 L 45.7031 -24.4629 Z M 29.1992 -67.0898 L 29.4434 -67.0898 L 44.8242 -26.709 L 13.8184 -26.709 Z"/>
  </g>
  <line id="Baseline-M" style="fill:none;stroke:#27AAE1;opacity:1;stroke-width:0.577;" x1="263" x2="3036" y1="1126" y2="1126"/>
  <line id="Capline-M" style="fill:none;stroke:#27AAE1;opacity:1;stroke-width:0.577;" x1="263" x2="3036" y1="1055.54" y2="1055.54"/>
  <g id="H-reference" style="fill:#27AAE1;stroke:none;" transform="matrix(1 0 0 1 339 1556)">
   <path d="M 54.9316 0 L 57.666 0 L 30.5664 -70.459 L 28.0762 -70.459 L 0.976562 0 L 3.66211 0 L 12.9395 -24.4629 L 45.7031 -24.4629 Z M 29.1992 -67.0898 L 29.4434 -67.0898 L 44.8242 -26.709 L 13.8184 -26.709 Z"/>
  </g>
  <line id="Baseline-L" style="fill:none;stroke:#27AAE1;opacity:1;stroke-width:0.577;" x1="263" x2="3036" y1="1556" y2="1556"/>
  <line id="Capline-L" style="fill:none;stroke:#27AAE1;opacity:1;stroke-width:0.577;" x1="263" x2="3036" y1="1485.54" y2="1485.54"/>
  <rect height="119.336" id="left-margin" style="fill:#00AEEF;stroke:none;opacity:0.4;" width="7.4707" x="1395.11" y="1030.79"/>
  <rect height="119.336" id="right-margin" style="fill:#00AEEF;stroke:none;opacity:0.4;" width="7.4707" x="1497.11" y="1030.79"/>
 </g>
 <g id="Symbols">
  <g id="Black-L" transform="matrix(1 0 0 1 2857.69 1556)">
   <path d="M 124.463 14.3555 L 128.369 -73.1445 L 133.105 -73.1445 C 138.086 -73.1445 141.748 -76.6113 141.748 -81.5918 C 141.748 -86.4746 138.086 -89.8926 133.105 -89.8926 L 107.666 -89.8926 L 107.666 -95.6543 C 107.666 -107.422 99.2188 -115.137 85.3027 -115.137 L 66.0645 -115.137 C 52.1973 -115.137 43.7012 -107.422 43.7012 -95.6543 L 43.7012 -89.8926 L 18.3105 -89.8926 C 13.3301 -89.8926 9.66797 -86.4746 9.66797 -81.5918 C 9.66797 -76.6113 13.3301 -73.1445 18.3105 -73.1445 L 23.0469 -73.1445 L 26.9531 14.3555 C 27.4902 26.416 34.4727 32.4707 46.4844 32.4707 L 104.98 32.4707 C 116.895 32.4707 123.926 26.3672 124.463 14.3555 Z M 61.2793 -95.2148 C 61.3281 -98.2422 63.5742 -100.293 66.8457 -100.293 L 84.5215 -100.293 C 87.793 -100.293 90.0391 -98.2422 90.1367 -95.2148 L 90.2344 -89.8926 L 61.1816 -89.8926 Z M 49.0234 15.3809 C 45.9473 15.3809 44.2383 13.3789 44.0918 9.66797 L 40.2832 -73.1445 L 111.035 -73.1445 L 107.324 9.66797 C 107.178 13.3789 105.518 15.3809 102.393 15.3809 Z M 93.9453 7.37305 C 97.1191 7.37305 99.5117 4.6875 99.6582 0.976562 L 101.465 -58.4961 C 101.611 -62.1094 99.1211 -64.9414 95.9473 -64.9414 C 92.7734 -64.9414 90.1855 -62.0605 90.0391 -58.5449 L 88.2324 0.878906 C 88.0859 4.49219 90.625 7.37305 93.9453 7.37305 Z M 57.4707 7.37305 C 60.791 7.37305 63.3301 4.49219 63.1836 0.878906 L 61.377 -58.5449 C 61.2305 -62.0605 58.6426 -64.9414 55.4688 -64.9414 C 52.2949 -64.9414 49.8047 -62.1094 49.9512 -58.4961 L 51.7578 0.976562 C 51.9043 4.6875 54.2969 7.37305 57.4707 7.37305 Z M 75.7324 7.37305 C 78.8086 7.37305 81.3965 4.49219 81.3965 1.02539 L 81.3965 -58.5938 C 81.3965 -62.0605 78.8086 -64.9414 75.7324 -64.9414 C 72.6074 -64.9414 70.0195 -62.0605 70.0195 -58.5938 L 70.0195 1.02539 C 70.0195 4.49219 72.6074 7.37305 75.7324 7.37305 Z"/>
  </g>
  <g id="Heavy-L" transform="matrix(1 0 0 1 2562.27 1556)">
   <path d="M 121.924 14.502 L 125.977 -74.3164 L 131.592 -74.3164 C 135.938 -74.3164 139.16 -77.3926 139.16 -81.7383 C 139.16 -85.9863 135.938 -89.0625 131.592 -89.0625 L 105.225 -89.0625 L 105.225 -95.752 C 105.225 -106.738 97.3633 -113.965 84.5215 -113.965 L 64.209 -113.965 C 51.416 -113.965 43.5547 -106.738 43.5547 -95.752 L 43.5547 -89.0625 L 17.2363 -89.0625 C 12.9395 -89.0625 9.66797 -85.9863 9.66797 -81.7383 C 9.66797 -77.3926 12.9395 -74.3164 17.2363 -74.3164 L 22.8516 -74.3164 L 26.9043 14.5508 C 27.4414 25.7324 34.1309 31.6895 45.3125 31.6895 L 103.516 31.6895 C 114.648 31.6895 121.387 25.6836 121.924 14.502 Z M 58.9844 -95.2637 C 59.0332 -98.5352 61.4746 -100.732 64.9902 -100.732 L 83.7891 -100.732 C 87.3535 -100.732 89.7461 -98.5352 89.7949 -95.2637 L 89.8926 -89.0625 L 58.9355 -89.0625 Z M 47.4121 16.6992 C 44.1406 16.6992 42.1387 14.4531 41.9922 10.7422 L 38.0371 -74.3164 L 110.693 -74.3164 L 106.836 10.7422 C 106.689 14.502 104.688 16.6992 101.367 16.6992 Z M 92.7734 7.8125 C 95.6055 7.8125 97.8027 5.37109 97.9004 2.09961 L 99.7559 -59.375 C 99.9023 -62.5977 97.6562 -65.1367 94.7754 -65.1367 C 91.9434 -65.1367 89.6484 -62.5977 89.502 -59.4238 L 87.6465 1.95312 C 87.5488 5.22461 89.7949 7.8125 92.7734 7.8125 Z M 56.0547 7.8125 C 59.0332 7.8125 61.2793 5.22461 61.1816 1.95312 L 59.3262 -59.4238 C 59.1797 -62.5977 56.8848 -65.1367 54.0527 -65.1367 C 51.1719 -65.1367 48.9258 -62.5977 49.0723 -59.375 L 50.9277 2.09961 C 51.0254 5.37109 53.1738 7.8125 56.0547 7.8125 Z M 74.4141 7.8125 C 77.1973 7.8125 79.541 5.22461 79.541 2.09961 L 79.541 -59.4727 C 79.541 -62.5977 77.1973 -65.1367 74.4141 -65.1367 C 71.6309 -65.1367 69.2871 -62.5977 69.2871 -59.4727 L 69.2871 2.09961 C 69.2871 5.22461 71.6309 7.8125 74.4141 7.8125 Z"/>
  </g>
  <g id="Bold-L" transform="matrix(1 0 0 1 2267.03 1556)">
   <path d="M 119.043 14.6973 L 123.291 -75.6348 L 129.883 -75.6348 C 133.496 -75.6348 136.23 -78.2715 136.23 -81.8848 C 136.23 -85.4492 133.496 -88.0859 129.883 -88.0859 L 102.49 -88.0859 L 102.49 -95.8008 C 102.49 -106.006 95.2637 -112.695 83.6426 -112.695 L 62.1582 -112.695 C 50.5371 -112.695 43.3594 -106.006 43.3594 -95.8008 L 43.3594 -88.0859 L 16.0156 -88.0859 C 12.4512 -88.0859 9.66797 -85.4004 9.66797 -81.8848 C 9.66797 -78.2715 12.4512 -75.6348 16.0156 -75.6348 L 22.6562 -75.6348 L 26.8555 14.7461 C 27.3438 24.9512 33.7402 30.8105 43.9941 30.8105 L 101.953 30.8105 C 112.109 30.8105 118.555 24.9023 119.043 14.6973 Z M 56.4453 -95.3613 C 56.4941 -98.8281 59.082 -101.27 62.8418 -101.27 L 83.0078 -101.27 C 86.7676 -101.27 89.4043 -98.8281 89.4043 -95.3613 L 89.4531 -88.0859 L 56.3965 -88.0859 Z M 45.6543 18.2129 C 42.1875 18.2129 39.7949 15.7227 39.6484 11.9141 L 35.498 -75.6348 L 110.303 -75.6348 L 106.299 11.9141 C 106.104 15.7227 103.809 18.2129 100.244 18.2129 Z M 91.4551 8.25195 C 93.9453 8.25195 95.8496 6.15234 95.9473 3.32031 L 97.8516 -60.3516 C 97.9492 -63.1348 95.9961 -65.3809 93.457 -65.3809 C 91.0156 -65.3809 89.0137 -63.1348 88.916 -60.4004 L 87.0117 3.22266 C 86.9141 6.00586 88.8672 8.25195 91.4551 8.25195 Z M 54.4434 8.25195 C 57.0312 8.25195 59.0332 6.00586 58.9355 3.22266 L 56.9824 -60.4004 C 56.8848 -63.1348 54.8828 -65.3809 52.4414 -65.3809 C 49.9023 -65.3809 47.9492 -63.1836 48.0469 -60.3516 L 50 3.32031 C 50.0977 6.15234 51.9531 8.25195 54.4434 8.25195 Z M 72.9492 8.25195 C 75.3906 8.25195 77.4902 6.00586 77.4902 3.32031 L 77.4902 -60.4004 C 77.4902 -63.1348 75.4395 -65.3809 72.9492 -65.3809 C 70.5078 -65.3809 68.457 -63.1348 68.457 -60.4004 L 68.457 3.32031 C 68.457 6.00586 70.5078 8.25195 72.9492 8.25195 Z"/>
  </g>
  <g id="Semibold-L" transform="matrix(1 0 0 1 1971.32 1556)">
   <path d="M 117.09 14.8438 L 121.436 -76.5625 L 128.76 -76.5625 C 131.836 -76.5625 134.229 -78.9062 134.229 -81.9824 C 134.229 -85.0586 131.836 -87.4023 128.76 -87.4023 L 100.586 -87.4023 L 100.586 -95.8496 C 100.586 -105.469 93.8477 -111.816 83.0566 -111.816 L 60.7422 -111.816 C 49.9512 -111.816 43.2617 -105.469 43.2617 -95.8496 L 43.2617 -87.4023 L 15.1855 -87.4023 C 12.1094 -87.4023 9.66797 -85.0098 9.66797 -81.9824 C 9.66797 -78.9062 12.1094 -76.5625 15.1855 -76.5625 L 22.5098 -76.5625 L 26.8555 14.8438 C 27.2949 24.4141 33.4961 30.1758 43.1152 30.1758 L 100.83 30.1758 C 110.4 30.1758 116.602 24.3652 117.09 14.8438 Z M 54.6875 -95.4102 C 54.7363 -99.0234 57.4219 -101.66 61.377 -101.66 L 82.4219 -101.66 C 86.4258 -101.66 89.1602 -99.0234 89.1602 -95.4102 L 89.209 -87.4023 L 54.6875 -87.4023 Z M 44.3848 19.2383 C 40.8203 19.2383 38.2324 16.5527 38.0371 12.7441 L 33.7402 -76.5625 L 110.059 -76.5625 L 105.908 12.7441 C 105.713 16.6016 103.174 19.2383 99.4629 19.2383 Z M 90.5762 8.59375 C 92.8223 8.59375 94.4824 6.73828 94.5801 4.15039 L 96.5332 -61.0352 C 96.582 -63.5254 94.873 -65.5273 92.5781 -65.5273 C 90.3809 -65.5273 88.5742 -63.5254 88.5254 -61.084 L 86.5723 4.05273 C 86.4746 6.5918 88.2324 8.59375 90.5762 8.59375 Z M 53.3691 8.59375 C 55.6641 8.59375 57.4219 6.5918 57.373 4.05273 L 55.4199 -61.084 C 55.3223 -63.5254 53.5156 -65.5273 51.3184 -65.5273 C 49.0234 -65.5273 47.3145 -63.5742 47.3633 -61.0352 L 49.3652 4.15039 C 49.4141 6.73828 51.0742 8.59375 53.3691 8.59375 Z M 71.9727 8.59375 C 74.1699 8.59375 76.0254 6.5918 76.0254 4.15039 L 76.0254 -61.084 C 76.0254 -63.5254 74.2188 -65.5273 71.9727 -65.5273 C 69.7266 -65.5273 67.8711 -63.5254 67.8711 -61.084 L 67.8711 4.15039 C 67.8711 6.5918 69.7266 8.59375 71.9727 8.59375 Z"/>
  </g>
  <g id="Medium-L" transform="matrix(1 0 0 1 1675.39 1556)">
   <path d="M 115.576 14.8926 L 120.02 -77.2461 L 127.832 -77.2461 C 130.566 -77.2461 132.666 -79.3457 132.666 -82.0801 C 132.666 -84.7656 130.566 -86.9141 127.832 -86.9141 L 99.1211 -86.9141 L 99.1211 -95.8984 C 99.1211 -105.078 92.7246 -111.133 82.6172 -111.133 L 59.668 -111.133 C 49.5117 -111.133 43.1641 -105.078 43.1641 -95.8984 L 43.1641 -86.9141 L 14.5508 -86.9141 C 11.8652 -86.9141 9.66797 -84.7656 9.66797 -82.0801 C 9.66797 -79.3457 11.8652 -77.2461 14.5508 -77.2461 L 22.4121 -77.2461 L 26.8066 14.9414 C 27.2461 24.0234 33.252 29.7363 42.4316 29.7363 L 100 29.7363 C 109.082 29.7363 115.137 23.9746 115.576 14.8926 Z M 53.3691 -95.4102 C 53.3691 -99.2188 56.1523 -101.904 60.3027 -101.904 L 82.0312 -101.904 C 86.1328 -101.904 88.9648 -99.2188 88.9648 -95.4102 L 88.9648 -86.9141 L 53.3691 -86.9141 Z M 43.457 20.0195 C 39.7461 20.0195 37.0117 17.1875 36.8164 13.3301 L 32.373 -77.2461 L 109.814 -77.2461 L 105.615 13.3301 C 105.42 17.2363 102.686 20.0195 98.877 20.0195 Z M 89.8926 8.83789 C 91.9434 8.83789 93.5059 7.12891 93.5547 4.78516 L 95.5078 -61.5234 C 95.5566 -63.8184 93.9941 -65.625 91.8945 -65.625 C 89.8926 -65.625 88.2812 -63.8184 88.1836 -61.5723 L 86.2305 4.6875 C 86.1816 6.98242 87.7441 8.83789 89.8926 8.83789 Z M 52.4902 8.83789 C 54.6387 8.83789 56.25 6.98242 56.1523 4.6875 L 54.1992 -61.5723 C 54.1016 -63.8184 52.4414 -65.625 50.4883 -65.625 C 48.3887 -65.625 46.8262 -63.8672 46.875 -61.5234 L 48.8281 4.78516 C 48.9258 7.12891 50.4395 8.83789 52.4902 8.83789 Z M 71.1914 8.83789 C 73.2422 8.83789 74.9512 6.98242 74.9512 4.78516 L 74.9512 -61.5723 C 74.9512 -63.8184 73.2422 -65.625 71.1914 -65.625 C 69.1895 -65.625 67.4805 -63.8184 67.4805 -61.5723 L 67.4805 4.78516 C 67.4805 6.98242 69.1895 8.83789 71.1914 8.83789 Z"/>
  </g>
  <g id="Regular-L" transform="matrix(1 0 0 1 1379.65 1556)">
   <path d="M 113.623 15.0391 L 118.164 -78.125 L 126.709 -78.125 C 128.906 -78.125 130.713 -79.9805 130.713 -82.1777 C 130.713 -84.375 128.906 -86.2305 126.709 -86.2305 L 97.2656 -86.2305 L 97.2656 -95.9473 C 97.2656 -104.541 91.3086 -110.254 82.0312 -110.254 L 58.252 -110.254 C 48.9258 -110.254 43.0664 -104.541 43.0664 -95.9473 L 43.0664 -86.2305 L 13.7207 -86.2305 C 11.5234 -86.2305 9.66797 -84.375 9.66797 -82.1777 C 9.66797 -79.9805 11.5234 -78.125 13.7207 -78.125 L 22.2656 -78.125 L 26.8066 15.0879 C 27.1973 23.4863 33.0078 29.1016 41.5527 29.1016 L 98.9258 29.1016 C 107.324 29.1016 113.232 23.4375 113.623 15.0391 Z M 51.6602 -95.459 C 51.6602 -99.4141 54.541 -102.246 58.8379 -102.246 L 81.4453 -102.246 C 85.791 -102.246 88.7207 -99.4141 88.7207 -95.459 L 88.7207 -86.2305 L 51.6602 -86.2305 Z M 42.2363 20.9961 C 38.4277 20.9961 35.4004 18.0664 35.2051 14.1602 L 30.6641 -78.125 L 109.57 -78.125 L 105.225 14.1602 C 105.029 18.1152 102.051 20.9961 98.1445 20.9961 Z M 88.9648 9.17969 C 90.8203 9.17969 92.1875 7.66602 92.2363 5.61523 L 94.1895 -62.207 C 94.2383 -64.209 92.8711 -65.7715 91.0156 -65.7715 C 89.2578 -65.7715 87.8418 -64.209 87.793 -62.2559 L 85.791 5.51758 C 85.7422 7.51953 87.1094 9.17969 88.9648 9.17969 Z M 51.416 9.17969 C 53.2715 9.17969 54.6875 7.51953 54.6387 5.51758 L 52.5879 -62.2559 C 52.5391 -64.209 51.0742 -65.7715 49.3652 -65.7715 C 47.5098 -65.7715 46.1426 -64.2578 46.1914 -62.207 L 48.1934 5.61523 C 48.2422 7.66602 49.6094 9.17969 51.416 9.17969 Z M 70.2148 9.17969 C 72.0215 9.17969 73.5352 7.51953 73.5352 5.61523 L 73.5352 -62.207 C 73.5352 -64.209 72.0215 -65.7715 70.2148 -65.7715 C 68.4082 -65.7715 66.8945 -64.209 66.8945 -62.207 L 66.8945 5.61523 C 66.8945 7.51953 68.4082 9.17969 70.2148 9.17969 Z"/>
  </g>
  <g id="Light-L" transform="matrix(1 0 0 1 1083.6 1556)">
   <path d="M 111.719 15.8203 L 116.504 -79.4434 L 126.318 -79.4434 C 128.076 -79.4434 129.395 -80.8105 129.395 -82.5195 C 129.395 -84.2285 128.076 -85.6445 126.318 -85.6445 L 95.9961 -85.6445 L 95.9961 -95.752 C 95.9961 -103.711 90.2832 -109.277 81.4941 -109.277 L 57.5195 -109.277 C 48.7305 -109.277 43.0664 -103.711 43.0664 -95.752 L 43.0664 -85.6445 L 12.793 -85.6445 C 11.084 -85.6445 9.66797 -84.1797 9.66797 -82.5195 C 9.66797 -80.8105 11.084 -79.4434 12.793 -79.4434 L 22.6562 -79.4434 L 27.4414 15.8691 C 27.832 23.4375 33.4473 28.8574 41.1621 28.8574 L 97.998 28.8574 C 105.615 28.8574 111.328 23.4375 111.719 15.8203 Z M 49.6094 -95.459 C 49.6094 -99.9023 52.9297 -103.125 57.8613 -103.125 L 81.1523 -103.125 C 86.1328 -103.125 89.4531 -99.9023 89.4531 -95.459 L 89.4531 -85.6445 L 49.6094 -85.6445 Z M 41.6504 22.6562 C 37.4512 22.6562 34.1309 19.3359 33.8867 15.1855 L 29.1016 -79.4434 L 109.912 -79.4434 L 105.273 15.1855 C 105.078 19.3848 101.758 22.6562 97.5098 22.6562 Z M 88.4766 9.66797 C 89.9414 9.66797 91.0645 8.49609 91.1133 6.88477 L 93.2129 -63.2812 C 93.2129 -64.8926 92.1387 -66.1133 90.625 -66.1133 C 89.209 -66.1133 88.0859 -64.8926 88.0371 -63.3789 L 85.9375 6.73828 C 85.8887 8.34961 86.9629 9.66797 88.4766 9.66797 Z M 50.6836 9.66797 C 52.1484 9.66797 53.2715 8.34961 53.2227 6.73828 L 51.0742 -63.3789 C 51.0254 -64.8926 49.8535 -66.1133 48.4375 -66.1133 C 46.9727 -66.1133 45.8984 -64.9414 45.8984 -63.2812 L 48.0957 6.88477 C 48.0957 8.49609 49.1699 9.66797 50.6836 9.66797 Z M 69.5801 9.66797 C 70.9961 9.66797 72.2168 8.34961 72.2168 6.83594 L 72.2168 -63.3301 C 72.2168 -64.8926 71.0449 -66.1133 69.5801 -66.1133 C 68.1641 -66.1133 66.9434 -64.8926 66.9434 -63.3301 L 66.9434 6.83594 C 66.9434 8.34961 68.1641 9.66797 69.5801 9.66797 Z"/>
  </g>
  <g id="Thin-L" transform="matrix(1 0 0 1 787.745 1556)">
   <path d="M 109.18 16.8945 L 114.307 -81.1523 L 125.83 -81.1523 C 126.904 -81.1523 127.686 -81.9336 127.686 -83.0078 C 127.686 -84.0332 126.904 -84.8633 125.83 -84.8633 L 94.3848 -84.8633 L 94.3848 -95.5078 C 94.3848 -102.637 88.916 -108.008 80.8594 -108.008 L 56.4941 -108.008 C 48.4375 -108.008 43.0664 -102.637 43.0664 -95.5078 L 43.0664 -84.8633 L 11.5723 -84.8633 C 10.5469 -84.8633 9.66797 -83.9844 9.66797 -83.0078 C 9.66797 -81.9336 10.5469 -81.1523 11.5723 -81.1523 L 23.1934 -81.1523 L 28.3203 16.8945 C 28.6621 23.3887 34.0332 28.5156 40.6738 28.5156 L 96.7773 28.5156 C 103.369 28.5156 108.838 23.3887 109.18 16.8945 Z M 46.9727 -95.4102 C 46.9727 -100.488 50.7812 -104.297 56.5918 -104.297 L 80.7617 -104.297 C 86.5723 -104.297 90.4785 -100.488 90.4785 -95.4102 L 90.4785 -84.8633 L 46.9727 -84.8633 Z M 40.8203 24.8047 C 36.2305 24.8047 32.4219 21.0449 32.1777 16.5527 L 27.0996 -81.1523 L 110.4 -81.1523 L 105.371 16.5527 C 105.127 21.0449 101.318 24.8047 96.6797 24.8047 Z M 87.793 10.3027 C 88.7695 10.3027 89.5996 9.57031 89.5996 8.59375 L 91.8945 -64.7461 C 91.8945 -65.7715 91.1621 -66.6016 90.1367 -66.6016 C 89.1602 -66.6016 88.3789 -65.8203 88.3789 -64.8926 L 86.084 8.34961 C 86.084 9.47266 86.7676 10.3027 87.793 10.3027 Z M 49.6582 10.3027 C 50.6836 10.3027 51.416 9.47266 51.416 8.34961 L 49.0723 -64.8926 C 49.0234 -65.8203 48.2422 -66.6016 47.2168 -66.6016 C 46.2891 -66.6016 45.5566 -65.8203 45.5566 -64.7461 L 47.9004 8.59375 C 47.9004 9.57031 48.6328 10.3027 49.6582 10.3027 Z M 68.75 10.3027 C 69.6777 10.3027 70.5078 9.47266 70.5078 8.54492 L 70.5078 -64.7949 C 70.5078 -65.8203 69.7754 -66.6016 68.75 -66.6016 C 67.8223 -66.6016 66.9922 -65.8203 66.9922 -64.7949 L 66.9922 8.54492 C 66.9922 9.47266 67.8223 10.3027 68.75 10.3027 Z"/>
  </g>
  <g id="Ultralight-L" transform="matrix(1 0 0 1 491.474 1556)">
   <path d="M 107.861 17.4316 L 113.184 -82.0312 L 125.586 -82.0312 C 126.318 -82.0312 126.807 -82.5195 126.807 -83.252 C 126.807 -83.9355 126.318 -84.4727 125.586 -84.4727 L 93.5547 -84.4727 L 93.5547 -95.3613 C 93.5547 -102.051 88.2324 -107.324 80.5176 -107.324 L 56.0059 -107.324 C 48.291 -107.324 43.0664 -102.051 43.0664 -95.3613 L 43.0664 -84.4727 L 10.9863 -84.4727 C 10.2539 -84.4727 9.66797 -83.8867 9.66797 -83.252 C 9.66797 -82.5195 10.2539 -82.0312 10.9863 -82.0312 L 23.4863 -82.0312 L 28.8086 17.4316 C 29.1016 23.3398 34.3262 28.3203 40.4297 28.3203 L 96.1426 28.3203 C 102.246 28.3203 107.568 23.3398 107.861 17.4316 Z M 45.6055 -95.4102 C 45.6055 -100.781 49.6582 -104.883 55.9082 -104.883 L 80.5664 -104.883 C 86.8164 -104.883 90.9668 -100.781 90.9668 -95.4102 L 90.9668 -84.4727 L 45.6055 -84.4727 Z M 40.4297 25.8789 C 35.5957 25.8789 31.543 21.9238 31.25 17.2852 L 26.0742 -82.0312 L 110.645 -82.0312 L 105.371 17.2852 C 105.127 21.9238 101.074 25.8789 96.2402 25.8789 Z M 87.4023 10.6445 C 88.1836 10.6445 88.8184 10.1074 88.8184 9.47266 L 91.2109 -65.4785 C 91.2109 -66.2109 90.6738 -66.8457 89.8926 -66.8457 C 89.1113 -66.8457 88.5742 -66.3086 88.5742 -65.625 L 86.1816 9.17969 C 86.1816 10.0586 86.6699 10.6445 87.4023 10.6445 Z M 49.1699 10.6445 C 49.9023 10.6445 50.4883 10.0586 50.4883 9.17969 L 47.998 -65.625 C 47.998 -66.3086 47.3633 -66.8457 46.582 -66.8457 C 45.9473 -66.8457 45.3613 -66.3086 45.3613 -65.4785 L 47.8027 9.47266 C 47.8027 10.1074 48.3887 10.6445 49.1699 10.6445 Z M 68.3105 10.6445 C 68.9941 10.6445 69.6289 10.0586 69.6289 9.375 L 69.6289 -65.5273 C 69.6289 -66.3086 69.0918 -66.8457 68.3105 -66.8457 C 67.627 -66.8457 67.041 -66.3086 67.041 -65.5273 L 67.041 9.375 C 67.041 10.0586 67.627 10.6445 68.3105 10.6445 Z"/>
  </g>
  <g id="Black-M" transform="matrix(1 0 0 1 2873.34 1126)">
   <path d="M 98.8281 3.41797 L 101.855 -63.7207 L 104.98 -63.7207 C 109.424 -63.7207 112.646 -66.6992 112.646 -71.1426 C 112.646 -75.4883 109.424 -78.4668 104.98 -78.4668 L 86.084 -78.4668 L 86.084 -81.8848 C 86.084 -91.6504 78.8086 -98.1445 66.8457 -98.1445 L 53.2715 -98.1445 C 41.3086 -98.1445 34.0332 -91.6504 34.0332 -81.8848 L 34.0332 -78.4668 L 15.1367 -78.4668 C 10.6934 -78.4668 7.4707 -75.4883 7.4707 -71.1426 C 7.4707 -66.6992 10.6934 -63.7207 15.1367 -63.7207 L 18.3105 -63.7207 L 21.2891 3.41797 C 21.7285 13.4277 27.3926 18.1641 37.3535 18.1641 L 82.7637 18.1641 C 92.7246 18.1641 98.3887 13.4277 98.8281 3.41797 Z M 49.4629 -81.6406 C 49.5117 -83.9355 51.2695 -85.498 53.8086 -85.498 L 66.3086 -85.498 C 68.8477 -85.498 70.6055 -83.9355 70.6543 -81.6406 L 70.8008 -78.4668 L 49.3164 -78.4668 Z M 39.7949 3.07617 C 37.5 3.07617 36.377 1.61133 36.2305 -1.31836 L 33.4473 -63.7207 L 86.6699 -63.7207 L 83.8867 -1.31836 C 83.7402 1.61133 82.666 3.07617 80.3711 3.07617 Z M 74.0723 -2.49023 C 76.7578 -2.49023 78.8574 -4.83398 78.9551 -7.95898 L 80.4199 -52.6855 C 80.5176 -55.7617 78.418 -58.2031 75.6836 -58.2031 C 72.9492 -58.2031 70.752 -55.7617 70.6055 -52.7344 L 69.1895 -8.10547 C 69.043 -4.93164 71.2402 -2.49023 74.0723 -2.49023 Z M 46.0449 -2.49023 C 48.877 -2.49023 51.0742 -4.93164 50.9277 -8.10547 L 49.5117 -52.7344 C 49.3652 -55.7617 47.168 -58.2031 44.4336 -58.2031 C 41.748 -58.2031 39.5996 -55.7617 39.6973 -52.6855 L 41.1621 -7.95898 C 41.2598 -4.83398 43.3594 -2.49023 46.0449 -2.49023 Z M 60.0586 -2.49023 C 62.6953 -2.49023 64.8926 -4.93164 64.8926 -7.91016 L 64.8926 -52.7832 C 64.8926 -55.7617 62.6953 -58.2031 60.0586 -58.2031 C 57.4219 -58.2031 55.2246 -55.7617 55.2246 -52.7832 L 55.2246 -7.91016 C 55.2246 -4.93164 57.4219 -2.49023 60.0586 -2.49023 Z"/>
  </g>
  <g id="Heavy-M" transform="matrix(1 0 0 1 2577.88 1126)">
   <path d="M 96.582 3.36914 L 99.6582 -64.6973 L 103.418 -64.6973 C 107.324 -64.6973 110.156 -67.334 110.156 -71.2402 C 110.156 -75 107.324 -77.6855 103.418 -77.6855 L 83.7402 -77.6855 L 83.7402 -81.9824 C 83.7402 -91.1133 77.0508 -97.168 66.1621 -97.168 L 51.4648 -97.168 C 40.5273 -97.168 33.8867 -91.1133 33.8867 -81.9824 L 33.8867 -77.6855 L 14.209 -77.6855 C 10.3027 -77.6855 7.4707 -75 7.4707 -71.2402 C 7.4707 -67.334 10.3027 -64.6973 14.209 -64.6973 L 17.9688 -64.6973 L 21.0449 3.36914 C 21.4844 12.6953 26.9043 17.3828 36.1816 17.3828 L 81.4453 17.3828 C 90.6738 17.3828 96.1426 12.6953 96.582 3.36914 Z M 47.5098 -81.6895 C 47.5586 -84.1309 49.3652 -85.7422 52.002 -85.7422 L 65.5762 -85.7422 C 68.2617 -85.7422 70.0684 -84.1309 70.1172 -81.6895 L 70.2148 -77.6855 L 47.4121 -77.6855 Z M 38.1836 4.10156 C 35.791 4.10156 34.4238 2.49023 34.3262 -0.439453 L 31.3477 -64.6973 L 86.2305 -64.6973 L 83.3008 -0.439453 C 83.2031 2.49023 81.8359 4.10156 79.3945 4.10156 Z M 72.9492 -2.19727 C 75.3906 -2.19727 77.2461 -4.24805 77.3438 -7.08008 L 78.8086 -53.3203 C 78.9062 -56.1035 77.002 -58.3008 74.5117 -58.3008 C 72.0703 -58.3008 70.0684 -56.1035 69.9707 -53.3691 L 68.5059 -7.22656 C 68.4082 -4.39453 70.3613 -2.19727 72.9492 -2.19727 Z M 44.6777 -2.19727 C 47.2168 -2.19727 49.2188 -4.39453 49.1211 -7.22656 L 47.6562 -53.3691 C 47.5586 -56.1035 45.5566 -58.3008 43.0664 -58.3008 C 40.625 -58.3008 38.7207 -56.1035 38.8184 -53.3203 L 40.2832 -7.08008 C 40.3809 -4.24805 42.2363 -2.19727 44.6777 -2.19727 Z M 58.7891 -2.19727 C 61.1816 -2.19727 63.1836 -4.39453 63.1836 -7.03125 L 63.1836 -53.418 C 63.1836 -56.1035 61.1816 -58.3008 58.7891 -58.3008 C 56.3965 -58.3008 54.4434 -56.1035 54.4434 -53.418 L 54.4434 -7.03125 C 54.4434 -4.39453 56.3965 -2.19727 58.7891 -2.19727 Z"/>
  </g>
  <g id="Bold-M" transform="matrix(1 0 0 1 2282.58 1126)">
   <path d="M 93.9941 3.32031 L 97.168 -65.7227 L 101.66 -65.7227 C 104.932 -65.7227 107.324 -68.0664 107.324 -71.2891 C 107.324 -74.4629 104.932 -76.7578 101.66 -76.7578 L 81.0547 -76.7578 L 81.0547 -82.1289 C 81.0547 -90.5273 75.0977 -96.0449 65.332 -96.0449 L 49.4141 -96.0449 C 39.6973 -96.0449 33.6914 -90.5273 33.6914 -82.1289 L 33.6914 -76.7578 L 13.1348 -76.7578 C 9.91211 -76.7578 7.4707 -74.4629 7.4707 -71.2891 C 7.4707 -68.0664 9.91211 -65.7227 13.1348 -65.7227 L 17.627 -65.7227 L 20.8008 3.36914 C 21.1914 11.8652 26.3672 16.4551 34.8633 16.4551 L 79.9316 16.4551 C 88.4277 16.4551 93.6035 11.8652 93.9941 3.32031 Z M 45.3125 -81.7871 C 45.3125 -84.3262 47.2168 -86.084 50 -86.084 L 64.7949 -86.084 C 67.5781 -86.084 69.4336 -84.3262 69.4824 -81.7871 L 69.5312 -76.7578 L 45.2148 -76.7578 Z M 36.4258 5.22461 C 33.8867 5.22461 32.2754 3.4668 32.1289 0.585938 L 29.0527 -65.7227 L 85.6934 -65.7227 L 82.666 0.585938 C 82.5684 3.51562 80.957 5.22461 78.3691 5.22461 Z M 71.6309 -1.80664 C 73.8281 -1.80664 75.4395 -3.61328 75.5371 -6.10352 L 77.002 -54.1016 C 77.0508 -56.543 75.3906 -58.4473 73.1934 -58.4473 C 71.0449 -58.4473 69.3359 -56.4941 69.2383 -54.1504 L 67.7734 -6.20117 C 67.7246 -3.75977 69.4336 -1.80664 71.6309 -1.80664 Z M 43.1641 -1.80664 C 45.4102 -1.80664 47.1191 -3.75977 47.0215 -6.20117 L 45.5566 -54.1504 C 45.459 -56.4941 43.75 -58.4473 41.6016 -58.4473 C 39.4043 -58.4473 37.7441 -56.543 37.8418 -54.1016 L 39.3066 -6.10352 C 39.3555 -3.61328 41.0156 -1.80664 43.1641 -1.80664 Z M 57.4219 -1.80664 C 59.5215 -1.80664 61.2793 -3.75977 61.2793 -6.10352 L 61.2793 -54.1504 C 61.2793 -56.4941 59.5215 -58.4473 57.4219 -58.4473 C 55.2734 -58.4473 53.5156 -56.4941 53.5156 -54.1504 L 53.5156 -6.10352 C 53.5156 -3.75977 55.2734 -1.80664 57.4219 -1.80664 Z"/>
  </g>
  <g id="Semibold-M" transform="matrix(1 0 0 1 1986.85 1126)">
   <path d="M 92.2363 3.32031 L 95.459 -66.4551 L 100.488 -66.4551 C 103.271 -66.4551 105.371 -68.5547 105.371 -71.3379 C 105.371 -74.0723 103.271 -76.1719 100.488 -76.1719 L 79.248 -76.1719 L 79.248 -82.2266 C 79.248 -90.1367 73.7305 -95.2637 64.7949 -95.2637 L 47.998 -95.2637 C 39.0625 -95.2637 33.5449 -90.1367 33.5449 -82.2266 L 33.5449 -76.1719 L 12.4023 -76.1719 C 9.61914 -76.1719 7.4707 -74.0723 7.4707 -71.3379 C 7.4707 -68.5547 9.61914 -66.4551 12.4023 -66.4551 L 17.3828 -66.4551 L 20.6543 3.36914 C 21.0449 11.3281 25.9766 15.8691 33.9844 15.8691 L 78.9551 15.8691 C 86.8652 15.8691 91.8457 11.2793 92.2363 3.32031 Z M 43.7988 -81.8359 C 43.7988 -84.4727 45.752 -86.3281 48.584 -86.3281 L 64.2578 -86.3281 C 67.0898 -86.3281 69.043 -84.4727 69.043 -81.8359 L 69.0918 -76.1719 L 43.75 -76.1719 Z M 35.2051 6.05469 C 32.5684 6.05469 30.7617 4.15039 30.6152 1.26953 L 27.4414 -66.4551 L 85.3027 -66.4551 L 82.2266 1.26953 C 82.1289 4.19922 80.3223 6.05469 77.6367 6.05469 Z M 70.752 -1.5625 C 72.7051 -1.5625 74.2188 -3.22266 74.2676 -5.46875 L 75.7324 -54.5898 C 75.8301 -56.8359 74.2676 -58.5449 72.3145 -58.5449 C 70.3613 -58.5449 68.7988 -56.7871 68.75 -54.6387 L 67.2852 -5.51758 C 67.1875 -3.32031 68.75 -1.5625 70.752 -1.5625 Z M 42.0898 -1.5625 C 44.1406 -1.5625 45.6543 -3.32031 45.6055 -5.51758 L 44.1406 -54.6387 C 44.043 -56.7871 42.4805 -58.5449 40.5762 -58.5449 C 38.5742 -58.5449 37.0605 -56.8359 37.1582 -54.5898 L 38.623 -5.46875 C 38.6719 -3.22266 40.1367 -1.5625 42.0898 -1.5625 Z M 56.4453 -1.5625 C 58.3496 -1.5625 59.9609 -3.32031 59.9609 -5.46875 L 59.9609 -54.6387 C 59.9609 -56.7871 58.3984 -58.5449 56.4453 -58.5449 C 54.4922 -58.5449 52.8809 -56.7871 52.8809 -54.6387 L 52.8809 -5.46875 C 52.8809 -3.32031 54.4922 -1.5625 56.4453 -1.5625 Z"/>
  </g>
  <g id="Medium-M" transform="matrix(1 0 0 1 1690.87 1126)">
   <path d="M 90.8691 3.32031 L 94.1895 -67.041 L 99.5605 -67.041 C 102.002 -67.041 103.906 -68.9453 103.906 -71.3867 C 103.906 -73.7793 102.002 -75.6836 99.5605 -75.6836 L 77.8809 -75.6836 L 77.8809 -82.3242 C 77.8809 -89.8438 72.7051 -94.6777 64.3555 -94.6777 L 46.9238 -94.6777 C 38.623 -94.6777 33.4473 -89.8438 33.4473 -82.3242 L 33.4473 -75.6836 L 11.8164 -75.6836 C 9.42383 -75.6836 7.4707 -73.7793 7.4707 -71.3867 C 7.4707 -68.9453 9.42383 -67.041 11.8164 -67.041 L 17.2363 -67.041 L 20.5078 3.32031 C 20.8984 10.8887 25.6836 15.3809 33.3008 15.3809 L 78.1738 15.3809 C 85.6934 15.3809 90.5273 10.8398 90.8691 3.32031 Z M 42.627 -81.8848 C 42.6758 -84.5703 44.6289 -86.4746 47.5098 -86.4746 L 63.8184 -86.4746 C 66.6992 -86.4746 68.7012 -84.5703 68.7012 -81.8848 L 68.75 -75.6836 L 42.627 -75.6836 Z M 34.2773 6.64062 C 31.5918 6.64062 29.6387 4.63867 29.4922 1.75781 L 26.2207 -67.041 L 85.0586 -67.041 L 81.9336 1.75781 C 81.7871 4.6875 79.8828 6.64062 77.0996 6.64062 Z M 70.1172 -1.36719 C 71.9238 -1.36719 73.2422 -2.88086 73.3398 -4.93164 L 74.8047 -54.9805 C 74.8535 -57.0312 73.4375 -58.5938 71.6309 -58.5938 C 69.873 -58.5938 68.4082 -56.9824 68.3594 -55.0293 L 66.8945 -5.0293 C 66.8457 -2.97852 68.2129 -1.36719 70.1172 -1.36719 Z M 41.3086 -1.36719 C 43.1641 -1.36719 44.5801 -2.97852 44.5312 -5.0293 L 43.0664 -55.0293 C 42.9688 -56.9824 41.5039 -58.5938 39.7949 -58.5938 C 37.9395 -58.5938 36.5723 -57.0312 36.6211 -54.9805 L 38.0859 -4.93164 C 38.1348 -2.88086 39.502 -1.36719 41.3086 -1.36719 Z M 55.7129 -1.36719 C 57.4707 -1.36719 58.9844 -2.97852 58.9844 -4.93164 L 58.9844 -55.0293 C 58.9844 -56.9824 57.5195 -58.5938 55.7129 -58.5938 C 53.9062 -58.5938 52.4414 -56.9824 52.4414 -55.0293 L 52.4414 -4.93164 C 52.4414 -2.97852 53.9062 -1.36719 55.7129 -1.36719 Z"/>
  </g>
  <g id="Regular-M" transform="matrix(1 0 0 1 1395.11 1126)">
   <path d="M 89.1602 3.27148 L 92.5293 -67.7246 L 98.3887 -67.7246 C 100.391 -67.7246 102.002 -69.4336 102.002 -71.4355 C 102.002 -73.4375 100.391 -75.0977 98.3887 -75.0977 L 76.0742 -75.0977 L 76.0742 -82.4219 C 76.0742 -89.4531 71.3379 -93.9453 63.8184 -93.9453 L 45.5566 -93.9453 C 38.0371 -93.9453 33.3496 -89.4531 33.3496 -82.4219 L 33.3496 -75.0977 L 11.084 -75.0977 C 9.13086 -75.0977 7.4707 -73.3887 7.4707 -71.4355 C 7.4707 -69.4336 9.13086 -67.7246 11.084 -67.7246 L 16.9922 -67.7246 L 20.3613 3.32031 C 20.7031 10.3027 25.293 14.7949 32.373 14.7949 L 77.1484 14.7949 C 84.1309 14.7949 88.8184 10.2539 89.1602 3.27148 Z M 41.1621 -81.9336 C 41.1621 -84.7168 43.1641 -86.6699 46.1426 -86.6699 L 63.2812 -86.6699 C 66.2598 -86.6699 68.3105 -84.7168 68.3105 -81.9336 L 68.3105 -75.0977 L 41.1621 -75.0977 Z M 33.0566 7.42188 C 30.2734 7.42188 28.1738 5.32227 28.0273 2.44141 L 24.6094 -67.7246 L 84.7168 -67.7246 L 81.4941 2.44141 C 81.3477 5.37109 79.2969 7.42188 76.3672 7.42188 Z M 69.2383 -1.12305 C 70.8496 -1.12305 72.0215 -2.44141 72.0703 -4.29688 L 73.5352 -55.5176 C 73.584 -57.3242 72.3633 -58.6914 70.7031 -58.6914 C 69.1895 -58.6914 67.9199 -57.2754 67.8711 -55.5176 L 66.4062 -4.3457 C 66.3574 -2.53906 67.5781 -1.12305 69.2383 -1.12305 Z M 40.2832 -1.12305 C 41.9434 -1.12305 43.1641 -2.53906 43.1152 -4.3457 L 41.6016 -55.5176 C 41.5527 -57.2754 40.2832 -58.6914 38.7695 -58.6914 C 37.1094 -58.6914 35.8887 -57.3242 35.9375 -55.5176 L 37.4023 -4.29688 C 37.4512 -2.44141 38.623 -1.12305 40.2832 -1.12305 Z M 54.7363 -1.12305 C 56.3477 -1.12305 57.7148 -2.53906 57.7148 -4.29688 L 57.7148 -55.5176 C 57.7148 -57.2754 56.3477 -58.6914 54.7363 -58.6914 C 53.1738 -58.6914 51.8066 -57.2754 51.8066 -55.5176 L 51.8066 -4.29688 C 51.8066 -2.53906 53.1738 -1.12305 54.7363 -1.12305 Z"/>
  </g>
  <g id="Light-M" transform="matrix(1 0 0 1 1098.98 1126)">
   <path d="M 87.4023 4.00391 L 91.0156 -68.8965 L 98.0469 -68.8965 C 99.6094 -68.8965 100.83 -70.166 100.83 -71.7285 C 100.83 -73.291 99.6094 -74.5605 98.0469 -74.5605 L 74.9512 -74.5605 L 74.9512 -82.2266 C 74.9512 -88.6719 70.4102 -93.0664 63.3789 -93.0664 L 44.873 -93.0664 C 37.8418 -93.0664 33.3496 -88.6719 33.3496 -82.2266 L 33.3496 -74.5605 L 10.3027 -74.5605 C 8.78906 -74.5605 7.4707 -73.2422 7.4707 -71.7285 C 7.4707 -70.166 8.78906 -68.8965 10.3027 -68.8965 L 17.334 -68.8965 L 20.9473 4.00391 C 21.2891 10.2539 25.6836 14.5508 32.0312 14.5508 L 76.3184 14.5508 C 82.6172 14.5508 87.1094 10.2539 87.4023 4.00391 Z M 39.3555 -81.9336 C 39.3555 -85.1074 41.6992 -87.4512 45.2637 -87.4512 L 63.0371 -87.4512 C 66.5527 -87.4512 68.9941 -85.1074 68.9941 -81.9336 L 68.9941 -74.5605 L 39.3555 -74.5605 Z M 32.5195 8.88672 C 29.4434 8.88672 27.002 6.49414 26.8555 3.36914 L 23.2422 -68.8965 L 85.0098 -68.8965 L 81.543 3.36914 C 81.3965 6.49414 78.9551 8.88672 75.8301 8.88672 Z M 68.75 -0.683594 C 70.0684 -0.683594 71.0449 -1.70898 71.0938 -3.125 L 72.6562 -56.4941 C 72.7051 -57.9102 71.7285 -59.0332 70.3613 -59.0332 C 69.1406 -59.0332 68.1152 -57.9102 68.1152 -56.543 L 66.5039 -3.22266 C 66.5039 -1.80664 67.4316 -0.683594 68.75 -0.683594 Z M 39.5996 -0.683594 C 40.918 -0.683594 41.8945 -1.80664 41.8457 -3.22266 L 40.2344 -56.543 C 40.2344 -57.9102 39.1602 -59.0332 37.9395 -59.0332 C 36.6211 -59.0332 35.6445 -57.959 35.6934 -56.4941 L 37.3047 -3.125 C 37.3535 -1.70898 38.2812 -0.683594 39.5996 -0.683594 Z M 54.1992 -0.683594 C 55.4688 -0.683594 56.543 -1.80664 56.543 -3.17383 L 56.543 -56.4941 C 56.543 -57.9102 55.4688 -59.0332 54.1992 -59.0332 C 52.9297 -59.0332 51.8555 -57.9102 51.8555 -56.4941 L 51.8555 -3.17383 C 51.8555 -1.80664 52.9297 -0.683594 54.1992 -0.683594 Z"/>
  </g>
  <g id="Thin-M" transform="matrix(1 0 0 1 803.029 1126)">
   <path d="M 85.1562 4.93164 L 89.0625 -70.459 L 97.6074 -70.459 C 98.584 -70.459 99.3164 -71.1914 99.3164 -72.168 C 99.3164 -73.0957 98.584 -73.877 97.6074 -73.877 L 73.4863 -73.877 L 73.4863 -81.9824 C 73.4863 -87.6953 69.1895 -91.8945 62.793 -91.8945 L 43.9941 -91.8945 C 37.5488 -91.8945 33.3496 -87.6953 33.3496 -81.9824 L 33.3496 -73.877 L 9.22852 -73.877 C 8.25195 -73.877 7.4707 -73.0469 7.4707 -72.168 C 7.4707 -71.1914 8.25195 -70.459 9.22852 -70.459 L 17.8223 -70.459 L 21.7285 4.93164 C 22.0215 10.2051 26.2207 14.2578 31.5918 14.2578 L 75.2441 14.2578 C 80.6152 14.2578 84.8633 10.2051 85.1562 4.93164 Z M 36.9629 -81.8848 C 36.9629 -85.6934 39.7949 -88.4766 44.0918 -88.4766 L 62.6465 -88.4766 C 66.9922 -88.4766 69.873 -85.6934 69.873 -81.8848 L 69.873 -73.877 L 36.9629 -73.877 Z M 31.7871 10.8398 C 28.3203 10.8398 25.4395 8.00781 25.293 4.58984 L 21.4355 -70.459 L 85.4492 -70.459 L 81.5918 4.58984 C 81.4453 8.00781 78.5645 10.8398 75.0488 10.8398 Z M 68.1641 -0.0976562 C 69.043 -0.0976562 69.7266 -0.732422 69.7266 -1.61133 L 71.4844 -57.7637 C 71.4844 -58.6914 70.8496 -59.4238 69.9219 -59.4238 C 69.0918 -59.4238 68.4082 -58.7402 68.4082 -57.8613 L 66.6504 -1.80664 C 66.6504 -0.830078 67.2363 -0.0976562 68.1641 -0.0976562 Z M 38.6719 -0.0976562 C 39.5508 -0.0976562 40.2344 -0.830078 40.2344 -1.80664 L 38.4277 -57.8613 C 38.4277 -58.7402 37.6953 -59.4238 36.8652 -59.4238 C 35.9863 -59.4238 35.3516 -58.7402 35.3516 -57.7637 L 37.1582 -1.61133 C 37.1582 -0.732422 37.793 -0.0976562 38.6719 -0.0976562 Z M 53.4668 -0.0976562 C 54.248 -0.0976562 54.9805 -0.830078 54.9805 -1.66016 L 54.9805 -57.8125 C 54.9805 -58.7402 54.3457 -59.4238 53.4668 -59.4238 C 52.6367 -59.4238 51.9043 -58.7402 51.9043 -57.8125 L 51.9043 -1.66016 C 51.9043 -0.830078 52.6367 -0.0976562 53.4668 -0.0976562 Z"/>
  </g>
  <g id="Ultralight-M" transform="matrix(1 0 0 1 506.708 1126)">
   <path d="M 83.9844 5.41992 L 88.0371 -71.2402 L 97.3633 -71.2402 C 98.0469 -71.2402 98.5352 -71.6797 98.5352 -72.3633 C 98.5352 -72.998 98.0469 -73.4863 97.3633 -73.4863 L 72.7051 -73.4863 L 72.7051 -81.8848 C 72.7051 -87.207 68.5547 -91.3086 62.5 -91.3086 L 43.5059 -91.3086 C 37.4512 -91.3086 33.3496 -87.207 33.3496 -81.8848 L 33.3496 -73.4863 L 8.69141 -73.4863 C 8.00781 -73.4863 7.4707 -72.9492 7.4707 -72.3633 C 7.4707 -71.6797 8.00781 -71.2402 8.69141 -71.2402 L 18.0664 -71.2402 L 22.168 5.41992 C 22.4121 10.1562 26.5137 14.1113 31.3965 14.1113 L 74.6582 14.1113 C 79.541 14.1113 83.7402 10.1562 83.9844 5.41992 Z M 35.7422 -81.8848 C 35.7422 -85.9375 38.8184 -89.0137 43.5059 -89.0137 L 62.5 -89.0137 C 67.1875 -89.0137 70.3125 -85.9375 70.3125 -81.8848 L 70.3125 -73.4863 L 35.7422 -73.4863 Z M 31.4453 11.8164 C 27.7344 11.8164 24.6582 8.78906 24.4629 5.22461 L 20.459 -71.2402 L 85.6445 -71.2402 L 81.6406 5.22461 C 81.4453 8.78906 78.3691 11.8164 74.707 11.8164 Z M 67.8223 0.244141 C 68.5059 0.244141 69.043 -0.244141 69.043 -0.878906 L 70.8496 -58.4473 C 70.8496 -59.082 70.3613 -59.668 69.7266 -59.668 C 69.043 -59.668 68.5547 -59.1797 68.5547 -58.5449 L 66.748 -1.02539 C 66.748 -0.341797 67.1875 0.244141 67.8223 0.244141 Z M 38.2324 0.244141 C 38.8672 0.244141 39.3555 -0.341797 39.3555 -1.02539 L 37.5 -58.5449 C 37.5 -59.1797 36.9629 -59.668 36.2793 -59.668 C 35.6934 -59.668 35.2051 -59.1797 35.2051 -58.4473 L 37.0605 -0.878906 C 37.0605 -0.244141 37.5488 0.244141 38.2324 0.244141 Z M 53.0762 0.244141 C 53.6621 0.244141 54.1992 -0.341797 54.1992 -0.927734 L 54.1992 -58.4961 C 54.1992 -59.1797 53.7109 -59.668 53.0762 -59.668 C 52.4414 -59.668 51.9043 -59.1797 51.9043 -58.4961 L 51.9043 -0.927734 C 51.9043 -0.341797 52.4414 0.244141 53.0762 0.244141 Z"/>
  </g>
  <g id="Black-S" transform="matrix(1 0 0 1 2886.43 696)">
   <path d="M 77.2949 -4.98047 L 79.6387 -57.6172 L 82.1289 -57.6172 C 85.5957 -57.6172 88.0859 -59.9121 88.0859 -63.3789 C 88.0859 -66.748 85.5957 -69.043 82.1289 -69.043 L 67.2852 -69.043 L 67.2852 -71.7773 C 67.2852 -79.3945 61.6211 -84.4727 52.3438 -84.4727 L 41.6016 -84.4727 C 32.3242 -84.4727 26.6602 -79.3945 26.6602 -71.7773 L 26.6602 -69.043 L 11.8164 -69.043 C 8.34961 -69.043 5.85938 -66.748 5.85938 -63.3789 C 5.85938 -59.9121 8.34961 -57.6172 11.8164 -57.6172 L 14.3066 -57.6172 L 16.6504 -4.98047 C 16.9922 2.83203 21.4355 6.54297 29.1992 6.54297 L 64.7461 6.54297 C 72.5098 6.54297 76.9531 2.83203 77.2949 -4.98047 Z M 38.623 -71.582 C 38.6719 -73.3887 40.0391 -74.6094 42.041 -74.6094 L 51.9043 -74.6094 C 53.9062 -74.6094 55.2734 -73.3887 55.3223 -71.582 L 55.4199 -69.043 L 38.5254 -69.043 Z M 31.0547 -5.17578 C 29.248 -5.17578 28.3691 -6.29883 28.2715 -8.59375 L 26.0742 -57.6172 L 67.8711 -57.6172 L 65.6738 -8.59375 C 65.5762 -6.29883 64.6973 -5.17578 62.8906 -5.17578 Z M 57.959 -9.57031 C 60.0586 -9.57031 61.6699 -11.377 61.7676 -13.8184 L 62.8906 -48.9258 C 62.9883 -51.3184 61.3281 -53.2227 59.2285 -53.2227 C 57.0801 -53.2227 55.3711 -51.3184 55.2734 -48.9746 L 54.1504 -13.916 C 54.0527 -11.4746 55.7617 -9.57031 57.959 -9.57031 Z M 35.9863 -9.57031 C 38.1836 -9.57031 39.8926 -11.4746 39.7949 -13.916 L 38.6719 -48.9746 C 38.5742 -51.3184 36.8652 -53.2227 34.7168 -53.2227 C 32.6172 -53.2227 30.957 -51.3184 31.0547 -48.9258 L 32.1777 -13.8184 C 32.2754 -11.377 33.8867 -9.57031 35.9863 -9.57031 Z M 46.9727 -9.57031 C 49.0234 -9.57031 50.7324 -11.4746 50.7324 -13.7695 L 50.7324 -49.0234 C 50.7324 -51.3184 49.0234 -53.2227 46.9727 -53.2227 C 44.9219 -53.2227 43.2129 -51.3184 43.2129 -49.0234 L 43.2129 -13.7695 C 43.2129 -11.4746 44.9219 -9.57031 46.9727 -9.57031 Z"/>
  </g>
  <g id="Heavy-S" transform="matrix(1 0 0 1 2590.62 696)">
   <path d="M 75.7324 -5.07812 L 78.125 -58.2031 L 80.957 -58.2031 C 84.0332 -58.2031 86.2793 -60.3027 86.2793 -63.3789 C 86.2793 -66.4062 84.0332 -68.5059 80.957 -68.5059 L 65.5762 -68.5059 L 65.5762 -71.875 C 65.5762 -79.1016 60.4004 -83.7891 51.8555 -83.7891 L 40.2832 -83.7891 C 31.7383 -83.7891 26.5137 -79.1016 26.5137 -71.875 L 26.5137 -68.5059 L 11.1816 -68.5059 C 8.10547 -68.5059 5.85938 -66.4062 5.85938 -63.3789 C 5.85938 -60.3027 8.10547 -58.2031 11.1816 -58.2031 L 14.0137 -58.2031 L 16.4062 -5.07812 C 16.748 2.29492 20.9961 5.95703 28.3203 5.95703 L 63.8184 5.95703 C 71.1426 5.95703 75.3906 2.24609 75.7324 -5.07812 Z M 37.3047 -71.6309 C 37.3535 -73.4863 38.7207 -74.7559 40.7715 -74.7559 L 51.3672 -74.7559 C 53.418 -74.7559 54.7852 -73.4863 54.834 -71.6309 L 54.8828 -68.5059 L 37.2559 -68.5059 Z M 29.8828 -4.54102 C 28.0273 -4.54102 27.002 -5.76172 26.9043 -8.00781 L 24.6094 -58.2031 L 67.4805 -58.2031 L 65.2344 -8.00781 C 65.1367 -5.76172 64.1113 -4.54102 62.2559 -4.54102 Z M 57.1289 -9.375 C 59.082 -9.375 60.5469 -11.0352 60.6445 -13.2812 L 61.7676 -49.3164 C 61.8164 -51.5137 60.3027 -53.2715 58.3496 -53.2715 C 56.3965 -53.2715 54.834 -51.5137 54.7363 -49.3652 L 53.6133 -13.3789 C 53.5645 -11.1328 55.127 -9.375 57.1289 -9.375 Z M 35.0098 -9.375 C 37.0605 -9.375 38.623 -11.1328 38.5254 -13.3789 L 37.4023 -49.3652 C 37.3047 -51.5137 35.7422 -53.2715 33.7891 -53.2715 C 31.8359 -53.2715 30.3223 -51.5137 30.4199 -49.3164 L 31.4941 -13.2812 C 31.5918 -11.0352 33.0566 -9.375 35.0098 -9.375 Z M 46.0938 -9.375 C 47.998 -9.375 49.5605 -11.1328 49.5605 -13.2324 L 49.5605 -49.4141 C 49.5605 -51.5137 47.998 -53.2715 46.0938 -53.2715 C 44.1895 -53.2715 42.5781 -51.5137 42.5781 -49.4141 L 42.5781 -13.2324 C 42.5781 -11.1328 44.1895 -9.375 46.0938 -9.375 Z"/>
  </g>
  <g id="Bold-S" transform="matrix(1 0 0 1 2294.91 696)">
   <path d="M 73.9746 -5.17578 L 76.416 -58.8867 L 79.6875 -58.8867 C 82.3242 -58.8867 84.2773 -60.791 84.2773 -63.4277 C 84.2773 -65.9668 82.3242 -67.8711 79.6875 -67.8711 L 63.7207 -67.8711 L 63.7207 -72.0215 C 63.7207 -78.7109 58.9844 -83.0566 51.2695 -83.0566 L 38.8184 -83.0566 C 31.1035 -83.0566 26.416 -78.7109 26.416 -72.0215 L 26.416 -67.8711 L 10.4492 -67.8711 C 7.86133 -67.8711 5.85938 -65.9668 5.85938 -63.4277 C 5.85938 -60.791 7.86133 -58.8867 10.4492 -58.8867 L 13.7207 -58.8867 L 16.1621 -5.17578 C 16.4551 1.66016 20.5566 5.32227 27.3438 5.32227 L 62.793 5.32227 C 69.5801 5.32227 73.6816 1.61133 73.9746 -5.17578 Z M 35.8887 -71.6797 C 35.8887 -73.584 37.3047 -74.9023 39.3066 -74.9023 L 50.8301 -74.9023 C 52.832 -74.9023 54.248 -73.584 54.248 -71.6797 L 54.2969 -67.8711 L 35.8398 -67.8711 Z M 28.6133 -3.85742 C 26.709 -3.85742 25.4883 -5.17578 25.3906 -7.37305 L 22.998 -58.8867 L 67.041 -58.8867 L 64.7461 -7.37305 C 64.6484 -5.12695 63.4766 -3.85742 61.5234 -3.85742 Z M 56.2012 -9.13086 C 57.959 -9.13086 59.2773 -10.6445 59.375 -12.6953 L 60.498 -49.8047 C 60.5469 -51.7578 59.1797 -53.3691 57.373 -53.3691 C 55.6641 -53.3691 54.248 -51.7578 54.1504 -49.8047 L 53.0762 -12.7441 C 52.9785 -10.7422 54.3945 -9.13086 56.2012 -9.13086 Z M 33.9355 -9.13086 C 35.7422 -9.13086 37.1582 -10.7422 37.1094 -12.7441 L 35.9863 -49.8047 C 35.8887 -51.7578 34.4727 -53.3691 32.7637 -53.3691 C 30.957 -53.3691 29.5898 -51.7578 29.6875 -49.8047 L 30.7617 -12.6953 C 30.8594 -10.6445 32.1777 -9.13086 33.9355 -9.13086 Z M 45.0684 -9.13086 C 46.8262 -9.13086 48.2422 -10.7422 48.2422 -12.6465 L 48.2422 -49.8535 C 48.2422 -51.7578 46.8262 -53.3691 45.0684 -53.3691 C 43.3594 -53.3691 41.8945 -51.7578 41.8945 -49.8535 L 41.8945 -12.6465 C 41.8945 -10.7422 43.3594 -9.13086 45.0684 -9.13086 Z"/>
  </g>
  <g id="Semibold-S" transform="matrix(1 0 0 1 1998.88 696)">
   <path d="M 72.8027 -5.27344 L 75.2441 -59.3262 L 78.8086 -59.3262 C 81.1035 -59.3262 82.9102 -61.084 82.9102 -63.4277 C 82.9102 -65.7227 81.1035 -67.4316 78.8086 -67.4316 L 62.4023 -67.4316 L 62.4023 -72.1191 C 62.4023 -78.4668 58.0078 -82.5684 50.8789 -82.5684 L 37.793 -82.5684 C 30.6641 -82.5684 26.2695 -78.4668 26.2695 -72.1191 L 26.2695 -67.4316 L 9.96094 -67.4316 C 7.66602 -67.4316 5.85938 -65.7227 5.85938 -63.4277 C 5.85938 -61.084 7.66602 -59.3262 9.96094 -59.3262 L 13.5254 -59.3262 L 15.9668 -5.22461 C 16.3086 1.2207 20.2148 4.83398 26.709 4.83398 L 62.1094 4.83398 C 68.5059 4.83398 72.4609 1.2207 72.8027 -5.27344 Z M 34.8633 -71.7285 C 34.8633 -73.6816 36.2793 -75 38.3301 -75 L 50.3906 -75 C 52.4414 -75 53.8574 -73.6816 53.8574 -71.7285 L 53.9062 -67.4316 L 34.8145 -67.4316 Z M 27.7344 -3.36914 C 25.7812 -3.36914 24.4629 -4.73633 24.3652 -6.93359 L 21.875 -59.3262 L 66.748 -59.3262 L 64.4043 -6.93359 C 64.3066 -4.73633 63.0371 -3.36914 60.9863 -3.36914 Z M 55.5664 -8.98438 C 57.2266 -8.98438 58.4473 -10.3516 58.4961 -12.2559 L 59.6191 -50.0977 C 59.668 -51.9531 58.3984 -53.3691 56.7383 -53.3691 C 55.127 -53.3691 53.8086 -51.9043 53.7598 -50.0977 L 52.6855 -12.3047 C 52.5879 -10.4492 53.9062 -8.98438 55.5664 -8.98438 Z M 33.2031 -8.98438 C 34.8633 -8.98438 36.1816 -10.4492 36.084 -12.3047 L 35.0098 -50.0977 C 34.9121 -51.9043 33.5938 -53.3691 32.0312 -53.3691 C 30.3711 -53.3691 29.1016 -51.9531 29.1504 -50.0977 L 30.2734 -12.2559 C 30.3223 -10.3516 31.543 -8.98438 33.2031 -8.98438 Z M 44.3848 -8.98438 C 45.9961 -8.98438 47.3633 -10.4492 47.3633 -12.2559 L 47.3633 -50.1465 C 47.3633 -51.9043 45.9961 -53.3691 44.3848 -53.3691 C 42.7734 -53.3691 41.4062 -51.9043 41.4062 -50.1465 L 41.4062 -12.2559 C 41.4062 -10.4492 42.7734 -8.98438 44.3848 -8.98438 Z"/>
  </g>
  <g id="Medium-S" transform="matrix(1 0 0 1 1702.71 696)">
   <path d="M 71.875 -5.32227 L 74.3652 -59.668 L 78.125 -59.668 C 80.2246 -59.668 81.8359 -61.3281 81.8359 -63.4277 C 81.8359 -65.4785 80.2246 -67.1387 78.125 -67.1387 L 61.4258 -67.1387 L 61.4258 -72.2168 C 61.4258 -78.3203 57.2754 -82.1777 50.5859 -82.1777 L 37.0117 -82.1777 C 30.3223 -82.1777 26.2207 -78.3203 26.2207 -72.2168 L 26.2207 -67.1387 L 9.57031 -67.1387 C 7.51953 -67.1387 5.85938 -65.4785 5.85938 -63.4277 C 5.85938 -61.3281 7.51953 -59.668 9.57031 -59.668 L 13.3301 -59.668 L 15.8691 -5.27344 C 16.1621 0.927734 19.9707 4.49219 26.1719 4.49219 L 61.5723 4.49219 C 67.7246 4.49219 71.582 0.878906 71.875 -5.32227 Z M 34.1309 -71.7773 C 34.1309 -73.7305 35.5469 -75.0488 37.5488 -75.0488 L 50.0977 -75.0488 C 52.1484 -75.0488 53.5645 -73.7305 53.5645 -71.7773 L 53.5645 -67.1387 L 34.082 -67.1387 Z M 27.0508 -2.97852 C 25.0488 -2.97852 23.6328 -4.44336 23.5352 -6.5918 L 21.0449 -59.668 L 66.5039 -59.668 L 64.1602 -6.5918 C 64.0625 -4.39453 62.6953 -2.97852 60.5957 -2.97852 Z M 55.0781 -8.88672 C 56.6406 -8.88672 57.7637 -10.1562 57.8125 -11.9629 L 58.9355 -50.3418 C 58.9844 -52.0508 57.8125 -53.418 56.2012 -53.418 C 54.7363 -53.418 53.5156 -52.0508 53.4668 -50.3418 L 52.3438 -11.9629 C 52.2949 -10.2539 53.5156 -8.88672 55.0781 -8.88672 Z M 32.6172 -8.88672 C 34.2285 -8.88672 35.4004 -10.2539 35.3516 -11.9629 L 34.2285 -50.3418 C 34.1797 -52.0508 32.959 -53.418 31.4941 -53.418 C 29.9316 -53.418 28.7109 -52.0996 28.7598 -50.3418 L 29.8828 -11.9629 C 29.9316 -10.1562 31.0547 -8.88672 32.6172 -8.88672 Z M 43.8477 -8.88672 C 45.4102 -8.88672 46.6797 -10.2539 46.6797 -11.9629 L 46.6797 -50.3418 C 46.6797 -52.0508 45.4102 -53.418 43.8477 -53.418 C 42.334 -53.418 41.0645 -52.0508 41.0645 -50.3418 L 41.0645 -11.9629 C 41.0645 -10.2539 42.334 -8.88672 43.8477 -8.88672 Z"/>
  </g>
  <g id="Regular-S" transform="matrix(1 0 0 1 1406.68 696)">
   <path d="M 70.7031 -5.41992 L 73.1934 -60.1562 L 77.2461 -60.1562 C 79.0527 -60.1562 80.4688 -61.6211 80.4688 -63.4277 C 80.4688 -65.2344 79.0527 -66.6992 77.2461 -66.6992 L 60.1074 -66.6992 L 60.1074 -72.2656 C 60.1074 -78.0762 56.3477 -81.6406 50.2441 -81.6406 L 36.0352 -81.6406 C 29.8828 -81.6406 26.123 -78.0762 26.123 -72.2656 L 26.123 -66.6992 L 9.08203 -66.6992 C 7.37305 -66.6992 5.85938 -65.2344 5.85938 -63.4277 C 5.85938 -61.6211 7.37305 -60.1562 9.08203 -60.1562 L 13.1348 -60.1562 L 15.6738 -5.37109 C 15.9668 0.488281 19.6289 4.05273 25.5371 4.05273 L 60.8398 4.05273 C 66.6504 4.05273 70.4102 0.439453 70.7031 -5.41992 Z M 33.1055 -71.8262 C 33.1055 -73.7793 34.5215 -75.1465 36.5723 -75.1465 L 49.707 -75.1465 C 51.7578 -75.1465 53.1738 -73.7793 53.1738 -71.8262 L 53.1738 -66.6992 L 33.1055 -66.6992 Z M 26.1719 -2.49023 C 24.1211 -2.49023 22.6074 -4.00391 22.5098 -6.15234 L 19.9707 -60.1562 L 66.2109 -60.1562 L 63.8184 -6.15234 C 63.7207 -3.95508 62.2559 -2.49023 60.1074 -2.49023 Z M 54.4922 -8.74023 C 55.9082 -8.74023 56.9336 -9.91211 56.9824 -11.5234 L 58.0566 -50.6348 C 58.1055 -52.2461 57.0312 -53.4668 55.5664 -53.4668 C 54.248 -53.4668 53.125 -52.1973 53.0762 -50.6348 L 51.9531 -11.5723 C 51.9043 -10.0098 53.0273 -8.74023 54.4922 -8.74023 Z M 31.8848 -8.74023 C 33.3496 -8.74023 34.4238 -10.0098 34.375 -11.5723 L 33.3008 -50.6348 C 33.252 -52.1973 32.0801 -53.4668 30.7617 -53.4668 C 29.2969 -53.4668 28.2227 -52.2461 28.2715 -50.6348 L 29.3945 -11.5234 C 29.4434 -9.91211 30.4688 -8.74023 31.8848 -8.74023 Z M 43.1641 -8.74023 C 44.5801 -8.74023 45.752 -10.0098 45.752 -11.5234 L 45.752 -50.6348 C 45.752 -52.1973 44.5801 -53.4668 43.1641 -53.4668 C 41.748 -53.4668 40.5762 -52.1973 40.5762 -50.6348 L 40.5762 -11.5234 C 40.5762 -10.0098 41.748 -8.74023 43.1641 -8.74023 Z"/>
  </g>
  <g id="Light-S" transform="matrix(1 0 0 1 1110.48 696)">
   <path d="M 69.1406 -4.78516 L 71.875 -61.1816 L 76.9531 -61.1816 C 78.3203 -61.1816 79.4434 -62.3047 79.4434 -63.7207 C 79.4434 -65.0879 78.3203 -66.2598 76.9531 -66.2598 L 59.1309 -66.2598 L 59.1309 -72.1191 C 59.1309 -77.3926 55.5176 -80.8594 49.8047 -80.8594 L 35.4492 -80.8594 C 29.7363 -80.8594 26.123 -77.3926 26.123 -72.1191 L 26.123 -66.2598 L 8.39844 -66.2598 C 7.03125 -66.2598 5.85938 -65.0879 5.85938 -63.7207 C 5.85938 -62.3047 7.03125 -61.1816 8.39844 -61.1816 L 13.4766 -61.1816 L 16.2109 -4.73633 C 16.4551 0.439453 19.9707 3.85742 25.2441 3.85742 L 60.1074 3.85742 C 65.332 3.85742 68.8965 0.390625 69.1406 -4.78516 Z M 31.543 -71.8262 C 31.543 -74.1699 33.252 -75.8789 35.791 -75.8789 L 49.4629 -75.8789 C 52.0508 -75.8789 53.7598 -74.1699 53.7598 -71.8262 L 53.7598 -66.2598 L 31.543 -66.2598 Z M 25.6836 -1.2207 C 23.3887 -1.2207 21.582 -2.97852 21.4844 -5.32227 L 18.75 -61.1816 L 66.5039 -61.1816 L 63.8672 -5.32227 C 63.7695 -2.97852 62.0117 -1.2207 59.6191 -1.2207 Z M 54.0527 -8.30078 C 55.1758 -8.30078 56.0547 -9.22852 56.0547 -10.5469 L 57.2754 -51.5137 C 57.3242 -52.7832 56.4453 -53.7598 55.2734 -53.7598 C 54.1992 -53.7598 53.3203 -52.7344 53.2715 -51.5625 L 52.0508 -10.5957 C 52.0508 -9.32617 52.8809 -8.30078 54.0527 -8.30078 Z M 31.2988 -8.30078 C 32.4219 -8.30078 33.3008 -9.32617 33.3008 -10.5957 L 32.0801 -51.5625 C 32.0312 -52.7344 31.1035 -53.7598 30.0293 -53.7598 C 28.9062 -53.7598 28.0273 -52.7832 28.0762 -51.5137 L 29.2969 -10.5469 C 29.2969 -9.22852 30.127 -8.30078 31.2988 -8.30078 Z M 42.6758 -8.30078 C 43.7988 -8.30078 44.7266 -9.32617 44.7266 -10.5469 L 44.7266 -51.5137 C 44.7266 -52.7344 43.7988 -53.7598 42.6758 -53.7598 C 41.5527 -53.7598 40.625 -52.7344 40.625 -51.5137 L 40.625 -10.5469 C 40.625 -9.32617 41.5527 -8.30078 42.6758 -8.30078 Z"/>
  </g>
  <g id="Thin-S" transform="matrix(1 0 0 1 814.43 696)">
   <path d="M 67.1387 -3.95508 L 70.166 -62.5 L 76.5625 -62.5 C 77.4414 -62.5 78.125 -63.1836 78.125 -64.0625 C 78.125 -64.9414 77.4414 -65.625 76.5625 -65.625 L 57.8613 -65.625 L 57.8613 -71.9238 C 57.8613 -76.5137 54.4434 -79.834 49.3164 -79.834 L 34.6191 -79.834 C 29.4922 -79.834 26.123 -76.5137 26.123 -71.9238 L 26.123 -65.625 L 7.42188 -65.625 C 6.5918 -65.625 5.85938 -64.8926 5.85938 -64.0625 C 5.85938 -63.1836 6.5918 -62.5 7.42188 -62.5 L 13.8672 -62.5 L 16.8945 -3.95508 C 17.0898 0.390625 20.459 3.61328 24.8535 3.61328 L 59.1797 3.61328 C 63.5254 3.61328 66.9434 0.390625 67.1387 -3.95508 Z M 29.3945 -71.7773 C 29.3945 -74.6582 31.543 -76.7578 34.7656 -76.7578 L 49.1699 -76.7578 C 52.3926 -76.7578 54.5898 -74.6582 54.5898 -71.7773 L 54.5898 -65.625 L 29.3945 -65.625 Z M 25.0488 0.488281 C 22.4121 0.488281 20.2637 -1.66016 20.1172 -4.24805 L 17.1387 -62.5 L 66.8457 -62.5 L 63.916 -4.24805 C 63.7695 -1.61133 61.6699 0.488281 58.9844 0.488281 Z M 53.5156 -7.8125 C 54.2969 -7.8125 54.8828 -8.39844 54.8828 -9.17969 L 56.25 -52.6367 C 56.25 -53.4668 55.6641 -54.1016 54.8828 -54.1016 C 54.1504 -54.1016 53.5645 -53.4668 53.5156 -52.7344 L 52.1973 -9.32617 C 52.1973 -8.44727 52.7344 -7.8125 53.5156 -7.8125 Z M 30.4688 -7.8125 C 31.25 -7.8125 31.8359 -8.44727 31.8359 -9.32617 L 30.4688 -52.7344 C 30.4688 -53.4668 29.834 -54.1016 29.1016 -54.1016 C 28.3203 -54.1016 27.7832 -53.5156 27.7832 -52.6367 L 29.1504 -9.17969 C 29.1504 -8.39844 29.7363 -7.8125 30.4688 -7.8125 Z M 42.041 -7.8125 C 42.7734 -7.8125 43.4082 -8.44727 43.4082 -9.22852 L 43.4082 -52.6855 C 43.4082 -53.4668 42.7734 -54.1016 42.041 -54.1016 C 41.3086 -54.1016 40.625 -53.4668 40.625 -52.6855 L 40.625 -9.22852 C 40.625 -8.44727 41.3086 -7.8125 42.041 -7.8125 Z"/>
  </g>
  <g id="Ultralight-S" transform="matrix(1 0 0 1 518.085 696)">
   <path d="M 66.1133 -3.51562 L 69.2383 -63.2324 L 76.3672 -63.2324 C 76.9531 -63.2324 77.3926 -63.6719 77.3926 -64.2578 C 77.3926 -64.8438 76.9531 -65.2832 76.3672 -65.2832 L 57.1777 -65.2832 L 57.1777 -71.8262 C 57.1777 -76.0742 53.9062 -79.2969 49.0234 -79.2969 L 34.2285 -79.2969 C 29.3945 -79.2969 26.123 -76.0742 26.123 -71.8262 L 26.123 -65.2832 L 6.93359 -65.2832 C 6.34766 -65.2832 5.85938 -64.7949 5.85938 -64.2578 C 5.85938 -63.6719 6.34766 -63.2324 6.93359 -63.2324 L 14.1113 -63.2324 L 17.2363 -3.51562 C 17.4316 0.341797 20.7031 3.4668 24.6582 3.4668 L 58.6426 3.4668 C 62.5977 3.4668 65.918 0.341797 66.1133 -3.51562 Z M 28.3203 -71.7773 C 28.3203 -74.9023 30.6641 -77.2461 34.2285 -77.2461 L 49.0234 -77.2461 C 52.5879 -77.2461 54.9805 -74.9023 54.9805 -71.7773 L 54.9805 -65.2832 L 28.3203 -65.2832 Z M 24.7559 1.36719 C 21.875 1.36719 19.5312 -0.927734 19.3848 -3.71094 L 16.3086 -63.2324 L 67.041 -63.2324 L 63.9648 -3.71094 C 63.8184 -0.927734 61.4746 1.36719 58.6426 1.36719 Z M 53.2227 -7.51953 C 53.8086 -7.51953 54.2969 -7.95898 54.2969 -8.49609 L 55.7129 -53.2227 C 55.7129 -53.8086 55.2734 -54.2969 54.6875 -54.2969 C 54.1016 -54.2969 53.6621 -53.8574 53.6621 -53.3203 L 52.2949 -8.64258 C 52.2949 -8.00781 52.6367 -7.51953 53.2227 -7.51953 Z M 30.0781 -7.51953 C 30.6641 -7.51953 31.1035 -8.00781 31.1035 -8.64258 L 29.6387 -53.3203 C 29.6387 -53.8574 29.1504 -54.2969 28.5645 -54.2969 C 28.0273 -54.2969 27.6367 -53.8574 27.6367 -53.2227 L 29.0527 -8.49609 C 29.0527 -7.95898 29.4922 -7.51953 30.0781 -7.51953 Z M 41.6992 -7.51953 C 42.2363 -7.51953 42.6758 -8.00781 42.6758 -8.54492 L 42.6758 -53.2715 C 42.6758 -53.8574 42.2363 -54.2969 41.6992 -54.2969 C 41.1621 -54.2969 40.6738 -53.8574 40.6738 -53.2715 L 40.6738 -8.54492 C 40.6738 -8.00781 41.1621 -7.51953 41.6992 -7.51953 Z"/>
  </g>
 </g>
</svg>
