<?xml version="1.0" encoding="UTF-8"?>
<!--Generator: Apple Native CoreSVG 175.5-->
<!DOCTYPE svg
PUBLIC "-//W3C//DTD SVG 1.1//EN"
       "http://www.w3.org/Graphics/SVG/1.1/DTD/svg11.dtd">
<svg version="1.1" xmlns="http://www.w3.org/2000/svg" xmlns:xlink="http://www.w3.org/1999/xlink" width="3300" height="2200">
 <!--glyph: "uni100BF6.medium", point size: 100.0, font version: "18.0d12e2", template writer version: "101"-->
 <g id="Notes">
  <rect height="2200" id="artboard" style="fill:white;opacity:1" width="3300" x="0" y="0"/>
  <line style="fill:none;stroke:black;opacity:1;stroke-width:0.5;" x1="263" x2="3036" y1="292" y2="292"/>
  <text style="stroke:none;fill:black;font-family:sans-serif;font-size:13;font-weight:bold;" transform="matrix(1 0 0 1 263 322)">Weight/Scale Variations</text>
  <text style="stroke:none;fill:black;font-family:sans-serif;font-size:13;text-anchor:middle;" transform="matrix(1 0 0 1 559.711 322)">Ultralight</text>
  <text style="stroke:none;fill:black;font-family:sans-serif;font-size:13;text-anchor:middle;" transform="matrix(1 0 0 1 856.422 322)">Thin</text>
  <text style="stroke:none;fill:black;font-family:sans-serif;font-size:13;text-anchor:middle;" transform="matrix(1 0 0 1 1153.13 322)">Light</text>
  <text style="stroke:none;fill:black;font-family:sans-serif;font-size:13;text-anchor:middle;" transform="matrix(1 0 0 1 1449.84 322)">Regular</text>
  <text style="stroke:none;fill:black;font-family:sans-serif;font-size:13;text-anchor:middle;" transform="matrix(1 0 0 1 1746.56 322)">Medium</text>
  <text style="stroke:none;fill:black;font-family:sans-serif;font-size:13;text-anchor:middle;" transform="matrix(1 0 0 1 2043.27 322)">Semibold</text>
  <text style="stroke:none;fill:black;font-family:sans-serif;font-size:13;text-anchor:middle;" transform="matrix(1 0 0 1 2339.98 322)">Bold</text>
  <text style="stroke:none;fill:black;font-family:sans-serif;font-size:13;text-anchor:middle;" transform="matrix(1 0 0 1 2636.69 322)">Heavy</text>
  <text style="stroke:none;fill:black;font-family:sans-serif;font-size:13;text-anchor:middle;" transform="matrix(1 0 0 1 2933.4 322)">Black</text>
  <line style="fill:none;stroke:black;opacity:1;stroke-width:0.5;" x1="263" x2="3036" y1="1903" y2="1903"/>
  <g transform="matrix(1 0 0 1 263 1933)">
   <path d="M9.24805 0.830078C13.5547 0.830078 17.1387-2.74414 17.1387-7.05078C17.1387-11.3574 13.5449-14.9316 9.23828-14.9316C4.94141-14.9316 1.36719-11.3574 1.36719-7.05078C1.36719-2.74414 4.95117 0.830078 9.24805 0.830078ZM9.24805-0.654297C5.70312-0.654297 2.87109-3.49609 2.87109-7.05078C2.87109-10.6055 5.69336-13.4473 9.23828-13.4473C12.793-13.4473 15.6445-10.6055 15.6445-7.05078C15.6445-3.49609 12.8027-0.654297 9.24805-0.654297ZM5.6543-7.05078C5.6543-6.62109 5.95703-6.32812 6.40625-6.32812L8.50586-6.32812L8.50586-4.20898C8.50586-3.76953 8.79883-3.4668 9.22852-3.4668C9.67773-3.4668 9.9707-3.76953 9.9707-4.20898L9.9707-6.32812L12.0898-6.32812C12.5293-6.32812 12.832-6.62109 12.832-7.05078C12.832-7.49023 12.5293-7.79297 12.0898-7.79297L9.9707-7.79297L9.9707-9.90234C9.9707-10.3516 9.67773-10.6543 9.22852-10.6543C8.79883-10.6543 8.50586-10.3516 8.50586-9.90234L8.50586-7.79297L6.40625-7.79297C5.95703-7.79297 5.6543-7.49023 5.6543-7.05078Z"/>
  </g>
  <g transform="matrix(1 0 0 1 281.867 1933)">
   <path d="M11.709 2.91016C17.1582 2.91016 21.6699-1.61133 21.6699-7.05078C21.6699-12.5 17.1484-17.0117 11.6992-17.0117C6.25977-17.0117 1.74805-12.5 1.74805-7.05078C1.74805-1.61133 6.26953 2.91016 11.709 2.91016ZM11.709 1.25C7.09961 1.25 3.41797-2.44141 3.41797-7.05078C3.41797-11.6602 7.08984-15.3516 11.6992-15.3516C16.3086-15.3516 20.0098-11.6602 20.0098-7.05078C20.0098-2.44141 16.3184 1.25 11.709 1.25ZM7.17773-7.05078C7.17773-6.57227 7.50977-6.25 8.00781-6.25L10.8789-6.25L10.8789-3.36914C10.8789-2.88086 11.2109-2.53906 11.6895-2.53906C12.1777-2.53906 12.5195-2.87109 12.5195-3.36914L12.5195-6.25L15.4004-6.25C15.8887-6.25 16.2305-6.57227 16.2305-7.05078C16.2305-7.53906 15.8887-7.88086 15.4004-7.88086L12.5195-7.88086L12.5195-10.752C12.5195-11.25 12.1777-11.5918 11.6895-11.5918C11.2109-11.5918 10.8789-11.25 10.8789-10.752L10.8789-7.88086L8.00781-7.88086C7.50977-7.88086 7.17773-7.53906 7.17773-7.05078Z"/>
  </g>
  <g transform="matrix(1 0 0 1 305.646 1933)">
   <path d="M14.9707 5.66406C21.9336 5.66406 27.6953-0.0976562 27.6953-7.05078C27.6953-14.0137 21.9238-19.7754 14.9609-19.7754C8.00781-19.7754 2.25586-14.0137 2.25586-7.05078C2.25586-0.0976562 8.01758 5.66406 14.9707 5.66406ZM14.9707 3.84766C8.93555 3.84766 4.08203-1.01562 4.08203-7.05078C4.08203-13.0957 8.92578-17.9492 14.9609-17.9492C21.0059-17.9492 25.8691-13.0957 25.8691-7.05078C25.8691-1.01562 21.0156 3.84766 14.9707 3.84766ZM9.19922-7.05078C9.19922-6.5332 9.57031-6.17188 10.1172-6.17188L14.0625-6.17188L14.0625-2.2168C14.0625-1.67969 14.4336-1.29883 14.9512-1.29883C15.4883-1.29883 15.8594-1.66992 15.8594-2.2168L15.8594-6.17188L19.8145-6.17188C20.3516-6.17188 20.7324-6.5332 20.7324-7.05078C20.7324-7.59766 20.3613-7.96875 19.8145-7.96875L15.8594-7.96875L15.8594-11.9141C15.8594-12.4609 15.4883-12.8418 14.9512-12.8418C14.4336-12.8418 14.0625-12.4609 14.0625-11.9141L14.0625-7.96875L10.1172-7.96875C9.57031-7.96875 9.19922-7.59766 9.19922-7.05078Z"/>
  </g>
  <text style="stroke:none;fill:black;font-family:sans-serif;font-size:13;font-weight:bold;" transform="matrix(1 0 0 1 263 1953)">Design Variations</text>
  <text style="stroke:none;fill:black;font-family:sans-serif;font-size:13;" transform="matrix(1 0 0 1 263 1971)">Symbols are supported in up to nine weights and three scales.</text>
  <text style="stroke:none;fill:black;font-family:sans-serif;font-size:13;" transform="matrix(1 0 0 1 263 1989)">For optimal layout with text and other symbols, vertically align</text>
  <text style="stroke:none;fill:black;font-family:sans-serif;font-size:13;" transform="matrix(1 0 0 1 263 2007)">symbols with the adjacent text.</text>
  <line style="fill:none;stroke:#00AEEF;stroke-width:0.5;opacity:1.0;" x1="776" x2="776" y1="1919" y2="1933"/>
  <g transform="matrix(1 0 0 1 776 1933)">
   <path d="M3.31055 0.15625C3.82812 0.15625 4.08203-0.0390625 4.26758-0.585938L5.52734-4.0332L11.2891-4.0332L12.5488-0.585938C12.7344-0.0390625 12.9883 0.15625 13.4961 0.15625C14.0137 0.15625 14.3457-0.15625 14.3457-0.644531C14.3457-0.810547 14.3164-0.966797 14.2383-1.17188L9.6582-13.3691C9.43359-13.9648 9.0332-14.2676 8.4082-14.2676C7.80273-14.2676 7.39258-13.9746 7.17773-13.3789L2.59766-1.16211C2.51953-0.957031 2.49023-0.800781 2.49023-0.634766C2.49023-0.146484 2.80273 0.15625 3.31055 0.15625ZM6.00586-5.51758L8.37891-12.0898L8.42773-12.0898L10.8008-5.51758Z"/>
  </g>
  <line style="fill:none;stroke:#00AEEF;stroke-width:0.5;opacity:1.0;" x1="793.197" x2="793.197" y1="1919" y2="1933"/>
  <text style="stroke:none;fill:black;font-family:sans-serif;font-size:13;font-weight:bold;" transform="matrix(1 0 0 1 776 1953)">Margins</text>
  <text style="stroke:none;fill:black;font-family:sans-serif;font-size:13;" transform="matrix(1 0 0 1 776 1971)">Leading and trailing margins on the left and right side of each symbol</text>
  <text style="stroke:none;fill:black;font-family:sans-serif;font-size:13;" transform="matrix(1 0 0 1 776 1989)">can be adjusted by modifying the x-location of the margin guidelines.</text>
  <text style="stroke:none;fill:black;font-family:sans-serif;font-size:13;" transform="matrix(1 0 0 1 776 2007)">Modifications are automatically applied proportionally to all</text>
  <text style="stroke:none;fill:black;font-family:sans-serif;font-size:13;" transform="matrix(1 0 0 1 776 2025)">scales and weights.</text>
  <g transform="matrix(1 0 0 1 1289 1933)">
   <path d="M2.8418 1.86523L4.54102 3.57422C5.40039 4.44336 6.38672 4.38477 7.31445 3.35938L18.0078-8.42773L17.041-9.4043L6.42578 2.27539C6.07422 2.67578 5.74219 2.77344 5.27344 2.30469L4.10156 1.14258C3.63281 0.683594 3.74023 0.341797 4.14062-0.0195312L15.6152-10.8203L14.6387-11.7871L3.04688-0.898438C2.06055 0.0195312 1.98242 0.996094 2.8418 1.86523ZM9.25781-16.3281C8.83789-15.918 8.80859-15.3418 9.04297-14.9512C9.27734-14.5898 9.73633-14.3555 10.3809-14.5215C11.8457-14.8633 13.3691-14.9219 14.7949-13.9844L14.209-12.5293C13.8672-11.6992 14.043-11.1133 14.5801-10.5664L16.875-8.25195C17.3633-7.76367 17.7734-7.74414 18.3398-7.8418L19.4043-8.03711L20.0684-7.36328L20.0293-6.80664C19.9902-6.30859 20.1172-5.92773 20.6055-5.44922L21.3672-4.70703C21.8457-4.22852 22.4609-4.19922 22.9297-4.66797L25.8398-7.58789C26.3086-8.05664 26.2891-8.65234 25.8105-9.13086L25.0391-9.89258C24.5605-10.3711 24.1895-10.5273 23.7109-10.4883L23.1348-10.4395L22.4902-11.0742L22.7344-12.1973C22.8613-12.7637 22.7051-13.2031 22.1191-13.7891L19.9219-15.9766C16.582-19.2969 12.1484-19.2188 9.25781-16.3281ZM10.752-15.957C13.1836-17.7344 16.4746-17.4316 18.7012-15.2051L21.1328-12.793C21.3672-12.5586 21.4062-12.373 21.3379-12.0312L21.0156-10.5469L22.5195-9.0625L23.5059-9.12109C23.7598-9.13086 23.8379-9.11133 24.0332-8.91602L24.6094-8.33984L22.168-5.89844L21.5918-6.47461C21.3965-6.66992 21.3672-6.74805 21.377-7.01172L21.4453-7.98828L19.9512-9.47266L18.4277-9.21875C18.1055-9.15039 17.959-9.17969 17.7148-9.41406L15.7129-11.416C15.459-11.6504 15.4297-11.8164 15.5859-12.1875L16.4648-14.2773C14.9023-15.7324 12.8711-16.3574 10.8398-15.7617C10.6836-15.7227 10.625-15.8496 10.752-15.957Z"/>
  </g>
  <text style="stroke:none;fill:black;font-family:sans-serif;font-size:13;font-weight:bold;" transform="matrix(1 0 0 1 1289 1953)">Exporting</text>
  <text style="stroke:none;fill:black;font-family:sans-serif;font-size:13;" transform="matrix(1 0 0 1 1289 1971)">Symbols should be outlined when exporting to ensure the</text>
  <text style="stroke:none;fill:black;font-family:sans-serif;font-size:13;" transform="matrix(1 0 0 1 1289 1989)">design is preserved when submitting to Xcode.</text>
  <text id="template-version" style="stroke:none;fill:black;font-family:sans-serif;font-size:13;text-anchor:end;" transform="matrix(1 0 0 1 3036 1933)">Template v.4.0</text>
  <text style="stroke:none;fill:black;font-family:sans-serif;font-size:13;text-anchor:end;" transform="matrix(1 0 0 1 3036 1951)">Requires Xcode 14 or greater</text>
  <text id="descriptive-name" style="stroke:none;fill:black;font-family:sans-serif;font-size:13;text-anchor:end;" transform="matrix(1 0 0 1 3036 1969)">Generated from chevron.backward</text>
  <text style="stroke:none;fill:black;font-family:sans-serif;font-size:13;text-anchor:end;" transform="matrix(1 0 0 1 3036 1987)">Typeset at 100 points</text>
  <text style="stroke:none;fill:black;font-family:sans-serif;font-size:13;" transform="matrix(1 0 0 1 263 726)">Small</text>
  <text style="stroke:none;fill:black;font-family:sans-serif;font-size:13;" transform="matrix(1 0 0 1 263 1156)">Medium</text>
  <text style="stroke:none;fill:black;font-family:sans-serif;font-size:13;" transform="matrix(1 0 0 1 263 1586)">Large</text>
 </g>
 <g id="Guides">
  <g id="H-reference" style="fill:#27AAE1;stroke:none;" transform="matrix(1 0 0 1 339 696)">
   <path d="M0.993654 0L3.63775 0L29.3281-67.1323L30.0303-67.1323L30.0303-70.459L28.1226-70.459ZM11.6885-24.4799L46.9815-24.4799L46.2315-26.7285L12.4385-26.7285ZM55.1196 0L57.7637 0L30.6382-70.459L29.4326-70.459L29.4326-67.1323Z"/>
  </g>
  <line id="Baseline-S" style="fill:none;stroke:#27AAE1;opacity:1;stroke-width:0.5;" x1="263" x2="3036" y1="696" y2="696"/>
  <line id="Capline-S" style="fill:none;stroke:#27AAE1;opacity:1;stroke-width:0.5;" x1="263" x2="3036" y1="625.541" y2="625.541"/>
  <g id="H-reference" style="fill:#27AAE1;stroke:none;" transform="matrix(1 0 0 1 339 1126)">
   <path d="M0.993654 0L3.63775 0L29.3281-67.1323L30.0303-67.1323L30.0303-70.459L28.1226-70.459ZM11.6885-24.4799L46.9815-24.4799L46.2315-26.7285L12.4385-26.7285ZM55.1196 0L57.7637 0L30.6382-70.459L29.4326-70.459L29.4326-67.1323Z"/>
  </g>
  <line id="Baseline-M" style="fill:none;stroke:#27AAE1;opacity:1;stroke-width:0.5;" x1="263" x2="3036" y1="1126" y2="1126"/>
  <line id="Capline-M" style="fill:none;stroke:#27AAE1;opacity:1;stroke-width:0.5;" x1="263" x2="3036" y1="1055.54" y2="1055.54"/>
  <g id="H-reference" style="fill:#27AAE1;stroke:none;" transform="matrix(1 0 0 1 339 1556)">
   <path d="M0.993654 0L3.63775 0L29.3281-67.1323L30.0303-67.1323L30.0303-70.459L28.1226-70.459ZM11.6885-24.4799L46.9815-24.4799L46.2315-26.7285L12.4385-26.7285ZM55.1196 0L57.7637 0L30.6382-70.459L29.4326-70.459L29.4326-67.1323Z"/>
  </g>
  <line id="Baseline-L" style="fill:none;stroke:#27AAE1;opacity:1;stroke-width:0.5;" x1="263" x2="3036" y1="1556" y2="1556"/>
  <line id="Capline-L" style="fill:none;stroke:#27AAE1;opacity:1;stroke-width:0.5;" x1="263" x2="3036" y1="1485.54" y2="1485.54"/>
  <line id="left-margin-Regular-M" style="fill:none;stroke:#00AEEF;stroke-width:0.5;opacity:1.0;" x1="1413.52" x2="1413.52" y1="1030.79" y2="1150.12"/>
  <line id="right-margin-Regular-M" style="fill:none;stroke:#00AEEF;stroke-width:0.5;opacity:1.0;" x1="1486.17" x2="1486.17" y1="1030.79" y2="1150.12"/>
 </g>
 <g id="Symbols">
  <g id="Black-L" transform="matrix(1 0 0 1 2881.01 1556)">
   <path d="M6.87386-35.2697C6.87386-31.2394 8.29134-27.9563 11.7271-24.6177L58.0022 20.7978C60.4219 23.2383 63.3169 24.3418 66.7232 24.3418C73.7282 24.3418 79.4918 18.639 79.4918 11.7484C79.4918 8.2265 78.0171 5.00186 75.3066 2.32894L36.4252-35.3281L75.3066-72.8683C78.0755-75.5413 79.4918-78.7867 79.4918-82.2294C79.4918-89.12 73.7282-94.8228 66.7232-94.8228C63.2585-94.8228 60.4219-93.7193 58.0022-91.2788L11.7271-45.9217C8.34975-42.5831 6.93227-39.3585 6.87386-35.2697Z"/>
  </g>
  <g id="Heavy-L" transform="matrix(1 0 0 1 2585.67 1556)">
   <path d="M7.14954-35.2697C7.14954-31.8388 8.37511-29.0261 11.2567-26.2092L58.4245 19.9488C60.5062 22.0606 63.0367 23.0273 65.9957 23.0273C72.061 23.0273 77.0111 18.133 77.0111 12.1457C77.0111 9.10305 75.7466 6.33502 73.4474 4.05033L32.8322-35.3143L73.4474-74.5897C75.7912-76.8744 77.0111-79.6726 77.0111-82.6405C77.0111-88.6278 72.061-93.5221 65.9957-93.5221C62.992-93.5221 60.5062-92.5554 58.4245-90.4436L11.2567-44.3302C8.41974-41.5133 7.19416-38.7453 7.14954-35.2697Z"/>
  </g>
  <g id="Bold-L" transform="matrix(1 0 0 1 2290.65 1556)">
   <path d="M7.45793-35.2697C7.45793-32.5468 8.45276-30.3031 10.6877-28.1019L58.9024 18.7769C60.5764 20.4889 62.6536 21.2865 65.0668 21.2865C69.9792 21.2865 73.9525 17.3689 73.9525 12.4885C73.9525 10.0301 72.9417 7.81565 71.1349 6.00004L28.398-35.2989L71.1349-76.5394C72.9709-78.3551 73.9525-80.6074 73.9525-82.9987C73.9525-87.8791 69.9792-91.7967 65.0668-91.7967C62.6244-91.7967 60.5764-90.9991 58.9024-89.2871L10.6877-42.4375C8.48197-40.2363 7.48713-38.0218 7.45793-35.2697Z"/>
  </g>
  <g id="Semibold-L" transform="matrix(1 0 0 1 1995.1 1556)">
   <path d="M7.67053-35.2697C7.67053-33.0348 8.5063-31.1835 10.2954-29.4067L59.2318 17.969C60.6248 19.4054 62.3895 20.0865 64.4264 20.0865C68.544 20.0865 71.8439 16.8421 71.8439 12.7248C71.8439 10.6691 71.008 8.83639 69.5406 7.34417L25.3412-35.2883L69.5406-77.8836C71.0266-79.3758 71.8439-81.2519 71.8439-83.2456C71.8439-87.3629 68.544-90.6073 64.4264-90.6073C62.3709-90.6073 60.6248-89.9263 59.2318-88.4898L10.2954-41.1327C8.52487-39.3559 7.6891-37.5231 7.67053-35.2697Z"/>
  </g>
  <g id="Medium-L" transform="matrix(1 0 0 1 1699.26 1556)">
   <path d="M7.83173-35.2697C7.83173-33.4049 8.54689-31.8511 9.99796-30.396L59.4815 17.3564C60.6615 18.5839 62.1892 19.1765 63.9409 19.1765C67.4558 19.1765 70.245 16.4427 70.245 12.9039C70.245 11.1537 69.5418 9.61035 68.3318 8.36333L23.0233-35.2802L68.3318-78.9027C69.5523-80.1498 70.245-81.7406 70.245-83.4328C70.245-86.9716 67.4558-89.7054 63.9409-89.7054C62.1787-89.7054 60.6615-89.1127 59.4815-87.8853L9.99796-40.1434C8.5574-38.6883 7.84224-37.145 7.83173-35.2697Z"/>
  </g>
  <g id="Regular-L" transform="matrix(1 0 0 1 1403.7 1556)">
   <path d="M8.04199-35.2697C8.04199-33.8877 8.59983-32.7218 9.60998-31.6865L59.8073 16.5574C60.7094 17.5122 61.928 17.9897 63.3075 17.9897C66.0363 17.9897 68.1596 15.9217 68.1596 13.1376C68.1596 11.7858 67.6294 10.6199 66.755 9.69268L20-35.2697L66.755-80.2321C67.6294-81.1593 68.1596-82.3779 68.1596-83.677C68.1596-86.4611 66.0363-88.5291 63.3075-88.5291C61.928-88.5291 60.7094-88.0516 59.8073-87.0968L9.60998-38.8529C8.59983-37.8176 8.04199-36.6517 8.04199-35.2697Z"/>
  </g>
  <g id="Light-L" transform="matrix(1 0 0 1 1108 1556)">
   <path d="M8.04199-35.2697C8.04199-34.1549 8.48532-33.2943 9.30462-32.4881L59.8455 14.9733C60.5376 15.6991 61.4318 16.062 62.4869 16.062C64.4904 16.062 66.1366 14.5094 66.1366 12.4124C66.1366 11.4041 65.74 10.5435 65.0946 9.86445L17.0418-35.2697L65.0946-80.4039C65.74-81.0829 66.1366-81.9771 66.1366-82.9518C66.1366-85.0488 64.4904-86.6015 62.4869-86.6015C61.4318-86.6015 60.5376-86.2385 59.8455-85.5127L9.30462-38.0513C8.48532-37.2451 8.04199-36.3846 8.04199-35.2697Z"/>
  </g>
  <g id="Thin-L" transform="matrix(1 0 0 1 812.629 1556)">
   <path d="M8.04199-35.2697C8.04199-34.5082 8.33387-34.0516 8.90075-33.5482L59.896 12.8783C60.3104 13.3012 60.7755 13.5126 61.4015 13.5126C62.4458 13.5126 63.4609 12.6415 63.4609 11.4532C63.4609 10.8992 63.241 10.4426 62.8985 10.0916L13.1293-35.2697L62.8985-80.631C63.241-80.982 63.4609-81.4471 63.4609-81.9926C63.4609-83.1809 62.4458-84.052 61.4015-84.052C60.7755-84.052 60.3104-83.8406 59.896-83.4177L8.90075-36.9912C8.33387-36.4878 8.04199-36.0312 8.04199-35.2697Z"/>
  </g>
  <g id="Ultralight-L" transform="matrix(1 0 0 1 516.603 1556)">
   <path d="M8.04199-35.2697C8.04199-34.6892 8.2563-34.4394 8.69389-34.0913L59.9218 11.8052C60.1941 12.0729 60.4394 12.2068 60.8455 12.2068C61.3986 12.2068 62.0905 11.6848 62.0905 10.9619C62.0905 10.6406 61.9611 10.3908 61.7737 10.208L11.1254-35.2697L61.7737-80.7474C61.9611-80.9302 62.0905-81.1756 62.0905-81.5013C62.0905-82.2242 61.3986-82.7462 60.8455-82.7462C60.4394-82.7462 60.1941-82.6123 59.9218-82.3446L8.69389-36.4482C8.2563-36.1 8.04199-35.8502 8.04199-35.2697Z"/>
  </g>
  <g id="Black-M" transform="matrix(1 0 0 1 2891.76 1126)">
   <path d="M5.08854-35.2606C5.08854-31.6592 6.33614-28.7528 9.44841-25.749L44.5789 8.69228C46.7156 10.8345 49.2279 11.7914 52.2073 11.7914C58.3438 11.7914 63.4434 6.74826 63.4434 0.726544C63.4434-2.36735 62.1384-5.21667 59.716-7.58754L30.9072-35.3177L59.716-62.9337C62.1955-65.3046 63.4434-68.1594 63.4434-71.1907C63.4434-77.2125 58.3438-82.2556 52.2073-82.2556C49.1708-82.2556 46.7156-81.2987 44.5789-79.1565L9.44841-44.7723C6.39323-41.7685 5.14564-38.9192 5.08854-35.2606Z"/>
  </g>
  <g id="Heavy-M" transform="matrix(1 0 0 1 2596.3 1126)">
   <path d="M5.35804-35.2606C5.35804-32.2205 6.4286-29.7458 9.01673-27.2308L44.9883 8.00844C46.8139 9.85046 48.9997 10.6842 51.5718 10.6842C56.8566 10.6842 61.2051 6.38388 61.2051 1.18185C61.2051-1.47526 60.0932-3.90638 58.0517-5.92061L27.6677-35.3043L58.0517-64.6007C60.1368-66.6149 61.2051-69.0624 61.2051-71.6595C61.2051-76.8615 56.8566-81.1619 51.5718-81.1619C48.9561-81.1619 46.8139-80.3281 44.9883-78.4861L9.01673-43.2905C6.47222-40.7755 5.40166-38.3444 5.35804-35.2606Z"/>
  </g>
  <g id="Bold-M" transform="matrix(1 0 0 1 2301 1126)">
   <path d="M5.65951-35.2606C5.65951-32.8484 6.53202-30.8566 8.53384-28.8884L45.4462 7.24348C46.9238 8.74971 48.7444 9.44572 50.861 9.44572C55.1929 9.44572 58.7012 5.97627 58.7012 1.69117C58.7012-0.477322 57.8052-2.44062 56.19-4.05591L24.0439-35.2892L56.19-66.4654C57.8338-68.0807 58.7012-70.0726 58.7012-72.1839C58.7012-76.469 55.1929-79.9385 50.861-79.9385C48.7159-79.9385 46.9238-79.2424 45.4462-77.7362L8.53384-41.6329C6.56057-39.6647 5.68805-37.7014 5.65951-35.2606Z"/>
  </g>
  <g id="Semibold-M" transform="matrix(1 0 0 1 2005.25 1126)">
   <path d="M5.86734-35.2606C5.86734-33.2813 6.60332-31.6224 8.20094-30.0311L45.7619 6.71611C46.9996 7.99085 48.5685 8.59191 50.3709 8.59191C54.046 8.59191 56.975 5.69527 56.975 2.0423C56.975 0.21065 56.228-1.43014 54.9066-2.7704L21.5457-35.2788L54.9066-67.7509C56.2461-69.0912 56.975-70.769 56.975-72.5454C56.975-76.1984 54.046-79.095 50.3709-79.095C48.5503-79.095 46.9996-78.494 45.7619-77.2192L8.20094-40.4902C6.62148-38.8989 5.88549-37.2581 5.86734-35.2606Z"/>
  </g>
  <g id="Medium-M" transform="matrix(1 0 0 1 1709.27 1126)">
   <path d="M6.02492-35.2606C6.02492-33.6095 6.65739-32.203 7.94851-30.8976L46.0013 6.31624C47.057 7.41545 48.4351 7.9445 49.9993 7.9445C53.1764 7.9445 55.6661 5.4822 55.6661 2.30853C55.6661 0.732298 55.032-0.663947 53.9334-1.79567L19.6514-35.2709L53.9334-68.7256C55.0423-69.8573 55.6661-71.297 55.6661-72.8195C55.6661-75.9932 53.1764-78.4555 49.9993-78.4555C48.4248-78.4555 47.057-77.9265 46.0013-76.8273L7.94851-39.6237C6.66766-38.3183 6.0352-36.922 6.02492-35.2606Z"/>
  </g>
  <g id="Regular-M" transform="matrix(1 0 0 1 1413.52 1126)">
   <path d="M6.23047-35.2606C6.23047-34.0377 6.7279-32.9604 7.61927-32.0278L46.3135 5.79467C47.132 6.66494 48.261 7.10007 49.5147 7.10007C52.042 7.10007 53.9589 5.20428 53.9589 2.6558C53.9589 1.41271 53.472 0.335433 52.6641-0.524279L17.1806-35.2606L52.6641-69.997C53.472-70.8567 53.9589-71.9858 53.9589-73.1771C53.9589-75.7256 52.042-77.6214 49.5147-77.6214C48.261-77.6214 47.132-77.1862 46.3135-76.316L7.61927-38.4935C6.7279-37.5609 6.23047-36.4836 6.23047-35.2606Z"/>
  </g>
  <g id="Light-M" transform="matrix(1 0 0 1 1117.72 1126)">
   <path d="M6.23047-35.2606C6.23047-34.2772 6.62524-33.4737 7.34549-32.7465L46.3477 4.37447C46.978 5.0394 47.8161 5.37186 48.7789 5.37186C50.6561 5.37186 52.1452 3.93807 52.1452 2.00558C52.1452 1.07049 51.7781 0.266989 51.1754-0.37028L14.5284-35.2606L51.1754-70.151C51.7781-70.7883 52.1452-71.6264 52.1452-72.5269C52.1452-74.4594 50.6561-75.8932 48.7789-75.8932C47.8161-75.8932 46.978-75.5607 46.3477-74.8958L7.34549-37.7748C6.62524-37.0476 6.23047-36.2441 6.23047-35.2606Z"/>
  </g>
  <g id="Thin-M" transform="matrix(1 0 0 1 822.203 1126)">
   <path d="M6.23047-35.2606C6.23047-34.594 6.48946-34.1526 6.9834-33.697L46.393 2.49613C46.7743 2.88949 47.2277 3.08617 47.8058 3.08617C48.823 3.08617 49.7463 2.26341 49.7463 1.14562C49.7463 0.617879 49.5376 0.176466 49.2066-0.166605L11.0207-35.2606L49.2066-70.3547C49.5376-70.6978 49.7463-71.1512 49.7463-71.6669C49.7463-72.7847 48.823-73.6075 47.8058-73.6075C47.2277-73.6075 46.7743-73.4108 46.393-73.0174L6.9834-36.8243C6.48946-36.3687 6.23047-35.9273 6.23047-35.2606Z"/>
  </g>
  <g id="Ultralight-M" transform="matrix(1 0 0 1 526.107 1126)">
   <path d="M6.23047-35.2606C6.23047-34.7563 6.41991-34.5004 6.79794-34.1838L46.4162 1.53405C46.67 1.78832 46.9264 1.91545 47.3074 1.91545C47.8841 1.91545 48.5177 1.40565 48.5177 0.705152C48.5177 0.386053 48.3901 0.130101 48.1981-0.0622836L9.22402-35.2606L48.1981-70.459C48.3901-70.6514 48.5177-70.9078 48.5177-71.2264C48.5177-71.9269 47.8841-72.4367 47.3074-72.4367C46.9264-72.4367 46.67-72.3096 46.4162-72.0553L6.79794-36.3375C6.41991-36.0209 6.23047-35.765 6.23047-35.2606Z"/>
  </g>
  <g id="Black-S" transform="matrix(1 0 0 1 2900.44 696)">
   <path d="M3.90625-35.2539C3.90625-32.2754 4.93164-29.8828 7.51953-27.3926L34.8145-0.683594C36.5723 1.07422 38.623 1.85547 41.0645 1.85547C46.0938 1.85547 50.293-2.29492 50.293-7.22656C50.293-9.76562 49.2188-12.1094 47.2168-14.0625L25.0488-35.3027L47.2168-56.4453C49.2676-58.3984 50.293-60.7422 50.293-63.2324C50.293-68.1641 46.0938-72.3145 41.0645-72.3145C38.5742-72.3145 36.5723-71.5332 34.8145-69.7754L7.51953-43.1152C4.98047-40.625 3.95508-38.2812 3.90625-35.2539Z"/>
  </g>
  <g id="Heavy-S" transform="matrix(1 0 0 1 2604.69 696)">
   <path d="M4.13674-35.2539C4.13674-32.7248 5.02384-30.6665 7.18532-28.5681L35.1602-1.08695C36.676 0.440373 38.4848 1.12943 40.615 1.12943C44.9989 1.12943 48.6104-2.44474 48.6104-6.75406C48.6104-8.95891 47.686-10.98 45.9837-12.6565L22.6172-35.2912L45.9837-57.8513C47.7233-59.5278 48.6104-61.5604 48.6104-63.7164C48.6104-68.0258 44.9989-71.5999 40.615-71.5999C38.4474-71.5999 36.676-70.9109 35.1602-69.3836L7.18532-41.9397C5.06114-39.8413 4.17404-37.8203 4.13674-35.2539Z"/>
  </g>
  <g id="Bold-S" transform="matrix(1 0 0 1 2309.05 696)">
   <path d="M4.39453-35.2539C4.39453-33.2275 5.12695-31.543 6.81152-29.8828L35.5469-1.53809C36.792-0.268555 38.3301 0.317383 40.1123 0.317383C43.7744 0.317383 46.7285-2.6123 46.7285-6.22559C46.7285-8.05664 45.9717-9.7168 44.6045-11.084L19.8975-35.2783L44.6045-59.4238C45.9961-60.791 46.7285-62.4756 46.7285-64.2578C46.7285-67.8711 43.7744-70.8008 40.1123-70.8008C38.3057-70.8008 36.792-70.2148 35.5469-68.9453L6.81152-40.625C5.15137-38.9648 4.41895-37.3047 4.39453-35.2539Z"/>
  </g>
  <g id="Semibold-S" transform="matrix(1 0 0 1 2013.07 696)">
   <path d="M4.57227-35.2539C4.57227-33.5741 5.19805-32.1473 6.55381-30.7893L35.8135-1.84912C36.872-0.757324 38.2234-0.24248 39.7657-0.24248C42.9302-0.24248 45.4311-2.72783 45.4311-5.86123C45.4311-7.43457 44.7897-8.8459 43.6536-9.9998L18.0224-35.2694L43.6536-60.508C44.8053-61.6619 45.4311-63.1065 45.4311-64.6311C45.4311-67.7645 42.9302-70.2498 39.7657-70.2498C38.2079-70.2498 36.872-69.735 35.8135-68.6432L6.55381-39.7186C5.21357-38.3605 4.58779-36.9492 4.57227-35.2539Z"/>
  </g>
  <g id="Medium-S" transform="matrix(1 0 0 1 1716.92 696)">
   <path d="M4.70703-35.2539C4.70703-33.8369 5.25195-32.6055 6.3584-31.4766L36.0156-2.08496C36.9326-1.12793 38.1426-0.666992 39.5029-0.666992C42.29-0.666992 44.4473-2.81543 44.4473-5.58496C44.4473-6.96289 43.8936-8.18555 42.9326-9.17773L16.6006-35.2627L42.9326-61.3301C43.9023-62.3223 44.4473-63.585 44.4473-64.9141C44.4473-67.6836 42.29-69.832 39.5029-69.832C38.1338-69.832 36.9326-69.3711 36.0156-68.4141L6.3584-39.0312C5.26074-37.9023 4.71582-36.6797 4.70703-35.2539Z"/>
  </g>
  <g id="Regular-S" transform="matrix(1 0 0 1 1420.94 696)">
   <path d="M4.88281-35.2539C4.88281-34.1797 5.32227-33.2031 6.10352-32.373L36.2793-2.39258C37.0117-1.61133 38.0371-1.2207 39.1602-1.2207C41.4551-1.2207 43.1641-2.92969 43.1641-5.22461C43.1641-6.34766 42.7246-7.32422 41.9922-8.10547L14.7461-35.2539L41.9922-62.4023C42.7246-63.1836 43.1641-64.209 43.1641-65.2832C43.1641-67.5781 41.4551-69.2871 39.1602-69.2871C38.0371-69.2871 37.0117-68.8965 36.2793-68.1152L6.10352-38.1348C5.32227-37.3047 4.88281-36.3281 4.88281-35.2539Z"/>
  </g>
  <g id="Light-S" transform="matrix(1 0 0 1 1125.03 696)">
   <path d="M4.88281-35.2539C4.88281-34.3916 5.23145-33.6572 5.86133-33.0088L36.3096-3.64892C36.8755-3.04931 37.6436-2.7495 38.5093-2.7495C40.229-2.7495 41.5596-4.0498 41.5596-5.7998C41.5596-6.65039 41.2261-7.38477 40.6753-7.96924L12.3999-35.2539L40.6753-62.5386C41.2261-63.123 41.5596-63.8911 41.5596-64.708C41.5596-66.458 40.229-67.7583 38.5093-67.7583C37.6436-67.7583 36.8755-67.4585 36.3096-66.8589L5.86133-37.499C5.23145-36.8506 4.88281-36.1162 4.88281-35.2539Z"/>
  </g>
  <g id="Thin-S" transform="matrix(1 0 0 1 829.379 696)">
   <path d="M4.88281-35.2539C4.88281-34.6719 5.11133-34.2578 5.54102-33.8496L36.3496-5.31052C36.6953-4.95115 37.1231-4.77146 37.6484-4.77146C38.6074-4.77146 39.4375-5.53123 39.4375-6.56054C39.4375-7.05078 39.2442-7.46484 38.9336-7.78906L9.29692-35.2539L38.9336-62.7187C39.2442-63.043 39.4375-63.4707 39.4375-63.9473C39.4375-64.9766 38.6074-65.7364 37.6484-65.7364C37.1231-65.7364 36.6953-65.5567 36.3496-65.1973L5.54102-36.6582C5.11133-36.25 4.88281-35.8359 4.88281-35.2539Z"/>
  </g>
  <g id="Ultralight-S" transform="matrix(1 0 0 1 533.212 696)">
   <path d="M4.88281-35.2539C4.88281-34.8154 5.04981-34.5654 5.37696-34.2803L36.3701-6.16159C36.603-5.92526 36.8565-5.80709 37.2075-5.80709C37.7769-5.80709 38.3506-6.29001 38.3506-6.95018C38.3506-7.25585 38.229-7.50586 38.0415-7.69678L7.70757-35.2539L38.0415-62.811C38.229-63.002 38.3506-63.2554 38.3506-63.5576C38.3506-64.2178 37.7769-64.7007 37.2075-64.7007C36.8565-64.7007 36.603-64.5826 36.3701-64.3462L5.37696-36.2276C5.04981-35.9424 4.88281-35.6924 4.88281-35.2539Z"/>
  </g>
 </g>
</svg>
