<?xml version="1.0" encoding="UTF-8"?>
<!--Generator: Apple Native CoreSVG 175.5-->
<!DOCTYPE svg
PUBLIC "-//W3C//DTD SVG 1.1//EN"
       "http://www.w3.org/Graphics/SVG/1.1/DTD/svg11.dtd">
<svg version="1.1" xmlns="http://www.w3.org/2000/svg" xmlns:xlink="http://www.w3.org/1999/xlink" width="3300" height="2200">
 <!--glyph: "uni100BFB.medium", point size: 100.0, font version: "18.0d12e2", template writer version: "101"-->
 <g id="Notes">
  <rect height="2200" id="artboard" style="fill:white;opacity:1" width="3300" x="0" y="0"/>
  <line style="fill:none;stroke:black;opacity:1;stroke-width:0.5;" x1="263" x2="3036" y1="292" y2="292"/>
  <text style="stroke:none;fill:black;font-family:sans-serif;font-size:13;font-weight:bold;" transform="matrix(1 0 0 1 263 322)">Weight/Scale Variations</text>
  <text style="stroke:none;fill:black;font-family:sans-serif;font-size:13;text-anchor:middle;" transform="matrix(1 0 0 1 559.711 322)">Ultralight</text>
  <text style="stroke:none;fill:black;font-family:sans-serif;font-size:13;text-anchor:middle;" transform="matrix(1 0 0 1 856.422 322)">Thin</text>
  <text style="stroke:none;fill:black;font-family:sans-serif;font-size:13;text-anchor:middle;" transform="matrix(1 0 0 1 1153.13 322)">Light</text>
  <text style="stroke:none;fill:black;font-family:sans-serif;font-size:13;text-anchor:middle;" transform="matrix(1 0 0 1 1449.84 322)">Regular</text>
  <text style="stroke:none;fill:black;font-family:sans-serif;font-size:13;text-anchor:middle;" transform="matrix(1 0 0 1 1746.56 322)">Medium</text>
  <text style="stroke:none;fill:black;font-family:sans-serif;font-size:13;text-anchor:middle;" transform="matrix(1 0 0 1 2043.27 322)">Semibold</text>
  <text style="stroke:none;fill:black;font-family:sans-serif;font-size:13;text-anchor:middle;" transform="matrix(1 0 0 1 2339.98 322)">Bold</text>
  <text style="stroke:none;fill:black;font-family:sans-serif;font-size:13;text-anchor:middle;" transform="matrix(1 0 0 1 2636.69 322)">Heavy</text>
  <text style="stroke:none;fill:black;font-family:sans-serif;font-size:13;text-anchor:middle;" transform="matrix(1 0 0 1 2933.4 322)">Black</text>
  <line style="fill:none;stroke:black;opacity:1;stroke-width:0.5;" x1="263" x2="3036" y1="1903" y2="1903"/>
  <g transform="matrix(1 0 0 1 263 1933)">
   <path d="M9.24805 0.830078C13.5547 0.830078 17.1387-2.74414 17.1387-7.05078C17.1387-11.3574 13.5449-14.9316 9.23828-14.9316C4.94141-14.9316 1.36719-11.3574 1.36719-7.05078C1.36719-2.74414 4.95117 0.830078 9.24805 0.830078ZM9.24805-0.654297C5.70312-0.654297 2.87109-3.49609 2.87109-7.05078C2.87109-10.6055 5.69336-13.4473 9.23828-13.4473C12.793-13.4473 15.6445-10.6055 15.6445-7.05078C15.6445-3.49609 12.8027-0.654297 9.24805-0.654297ZM5.6543-7.05078C5.6543-6.62109 5.95703-6.32812 6.40625-6.32812L8.50586-6.32812L8.50586-4.20898C8.50586-3.76953 8.79883-3.4668 9.22852-3.4668C9.67773-3.4668 9.9707-3.76953 9.9707-4.20898L9.9707-6.32812L12.0898-6.32812C12.5293-6.32812 12.832-6.62109 12.832-7.05078C12.832-7.49023 12.5293-7.79297 12.0898-7.79297L9.9707-7.79297L9.9707-9.90234C9.9707-10.3516 9.67773-10.6543 9.22852-10.6543C8.79883-10.6543 8.50586-10.3516 8.50586-9.90234L8.50586-7.79297L6.40625-7.79297C5.95703-7.79297 5.6543-7.49023 5.6543-7.05078Z"/>
  </g>
  <g transform="matrix(1 0 0 1 281.867 1933)">
   <path d="M11.709 2.91016C17.1582 2.91016 21.6699-1.61133 21.6699-7.05078C21.6699-12.5 17.1484-17.0117 11.6992-17.0117C6.25977-17.0117 1.74805-12.5 1.74805-7.05078C1.74805-1.61133 6.26953 2.91016 11.709 2.91016ZM11.709 1.25C7.09961 1.25 3.41797-2.44141 3.41797-7.05078C3.41797-11.6602 7.08984-15.3516 11.6992-15.3516C16.3086-15.3516 20.0098-11.6602 20.0098-7.05078C20.0098-2.44141 16.3184 1.25 11.709 1.25ZM7.17773-7.05078C7.17773-6.57227 7.50977-6.25 8.00781-6.25L10.8789-6.25L10.8789-3.36914C10.8789-2.88086 11.2109-2.53906 11.6895-2.53906C12.1777-2.53906 12.5195-2.87109 12.5195-3.36914L12.5195-6.25L15.4004-6.25C15.8887-6.25 16.2305-6.57227 16.2305-7.05078C16.2305-7.53906 15.8887-7.88086 15.4004-7.88086L12.5195-7.88086L12.5195-10.752C12.5195-11.25 12.1777-11.5918 11.6895-11.5918C11.2109-11.5918 10.8789-11.25 10.8789-10.752L10.8789-7.88086L8.00781-7.88086C7.50977-7.88086 7.17773-7.53906 7.17773-7.05078Z"/>
  </g>
  <g transform="matrix(1 0 0 1 305.646 1933)">
   <path d="M14.9707 5.66406C21.9336 5.66406 27.6953-0.0976562 27.6953-7.05078C27.6953-14.0137 21.9238-19.7754 14.9609-19.7754C8.00781-19.7754 2.25586-14.0137 2.25586-7.05078C2.25586-0.0976562 8.01758 5.66406 14.9707 5.66406ZM14.9707 3.84766C8.93555 3.84766 4.08203-1.01562 4.08203-7.05078C4.08203-13.0957 8.92578-17.9492 14.9609-17.9492C21.0059-17.9492 25.8691-13.0957 25.8691-7.05078C25.8691-1.01562 21.0156 3.84766 14.9707 3.84766ZM9.19922-7.05078C9.19922-6.5332 9.57031-6.17188 10.1172-6.17188L14.0625-6.17188L14.0625-2.2168C14.0625-1.67969 14.4336-1.29883 14.9512-1.29883C15.4883-1.29883 15.8594-1.66992 15.8594-2.2168L15.8594-6.17188L19.8145-6.17188C20.3516-6.17188 20.7324-6.5332 20.7324-7.05078C20.7324-7.59766 20.3613-7.96875 19.8145-7.96875L15.8594-7.96875L15.8594-11.9141C15.8594-12.4609 15.4883-12.8418 14.9512-12.8418C14.4336-12.8418 14.0625-12.4609 14.0625-11.9141L14.0625-7.96875L10.1172-7.96875C9.57031-7.96875 9.19922-7.59766 9.19922-7.05078Z"/>
  </g>
  <text style="stroke:none;fill:black;font-family:sans-serif;font-size:13;font-weight:bold;" transform="matrix(1 0 0 1 263 1953)">Design Variations</text>
  <text style="stroke:none;fill:black;font-family:sans-serif;font-size:13;" transform="matrix(1 0 0 1 263 1971)">Symbols are supported in up to nine weights and three scales.</text>
  <text style="stroke:none;fill:black;font-family:sans-serif;font-size:13;" transform="matrix(1 0 0 1 263 1989)">For optimal layout with text and other symbols, vertically align</text>
  <text style="stroke:none;fill:black;font-family:sans-serif;font-size:13;" transform="matrix(1 0 0 1 263 2007)">symbols with the adjacent text.</text>
  <line style="fill:none;stroke:#00AEEF;stroke-width:0.5;opacity:1.0;" x1="776" x2="776" y1="1919" y2="1933"/>
  <g transform="matrix(1 0 0 1 776 1933)">
   <path d="M3.31055 0.15625C3.82812 0.15625 4.08203-0.0390625 4.26758-0.585938L5.52734-4.0332L11.2891-4.0332L12.5488-0.585938C12.7344-0.0390625 12.9883 0.15625 13.4961 0.15625C14.0137 0.15625 14.3457-0.15625 14.3457-0.644531C14.3457-0.810547 14.3164-0.966797 14.2383-1.17188L9.6582-13.3691C9.43359-13.9648 9.0332-14.2676 8.4082-14.2676C7.80273-14.2676 7.39258-13.9746 7.17773-13.3789L2.59766-1.16211C2.51953-0.957031 2.49023-0.800781 2.49023-0.634766C2.49023-0.146484 2.80273 0.15625 3.31055 0.15625ZM6.00586-5.51758L8.37891-12.0898L8.42773-12.0898L10.8008-5.51758Z"/>
  </g>
  <line style="fill:none;stroke:#00AEEF;stroke-width:0.5;opacity:1.0;" x1="793.197" x2="793.197" y1="1919" y2="1933"/>
  <text style="stroke:none;fill:black;font-family:sans-serif;font-size:13;font-weight:bold;" transform="matrix(1 0 0 1 776 1953)">Margins</text>
  <text style="stroke:none;fill:black;font-family:sans-serif;font-size:13;" transform="matrix(1 0 0 1 776 1971)">Leading and trailing margins on the left and right side of each symbol</text>
  <text style="stroke:none;fill:black;font-family:sans-serif;font-size:13;" transform="matrix(1 0 0 1 776 1989)">can be adjusted by modifying the x-location of the margin guidelines.</text>
  <text style="stroke:none;fill:black;font-family:sans-serif;font-size:13;" transform="matrix(1 0 0 1 776 2007)">Modifications are automatically applied proportionally to all</text>
  <text style="stroke:none;fill:black;font-family:sans-serif;font-size:13;" transform="matrix(1 0 0 1 776 2025)">scales and weights.</text>
  <g transform="matrix(1 0 0 1 1289 1933)">
   <path d="M2.8418 1.86523L4.54102 3.57422C5.40039 4.44336 6.38672 4.38477 7.31445 3.35938L18.0078-8.42773L17.041-9.4043L6.42578 2.27539C6.07422 2.67578 5.74219 2.77344 5.27344 2.30469L4.10156 1.14258C3.63281 0.683594 3.74023 0.341797 4.14062-0.0195312L15.6152-10.8203L14.6387-11.7871L3.04688-0.898438C2.06055 0.0195312 1.98242 0.996094 2.8418 1.86523ZM9.25781-16.3281C8.83789-15.918 8.80859-15.3418 9.04297-14.9512C9.27734-14.5898 9.73633-14.3555 10.3809-14.5215C11.8457-14.8633 13.3691-14.9219 14.7949-13.9844L14.209-12.5293C13.8672-11.6992 14.043-11.1133 14.5801-10.5664L16.875-8.25195C17.3633-7.76367 17.7734-7.74414 18.3398-7.8418L19.4043-8.03711L20.0684-7.36328L20.0293-6.80664C19.9902-6.30859 20.1172-5.92773 20.6055-5.44922L21.3672-4.70703C21.8457-4.22852 22.4609-4.19922 22.9297-4.66797L25.8398-7.58789C26.3086-8.05664 26.2891-8.65234 25.8105-9.13086L25.0391-9.89258C24.5605-10.3711 24.1895-10.5273 23.7109-10.4883L23.1348-10.4395L22.4902-11.0742L22.7344-12.1973C22.8613-12.7637 22.7051-13.2031 22.1191-13.7891L19.9219-15.9766C16.582-19.2969 12.1484-19.2188 9.25781-16.3281ZM10.752-15.957C13.1836-17.7344 16.4746-17.4316 18.7012-15.2051L21.1328-12.793C21.3672-12.5586 21.4062-12.373 21.3379-12.0312L21.0156-10.5469L22.5195-9.0625L23.5059-9.12109C23.7598-9.13086 23.8379-9.11133 24.0332-8.91602L24.6094-8.33984L22.168-5.89844L21.5918-6.47461C21.3965-6.66992 21.3672-6.74805 21.377-7.01172L21.4453-7.98828L19.9512-9.47266L18.4277-9.21875C18.1055-9.15039 17.959-9.17969 17.7148-9.41406L15.7129-11.416C15.459-11.6504 15.4297-11.8164 15.5859-12.1875L16.4648-14.2773C14.9023-15.7324 12.8711-16.3574 10.8398-15.7617C10.6836-15.7227 10.625-15.8496 10.752-15.957Z"/>
  </g>
  <text style="stroke:none;fill:black;font-family:sans-serif;font-size:13;font-weight:bold;" transform="matrix(1 0 0 1 1289 1953)">Exporting</text>
  <text style="stroke:none;fill:black;font-family:sans-serif;font-size:13;" transform="matrix(1 0 0 1 1289 1971)">Symbols should be outlined when exporting to ensure the</text>
  <text style="stroke:none;fill:black;font-family:sans-serif;font-size:13;" transform="matrix(1 0 0 1 1289 1989)">design is preserved when submitting to Xcode.</text>
  <text id="template-version" style="stroke:none;fill:black;font-family:sans-serif;font-size:13;text-anchor:end;" transform="matrix(1 0 0 1 3036 1933)">Template v.4.0</text>
  <text style="stroke:none;fill:black;font-family:sans-serif;font-size:13;text-anchor:end;" transform="matrix(1 0 0 1 3036 1951)">Requires Xcode 14 or greater</text>
  <text id="descriptive-name" style="stroke:none;fill:black;font-family:sans-serif;font-size:13;text-anchor:end;" transform="matrix(1 0 0 1 3036 1969)">Generated from chevron.forward</text>
  <text style="stroke:none;fill:black;font-family:sans-serif;font-size:13;text-anchor:end;" transform="matrix(1 0 0 1 3036 1987)">Typeset at 100 points</text>
  <text style="stroke:none;fill:black;font-family:sans-serif;font-size:13;" transform="matrix(1 0 0 1 263 726)">Small</text>
  <text style="stroke:none;fill:black;font-family:sans-serif;font-size:13;" transform="matrix(1 0 0 1 263 1156)">Medium</text>
  <text style="stroke:none;fill:black;font-family:sans-serif;font-size:13;" transform="matrix(1 0 0 1 263 1586)">Large</text>
 </g>
 <g id="Guides">
  <g id="H-reference" style="fill:#27AAE1;stroke:none;" transform="matrix(1 0 0 1 339 696)">
   <path d="M0.993654 0L3.63775 0L29.3281-67.1323L30.0303-67.1323L30.0303-70.459L28.1226-70.459ZM11.6885-24.4799L46.9815-24.4799L46.2315-26.7285L12.4385-26.7285ZM55.1196 0L57.7637 0L30.6382-70.459L29.4326-70.459L29.4326-67.1323Z"/>
  </g>
  <line id="Baseline-S" style="fill:none;stroke:#27AAE1;opacity:1;stroke-width:0.5;" x1="263" x2="3036" y1="696" y2="696"/>
  <line id="Capline-S" style="fill:none;stroke:#27AAE1;opacity:1;stroke-width:0.5;" x1="263" x2="3036" y1="625.541" y2="625.541"/>
  <g id="H-reference" style="fill:#27AAE1;stroke:none;" transform="matrix(1 0 0 1 339 1126)">
   <path d="M0.993654 0L3.63775 0L29.3281-67.1323L30.0303-67.1323L30.0303-70.459L28.1226-70.459ZM11.6885-24.4799L46.9815-24.4799L46.2315-26.7285L12.4385-26.7285ZM55.1196 0L57.7637 0L30.6382-70.459L29.4326-70.459L29.4326-67.1323Z"/>
  </g>
  <line id="Baseline-M" style="fill:none;stroke:#27AAE1;opacity:1;stroke-width:0.5;" x1="263" x2="3036" y1="1126" y2="1126"/>
  <line id="Capline-M" style="fill:none;stroke:#27AAE1;opacity:1;stroke-width:0.5;" x1="263" x2="3036" y1="1055.54" y2="1055.54"/>
  <g id="H-reference" style="fill:#27AAE1;stroke:none;" transform="matrix(1 0 0 1 339 1556)">
   <path d="M0.993654 0L3.63775 0L29.3281-67.1323L30.0303-67.1323L30.0303-70.459L28.1226-70.459ZM11.6885-24.4799L46.9815-24.4799L46.2315-26.7285L12.4385-26.7285ZM55.1196 0L57.7637 0L30.6382-70.459L29.4326-70.459L29.4326-67.1323Z"/>
  </g>
  <line id="Baseline-L" style="fill:none;stroke:#27AAE1;opacity:1;stroke-width:0.5;" x1="263" x2="3036" y1="1556" y2="1556"/>
  <line id="Capline-L" style="fill:none;stroke:#27AAE1;opacity:1;stroke-width:0.5;" x1="263" x2="3036" y1="1485.54" y2="1485.54"/>
  <line id="left-margin-Regular-M" style="fill:none;stroke:#00AEEF;stroke-width:0.5;opacity:1.0;" x1="1413.52" x2="1413.52" y1="1030.79" y2="1150.12"/>
  <line id="right-margin-Regular-M" style="fill:none;stroke:#00AEEF;stroke-width:0.5;opacity:1.0;" x1="1486.17" x2="1486.17" y1="1030.79" y2="1150.12"/>
 </g>
 <g id="Symbols">
  <g id="Black-L" transform="matrix(1 0 0 1 2881.01 1556)">
   <path d="M97.912-35.2697C97.8536-39.3585 96.4569-42.5831 93.0587-45.9217L46.7837-91.2788C44.364-93.7193 41.547-94.8228 38.0835-94.8228C31.0773-94.8228 25.2941-89.12 25.2941-82.2294C25.2941-78.7867 26.7312-75.5413 29.4793-72.8683L68.3815-35.3281L29.4793 2.32894C26.7896 5.00186 25.2941 8.2265 25.2941 11.7484C25.2941 18.639 31.0773 24.3418 38.0835 24.3418C41.4886 24.3418 44.364 23.2383 46.7837 20.7978L93.0587-24.6177C96.5153-27.9563 97.912-31.2394 97.912-35.2697Z"/>
  </g>
  <g id="Heavy-L" transform="matrix(1 0 0 1 2585.67 1556)">
   <path d="M94.88-35.2697C94.8354-38.7453 93.64-41.5133 90.7728-44.3302L43.605-90.4436C41.5234-92.5554 39.0621-93.5221 36.0641-93.5221C29.9931-93.5221 25.0184-88.6278 25.0184-82.6405C25.0184-79.6726 26.2686-76.8744 28.5821-74.5897L69.2276-35.3143L28.5821 4.05033C26.3132 6.33502 25.0184 9.10305 25.0184 12.1457C25.0184 18.133 29.9931 23.0273 36.0641 23.0273C39.0175 23.0273 41.5234 22.0606 43.605 19.9488L90.7728-26.2092C93.6846-29.0261 94.88-31.8388 94.88-35.2697Z"/>
  </g>
  <g id="Bold-L" transform="matrix(1 0 0 1 2290.65 1556)">
   <path d="M91.2046-35.2697C91.1754-38.0218 90.2186-40.2363 87.9748-42.4375L39.7602-89.2871C38.0861-90.9991 36.0629-91.7967 33.6337-91.7967C28.7081-91.7967 24.71-87.8791 24.71-82.9987C24.71-80.6074 25.7296-78.3551 27.5277-76.5394L70.3025-35.2989L27.5277 6.00004C25.7588 7.81565 24.71 10.0301 24.71 12.4885C24.71 17.3689 28.7081 21.2865 33.6337 21.2865C36.0337 21.2865 38.0861 20.4889 39.7602 18.7769L87.9748-28.1019C90.2478-30.3031 91.2046-32.5468 91.2046-35.2697Z"/>
  </g>
  <g id="Semibold-L" transform="matrix(1 0 0 1 1995.1 1556)">
   <path d="M88.6708-35.2697C88.6522-37.5231 87.8598-39.3559 86.0459-41.1327L37.1096-88.4898C35.7165-89.9263 33.9953-90.6073 31.9583-90.6073C27.8222-90.6073 24.4974-87.3629 24.4974-83.2456C24.4974-81.2519 25.3581-79.3758 26.8007-77.8836L71.0435-35.2883L26.8007 7.34417C25.3767 8.83639 24.4974 10.6691 24.4974 12.7248C24.4974 16.8421 27.8222 20.0865 31.9583 20.0865C33.9767 20.0865 35.7165 19.4054 37.1096 17.969L86.0459-29.4067C87.8784-31.1835 88.6708-33.0348 88.6708-35.2697Z"/>
  </g>
  <g id="Medium-L" transform="matrix(1 0 0 1 1699.26 1556)">
   <path d="M86.7496-35.2697C86.739-37.145 86.0713-38.6883 84.5833-40.1434L35.0998-87.8853C33.9198-89.1127 32.4275-89.7054 30.6879-89.7054C27.1505-89.7054 24.3362-86.9716 24.3362-83.4328C24.3362-81.7406 25.0764-80.1498 26.2495-78.9027L71.6054-35.2802L26.2495 8.36333C25.0869 9.61035 24.3362 11.1537 24.3362 12.9039C24.3362 16.4427 27.1505 19.1765 30.6879 19.1765C32.417 19.1765 33.9198 18.5839 35.0998 17.3564L84.5833-30.396C86.0818-31.8511 86.7496-33.4049 86.7496-35.2697Z"/>
  </g>
  <g id="Regular-L" transform="matrix(1 0 0 1 1403.7 1556)">
   <path d="M84.2436-35.2697C84.2436-36.6517 83.7385-37.8176 82.6756-38.8529L32.4783-87.0968C31.5762-88.0516 30.3826-88.5291 29.0308-88.5291C26.2744-88.5291 24.126-86.4611 24.126-83.677C24.126-82.3779 24.7089-81.1593 25.5306-80.2321L72.3383-35.2697L25.5306 9.69268C24.7089 10.6199 24.126 11.7858 24.126 13.1376C24.126 15.9217 26.2744 17.9897 29.0308 17.9897C30.3826 17.9897 31.5762 17.5122 32.4783 16.5574L82.6756-31.6865C83.7385-32.7218 84.2436-33.8877 84.2436-35.2697Z"/>
  </g>
  <g id="Light-L" transform="matrix(1 0 0 1 1108 1556)">
   <path d="M82.2205-35.2697C82.2205-36.3846 81.8109-37.2451 80.9579-38.0513L30.4171-85.5127C29.7249-86.2385 28.8176-86.6015 27.8093-86.6015C25.7591-86.6015 24.126-85.0488 24.126-82.9518C24.126-81.9771 24.5562-81.0829 25.168-80.4039L73.2544-35.2697L25.168 9.86445C24.5562 10.5435 24.126 11.4041 24.126 12.4124C24.126 14.5094 25.7591 16.062 27.8093 16.062C28.8176 16.062 29.7249 15.6991 30.4171 14.9733L80.9579-32.4881C81.8109-33.2943 82.2205-34.1549 82.2205-35.2697Z"/>
  </g>
  <g id="Thin-L" transform="matrix(1 0 0 1 812.629 1556)">
   <path d="M79.5449-35.2697C79.5449-36.0312 79.2615-36.4878 78.6862-36.9912L27.6909-83.4177C27.2765-83.8406 26.7478-84.052 26.1939-84.052C25.0775-84.052 24.126-83.1809 24.126-81.9926C24.126-81.4471 24.3543-80.982 24.6884-80.631L74.466-35.2697L24.6884 10.0916C24.3543 10.4426 24.126 10.8992 24.126 11.4532C24.126 12.6415 25.0775 13.5126 26.1939 13.5126C26.7478 13.5126 27.2765 13.3012 27.6909 12.8783L78.6862-33.5482C79.2615-34.0516 79.5449-34.5082 79.5449-35.2697Z"/>
  </g>
  <g id="Ultralight-L" transform="matrix(1 0 0 1 516.603 1556)">
   <path d="M78.1745-35.2697C78.1745-35.8502 77.9557-36.1 77.5226-36.4482L26.2946-82.3446C26.0224-82.6123 25.6877-82.7462 25.3664-82.7462C24.7285-82.7462 24.126-82.2242 24.126-81.5013C24.126-81.1756 24.2509-80.9302 24.4427-80.7474L75.0866-35.2697L24.4427 10.208C24.2509 10.3908 24.126 10.6406 24.126 10.9619C24.126 11.6848 24.7285 12.2068 25.3664 12.2068C25.6877 12.2068 26.0224 12.0729 26.2946 11.8052L77.5226-34.0913C77.9557-34.4394 78.1745-34.6892 78.1745-35.2697Z"/>
  </g>
  <g id="Black-M" transform="matrix(1 0 0 1 2891.76 1126)">
   <path d="M78.1882-35.2606C78.1311-38.9192 76.889-41.7685 73.8283-44.7723L38.6978-79.1565C36.5611-81.2987 34.1118-82.2556 31.075-82.2556C24.9388-82.2556 19.8333-77.2125 19.8333-71.1907C19.8333-68.1594 21.0867-65.3046 23.5608-62.9337L52.375-35.3177L23.5608-7.58754C21.1438-5.21667 19.8333-2.36735 19.8333 0.726544C19.8333 6.74826 24.9388 11.7914 31.075 11.7914C34.0547 11.7914 36.5611 10.8345 38.6978 8.69228L73.8283-25.749C76.9461-28.7528 78.1882-31.6592 78.1882-35.2606Z"/>
  </g>
  <g id="Heavy-M" transform="matrix(1 0 0 1 2596.3 1126)">
   <path d="M75.4109-35.2606C75.3673-38.3444 74.3131-40.7755 71.7522-43.2905L35.7806-78.4861C33.955-80.3281 31.827-81.1619 29.2135-81.1619C23.9265-81.1619 19.5638-76.8615 19.5638-71.6595C19.5638-69.0624 20.6485-66.6149 22.7172-64.6007L53.1176-35.3043L22.7172-5.92061C20.6922-3.90638 19.5638-1.47526 19.5638 1.18185C19.5638 6.38388 23.9265 10.6842 29.2135 10.6842C31.7834 10.6842 33.955 9.85046 35.7806 8.00844L71.7522-27.2308C74.3567-29.7458 75.4109-32.2205 75.4109-35.2606Z"/>
  </g>
  <g id="Bold-M" transform="matrix(1 0 0 1 2301 1126)">
   <path d="M72.304-35.2606C72.2755-37.7014 71.4316-39.6647 69.4297-41.6329L32.5173-77.7362C31.0397-79.2424 29.2711-79.9385 27.1312-79.9385C22.7941-79.9385 19.2624-76.469 19.2624-72.1839C19.2624-70.0726 20.1584-68.0807 21.7735-66.4654L53.9483-35.2892L21.7735-4.05591C20.1869-2.44062 19.2624-0.477322 19.2624 1.69117C19.2624 5.97627 22.7941 9.44572 27.1312 9.44572C29.2426 9.44572 31.0397 8.74971 32.5173 7.24348L69.4297-28.8884C71.4601-30.8566 72.304-32.8484 72.304-35.2606Z"/>
  </g>
  <g id="Semibold-M" transform="matrix(1 0 0 1 2005.25 1126)">
   <path d="M70.1622-35.2606C70.144-37.2581 69.4451-38.8989 67.8286-40.4902L30.2676-77.2192C29.0299-78.494 27.5092-79.095 25.6957-79.095C22.0135-79.095 19.0545-76.1984 19.0545-72.5454C19.0545-70.769 19.8205-69.0912 21.123-67.7509L54.5209-35.2788L21.123-2.7704C19.8386-1.43014 19.0545 0.21065 19.0545 2.0423C19.0545 5.69527 22.0135 8.59191 25.6957 8.59191C27.491 8.59191 29.0299 7.99085 30.2676 6.71611L67.8286-30.0311C69.4633-31.6224 70.1622-33.2813 70.1622-35.2606Z"/>
  </g>
  <g id="Medium-M" transform="matrix(1 0 0 1 1709.27 1126)">
   <path d="M68.5382-35.2606C68.5279-36.922 67.9389-38.3183 66.6146-39.6237L28.5618-76.8273C27.506-77.9265 26.1731-78.4555 24.6072-78.4555C21.4216-78.4555 18.897-75.9932 18.897-72.8195C18.897-71.297 19.5642-69.8573 20.6297-68.7256L54.9551-35.2709L20.6297-1.79567C19.5745-0.663947 18.897 0.732298 18.897 2.30853C18.897 5.4822 21.4216 7.9445 24.6072 7.9445C26.1629 7.9445 27.506 7.41545 28.5618 6.31624L66.6146-30.8976C67.9491-32.203 68.5382-33.6095 68.5382-35.2606Z"/>
  </g>
  <g id="Regular-M" transform="matrix(1 0 0 1 1413.52 1126)">
   <path d="M66.4199-35.2606C66.4199-36.4836 65.9742-37.5609 65.0311-38.4935L26.3369-76.316C25.5183-77.1862 24.4305-77.6214 23.1874-77.6214C20.6495-77.6214 18.6914-75.7256 18.6914-73.1771C18.6914-71.9858 19.23-70.8567 19.9862-69.997L55.5215-35.2606L19.9862-0.524279C19.23 0.335433 18.6914 1.41271 18.6914 2.6558C18.6914 5.20428 20.6495 7.10007 23.1874 7.10007C24.4305 7.10007 25.5183 6.66494 26.3369 5.79467L65.0311-32.0278C65.9742-32.9604 66.4199-34.0377 66.4199-35.2606Z"/>
  </g>
  <g id="Light-M" transform="matrix(1 0 0 1 1117.72 1126)">
   <path d="M64.6061-35.2606C64.6061-36.2441 64.246-37.0476 63.4911-37.7748L24.4889-74.8958C23.8586-75.5607 23.0274-75.8932 22.0923-75.8932C20.1875-75.8932 18.6914-74.4594 18.6914-72.5269C18.6914-71.6264 19.0932-70.7883 19.6611-70.151L56.3428-35.2606L19.6611-0.37028C19.0932 0.266989 18.6914 1.07049 18.6914 2.00558C18.6914 3.93807 20.1875 5.37186 22.0923 5.37186C23.0274 5.37186 23.8586 5.0394 24.4889 4.37447L63.4911-32.7465C64.246-33.4737 64.6061-34.2772 64.6061-35.2606Z"/>
  </g>
  <g id="Thin-M" transform="matrix(1 0 0 1 822.203 1126)">
   <path d="M62.2073-35.2606C62.2073-35.9273 61.9603-36.3687 61.4543-36.8243L22.0448-73.0174C21.6634-73.4108 21.1717-73.6075 20.644-73.6075C19.5765-73.6075 18.6914-72.7847 18.6914-71.6669C18.6914-71.1512 18.9121-70.6978 19.2312-70.3547L57.4291-35.2606L19.2312-0.166605C18.9121 0.176466 18.6914 0.617879 18.6914 1.14562C18.6914 2.26341 19.5765 3.08617 20.644 3.08617C21.1717 3.08617 21.6634 2.88949 22.0448 2.49613L61.4543-33.697C61.9603-34.1526 62.2073-34.594 62.2073-35.2606Z"/>
  </g>
  <g id="Ultralight-M" transform="matrix(1 0 0 1 526.107 1126)">
   <path d="M60.9786-35.2606C60.9786-35.765 60.7896-36.0209 60.4111-36.3375L20.7929-72.0553C20.5391-72.3096 20.2212-72.4367 19.9021-72.4367C19.2635-72.4367 18.6914-71.9269 18.6914-71.2264C18.6914-70.9078 18.8194-70.6514 19.0109-70.459L57.9855-35.2606L19.0109-0.0622836C18.8194 0.130101 18.6914 0.386053 18.6914 0.705152C18.6914 1.40565 19.2635 1.91545 19.9021 1.91545C20.2212 1.91545 20.5391 1.78832 20.7929 1.53405L60.4111-34.1838C60.7896-34.5004 60.9786-34.7563 60.9786-35.2606Z"/>
  </g>
  <g id="Black-S" transform="matrix(1 0 0 1 2900.44 696)">
   <path d="M62.0117-35.2539C61.9629-38.2812 60.9375-40.625 58.3984-43.1152L31.1035-69.7754C29.3457-71.5332 27.3438-72.3145 24.8535-72.3145C19.8242-72.3145 15.625-68.1641 15.625-63.2324C15.625-60.7422 16.6504-58.3984 18.7012-56.4453L40.8691-35.3027L18.7012-14.0625C16.6992-12.1094 15.625-9.76562 15.625-7.22656C15.625-2.29492 19.8242 1.85547 24.8535 1.85547C27.2949 1.85547 29.3457 1.07422 31.1035-0.683594L58.3984-27.3926C60.9863-29.8828 62.0117-32.2754 62.0117-35.2539Z"/>
  </g>
  <g id="Heavy-S" transform="matrix(1 0 0 1 2604.69 696)">
   <path d="M59.8682-35.2539C59.8309-37.8203 58.9553-39.8413 56.8196-41.9397L28.8447-69.3836C27.3289-70.9109 25.569-71.5999 23.4014-71.5999C19.0175-71.5999 15.3945-68.0258 15.3945-63.7164C15.3945-61.5604 16.2931-59.5278 18.0212-57.8513L41.3993-35.2912L18.0212-12.6565C16.3304-10.98 15.3945-8.95891 15.3945-6.75406C15.3945-2.44474 19.0175 1.12943 23.4014 1.12943C25.5317 1.12943 27.3289 0.440373 28.8447-1.08695L56.8196-28.5681C58.9926-30.6665 59.8682-32.7248 59.8682-35.2539Z"/>
  </g>
  <g id="Bold-S" transform="matrix(1 0 0 1 2309.05 696)">
   <path d="M57.4707-35.2539C57.4463-37.3047 56.7383-38.9648 55.0537-40.625L26.3184-68.9453C25.0732-70.2148 23.584-70.8008 21.7773-70.8008C18.1152-70.8008 15.1367-67.8711 15.1367-64.2578C15.1367-62.4756 15.8936-60.791 17.2607-59.4238L41.9922-35.2783L17.2607-11.084C15.918-9.7168 15.1367-8.05664 15.1367-6.22559C15.1367-2.6123 18.1152 0.317383 21.7773 0.317383C23.5596 0.317383 25.0732-0.268555 26.3184-1.53809L55.0537-29.8828C56.7627-31.543 57.4707-33.2275 57.4707-35.2539Z"/>
  </g>
  <g id="Semibold-S" transform="matrix(1 0 0 1 2013.07 696)">
   <path d="M55.8178-35.2539C55.8022-36.9492 55.2098-38.3605 53.8362-39.7186L24.5766-68.6432C23.5181-69.735 22.2154-70.2498 20.6576-70.2498C17.4932-70.2498 14.959-67.7645 14.959-64.6311C14.959-63.1065 15.6181-61.6619 16.7364-60.508L42.401-35.2694L16.7364-9.9998C15.6336-8.8459 14.959-7.43457 14.959-5.86123C14.959-2.72783 17.4932-0.24248 20.6576-0.24248C22.1999-0.24248 23.5181-0.757324 24.5766-1.84912L53.8362-30.7893C55.2253-32.1473 55.8178-33.5741 55.8178-35.2539Z"/>
  </g>
  <g id="Medium-S" transform="matrix(1 0 0 1 1716.92 696)">
   <path d="M54.5645-35.2539C54.5557-36.6797 54.0508-37.9023 52.9131-39.0312L23.2559-68.4141C22.3389-69.3711 21.1777-69.832 19.8086-69.832C17.0215-69.832 14.8242-67.6836 14.8242-64.9141C14.8242-63.585 15.4092-62.3223 16.3389-61.3301L42.7109-35.2627L16.3389-9.17773C15.418-8.18555 14.8242-6.96289 14.8242-5.58496C14.8242-2.81543 17.0215-0.666992 19.8086-0.666992C21.1689-0.666992 22.3389-1.12793 23.2559-2.08496L52.9131-31.4766C54.0596-32.6055 54.5645-33.8369 54.5645-35.2539Z"/>
  </g>
  <g id="Regular-S" transform="matrix(1 0 0 1 1420.94 696)">
   <path d="M52.9297-35.2539C52.9297-36.3281 52.5391-37.3047 51.709-38.1348L21.5332-68.1152C20.8008-68.8965 19.8242-69.2871 18.7012-69.2871C16.4062-69.2871 14.6484-67.5781 14.6484-65.2832C14.6484-64.209 15.1367-63.1836 15.8203-62.4023L43.1152-35.2539L15.8203-8.10547C15.1367-7.32422 14.6484-6.34766 14.6484-5.22461C14.6484-2.92969 16.4062-1.2207 18.7012-1.2207C19.8242-1.2207 20.8008-1.61133 21.5332-2.39258L51.709-32.373C52.5391-33.2031 52.9297-34.1797 52.9297-35.2539Z"/>
  </g>
  <g id="Light-S" transform="matrix(1 0 0 1 1125.03 696)">
   <path d="M51.3252-35.2539C51.3252-36.1162 51.0103-36.8506 50.3467-37.499L19.8985-66.8589C19.3325-67.4585 18.583-67.7583 17.7324-67.7583C15.9976-67.7583 14.6484-66.458 14.6484-64.708C14.6484-63.8911 15.0156-63.123 15.5327-62.5386L43.8418-35.2539L15.5327-7.96924C15.0156-7.38477 14.6484-6.65039 14.6484-5.7998C14.6484-4.0498 15.9976-2.7495 17.7324-2.7495C18.583-2.7495 19.3325-3.04931 19.8985-3.64892L50.3467-33.0088C51.0103-33.6572 51.3252-34.3916 51.3252-35.2539Z"/>
  </g>
  <g id="Thin-S" transform="matrix(1 0 0 1 829.379 696)">
   <path d="M49.2032-35.2539C49.2032-35.8359 48.9883-36.25 48.5449-36.6582L17.7364-65.1973C17.3907-65.5567 16.9414-65.7364 16.4512-65.7364C15.457-65.7364 14.6484-64.9766 14.6484-63.9473C14.6484-63.4707 14.8555-63.043 15.1523-62.7187L44.8027-35.2539L15.1523-7.78906C14.8555-7.46484 14.6484-7.05078 14.6484-6.56054C14.6484-5.53123 15.457-4.77146 16.4512-4.77146C16.9414-4.77146 17.3907-4.95115 17.7364-5.31052L48.5449-33.8496C48.9883-34.2578 49.2032-34.6719 49.2032-35.2539Z"/>
  </g>
  <g id="Ultralight-S" transform="matrix(1 0 0 1 533.212 696)">
   <path d="M48.1162-35.2539C48.1162-35.6924 47.9527-35.9424 47.6221-36.2276L16.6289-64.3462C16.396-64.5826 16.1006-64.7007 15.7949-64.7007C15.1802-64.7007 14.6484-64.2178 14.6484-63.5576C14.6484-63.2554 14.7734-63.002 14.9575-62.811L45.2949-35.2539L14.9575-7.69678C14.7734-7.50586 14.6484-7.25585 14.6484-6.95018C14.6484-6.29001 15.1802-5.80709 15.7949-5.80709C16.1006-5.80709 16.396-5.92526 16.6289-6.16159L47.6221-34.2803C47.9527-34.5654 48.1162-34.8154 48.1162-35.2539Z"/>
  </g>
 </g>
</svg>
