<?xml version="1.0" ?><svg height="32px" version="1.1" viewBox="0 0 32 32" width="32px" xmlns="http://www.w3.org/2000/svg" xmlns:sketch="http://www.bohemiancoding.com/sketch/ns" xmlns:xlink="http://www.w3.org/1999/xlink"><title/><desc/><defs/><g fill="none" fill-rule="evenodd" id="Page-1" stroke="none" stroke-width="1"><g fill="#157EFB" id="icon-19-bookmark-add"><path d="M19,13 L19,10 L20,10 L20,13 L23,13 L23,14 L20,14 L20,17 L19,17 L19,14 L16,14 L16,13 L19,13 L19,13 Z M20,19.9810552 L20,28 L14,22 L8,28 L8,6.99109042 C8,5.34177063 9.34187067,4 10.997152,4 L17.002848,4 C18.6583772,4 20,5.33915679 20,6.99109042 L20,7.01894481 C19.8349792,7.00639146 19.668236,7 19.5,7 C15.9101489,7 13,9.91014895 13,13.5 C13,17.0898511 15.9101489,20 19.5,20 C19.668236,20 19.8349792,19.9936085 20,19.9810552 L20,19.9810552 L20,19.9810552 Z M19.5,19 C22.5375663,19 25,16.5375663 25,13.5 C25,10.4624337 22.5375663,8 19.5,8 C16.4624337,8 14,10.4624337 14,13.5 C14,16.5375663 16.4624337,19 19.5,19 L19.5,19 Z" id="bookmark-add"/></g></g></svg>