<?xml version="1.0" ?><svg enable-background="new 0 0 32 32" height="32px" id="svg2" version="1.1" viewBox="0 0 32 32" width="32px" xml:space="preserve" xmlns="http://www.w3.org/2000/svg" xmlns:cc="http://creativecommons.org/ns#" xmlns:dc="http://purl.org/dc/elements/1.1/" xmlns:inkscape="http://www.inkscape.org/namespaces/inkscape" xmlns:rdf="http://www.w3.org/1999/02/22-rdf-syntax-ns#" xmlns:sodipodi="http://sodipodi.sourceforge.net/DTD/sodipodi-0.dtd" xmlns:svg="http://www.w3.org/2000/svg"><g id="background"><rect fill="none" height="32" width="32"/></g><g id="document_x5F_video_x5F_run"><path d="M32,23c-0.002-4.634-3.501-8.443-8-8.941V5.584L18.414,0H0v32h24v-0.059C28.499,31.441,31.998,27.633,32,23z M17.998,2.413   L21.586,6h-3.588V2.413z M2,30V1.998h14v6.001h6v6.06c-0.694,0.076-1.362,0.238-2,0.464V12H8v3l-4-3v10l4-3v3h6.059   C14.022,22.329,14,22.661,14,23c0,2.829,1.308,5.351,3.349,7H2z M23,29.883c-3.801-0.009-6.876-3.084-6.885-6.883   c0.009-3.801,3.084-6.876,6.885-6.885c3.799,0.009,6.874,3.084,6.883,6.885C29.874,26.799,26.799,29.874,23,29.883z"/><polygon points="22,19 22,27 26,23  "/></g></svg>