<?xml version="1.0" encoding="UTF-8"?>
<!--Generator: Apple Native CoreSVG 123-->
<!DOCTYPE svg
PUBLIC "-//W3C//DTD SVG 1.1//EN"
       "http://www.w3.org/Graphics/SVG/1.1/DTD/svg11.dtd">
<svg version="1.1" xmlns="http://www.w3.org/2000/svg" xmlns:xlink="http://www.w3.org/1999/xlink" width="3300" height="2200">
 <!--glyph: "uni100380.medium", point size: 100.000000, font version: "Version 15.0d7e11", template writer version: "5"-->
 <g id="Notes">
  <rect height="2200" id="artboard" style="fill:white;opacity:1" width="3300" x="0" y="0"/>
  <line id="" style="fill:none;stroke:black;opacity:1;stroke-width:0.5;" x1="263" x2="3036" y1="292" y2="292"/>
  <text style="stroke:none;fill:black;font-family:-apple-system,&quot;SF Pro Display&quot;,&quot;SF Pro Text&quot;,Helvetica,sans-serif;font-weight:bold;" transform="matrix(1 0 0 1 263 322)">Weight/Scale Variations</text>
  <text style="stroke:none;fill:black;font-family:-apple-system,&quot;SF Pro Display&quot;,&quot;SF Pro Text&quot;,Helvetica,sans-serif;text-anchor:middle;" transform="matrix(1 0 0 1 559.711 322)">Ultralight</text>
  <text style="stroke:none;fill:black;font-family:-apple-system,&quot;SF Pro Display&quot;,&quot;SF Pro Text&quot;,Helvetica,sans-serif;text-anchor:middle;" transform="matrix(1 0 0 1 856.422 322)">Thin</text>
  <text style="stroke:none;fill:black;font-family:-apple-system,&quot;SF Pro Display&quot;,&quot;SF Pro Text&quot;,Helvetica,sans-serif;text-anchor:middle;" transform="matrix(1 0 0 1 1153.13 322)">Light</text>
  <text style="stroke:none;fill:black;font-family:-apple-system,&quot;SF Pro Display&quot;,&quot;SF Pro Text&quot;,Helvetica,sans-serif;text-anchor:middle;" transform="matrix(1 0 0 1 1449.84 322)">Regular</text>
  <text style="stroke:none;fill:black;font-family:-apple-system,&quot;SF Pro Display&quot;,&quot;SF Pro Text&quot;,Helvetica,sans-serif;text-anchor:middle;" transform="matrix(1 0 0 1 1746.56 322)">Medium</text>
  <text style="stroke:none;fill:black;font-family:-apple-system,&quot;SF Pro Display&quot;,&quot;SF Pro Text&quot;,Helvetica,sans-serif;text-anchor:middle;" transform="matrix(1 0 0 1 2043.27 322)">Semibold</text>
  <text style="stroke:none;fill:black;font-family:-apple-system,&quot;SF Pro Display&quot;,&quot;SF Pro Text&quot;,Helvetica,sans-serif;text-anchor:middle;" transform="matrix(1 0 0 1 2339.98 322)">Bold</text>
  <text style="stroke:none;fill:black;font-family:-apple-system,&quot;SF Pro Display&quot;,&quot;SF Pro Text&quot;,Helvetica,sans-serif;text-anchor:middle;" transform="matrix(1 0 0 1 2636.69 322)">Heavy</text>
  <text style="stroke:none;fill:black;font-family:-apple-system,&quot;SF Pro Display&quot;,&quot;SF Pro Text&quot;,Helvetica,sans-serif;text-anchor:middle;" transform="matrix(1 0 0 1 2933.4 322)">Black</text>
  <line id="" style="fill:none;stroke:black;opacity:1;stroke-width:0.5;" x1="263" x2="3036" y1="1903" y2="1903"/>
  <g id="" transform="matrix(1 0 0 1 263 1933)">
   <path d="M 9.24805 0.830078 C 13.5547 0.830078 17.1387 -2.74414 17.1387 -7.05078 C 17.1387 -11.3574 13.5449 -14.9316 9.23828 -14.9316 C 4.94141 -14.9316 1.36719 -11.3574 1.36719 -7.05078 C 1.36719 -2.74414 4.95117 0.830078 9.24805 0.830078 Z M 9.24805 -0.654297 C 5.70312 -0.654297 2.87109 -3.49609 2.87109 -7.05078 C 2.87109 -10.6055 5.69336 -13.4473 9.23828 -13.4473 C 12.793 -13.4473 15.6348 -10.6055 15.6445 -7.05078 C 15.6543 -3.49609 12.8027 -0.654297 9.24805 -0.654297 Z M 9.22852 -3.42773 C 9.69727 -3.42773 9.9707 -3.74023 9.9707 -4.25781 L 9.9707 -6.31836 L 12.1973 -6.31836 C 12.6953 -6.31836 13.0371 -6.57227 13.0371 -7.04102 C 13.0371 -7.51953 12.7148 -7.7832 12.1973 -7.7832 L 9.9707 -7.7832 L 9.9707 -10.0098 C 9.9707 -10.5273 9.69727 -10.8496 9.22852 -10.8496 C 8.75977 -10.8496 8.50586 -10.5078 8.50586 -10.0098 L 8.50586 -7.7832 L 6.29883 -7.7832 C 5.78125 -7.7832 5.44922 -7.51953 5.44922 -7.04102 C 5.44922 -6.57227 5.80078 -6.31836 6.29883 -6.31836 L 8.50586 -6.31836 L 8.50586 -4.25781 C 8.50586 -3.75977 8.75977 -3.42773 9.22852 -3.42773 Z"/>
  </g>
  <g id="" transform="matrix(1 0 0 1 281.506 1933)">
   <path d="M 11.709 2.91016 C 17.1582 2.91016 21.6699 -1.60156 21.6699 -7.05078 C 21.6699 -12.4902 17.1484 -17.0117 11.6992 -17.0117 C 6.25977 -17.0117 1.74805 -12.4902 1.74805 -7.05078 C 1.74805 -1.60156 6.26953 2.91016 11.709 2.91016 Z M 11.709 1.25 C 7.09961 1.25 3.41797 -2.44141 3.41797 -7.05078 C 3.41797 -11.6504 7.08984 -15.3516 11.6992 -15.3516 C 16.3086 -15.3516 20 -11.6504 20.0098 -7.05078 C 20.0195 -2.44141 16.3184 1.25 11.709 1.25 Z M 11.6895 -2.41211 C 12.207 -2.41211 12.5195 -2.77344 12.5195 -3.33984 L 12.5195 -6.23047 L 15.5762 -6.23047 C 16.123 -6.23047 16.5039 -6.51367 16.5039 -7.03125 C 16.5039 -7.55859 16.1426 -7.86133 15.5762 -7.86133 L 12.5195 -7.86133 L 12.5195 -10.9277 C 12.5195 -11.5039 12.207 -11.8555 11.6895 -11.8555 C 11.1719 -11.8555 10.8789 -11.4844 10.8789 -10.9277 L 10.8789 -7.86133 L 7.83203 -7.86133 C 7.26562 -7.86133 6.89453 -7.55859 6.89453 -7.03125 C 6.89453 -6.51367 7.28516 -6.23047 7.83203 -6.23047 L 10.8789 -6.23047 L 10.8789 -3.33984 C 10.8789 -2.79297 11.1719 -2.41211 11.6895 -2.41211 Z"/>
  </g>
  <g id="" transform="matrix(1 0 0 1 304.924 1933)">
   <path d="M 14.9707 5.67383 C 21.9336 5.67383 27.6953 -0.078125 27.6953 -7.04102 C 27.6953 -14.0039 21.9238 -19.7559 14.9609 -19.7559 C 8.00781 -19.7559 2.25586 -14.0039 2.25586 -7.04102 C 2.25586 -0.078125 8.01758 5.67383 14.9707 5.67383 Z M 14.9707 3.85742 C 8.93555 3.85742 4.08203 -1.00586 4.08203 -7.04102 C 4.08203 -13.0762 8.92578 -17.9395 14.9609 -17.9395 C 21.0059 -17.9395 25.8594 -13.0762 25.8691 -7.04102 C 25.8789 -1.00586 21.0156 3.85742 14.9707 3.85742 Z M 14.9512 -1.06445 C 15.5176 -1.06445 15.8691 -1.45508 15.8691 -2.06055 L 15.8691 -6.13281 L 20.1074 -6.13281 C 20.6934 -6.13281 21.1133 -6.46484 21.1133 -7.02148 C 21.1133 -7.59766 20.7227 -7.93945 20.1074 -7.93945 L 15.8691 -7.93945 L 15.8691 -12.1875 C 15.8691 -12.8027 15.5176 -13.1934 14.9512 -13.1934 C 14.3848 -13.1934 14.0625 -12.7832 14.0625 -12.1875 L 14.0625 -7.93945 L 9.83398 -7.93945 C 9.21875 -7.93945 8.80859 -7.59766 8.80859 -7.02148 C 8.80859 -6.46484 9.23828 -6.13281 9.83398 -6.13281 L 14.0625 -6.13281 L 14.0625 -2.06055 C 14.0625 -1.47461 14.3848 -1.06445 14.9512 -1.06445 Z"/>
  </g>
  <text style="stroke:none;fill:black;font-family:-apple-system,&quot;SF Pro Display&quot;,&quot;SF Pro Text&quot;,Helvetica,sans-serif;font-weight:bold;" transform="matrix(1 0 0 1 263 1953)">Design Variations</text>
  <text style="stroke:none;fill:black;font-family:-apple-system,&quot;SF Pro Display&quot;,&quot;SF Pro Text&quot;,Helvetica,sans-serif;" transform="matrix(1 0 0 1 263 1971)">Symbols are supported in up to nine weights and three scales.</text>
  <text style="stroke:none;fill:black;font-family:-apple-system,&quot;SF Pro Display&quot;,&quot;SF Pro Text&quot;,Helvetica,sans-serif;" transform="matrix(1 0 0 1 263 1989)">For optimal layout with text and other symbols, vertically align</text>
  <text style="stroke:none;fill:black;font-family:-apple-system,&quot;SF Pro Display&quot;,&quot;SF Pro Text&quot;,Helvetica,sans-serif;" transform="matrix(1 0 0 1 263 2007)">symbols with the adjacent text.</text>
  <rect height="14" id="" style="fill:#00AEEF;stroke:none;opacity:0.4;" width="3" x="776" y="1919"/>
  <g id="" transform="matrix(1 0 0 1 779 1933)">
   <path d="M 10.5273 0 L 12.373 0 L 7.17773 -14.0918 L 5.43945 -14.0918 L 0.244141 0 L 2.08984 0 L 3.50586 -4.0332 L 9.11133 -4.0332 Z M 6.2793 -11.9531 L 6.33789 -11.9531 L 8.59375 -5.52734 L 4.02344 -5.52734 Z"/>
  </g>
  <rect height="14" id="" style="fill:#00AEEF;stroke:none;opacity:0.4;" width="3" x="791.617" y="1919"/>
  <text style="stroke:none;fill:black;font-family:-apple-system,&quot;SF Pro Display&quot;,&quot;SF Pro Text&quot;,Helvetica,sans-serif;font-weight:bold;" transform="matrix(1 0 0 1 776 1953)">Margins</text>
  <text style="stroke:none;fill:black;font-family:-apple-system,&quot;SF Pro Display&quot;,&quot;SF Pro Text&quot;,Helvetica,sans-serif;" transform="matrix(1 0 0 1 776 1971)">Leading and trailing margins on the left and right side of each symbol</text>
  <text style="stroke:none;fill:black;font-family:-apple-system,&quot;SF Pro Display&quot;,&quot;SF Pro Text&quot;,Helvetica,sans-serif;" transform="matrix(1 0 0 1 776 1989)">can be adjusted by modifying the width of the blue rectangles.</text>
  <text style="stroke:none;fill:black;font-family:-apple-system,&quot;SF Pro Display&quot;,&quot;SF Pro Text&quot;,Helvetica,sans-serif;" transform="matrix(1 0 0 1 776 2007)">Modifications are automatically applied proportionally to all</text>
  <text style="stroke:none;fill:black;font-family:-apple-system,&quot;SF Pro Display&quot;,&quot;SF Pro Text&quot;,Helvetica,sans-serif;" transform="matrix(1 0 0 1 776 2025)">scales and weights.</text>
  <g id="" transform="matrix(1 0 0 1 1289 1933)">
   <path d="M 2.83203 3.11523 L 4.375 4.6582 C 5.22461 5.48828 6.19141 5.41992 7.06055 4.46289 L 17.2754 -6.66016 C 17.7051 -6.36719 18.0957 -6.37695 18.5645 -6.47461 L 19.6094 -6.68945 L 20.3027 -5.99609 L 20.2539 -5.47852 C 20.1855 -4.95117 20.3516 -4.53125 20.8496 -4.0332 L 21.6602 -3.22266 C 22.168 -2.71484 22.8223 -2.68555 23.3008 -3.16406 L 26.5527 -6.41602 C 27.0312 -6.89453 27.0117 -7.54883 26.5039 -8.05664 L 25.6836 -8.87695 C 25.1855 -9.375 24.7754 -9.55078 24.2383 -9.47266 L 23.7109 -9.41406 L 23.0566 -10.0781 L 23.3398 -11.2207 C 23.4863 -11.7871 23.3398 -12.2559 22.7148 -12.8613 L 20.3027 -15.2539 C 16.7578 -18.7793 12.2266 -18.6719 9.11133 -15.5371 C 8.69141 -15.1074 8.64258 -14.5215 8.91602 -14.0918 C 9.15039 -13.7207 9.62891 -13.4961 10.2734 -13.6621 C 11.7871 -14.043 13.3008 -13.9258 14.7852 -12.9199 L 14.1602 -11.3379 C 13.9258 -10.752 13.9453 -10.2734 14.1797 -9.83398 L 3.01758 0.439453 C 2.08008 1.30859 1.97266 2.25586 2.83203 3.11523 Z M 10.6738 -15.1465 C 13.3398 -17.1387 16.6504 -16.8262 19.0527 -14.4141 L 21.6797 -11.8066 C 21.9141 -11.5723 21.9434 -11.3867 21.8848 -11.0938 L 21.5039 -9.53125 L 23.0762 -7.95898 L 24.043 -8.04688 C 24.3262 -8.07617 24.4141 -8.05664 24.6387 -7.83203 L 25.2637 -7.20703 L 22.5098 -4.46289 L 21.8848 -5.07812 C 21.6602 -5.30273 21.6406 -5.40039 21.6699 -5.68359 L 21.7578 -6.64062 L 20.1953 -8.20312 L 18.5742 -7.89062 C 18.291 -7.83203 18.1445 -7.83203 17.9102 -8.07617 L 15.7324 -10.2539 C 15.5078 -10.4883 15.4785 -10.625 15.6055 -10.9473 L 16.5527 -13.2227 C 14.9512 -14.7559 12.8418 -15.6055 10.8008 -14.9512 C 10.7129 -14.9219 10.6445 -14.9414 10.6152 -14.9805 C 10.5859 -15.0293 10.5859 -15.0781 10.6738 -15.1465 Z M 4.10156 2.41211 C 3.61328 1.91406 3.78906 1.61133 4.12109 1.30859 L 15.0781 -8.80859 L 16.3086 -7.57812 L 6.15234 3.34961 C 5.84961 3.68164 5.46875 3.7793 5.06836 3.37891 Z"/>
  </g>
  <text style="stroke:none;fill:black;font-family:-apple-system,&quot;SF Pro Display&quot;,&quot;SF Pro Text&quot;,Helvetica,sans-serif;font-weight:bold;" transform="matrix(1 0 0 1 1289 1953)">Exporting</text>
  <text style="stroke:none;fill:black;font-family:-apple-system,&quot;SF Pro Display&quot;,&quot;SF Pro Text&quot;,Helvetica,sans-serif;" transform="matrix(1 0 0 1 1289 1971)">Symbols should be outlined when exporting to ensure the</text>
  <text style="stroke:none;fill:black;font-family:-apple-system,&quot;SF Pro Display&quot;,&quot;SF Pro Text&quot;,Helvetica,sans-serif;" transform="matrix(1 0 0 1 1289 1989)">design is preserved when submitting to Xcode.</text>
  <text id="template-version" style="stroke:none;fill:black;font-family:-apple-system,&quot;SF Pro Display&quot;,&quot;SF Pro Text&quot;,Helvetica,sans-serif;text-anchor:end;" transform="matrix(1 0 0 1 3036 1933)">Template v.1.0</text>
  <text style="stroke:none;fill:black;font-family:-apple-system,&quot;SF Pro Display&quot;,&quot;SF Pro Text&quot;,Helvetica,sans-serif;text-anchor:end;" transform="matrix(1 0 0 1 3036 1951)">Generated from gobackward</text>
  <text style="stroke:none;fill:black;font-family:-apple-system,&quot;SF Pro Display&quot;,&quot;SF Pro Text&quot;,Helvetica,sans-serif;text-anchor:end;" transform="matrix(1 0 0 1 3036 1969)">Typeset at 100 points</text>
  <text style="stroke:none;fill:black;font-family:-apple-system,&quot;SF Pro Display&quot;,&quot;SF Pro Text&quot;,Helvetica,sans-serif;" transform="matrix(1 0 0 1 263 726)">Small</text>
  <text style="stroke:none;fill:black;font-family:-apple-system,&quot;SF Pro Display&quot;,&quot;SF Pro Text&quot;,Helvetica,sans-serif;" transform="matrix(1 0 0 1 263 1156)">Medium</text>
  <text style="stroke:none;fill:black;font-family:-apple-system,&quot;SF Pro Display&quot;,&quot;SF Pro Text&quot;,Helvetica,sans-serif;" transform="matrix(1 0 0 1 263 1586)">Large</text>
 </g>
 <g id="Guides">
  <g id="H-reference" style="fill:#27AAE1;stroke:none;" transform="matrix(1 0 0 1 339 696)">
   <path d="M 54.9316 0 L 57.666 0 L 30.5664 -70.459 L 28.0762 -70.459 L 0.976562 0 L 3.66211 0 L 12.9395 -24.4629 L 45.7031 -24.4629 Z M 29.1992 -67.0898 L 29.4434 -67.0898 L 44.8242 -26.709 L 13.8184 -26.709 Z"/>
  </g>
  <line id="Baseline-S" style="fill:none;stroke:#27AAE1;opacity:1;stroke-width:0.577;" x1="263" x2="3036" y1="696" y2="696"/>
  <line id="Capline-S" style="fill:none;stroke:#27AAE1;opacity:1;stroke-width:0.577;" x1="263" x2="3036" y1="625.541" y2="625.541"/>
  <g id="H-reference" style="fill:#27AAE1;stroke:none;" transform="matrix(1 0 0 1 339 1126)">
   <path d="M 54.9316 0 L 57.666 0 L 30.5664 -70.459 L 28.0762 -70.459 L 0.976562 0 L 3.66211 0 L 12.9395 -24.4629 L 45.7031 -24.4629 Z M 29.1992 -67.0898 L 29.4434 -67.0898 L 44.8242 -26.709 L 13.8184 -26.709 Z"/>
  </g>
  <line id="Baseline-M" style="fill:none;stroke:#27AAE1;opacity:1;stroke-width:0.577;" x1="263" x2="3036" y1="1126" y2="1126"/>
  <line id="Capline-M" style="fill:none;stroke:#27AAE1;opacity:1;stroke-width:0.577;" x1="263" x2="3036" y1="1055.54" y2="1055.54"/>
  <g id="H-reference" style="fill:#27AAE1;stroke:none;" transform="matrix(1 0 0 1 339 1556)">
   <path d="M 54.9316 0 L 57.666 0 L 30.5664 -70.459 L 28.0762 -70.459 L 0.976562 0 L 3.66211 0 L 12.9395 -24.4629 L 45.7031 -24.4629 Z M 29.1992 -67.0898 L 29.4434 -67.0898 L 44.8242 -26.709 L 13.8184 -26.709 Z"/>
  </g>
  <line id="Baseline-L" style="fill:none;stroke:#27AAE1;opacity:1;stroke-width:0.577;" x1="263" x2="3036" y1="1556" y2="1556"/>
  <line id="Capline-L" style="fill:none;stroke:#27AAE1;opacity:1;stroke-width:0.577;" x1="263" x2="3036" y1="1485.54" y2="1485.54"/>
  <rect height="119.336" id="left-margin" style="fill:#00AEEF;stroke:none;opacity:0.4;" width="8.74023" x="1391.3" y="1030.79"/>
  <rect height="119.336" id="right-margin" style="fill:#00AEEF;stroke:none;opacity:0.4;" width="8.74023" x="1499.65" y="1030.79"/>
 </g>
 <g id="Symbols">
  <g id="Black-L" transform="matrix(1 0 0 1 2854.05 1556)">
   <path d="M 79.3457 32.8125 C 116.748 32.8125 147.412 2.14844 147.412 -35.2539 C 147.412 -67.334 124.951 -94.3848 95.0195 -101.514 L 95.0195 -111.572 C 95.0195 -117.578 89.6973 -119.434 84.3262 -115.479 L 59.5215 -97.3145 C 55.2246 -94.1895 55.3223 -89.0137 59.5215 -85.9375 L 84.3262 -67.6758 C 89.6484 -63.7695 95.0195 -65.4297 95.0195 -71.6309 L 95.0195 -80.2734 C 113.672 -73.8281 126.953 -56.1523 126.953 -35.2539 C 126.953 -8.88672 105.713 12.3535 79.3457 12.3535 C 52.9785 12.3535 31.6895 -8.88672 31.7383 -35.2539 C 31.7383 -48.5352 37.0117 -59.8145 45.8984 -68.9941 C 50.1465 -73.584 51.6113 -79.6875 47.3145 -84.3262 C 43.457 -88.5254 37.3535 -88.5742 31.8848 -83.6914 C 19.5801 -73.0957 11.2793 -52.9297 11.2793 -35.2539 C 11.2793 2.14844 41.9434 32.8125 79.3457 32.8125 Z"/>
  </g>
  <g id="Heavy-L" transform="matrix(1 0 0 1 2558.39 1556)">
   <path d="M 78.2715 31.7383 C 115.088 31.7383 145.312 1.5625 145.312 -35.2539 C 145.312 -66.9922 122.852 -93.8477 93.0176 -100.635 L 93.0176 -110.498 C 93.0176 -116.016 88.3301 -117.725 83.4961 -114.16 L 59.8633 -96.9727 C 56.0059 -94.1895 56.0547 -89.5996 59.8633 -86.8164 L 83.4961 -69.5801 C 88.3301 -66.0645 93.0176 -67.627 93.0176 -73.2422 L 93.0176 -82.2754 C 113.086 -76.0254 127.49 -57.4219 127.49 -35.2539 C 127.49 -8.00781 105.566 13.9648 78.2715 13.9648 C 51.0254 13.9648 29.0039 -8.00781 29.0527 -35.2539 C 29.0527 -49.8047 35.3027 -62.3047 45.459 -71.582 C 49.2188 -75.4883 50.5371 -80.7617 46.9238 -84.8633 C 43.6523 -88.5254 38.2812 -88.7207 33.5938 -84.5703 C 20.2148 -73.7793 11.2793 -53.8574 11.2793 -35.2539 C 11.2793 1.5625 41.5039 31.7383 78.2715 31.7383 Z"/>
  </g>
  <g id="Bold-L" transform="matrix(1 0 0 1 2262.88 1556)">
   <path d="M 77.0996 30.5664 C 113.232 30.5664 142.92 0.878906 142.92 -35.2539 C 142.92 -66.6504 120.459 -93.2129 90.8691 -99.6094 L 90.8691 -109.277 C 90.8691 -114.258 86.8164 -115.771 82.5684 -112.695 L 60.2539 -96.6309 C 56.8359 -94.1895 56.8848 -90.2344 60.2539 -87.793 L 82.5684 -71.7285 C 86.8164 -68.6035 90.8691 -70.0195 90.8691 -75.0977 L 90.8691 -84.4238 C 112.402 -78.4668 128.125 -58.7891 128.125 -35.2539 C 128.125 -6.93359 105.371 15.8203 77.0996 15.8203 C 48.8281 15.8203 26.0254 -6.93359 26.0254 -35.2539 C 26.0742 -51.2207 33.3984 -65.0879 45.0195 -74.5117 C 48.1934 -77.6367 49.2676 -81.9336 46.4355 -85.4004 C 43.8965 -88.5742 39.3555 -88.8672 35.4492 -85.5469 C 20.9473 -74.5117 11.2793 -54.834 11.2793 -35.2539 C 11.2793 0.878906 41.0156 30.5664 77.0996 30.5664 Z"/>
  </g>
  <g id="Semibold-L" transform="matrix(1 0 0 1 1966.97 1556)">
   <path d="M 76.2695 29.7852 C 111.914 29.7852 141.309 0.390625 141.309 -35.2051 C 141.309 -66.4062 118.848 -92.8223 89.3555 -98.9258 L 89.3555 -108.447 C 89.3555 -113.086 85.791 -114.404 81.9336 -111.67 L 60.5469 -96.3867 C 57.4219 -94.1895 57.4219 -90.7227 60.5469 -88.4277 L 81.9336 -73.1934 C 85.791 -70.4102 89.3555 -71.6797 89.3555 -76.3672 L 89.3555 -85.9375 C 111.963 -80.1758 128.564 -59.7168 128.564 -35.2051 C 128.564 -6.25 105.273 17.0898 76.2695 17.0898 C 47.3145 17.0898 23.9258 -6.25 23.9746 -35.2051 C 24.0234 -52.1973 32.0801 -66.9922 44.6777 -76.5137 C 47.5098 -79.1016 48.4375 -82.7637 46.1426 -85.791 C 44.043 -88.5742 40.0879 -89.0137 36.7676 -86.2305 C 21.4355 -75 11.2793 -55.5176 11.2793 -35.2051 C 11.2793 0.390625 40.6738 29.7852 76.2695 29.7852 Z"/>
  </g>
  <g id="Medium-L" transform="matrix(1 0 0 1 1670.87 1556)">
   <path d="M 75.6836 29.1992 C 110.938 29.1992 140.088 0.0488281 140.088 -35.2051 C 140.088 -66.2109 117.578 -92.4805 88.1836 -98.3887 L 88.1836 -107.861 C 88.1836 -112.158 85.0098 -113.379 81.4453 -110.889 L 60.791 -96.2402 C 57.8613 -94.1895 57.8613 -91.0645 60.791 -88.9648 L 81.4453 -74.3164 C 84.9609 -71.7285 88.1836 -72.9492 88.1836 -77.3438 L 88.1836 -87.0117 C 111.621 -81.4453 128.906 -60.4492 128.906 -35.2051 C 128.906 -5.71289 105.176 18.0176 75.6836 18.0176 C 46.1426 18.0176 22.3633 -5.71289 22.4121 -35.2051 C 22.4609 -52.9297 31.1035 -68.457 44.4336 -78.0273 C 46.9727 -80.2246 47.8027 -83.3984 45.8984 -86.084 C 44.1895 -88.5742 40.6738 -89.1113 37.7441 -86.7676 C 21.8262 -75.3906 11.2793 -56.0547 11.2793 -35.2051 C 11.2793 0.0488281 40.3809 29.1992 75.6836 29.1992 Z"/>
  </g>
  <g id="Regular-L" transform="matrix(1 0 0 1 1374.97 1556)">
   <path d="M 74.8535 28.3691 C 109.668 28.3691 138.477 -0.390625 138.477 -35.2051 C 138.477 -66.0156 115.967 -92.0898 86.6699 -97.7051 L 86.6699 -107.031 C 86.6699 -110.986 83.9355 -112.061 80.8594 -109.863 L 61.0352 -95.9961 C 58.4473 -94.1895 58.3984 -91.5039 61.0352 -89.5996 L 80.8105 -75.7324 C 83.9355 -73.4863 86.6699 -74.6094 86.6699 -78.5645 L 86.6699 -88.4277 C 111.182 -83.1055 129.297 -61.377 129.297 -35.2051 C 129.297 -5.0293 105.078 19.2871 74.8535 19.2871 C 44.6777 19.2871 20.3125 -5.0293 20.3613 -35.2051 C 20.4102 -53.9062 29.7852 -70.3125 44.0918 -80.0293 C 46.2891 -81.6406 46.9727 -84.1797 45.6055 -86.4258 C 44.3359 -88.5742 41.4062 -89.209 39.0137 -87.4023 C 22.3145 -75.9277 11.2793 -56.7383 11.2793 -35.2051 C 11.2793 -0.390625 40.0879 28.3691 74.8535 28.3691 Z"/>
  </g>
  <g id="Light-L" transform="matrix(1 0 0 1 1079.18 1556)">
   <path d="M 73.9258 27.4902 C 108.301 27.4902 136.621 -0.830078 136.621 -35.1562 C 136.621 -65.6738 114.307 -91.4062 85.3027 -96.7773 L 85.3027 -106.641 C 85.3027 -109.863 83.0078 -110.84 80.3711 -108.984 L 60.9863 -95.4102 C 58.7402 -93.8477 58.7402 -91.6504 60.9863 -90.0391 L 80.3223 -76.5137 C 83.0078 -74.5605 85.3027 -75.5371 85.3027 -78.8086 L 85.3027 -89.7949 C 110.693 -84.5703 129.688 -62.1582 129.688 -35.1562 C 129.688 -4.3457 104.785 20.6055 73.9258 20.6055 C 43.1152 20.6055 18.1641 -4.3457 18.1641 -35.1562 C 18.2129 -54.9316 28.4668 -72.2168 43.9453 -82.0312 C 45.6055 -83.2031 46.1426 -85.1562 45.1172 -86.8652 C 44.1895 -88.5254 41.9922 -89.0137 40.1855 -87.6953 C 22.8516 -76.5137 11.2793 -57.0801 11.2793 -35.1562 C 11.2793 -0.830078 39.5996 27.4902 73.9258 27.4902 Z"/>
  </g>
  <g id="Thin-L" transform="matrix(1 0 0 1 783.693 1556)">
   <path d="M 72.7051 26.3184 C 106.494 26.3184 134.18 -1.36719 134.18 -35.1074 C 134.18 -65.2344 112.158 -90.5273 83.4473 -95.6055 L 83.4473 -106.152 C 83.4473 -108.447 81.7871 -109.277 79.7363 -107.812 L 60.9375 -94.6777 C 59.1797 -93.457 59.1797 -91.8457 60.9375 -90.625 L 79.7363 -77.4902 C 81.7871 -75.9766 83.4473 -76.8555 83.4473 -79.1016 L 83.4473 -91.6016 C 110.01 -86.5723 130.176 -63.1836 130.176 -35.1074 C 130.176 -3.41797 104.443 22.3145 72.7051 22.3145 C 41.0156 22.3145 15.2832 -3.41797 15.2832 -35.1074 C 15.2832 -56.25 26.709 -74.6582 43.75 -84.668 C 44.7266 -85.3027 45.0195 -86.4746 44.4824 -87.4512 C 43.9941 -88.3789 42.7734 -88.7207 41.6992 -88.0371 C 23.4863 -77.2949 11.2793 -57.5684 11.2793 -35.1074 C 11.2793 -1.36719 38.9648 26.3184 72.7051 26.3184 Z"/>
  </g>
  <g id="Ultralight-L" transform="matrix(1 0 0 1 487.616 1556)">
   <path d="M 72.1191 25.7324 C 105.566 25.7324 132.91 -1.61133 132.91 -35.1074 C 132.91 -65.0391 111.035 -90.0879 82.4707 -95.0195 L 82.4707 -105.908 C 82.4707 -107.715 81.2012 -108.447 79.3945 -107.178 L 60.8887 -94.2871 C 59.375 -93.2129 59.375 -91.9434 60.8887 -90.918 L 79.3945 -77.9785 C 81.2012 -76.709 82.4707 -77.4902 82.4707 -79.248 L 82.4707 -92.4805 C 109.668 -87.5488 130.42 -63.6719 130.42 -35.1074 C 130.42 -2.97852 104.248 23.2422 72.1191 23.2422 C 39.9414 23.2422 13.7695 -2.97852 13.7695 -35.1074 C 13.7695 -56.8848 25.7812 -75.9277 43.6523 -86.0352 C 44.2871 -86.377 44.4824 -87.1582 44.1895 -87.7441 C 43.8965 -88.3301 43.1641 -88.623 42.4316 -88.1836 C 23.8281 -77.6855 11.2793 -57.8125 11.2793 -35.1074 C 11.2793 -1.61133 38.623 25.7324 72.1191 25.7324 Z"/>
  </g>
  <g id="Black-M" transform="matrix(1 0 0 1 2870.97 1126)">
   <path d="M 62.4023 18.4082 C 91.9922 18.4082 116.113 -5.66406 116.113 -35.2539 C 116.113 -60.3516 98.8281 -81.4453 75.5371 -87.3047 L 75.5371 -95.6543 C 75.5371 -100.586 70.8496 -102.197 66.2109 -98.7305 L 45.6055 -83.4473 C 41.9434 -80.7617 42.0898 -76.2207 45.6055 -73.584 L 66.2109 -58.2031 C 70.8008 -54.834 75.5371 -56.25 75.5371 -61.3281 L 75.5371 -68.1641 C 88.623 -62.9395 97.8027 -50.1953 97.8027 -35.2539 C 97.8027 -15.7227 81.9824 0.146484 62.4023 0.146484 C 42.8711 0.146484 27.002 -15.7227 27.002 -35.2539 C 27.002 -44.3848 30.2246 -51.9531 36.084 -58.9355 C 39.7461 -63.2324 41.0645 -68.7988 36.9141 -72.8516 C 33.3496 -76.4648 27.9785 -76.2207 23.0469 -71.7773 C 14.5508 -64.0137 8.74023 -47.9492 8.74023 -35.2539 C 8.74023 -5.66406 32.8125 18.4082 62.4023 18.4082 Z"/>
  </g>
  <g id="Heavy-M" transform="matrix(1 0 0 1 2575.19 1126)">
   <path d="M 61.5234 17.5293 C 90.5273 17.5293 114.258 -6.20117 114.258 -35.2539 C 114.258 -60.1074 96.9238 -81.0059 73.7305 -86.5723 L 73.7305 -94.5801 C 73.7305 -99.1699 69.6289 -100.635 65.4297 -97.5098 L 45.9961 -83.252 C 42.6758 -80.8105 42.7734 -76.8066 45.9961 -74.4141 L 65.4297 -60.1074 C 69.5801 -57.0312 73.7305 -58.3496 73.7305 -63.0859 L 73.7305 -70.0195 C 88.0859 -64.9902 98.3398 -51.3672 98.3398 -35.2539 C 98.3398 -14.8926 81.8848 1.61133 61.5234 1.61133 C 41.1133 1.61133 24.6582 -14.8926 24.6582 -35.2539 C 24.6582 -45.5078 28.7598 -54.1992 35.6445 -61.2793 C 38.916 -64.8926 40.0391 -69.6777 36.6211 -73.291 C 33.5938 -76.5137 28.8574 -76.4648 24.6094 -72.6562 C 15.1367 -64.5996 8.74023 -48.8281 8.74023 -35.2539 C 8.74023 -6.20117 32.4707 17.5293 61.5234 17.5293 Z"/>
  </g>
  <g id="Bold-M" transform="matrix(1 0 0 1 2279.5 1126)">
   <path d="M 60.498 16.5039 C 88.8672 16.5039 112.207 -6.83594 112.207 -35.2539 C 112.207 -59.8145 94.8242 -80.5664 71.7285 -85.7422 L 71.7285 -93.3594 C 71.7285 -97.5586 68.2129 -98.8281 64.5508 -96.1426 L 46.4844 -83.0566 C 43.5547 -80.9082 43.5547 -77.4902 46.4844 -75.3418 L 64.5508 -62.207 C 68.2129 -59.5215 71.7285 -60.7422 71.7285 -65.0391 L 71.7285 -72.0215 C 87.5 -67.2363 98.9258 -52.6367 98.9258 -35.2539 C 98.9258 -13.9648 81.7871 3.22266 60.498 3.22266 C 39.1602 3.22266 22.0215 -13.9648 22.0215 -35.2539 C 22.0703 -46.7773 27.0508 -56.6406 35.1562 -63.8672 C 37.9883 -66.748 38.9648 -70.7031 36.2793 -73.7793 C 33.8867 -76.5625 29.834 -76.709 26.3184 -73.6328 C 15.7715 -65.2344 8.74023 -49.8047 8.74023 -35.2539 C 8.74023 -6.83594 32.0801 16.5039 60.498 16.5039 Z"/>
  </g>
  <g id="Semibold-M" transform="matrix(1 0 0 1 1983.5 1126)">
   <path d="M 59.7656 15.7715 C 87.7441 15.7715 110.791 -7.27539 110.791 -35.2539 C 110.791 -59.6191 93.3594 -80.2246 70.3613 -85.1562 L 70.3613 -92.5293 C 70.3613 -96.4844 67.2852 -97.6074 63.9648 -95.2148 L 46.7773 -82.9102 C 44.0918 -80.957 44.1406 -77.9297 46.7773 -76.0254 L 63.916 -63.6719 C 67.2363 -61.2793 70.3613 -62.3535 70.3613 -66.3574 L 70.3613 -73.3887 C 87.1094 -68.7988 99.3164 -53.5156 99.3164 -35.2539 C 99.3164 -13.3301 81.6895 4.3457 59.7656 4.3457 C 37.8418 4.3457 20.166 -13.3301 20.2148 -35.2539 C 20.2637 -47.6074 25.8789 -58.3984 34.8145 -65.6738 C 37.3535 -68.0664 38.1836 -71.3867 36.0352 -74.0723 C 34.082 -76.5625 30.5176 -76.9043 27.4902 -74.3164 C 16.2109 -65.6738 8.74023 -50.4883 8.74023 -35.2539 C 8.74023 -7.27539 31.7871 15.7715 59.7656 15.7715 Z"/>
  </g>
  <g id="Medium-M" transform="matrix(1 0 0 1 1687.3 1126)">
   <path d="M 59.2285 15.2832 C 86.9141 15.2832 109.766 -7.56836 109.766 -35.2539 C 109.766 -59.4727 92.2363 -79.9805 69.3359 -84.7168 L 69.3359 -91.8945 C 69.3359 -95.6055 66.5527 -96.6797 63.5254 -94.4824 L 47.0215 -82.8125 C 44.5312 -81.0059 44.5312 -78.2715 47.0215 -76.5137 L 63.4766 -64.7949 C 66.5039 -62.5977 69.3359 -63.5742 69.3359 -67.3828 L 69.3359 -74.4141 C 86.8164 -69.9707 99.6094 -54.1992 99.6094 -35.2539 C 99.6094 -12.8418 81.6406 5.17578 59.2285 5.17578 C 36.8164 5.17578 18.7988 -12.8418 18.8477 -35.2539 C 18.8965 -48.291 25 -59.668 34.5703 -67.041 C 36.8652 -69.043 37.5977 -71.9238 35.8398 -74.3164 C 34.2285 -76.6113 31.0547 -77.002 28.418 -74.8535 C 16.5527 -65.9668 8.74023 -51.0254 8.74023 -35.2539 C 8.74023 -7.56836 31.5918 15.2832 59.2285 15.2832 Z"/>
  </g>
  <g id="Regular-M" transform="matrix(1 0 0 1 1391.3 1126)">
   <path d="M 58.5449 14.5508 C 85.791 14.5508 108.35 -8.00781 108.35 -35.2539 C 108.35 -59.2773 90.8203 -79.6387 67.9688 -84.1309 L 67.9688 -91.0645 C 67.9688 -94.5312 65.5762 -95.459 62.9395 -93.5547 L 47.3633 -82.666 C 45.1172 -81.1035 45.0684 -78.7598 47.3633 -77.1484 L 62.8906 -66.2109 C 65.5762 -64.2578 67.9688 -65.1855 67.9688 -68.7012 L 67.9688 -75.6836 C 86.4258 -71.4844 100 -55.0293 100 -35.2539 C 100 -12.207 81.5918 6.25 58.5449 6.25 C 35.498 6.25 16.9922 -12.207 17.041 -35.2539 C 17.0898 -49.1211 23.8281 -61.377 34.2285 -68.7988 C 36.2305 -70.3125 36.8652 -72.6074 35.6445 -74.6582 C 34.4238 -76.6602 31.7383 -77.1973 29.5898 -75.5371 C 17.041 -66.4062 8.74023 -51.6602 8.74023 -35.2539 C 8.74023 -8.00781 31.3477 14.5508 58.5449 14.5508 Z"/>
  </g>
  <g id="Light-M" transform="matrix(1 0 0 1 1095.42 1126)">
   <path d="M 57.7148 13.7695 C 84.5215 13.7695 106.689 -8.39844 106.689 -35.2051 C 106.689 -58.9844 89.3555 -79.0527 66.6992 -83.3496 L 66.6992 -90.7715 C 66.6992 -93.5547 64.7461 -94.3848 62.5 -92.7734 L 47.3145 -82.1289 C 45.4102 -80.8105 45.3613 -78.8574 47.3145 -77.5391 L 62.4512 -66.8945 C 64.7461 -65.2344 66.6992 -66.0645 66.6992 -68.8965 L 66.6992 -76.9043 C 85.9863 -72.8027 100.342 -55.7129 100.342 -35.2051 C 100.342 -11.5723 81.3477 7.4707 57.7148 7.4707 C 34.082 7.4707 15.0391 -11.5723 15.0879 -35.2051 C 15.0879 -50.0488 22.6562 -63.0371 34.1309 -70.6055 C 35.6445 -71.7285 36.1328 -73.4863 35.2051 -75.0488 C 34.2773 -76.5625 32.2754 -77.002 30.6152 -75.7324 C 17.4805 -66.9434 8.74023 -52.002 8.74023 -35.2051 C 8.74023 -8.39844 30.9082 13.7695 57.7148 13.7695 Z"/>
  </g>
  <g id="Thin-M" transform="matrix(1 0 0 1 799.806 1126)">
   <path d="M 56.6406 12.7441 C 82.9102 12.7441 104.492 -8.83789 104.492 -35.1562 C 104.492 -58.5938 87.4023 -78.2715 65.0391 -82.2754 L 65.0391 -90.332 C 65.0391 -92.2852 63.6719 -92.9688 61.9141 -91.6992 L 47.2168 -81.4453 C 45.752 -80.4199 45.752 -79.0527 47.2168 -78.0273 L 61.9141 -67.7734 C 63.6719 -66.5039 65.0391 -67.1875 65.0391 -69.1895 L 65.0391 -78.5156 C 85.4004 -74.5605 100.781 -56.6406 100.781 -35.1562 C 100.781 -10.791 81.0059 8.98438 56.6406 8.98438 C 32.2266 8.98438 12.4512 -10.791 12.4512 -35.1562 C 12.4512 -51.2207 21.0938 -65.2344 33.9355 -72.998 C 34.8633 -73.584 35.1074 -74.6582 34.6191 -75.5859 C 34.1309 -76.4648 32.959 -76.7578 31.9824 -76.0742 C 18.0664 -67.627 8.74023 -52.4414 8.74023 -35.1562 C 8.74023 -8.83789 30.3223 12.7441 56.6406 12.7441 Z"/>
  </g>
  <g id="Ultralight-M" transform="matrix(1 0 0 1 503.656 1126)">
   <path d="M 56.0547 12.207 C 82.0801 12.207 103.369 -9.08203 103.369 -35.1562 C 103.369 -58.3984 86.377 -77.8809 64.209 -81.7383 L 64.209 -90.0879 C 64.209 -91.6016 63.0859 -92.2363 61.6211 -91.1621 L 47.168 -81.1035 C 45.9473 -80.2246 45.9473 -79.1504 47.168 -78.2715 L 61.6211 -68.2129 C 63.0859 -67.1387 64.209 -67.7734 64.209 -69.2871 L 64.209 -79.3457 C 85.1074 -75.4883 100.977 -57.1289 100.977 -35.1562 C 100.977 -10.3516 80.8594 9.81445 56.0547 9.81445 C 31.2988 9.81445 11.1328 -10.3516 11.1328 -35.1562 C 11.1328 -51.8066 20.2637 -66.4062 33.8379 -74.1699 C 34.4238 -74.5605 34.6191 -75.2441 34.3262 -75.8789 C 34.0332 -76.3672 33.3008 -76.6113 32.666 -76.2207 C 18.3594 -68.0176 8.74023 -52.6855 8.74023 -35.1562 C 8.74023 -9.08203 30.0293 12.207 56.0547 12.207 Z"/>
  </g>
  <g id="Black-S" transform="matrix(1 0 0 1 2884.57 696)">
   <path d="M 48.8281 6.73828 C 71.9727 6.73828 90.8203 -12.1094 90.8203 -35.2539 C 90.8203 -54.8828 77.2949 -71.4355 59.0332 -75.9766 L 59.0332 -82.4707 C 59.0332 -86.3281 55.4199 -87.5977 51.8066 -84.9121 L 35.7422 -72.998 C 32.9102 -70.8984 33.0078 -67.3828 35.7422 -65.332 L 51.8066 -53.3691 C 55.3711 -50.7324 59.0332 -51.8555 59.0332 -55.8105 L 59.0332 -61.1816 C 69.3848 -57.0801 76.6602 -47.0703 76.6602 -35.2539 C 76.6602 -19.873 64.209 -7.42188 48.8281 -7.42188 C 33.4473 -7.42188 20.9961 -19.873 20.9961 -35.2539 C 20.9961 -42.4805 23.584 -48.4863 28.2227 -53.9551 C 31.0547 -57.2754 32.0801 -61.5723 28.9062 -64.7461 C 26.123 -67.5293 21.9727 -67.3828 18.1641 -63.916 C 11.4258 -57.8125 6.83594 -45.2637 6.83594 -35.2539 C 6.83594 -12.1094 25.6836 6.73828 48.8281 6.73828 Z"/>
  </g>
  <g id="Heavy-S" transform="matrix(1 0 0 1 2588.47 696)">
   <path d="M 48.2422 6.15234 C 70.9961 6.15234 89.5996 -12.5 89.5996 -35.2539 C 89.5996 -54.7363 75.9766 -71.1426 57.8125 -75.5371 L 57.8125 -81.6895 C 57.8125 -85.3516 54.541 -86.4746 51.2695 -84.082 L 36.084 -72.9004 C 33.4473 -70.9961 33.4961 -67.8223 36.084 -65.918 L 51.2695 -54.7363 C 54.541 -52.3438 57.8125 -53.3691 57.8125 -57.1289 L 57.8125 -62.4512 C 69.043 -58.4961 77.002 -47.8516 77.002 -35.2539 C 77.002 -19.2871 64.1602 -6.44531 48.2422 -6.44531 C 32.2754 -6.44531 19.3848 -19.2871 19.4336 -35.2539 C 19.4336 -43.2617 22.5586 -50 27.9297 -55.5176 C 30.4688 -58.3984 31.3965 -62.1582 28.7109 -65.0391 C 26.3184 -67.5781 22.6074 -67.5781 19.2383 -64.5508 C 11.8164 -58.2031 6.83594 -45.8984 6.83594 -35.2539 C 6.83594 -12.5 25.4395 6.15234 48.2422 6.15234 Z"/>
  </g>
  <g id="Bold-S" transform="matrix(1 0 0 1 2292.44 696)">
   <path d="M 47.5586 5.46875 C 69.873 5.46875 88.2324 -12.9395 88.2324 -35.2539 C 88.2324 -54.541 74.5605 -70.8496 56.4453 -74.9512 L 56.4453 -80.8105 C 56.4453 -84.2285 53.6133 -85.2539 50.6348 -83.1055 L 36.4258 -72.8027 C 34.0332 -71.0938 34.082 -68.3105 36.4258 -66.6016 L 50.6348 -56.2988 C 53.5645 -54.1504 56.4453 -55.0781 56.4453 -58.5938 L 56.4453 -63.8184 C 68.6523 -60.0586 77.4414 -48.7305 77.4414 -35.2539 C 77.4414 -18.7012 64.1113 -5.37109 47.5586 -5.37109 C 30.957 -5.37109 17.627 -18.7012 17.627 -35.2539 C 17.6758 -44.0918 21.4355 -51.709 27.5391 -57.3242 C 29.8828 -59.668 30.6641 -62.8418 28.5156 -65.332 C 26.5625 -67.627 23.291 -67.7734 20.4102 -65.2832 C 12.2559 -58.5938 6.83594 -46.6309 6.83594 -35.2539 C 6.83594 -12.9395 25.1953 5.46875 47.5586 5.46875 Z"/>
  </g>
  <g id="Semibold-S" transform="matrix(1 0 0 1 1996.2 696)">
   <path d="M 47.0703 4.98047 C 69.0918 4.98047 87.3047 -13.2324 87.3047 -35.2539 C 87.3047 -54.3945 73.584 -70.6543 55.5176 -74.6094 L 55.5176 -80.2246 C 55.5176 -83.4961 52.9297 -84.4238 50.2441 -82.4707 L 36.6699 -72.7539 C 34.4727 -71.1914 34.4727 -68.6523 36.6699 -67.0898 L 50.1953 -57.3242 C 52.9297 -55.3711 55.5176 -56.25 55.5176 -59.5703 L 55.5176 -64.7461 C 68.3594 -61.1328 77.6855 -49.3652 77.6855 -35.2539 C 77.6855 -18.2617 64.0625 -4.58984 47.0703 -4.58984 C 30.0781 -4.58984 16.4062 -18.2617 16.4062 -35.2539 C 16.4551 -44.6777 20.6055 -52.8809 27.2949 -58.5449 C 29.4434 -60.498 30.127 -63.2812 28.3691 -65.5762 C 26.7578 -67.6758 23.7793 -67.9199 21.2402 -65.8203 C 12.5488 -58.8867 6.83594 -47.1191 6.83594 -35.2539 C 6.83594 -13.2324 25.0488 4.98047 47.0703 4.98047 Z"/>
  </g>
  <g id="Medium-S" transform="matrix(1 0 0 1 1699.83 696)">
   <path d="M 46.7285 4.63867 C 68.5547 4.63867 86.6211 -13.4277 86.6211 -35.2539 C 86.6211 -54.2969 72.8516 -70.5078 54.7852 -74.3164 L 54.7852 -79.7363 C 54.7852 -82.9102 52.4414 -83.7891 49.9023 -81.9824 L 36.8652 -72.7051 C 34.7656 -71.2402 34.7656 -68.9453 36.8652 -67.4316 L 49.8535 -58.1543 C 52.4414 -56.2988 54.7852 -57.1289 54.7852 -60.3516 L 54.7852 -65.4297 C 68.1641 -61.9141 77.8809 -49.8047 77.8809 -35.2539 C 77.8809 -17.9199 64.0625 -4.05273 46.7285 -4.05273 C 29.3945 -4.05273 15.4785 -17.9199 15.4785 -35.2539 C 15.5273 -45.1172 20.0195 -53.7598 27.1484 -59.4727 C 29.1016 -61.1816 29.7363 -63.623 28.2715 -65.7227 C 26.8555 -67.6758 24.1211 -68.0176 21.875 -66.2109 C 12.793 -59.1309 6.83594 -47.4609 6.83594 -35.2539 C 6.83594 -13.4277 24.9023 4.63867 46.7285 4.63867 Z"/>
  </g>
  <g id="Regular-S" transform="matrix(1 0 0 1 1403.58 696)">
   <path d="M 46.2402 4.15039 C 67.7734 4.15039 85.6934 -13.7207 85.6934 -35.2539 C 85.6934 -54.1992 71.8262 -70.3125 53.8574 -73.9258 L 53.8574 -79.1504 C 53.8574 -82.1777 51.7578 -82.959 49.5117 -81.2988 L 37.1094 -72.6074 C 35.2051 -71.2891 35.1562 -69.2383 37.1094 -67.8711 L 49.4629 -59.1797 C 51.7578 -57.5195 53.8574 -58.3008 53.8574 -61.377 L 53.8574 -66.3086 C 67.9199 -62.9883 78.1738 -50.3906 78.1738 -35.2539 C 78.1738 -17.4805 64.0137 -3.27148 46.2402 -3.27148 C 28.5156 -3.27148 14.2578 -17.4805 14.3066 -35.2539 C 14.3555 -45.7031 19.2383 -54.8828 26.9043 -60.6934 C 28.6621 -62.0117 29.248 -64.1113 28.125 -65.918 C 27.0508 -67.7246 24.6094 -68.1641 22.6562 -66.6992 C 13.0859 -59.4238 6.83594 -47.9492 6.83594 -35.2539 C 6.83594 -13.7207 24.7559 4.15039 46.2402 4.15039 Z"/>
  </g>
  <g id="Light-S" transform="matrix(1 0 0 1 1107.6 696)">
   <path d="M 45.5078 3.4668 C 66.6992 3.4668 84.2285 -14.0625 84.2285 -35.2051 C 84.2285 -53.9551 70.5566 -69.8242 52.7344 -73.2422 L 52.7344 -78.8574 C 52.7344 -81.2988 51.0254 -81.9824 49.1211 -80.6152 L 37.0605 -72.168 C 35.4492 -71.0449 35.4004 -69.3848 37.0605 -68.2129 L 49.0723 -59.7656 C 51.0254 -58.3496 52.7344 -59.0332 52.7344 -61.5234 L 52.7344 -67.4316 C 67.5293 -64.1602 78.4668 -51.0254 78.4668 -35.2051 C 78.4668 -16.9434 63.8184 -2.24609 45.5078 -2.24609 C 27.2461 -2.24609 12.5 -16.9434 12.5488 -35.2051 C 12.5977 -46.4844 18.2129 -56.3965 26.7578 -62.2559 C 28.125 -63.2812 28.5645 -64.8926 27.7344 -66.2598 C 26.9043 -67.627 25.0488 -68.0176 23.584 -66.8945 C 13.5254 -59.8633 6.83594 -48.2422 6.83594 -35.2051 C 6.83594 -14.0625 24.3652 3.4668 45.5078 3.4668 Z"/>
  </g>
  <g id="Thin-S" transform="matrix(1 0 0 1 811.867 696)">
   <path d="M 44.5801 2.53906 C 65.2832 2.53906 82.2754 -14.4531 82.2754 -35.2051 C 82.2754 -53.6133 68.7988 -69.0918 51.2695 -72.3145 L 51.2695 -78.4668 C 51.2695 -80.1758 50.0977 -80.7129 48.6328 -79.6875 L 37.0117 -71.582 C 35.791 -70.7031 35.7422 -69.5312 37.0117 -68.6523 L 48.584 -60.5469 C 50.0977 -59.4727 51.2695 -60.0586 51.2695 -61.7676 L 51.2695 -68.8477 C 66.9922 -65.7227 78.8574 -51.8555 78.8574 -35.2051 C 78.8574 -16.2109 63.5254 -0.878906 44.5801 -0.878906 C 25.5859 -0.878906 10.2539 -16.2109 10.2539 -35.2051 C 10.2539 -47.5098 16.7969 -58.3496 26.6113 -64.3555 C 27.4414 -64.9414 27.6855 -65.918 27.2461 -66.748 C 26.7578 -67.5293 25.6836 -67.8223 24.7559 -67.1387 C 14.0137 -60.498 6.83594 -48.6328 6.83594 -35.2051 C 6.83594 -14.4531 23.877 2.53906 44.5801 2.53906 Z"/>
  </g>
  <g id="Ultralight-S" transform="matrix(1 0 0 1 515.644 696)">
   <path d="M 44.043 2.05078 C 64.502 2.05078 81.2988 -14.6973 81.2988 -35.1562 C 81.2988 -53.418 67.9199 -68.75 50.5371 -71.8262 L 50.5371 -78.2715 C 50.5371 -79.5898 49.5605 -80.0781 48.3398 -79.1992 L 36.9629 -71.2402 C 35.9375 -70.5566 35.9375 -69.6289 36.9629 -68.8965 L 48.3398 -60.9375 C 49.5605 -60.0586 50.5371 -60.5957 50.5371 -61.8652 L 50.5371 -69.5801 C 66.748 -66.5527 79.0527 -52.2461 79.0527 -35.1562 C 79.0527 -15.8691 63.3789 -0.146484 44.043 -0.146484 C 24.7559 -0.146484 9.08203 -15.8691 9.08203 -35.1562 C 9.08203 -48.0469 16.0645 -59.3262 26.5137 -65.4297 C 27.0996 -65.7715 27.2461 -66.4551 26.9531 -66.9922 C 26.6602 -67.4805 26.0254 -67.7246 25.3906 -67.2852 C 14.3066 -60.8398 6.83594 -48.8281 6.83594 -35.1562 C 6.83594 -14.6973 23.584 2.05078 44.043 2.05078 Z"/>
  </g>
 </g>
</svg>
