<?xml version="1.0" encoding="UTF-8"?>
<!--Generator: Apple Native CoreSVG 123-->
<!DOCTYPE svg
PUBLIC "-//W3C//DTD SVG 1.1//EN"
       "http://www.w3.org/Graphics/SVG/1.1/DTD/svg11.dtd">
<svg version="1.1" xmlns="http://www.w3.org/2000/svg" xmlns:xlink="http://www.w3.org/1999/xlink" width="3300" height="2200">
 <!--glyph: "uni10037F.medium", point size: 100.000000, font version: "Version 15.0d7e11", template writer version: "5"-->
 <g id="Notes">
  <rect height="2200" id="artboard" style="fill:white;opacity:1" width="3300" x="0" y="0"/>
  <line id="" style="fill:none;stroke:black;opacity:1;stroke-width:0.5;" x1="263" x2="3036" y1="292" y2="292"/>
  <text style="stroke:none;fill:black;font-family:-apple-system,&quot;SF Pro Display&quot;,&quot;SF Pro Text&quot;,Helvetica,sans-serif;font-weight:bold;" transform="matrix(1 0 0 1 263 322)">Weight/Scale Variations</text>
  <text style="stroke:none;fill:black;font-family:-apple-system,&quot;SF Pro Display&quot;,&quot;SF Pro Text&quot;,Helvetica,sans-serif;text-anchor:middle;" transform="matrix(1 0 0 1 559.711 322)">Ultralight</text>
  <text style="stroke:none;fill:black;font-family:-apple-system,&quot;SF Pro Display&quot;,&quot;SF Pro Text&quot;,Helvetica,sans-serif;text-anchor:middle;" transform="matrix(1 0 0 1 856.422 322)">Thin</text>
  <text style="stroke:none;fill:black;font-family:-apple-system,&quot;SF Pro Display&quot;,&quot;SF Pro Text&quot;,Helvetica,sans-serif;text-anchor:middle;" transform="matrix(1 0 0 1 1153.13 322)">Light</text>
  <text style="stroke:none;fill:black;font-family:-apple-system,&quot;SF Pro Display&quot;,&quot;SF Pro Text&quot;,Helvetica,sans-serif;text-anchor:middle;" transform="matrix(1 0 0 1 1449.84 322)">Regular</text>
  <text style="stroke:none;fill:black;font-family:-apple-system,&quot;SF Pro Display&quot;,&quot;SF Pro Text&quot;,Helvetica,sans-serif;text-anchor:middle;" transform="matrix(1 0 0 1 1746.56 322)">Medium</text>
  <text style="stroke:none;fill:black;font-family:-apple-system,&quot;SF Pro Display&quot;,&quot;SF Pro Text&quot;,Helvetica,sans-serif;text-anchor:middle;" transform="matrix(1 0 0 1 2043.27 322)">Semibold</text>
  <text style="stroke:none;fill:black;font-family:-apple-system,&quot;SF Pro Display&quot;,&quot;SF Pro Text&quot;,Helvetica,sans-serif;text-anchor:middle;" transform="matrix(1 0 0 1 2339.98 322)">Bold</text>
  <text style="stroke:none;fill:black;font-family:-apple-system,&quot;SF Pro Display&quot;,&quot;SF Pro Text&quot;,Helvetica,sans-serif;text-anchor:middle;" transform="matrix(1 0 0 1 2636.69 322)">Heavy</text>
  <text style="stroke:none;fill:black;font-family:-apple-system,&quot;SF Pro Display&quot;,&quot;SF Pro Text&quot;,Helvetica,sans-serif;text-anchor:middle;" transform="matrix(1 0 0 1 2933.4 322)">Black</text>
  <line id="" style="fill:none;stroke:black;opacity:1;stroke-width:0.5;" x1="263" x2="3036" y1="1903" y2="1903"/>
  <g id="" transform="matrix(1 0 0 1 263 1933)">
   <path d="M 9.24805 0.830078 C 13.5547 0.830078 17.1387 -2.74414 17.1387 -7.05078 C 17.1387 -11.3574 13.5449 -14.9316 9.23828 -14.9316 C 4.94141 -14.9316 1.36719 -11.3574 1.36719 -7.05078 C 1.36719 -2.74414 4.95117 0.830078 9.24805 0.830078 Z M 9.24805 -0.654297 C 5.70312 -0.654297 2.87109 -3.49609 2.87109 -7.05078 C 2.87109 -10.6055 5.69336 -13.4473 9.23828 -13.4473 C 12.793 -13.4473 15.6348 -10.6055 15.6445 -7.05078 C 15.6543 -3.49609 12.8027 -0.654297 9.24805 -0.654297 Z M 9.22852 -3.42773 C 9.69727 -3.42773 9.9707 -3.74023 9.9707 -4.25781 L 9.9707 -6.31836 L 12.1973 -6.31836 C 12.6953 -6.31836 13.0371 -6.57227 13.0371 -7.04102 C 13.0371 -7.51953 12.7148 -7.7832 12.1973 -7.7832 L 9.9707 -7.7832 L 9.9707 -10.0098 C 9.9707 -10.5273 9.69727 -10.8496 9.22852 -10.8496 C 8.75977 -10.8496 8.50586 -10.5078 8.50586 -10.0098 L 8.50586 -7.7832 L 6.29883 -7.7832 C 5.78125 -7.7832 5.44922 -7.51953 5.44922 -7.04102 C 5.44922 -6.57227 5.80078 -6.31836 6.29883 -6.31836 L 8.50586 -6.31836 L 8.50586 -4.25781 C 8.50586 -3.75977 8.75977 -3.42773 9.22852 -3.42773 Z"/>
  </g>
  <g id="" transform="matrix(1 0 0 1 281.506 1933)">
   <path d="M 11.709 2.91016 C 17.1582 2.91016 21.6699 -1.60156 21.6699 -7.05078 C 21.6699 -12.4902 17.1484 -17.0117 11.6992 -17.0117 C 6.25977 -17.0117 1.74805 -12.4902 1.74805 -7.05078 C 1.74805 -1.60156 6.26953 2.91016 11.709 2.91016 Z M 11.709 1.25 C 7.09961 1.25 3.41797 -2.44141 3.41797 -7.05078 C 3.41797 -11.6504 7.08984 -15.3516 11.6992 -15.3516 C 16.3086 -15.3516 20 -11.6504 20.0098 -7.05078 C 20.0195 -2.44141 16.3184 1.25 11.709 1.25 Z M 11.6895 -2.41211 C 12.207 -2.41211 12.5195 -2.77344 12.5195 -3.33984 L 12.5195 -6.23047 L 15.5762 -6.23047 C 16.123 -6.23047 16.5039 -6.51367 16.5039 -7.03125 C 16.5039 -7.55859 16.1426 -7.86133 15.5762 -7.86133 L 12.5195 -7.86133 L 12.5195 -10.9277 C 12.5195 -11.5039 12.207 -11.8555 11.6895 -11.8555 C 11.1719 -11.8555 10.8789 -11.4844 10.8789 -10.9277 L 10.8789 -7.86133 L 7.83203 -7.86133 C 7.26562 -7.86133 6.89453 -7.55859 6.89453 -7.03125 C 6.89453 -6.51367 7.28516 -6.23047 7.83203 -6.23047 L 10.8789 -6.23047 L 10.8789 -3.33984 C 10.8789 -2.79297 11.1719 -2.41211 11.6895 -2.41211 Z"/>
  </g>
  <g id="" transform="matrix(1 0 0 1 304.924 1933)">
   <path d="M 14.9707 5.67383 C 21.9336 5.67383 27.6953 -0.078125 27.6953 -7.04102 C 27.6953 -14.0039 21.9238 -19.7559 14.9609 -19.7559 C 8.00781 -19.7559 2.25586 -14.0039 2.25586 -7.04102 C 2.25586 -0.078125 8.01758 5.67383 14.9707 5.67383 Z M 14.9707 3.85742 C 8.93555 3.85742 4.08203 -1.00586 4.08203 -7.04102 C 4.08203 -13.0762 8.92578 -17.9395 14.9609 -17.9395 C 21.0059 -17.9395 25.8594 -13.0762 25.8691 -7.04102 C 25.8789 -1.00586 21.0156 3.85742 14.9707 3.85742 Z M 14.9512 -1.06445 C 15.5176 -1.06445 15.8691 -1.45508 15.8691 -2.06055 L 15.8691 -6.13281 L 20.1074 -6.13281 C 20.6934 -6.13281 21.1133 -6.46484 21.1133 -7.02148 C 21.1133 -7.59766 20.7227 -7.93945 20.1074 -7.93945 L 15.8691 -7.93945 L 15.8691 -12.1875 C 15.8691 -12.8027 15.5176 -13.1934 14.9512 -13.1934 C 14.3848 -13.1934 14.0625 -12.7832 14.0625 -12.1875 L 14.0625 -7.93945 L 9.83398 -7.93945 C 9.21875 -7.93945 8.80859 -7.59766 8.80859 -7.02148 C 8.80859 -6.46484 9.23828 -6.13281 9.83398 -6.13281 L 14.0625 -6.13281 L 14.0625 -2.06055 C 14.0625 -1.47461 14.3848 -1.06445 14.9512 -1.06445 Z"/>
  </g>
  <text style="stroke:none;fill:black;font-family:-apple-system,&quot;SF Pro Display&quot;,&quot;SF Pro Text&quot;,Helvetica,sans-serif;font-weight:bold;" transform="matrix(1 0 0 1 263 1953)">Design Variations</text>
  <text style="stroke:none;fill:black;font-family:-apple-system,&quot;SF Pro Display&quot;,&quot;SF Pro Text&quot;,Helvetica,sans-serif;" transform="matrix(1 0 0 1 263 1971)">Symbols are supported in up to nine weights and three scales.</text>
  <text style="stroke:none;fill:black;font-family:-apple-system,&quot;SF Pro Display&quot;,&quot;SF Pro Text&quot;,Helvetica,sans-serif;" transform="matrix(1 0 0 1 263 1989)">For optimal layout with text and other symbols, vertically align</text>
  <text style="stroke:none;fill:black;font-family:-apple-system,&quot;SF Pro Display&quot;,&quot;SF Pro Text&quot;,Helvetica,sans-serif;" transform="matrix(1 0 0 1 263 2007)">symbols with the adjacent text.</text>
  <rect height="14" id="" style="fill:#00AEEF;stroke:none;opacity:0.4;" width="3" x="776" y="1919"/>
  <g id="" transform="matrix(1 0 0 1 779 1933)">
   <path d="M 10.5273 0 L 12.373 0 L 7.17773 -14.0918 L 5.43945 -14.0918 L 0.244141 0 L 2.08984 0 L 3.50586 -4.0332 L 9.11133 -4.0332 Z M 6.2793 -11.9531 L 6.33789 -11.9531 L 8.59375 -5.52734 L 4.02344 -5.52734 Z"/>
  </g>
  <rect height="14" id="" style="fill:#00AEEF;stroke:none;opacity:0.4;" width="3" x="791.617" y="1919"/>
  <text style="stroke:none;fill:black;font-family:-apple-system,&quot;SF Pro Display&quot;,&quot;SF Pro Text&quot;,Helvetica,sans-serif;font-weight:bold;" transform="matrix(1 0 0 1 776 1953)">Margins</text>
  <text style="stroke:none;fill:black;font-family:-apple-system,&quot;SF Pro Display&quot;,&quot;SF Pro Text&quot;,Helvetica,sans-serif;" transform="matrix(1 0 0 1 776 1971)">Leading and trailing margins on the left and right side of each symbol</text>
  <text style="stroke:none;fill:black;font-family:-apple-system,&quot;SF Pro Display&quot;,&quot;SF Pro Text&quot;,Helvetica,sans-serif;" transform="matrix(1 0 0 1 776 1989)">can be adjusted by modifying the width of the blue rectangles.</text>
  <text style="stroke:none;fill:black;font-family:-apple-system,&quot;SF Pro Display&quot;,&quot;SF Pro Text&quot;,Helvetica,sans-serif;" transform="matrix(1 0 0 1 776 2007)">Modifications are automatically applied proportionally to all</text>
  <text style="stroke:none;fill:black;font-family:-apple-system,&quot;SF Pro Display&quot;,&quot;SF Pro Text&quot;,Helvetica,sans-serif;" transform="matrix(1 0 0 1 776 2025)">scales and weights.</text>
  <g id="" transform="matrix(1 0 0 1 1289 1933)">
   <path d="M 2.83203 3.11523 L 4.375 4.6582 C 5.22461 5.48828 6.19141 5.41992 7.06055 4.46289 L 17.2754 -6.66016 C 17.7051 -6.36719 18.0957 -6.37695 18.5645 -6.47461 L 19.6094 -6.68945 L 20.3027 -5.99609 L 20.2539 -5.47852 C 20.1855 -4.95117 20.3516 -4.53125 20.8496 -4.0332 L 21.6602 -3.22266 C 22.168 -2.71484 22.8223 -2.68555 23.3008 -3.16406 L 26.5527 -6.41602 C 27.0312 -6.89453 27.0117 -7.54883 26.5039 -8.05664 L 25.6836 -8.87695 C 25.1855 -9.375 24.7754 -9.55078 24.2383 -9.47266 L 23.7109 -9.41406 L 23.0566 -10.0781 L 23.3398 -11.2207 C 23.4863 -11.7871 23.3398 -12.2559 22.7148 -12.8613 L 20.3027 -15.2539 C 16.7578 -18.7793 12.2266 -18.6719 9.11133 -15.5371 C 8.69141 -15.1074 8.64258 -14.5215 8.91602 -14.0918 C 9.15039 -13.7207 9.62891 -13.4961 10.2734 -13.6621 C 11.7871 -14.043 13.3008 -13.9258 14.7852 -12.9199 L 14.1602 -11.3379 C 13.9258 -10.752 13.9453 -10.2734 14.1797 -9.83398 L 3.01758 0.439453 C 2.08008 1.30859 1.97266 2.25586 2.83203 3.11523 Z M 10.6738 -15.1465 C 13.3398 -17.1387 16.6504 -16.8262 19.0527 -14.4141 L 21.6797 -11.8066 C 21.9141 -11.5723 21.9434 -11.3867 21.8848 -11.0938 L 21.5039 -9.53125 L 23.0762 -7.95898 L 24.043 -8.04688 C 24.3262 -8.07617 24.4141 -8.05664 24.6387 -7.83203 L 25.2637 -7.20703 L 22.5098 -4.46289 L 21.8848 -5.07812 C 21.6602 -5.30273 21.6406 -5.40039 21.6699 -5.68359 L 21.7578 -6.64062 L 20.1953 -8.20312 L 18.5742 -7.89062 C 18.291 -7.83203 18.1445 -7.83203 17.9102 -8.07617 L 15.7324 -10.2539 C 15.5078 -10.4883 15.4785 -10.625 15.6055 -10.9473 L 16.5527 -13.2227 C 14.9512 -14.7559 12.8418 -15.6055 10.8008 -14.9512 C 10.7129 -14.9219 10.6445 -14.9414 10.6152 -14.9805 C 10.5859 -15.0293 10.5859 -15.0781 10.6738 -15.1465 Z M 4.10156 2.41211 C 3.61328 1.91406 3.78906 1.61133 4.12109 1.30859 L 15.0781 -8.80859 L 16.3086 -7.57812 L 6.15234 3.34961 C 5.84961 3.68164 5.46875 3.7793 5.06836 3.37891 Z"/>
  </g>
  <text style="stroke:none;fill:black;font-family:-apple-system,&quot;SF Pro Display&quot;,&quot;SF Pro Text&quot;,Helvetica,sans-serif;font-weight:bold;" transform="matrix(1 0 0 1 1289 1953)">Exporting</text>
  <text style="stroke:none;fill:black;font-family:-apple-system,&quot;SF Pro Display&quot;,&quot;SF Pro Text&quot;,Helvetica,sans-serif;" transform="matrix(1 0 0 1 1289 1971)">Symbols should be outlined when exporting to ensure the</text>
  <text style="stroke:none;fill:black;font-family:-apple-system,&quot;SF Pro Display&quot;,&quot;SF Pro Text&quot;,Helvetica,sans-serif;" transform="matrix(1 0 0 1 1289 1989)">design is preserved when submitting to Xcode.</text>
  <text id="template-version" style="stroke:none;fill:black;font-family:-apple-system,&quot;SF Pro Display&quot;,&quot;SF Pro Text&quot;,Helvetica,sans-serif;text-anchor:end;" transform="matrix(1 0 0 1 3036 1933)">Template v.1.0</text>
  <text style="stroke:none;fill:black;font-family:-apple-system,&quot;SF Pro Display&quot;,&quot;SF Pro Text&quot;,Helvetica,sans-serif;text-anchor:end;" transform="matrix(1 0 0 1 3036 1951)">Generated from goforward</text>
  <text style="stroke:none;fill:black;font-family:-apple-system,&quot;SF Pro Display&quot;,&quot;SF Pro Text&quot;,Helvetica,sans-serif;text-anchor:end;" transform="matrix(1 0 0 1 3036 1969)">Typeset at 100 points</text>
  <text style="stroke:none;fill:black;font-family:-apple-system,&quot;SF Pro Display&quot;,&quot;SF Pro Text&quot;,Helvetica,sans-serif;" transform="matrix(1 0 0 1 263 726)">Small</text>
  <text style="stroke:none;fill:black;font-family:-apple-system,&quot;SF Pro Display&quot;,&quot;SF Pro Text&quot;,Helvetica,sans-serif;" transform="matrix(1 0 0 1 263 1156)">Medium</text>
  <text style="stroke:none;fill:black;font-family:-apple-system,&quot;SF Pro Display&quot;,&quot;SF Pro Text&quot;,Helvetica,sans-serif;" transform="matrix(1 0 0 1 263 1586)">Large</text>
 </g>
 <g id="Guides">
  <g id="H-reference" style="fill:#27AAE1;stroke:none;" transform="matrix(1 0 0 1 339 696)">
   <path d="M 54.9316 0 L 57.666 0 L 30.5664 -70.459 L 28.0762 -70.459 L 0.976562 0 L 3.66211 0 L 12.9395 -24.4629 L 45.7031 -24.4629 Z M 29.1992 -67.0898 L 29.4434 -67.0898 L 44.8242 -26.709 L 13.8184 -26.709 Z"/>
  </g>
  <line id="Baseline-S" style="fill:none;stroke:#27AAE1;opacity:1;stroke-width:0.577;" x1="263" x2="3036" y1="696" y2="696"/>
  <line id="Capline-S" style="fill:none;stroke:#27AAE1;opacity:1;stroke-width:0.577;" x1="263" x2="3036" y1="625.541" y2="625.541"/>
  <g id="H-reference" style="fill:#27AAE1;stroke:none;" transform="matrix(1 0 0 1 339 1126)">
   <path d="M 54.9316 0 L 57.666 0 L 30.5664 -70.459 L 28.0762 -70.459 L 0.976562 0 L 3.66211 0 L 12.9395 -24.4629 L 45.7031 -24.4629 Z M 29.1992 -67.0898 L 29.4434 -67.0898 L 44.8242 -26.709 L 13.8184 -26.709 Z"/>
  </g>
  <line id="Baseline-M" style="fill:none;stroke:#27AAE1;opacity:1;stroke-width:0.577;" x1="263" x2="3036" y1="1126" y2="1126"/>
  <line id="Capline-M" style="fill:none;stroke:#27AAE1;opacity:1;stroke-width:0.577;" x1="263" x2="3036" y1="1055.54" y2="1055.54"/>
  <g id="H-reference" style="fill:#27AAE1;stroke:none;" transform="matrix(1 0 0 1 339 1556)">
   <path d="M 54.9316 0 L 57.666 0 L 30.5664 -70.459 L 28.0762 -70.459 L 0.976562 0 L 3.66211 0 L 12.9395 -24.4629 L 45.7031 -24.4629 Z M 29.1992 -67.0898 L 29.4434 -67.0898 L 44.8242 -26.709 L 13.8184 -26.709 Z"/>
  </g>
  <line id="Baseline-L" style="fill:none;stroke:#27AAE1;opacity:1;stroke-width:0.577;" x1="263" x2="3036" y1="1556" y2="1556"/>
  <line id="Capline-L" style="fill:none;stroke:#27AAE1;opacity:1;stroke-width:0.577;" x1="263" x2="3036" y1="1485.54" y2="1485.54"/>
  <rect height="119.336" id="left-margin" style="fill:#00AEEF;stroke:none;opacity:0.4;" width="8.74023" x="1391.3" y="1030.79"/>
  <rect height="119.336" id="right-margin" style="fill:#00AEEF;stroke:none;opacity:0.4;" width="8.74023" x="1499.65" y="1030.79"/>
 </g>
 <g id="Symbols">
  <g id="Black-L" transform="matrix(1 0 0 1 2854.05 1556)">
   <path d="M 79.3457 32.8125 C 116.748 32.8125 147.412 2.14844 147.412 -35.2539 C 147.412 -52.9297 139.111 -73.0957 126.807 -83.6914 C 121.338 -88.5742 115.234 -88.5254 111.377 -84.3262 C 107.08 -79.6875 108.545 -73.584 112.793 -68.9941 C 121.68 -59.8145 126.953 -48.5352 126.953 -35.2539 C 127.002 -8.88672 105.713 12.3535 79.3457 12.3535 C 52.9785 12.3535 31.7383 -8.88672 31.7383 -35.2539 C 31.7383 -56.1523 45.0195 -73.8281 63.6719 -80.2734 L 63.6719 -71.582 C 63.6719 -65.5762 68.9453 -63.7207 74.3652 -67.6758 L 99.1699 -85.8398 C 103.467 -88.9648 103.369 -94.1406 99.1699 -97.2168 L 74.3652 -115.479 C 69.043 -119.385 63.6719 -117.725 63.6719 -111.523 L 63.6719 -101.514 C 33.7402 -94.3848 11.2793 -67.334 11.2793 -35.2539 C 11.2793 2.14844 41.9434 32.8125 79.3457 32.8125 Z"/>
  </g>
  <g id="Heavy-L" transform="matrix(1 0 0 1 2558.39 1556)">
   <path d="M 78.2715 31.7383 C 115.088 31.7383 145.312 1.5625 145.312 -35.2539 C 145.312 -53.8574 136.328 -73.7793 122.998 -84.5703 C 118.262 -88.7207 112.891 -88.5254 109.668 -84.8633 C 106.055 -80.7617 107.324 -75.4883 111.084 -71.582 C 121.289 -62.3047 127.49 -49.8047 127.539 -35.2539 C 127.539 -8.00781 105.566 13.9648 78.2715 13.9648 C 51.0254 13.9648 29.0527 -8.00781 29.0527 -35.2539 C 29.0527 -57.4219 43.5059 -76.0254 63.5254 -82.2754 L 63.5254 -73.2422 C 63.5254 -67.6758 68.2129 -66.0156 73.0469 -69.5312 L 96.7285 -86.7188 C 100.586 -89.5508 100.537 -94.0918 96.7285 -96.9238 L 73.0957 -114.111 C 68.2617 -117.676 63.5254 -116.113 63.5254 -110.449 L 63.5254 -100.635 C 33.7402 -93.8477 11.2793 -66.9922 11.2793 -35.2539 C 11.2793 1.5625 41.5039 31.7383 78.2715 31.7383 Z"/>
  </g>
  <g id="Bold-L" transform="matrix(1 0 0 1 2262.88 1556)">
   <path d="M 77.0996 30.5664 C 113.232 30.5664 142.92 0.878906 142.92 -35.2539 C 142.92 -54.834 133.252 -74.5117 118.75 -85.5469 C 114.844 -88.8672 110.303 -88.5742 107.764 -85.4004 C 104.932 -81.9336 106.006 -77.6367 109.229 -74.5117 C 120.801 -65.0879 128.125 -51.2207 128.174 -35.2539 C 128.174 -6.93359 105.371 15.8203 77.0996 15.8203 C 48.8281 15.8203 26.0742 -6.93359 26.0742 -35.2539 C 26.0742 -58.7891 41.7969 -78.5156 63.3789 -84.4727 L 63.3789 -75.0488 C 63.3789 -70.0684 67.3828 -68.6035 71.6309 -71.6797 L 93.9453 -87.6953 C 97.3633 -90.1855 97.3633 -94.0918 93.9453 -96.582 L 71.6797 -112.646 C 67.4316 -115.723 63.3789 -114.307 63.3789 -109.229 L 63.3789 -99.6094 C 33.7402 -93.2129 11.2793 -66.6504 11.2793 -35.2539 C 11.2793 0.878906 41.0156 30.5664 77.0996 30.5664 Z"/>
  </g>
  <g id="Semibold-L" transform="matrix(1 0 0 1 1966.97 1556)">
   <path d="M 76.2695 29.7852 C 111.914 29.7852 141.309 0.390625 141.309 -35.2051 C 141.309 -55.5176 131.152 -75 115.82 -86.2305 C 112.5 -89.0137 108.545 -88.5742 106.445 -85.791 C 104.15 -82.7637 105.078 -79.1016 107.91 -76.5137 C 120.508 -66.9922 128.564 -52.1973 128.613 -35.2051 C 128.662 -6.25 105.273 17.0898 76.2695 17.0898 C 47.3145 17.0898 24.0234 -6.25 24.0234 -35.2051 C 24.0234 -59.7168 40.625 -80.1758 63.2812 -85.9375 L 63.2812 -76.3184 C 63.2812 -71.7285 66.7969 -70.3613 70.6543 -73.1445 L 92.041 -88.3789 C 95.166 -90.625 95.166 -94.0918 92.041 -96.3379 L 70.7031 -111.572 C 66.8457 -114.355 63.2812 -113.086 63.2812 -108.398 L 63.2812 -98.9258 C 33.7402 -92.8223 11.2793 -66.4062 11.2793 -35.2051 C 11.2793 0.390625 40.6738 29.7852 76.2695 29.7852 Z"/>
  </g>
  <g id="Medium-L" transform="matrix(1 0 0 1 1670.87 1556)">
   <path d="M 75.6836 29.1992 C 110.938 29.1992 140.088 0.0488281 140.088 -35.2051 C 140.088 -56.0547 129.492 -75.3906 113.623 -86.7676 C 110.693 -89.1113 107.178 -88.5742 105.42 -86.084 C 103.564 -83.3984 104.395 -80.2246 106.934 -78.0273 C 120.264 -68.457 128.906 -52.9297 128.906 -35.2051 C 128.955 -5.71289 105.176 18.0176 75.6836 18.0176 C 46.1426 18.0176 22.4609 -5.71289 22.4609 -35.2051 C 22.4609 -60.4492 39.7461 -81.4453 63.1836 -87.0117 L 63.1836 -77.2461 C 63.1836 -72.9492 66.3574 -71.7285 69.9219 -74.2188 L 90.625 -88.8672 C 93.5059 -90.918 93.5059 -94.043 90.625 -96.1426 L 69.9707 -110.791 C 66.4062 -113.379 63.1836 -112.158 63.1836 -107.764 L 63.1836 -98.3887 C 33.7891 -92.4805 11.2793 -66.2598 11.2793 -35.2051 C 11.2793 0.0488281 40.3809 29.1992 75.6836 29.1992 Z"/>
  </g>
  <g id="Regular-L" transform="matrix(1 0 0 1 1374.97 1556)">
   <path d="M 74.8535 28.3691 C 109.668 28.3691 138.477 -0.390625 138.477 -35.2051 C 138.477 -56.7383 127.393 -75.9277 110.742 -87.4023 C 108.35 -89.209 105.42 -88.5742 104.102 -86.4258 C 102.783 -84.1797 103.467 -81.6406 105.664 -80.0293 C 119.922 -70.3125 129.297 -53.9062 129.346 -35.2051 C 129.395 -5.0293 105.078 19.2871 74.8535 19.2871 C 44.6777 19.2871 20.4102 -5.0293 20.4102 -35.2051 C 20.4102 -61.377 38.5742 -83.1055 63.0859 -88.4277 L 63.0859 -78.5156 C 63.0859 -74.5605 65.8203 -73.4863 68.9453 -75.6836 L 88.7207 -89.5508 C 91.3086 -91.3574 91.3574 -94.043 88.7207 -95.8984 L 68.9941 -109.766 C 65.8203 -112.012 63.0859 -110.938 63.0859 -106.934 L 63.0859 -97.7051 C 33.7891 -92.0898 11.2793 -66.0156 11.2793 -35.2051 C 11.2793 -0.390625 40.0879 28.3691 74.8535 28.3691 Z"/>
  </g>
  <g id="Light-L" transform="matrix(1 0 0 1 1079.18 1556)">
   <path d="M 73.9258 27.4902 C 108.301 27.4902 136.621 -0.830078 136.621 -35.1562 C 136.621 -57.0801 125.049 -76.5137 107.715 -87.6953 C 105.908 -89.0137 103.711 -88.5254 102.734 -86.8652 C 101.758 -85.1562 102.295 -83.2031 103.955 -82.0312 C 119.434 -72.2168 129.688 -54.9316 129.736 -35.1562 C 129.736 -4.3457 104.785 20.6055 73.9258 20.6055 C 43.1152 20.6055 18.2129 -4.3457 18.2129 -35.1562 C 18.2129 -62.1582 37.2559 -84.6191 62.6465 -89.7949 L 62.6465 -78.7109 C 62.6465 -75.4883 64.8926 -74.5117 67.5781 -76.416 L 86.9629 -89.9902 C 89.1602 -91.5039 89.209 -93.75 86.9629 -95.3125 L 67.627 -108.887 C 64.8926 -110.791 62.6465 -109.814 62.6465 -106.592 L 62.6465 -96.8262 C 33.5938 -91.4551 11.2793 -65.6738 11.2793 -35.1562 C 11.2793 -0.830078 39.5996 27.4902 73.9258 27.4902 Z"/>
  </g>
  <g id="Thin-L" transform="matrix(1 0 0 1 783.693 1556)">
   <path d="M 72.7051 26.3184 C 106.494 26.3184 134.18 -1.36719 134.18 -35.1074 C 134.18 -57.5684 121.973 -77.2949 103.76 -88.0371 C 102.686 -88.7207 101.465 -88.3789 100.928 -87.4512 C 100.439 -86.4746 100.732 -85.3027 101.709 -84.668 C 118.75 -74.6582 130.176 -56.25 130.176 -35.1074 C 130.176 -3.41797 104.443 22.3145 72.7051 22.3145 C 41.0156 22.3145 15.2832 -3.41797 15.2832 -35.1074 C 15.2832 -63.1836 35.4492 -86.6211 62.1094 -91.6016 L 62.1094 -79.0039 C 62.1094 -76.7578 63.7207 -75.9277 65.7715 -77.3926 L 84.6191 -90.5273 C 86.3281 -91.748 86.3281 -93.3594 84.6191 -94.5801 L 65.8203 -107.715 C 63.7207 -109.18 62.1094 -108.35 62.1094 -106.104 L 62.1094 -95.6543 C 33.3496 -90.5762 11.2793 -65.2832 11.2793 -35.1074 C 11.2793 -1.36719 38.9648 26.3184 72.7051 26.3184 Z"/>
  </g>
  <g id="Ultralight-L" transform="matrix(1 0 0 1 487.616 1556)">
   <path d="M 72.1191 25.7324 C 105.566 25.7324 132.91 -1.61133 132.91 -35.1074 C 132.91 -57.8125 120.361 -77.6855 101.758 -88.1836 C 101.025 -88.623 100.293 -88.3301 100 -87.7441 C 99.707 -87.1582 99.9023 -86.377 100.537 -86.0352 C 118.408 -75.9277 130.42 -56.8848 130.42 -35.1074 C 130.42 -2.97852 104.248 23.2422 72.1191 23.2422 C 39.9414 23.2422 13.7695 -2.97852 13.7695 -35.1074 C 13.7695 -63.7207 34.5703 -87.6465 61.8164 -92.4805 L 61.8164 -79.1504 C 61.8164 -77.3926 63.0859 -76.6113 64.8926 -77.8809 L 83.3984 -90.8203 C 84.8633 -91.8457 84.8633 -93.1641 83.3984 -94.1895 L 64.8926 -107.129 C 63.0859 -108.398 61.8164 -107.617 61.8164 -105.859 L 61.8164 -95.0195 C 33.2031 -90.1367 11.2793 -65.0391 11.2793 -35.1074 C 11.2793 -1.61133 38.623 25.7324 72.1191 25.7324 Z"/>
  </g>
  <g id="Black-M" transform="matrix(1 0 0 1 2870.97 1126)">
   <path d="M 62.4023 18.4082 C 91.9922 18.4082 116.113 -5.66406 116.113 -35.2539 C 116.113 -47.9492 110.303 -64.0137 101.758 -71.7773 C 96.8262 -76.2207 91.5039 -76.4648 87.8906 -72.8516 C 83.7891 -68.7988 85.1074 -63.2324 88.7695 -58.9355 C 94.5801 -51.9531 97.8027 -44.3848 97.8027 -35.2539 C 97.8027 -15.7227 81.9824 0.146484 62.4023 0.146484 C 42.8711 0.146484 27.002 -15.7227 27.002 -35.2539 C 27.002 -50.1953 36.2305 -62.9395 49.3164 -68.1641 L 49.3164 -61.3281 C 49.3164 -56.3965 53.9551 -54.7363 58.6426 -58.2031 L 79.248 -73.5352 C 82.8613 -76.2207 82.7637 -80.7617 79.248 -83.3984 L 58.5938 -98.7305 C 54.0527 -102.148 49.3164 -100.684 49.3164 -95.6543 L 49.3164 -87.3047 C 26.0254 -81.4453 8.74023 -60.3516 8.74023 -35.2539 C 8.74023 -5.66406 32.8125 18.4082 62.4023 18.4082 Z"/>
  </g>
  <g id="Heavy-M" transform="matrix(1 0 0 1 2575.19 1126)">
   <path d="M 61.5234 17.5293 C 90.5273 17.5293 114.258 -6.20117 114.258 -35.2539 C 114.258 -48.8281 107.861 -64.5996 98.3887 -72.6562 C 94.1406 -76.4648 89.4043 -76.5137 86.377 -73.291 C 82.959 -69.6777 84.082 -64.8926 87.3535 -61.2793 C 94.2871 -54.1992 98.3398 -45.5078 98.3398 -35.2539 C 98.3398 -14.8926 81.8848 1.61133 61.5234 1.61133 C 41.1133 1.61133 24.6582 -14.8926 24.6582 -35.2539 C 24.6582 -51.3672 34.9121 -64.9902 49.2676 -70.0195 L 49.2676 -63.0371 C 49.2676 -58.4473 53.3691 -56.9824 57.5684 -60.0586 L 77.002 -74.3652 C 80.3223 -76.8066 80.2246 -80.8105 77.002 -83.2031 L 57.5684 -97.5098 C 53.418 -100.586 49.2676 -99.2676 49.2676 -94.5312 L 49.2676 -86.5723 C 26.0742 -81.0059 8.74023 -60.1074 8.74023 -35.2539 C 8.74023 -6.20117 32.4707 17.5293 61.5234 17.5293 Z"/>
  </g>
  <g id="Bold-M" transform="matrix(1 0 0 1 2279.5 1126)">
   <path d="M 60.498 16.5039 C 88.8672 16.5039 112.207 -6.83594 112.207 -35.2539 C 112.207 -49.8047 105.176 -65.2344 94.6289 -73.6328 C 91.1133 -76.709 87.0605 -76.5625 84.668 -73.7793 C 81.9824 -70.7031 82.959 -66.748 85.791 -63.8672 C 93.8965 -56.6406 98.9258 -46.7773 98.9258 -35.2539 C 98.9746 -13.9648 81.7871 3.22266 60.498 3.22266 C 39.1602 3.22266 22.0703 -13.9648 22.0703 -35.2539 C 22.0703 -52.6367 33.4473 -67.2363 49.2188 -72.0215 L 49.2188 -64.9902 C 49.2188 -60.791 52.7344 -59.5215 56.3965 -62.1582 L 74.5117 -75.293 C 77.4414 -77.4414 77.3926 -80.8594 74.5117 -82.959 L 56.4453 -96.1426 C 52.7832 -98.7793 49.2188 -97.6074 49.2188 -93.3105 L 49.2188 -85.7422 C 26.1719 -80.5664 8.74023 -59.8145 8.74023 -35.2539 C 8.74023 -6.83594 32.0801 16.5039 60.498 16.5039 Z"/>
  </g>
  <g id="Semibold-M" transform="matrix(1 0 0 1 1983.5 1126)">
   <path d="M 59.7656 15.7715 C 87.7441 15.7715 110.791 -7.27539 110.791 -35.2539 C 110.791 -50.4883 103.32 -65.6738 92.041 -74.3164 C 89.0137 -76.9043 85.4492 -76.5625 83.4961 -74.0723 C 81.3477 -71.3867 82.2266 -68.0664 84.7168 -65.6738 C 93.6523 -58.3984 99.3164 -47.6074 99.3652 -35.2539 C 99.3652 -13.3301 81.6895 4.3457 59.7656 4.3457 C 37.8418 4.3457 20.2637 -13.3301 20.2637 -35.2539 C 20.2637 -53.5156 32.4219 -68.7988 49.1699 -73.3887 L 49.1699 -66.3086 C 49.1699 -62.4023 52.2949 -61.2305 55.6152 -63.623 L 72.7539 -75.9277 C 75.4395 -77.8809 75.4395 -80.9082 72.7539 -82.8125 L 55.6152 -95.166 C 52.2949 -97.5586 49.1699 -96.4844 49.1699 -92.4805 L 49.1699 -85.1562 C 26.2207 -80.2246 8.74023 -59.6191 8.74023 -35.2539 C 8.74023 -7.27539 31.7871 15.7715 59.7656 15.7715 Z"/>
  </g>
  <g id="Medium-M" transform="matrix(1 0 0 1 1687.3 1126)">
   <path d="M 59.2285 15.2832 C 86.9141 15.2832 109.766 -7.56836 109.766 -35.2539 C 109.766 -51.0254 101.904 -65.9668 90.0879 -74.8535 C 87.4512 -77.002 84.2285 -76.6113 82.6172 -74.3164 C 80.8594 -71.9238 81.6406 -69.043 83.8867 -67.041 C 93.5059 -59.668 99.6094 -48.291 99.6582 -35.2539 C 99.707 -12.8418 81.6406 5.17578 59.2285 5.17578 C 36.8164 5.17578 18.8965 -12.8418 18.8965 -35.2539 C 18.8965 -54.1992 31.6895 -69.9707 49.1699 -74.4141 L 49.1699 -67.334 C 49.1699 -63.5742 51.9531 -62.5488 54.9805 -64.7461 L 71.4844 -76.416 C 73.9258 -78.2227 73.9746 -80.957 71.4844 -82.7148 L 55.0293 -94.4336 C 51.9531 -96.6309 49.1699 -95.6543 49.1699 -91.8457 L 49.1699 -84.7168 C 26.2207 -79.9805 8.74023 -59.4727 8.74023 -35.2539 C 8.74023 -7.56836 31.5918 15.2832 59.2285 15.2832 Z"/>
  </g>
  <g id="Regular-M" transform="matrix(1 0 0 1 1391.3 1126)">
   <path d="M 58.5449 14.5508 C 85.791 14.5508 108.35 -8.00781 108.35 -35.2539 C 108.35 -51.6602 100.049 -66.4062 87.5 -75.5371 C 85.3516 -77.1973 82.666 -76.6602 81.4453 -74.6582 C 80.2246 -72.6074 80.8594 -70.3125 82.8613 -68.7988 C 93.2617 -61.377 100 -49.1211 100.049 -35.2539 C 100.098 -12.207 81.5918 6.25 58.5449 6.25 C 35.498 6.25 17.0898 -12.207 17.0898 -35.2539 C 17.0898 -55.0293 30.6641 -71.4844 49.1211 -75.6836 L 49.1211 -68.6523 C 49.1211 -65.1855 51.5137 -64.2578 54.1992 -66.1621 L 69.7754 -77.0996 C 71.9727 -78.6133 72.0215 -80.957 69.7754 -82.5684 L 54.248 -93.5059 C 51.5137 -95.459 49.1211 -94.5312 49.1211 -91.0156 L 49.1211 -84.1309 C 26.2695 -79.6875 8.74023 -59.2773 8.74023 -35.2539 C 8.74023 -8.00781 31.3477 14.5508 58.5449 14.5508 Z"/>
  </g>
  <g id="Light-M" transform="matrix(1 0 0 1 1095.42 1126)">
   <path d="M 57.7148 13.7695 C 84.5215 13.7695 106.689 -8.39844 106.689 -35.2051 C 106.689 -52.002 97.9492 -66.9434 84.8145 -75.7324 C 83.1543 -77.002 81.1523 -76.5625 80.2246 -75.0488 C 79.2969 -73.4863 79.7852 -71.7285 81.2988 -70.6055 C 92.7734 -63.0371 100.342 -50.0488 100.391 -35.2051 C 100.391 -11.5723 81.3477 7.4707 57.7148 7.4707 C 34.082 7.4707 15.0879 -11.5723 15.0879 -35.2051 C 15.0879 -55.7617 29.4434 -72.8027 48.7305 -76.9043 L 48.7305 -68.8477 C 48.7305 -66.0156 50.6836 -65.1855 52.9785 -66.7969 L 68.1641 -77.4414 C 70.0684 -78.8086 70.1172 -80.7129 68.1641 -82.0801 L 53.0273 -92.7246 C 50.6836 -94.3359 48.7305 -93.5547 48.7305 -90.6738 L 48.7305 -83.3496 C 26.123 -79.1016 8.74023 -58.9844 8.74023 -35.2051 C 8.74023 -8.39844 30.9082 13.7695 57.7148 13.7695 Z"/>
  </g>
  <g id="Thin-M" transform="matrix(1 0 0 1 799.806 1126)">
   <path d="M 56.6406 12.7441 C 82.9102 12.7441 104.492 -8.83789 104.492 -35.1562 C 104.492 -52.4414 95.166 -67.627 81.25 -76.0742 C 80.2734 -76.7578 79.1016 -76.4648 78.6133 -75.5859 C 78.125 -74.6582 78.3691 -73.584 79.2969 -72.998 C 92.1875 -65.2344 100.781 -51.2207 100.781 -35.1562 C 100.781 -10.791 81.0059 8.98438 56.6406 8.98438 C 32.2266 8.98438 12.4512 -10.791 12.4512 -35.1562 C 12.4512 -56.6895 27.8809 -74.6094 48.2422 -78.5156 L 48.2422 -69.0918 C 48.2422 -67.1387 49.6094 -66.4551 51.3672 -67.6758 L 66.0645 -77.9785 C 67.5293 -79.0039 67.5293 -80.3711 66.0645 -81.3965 L 51.3672 -91.6504 C 49.6094 -92.9199 48.2422 -92.2363 48.2422 -90.2344 L 48.2422 -82.2754 C 25.8789 -78.3203 8.74023 -58.5938 8.74023 -35.1562 C 8.74023 -8.83789 30.3223 12.7441 56.6406 12.7441 Z"/>
  </g>
  <g id="Ultralight-M" transform="matrix(1 0 0 1 503.656 1126)">
   <path d="M 56.0547 12.207 C 82.0801 12.207 103.369 -9.08203 103.369 -35.1562 C 103.369 -52.6855 93.75 -68.0176 79.4434 -76.2207 C 78.8086 -76.6113 78.0762 -76.3672 77.7832 -75.8789 C 77.4902 -75.2441 77.6855 -74.5605 78.2715 -74.1699 C 91.8457 -66.4062 100.977 -51.8066 100.977 -35.1562 C 100.977 -10.3516 80.8594 9.81445 56.0547 9.81445 C 31.2988 9.81445 11.1328 -10.3516 11.1328 -35.1562 C 11.1328 -57.1289 27.0508 -75.5371 47.998 -79.3457 L 47.998 -69.2383 C 47.998 -67.7246 49.0723 -67.0898 50.5371 -68.1641 L 64.9902 -78.2227 C 66.2109 -79.1016 66.2109 -80.1758 64.9902 -81.0547 L 50.5371 -91.1133 C 49.0723 -92.1875 47.998 -91.5527 47.998 -90.0391 L 47.998 -81.7383 C 25.7812 -77.8809 8.74023 -58.3984 8.74023 -35.1562 C 8.74023 -9.08203 30.0293 12.207 56.0547 12.207 Z"/>
  </g>
  <g id="Black-S" transform="matrix(1 0 0 1 2884.57 696)">
   <path d="M 48.8281 6.73828 C 71.9727 6.73828 90.8203 -12.1094 90.8203 -35.2539 C 90.8203 -45.2637 86.2305 -57.8125 79.4922 -63.916 C 75.6836 -67.3828 71.5332 -67.5293 68.75 -64.7461 C 65.5762 -61.5723 66.6016 -57.2754 69.4336 -53.9551 C 74.0723 -48.4863 76.6602 -42.4805 76.6602 -35.2539 C 76.6602 -19.873 64.209 -7.42188 48.8281 -7.42188 C 33.4473 -7.42188 20.9961 -19.873 20.9961 -35.2539 C 20.9961 -47.0703 28.2715 -57.0801 38.623 -61.1816 L 38.623 -55.8105 C 38.623 -51.9531 42.2363 -50.6836 45.8496 -53.3691 L 61.9141 -65.2832 C 64.7461 -67.3828 64.6484 -70.8984 61.9141 -72.9492 L 45.8496 -84.9121 C 42.2852 -87.5488 38.623 -86.4258 38.623 -82.4707 L 38.623 -75.9766 C 20.3613 -71.4355 6.83594 -54.8828 6.83594 -35.2539 C 6.83594 -12.1094 25.6836 6.73828 48.8281 6.73828 Z"/>
  </g>
  <g id="Heavy-S" transform="matrix(1 0 0 1 2588.47 696)">
   <path d="M 48.2422 6.15234 C 70.9961 6.15234 89.5996 -12.5 89.5996 -35.2539 C 89.5996 -45.8984 84.6191 -58.2031 77.1973 -64.5508 C 73.8281 -67.5781 70.1172 -67.5781 67.7246 -65.0391 C 65.0391 -62.1582 65.9668 -58.3984 68.5547 -55.5176 C 73.877 -50 77.002 -43.2617 77.0508 -35.2539 C 77.0508 -19.2871 64.1602 -6.44531 48.2422 -6.44531 C 32.2754 -6.44531 19.4336 -19.2871 19.4336 -35.2539 C 19.4336 -47.8516 27.3926 -58.4961 38.623 -62.4512 L 38.623 -57.1289 C 38.623 -53.4668 41.8945 -52.2949 45.166 -54.7363 L 60.4004 -65.8691 C 62.9883 -67.8223 62.9395 -70.9473 60.4004 -72.8516 L 45.2148 -84.0332 C 41.9434 -86.4746 38.623 -85.4004 38.623 -81.6895 L 38.623 -75.5371 C 20.459 -71.1426 6.83594 -54.7363 6.83594 -35.2539 C 6.83594 -12.5 25.4395 6.15234 48.2422 6.15234 Z"/>
  </g>
  <g id="Bold-S" transform="matrix(1 0 0 1 2292.44 696)">
   <path d="M 47.5586 5.46875 C 69.873 5.46875 88.2324 -12.9395 88.2324 -35.2539 C 88.2324 -46.6309 82.8125 -58.5938 74.6582 -65.2832 C 71.8262 -67.7734 68.5059 -67.627 66.6016 -65.332 C 64.4531 -62.8418 65.2344 -59.668 67.5293 -57.3242 C 73.6816 -51.709 77.4414 -44.0918 77.4414 -35.2539 C 77.4414 -18.7012 64.1113 -5.37109 47.5586 -5.37109 C 30.957 -5.37109 17.6758 -18.7012 17.6758 -35.2539 C 17.6758 -48.7305 26.4648 -60.0586 38.623 -63.8184 L 38.623 -58.5449 C 38.623 -55.127 41.5039 -54.1016 44.4336 -56.25 L 58.6426 -66.5527 C 61.0352 -68.2617 60.9863 -71.0449 58.6426 -72.7539 L 44.4824 -83.1055 C 41.5039 -85.2539 38.623 -84.2773 38.623 -80.7617 L 38.623 -74.9512 C 20.5078 -70.8496 6.83594 -54.541 6.83594 -35.2539 C 6.83594 -12.9395 25.1953 5.46875 47.5586 5.46875 Z"/>
  </g>
  <g id="Semibold-S" transform="matrix(1 0 0 1 1996.2 696)">
   <path d="M 47.0703 4.98047 C 69.0918 4.98047 87.3047 -13.2324 87.3047 -35.2539 C 87.3047 -47.1191 81.5918 -58.8867 72.9004 -65.8203 C 70.4102 -67.9199 67.4316 -67.6758 65.7715 -65.5762 C 64.0137 -63.2812 64.7461 -60.498 66.8457 -58.5449 C 73.5352 -52.8809 77.6855 -44.6777 77.7344 -35.2539 C 77.7344 -18.2617 64.0625 -4.58984 47.0703 -4.58984 C 30.0781 -4.58984 16.4551 -18.2617 16.4551 -35.2539 C 16.4551 -49.3652 25.7812 -61.1328 38.6719 -64.7461 L 38.6719 -59.5703 C 38.6719 -56.25 41.2109 -55.3223 43.9453 -57.3242 L 57.4707 -67.041 C 59.668 -68.6035 59.668 -71.0938 57.4707 -72.7051 L 43.9453 -82.4219 C 41.2109 -84.4238 38.6719 -83.5449 38.6719 -80.1758 L 38.6719 -74.6094 C 20.5566 -70.6543 6.83594 -54.3945 6.83594 -35.2539 C 6.83594 -13.2324 25.0488 4.98047 47.0703 4.98047 Z"/>
  </g>
  <g id="Medium-S" transform="matrix(1 0 0 1 1699.83 696)">
   <path d="M 46.7285 4.63867 C 68.5547 4.63867 86.6211 -13.4277 86.6211 -35.2539 C 86.6211 -47.4609 80.6152 -59.1309 71.582 -66.2109 C 69.3359 -68.0176 66.5527 -67.6758 65.1855 -65.7227 C 63.7207 -63.623 64.3555 -61.1816 66.3086 -59.4727 C 73.3887 -53.7598 77.8809 -45.1172 77.9297 -35.2539 C 77.9785 -17.9199 64.0625 -4.05273 46.7285 -4.05273 C 29.3945 -4.05273 15.5273 -17.9199 15.5273 -35.2539 C 15.5273 -49.8047 25.293 -61.9141 38.6719 -65.4297 L 38.6719 -60.3027 C 38.6719 -57.1289 41.0156 -56.2988 43.5547 -58.1055 L 56.5918 -67.3828 C 58.6426 -68.8477 58.6914 -71.1426 56.5918 -72.6562 L 43.5547 -81.9336 C 41.0156 -83.7891 38.6719 -82.959 38.6719 -79.6875 L 38.6719 -74.3164 C 20.6055 -70.5078 6.83594 -54.2969 6.83594 -35.2539 C 6.83594 -13.4277 24.9023 4.63867 46.7285 4.63867 Z"/>
  </g>
  <g id="Regular-S" transform="matrix(1 0 0 1 1403.58 696)">
   <path d="M 46.2402 4.15039 C 67.7734 4.15039 85.6934 -13.7207 85.6934 -35.2539 C 85.6934 -47.9492 79.3945 -59.4238 69.8242 -66.6992 C 67.9199 -68.1641 65.4785 -67.7246 64.4043 -65.918 C 63.2812 -64.1113 63.8672 -62.0117 65.625 -60.6934 C 73.291 -54.8828 78.1738 -45.7031 78.2227 -35.2539 C 78.2715 -17.4805 64.0137 -3.27148 46.2402 -3.27148 C 28.5156 -3.27148 14.3555 -17.4805 14.3555 -35.2539 C 14.3555 -50.3906 24.6094 -62.9883 38.6719 -66.3086 L 38.6719 -61.3281 C 38.6719 -58.3008 40.7227 -57.5195 43.0176 -59.1309 L 55.4199 -67.8223 C 57.3242 -69.1406 57.373 -71.1914 55.4199 -72.5586 L 43.0664 -81.25 C 40.7227 -82.959 38.6719 -82.1777 38.6719 -79.1016 L 38.6719 -73.9258 C 20.6543 -70.3125 6.83594 -54.1992 6.83594 -35.2539 C 6.83594 -13.7207 24.7559 4.15039 46.2402 4.15039 Z"/>
  </g>
  <g id="Light-S" transform="matrix(1 0 0 1 1107.6 696)">
   <path d="M 45.5078 3.4668 C 66.6992 3.4668 84.2285 -14.0625 84.2285 -35.2051 C 84.2285 -48.2422 77.5391 -59.8633 67.4805 -66.8945 C 65.9668 -68.0176 64.1602 -67.627 63.3301 -66.2598 C 62.5 -64.8926 62.8906 -63.2812 64.3066 -62.2559 C 72.8516 -56.3965 78.4668 -46.4844 78.5156 -35.2051 C 78.5156 -16.9434 63.8184 -2.24609 45.5078 -2.24609 C 27.2461 -2.24609 12.5977 -16.9434 12.5977 -35.2051 C 12.5977 -51.0254 23.5352 -64.1602 38.3301 -67.4316 L 38.3301 -61.4746 C 38.3301 -59.0332 40.0391 -58.3496 41.9434 -59.7168 L 54.0039 -68.1641 C 55.6152 -69.2871 55.6641 -70.9473 54.0039 -72.1191 L 41.9922 -80.5664 C 40.0391 -81.9824 38.3301 -81.2988 38.3301 -78.8086 L 38.3301 -73.2422 C 20.5078 -69.8242 6.83594 -53.9551 6.83594 -35.2051 C 6.83594 -14.0625 24.3652 3.4668 45.5078 3.4668 Z"/>
  </g>
  <g id="Thin-S" transform="matrix(1 0 0 1 811.867 696)">
   <path d="M 44.5801 2.53906 C 65.2832 2.53906 82.2754 -14.4531 82.2754 -35.2051 C 82.2754 -48.6328 75.0977 -60.498 64.3555 -67.1387 C 63.4277 -67.8223 62.3535 -67.5293 61.9141 -66.748 C 61.4258 -65.918 61.6699 -64.9414 62.5 -64.3555 C 72.3145 -58.3496 78.8574 -47.5098 78.8574 -35.2051 C 78.8574 -16.2109 63.5254 -0.878906 44.5801 -0.878906 C 25.5859 -0.878906 10.2539 -16.2109 10.2539 -35.2051 C 10.2539 -51.8555 22.1191 -65.7227 37.8906 -68.8477 L 37.8906 -61.7188 C 37.8906 -60.0098 39.0625 -59.4727 40.5273 -60.498 L 52.1484 -68.6035 C 53.3691 -69.4824 53.3691 -70.6543 52.1484 -71.5332 L 40.5762 -79.6387 C 39.0625 -80.7129 37.8906 -80.127 37.8906 -78.418 L 37.8906 -72.3145 C 20.3125 -69.1406 6.83594 -53.6133 6.83594 -35.2051 C 6.83594 -14.4531 23.877 2.53906 44.5801 2.53906 Z"/>
  </g>
  <g id="Ultralight-S" transform="matrix(1 0 0 1 515.644 696)">
   <path d="M 44.043 2.05078 C 64.502 2.05078 81.2988 -14.6973 81.2988 -35.1562 C 81.2988 -48.8281 73.8281 -60.8398 62.7441 -67.2852 C 62.1094 -67.7246 61.4258 -67.4805 61.1328 -66.9922 C 60.8887 -66.4551 61.0352 -65.7715 61.5723 -65.4297 C 72.0215 -59.3262 79.0527 -48.0469 79.0527 -35.1562 C 79.0527 -15.8691 63.3789 -0.146484 44.043 -0.146484 C 24.7559 -0.146484 9.08203 -15.8691 9.08203 -35.1562 C 9.08203 -52.2949 21.3867 -66.5527 37.6465 -69.5801 L 37.6465 -61.8164 C 37.6465 -60.5469 38.5742 -60.0098 39.7949 -60.8887 L 51.1719 -68.8477 C 52.1973 -69.5801 52.1973 -70.5078 51.1719 -71.1914 L 39.7949 -79.1504 C 38.5742 -80.0293 37.6465 -79.541 37.6465 -78.2227 L 37.6465 -71.8262 C 20.2148 -68.75 6.83594 -53.4668 6.83594 -35.1562 C 6.83594 -14.6973 23.584 2.05078 44.043 2.05078 Z"/>
  </g>
 </g>
</svg>
