<?xml version="1.0" ?><!DOCTYPE svg  PUBLIC '-//W3C//DTD SVG 1.1//EN'  'http://www.w3.org/Graphics/SVG/1.1/DTD/svg11.dtd'><svg enable-background="new -0.709 -0.709 141.732 141.732" height="141.732px" id="Livello_1" version="1.1" viewBox="-0.709 -0.709 141.732 141.732" width="141.732px" xml:space="preserve" xmlns="http://www.w3.org/2000/svg" xmlns:xlink="http://www.w3.org/1999/xlink"><g id="Livello_103"><path d="M124.125,70.157c0,2.98-2.416,5.396-5.396,5.396h-0.003H75.554v43.174c0,2.979-2.416,5.396-5.396,5.396   c-2.979,0-5.396-2.416-5.396-5.396V75.554H21.569c-2.98,0-5.396-2.416-5.396-5.396c0-2.979,2.416-5.396,5.396-5.396H64.76V21.587   c0-2.979,2.416-5.396,5.396-5.396c2.98,0,5.396,2.417,5.396,5.396v43.178h43.174C121.709,64.762,124.125,67.178,124.125,70.157    M140.315,70.157C140.315,31.41,108.903,0,70.157,0S0,31.41,0,70.157s31.411,70.157,70.157,70.157S140.315,108.904,140.315,70.157"/></g><g id="Livello_1_1_"/></svg>