<?xml version="1.0" encoding="UTF-8"?>
<!--Generator: Apple Native CoreSVG 123-->
<!DOCTYPE svg
PUBLIC "-//W3C//DTD SVG 1.1//EN"
       "http://www.w3.org/Graphics/SVG/1.1/DTD/svg11.dtd">
<svg version="1.1" xmlns="http://www.w3.org/2000/svg" xmlns:xlink="http://www.w3.org/1999/xlink" width="3300" height="2200">
 <!--glyph: "uni10013A.medium", point size: 100.000000, font version: "Version 15.0d7e11", template writer version: "5"-->
 <g id="Notes">
  <rect height="2200" id="artboard" style="fill:white;opacity:1" width="3300" x="0" y="0"/>
  <line id="" style="fill:none;stroke:black;opacity:1;stroke-width:0.5;" x1="263" x2="3036" y1="292" y2="292"/>
  <text style="stroke:none;fill:black;font-family:-apple-system,&quot;SF Pro Display&quot;,&quot;SF Pro Text&quot;,Helvetica,sans-serif;font-weight:bold;" transform="matrix(1 0 0 1 263 322)">Weight/Scale Variations</text>
  <text style="stroke:none;fill:black;font-family:-apple-system,&quot;SF Pro Display&quot;,&quot;SF Pro Text&quot;,Helvetica,sans-serif;text-anchor:middle;" transform="matrix(1 0 0 1 559.711 322)">Ultralight</text>
  <text style="stroke:none;fill:black;font-family:-apple-system,&quot;SF Pro Display&quot;,&quot;SF Pro Text&quot;,Helvetica,sans-serif;text-anchor:middle;" transform="matrix(1 0 0 1 856.422 322)">Thin</text>
  <text style="stroke:none;fill:black;font-family:-apple-system,&quot;SF Pro Display&quot;,&quot;SF Pro Text&quot;,Helvetica,sans-serif;text-anchor:middle;" transform="matrix(1 0 0 1 1153.13 322)">Light</text>
  <text style="stroke:none;fill:black;font-family:-apple-system,&quot;SF Pro Display&quot;,&quot;SF Pro Text&quot;,Helvetica,sans-serif;text-anchor:middle;" transform="matrix(1 0 0 1 1449.84 322)">Regular</text>
  <text style="stroke:none;fill:black;font-family:-apple-system,&quot;SF Pro Display&quot;,&quot;SF Pro Text&quot;,Helvetica,sans-serif;text-anchor:middle;" transform="matrix(1 0 0 1 1746.56 322)">Medium</text>
  <text style="stroke:none;fill:black;font-family:-apple-system,&quot;SF Pro Display&quot;,&quot;SF Pro Text&quot;,Helvetica,sans-serif;text-anchor:middle;" transform="matrix(1 0 0 1 2043.27 322)">Semibold</text>
  <text style="stroke:none;fill:black;font-family:-apple-system,&quot;SF Pro Display&quot;,&quot;SF Pro Text&quot;,Helvetica,sans-serif;text-anchor:middle;" transform="matrix(1 0 0 1 2339.98 322)">Bold</text>
  <text style="stroke:none;fill:black;font-family:-apple-system,&quot;SF Pro Display&quot;,&quot;SF Pro Text&quot;,Helvetica,sans-serif;text-anchor:middle;" transform="matrix(1 0 0 1 2636.69 322)">Heavy</text>
  <text style="stroke:none;fill:black;font-family:-apple-system,&quot;SF Pro Display&quot;,&quot;SF Pro Text&quot;,Helvetica,sans-serif;text-anchor:middle;" transform="matrix(1 0 0 1 2933.4 322)">Black</text>
  <line id="" style="fill:none;stroke:black;opacity:1;stroke-width:0.5;" x1="263" x2="3036" y1="1903" y2="1903"/>
  <g id="" transform="matrix(1 0 0 1 263 1933)">
   <path d="M 9.24805 0.830078 C 13.5547 0.830078 17.1387 -2.74414 17.1387 -7.05078 C 17.1387 -11.3574 13.5449 -14.9316 9.23828 -14.9316 C 4.94141 -14.9316 1.36719 -11.3574 1.36719 -7.05078 C 1.36719 -2.74414 4.95117 0.830078 9.24805 0.830078 Z M 9.24805 -0.654297 C 5.70312 -0.654297 2.87109 -3.49609 2.87109 -7.05078 C 2.87109 -10.6055 5.69336 -13.4473 9.23828 -13.4473 C 12.793 -13.4473 15.6348 -10.6055 15.6445 -7.05078 C 15.6543 -3.49609 12.8027 -0.654297 9.24805 -0.654297 Z M 9.22852 -3.42773 C 9.69727 -3.42773 9.9707 -3.74023 9.9707 -4.25781 L 9.9707 -6.31836 L 12.1973 -6.31836 C 12.6953 -6.31836 13.0371 -6.57227 13.0371 -7.04102 C 13.0371 -7.51953 12.7148 -7.7832 12.1973 -7.7832 L 9.9707 -7.7832 L 9.9707 -10.0098 C 9.9707 -10.5273 9.69727 -10.8496 9.22852 -10.8496 C 8.75977 -10.8496 8.50586 -10.5078 8.50586 -10.0098 L 8.50586 -7.7832 L 6.29883 -7.7832 C 5.78125 -7.7832 5.44922 -7.51953 5.44922 -7.04102 C 5.44922 -6.57227 5.80078 -6.31836 6.29883 -6.31836 L 8.50586 -6.31836 L 8.50586 -4.25781 C 8.50586 -3.75977 8.75977 -3.42773 9.22852 -3.42773 Z"/>
  </g>
  <g id="" transform="matrix(1 0 0 1 281.506 1933)">
   <path d="M 11.709 2.91016 C 17.1582 2.91016 21.6699 -1.60156 21.6699 -7.05078 C 21.6699 -12.4902 17.1484 -17.0117 11.6992 -17.0117 C 6.25977 -17.0117 1.74805 -12.4902 1.74805 -7.05078 C 1.74805 -1.60156 6.26953 2.91016 11.709 2.91016 Z M 11.709 1.25 C 7.09961 1.25 3.41797 -2.44141 3.41797 -7.05078 C 3.41797 -11.6504 7.08984 -15.3516 11.6992 -15.3516 C 16.3086 -15.3516 20 -11.6504 20.0098 -7.05078 C 20.0195 -2.44141 16.3184 1.25 11.709 1.25 Z M 11.6895 -2.41211 C 12.207 -2.41211 12.5195 -2.77344 12.5195 -3.33984 L 12.5195 -6.23047 L 15.5762 -6.23047 C 16.123 -6.23047 16.5039 -6.51367 16.5039 -7.03125 C 16.5039 -7.55859 16.1426 -7.86133 15.5762 -7.86133 L 12.5195 -7.86133 L 12.5195 -10.9277 C 12.5195 -11.5039 12.207 -11.8555 11.6895 -11.8555 C 11.1719 -11.8555 10.8789 -11.4844 10.8789 -10.9277 L 10.8789 -7.86133 L 7.83203 -7.86133 C 7.26562 -7.86133 6.89453 -7.55859 6.89453 -7.03125 C 6.89453 -6.51367 7.28516 -6.23047 7.83203 -6.23047 L 10.8789 -6.23047 L 10.8789 -3.33984 C 10.8789 -2.79297 11.1719 -2.41211 11.6895 -2.41211 Z"/>
  </g>
  <g id="" transform="matrix(1 0 0 1 304.924 1933)">
   <path d="M 14.9707 5.67383 C 21.9336 5.67383 27.6953 -0.078125 27.6953 -7.04102 C 27.6953 -14.0039 21.9238 -19.7559 14.9609 -19.7559 C 8.00781 -19.7559 2.25586 -14.0039 2.25586 -7.04102 C 2.25586 -0.078125 8.01758 5.67383 14.9707 5.67383 Z M 14.9707 3.85742 C 8.93555 3.85742 4.08203 -1.00586 4.08203 -7.04102 C 4.08203 -13.0762 8.92578 -17.9395 14.9609 -17.9395 C 21.0059 -17.9395 25.8594 -13.0762 25.8691 -7.04102 C 25.8789 -1.00586 21.0156 3.85742 14.9707 3.85742 Z M 14.9512 -1.06445 C 15.5176 -1.06445 15.8691 -1.45508 15.8691 -2.06055 L 15.8691 -6.13281 L 20.1074 -6.13281 C 20.6934 -6.13281 21.1133 -6.46484 21.1133 -7.02148 C 21.1133 -7.59766 20.7227 -7.93945 20.1074 -7.93945 L 15.8691 -7.93945 L 15.8691 -12.1875 C 15.8691 -12.8027 15.5176 -13.1934 14.9512 -13.1934 C 14.3848 -13.1934 14.0625 -12.7832 14.0625 -12.1875 L 14.0625 -7.93945 L 9.83398 -7.93945 C 9.21875 -7.93945 8.80859 -7.59766 8.80859 -7.02148 C 8.80859 -6.46484 9.23828 -6.13281 9.83398 -6.13281 L 14.0625 -6.13281 L 14.0625 -2.06055 C 14.0625 -1.47461 14.3848 -1.06445 14.9512 -1.06445 Z"/>
  </g>
  <text style="stroke:none;fill:black;font-family:-apple-system,&quot;SF Pro Display&quot;,&quot;SF Pro Text&quot;,Helvetica,sans-serif;font-weight:bold;" transform="matrix(1 0 0 1 263 1953)">Design Variations</text>
  <text style="stroke:none;fill:black;font-family:-apple-system,&quot;SF Pro Display&quot;,&quot;SF Pro Text&quot;,Helvetica,sans-serif;" transform="matrix(1 0 0 1 263 1971)">Symbols are supported in up to nine weights and three scales.</text>
  <text style="stroke:none;fill:black;font-family:-apple-system,&quot;SF Pro Display&quot;,&quot;SF Pro Text&quot;,Helvetica,sans-serif;" transform="matrix(1 0 0 1 263 1989)">For optimal layout with text and other symbols, vertically align</text>
  <text style="stroke:none;fill:black;font-family:-apple-system,&quot;SF Pro Display&quot;,&quot;SF Pro Text&quot;,Helvetica,sans-serif;" transform="matrix(1 0 0 1 263 2007)">symbols with the adjacent text.</text>
  <rect height="14" id="" style="fill:#00AEEF;stroke:none;opacity:0.4;" width="3" x="776" y="1919"/>
  <g id="" transform="matrix(1 0 0 1 779 1933)">
   <path d="M 10.5273 0 L 12.373 0 L 7.17773 -14.0918 L 5.43945 -14.0918 L 0.244141 0 L 2.08984 0 L 3.50586 -4.0332 L 9.11133 -4.0332 Z M 6.2793 -11.9531 L 6.33789 -11.9531 L 8.59375 -5.52734 L 4.02344 -5.52734 Z"/>
  </g>
  <rect height="14" id="" style="fill:#00AEEF;stroke:none;opacity:0.4;" width="3" x="791.617" y="1919"/>
  <text style="stroke:none;fill:black;font-family:-apple-system,&quot;SF Pro Display&quot;,&quot;SF Pro Text&quot;,Helvetica,sans-serif;font-weight:bold;" transform="matrix(1 0 0 1 776 1953)">Margins</text>
  <text style="stroke:none;fill:black;font-family:-apple-system,&quot;SF Pro Display&quot;,&quot;SF Pro Text&quot;,Helvetica,sans-serif;" transform="matrix(1 0 0 1 776 1971)">Leading and trailing margins on the left and right side of each symbol</text>
  <text style="stroke:none;fill:black;font-family:-apple-system,&quot;SF Pro Display&quot;,&quot;SF Pro Text&quot;,Helvetica,sans-serif;" transform="matrix(1 0 0 1 776 1989)">can be adjusted by modifying the width of the blue rectangles.</text>
  <text style="stroke:none;fill:black;font-family:-apple-system,&quot;SF Pro Display&quot;,&quot;SF Pro Text&quot;,Helvetica,sans-serif;" transform="matrix(1 0 0 1 776 2007)">Modifications are automatically applied proportionally to all</text>
  <text style="stroke:none;fill:black;font-family:-apple-system,&quot;SF Pro Display&quot;,&quot;SF Pro Text&quot;,Helvetica,sans-serif;" transform="matrix(1 0 0 1 776 2025)">scales and weights.</text>
  <g id="" transform="matrix(1 0 0 1 1289 1933)">
   <path d="M 2.83203 3.11523 L 4.375 4.6582 C 5.22461 5.48828 6.19141 5.41992 7.06055 4.46289 L 17.2754 -6.66016 C 17.7051 -6.36719 18.0957 -6.37695 18.5645 -6.47461 L 19.6094 -6.68945 L 20.3027 -5.99609 L 20.2539 -5.47852 C 20.1855 -4.95117 20.3516 -4.53125 20.8496 -4.0332 L 21.6602 -3.22266 C 22.168 -2.71484 22.8223 -2.68555 23.3008 -3.16406 L 26.5527 -6.41602 C 27.0312 -6.89453 27.0117 -7.54883 26.5039 -8.05664 L 25.6836 -8.87695 C 25.1855 -9.375 24.7754 -9.55078 24.2383 -9.47266 L 23.7109 -9.41406 L 23.0566 -10.0781 L 23.3398 -11.2207 C 23.4863 -11.7871 23.3398 -12.2559 22.7148 -12.8613 L 20.3027 -15.2539 C 16.7578 -18.7793 12.2266 -18.6719 9.11133 -15.5371 C 8.69141 -15.1074 8.64258 -14.5215 8.91602 -14.0918 C 9.15039 -13.7207 9.62891 -13.4961 10.2734 -13.6621 C 11.7871 -14.043 13.3008 -13.9258 14.7852 -12.9199 L 14.1602 -11.3379 C 13.9258 -10.752 13.9453 -10.2734 14.1797 -9.83398 L 3.01758 0.439453 C 2.08008 1.30859 1.97266 2.25586 2.83203 3.11523 Z M 10.6738 -15.1465 C 13.3398 -17.1387 16.6504 -16.8262 19.0527 -14.4141 L 21.6797 -11.8066 C 21.9141 -11.5723 21.9434 -11.3867 21.8848 -11.0938 L 21.5039 -9.53125 L 23.0762 -7.95898 L 24.043 -8.04688 C 24.3262 -8.07617 24.4141 -8.05664 24.6387 -7.83203 L 25.2637 -7.20703 L 22.5098 -4.46289 L 21.8848 -5.07812 C 21.6602 -5.30273 21.6406 -5.40039 21.6699 -5.68359 L 21.7578 -6.64062 L 20.1953 -8.20312 L 18.5742 -7.89062 C 18.291 -7.83203 18.1445 -7.83203 17.9102 -8.07617 L 15.7324 -10.2539 C 15.5078 -10.4883 15.4785 -10.625 15.6055 -10.9473 L 16.5527 -13.2227 C 14.9512 -14.7559 12.8418 -15.6055 10.8008 -14.9512 C 10.7129 -14.9219 10.6445 -14.9414 10.6152 -14.9805 C 10.5859 -15.0293 10.5859 -15.0781 10.6738 -15.1465 Z M 4.10156 2.41211 C 3.61328 1.91406 3.78906 1.61133 4.12109 1.30859 L 15.0781 -8.80859 L 16.3086 -7.57812 L 6.15234 3.34961 C 5.84961 3.68164 5.46875 3.7793 5.06836 3.37891 Z"/>
  </g>
  <text style="stroke:none;fill:black;font-family:-apple-system,&quot;SF Pro Display&quot;,&quot;SF Pro Text&quot;,Helvetica,sans-serif;font-weight:bold;" transform="matrix(1 0 0 1 1289 1953)">Exporting</text>
  <text style="stroke:none;fill:black;font-family:-apple-system,&quot;SF Pro Display&quot;,&quot;SF Pro Text&quot;,Helvetica,sans-serif;" transform="matrix(1 0 0 1 1289 1971)">Symbols should be outlined when exporting to ensure the</text>
  <text style="stroke:none;fill:black;font-family:-apple-system,&quot;SF Pro Display&quot;,&quot;SF Pro Text&quot;,Helvetica,sans-serif;" transform="matrix(1 0 0 1 1289 1989)">design is preserved when submitting to Xcode.</text>
  <text id="template-version" style="stroke:none;fill:black;font-family:-apple-system,&quot;SF Pro Display&quot;,&quot;SF Pro Text&quot;,Helvetica,sans-serif;text-anchor:end;" transform="matrix(1 0 0 1 3036 1933)">Template v.1.0</text>
  <text style="stroke:none;fill:black;font-family:-apple-system,&quot;SF Pro Display&quot;,&quot;SF Pro Text&quot;,Helvetica,sans-serif;text-anchor:end;" transform="matrix(1 0 0 1 3036 1951)">Generated from arrow.uturn.up</text>
  <text style="stroke:none;fill:black;font-family:-apple-system,&quot;SF Pro Display&quot;,&quot;SF Pro Text&quot;,Helvetica,sans-serif;text-anchor:end;" transform="matrix(1 0 0 1 3036 1969)">Typeset at 100 points</text>
  <text style="stroke:none;fill:black;font-family:-apple-system,&quot;SF Pro Display&quot;,&quot;SF Pro Text&quot;,Helvetica,sans-serif;" transform="matrix(1 0 0 1 263 726)">Small</text>
  <text style="stroke:none;fill:black;font-family:-apple-system,&quot;SF Pro Display&quot;,&quot;SF Pro Text&quot;,Helvetica,sans-serif;" transform="matrix(1 0 0 1 263 1156)">Medium</text>
  <text style="stroke:none;fill:black;font-family:-apple-system,&quot;SF Pro Display&quot;,&quot;SF Pro Text&quot;,Helvetica,sans-serif;" transform="matrix(1 0 0 1 263 1586)">Large</text>
 </g>
 <g id="Guides">
  <g id="H-reference" style="fill:#27AAE1;stroke:none;" transform="matrix(1 0 0 1 339 696)">
   <path d="M 54.9316 0 L 57.666 0 L 30.5664 -70.459 L 28.0762 -70.459 L 0.976562 0 L 3.66211 0 L 12.9395 -24.4629 L 45.7031 -24.4629 Z M 29.1992 -67.0898 L 29.4434 -67.0898 L 44.8242 -26.709 L 13.8184 -26.709 Z"/>
  </g>
  <line id="Baseline-S" style="fill:none;stroke:#27AAE1;opacity:1;stroke-width:0.577;" x1="263" x2="3036" y1="696" y2="696"/>
  <line id="Capline-S" style="fill:none;stroke:#27AAE1;opacity:1;stroke-width:0.577;" x1="263" x2="3036" y1="625.541" y2="625.541"/>
  <g id="H-reference" style="fill:#27AAE1;stroke:none;" transform="matrix(1 0 0 1 339 1126)">
   <path d="M 54.9316 0 L 57.666 0 L 30.5664 -70.459 L 28.0762 -70.459 L 0.976562 0 L 3.66211 0 L 12.9395 -24.4629 L 45.7031 -24.4629 Z M 29.1992 -67.0898 L 29.4434 -67.0898 L 44.8242 -26.709 L 13.8184 -26.709 Z"/>
  </g>
  <line id="Baseline-M" style="fill:none;stroke:#27AAE1;opacity:1;stroke-width:0.577;" x1="263" x2="3036" y1="1126" y2="1126"/>
  <line id="Capline-M" style="fill:none;stroke:#27AAE1;opacity:1;stroke-width:0.577;" x1="263" x2="3036" y1="1055.54" y2="1055.54"/>
  <g id="H-reference" style="fill:#27AAE1;stroke:none;" transform="matrix(1 0 0 1 339 1556)">
   <path d="M 54.9316 0 L 57.666 0 L 30.5664 -70.459 L 28.0762 -70.459 L 0.976562 0 L 3.66211 0 L 12.9395 -24.4629 L 45.7031 -24.4629 Z M 29.1992 -67.0898 L 29.4434 -67.0898 L 44.8242 -26.709 L 13.8184 -26.709 Z"/>
  </g>
  <line id="Baseline-L" style="fill:none;stroke:#27AAE1;opacity:1;stroke-width:0.577;" x1="263" x2="3036" y1="1556" y2="1556"/>
  <line id="Capline-L" style="fill:none;stroke:#27AAE1;opacity:1;stroke-width:0.577;" x1="263" x2="3036" y1="1485.54" y2="1485.54"/>
  <rect height="119.336" id="left-margin" style="fill:#00AEEF;stroke:none;opacity:0.4;" width="12.4512" x="1391.84" y="1030.79"/>
  <rect height="119.336" id="right-margin" style="fill:#00AEEF;stroke:none;opacity:0.4;" width="12.4512" x="1495.4" y="1030.79"/>
 </g>
 <g id="Symbols">
  <g id="Black-L" transform="matrix(1 0 0 1 2853.1 1556)">
   <path d="M 63.1836 28.9062 C 91.4551 28.9062 110.938 9.96094 110.938 -18.5547 L 110.938 -48.4863 L 110.303 -62.2559 L 116.602 -54.3945 L 125.586 -45.166 C 127.637 -43.0176 130.127 -41.4062 133.691 -41.4062 C 139.893 -41.4062 144.531 -45.8496 144.531 -52.4414 C 144.531 -55.3711 143.262 -58.3008 140.967 -60.5957 L 107.91 -93.9453 C 105.908 -95.9961 102.588 -97.2168 99.5117 -97.2168 C 96.4355 -97.2168 93.1641 -95.9961 91.1133 -93.9453 L 58.1543 -60.5957 C 55.8594 -58.3008 54.5898 -55.3711 54.5898 -52.4414 C 54.5898 -45.8496 59.2285 -41.4062 65.4297 -41.4062 C 68.9941 -41.4062 71.4844 -43.0176 73.5352 -45.166 L 82.4707 -54.3945 L 88.7695 -62.2559 L 88.0859 -48.4863 L 88.0859 -20.0195 C 88.0859 -3.75977 77.832 6.64062 63.4277 6.64062 C 49.0234 6.64062 38.916 -3.75977 38.916 -20.0195 L 38.916 -34.7656 C 38.916 -41.3574 33.8379 -46.3379 27.4902 -46.3379 C 21.1426 -46.3379 16.0645 -41.3574 16.0645 -34.7656 L 16.0645 -18.2129 C 16.0645 10.1074 34.3262 28.9062 63.1836 28.9062 Z"/>
  </g>
  <g id="Heavy-L" transform="matrix(1 0 0 1 2557.88 1556)">
   <path d="M 61.2793 27.9297 C 88.4277 27.9297 107.129 9.61914 107.129 -18.6035 L 107.129 -52.5391 L 106.494 -66.6016 L 113.867 -57.5684 L 125.195 -45.9473 C 126.953 -44.1406 129.15 -42.8223 132.178 -42.8223 C 137.549 -42.8223 141.553 -46.6309 141.553 -52.3438 C 141.553 -54.8828 140.479 -57.4219 138.477 -59.375 L 104.541 -93.6523 C 102.734 -95.5078 99.9512 -96.582 97.2656 -96.582 C 94.6289 -96.582 91.7969 -95.5078 90.0391 -93.6523 L 56.1035 -59.375 C 54.1504 -57.4219 53.0273 -54.8828 53.0273 -52.3438 C 53.0273 -46.6309 57.0801 -42.8223 62.4023 -42.8223 C 65.4785 -42.8223 67.627 -44.1406 69.4336 -45.9473 L 80.7129 -57.5684 L 88.0859 -66.6016 L 87.4023 -52.5391 L 87.4023 -19.5801 C 87.4023 -2.09961 76.709 8.64258 61.5723 8.64258 C 46.4844 8.64258 35.7422 -2.09961 35.7422 -19.5801 L 35.7422 -34.668 C 35.7422 -40.3809 31.3477 -44.6777 25.9277 -44.6777 C 20.459 -44.6777 16.0645 -40.3809 16.0645 -34.668 L 16.0645 -18.1641 C 16.0645 9.81445 33.7402 27.9297 61.2793 27.9297 Z"/>
  </g>
  <g id="Bold-L" transform="matrix(1 0 0 1 2262.83 1556)">
   <path d="M 59.1797 26.7578 C 85.0586 26.7578 102.832 9.27734 102.832 -18.7012 L 102.832 -57.0801 L 102.197 -71.3867 L 110.791 -61.1328 L 124.756 -46.875 C 126.221 -45.3613 127.979 -44.3848 130.469 -44.3848 C 134.912 -44.3848 138.232 -47.5098 138.232 -52.2461 C 138.232 -54.2969 137.305 -56.4453 135.693 -58.0566 L 100.732 -93.4082 C 99.2188 -94.9707 96.9727 -95.8496 94.7754 -95.8496 C 92.5293 -95.8496 90.2832 -94.9707 88.7695 -93.4082 L 53.8086 -58.0566 C 52.1973 -56.4453 51.3184 -54.2969 51.3184 -52.2461 C 51.3184 -47.5098 54.6387 -44.3848 59.082 -44.3848 C 61.5234 -44.3848 63.3301 -45.3613 64.7949 -46.875 L 78.7109 -61.1328 L 87.3047 -71.3867 L 86.6699 -57.0801 L 86.6699 -19.043 C 86.6699 -0.244141 75.4883 10.8887 59.5703 10.8887 C 43.6035 10.8887 32.2266 -0.244141 32.2266 -19.043 L 32.2266 -34.5703 C 32.2266 -39.3066 28.6133 -42.7734 24.1699 -42.7734 C 19.6777 -42.7734 16.0645 -39.3066 16.0645 -34.5215 L 16.0645 -18.1152 C 16.0645 9.52148 33.0566 26.7578 59.1797 26.7578 Z"/>
  </g>
  <g id="Semibold-L" transform="matrix(1 0 0 1 1967.27 1556)">
   <path d="M 57.7148 25.9766 C 82.7148 25.9766 99.9023 9.0332 99.9023 -18.7012 L 99.9023 -60.2051 L 99.2676 -74.6094 L 108.691 -63.5742 L 124.463 -47.5098 C 125.684 -46.2402 127.246 -45.459 129.297 -45.459 C 133.105 -45.459 135.938 -48.0957 135.938 -52.1484 C 135.938 -53.9062 135.156 -55.7617 133.789 -57.0801 L 98.0957 -93.2129 C 96.7773 -94.5801 94.873 -95.3125 93.0176 -95.3125 C 91.1133 -95.3125 89.2578 -94.5801 87.9395 -93.2129 L 52.2461 -57.0801 C 50.8789 -55.7617 50.0977 -53.9062 50.0977 -52.1484 C 50.0977 -48.0957 52.9297 -45.459 56.7383 -45.459 C 58.8379 -45.459 60.3516 -46.2402 61.5723 -47.5098 L 77.3438 -63.5742 L 86.7676 -74.6094 L 86.1328 -60.2051 L 86.1328 -18.7012 C 86.1328 1.02539 74.6582 12.4512 58.1543 12.4512 C 41.6504 12.4512 29.7852 1.02539 29.7852 -18.7012 L 29.7852 -34.4727 C 29.7852 -38.5742 26.709 -41.4551 22.9492 -41.4551 C 19.1406 -41.4551 16.0645 -38.5254 16.0645 -34.4727 L 16.0645 -18.0664 C 16.0645 9.32617 32.5684 25.9766 57.7148 25.9766 Z"/>
  </g>
  <g id="Medium-L" transform="matrix(1 0 0 1 1671.43 1556)">
   <path d="M 56.6406 25.3906 C 80.957 25.3906 97.6562 8.83789 97.6562 -18.75 L 97.6562 -62.5488 L 97.0703 -77.0508 L 107.129 -65.4297 L 124.219 -47.998 C 125.293 -46.9238 126.611 -46.2402 128.418 -46.2402 C 131.738 -46.2402 134.18 -48.584 134.18 -52.0996 C 134.18 -53.6133 133.496 -55.2246 132.324 -56.3965 L 96.0938 -93.0664 C 94.9219 -94.2871 93.3105 -94.9219 91.6992 -94.9219 C 90.0391 -94.9219 88.4766 -94.2871 87.2559 -93.0664 L 51.0742 -56.3965 C 49.9023 -55.2246 49.2188 -53.6133 49.2188 -52.0996 C 49.2188 -48.584 51.6602 -46.2402 54.9805 -46.2402 C 56.7871 -46.2402 58.1055 -46.9238 59.1797 -47.998 L 76.2695 -65.4297 L 86.3281 -77.0508 L 85.7422 -62.5488 L 85.7422 -18.4082 C 85.7422 2.00195 73.9746 13.5742 57.0801 13.5742 C 40.1367 13.5742 27.9297 2.00195 27.9297 -18.4082 L 27.9297 -34.4238 C 27.9297 -37.9883 25.293 -40.4297 22.0215 -40.4297 C 18.7012 -40.4297 16.0645 -37.9883 16.0645 -34.375 L 16.0645 -18.0176 C 16.0645 9.17969 32.1777 25.3906 56.6406 25.3906 Z"/>
  </g>
  <g id="Regular-L" transform="matrix(1 0 0 1 1375.85 1556)">
   <path d="M 55.1758 24.6094 C 78.6621 24.6094 94.7266 8.59375 94.7266 -18.7988 L 94.7266 -65.625 L 94.1406 -80.1758 L 105.029 -67.8711 L 123.926 -48.584 C 124.805 -47.7539 125.879 -47.3145 127.246 -47.3145 C 129.98 -47.3145 131.934 -49.1699 131.934 -52.002 C 131.934 -53.1738 131.348 -54.541 130.469 -55.4688 L 93.5059 -92.8711 C 92.5293 -93.9453 91.3086 -94.4336 89.9902 -94.4336 C 88.6719 -94.4336 87.4512 -93.9453 86.4258 -92.8711 L 49.5117 -55.4688 C 48.584 -54.541 48.0469 -53.1738 48.0469 -52.002 C 48.0469 -49.1699 50 -47.3145 52.7344 -47.3145 C 54.1016 -47.3145 55.1758 -47.7539 56.0059 -48.584 L 74.9023 -67.8711 L 85.791 -80.1758 L 85.2539 -65.625 L 85.2539 -18.0664 C 85.2539 3.22266 73.1445 15.1367 55.6641 15.1367 C 38.2324 15.1367 25.5371 3.22266 25.5371 -18.0664 L 25.5371 -34.3262 C 25.5371 -37.2559 23.4375 -39.1602 20.8008 -39.1602 C 18.2129 -39.1602 16.0645 -37.207 16.0645 -34.3262 L 16.0645 -18.0176 C 16.0645 8.93555 31.7383 24.6094 55.1758 24.6094 Z"/>
  </g>
  <g id="Light-L" transform="matrix(1 0 0 1 1080.33 1556)">
   <path d="M 53.7109 24.5117 C 76.3184 24.5117 91.6504 8.93555 91.6504 -16.6016 L 91.6504 -69.1895 L 91.2109 -83.3496 L 102.979 -70.5566 L 123.535 -49.7559 C 124.17 -49.1699 125 -48.8281 126.025 -48.8281 C 128.076 -48.8281 129.541 -50.2441 129.541 -52.3926 C 129.541 -53.2715 129.15 -54.248 128.467 -54.9316 L 90.7715 -92.8223 C 89.9902 -93.6035 89.1113 -93.9941 88.0859 -93.9941 C 87.1094 -93.9941 86.2305 -93.6035 85.4492 -92.8223 L 47.7539 -54.9316 C 47.0703 -54.248 46.6797 -53.2715 46.6797 -52.3926 C 46.6797 -50.2441 48.1445 -48.8281 50.1465 -48.8281 C 51.2207 -48.8281 52.0508 -49.1699 52.6855 -49.7559 L 73.2422 -70.5566 L 85.0098 -83.3496 L 84.5703 -69.1895 L 84.5703 -16.2109 C 84.5703 4.88281 72.2168 17.4316 54.0527 17.4316 C 35.8887 17.4316 23.1445 4.88281 23.1445 -16.2109 L 23.1445 -34.9121 C 23.1445 -37.0605 21.582 -38.4766 19.5801 -38.4766 C 17.627 -38.4766 16.0645 -37.0117 16.0645 -34.8633 L 16.0645 -16.1133 C 16.0645 9.13086 31.1035 24.5117 53.7109 24.5117 Z"/>
  </g>
  <g id="Thin-L" transform="matrix(1 0 0 1 785.182 1556)">
   <path d="M 51.8066 24.4141 C 73.2422 24.4141 87.5977 9.32617 87.5977 -13.6719 L 87.5977 -73.8281 L 87.3535 -87.3535 L 100.244 -74.1211 L 122.998 -51.3184 C 123.34 -51.0254 123.877 -50.8301 124.463 -50.8301 C 125.537 -50.8301 126.416 -51.6113 126.416 -52.832 C 126.416 -53.418 126.221 -53.8574 125.83 -54.248 L 87.0605 -92.7734 C 86.6699 -93.2129 86.2305 -93.4082 85.6445 -93.4082 C 85.0586 -93.4082 84.6191 -93.2129 84.1797 -92.7734 L 45.459 -54.248 C 45.0684 -53.8574 44.873 -53.418 44.873 -52.832 C 44.873 -51.6113 45.752 -50.8301 46.7773 -50.8301 C 47.4121 -50.8301 47.9492 -51.0254 48.291 -51.3184 L 70.9961 -74.1211 L 83.8867 -87.3535 L 83.6914 -73.8281 L 83.6914 -13.7207 C 83.6914 7.03125 70.9473 20.5078 51.8555 20.5078 C 32.8125 20.5078 19.9707 7.03125 19.9707 -13.7207 L 19.9707 -35.6445 C 19.9707 -36.7676 19.1406 -37.5488 18.0176 -37.5488 C 16.8945 -37.5488 16.0645 -36.7188 16.0645 -35.5469 L 16.0645 -13.5742 C 16.0645 9.375 30.3223 24.4141 51.8066 24.4141 Z"/>
  </g>
  <g id="Ultralight-L" transform="matrix(1 0 0 1 489.277 1556)">
   <path d="M 50.8301 24.3652 C 71.6797 24.3652 85.498 9.57031 85.498 -12.207 L 85.498 -76.2207 L 85.4004 -89.3555 L 98.877 -75.9766 L 122.705 -52.1484 C 122.9 -51.9531 123.291 -51.8555 123.682 -51.8555 C 124.268 -51.8555 124.805 -52.3438 124.805 -53.0762 C 124.805 -53.4668 124.707 -53.6621 124.463 -53.9062 L 85.2051 -92.7734 C 84.9609 -92.9688 84.7656 -93.1152 84.375 -93.1152 C 83.9844 -93.1152 83.7891 -92.9688 83.5449 -92.7734 L 44.2871 -53.9062 C 44.043 -53.6621 43.9453 -53.4668 43.9453 -53.0762 C 43.9453 -52.3438 44.4824 -51.8555 45.0684 -51.8555 C 45.459 -51.8555 45.8496 -51.9531 45.9961 -52.1484 L 69.873 -75.9766 L 83.3496 -89.3555 L 83.252 -76.2207 L 83.252 -12.4512 C 83.252 8.10547 70.2637 22.1191 50.7324 22.1191 C 31.25 22.1191 18.3105 8.10547 18.3105 -12.4512 L 18.3105 -36.0352 C 18.3105 -36.6699 17.8711 -37.0605 17.1875 -37.0605 C 16.5039 -37.0605 16.0645 -36.5723 16.0645 -35.9375 L 16.0645 -12.3047 C 16.0645 9.52148 29.9316 24.3652 50.8301 24.3652 Z"/>
  </g>
  <g id="Black-M" transform="matrix(1 0 0 1 2869.8 1126)">
   <path d="M 50.7324 15.8203 C 73.6816 15.8203 89.502 0.390625 89.502 -21.0938 L 89.502 -41.9434 L 89.0625 -52.1484 L 92.9199 -47.2656 L 97.6074 -42.4316 C 99.5117 -40.4785 101.758 -38.9648 105.078 -38.9648 C 110.547 -38.9648 114.746 -42.9688 114.746 -48.877 C 114.746 -51.6113 113.623 -54.1504 111.523 -56.25 L 86.7676 -81.0547 C 85.0098 -82.8125 81.9336 -83.9355 79.1992 -83.9355 C 76.416 -83.9355 73.3887 -82.8125 71.6309 -81.0547 L 46.875 -56.25 C 44.7754 -54.1504 43.6523 -51.6113 43.6523 -48.877 C 43.6523 -42.9688 47.9004 -38.9648 53.3691 -38.9648 C 56.6406 -38.9648 58.9355 -40.4785 60.8398 -42.4316 L 65.4297 -47.2656 L 69.3359 -52.1484 L 68.8477 -41.9434 L 68.8477 -23.0957 C 68.8477 -12.207 61.2793 -4.19922 50.7324 -4.19922 C 40.1855 -4.19922 33.1543 -12.207 33.1543 -23.0957 L 33.1543 -35.3027 C 33.1543 -41.1621 28.5156 -45.752 22.8027 -45.752 C 17.041 -45.752 12.4512 -41.1621 12.4512 -35.3027 L 12.4512 -21.0938 C 12.4512 0.341797 27.1484 15.8203 50.7324 15.8203 Z"/>
  </g>
  <g id="Heavy-M" transform="matrix(1 0 0 1 2574.41 1126)">
   <path d="M 49.0723 14.7461 C 70.9961 14.7461 86.1328 -0.0488281 86.1328 -21.6797 L 86.1328 -45.459 L 85.6445 -56.0547 L 90.4785 -50 L 97.3145 -43.0176 C 98.9258 -41.3574 100.879 -40.0879 103.711 -40.0879 C 108.496 -40.0879 112.109 -43.5547 112.109 -48.6816 C 112.109 -51.0254 111.133 -53.2715 109.326 -55.0781 L 83.7402 -80.7617 C 82.1777 -82.3242 79.5898 -83.3008 77.1973 -83.3008 C 74.8047 -83.3008 72.2168 -82.3242 70.6543 -80.7617 L 45.1172 -55.0781 C 43.3105 -53.2715 42.334 -51.0254 42.334 -48.6816 C 42.334 -43.5547 45.9961 -40.0879 50.7812 -40.0879 C 53.5645 -40.0879 55.5176 -41.3574 57.1289 -43.0176 L 63.916 -50 L 68.75 -56.0547 L 68.2617 -45.459 L 68.2617 -23.0469 C 68.2617 -10.791 60.3027 -2.63672 49.1699 -2.63672 C 37.9883 -2.63672 30.3223 -10.791 30.3223 -23.0469 L 30.3223 -35.0586 C 30.3223 -40.1367 26.3184 -44.0918 21.3867 -44.0918 C 16.4551 -44.0918 12.4512 -40.1367 12.4512 -35.0586 L 12.4512 -21.5332 C 12.4512 0 26.6113 14.7461 49.0723 14.7461 Z"/>
  </g>
  <g id="Bold-M" transform="matrix(1 0 0 1 2279.16 1126)">
   <path d="M 47.168 13.5254 C 68.0176 13.5254 82.3242 -0.537109 82.3242 -22.4121 L 82.3242 -49.3652 L 81.8359 -60.3027 L 87.7441 -53.125 L 96.9727 -43.7012 C 98.291 -42.334 99.9023 -41.3574 102.148 -41.3574 C 106.152 -41.3574 109.18 -44.1895 109.18 -48.4375 C 109.18 -50.3418 108.35 -52.2949 106.885 -53.7109 L 80.4199 -80.4688 C 79.0527 -81.8359 76.9531 -82.666 75 -82.666 C 72.998 -82.666 70.8984 -81.8359 69.5801 -80.4688 L 43.1152 -53.7109 C 41.6504 -52.2949 40.8203 -50.3418 40.8203 -48.4375 C 40.8203 -44.1895 43.8477 -41.3574 47.8516 -41.3574 C 50.0977 -41.3574 51.709 -42.334 53.0762 -43.7012 L 62.207 -53.125 L 68.1152 -60.3027 L 67.627 -49.3652 L 67.627 -23.0469 C 67.627 -9.27734 59.2773 -0.878906 47.4121 -0.878906 C 35.5469 -0.878906 27.1484 -9.27734 27.1484 -23.0469 L 27.1484 -34.7656 C 27.1484 -39.0137 23.877 -42.2363 19.8242 -42.2363 C 15.7227 -42.2363 12.4512 -39.0137 12.4512 -34.7656 L 12.4512 -22.0215 C 12.4512 -0.341797 26.0254 13.5254 47.168 13.5254 Z"/>
  </g>
  <g id="Semibold-M" transform="matrix(1 0 0 1 1983.48 1126)">
   <path d="M 45.8496 12.6465 C 65.918 12.6465 79.7363 -0.878906 79.7363 -22.9004 L 79.7363 -52.0508 L 79.1992 -63.2324 L 85.8398 -55.2734 L 96.7285 -44.1406 C 97.8516 -42.9688 99.2188 -42.2363 101.123 -42.2363 C 104.59 -42.2363 107.129 -44.6289 107.129 -48.291 C 107.129 -49.9023 106.445 -51.5625 105.176 -52.832 L 78.0762 -80.2734 C 76.9043 -81.4941 75.1465 -82.1777 73.4375 -82.1777 C 71.7773 -82.1777 70.0195 -81.4941 68.8477 -80.2734 L 41.748 -52.832 C 40.5273 -51.5625 39.7949 -49.9023 39.7949 -48.291 C 39.7949 -44.6289 42.3828 -42.2363 45.8008 -42.2363 C 47.7051 -42.2363 49.1211 -42.9688 50.2441 -44.1406 L 61.0352 -55.2734 L 67.6758 -63.2324 L 67.1875 -52.0508 L 67.1875 -22.998 C 67.1875 -8.20312 58.5449 0.341797 46.1914 0.341797 C 33.8867 0.341797 24.9512 -8.20312 24.9512 -22.998 L 24.9512 -34.5703 C 24.9512 -38.2812 22.168 -40.918 18.7012 -40.918 C 15.2344 -40.918 12.4512 -38.2324 12.4512 -34.5703 L 12.4512 -22.3633 C 12.4512 -0.634766 25.6348 12.6465 45.8496 12.6465 Z"/>
  </g>
  <g id="Medium-M" transform="matrix(1 0 0 1 1687.52 1126)">
   <path d="M 44.873 12.0117 C 64.3555 12.0117 77.7344 -1.12305 77.7344 -23.2422 L 77.7344 -54.1016 L 77.2461 -65.3809 L 84.4238 -56.8848 L 96.5332 -44.4824 C 97.5098 -43.5059 98.6816 -42.8711 100.293 -42.8711 C 103.369 -42.8711 105.615 -44.9707 105.615 -48.1934 C 105.615 -49.5605 104.98 -51.0742 103.906 -52.0996 L 76.3184 -80.127 C 75.2441 -81.25 73.7793 -81.8359 72.3145 -81.8359 C 70.8008 -81.8359 69.3359 -81.25 68.2617 -80.127 L 40.7227 -52.0996 C 39.6484 -51.0742 39.0137 -49.5605 39.0137 -48.1934 C 39.0137 -44.9707 41.2598 -42.8711 44.2871 -42.8711 C 45.8984 -42.8711 47.1191 -43.5059 48.0957 -44.4824 L 60.1562 -56.8848 L 67.3828 -65.3809 L 66.8457 -54.1016 L 66.8457 -22.998 C 66.8457 -7.37305 57.959 1.26953 45.2637 1.26953 C 32.6172 1.26953 23.3398 -7.37305 23.3398 -22.998 L 23.3398 -34.4238 C 23.3398 -37.6953 20.8984 -39.9414 17.8711 -39.9414 C 14.8926 -39.9414 12.4512 -37.6465 12.4512 -34.4238 L 12.4512 -22.6074 C 12.4512 -0.830078 25.3418 12.0117 44.873 12.0117 Z"/>
  </g>
  <g id="Regular-M" transform="matrix(1 0 0 1 1391.84 1126)">
   <path d="M 43.6035 11.1816 C 62.3047 11.1816 75.1465 -1.41602 75.1465 -23.7305 L 75.1465 -56.7871 L 74.6582 -68.2129 L 82.5684 -58.9844 L 96.2891 -44.9219 C 97.0703 -44.1406 98.0469 -43.7012 99.2676 -43.7012 C 101.807 -43.7012 103.564 -45.459 103.564 -48.0469 C 103.564 -49.1211 103.076 -50.3906 102.246 -51.2207 L 74.0723 -79.9316 C 73.1445 -80.9082 71.9727 -81.3477 70.8008 -81.3477 C 69.5801 -81.3477 68.457 -80.9082 67.5293 -79.9316 L 39.3555 -51.2207 C 38.5254 -50.3906 37.9883 -49.1211 37.9883 -48.0469 C 37.9883 -45.459 39.7949 -43.7012 42.2852 -43.7012 C 43.5547 -43.7012 44.5312 -44.1406 45.3125 -44.9219 L 59.0332 -58.9844 L 66.9434 -68.2129 L 66.4551 -56.7871 L 66.4551 -22.998 C 66.4551 -6.34766 57.2266 2.49023 44.0918 2.49023 C 30.957 2.49023 21.1426 -6.34766 21.1426 -22.998 L 21.1426 -34.2285 C 21.1426 -36.9141 19.1895 -38.6719 16.7969 -38.6719 C 14.4043 -38.6719 12.4512 -36.9141 12.4512 -34.2285 L 12.4512 -22.9492 C 12.4512 -1.07422 24.9023 11.1816 43.6035 11.1816 Z"/>
  </g>
  <g id="Light-M" transform="matrix(1 0 0 1 1096.18 1126)">
   <path d="M 42.2852 11.1328 C 60.2051 11.1328 72.4121 -1.17188 72.4121 -21.7773 L 72.4121 -59.9609 L 72.0215 -71.0938 L 80.7129 -61.4258 L 95.9473 -45.9961 C 96.4844 -45.4102 97.2656 -45.0684 98.1934 -45.0684 C 100.098 -45.0684 101.465 -46.3867 101.465 -48.3398 C 101.465 -49.1699 101.074 -50.0977 100.439 -50.7324 L 71.582 -79.8828 C 70.8496 -80.6152 70.0195 -80.957 69.1406 -80.957 C 68.2129 -80.957 67.3828 -80.6152 66.6504 -79.8828 L 37.793 -50.7324 C 37.1582 -50.0977 36.7676 -49.1699 36.7676 -48.3398 C 36.7676 -46.3867 38.1348 -45.0684 40.0391 -45.0684 C 40.9668 -45.0684 41.748 -45.4102 42.2852 -45.9961 L 57.5195 -61.4258 L 66.2109 -71.0938 L 65.8203 -59.9609 L 65.8203 -21.3379 C 65.8203 -4.88281 56.3965 4.54102 42.627 4.54102 C 28.8574 4.54102 18.9941 -4.88281 18.9941 -21.3379 L 18.9941 -34.7168 C 18.9941 -36.7188 17.5293 -38.0371 15.7227 -38.0371 C 13.916 -38.0371 12.4512 -36.7188 12.4512 -34.7168 L 12.4512 -21.2402 C 12.4512 -0.927734 24.3652 11.1328 42.2852 11.1328 Z"/>
  </g>
  <g id="Thin-M" transform="matrix(1 0 0 1 800.88 1126)">
   <path d="M 40.5762 11.0352 C 57.4219 11.0352 68.75 -0.78125 68.75 -19.1406 L 68.75 -64.1602 L 68.5547 -74.8047 L 78.2715 -64.5996 L 95.459 -47.3633 C 95.752 -47.0703 96.2402 -46.875 96.8262 -46.875 C 97.8516 -46.875 98.6328 -47.6562 98.6328 -48.7793 C 98.6328 -49.3164 98.4375 -49.7559 98.0957 -50.1465 L 68.2617 -79.834 C 67.8711 -80.2246 67.4316 -80.4199 66.8945 -80.4199 C 66.3574 -80.4199 65.918 -80.2246 65.5273 -79.834 L 35.7422 -50.1465 C 35.3516 -49.7559 35.1562 -49.3164 35.1562 -48.7793 C 35.1562 -47.6562 35.9863 -46.875 37.0117 -46.875 C 37.5488 -46.875 38.0371 -47.0703 38.3789 -47.3633 L 55.5176 -64.5996 L 65.2832 -74.8047 L 65.0391 -64.1602 L 65.0391 -19.0918 C 65.0391 -2.92969 55.2246 7.32422 40.6738 7.32422 C 26.0742 7.32422 16.1621 -2.92969 16.1621 -19.0918 L 16.1621 -35.4004 C 16.1621 -36.4746 15.332 -37.207 14.3066 -37.207 C 13.2812 -37.207 12.4512 -36.4258 12.4512 -35.3516 L 12.4512 -18.9941 C 12.4512 -0.732422 23.6816 11.0352 40.5762 11.0352 Z"/>
  </g>
  <g id="Ultralight-M" transform="matrix(1 0 0 1 504.877 1126)">
   <path d="M 39.6973 10.9863 C 56.0059 10.9863 66.8945 -0.585938 66.8945 -17.8223 L 66.8945 -66.3086 L 66.7969 -76.6113 L 77.0508 -66.2598 L 95.2148 -48.0957 C 95.3613 -47.9004 95.752 -47.8027 96.0938 -47.8027 C 96.6797 -47.8027 97.2168 -48.291 97.2168 -48.9746 C 97.2168 -49.3652 97.1191 -49.5605 96.875 -49.8047 L 66.6016 -79.834 C 66.3574 -80.0781 66.1133 -80.1758 65.7715 -80.1758 C 65.4297 -80.1758 65.1855 -80.0781 64.9414 -79.834 L 34.668 -49.8047 C 34.4238 -49.5605 34.3262 -49.3652 34.3262 -48.9746 C 34.3262 -48.291 34.8633 -47.8027 35.4492 -47.8027 C 35.791 -47.8027 36.1816 -47.9004 36.3281 -48.0957 L 54.4922 -66.2598 L 64.7461 -76.6113 L 64.6484 -66.3086 L 64.6484 -17.9688 C 64.6484 -1.95312 54.6387 8.74023 39.6484 8.74023 C 24.6582 8.74023 14.6973 -1.95312 14.6973 -17.9688 L 14.6973 -35.7422 C 14.6973 -36.377 14.209 -36.7676 13.5742 -36.7676 C 12.9395 -36.7676 12.4512 -36.3281 12.4512 -35.6445 L 12.4512 -17.8223 C 12.4512 -0.585938 23.3398 10.9863 39.6973 10.9863 Z"/>
  </g>
  <g id="Black-S" transform="matrix(1 0 0 1 2883.64 696)">
   <path d="M 39.6484 4.6875 C 57.5684 4.6875 69.9219 -7.37305 69.9219 -24.2188 L 69.9219 -40.7227 L 69.5312 -48.7793 L 72.6562 -44.8242 L 76.4648 -40.918 C 77.9297 -39.4043 79.6875 -38.2324 82.2266 -38.2324 C 86.4746 -38.2324 89.7461 -41.3086 89.7461 -45.8984 C 89.7461 -47.998 88.8672 -50 87.2559 -51.6113 L 67.7734 -71.0938 C 66.4062 -72.4609 64.0625 -73.3398 61.9141 -73.3398 C 59.7656 -73.3398 57.4219 -72.4609 56.0547 -71.0938 L 36.6211 -51.6113 C 35.0098 -50 34.1309 -47.998 34.1309 -45.8984 C 34.1309 -41.3086 37.4023 -38.2324 41.6504 -38.2324 C 44.1895 -38.2324 45.9473 -39.4043 47.4121 -40.918 L 51.1719 -44.8242 L 54.2969 -48.7793 L 53.9062 -40.7227 L 53.9062 -25.7324 C 53.9062 -17.0898 47.9492 -10.8398 39.6484 -10.8398 C 31.3477 -10.8398 25.7812 -17.0898 25.7812 -25.7324 L 25.7812 -35.2539 C 25.7812 -39.7949 22.2168 -43.3594 17.7734 -43.3594 C 13.3301 -43.3594 9.76562 -39.7949 9.76562 -35.2539 L 9.76562 -24.2188 C 9.76562 -7.37305 21.2402 4.6875 39.6484 4.6875 Z"/>
  </g>
  <g id="Heavy-S" transform="matrix(1 0 0 1 2587.84 696)">
   <path d="M 38.5254 3.85742 C 55.7617 3.85742 67.627 -7.71484 67.627 -24.9023 L 67.627 -43.0664 L 67.2363 -51.3672 L 70.9961 -46.6797 L 76.2695 -41.2598 C 77.5391 -39.9414 79.1016 -38.916 81.2988 -38.916 C 85.1074 -38.916 87.9395 -41.6504 87.9395 -45.7031 C 87.9395 -47.5586 87.1582 -49.3652 85.791 -50.7324 L 65.7715 -70.8984 C 64.502 -72.168 62.5 -72.9004 60.5957 -72.9004 C 58.6914 -72.9004 56.6406 -72.168 55.4199 -70.8984 L 35.4492 -50.7324 C 34.0332 -49.3652 33.252 -47.5586 33.252 -45.7031 C 33.252 -41.6504 36.1328 -38.916 39.8926 -38.916 C 42.0898 -38.916 43.6523 -39.9414 44.9219 -41.2598 L 50.1953 -46.6797 L 53.9062 -51.3672 L 53.5156 -43.0664 L 53.5156 -25.8789 C 53.5156 -16.2109 47.3145 -9.86328 38.623 -9.86328 C 29.9316 -9.86328 23.877 -16.2109 23.877 -25.8789 L 23.877 -35.0098 C 23.877 -39.0625 20.7031 -42.1387 16.7969 -42.1387 C 12.8906 -42.1387 9.76562 -39.0625 9.76562 -35.0098 L 9.76562 -24.7559 C 9.76562 -7.66602 20.8984 3.85742 38.5254 3.85742 Z"/>
  </g>
  <g id="Bold-S" transform="matrix(1 0 0 1 2292.1 696)">
   <path d="M 37.207 2.92969 C 53.7109 2.92969 65.0879 -8.1543 65.0879 -25.6836 L 65.0879 -45.6543 L 64.6484 -54.248 L 69.1406 -48.7305 L 76.0254 -41.6016 C 77.1484 -40.5273 78.418 -39.7461 80.2734 -39.7461 C 83.5449 -39.7461 85.9863 -42.041 85.9863 -45.5078 C 85.9863 -47.0215 85.3027 -48.6328 84.1309 -49.8047 L 63.5254 -70.6543 C 62.4023 -71.8262 60.6934 -72.4609 59.082 -72.4609 C 57.4707 -72.4609 55.8105 -71.8262 54.6875 -70.6543 L 34.1309 -49.8047 C 32.9102 -48.6328 32.2754 -47.0215 32.2754 -45.5078 C 32.2754 -42.041 34.668 -39.7461 37.9395 -39.7461 C 39.7949 -39.7461 41.1133 -40.5273 42.1875 -41.6016 L 49.0723 -48.7305 L 53.5156 -54.248 L 53.125 -45.6543 L 53.125 -26.0742 C 53.125 -15.1855 46.6309 -8.78906 37.4512 -8.78906 C 28.3203 -8.78906 21.7285 -15.1855 21.7285 -26.0742 L 21.7285 -34.7168 C 21.7285 -38.2324 19.043 -40.8203 15.7227 -40.8203 C 12.4512 -40.8203 9.76562 -38.2324 9.76562 -34.7168 L 9.76562 -25.3418 C 9.76562 -7.95898 20.5078 2.92969 37.207 2.92969 Z"/>
  </g>
  <g id="Semibold-S" transform="matrix(1 0 0 1 1996.1 696)">
   <path d="M 36.3281 2.29492 C 52.2949 2.29492 63.2812 -8.39844 63.2812 -26.2207 L 63.2812 -47.4609 L 62.8906 -56.2012 L 67.8223 -50.1953 L 75.8789 -41.8457 C 76.8555 -40.918 77.9785 -40.2832 79.541 -40.2832 C 82.4707 -40.2832 84.5703 -42.2852 84.5703 -45.3613 C 84.5703 -46.6797 83.9844 -48.0957 82.959 -49.1211 L 61.9629 -70.5078 C 60.9375 -71.582 59.4727 -72.1191 58.0566 -72.1191 C 56.6406 -72.1191 55.2246 -71.582 54.1992 -70.5078 L 33.2031 -49.1211 C 32.1777 -48.0957 31.5918 -46.6797 31.5918 -45.3613 C 31.5918 -42.2852 33.6914 -40.2832 36.6211 -40.2832 C 38.1836 -40.2832 39.3066 -40.918 40.2832 -41.8457 L 48.291 -50.1953 L 53.2715 -56.2012 L 52.832 -47.4609 L 52.832 -26.2207 C 52.832 -14.502 46.1426 -8.00781 36.6699 -8.00781 C 27.1973 -8.00781 20.2148 -14.502 20.2148 -26.2207 L 20.2148 -34.5215 C 20.2148 -37.6465 17.8711 -39.8438 14.9902 -39.8438 C 12.1094 -39.8438 9.76562 -37.6465 9.76562 -34.5215 L 9.76562 -25.7324 C 9.76562 -8.20312 20.2637 2.29492 36.3281 2.29492 Z"/>
  </g>
  <g id="Medium-S" transform="matrix(1 0 0 1 1699.9 696)">
   <path d="M 35.6934 1.80664 C 51.2207 1.80664 61.9629 -8.64258 61.9629 -26.6602 L 61.9629 -48.8281 L 61.5234 -57.7148 L 66.8457 -51.2695 L 75.7812 -42.041 C 76.6113 -41.2109 77.6367 -40.6738 79.0039 -40.6738 C 81.6406 -40.6738 83.5449 -42.5293 83.5449 -45.2637 C 83.5449 -46.3867 83.0078 -47.7051 82.0801 -48.6328 L 60.791 -70.4102 C 59.8145 -71.3867 58.5449 -71.875 57.2754 -71.875 C 56.0059 -71.875 54.7363 -71.3867 53.8086 -70.4102 L 32.5195 -48.6328 C 31.5918 -47.7051 31.0547 -46.3867 31.0547 -45.2637 C 31.0547 -42.5293 32.959 -40.6738 35.5957 -40.6738 C 36.9629 -40.6738 37.9883 -41.2109 38.8184 -42.041 L 47.7539 -51.2695 L 53.0762 -57.7148 L 52.6367 -48.8281 L 52.6367 -26.3184 C 52.6367 -13.9648 45.752 -7.4707 36.0352 -7.4707 C 26.3672 -7.4707 19.0918 -13.9648 19.0918 -26.3184 L 19.0918 -34.375 C 19.0918 -37.207 16.9922 -39.1602 14.4531 -39.1602 C 11.8652 -39.1602 9.76562 -37.207 9.76562 -34.375 L 9.76562 -26.0254 C 9.76562 -8.34961 20.0684 1.80664 35.6934 1.80664 Z"/>
  </g>
  <g id="Regular-S" transform="matrix(1 0 0 1 1403.87 696)">
   <path d="M 34.8145 1.17188 C 49.8047 1.17188 60.2051 -8.88672 60.2051 -27.1973 L 60.2051 -50.5859 L 59.7656 -59.6191 L 65.5762 -52.6855 L 75.6348 -42.2852 C 76.3184 -41.6016 77.1973 -41.2109 78.3203 -41.2109 C 80.6152 -41.2109 82.1777 -42.7734 82.1777 -45.1172 C 82.1777 -46.0449 81.7383 -47.2168 80.957 -47.998 L 59.2285 -70.2637 C 58.3984 -71.1426 57.373 -71.582 56.2988 -71.582 C 55.2246 -71.582 54.1992 -71.1426 53.3203 -70.2637 L 31.5918 -47.998 C 30.8594 -47.2168 30.3711 -46.0449 30.3711 -45.1172 C 30.3711 -42.7734 31.9824 -41.2109 34.2773 -41.2109 C 35.4004 -41.2109 36.2305 -41.6016 36.9629 -42.2852 L 46.9727 -52.6855 L 52.7832 -59.6191 L 52.3438 -50.5859 L 52.3438 -26.4648 C 52.3438 -13.2812 45.2637 -6.68945 35.2539 -6.68945 C 25.2441 -6.68945 17.627 -13.2812 17.627 -26.4648 L 17.627 -34.2285 C 17.627 -36.6211 15.8691 -38.2324 13.7207 -38.2324 C 11.5234 -38.2324 9.76562 -36.6211 9.76562 -34.2285 L 9.76562 -26.4648 C 9.76562 -8.54492 19.7754 1.17188 34.8145 1.17188 Z"/>
  </g>
  <g id="Light-S" transform="matrix(1 0 0 1 1108.09 696)">
   <path d="M 33.6426 1.12305 C 47.998 1.12305 57.7637 -8.64258 57.7637 -25.4395 L 57.7637 -53.3691 L 57.4219 -62.2559 L 63.9648 -54.834 L 75.293 -43.2617 C 75.8301 -42.7246 76.5137 -42.4316 77.3438 -42.4316 C 79.1016 -42.4316 80.3223 -43.6035 80.3223 -45.4102 C 80.3223 -46.1426 79.9805 -46.9727 79.3945 -47.5586 L 57.0312 -70.2148 C 56.3965 -70.8984 55.6152 -71.2402 54.7852 -71.2402 C 53.9551 -71.2402 53.2227 -70.8984 52.5879 -70.2148 L 30.2246 -47.5586 C 29.6387 -46.9727 29.2969 -46.1426 29.2969 -45.4102 C 29.2969 -43.6035 30.5176 -42.4316 32.2266 -42.4316 C 33.1055 -42.4316 33.7891 -42.7246 34.2773 -43.2617 L 45.6543 -54.834 L 52.1484 -62.2559 L 51.8066 -53.3691 L 51.8066 -24.9512 C 51.8066 -12.0117 44.5312 -4.88281 33.9844 -4.88281 C 23.4375 -4.88281 15.7227 -12.0117 15.7227 -24.9512 L 15.7227 -34.668 C 15.7227 -36.4746 14.4043 -37.6953 12.7441 -37.6953 C 11.084 -37.6953 9.76562 -36.4746 9.76562 -34.6191 L 9.76562 -24.9512 C 9.76562 -8.39844 19.3359 1.12305 33.6426 1.12305 Z"/>
  </g>
  <g id="Thin-S" transform="matrix(1 0 0 1 812.623 696)">
   <path d="M 32.1289 1.02539 C 45.5566 1.02539 54.5898 -8.30078 54.5898 -23.1445 L 54.5898 -57.0801 L 54.3457 -65.5273 L 61.8164 -57.6172 L 74.9023 -44.4824 C 75.1953 -44.1895 75.6348 -43.9941 76.123 -43.9941 C 77.0996 -43.9941 77.832 -44.7266 77.832 -45.752 C 77.832 -46.2402 77.6367 -46.6797 77.2949 -47.0215 L 54.1504 -70.2148 C 53.7598 -70.5566 53.3691 -70.752 52.832 -70.752 C 52.3438 -70.752 51.9531 -70.5566 51.5625 -70.2148 L 28.418 -47.0215 C 28.0762 -46.6797 27.8809 -46.2402 27.8809 -45.752 C 27.8809 -44.7266 28.6133 -43.9941 29.5898 -43.9941 C 30.0781 -43.9941 30.5176 -44.1895 30.8105 -44.4824 L 43.8965 -57.6172 L 51.3184 -65.5273 L 51.123 -57.0801 L 51.123 -22.998 C 51.123 -10.3027 43.5059 -2.44141 32.2266 -2.44141 C 20.9961 -2.44141 13.2324 -10.3027 13.2324 -22.998 L 13.2324 -35.2051 C 13.2324 -36.2793 12.4512 -36.9629 11.4746 -36.9629 C 10.5469 -36.9629 9.76562 -36.2305 9.76562 -35.2051 L 9.76562 -22.9492 C 9.76562 -8.25195 18.7012 1.02539 32.1289 1.02539 Z"/>
  </g>
  <g id="Ultralight-S" transform="matrix(1 0 0 1 516.547 696)">
   <path d="M 31.3477 0.976562 C 44.2871 0.976562 52.9297 -8.1543 52.9297 -21.9727 L 52.9297 -58.9844 L 52.7832 -67.1387 L 60.6934 -59.082 L 74.6582 -45.1172 C 74.8535 -44.9219 75.1465 -44.8242 75.4883 -44.8242 C 76.0742 -44.8242 76.5625 -45.2637 76.5625 -45.9473 C 76.5625 -46.2891 76.4648 -46.5332 76.2207 -46.7285 L 52.6367 -70.166 C 52.3926 -70.4102 52.1973 -70.5078 51.8555 -70.5078 C 51.5137 -70.5078 51.2695 -70.4102 51.0254 -70.166 L 27.4414 -46.7285 C 27.2461 -46.5332 27.0996 -46.2891 27.0996 -45.9473 C 27.0996 -45.2637 27.6367 -44.8242 28.1738 -44.8242 C 28.5156 -44.8242 28.8574 -44.9219 29.0039 -45.1172 L 42.9688 -59.082 L 50.8789 -67.1387 L 50.7812 -58.9844 L 50.7812 -22.0215 C 50.7812 -9.42383 42.9688 -1.17188 31.3477 -1.17188 C 19.7266 -1.17188 11.9141 -9.42383 11.9141 -22.0215 L 11.9141 -35.5469 C 11.9141 -36.1816 11.4746 -36.5723 10.8398 -36.5723 C 10.2051 -36.5723 9.76562 -36.1328 9.76562 -35.498 L 9.76562 -21.9238 C 9.76562 -8.10547 18.3594 0.976562 31.3477 0.976562 Z"/>
  </g>
 </g>
</svg>
