<?xml version="1.0" encoding="UTF-8"?>
<!--Generator: Apple Native CoreSVG 123-->
<!DOCTYPE svg
PUBLIC "-//W3C//DTD SVG 1.1//EN"
       "http://www.w3.org/Graphics/SVG/1.1/DTD/svg11.dtd">
<svg version="1.1" xmlns="http://www.w3.org/2000/svg" xmlns:xlink="http://www.w3.org/1999/xlink" width="3300" height="2200">
 <!--glyph: "uni100212.medium", point size: 100.000000, font version: "Version 15.0d7e11", template writer version: "5"-->
 <g id="Notes">
  <rect height="2200" id="artboard" style="fill:white;opacity:1" width="3300" x="0" y="0"/>
  <line id="" style="fill:none;stroke:black;opacity:1;stroke-width:0.5;" x1="263" x2="3036" y1="292" y2="292"/>
  <text style="stroke:none;fill:black;font-family:-apple-system,&quot;SF Pro Display&quot;,&quot;SF Pro Text&quot;,Helvetica,sans-serif;font-weight:bold;" transform="matrix(1 0 0 1 263 322)">Weight/Scale Variations</text>
  <text style="stroke:none;fill:black;font-family:-apple-system,&quot;SF Pro Display&quot;,&quot;SF Pro Text&quot;,Helvetica,sans-serif;text-anchor:middle;" transform="matrix(1 0 0 1 559.711 322)">Ultralight</text>
  <text style="stroke:none;fill:black;font-family:-apple-system,&quot;SF Pro Display&quot;,&quot;SF Pro Text&quot;,Helvetica,sans-serif;text-anchor:middle;" transform="matrix(1 0 0 1 856.422 322)">Thin</text>
  <text style="stroke:none;fill:black;font-family:-apple-system,&quot;SF Pro Display&quot;,&quot;SF Pro Text&quot;,Helvetica,sans-serif;text-anchor:middle;" transform="matrix(1 0 0 1 1153.13 322)">Light</text>
  <text style="stroke:none;fill:black;font-family:-apple-system,&quot;SF Pro Display&quot;,&quot;SF Pro Text&quot;,Helvetica,sans-serif;text-anchor:middle;" transform="matrix(1 0 0 1 1449.84 322)">Regular</text>
  <text style="stroke:none;fill:black;font-family:-apple-system,&quot;SF Pro Display&quot;,&quot;SF Pro Text&quot;,Helvetica,sans-serif;text-anchor:middle;" transform="matrix(1 0 0 1 1746.56 322)">Medium</text>
  <text style="stroke:none;fill:black;font-family:-apple-system,&quot;SF Pro Display&quot;,&quot;SF Pro Text&quot;,Helvetica,sans-serif;text-anchor:middle;" transform="matrix(1 0 0 1 2043.27 322)">Semibold</text>
  <text style="stroke:none;fill:black;font-family:-apple-system,&quot;SF Pro Display&quot;,&quot;SF Pro Text&quot;,Helvetica,sans-serif;text-anchor:middle;" transform="matrix(1 0 0 1 2339.98 322)">Bold</text>
  <text style="stroke:none;fill:black;font-family:-apple-system,&quot;SF Pro Display&quot;,&quot;SF Pro Text&quot;,Helvetica,sans-serif;text-anchor:middle;" transform="matrix(1 0 0 1 2636.69 322)">Heavy</text>
  <text style="stroke:none;fill:black;font-family:-apple-system,&quot;SF Pro Display&quot;,&quot;SF Pro Text&quot;,Helvetica,sans-serif;text-anchor:middle;" transform="matrix(1 0 0 1 2933.4 322)">Black</text>
  <line id="" style="fill:none;stroke:black;opacity:1;stroke-width:0.5;" x1="263" x2="3036" y1="1903" y2="1903"/>
  <g id="" transform="matrix(1 0 0 1 263 1933)">
   <path d="M 9.24805 0.830078 C 13.5547 0.830078 17.1387 -2.74414 17.1387 -7.05078 C 17.1387 -11.3574 13.5449 -14.9316 9.23828 -14.9316 C 4.94141 -14.9316 1.36719 -11.3574 1.36719 -7.05078 C 1.36719 -2.74414 4.95117 0.830078 9.24805 0.830078 Z M 9.24805 -0.654297 C 5.70312 -0.654297 2.87109 -3.49609 2.87109 -7.05078 C 2.87109 -10.6055 5.69336 -13.4473 9.23828 -13.4473 C 12.793 -13.4473 15.6348 -10.6055 15.6445 -7.05078 C 15.6543 -3.49609 12.8027 -0.654297 9.24805 -0.654297 Z M 9.22852 -3.42773 C 9.69727 -3.42773 9.9707 -3.74023 9.9707 -4.25781 L 9.9707 -6.31836 L 12.1973 -6.31836 C 12.6953 -6.31836 13.0371 -6.57227 13.0371 -7.04102 C 13.0371 -7.51953 12.7148 -7.7832 12.1973 -7.7832 L 9.9707 -7.7832 L 9.9707 -10.0098 C 9.9707 -10.5273 9.69727 -10.8496 9.22852 -10.8496 C 8.75977 -10.8496 8.50586 -10.5078 8.50586 -10.0098 L 8.50586 -7.7832 L 6.29883 -7.7832 C 5.78125 -7.7832 5.44922 -7.51953 5.44922 -7.04102 C 5.44922 -6.57227 5.80078 -6.31836 6.29883 -6.31836 L 8.50586 -6.31836 L 8.50586 -4.25781 C 8.50586 -3.75977 8.75977 -3.42773 9.22852 -3.42773 Z"/>
  </g>
  <g id="" transform="matrix(1 0 0 1 281.506 1933)">
   <path d="M 11.709 2.91016 C 17.1582 2.91016 21.6699 -1.60156 21.6699 -7.05078 C 21.6699 -12.4902 17.1484 -17.0117 11.6992 -17.0117 C 6.25977 -17.0117 1.74805 -12.4902 1.74805 -7.05078 C 1.74805 -1.60156 6.26953 2.91016 11.709 2.91016 Z M 11.709 1.25 C 7.09961 1.25 3.41797 -2.44141 3.41797 -7.05078 C 3.41797 -11.6504 7.08984 -15.3516 11.6992 -15.3516 C 16.3086 -15.3516 20 -11.6504 20.0098 -7.05078 C 20.0195 -2.44141 16.3184 1.25 11.709 1.25 Z M 11.6895 -2.41211 C 12.207 -2.41211 12.5195 -2.77344 12.5195 -3.33984 L 12.5195 -6.23047 L 15.5762 -6.23047 C 16.123 -6.23047 16.5039 -6.51367 16.5039 -7.03125 C 16.5039 -7.55859 16.1426 -7.86133 15.5762 -7.86133 L 12.5195 -7.86133 L 12.5195 -10.9277 C 12.5195 -11.5039 12.207 -11.8555 11.6895 -11.8555 C 11.1719 -11.8555 10.8789 -11.4844 10.8789 -10.9277 L 10.8789 -7.86133 L 7.83203 -7.86133 C 7.26562 -7.86133 6.89453 -7.55859 6.89453 -7.03125 C 6.89453 -6.51367 7.28516 -6.23047 7.83203 -6.23047 L 10.8789 -6.23047 L 10.8789 -3.33984 C 10.8789 -2.79297 11.1719 -2.41211 11.6895 -2.41211 Z"/>
  </g>
  <g id="" transform="matrix(1 0 0 1 304.924 1933)">
   <path d="M 14.9707 5.67383 C 21.9336 5.67383 27.6953 -0.078125 27.6953 -7.04102 C 27.6953 -14.0039 21.9238 -19.7559 14.9609 -19.7559 C 8.00781 -19.7559 2.25586 -14.0039 2.25586 -7.04102 C 2.25586 -0.078125 8.01758 5.67383 14.9707 5.67383 Z M 14.9707 3.85742 C 8.93555 3.85742 4.08203 -1.00586 4.08203 -7.04102 C 4.08203 -13.0762 8.92578 -17.9395 14.9609 -17.9395 C 21.0059 -17.9395 25.8594 -13.0762 25.8691 -7.04102 C 25.8789 -1.00586 21.0156 3.85742 14.9707 3.85742 Z M 14.9512 -1.06445 C 15.5176 -1.06445 15.8691 -1.45508 15.8691 -2.06055 L 15.8691 -6.13281 L 20.1074 -6.13281 C 20.6934 -6.13281 21.1133 -6.46484 21.1133 -7.02148 C 21.1133 -7.59766 20.7227 -7.93945 20.1074 -7.93945 L 15.8691 -7.93945 L 15.8691 -12.1875 C 15.8691 -12.8027 15.5176 -13.1934 14.9512 -13.1934 C 14.3848 -13.1934 14.0625 -12.7832 14.0625 -12.1875 L 14.0625 -7.93945 L 9.83398 -7.93945 C 9.21875 -7.93945 8.80859 -7.59766 8.80859 -7.02148 C 8.80859 -6.46484 9.23828 -6.13281 9.83398 -6.13281 L 14.0625 -6.13281 L 14.0625 -2.06055 C 14.0625 -1.47461 14.3848 -1.06445 14.9512 -1.06445 Z"/>
  </g>
  <text style="stroke:none;fill:black;font-family:-apple-system,&quot;SF Pro Display&quot;,&quot;SF Pro Text&quot;,Helvetica,sans-serif;font-weight:bold;" transform="matrix(1 0 0 1 263 1953)">Design Variations</text>
  <text style="stroke:none;fill:black;font-family:-apple-system,&quot;SF Pro Display&quot;,&quot;SF Pro Text&quot;,Helvetica,sans-serif;" transform="matrix(1 0 0 1 263 1971)">Symbols are supported in up to nine weights and three scales.</text>
  <text style="stroke:none;fill:black;font-family:-apple-system,&quot;SF Pro Display&quot;,&quot;SF Pro Text&quot;,Helvetica,sans-serif;" transform="matrix(1 0 0 1 263 1989)">For optimal layout with text and other symbols, vertically align</text>
  <text style="stroke:none;fill:black;font-family:-apple-system,&quot;SF Pro Display&quot;,&quot;SF Pro Text&quot;,Helvetica,sans-serif;" transform="matrix(1 0 0 1 263 2007)">symbols with the adjacent text.</text>
  <rect height="14" id="" style="fill:#00AEEF;stroke:none;opacity:0.4;" width="3" x="776" y="1919"/>
  <g id="" transform="matrix(1 0 0 1 779 1933)">
   <path d="M 10.5273 0 L 12.373 0 L 7.17773 -14.0918 L 5.43945 -14.0918 L 0.244141 0 L 2.08984 0 L 3.50586 -4.0332 L 9.11133 -4.0332 Z M 6.2793 -11.9531 L 6.33789 -11.9531 L 8.59375 -5.52734 L 4.02344 -5.52734 Z"/>
  </g>
  <rect height="14" id="" style="fill:#00AEEF;stroke:none;opacity:0.4;" width="3" x="791.617" y="1919"/>
  <text style="stroke:none;fill:black;font-family:-apple-system,&quot;SF Pro Display&quot;,&quot;SF Pro Text&quot;,Helvetica,sans-serif;font-weight:bold;" transform="matrix(1 0 0 1 776 1953)">Margins</text>
  <text style="stroke:none;fill:black;font-family:-apple-system,&quot;SF Pro Display&quot;,&quot;SF Pro Text&quot;,Helvetica,sans-serif;" transform="matrix(1 0 0 1 776 1971)">Leading and trailing margins on the left and right side of each symbol</text>
  <text style="stroke:none;fill:black;font-family:-apple-system,&quot;SF Pro Display&quot;,&quot;SF Pro Text&quot;,Helvetica,sans-serif;" transform="matrix(1 0 0 1 776 1989)">can be adjusted by modifying the width of the blue rectangles.</text>
  <text style="stroke:none;fill:black;font-family:-apple-system,&quot;SF Pro Display&quot;,&quot;SF Pro Text&quot;,Helvetica,sans-serif;" transform="matrix(1 0 0 1 776 2007)">Modifications are automatically applied proportionally to all</text>
  <text style="stroke:none;fill:black;font-family:-apple-system,&quot;SF Pro Display&quot;,&quot;SF Pro Text&quot;,Helvetica,sans-serif;" transform="matrix(1 0 0 1 776 2025)">scales and weights.</text>
  <g id="" transform="matrix(1 0 0 1 1289 1933)">
   <path d="M 2.83203 3.11523 L 4.375 4.6582 C 5.22461 5.48828 6.19141 5.41992 7.06055 4.46289 L 17.2754 -6.66016 C 17.7051 -6.36719 18.0957 -6.37695 18.5645 -6.47461 L 19.6094 -6.68945 L 20.3027 -5.99609 L 20.2539 -5.47852 C 20.1855 -4.95117 20.3516 -4.53125 20.8496 -4.0332 L 21.6602 -3.22266 C 22.168 -2.71484 22.8223 -2.68555 23.3008 -3.16406 L 26.5527 -6.41602 C 27.0312 -6.89453 27.0117 -7.54883 26.5039 -8.05664 L 25.6836 -8.87695 C 25.1855 -9.375 24.7754 -9.55078 24.2383 -9.47266 L 23.7109 -9.41406 L 23.0566 -10.0781 L 23.3398 -11.2207 C 23.4863 -11.7871 23.3398 -12.2559 22.7148 -12.8613 L 20.3027 -15.2539 C 16.7578 -18.7793 12.2266 -18.6719 9.11133 -15.5371 C 8.69141 -15.1074 8.64258 -14.5215 8.91602 -14.0918 C 9.15039 -13.7207 9.62891 -13.4961 10.2734 -13.6621 C 11.7871 -14.043 13.3008 -13.9258 14.7852 -12.9199 L 14.1602 -11.3379 C 13.9258 -10.752 13.9453 -10.2734 14.1797 -9.83398 L 3.01758 0.439453 C 2.08008 1.30859 1.97266 2.25586 2.83203 3.11523 Z M 10.6738 -15.1465 C 13.3398 -17.1387 16.6504 -16.8262 19.0527 -14.4141 L 21.6797 -11.8066 C 21.9141 -11.5723 21.9434 -11.3867 21.8848 -11.0938 L 21.5039 -9.53125 L 23.0762 -7.95898 L 24.043 -8.04688 C 24.3262 -8.07617 24.4141 -8.05664 24.6387 -7.83203 L 25.2637 -7.20703 L 22.5098 -4.46289 L 21.8848 -5.07812 C 21.6602 -5.30273 21.6406 -5.40039 21.6699 -5.68359 L 21.7578 -6.64062 L 20.1953 -8.20312 L 18.5742 -7.89062 C 18.291 -7.83203 18.1445 -7.83203 17.9102 -8.07617 L 15.7324 -10.2539 C 15.5078 -10.4883 15.4785 -10.625 15.6055 -10.9473 L 16.5527 -13.2227 C 14.9512 -14.7559 12.8418 -15.6055 10.8008 -14.9512 C 10.7129 -14.9219 10.6445 -14.9414 10.6152 -14.9805 C 10.5859 -15.0293 10.5859 -15.0781 10.6738 -15.1465 Z M 4.10156 2.41211 C 3.61328 1.91406 3.78906 1.61133 4.12109 1.30859 L 15.0781 -8.80859 L 16.3086 -7.57812 L 6.15234 3.34961 C 5.84961 3.68164 5.46875 3.7793 5.06836 3.37891 Z"/>
  </g>
  <text style="stroke:none;fill:black;font-family:-apple-system,&quot;SF Pro Display&quot;,&quot;SF Pro Text&quot;,Helvetica,sans-serif;font-weight:bold;" transform="matrix(1 0 0 1 1289 1953)">Exporting</text>
  <text style="stroke:none;fill:black;font-family:-apple-system,&quot;SF Pro Display&quot;,&quot;SF Pro Text&quot;,Helvetica,sans-serif;" transform="matrix(1 0 0 1 1289 1971)">Symbols should be outlined when exporting to ensure the</text>
  <text style="stroke:none;fill:black;font-family:-apple-system,&quot;SF Pro Display&quot;,&quot;SF Pro Text&quot;,Helvetica,sans-serif;" transform="matrix(1 0 0 1 1289 1989)">design is preserved when submitting to Xcode.</text>
  <text id="template-version" style="stroke:none;fill:black;font-family:-apple-system,&quot;SF Pro Display&quot;,&quot;SF Pro Text&quot;,Helvetica,sans-serif;text-anchor:end;" transform="matrix(1 0 0 1 3036 1933)">Template v.1.0</text>
  <text style="stroke:none;fill:black;font-family:-apple-system,&quot;SF Pro Display&quot;,&quot;SF Pro Text&quot;,Helvetica,sans-serif;text-anchor:end;" transform="matrix(1 0 0 1 3036 1951)">Generated from trash.fill</text>
  <text style="stroke:none;fill:black;font-family:-apple-system,&quot;SF Pro Display&quot;,&quot;SF Pro Text&quot;,Helvetica,sans-serif;text-anchor:end;" transform="matrix(1 0 0 1 3036 1969)">Typeset at 100 points</text>
  <text style="stroke:none;fill:black;font-family:-apple-system,&quot;SF Pro Display&quot;,&quot;SF Pro Text&quot;,Helvetica,sans-serif;" transform="matrix(1 0 0 1 263 726)">Small</text>
  <text style="stroke:none;fill:black;font-family:-apple-system,&quot;SF Pro Display&quot;,&quot;SF Pro Text&quot;,Helvetica,sans-serif;" transform="matrix(1 0 0 1 263 1156)">Medium</text>
  <text style="stroke:none;fill:black;font-family:-apple-system,&quot;SF Pro Display&quot;,&quot;SF Pro Text&quot;,Helvetica,sans-serif;" transform="matrix(1 0 0 1 263 1586)">Large</text>
 </g>
 <g id="Guides">
  <g id="H-reference" style="fill:#27AAE1;stroke:none;" transform="matrix(1 0 0 1 339 696)">
   <path d="M 54.9316 0 L 57.666 0 L 30.5664 -70.459 L 28.0762 -70.459 L 0.976562 0 L 3.66211 0 L 12.9395 -24.4629 L 45.7031 -24.4629 Z M 29.1992 -67.0898 L 29.4434 -67.0898 L 44.8242 -26.709 L 13.8184 -26.709 Z"/>
  </g>
  <line id="Baseline-S" style="fill:none;stroke:#27AAE1;opacity:1;stroke-width:0.577;" x1="263" x2="3036" y1="696" y2="696"/>
  <line id="Capline-S" style="fill:none;stroke:#27AAE1;opacity:1;stroke-width:0.577;" x1="263" x2="3036" y1="625.541" y2="625.541"/>
  <g id="H-reference" style="fill:#27AAE1;stroke:none;" transform="matrix(1 0 0 1 339 1126)">
   <path d="M 54.9316 0 L 57.666 0 L 30.5664 -70.459 L 28.0762 -70.459 L 0.976562 0 L 3.66211 0 L 12.9395 -24.4629 L 45.7031 -24.4629 Z M 29.1992 -67.0898 L 29.4434 -67.0898 L 44.8242 -26.709 L 13.8184 -26.709 Z"/>
  </g>
  <line id="Baseline-M" style="fill:none;stroke:#27AAE1;opacity:1;stroke-width:0.577;" x1="263" x2="3036" y1="1126" y2="1126"/>
  <line id="Capline-M" style="fill:none;stroke:#27AAE1;opacity:1;stroke-width:0.577;" x1="263" x2="3036" y1="1055.54" y2="1055.54"/>
  <g id="H-reference" style="fill:#27AAE1;stroke:none;" transform="matrix(1 0 0 1 339 1556)">
   <path d="M 54.9316 0 L 57.666 0 L 30.5664 -70.459 L 28.0762 -70.459 L 0.976562 0 L 3.66211 0 L 12.9395 -24.4629 L 45.7031 -24.4629 Z M 29.1992 -67.0898 L 29.4434 -67.0898 L 44.8242 -26.709 L 13.8184 -26.709 Z"/>
  </g>
  <line id="Baseline-L" style="fill:none;stroke:#27AAE1;opacity:1;stroke-width:0.577;" x1="263" x2="3036" y1="1556" y2="1556"/>
  <line id="Capline-L" style="fill:none;stroke:#27AAE1;opacity:1;stroke-width:0.577;" x1="263" x2="3036" y1="1485.54" y2="1485.54"/>
  <rect height="119.336" id="left-margin" style="fill:#00AEEF;stroke:none;opacity:0.4;" width="7.4707" x="1395.11" y="1030.79"/>
  <rect height="119.336" id="right-margin" style="fill:#00AEEF;stroke:none;opacity:0.4;" width="7.4707" x="1497.11" y="1030.79"/>
 </g>
 <g id="Symbols">
  <g id="Black-L" transform="matrix(1 0 0 1 2857.69 1556)">
   <path d="M 48.9258 30.0293 L 102.539 30.0293 C 113.867 30.0293 120.215 24.6094 120.752 13.2324 L 124.756 -73.1445 L 133.105 -73.1445 C 138.086 -73.1445 141.748 -76.6113 141.748 -81.5918 C 141.748 -86.4746 138.086 -89.8926 133.105 -89.8926 L 107.715 -89.8926 L 107.715 -95.6543 C 107.715 -107.422 99.2188 -115.137 85.3027 -115.137 L 66.1133 -115.137 C 52.1973 -115.137 43.7012 -107.422 43.7012 -95.6543 L 43.7012 -89.8926 L 18.3105 -89.8926 C 13.3301 -89.8926 9.66797 -86.4746 9.66797 -81.5918 C 9.66797 -76.6113 13.3301 -73.1445 18.3105 -73.1445 L 26.709 -73.1445 L 30.6641 13.2324 C 31.25 24.6094 37.5488 30.0293 48.9258 30.0293 Z M 61.1816 -89.8926 L 61.2793 -95.2148 C 61.377 -98.2422 63.623 -100.293 66.8945 -100.293 L 84.5703 -100.293 C 87.8418 -100.293 90.0879 -98.2422 90.1367 -95.2148 L 90.2832 -89.8926 Z M 48.6328 5.27344 L 46.7773 -60.0098 C 46.6797 -63.2812 48.9258 -65.8691 51.8066 -65.8691 C 54.7363 -65.8691 57.1289 -63.2324 57.2266 -60.0098 L 59.0332 5.22461 C 59.082 8.54492 56.8359 11.1816 53.8574 11.1816 C 50.9277 11.1816 48.6816 8.69141 48.6328 5.27344 Z M 70.459 5.37109 L 70.459 -60.0586 C 70.459 -63.2324 72.9004 -65.8691 75.7324 -65.8691 C 78.5156 -65.8691 81.0059 -63.2324 81.0059 -60.0586 L 81.0059 5.37109 C 81.0059 8.54492 78.5156 11.1816 75.7324 11.1816 C 72.9004 11.1816 70.459 8.54492 70.459 5.37109 Z M 92.4316 5.22461 L 94.2383 -60.0098 C 94.2871 -63.2324 96.7285 -65.8691 99.6094 -65.8691 C 102.588 -65.8691 104.785 -63.2812 104.736 -60.0098 L 102.832 5.27344 C 102.734 8.69141 100.537 11.1816 97.6562 11.1816 C 94.5801 11.1816 92.334 8.54492 92.4316 5.22461 Z"/>
  </g>
  <g id="Heavy-L" transform="matrix(1 0 0 1 2562.27 1556)">
   <path d="M 46.9727 29.3945 L 101.855 29.3945 C 112.305 29.3945 118.262 24.1699 118.799 13.7207 L 122.852 -74.3164 L 131.592 -74.3164 C 135.938 -74.3164 139.16 -77.3926 139.16 -81.7383 C 139.16 -85.9863 135.938 -89.0625 131.592 -89.0625 L 105.273 -89.0625 L 105.273 -95.752 C 105.273 -106.738 97.3633 -113.965 84.5703 -113.965 L 64.2578 -113.965 C 51.4648 -113.965 43.5547 -106.738 43.5547 -95.752 L 43.5547 -89.0625 L 17.2363 -89.0625 C 12.9395 -89.0625 9.66797 -85.9863 9.66797 -81.7383 C 9.66797 -77.3926 12.9395 -74.3164 17.2363 -74.3164 L 26.0254 -74.3164 L 30.0781 13.7207 C 30.5664 24.1699 36.5234 29.3945 46.9727 29.3945 Z M 58.9355 -89.0625 L 59.0332 -95.2637 C 59.082 -98.5352 61.4746 -100.732 64.9902 -100.732 L 83.8379 -100.732 C 87.3535 -100.732 89.7949 -98.5352 89.7949 -95.2637 L 89.8926 -89.0625 Z M 47.7051 5.51758 L 45.5566 -60.9863 C 45.459 -64.0625 47.5586 -66.4062 50.2441 -66.4062 C 52.9785 -66.4062 55.1758 -64.0137 55.2734 -60.9863 L 57.373 5.41992 C 57.4219 8.49609 55.3711 10.9375 52.5391 10.9375 C 49.8535 10.9375 47.8027 8.64258 47.7051 5.51758 Z M 69.5312 5.51758 L 69.4824 -61.0352 C 69.4824 -64.0137 71.7773 -66.4062 74.4141 -66.4062 C 77.0508 -66.4062 79.3457 -64.0137 79.3457 -61.0352 L 79.3457 5.51758 C 79.3457 8.49609 77.0508 10.9375 74.4141 10.9375 C 71.7773 10.9375 69.5312 8.49609 69.5312 5.51758 Z M 91.5039 5.41992 L 93.6035 -60.9863 C 93.6523 -64.0137 95.8984 -66.4062 98.584 -66.4062 C 101.318 -66.4062 103.418 -64.0625 103.369 -60.9863 L 101.123 5.51758 C 101.074 8.64258 99.0234 10.9375 96.3379 10.9375 C 93.5059 10.9375 91.4062 8.49609 91.5039 5.41992 Z"/>
  </g>
  <g id="Bold-L" transform="matrix(1 0 0 1 2267.03 1556)">
   <path d="M 44.8242 28.7109 L 101.123 28.7109 C 110.547 28.7109 116.162 23.7305 116.602 14.3066 L 120.703 -75.6348 L 129.883 -75.6348 C 133.496 -75.6348 136.23 -78.2715 136.23 -81.8848 C 136.23 -85.4492 133.496 -88.0859 129.883 -88.0859 L 102.49 -88.0859 L 102.49 -95.8008 C 102.49 -106.006 95.3125 -112.695 83.6914 -112.695 L 62.207 -112.695 C 50.5859 -112.695 43.4082 -106.006 43.4082 -95.8008 L 43.4082 -88.0859 L 16.0156 -88.0859 C 12.4512 -88.0859 9.66797 -85.4004 9.66797 -81.8848 C 9.66797 -78.2715 12.4512 -75.6348 16.0156 -75.6348 L 25.2441 -75.6348 L 29.3945 14.3066 C 29.834 23.7305 35.4004 28.7109 44.8242 28.7109 Z M 56.4453 -88.0859 L 56.4941 -95.3613 C 56.543 -98.8281 59.082 -101.27 62.8906 -101.27 L 83.0566 -101.27 C 86.8164 -101.27 89.4043 -98.8281 89.4531 -95.3613 L 89.502 -88.0859 Z M 46.7285 5.76172 L 44.1406 -62.1094 C 44.0918 -64.8926 46.0449 -67.041 48.5352 -67.041 C 50.9766 -67.041 53.0273 -64.8438 53.0762 -62.1094 L 55.4688 5.66406 C 55.5664 8.49609 53.6621 10.6934 51.123 10.6934 C 48.6328 10.6934 46.7773 8.64258 46.7285 5.76172 Z M 68.457 5.76172 L 68.457 -62.1582 C 68.457 -64.8438 70.5566 -67.041 72.9492 -67.041 C 75.3906 -67.041 77.5391 -64.8438 77.5391 -62.1582 L 77.4902 5.76172 C 77.4902 8.49609 75.3418 10.6934 72.9492 10.6934 C 70.5566 10.6934 68.457 8.49609 68.457 5.76172 Z M 90.4785 5.66406 L 92.8711 -62.1094 C 92.9199 -64.8438 94.9707 -67.041 97.4121 -67.041 C 99.9512 -67.041 101.904 -64.8926 101.807 -62.1094 L 99.2188 5.76172 C 99.1699 8.64258 97.3145 10.6934 94.8242 10.6934 C 92.2852 10.6934 90.3809 8.49609 90.4785 5.66406 Z"/>
  </g>
  <g id="Semibold-L" transform="matrix(1 0 0 1 1971.32 1556)">
   <path d="M 43.3105 28.1738 L 100.635 28.1738 C 109.375 28.1738 114.648 23.4375 115.039 14.6973 L 119.238 -76.5625 L 128.76 -76.5625 C 131.836 -76.5625 134.229 -78.9062 134.229 -81.9824 C 134.229 -85.0586 131.836 -87.4023 128.76 -87.4023 L 100.635 -87.4023 L 100.635 -95.8496 C 100.635 -105.469 93.8477 -111.816 83.1055 -111.816 L 60.791 -111.816 C 50 -111.816 43.3105 -105.469 43.3105 -95.8496 L 43.3105 -87.4023 L 15.1855 -87.4023 C 12.1094 -87.4023 9.66797 -85.0098 9.66797 -81.9824 C 9.66797 -78.9062 12.1094 -76.5625 15.1855 -76.5625 L 24.707 -76.5625 L 28.9062 14.6973 C 29.2969 23.4375 34.5703 28.1738 43.3105 28.1738 Z M 54.6875 -87.4023 L 54.7363 -95.4102 C 54.7852 -99.0234 57.4707 -101.66 61.4258 -101.66 L 82.4707 -101.66 C 86.4746 -101.66 89.1602 -99.0234 89.209 -95.4102 L 89.2578 -87.4023 Z M 46.0449 5.9082 L 43.2129 -62.8418 C 43.1152 -65.4785 44.9707 -67.4805 47.3145 -67.4805 C 49.6094 -67.4805 51.5137 -65.4297 51.6113 -62.8906 L 54.1992 5.81055 C 54.2969 8.44727 52.5391 10.5469 50.0977 10.5469 C 47.8027 10.5469 46.0938 8.59375 46.0449 5.9082 Z M 67.7246 5.9082 L 67.7246 -62.8906 C 67.7246 -65.4297 69.7266 -67.4805 71.9727 -67.4805 C 74.2676 -67.4805 76.2695 -65.4297 76.2695 -62.8906 L 76.2207 5.9082 C 76.2207 8.44727 74.2188 10.5469 71.9727 10.5469 C 69.7266 10.5469 67.7246 8.44727 67.7246 5.9082 Z M 89.7461 5.81055 L 92.3828 -62.8906 C 92.4316 -65.4297 94.3359 -67.4805 96.6309 -67.4805 C 99.0234 -67.4805 100.879 -65.4785 100.781 -62.8418 L 97.9492 5.9082 C 97.8516 8.59375 96.1426 10.5469 93.8477 10.5469 C 91.4062 10.5469 89.6973 8.44727 89.7461 5.81055 Z"/>
  </g>
  <g id="Medium-L" transform="matrix(1 0 0 1 1675.39 1556)">
   <path d="M 42.1875 27.832 L 100.244 27.832 C 108.447 27.832 113.525 23.1934 113.916 14.9902 L 118.164 -77.2461 L 127.832 -77.2461 C 130.566 -77.2461 132.666 -79.3457 132.666 -82.0801 C 132.666 -84.7656 130.566 -86.9141 127.832 -86.9141 L 99.1699 -86.9141 L 99.1699 -95.8984 C 99.1699 -105.078 92.7734 -111.133 82.666 -111.133 L 59.7168 -111.133 C 49.5605 -111.133 43.2129 -105.078 43.2129 -95.8984 L 43.2129 -86.9141 L 14.5508 -86.9141 C 11.8652 -86.9141 9.66797 -84.7656 9.66797 -82.0801 C 9.66797 -79.3457 11.8652 -77.2461 14.5508 -77.2461 L 24.3164 -77.2461 L 28.5645 14.9902 C 28.9062 23.1934 33.9844 27.832 42.1875 27.832 Z M 53.418 -86.9141 L 53.418 -95.4102 C 53.418 -99.2188 56.2012 -101.904 60.3516 -101.904 L 82.0801 -101.904 C 86.1816 -101.904 89.0137 -99.2188 89.0137 -95.4102 L 89.0137 -86.9141 Z M 45.5078 6.05469 L 42.4805 -63.4277 C 42.3828 -65.9668 44.1895 -67.8223 46.3867 -67.8223 C 48.584 -67.8223 50.3906 -65.8691 50.4395 -63.4766 L 53.2227 5.95703 C 53.3203 8.44727 51.6602 10.4004 49.3164 10.4004 C 47.168 10.4004 45.6055 8.59375 45.5078 6.05469 Z M 67.1875 6.00586 L 67.1387 -63.4766 C 67.1387 -65.8691 69.0918 -67.8223 71.1914 -67.8223 C 73.3887 -67.8223 75.293 -65.8691 75.293 -63.4766 L 75.2441 6.00586 C 75.2441 8.44727 73.3398 10.4004 71.1914 10.4004 C 69.0918 10.4004 67.1875 8.44727 67.1875 6.00586 Z M 89.209 5.95703 L 91.9922 -63.4766 C 92.0898 -65.8691 93.8477 -67.8223 96.0449 -67.8223 C 98.291 -67.8223 100.049 -65.918 100 -63.4277 L 96.9727 6.05469 C 96.875 8.59375 95.2637 10.4004 93.0664 10.4004 C 90.7715 10.4004 89.1602 8.44727 89.209 5.95703 Z"/>
  </g>
  <g id="Regular-L" transform="matrix(1 0 0 1 1379.65 1556)">
   <path d="M 40.6738 27.3438 L 99.7559 27.3438 C 107.227 27.3438 112.109 22.8516 112.402 15.3809 L 116.699 -78.125 L 126.709 -78.125 C 128.906 -78.125 130.713 -79.9805 130.713 -82.1777 C 130.713 -84.375 128.906 -86.2305 126.709 -86.2305 L 97.3145 -86.2305 L 97.3145 -95.9473 C 97.3145 -104.541 91.3574 -110.254 82.0801 -110.254 L 58.3008 -110.254 C 48.9746 -110.254 43.1152 -104.541 43.1152 -95.9473 L 43.1152 -86.2305 L 13.7207 -86.2305 C 11.5234 -86.2305 9.66797 -84.375 9.66797 -82.1777 C 9.66797 -79.9805 11.5234 -78.125 13.7207 -78.125 L 23.7793 -78.125 L 28.0762 15.3809 C 28.418 22.8516 33.2031 27.3438 40.6738 27.3438 Z M 51.709 -86.2305 L 51.709 -95.459 C 51.709 -99.4141 54.5898 -102.246 58.8867 -102.246 L 81.543 -102.246 C 85.8398 -102.246 88.7695 -99.4141 88.7695 -95.459 L 88.7695 -86.2305 Z M 44.8242 6.20117 L 41.5527 -64.209 C 41.4551 -66.5527 43.1641 -68.2617 45.2148 -68.2617 C 47.2168 -68.2617 48.877 -66.4551 48.9746 -64.2578 L 51.9531 6.10352 C 52.0508 8.39844 50.4883 10.2539 48.3398 10.2539 C 46.3379 10.2539 44.9219 8.59375 44.8242 6.20117 Z M 66.5039 6.15234 L 66.4062 -64.209 C 66.4062 -66.4551 68.2617 -68.2617 70.2148 -68.2617 C 72.2656 -68.2617 74.0723 -66.4551 74.0723 -64.209 L 73.9746 6.15234 C 73.9746 8.39844 72.168 10.2539 70.2148 10.2539 C 68.2617 10.2539 66.5039 8.39844 66.5039 6.15234 Z M 88.5254 6.10352 L 91.5039 -64.2578 C 91.6016 -66.4551 93.2129 -68.2617 95.2637 -68.2617 C 97.3633 -68.2617 99.0234 -66.5039 98.9258 -64.209 L 95.6543 6.20117 C 95.5566 8.59375 94.0918 10.2539 92.041 10.2539 C 89.9414 10.2539 88.4277 8.39844 88.5254 6.10352 Z"/>
  </g>
  <g id="Light-L" transform="matrix(1 0 0 1 1083.6 1556)">
   <path d="M 40.625 27.7344 L 98.5352 27.7344 C 105.566 27.7344 110.645 23.0469 110.938 16.0645 L 115.576 -79.4434 L 126.318 -79.4434 C 128.076 -79.4434 129.395 -80.8105 129.395 -82.5195 C 129.395 -84.2285 128.076 -85.6445 126.318 -85.6445 L 96.0449 -85.6445 L 96.0449 -95.752 C 96.0449 -103.711 90.332 -109.277 81.543 -109.277 L 57.5195 -109.277 C 48.7305 -109.277 43.0664 -103.711 43.0664 -95.752 L 43.0664 -85.6445 L 12.793 -85.6445 C 11.084 -85.6445 9.66797 -84.1797 9.66797 -82.5195 C 9.66797 -80.8105 11.084 -79.4434 12.793 -79.4434 L 23.6328 -79.4434 L 28.2715 16.0645 C 28.5645 23.0469 33.5938 27.7344 40.625 27.7344 Z M 49.6582 -85.6445 L 49.6582 -95.459 C 49.6582 -99.9023 52.9297 -103.125 57.9102 -103.125 L 81.2012 -103.125 C 86.1328 -103.125 89.502 -99.9023 89.502 -95.459 L 89.502 -85.6445 Z M 45.459 7.71484 L 41.5527 -64.9902 C 41.5039 -66.8945 42.8711 -68.2617 44.5312 -68.2617 C 46.2402 -68.2617 47.6562 -66.8457 47.7051 -65.0879 L 51.2207 7.56836 C 51.3184 9.47266 50.0488 10.8887 48.291 10.8887 C 46.6797 10.8887 45.5078 9.57031 45.459 7.71484 Z M 66.5527 7.66602 L 66.4551 -65.0391 C 66.4551 -66.8457 68.0176 -68.2617 69.5801 -68.2617 C 71.2402 -68.2617 72.7539 -66.8457 72.7539 -65.0391 L 72.6562 7.66602 C 72.6562 9.47266 71.1426 10.8887 69.5801 10.8887 C 68.0176 10.8887 66.5527 9.47266 66.5527 7.66602 Z M 87.9395 7.56836 L 91.5039 -65.0879 C 91.5527 -66.8457 92.9199 -68.2617 94.6289 -68.2617 C 96.3379 -68.2617 97.7051 -66.8457 97.6562 -64.9902 L 93.75 7.71484 C 93.6523 9.57031 92.4805 10.8887 90.7715 10.8887 C 89.1113 10.8887 87.8906 9.47266 87.9395 7.56836 Z"/>
  </g>
  <g id="Thin-L" transform="matrix(1 0 0 1 787.745 1556)">
   <path d="M 40.5762 28.2715 L 96.875 28.2715 C 103.369 28.2715 108.691 23.291 109.033 16.9434 L 114.111 -81.1523 L 125.83 -81.1523 C 126.904 -81.1523 127.686 -81.9336 127.686 -83.0078 C 127.686 -84.0332 126.904 -84.8633 125.83 -84.8633 L 94.3848 -84.8633 L 94.3848 -95.5078 C 94.3848 -102.637 88.916 -108.008 80.8594 -108.008 L 56.4941 -108.008 C 48.4375 -108.008 43.0664 -102.637 43.0664 -95.5078 L 43.0664 -84.8633 L 11.5723 -84.8633 C 10.5469 -84.8633 9.66797 -83.9844 9.66797 -83.0078 C 9.66797 -81.9336 10.5469 -81.1523 11.5723 -81.1523 L 23.3887 -81.1523 L 28.5156 16.9434 C 28.8086 23.291 34.082 28.2715 40.5762 28.2715 Z M 46.9727 -84.8633 L 46.9727 -95.4102 C 46.9727 -100.488 50.7812 -104.297 56.5918 -104.297 L 80.8105 -104.297 C 86.5723 -104.297 90.4785 -100.488 90.4785 -95.4102 L 90.4785 -84.8633 Z M 46.2891 9.7168 L 41.6016 -66.0156 C 41.5039 -67.3828 42.4805 -68.2617 43.6035 -68.2617 C 44.9707 -68.2617 45.9961 -67.3828 46.0449 -66.1621 L 50.293 9.47266 C 50.3906 10.8398 49.4629 11.7676 48.1934 11.7676 C 47.1191 11.7676 46.3379 10.9375 46.2891 9.7168 Z M 66.6504 9.61914 L 66.5039 -66.1133 C 66.5039 -67.3828 67.7246 -68.2617 68.75 -68.2617 C 69.9219 -68.2617 70.9961 -67.3828 70.9961 -66.1133 L 70.8496 9.61914 C 70.8496 10.8398 69.7754 11.7676 68.75 11.7676 C 67.7246 11.7676 66.6504 10.8398 66.6504 9.61914 Z M 87.207 9.47266 L 91.4551 -66.1621 C 91.5527 -67.3828 92.4805 -68.2617 93.8477 -68.2617 C 95.0195 -68.2617 95.9961 -67.334 95.9473 -66.0156 L 91.2598 9.7168 C 91.1621 10.9375 90.332 11.7676 89.1113 11.7676 C 87.9883 11.7676 87.1582 10.8398 87.207 9.47266 Z"/>
  </g>
  <g id="Ultralight-L" transform="matrix(1 0 0 1 491.474 1556)">
   <path d="M 40.5273 28.5645 L 96.0449 28.5645 C 102.246 28.5645 107.715 23.4375 108.008 17.3828 L 113.379 -82.0312 L 125.586 -82.0312 C 126.318 -82.0312 126.807 -82.5195 126.807 -83.252 C 126.807 -83.9355 126.318 -84.4727 125.586 -84.4727 L 93.5547 -84.4727 L 93.5547 -95.3613 C 93.5547 -102.051 88.2324 -107.324 80.5176 -107.324 L 55.957 -107.324 C 48.291 -107.324 43.0176 -102.051 43.0176 -95.3613 L 43.0176 -84.4727 L 10.9863 -84.4727 C 10.2539 -84.4727 9.66797 -83.8867 9.66797 -83.252 C 9.66797 -82.5195 10.2539 -82.0312 10.9863 -82.0312 L 23.291 -82.0312 L 28.6133 17.3828 C 28.9551 23.4375 34.3262 28.5645 40.5273 28.5645 Z M 45.6055 -84.4727 L 45.6055 -95.4102 C 45.6055 -100.781 49.6582 -104.883 55.9082 -104.883 L 80.5664 -104.883 C 86.8164 -104.883 90.9668 -100.781 90.9668 -95.4102 L 90.9668 -84.4727 Z M 46.7285 10.7422 L 41.6016 -66.5527 C 41.5039 -67.627 42.2852 -68.2617 43.1641 -68.2617 C 44.3359 -68.2617 45.1172 -67.627 45.2148 -66.748 L 49.8047 10.498 C 49.9023 11.5723 49.1699 12.2559 48.1934 12.2559 C 47.3145 12.2559 46.7773 11.6211 46.7285 10.7422 Z M 66.6992 10.6445 L 66.5527 -66.6504 C 66.5527 -67.627 67.5781 -68.2617 68.3105 -68.2617 C 69.2383 -68.2617 70.1172 -67.627 70.1172 -66.6504 L 69.9219 10.6445 C 69.9219 11.5723 69.0918 12.2559 68.3105 12.2559 C 67.5781 12.2559 66.6992 11.5723 66.6992 10.6445 Z M 86.8652 10.498 L 91.4551 -66.748 C 91.5527 -67.627 92.2363 -68.2617 93.4082 -68.2617 C 94.3359 -68.2617 95.1172 -67.5293 95.0684 -66.5527 L 89.9414 10.7422 C 89.8438 11.6211 89.2578 12.2559 88.2324 12.2559 C 87.4023 12.2559 86.7676 11.5723 86.8652 10.498 Z"/>
  </g>
  <g id="Black-M" transform="matrix(1 0 0 1 2873.34 1126)">
   <path d="M 40.4785 16.4551 L 79.6387 16.4551 C 89.4531 16.4551 94.9219 11.7676 95.459 2.00195 L 98.6328 -63.7207 L 104.98 -63.7207 C 109.424 -63.7207 112.646 -66.6992 112.646 -71.1426 C 112.646 -75.4883 109.424 -78.4668 104.98 -78.4668 L 86.084 -78.4668 L 86.084 -81.8848 C 86.084 -91.6504 78.8086 -98.1445 66.8457 -98.1445 L 53.2715 -98.1445 C 41.3086 -98.1445 34.0332 -91.6504 34.0332 -81.8848 L 34.0332 -78.4668 L 15.1367 -78.4668 C 10.6934 -78.4668 7.4707 -75.4883 7.4707 -71.1426 C 7.4707 -66.6992 10.6934 -63.7207 15.1367 -63.7207 L 21.4844 -63.7207 L 24.707 2.00195 C 25.1953 11.7676 30.6641 16.4551 40.4785 16.4551 Z M 49.3164 -78.4668 L 49.4629 -81.6406 C 49.5117 -83.9355 51.2695 -85.498 53.8086 -85.498 L 66.3086 -85.498 C 68.8477 -85.498 70.6055 -83.9355 70.6543 -81.6406 L 70.8008 -78.4668 Z M 39.209 -3.32031 L 37.8906 -53.5156 C 37.8418 -56.1523 39.5996 -58.2031 41.8945 -58.2031 C 44.2871 -58.2031 46.1914 -56.1523 46.2891 -53.5156 L 47.5586 -3.36914 C 47.6562 -0.683594 45.8008 1.36719 43.457 1.36719 C 41.0645 1.36719 39.2578 -0.634766 39.209 -3.32031 Z M 55.8594 -3.22266 L 55.8594 -53.5645 C 55.8594 -56.1523 57.8125 -58.2031 60.0586 -58.2031 C 62.3047 -58.2031 64.2578 -56.1523 64.2578 -53.5645 L 64.2578 -3.22266 C 64.2578 -0.683594 62.3047 1.36719 60.0586 1.36719 C 57.8125 1.36719 55.8594 -0.683594 55.8594 -3.22266 Z M 72.5586 -3.36914 L 73.877 -53.5156 C 73.9258 -56.1523 75.8301 -58.2031 78.2227 -58.2031 C 80.6152 -58.2031 82.373 -56.1523 82.2754 -53.5156 L 80.9082 -3.32031 C 80.8594 -0.634766 79.0527 1.36719 76.7578 1.36719 C 74.3164 1.36719 72.5098 -0.683594 72.5586 -3.36914 Z"/>
  </g>
  <g id="Heavy-M" transform="matrix(1 0 0 1 2577.88 1126)">
   <path d="M 38.3789 15.625 L 79.248 15.625 C 88.1836 15.625 93.2129 11.2793 93.6523 2.34375 L 96.8262 -64.6973 L 103.418 -64.6973 C 107.324 -64.6973 110.156 -67.334 110.156 -71.2402 C 110.156 -75 107.324 -77.6855 103.418 -77.6855 L 83.7402 -77.6855 L 83.7402 -81.9824 C 83.7402 -91.1133 77.0508 -97.168 66.1621 -97.168 L 51.4648 -97.168 C 40.5762 -97.168 33.8867 -91.1133 33.8867 -81.9824 L 33.8867 -77.6855 L 14.209 -77.6855 C 10.3027 -77.6855 7.4707 -75 7.4707 -71.2402 C 7.4707 -67.334 10.3027 -64.6973 14.209 -64.6973 L 20.8008 -64.6973 L 23.9746 2.34375 C 24.4141 11.2793 29.4434 15.625 38.3789 15.625 Z M 47.4121 -77.6855 L 47.5098 -81.6895 C 47.5586 -84.1309 49.3652 -85.7422 52.002 -85.7422 L 65.625 -85.7422 C 68.2617 -85.7422 70.0684 -84.1309 70.1172 -81.6895 L 70.2148 -77.6855 Z M 38.0371 -3.4668 L 36.5234 -54.3945 C 36.4746 -56.8848 38.1836 -58.8379 40.3809 -58.8379 C 42.5781 -58.8379 44.4336 -56.8359 44.4824 -54.3945 L 45.9473 -3.51562 C 45.9961 -0.976562 44.2871 0.976562 42.041 0.976562 C 39.7949 0.976562 38.1348 -0.927734 38.0371 -3.4668 Z M 54.834 -3.41797 L 54.834 -54.4434 C 54.834 -56.8359 56.6895 -58.8379 58.7891 -58.8379 C 60.9375 -58.8379 62.793 -56.8359 62.793 -54.4434 L 62.793 -3.41797 C 62.793 -0.976562 60.9375 0.976562 58.7891 0.976562 C 56.6895 0.976562 54.834 -0.976562 54.834 -3.41797 Z M 71.6797 -3.51562 L 73.1445 -54.3945 C 73.2422 -56.8359 75.0488 -58.8379 77.2461 -58.8379 C 79.4922 -58.8379 81.2012 -56.8848 81.1523 -54.3945 L 79.5898 -3.4668 C 79.4922 -0.927734 77.832 0.976562 75.6348 0.976562 C 73.3398 0.976562 71.6309 -0.976562 71.6797 -3.51562 Z"/>
  </g>
  <g id="Bold-M" transform="matrix(1 0 0 1 2282.58 1126)">
   <path d="M 35.9863 14.7461 L 78.8086 14.7461 C 86.7676 14.7461 91.3086 10.7422 91.6992 2.7832 L 94.8242 -65.7227 L 101.66 -65.7227 C 104.932 -65.7227 107.324 -68.0664 107.324 -71.2891 C 107.324 -74.4629 104.932 -76.7578 101.66 -76.7578 L 81.1035 -76.7578 L 81.1035 -82.1289 C 81.1035 -90.5273 75.0977 -96.0449 65.3809 -96.0449 L 49.4141 -96.0449 C 39.6973 -96.0449 33.6914 -90.5273 33.6914 -82.1289 L 33.6914 -76.7578 L 13.1348 -76.7578 C 9.91211 -76.7578 7.4707 -74.4629 7.4707 -71.2891 C 7.4707 -68.0664 9.91211 -65.7227 13.1348 -65.7227 L 20.0195 -65.7227 L 23.1445 2.7832 C 23.5352 10.7422 28.0762 14.7461 35.9863 14.7461 Z M 45.2637 -76.7578 L 45.3125 -81.7871 C 45.3613 -84.3262 47.2656 -86.084 50 -86.084 L 64.8438 -86.084 C 67.5781 -86.084 69.4824 -84.3262 69.5312 -81.7871 L 69.5801 -76.7578 Z M 36.7676 -3.66211 L 35.0098 -55.3711 C 34.9609 -57.7148 36.5723 -59.5215 38.623 -59.5215 C 40.6738 -59.5215 42.3828 -57.666 42.4805 -55.3711 L 44.1406 -3.71094 C 44.1895 -1.36719 42.5781 0.488281 40.4785 0.488281 C 38.3789 0.488281 36.8164 -1.2207 36.7676 -3.66211 Z M 53.6621 -3.61328 L 53.6621 -55.4199 C 53.6621 -57.666 55.4199 -59.5215 57.4219 -59.5215 C 59.4238 -59.5215 61.1816 -57.666 61.1816 -55.4199 L 61.1816 -3.61328 C 61.1816 -1.36719 59.4238 0.488281 57.4219 0.488281 C 55.4199 0.488281 53.6621 -1.36719 53.6621 -3.61328 Z M 70.7031 -3.71094 L 72.3633 -55.3711 C 72.4609 -57.666 74.1211 -59.5215 76.1719 -59.5215 C 78.2715 -59.5215 79.8828 -57.7148 79.834 -55.3711 L 78.0762 -3.66211 C 77.9785 -1.2207 76.4648 0.488281 74.4141 0.488281 C 72.2168 0.488281 70.6543 -1.36719 70.7031 -3.71094 Z"/>
  </g>
  <g id="Semibold-M" transform="matrix(1 0 0 1 1986.85 1126)">
   <path d="M 34.375 14.1113 L 78.5156 14.1113 C 85.7422 14.1113 89.9902 10.3516 90.332 3.07617 L 93.457 -66.4551 L 100.488 -66.4551 C 103.271 -66.4551 105.371 -68.5547 105.371 -71.3379 C 105.371 -74.0723 103.271 -76.1719 100.488 -76.1719 L 79.2969 -76.1719 L 79.2969 -82.2266 C 79.2969 -90.1367 73.7305 -95.2637 64.8438 -95.2637 L 48.0469 -95.2637 C 39.1113 -95.2637 33.5938 -90.1367 33.5938 -82.2266 L 33.5938 -76.1719 L 12.4023 -76.1719 C 9.61914 -76.1719 7.4707 -74.0723 7.4707 -71.3379 C 7.4707 -68.5547 9.61914 -66.4551 12.4023 -66.4551 L 19.4336 -66.4551 L 22.6074 3.07617 C 22.9492 10.3516 27.1484 14.1113 34.375 14.1113 Z M 43.7988 -76.1719 L 43.7988 -81.8359 C 43.8477 -84.4727 45.8008 -86.3281 48.6328 -86.3281 L 64.2578 -86.3281 C 67.1387 -86.3281 69.043 -84.4727 69.0918 -81.8359 L 69.1406 -76.1719 Z M 35.8887 -3.75977 L 33.9844 -56.0547 C 33.9355 -58.3008 35.498 -59.9609 37.4512 -59.9609 C 39.4043 -59.9609 41.0156 -58.2031 41.0645 -56.0547 L 42.8711 -3.80859 C 42.9199 -1.61133 41.4062 0.195312 39.3555 0.195312 C 37.4023 0.195312 35.9375 -1.46484 35.8887 -3.75977 Z M 52.8809 -3.75977 L 52.832 -56.0547 C 52.832 -58.2031 54.541 -59.9609 56.4453 -59.9609 C 58.3496 -59.9609 60.0586 -58.2031 60.0586 -56.0547 L 60.0586 -3.75977 C 60.0586 -1.61133 58.3496 0.195312 56.4453 0.195312 C 54.541 0.195312 52.8809 -1.61133 52.8809 -3.75977 Z M 70.0684 -3.80859 L 71.8262 -56.0547 C 71.9238 -58.2031 73.5352 -59.9609 75.4395 -59.9609 C 77.4414 -59.9609 79.0039 -58.252 78.9551 -56.0547 L 77.002 -3.75977 C 76.9531 -1.46484 75.4883 0.195312 73.5352 0.195312 C 71.4844 0.195312 69.9707 -1.61133 70.0684 -3.80859 Z"/>
  </g>
  <g id="Medium-M" transform="matrix(1 0 0 1 1690.87 1126)">
   <path d="M 33.1543 13.623 L 78.2715 13.623 C 85.0098 13.623 88.9648 10.0586 89.2578 3.32031 L 92.4316 -67.041 L 99.5605 -67.041 C 102.002 -67.041 103.906 -68.9453 103.906 -71.3867 C 103.906 -73.7793 102.002 -75.6836 99.5605 -75.6836 L 77.8809 -75.6836 L 77.8809 -82.3242 C 77.8809 -89.8438 72.7051 -94.6777 64.4043 -94.6777 L 46.9727 -94.6777 C 38.6719 -94.6777 33.4961 -89.8438 33.4961 -82.3242 L 33.4961 -75.6836 L 11.8164 -75.6836 C 9.42383 -75.6836 7.4707 -73.7793 7.4707 -71.3867 C 7.4707 -68.9453 9.42383 -67.041 11.8164 -67.041 L 19.043 -67.041 L 22.168 3.32031 C 22.4609 10.0586 26.416 13.623 33.1543 13.623 Z M 42.6758 -75.6836 L 42.6758 -81.8848 C 42.6758 -84.5703 44.6777 -86.4746 47.5586 -86.4746 L 63.8672 -86.4746 C 66.748 -86.4746 68.75 -84.5703 68.75 -81.8848 L 68.7988 -75.6836 Z M 35.2051 -3.85742 L 33.2031 -56.543 C 33.1543 -58.6914 34.668 -60.3516 36.5723 -60.3516 C 38.4277 -60.3516 39.9414 -58.6426 40.0391 -56.5918 L 41.8945 -3.90625 C 41.9434 -1.75781 40.5273 -0.0488281 38.5254 -0.0488281 C 36.6699 -0.0488281 35.3027 -1.66016 35.2051 -3.85742 Z M 52.2461 -3.85742 L 52.2461 -56.5918 C 52.2461 -58.6426 53.8574 -60.3516 55.7129 -60.3516 C 57.5684 -60.3516 59.2285 -58.6426 59.2285 -56.5918 L 59.1797 -3.85742 C 59.1797 -1.75781 57.5684 -0.0488281 55.7129 -0.0488281 C 53.8574 -0.0488281 52.2461 -1.75781 52.2461 -3.85742 Z M 69.5312 -3.90625 L 71.4355 -56.5918 C 71.4844 -58.6426 73.0469 -60.3516 74.9023 -60.3516 C 76.8066 -60.3516 78.3203 -58.6914 78.2715 -56.543 L 76.2207 -3.85742 C 76.1719 -1.66016 74.7559 -0.0488281 72.9004 -0.0488281 C 70.8984 -0.0488281 69.4824 -1.75781 69.5312 -3.90625 Z"/>
  </g>
  <g id="Regular-M" transform="matrix(1 0 0 1 1395.11 1126)">
   <path d="M 31.543 13.0371 L 77.9785 13.0371 C 84.0332 13.0371 87.6953 9.66797 87.9395 3.61328 L 91.0645 -67.7246 L 98.3887 -67.7246 C 100.391 -67.7246 102.002 -69.4336 102.002 -71.4355 C 102.002 -73.4375 100.391 -75.0977 98.3887 -75.0977 L 76.123 -75.0977 L 76.123 -82.4219 C 76.123 -89.4531 71.3867 -93.9453 63.8672 -93.9453 L 45.6055 -93.9453 C 38.0859 -93.9453 33.3984 -89.4531 33.3984 -82.4219 L 33.3984 -75.0977 L 11.084 -75.0977 C 9.13086 -75.0977 7.4707 -73.3887 7.4707 -71.4355 C 7.4707 -69.4336 9.13086 -67.7246 11.084 -67.7246 L 18.5059 -67.7246 L 21.6309 3.61328 C 21.875 9.66797 25.4883 13.0371 31.543 13.0371 Z M 41.2109 -75.0977 L 41.2109 -81.9336 C 41.2109 -84.7168 43.2129 -86.6699 46.1914 -86.6699 L 63.3301 -86.6699 C 66.3086 -86.6699 68.3594 -84.7168 68.3594 -81.9336 L 68.3594 -75.0977 Z M 34.375 -4.00391 L 32.1777 -57.2266 C 32.0801 -59.2773 33.5449 -60.791 35.4004 -60.791 C 37.1094 -60.791 38.5742 -59.1797 38.6719 -57.2266 L 40.6738 -4.00391 C 40.7227 -2.00195 39.3555 -0.390625 37.4512 -0.390625 C 35.6934 -0.390625 34.4238 -1.85547 34.375 -4.00391 Z M 51.4648 -4.00391 L 51.416 -57.2266 C 51.416 -59.1797 52.9785 -60.791 54.7363 -60.791 C 56.543 -60.791 58.1055 -59.1797 58.1055 -57.2266 L 58.1055 -4.00391 C 58.1055 -2.00195 56.4941 -0.390625 54.7363 -0.390625 C 52.9785 -0.390625 51.4648 -2.00195 51.4648 -4.00391 Z M 68.8965 -4.00391 L 70.8984 -57.2266 C 70.9473 -59.1797 72.4121 -60.791 74.1699 -60.791 C 75.9766 -60.791 77.4414 -59.2773 77.3926 -57.2266 L 75.1953 -4.00391 C 75.1465 -1.85547 73.8281 -0.390625 72.0215 -0.390625 C 70.166 -0.390625 68.8477 -2.00195 68.8965 -4.00391 Z"/>
  </g>
  <g id="Light-M" transform="matrix(1 0 0 1 1098.98 1126)">
   <path d="M 31.4941 13.3789 L 76.8555 13.3789 C 82.5195 13.3789 86.377 9.86328 86.6211 4.19922 L 90.0391 -68.8965 L 98.0469 -68.8965 C 99.6094 -68.8965 100.83 -70.166 100.83 -71.7285 C 100.83 -73.291 99.6094 -74.5605 98.0469 -74.5605 L 75 -74.5605 L 75 -82.2266 C 75 -88.6719 70.459 -93.0664 63.4277 -93.0664 L 44.9219 -93.0664 C 37.8906 -93.0664 33.3496 -88.6719 33.3496 -82.2266 L 33.3496 -74.5605 L 10.3027 -74.5605 C 8.78906 -74.5605 7.4707 -73.2422 7.4707 -71.7285 C 7.4707 -70.166 8.78906 -68.8965 10.3027 -68.8965 L 18.3594 -68.8965 L 21.7773 4.19922 C 22.0215 9.86328 25.8301 13.3789 31.4941 13.3789 Z M 39.3555 -74.5605 L 39.3555 -81.9336 C 39.3555 -85.1074 41.748 -87.4512 45.3125 -87.4512 L 63.0371 -87.4512 C 66.6016 -87.4512 68.9941 -85.1074 68.9941 -81.9336 L 68.9941 -74.5605 Z M 34.9121 -2.63672 L 32.1777 -57.9102 C 32.1289 -59.6191 33.3008 -60.791 34.7656 -60.791 C 36.2793 -60.791 37.4512 -59.5215 37.5 -58.0078 L 39.9902 -2.73438 C 40.0879 -1.07422 38.9648 0.244141 37.4023 0.244141 C 35.9863 0.244141 34.9609 -0.927734 34.9121 -2.63672 Z M 51.5137 -2.63672 L 51.4648 -57.959 C 51.4648 -59.5215 52.7832 -60.791 54.1992 -60.791 C 55.6641 -60.791 56.9336 -59.5215 56.9336 -57.959 L 56.8848 -2.63672 C 56.8848 -1.07422 55.5664 0.244141 54.1992 0.244141 C 52.7832 0.244141 51.5137 -1.07422 51.5137 -2.63672 Z M 68.4082 -2.73438 L 70.8984 -58.0078 C 70.9473 -59.5215 72.1191 -60.791 73.584 -60.791 C 75.0977 -60.791 76.2695 -59.5703 76.2207 -57.9102 L 73.4863 -2.63672 C 73.4375 -0.927734 72.3633 0.244141 70.8984 0.244141 C 69.3848 0.244141 68.3105 -1.07422 68.4082 -2.73438 Z"/>
  </g>
  <g id="Thin-M" transform="matrix(1 0 0 1 803.029 1126)">
   <path d="M 31.4453 13.8672 L 75.3906 13.8672 C 80.5664 13.8672 84.6191 10.0586 84.8633 4.98047 L 88.7207 -70.459 L 97.6074 -70.459 C 98.584 -70.459 99.3164 -71.1914 99.3164 -72.168 C 99.3164 -73.0957 98.584 -73.877 97.6074 -73.877 L 73.4863 -73.877 L 73.4863 -81.9824 C 73.4863 -87.6953 69.1895 -91.8945 62.793 -91.8945 L 43.9941 -91.8945 C 37.5977 -91.8945 33.3496 -87.6953 33.3496 -81.9824 L 33.3496 -73.877 L 9.22852 -73.877 C 8.25195 -73.877 7.4707 -73.0469 7.4707 -72.168 C 7.4707 -71.1914 8.25195 -70.459 9.22852 -70.459 L 18.1641 -70.459 L 22.0215 4.98047 C 22.2656 10.0586 26.2695 13.8672 31.4453 13.8672 Z M 36.9629 -73.877 L 36.9629 -81.8848 C 36.9629 -85.6934 39.7949 -88.4766 44.0918 -88.4766 L 62.6953 -88.4766 C 66.9922 -88.4766 69.873 -85.6934 69.873 -81.8848 L 69.873 -73.877 Z M 35.6445 -0.830078 L 32.2266 -58.8867 C 32.1289 -60.0586 33.0078 -60.791 33.9844 -60.791 C 35.1074 -60.791 35.9863 -60.0098 36.0352 -58.9844 L 39.1602 -0.976562 C 39.209 0.195312 38.4277 1.02539 37.3535 1.02539 C 36.377 1.02539 35.7422 0.244141 35.6445 -0.830078 Z M 51.6113 -0.878906 L 51.5137 -58.9355 C 51.5137 -60.0098 52.5391 -60.791 53.4668 -60.791 C 54.4434 -60.791 55.3711 -60.0098 55.3711 -58.9355 L 55.2734 -0.878906 C 55.2734 0.195312 54.3457 1.02539 53.4668 1.02539 C 52.5391 1.02539 51.6113 0.195312 51.6113 -0.878906 Z M 67.7246 -0.976562 L 70.8496 -58.9844 C 70.9473 -60.0098 71.7285 -60.791 72.9004 -60.791 C 73.9258 -60.791 74.7559 -60.0098 74.707 -58.8867 L 71.2402 -0.830078 C 71.1914 0.244141 70.459 1.02539 69.3848 1.02539 C 68.4082 1.02539 67.6758 0.195312 67.7246 -0.976562 Z"/>
  </g>
  <g id="Ultralight-M" transform="matrix(1 0 0 1 506.708 1126)">
   <path d="M 31.3965 14.1113 L 74.6582 14.1113 C 79.541 14.1113 83.7402 10.2051 83.9844 5.41992 L 88.0859 -71.2402 L 97.3633 -71.2402 C 98.0469 -71.2402 98.5352 -71.6797 98.5352 -72.3633 C 98.5352 -72.998 98.0469 -73.4863 97.3633 -73.4863 L 72.7051 -73.4863 L 72.7051 -81.8848 C 72.7051 -87.207 68.5547 -91.3086 62.5 -91.3086 L 43.5059 -91.3086 C 37.4512 -91.3086 33.3496 -87.207 33.3496 -81.8848 L 33.3496 -73.4863 L 8.69141 -73.4863 C 8.00781 -73.4863 7.4707 -72.9492 7.4707 -72.3633 C 7.4707 -71.6797 8.00781 -71.2402 8.69141 -71.2402 L 18.0664 -71.2402 L 22.1191 5.41992 C 22.3633 10.2051 26.5137 14.1113 31.3965 14.1113 Z M 35.7422 -73.4863 L 35.7422 -81.8848 C 35.7422 -85.9375 38.8184 -89.0137 43.5059 -89.0137 L 62.5 -89.0137 C 67.1875 -89.0137 70.3125 -85.9375 70.3125 -81.8848 L 70.3125 -73.4863 Z M 36.0352 0.0976562 L 32.2266 -59.375 C 32.1289 -60.2539 32.8125 -60.791 33.5449 -60.791 C 34.5215 -60.791 35.2051 -60.2539 35.2539 -59.4727 L 38.7207 -0.0976562 C 38.7695 0.830078 38.1836 1.41602 37.3047 1.41602 C 36.5723 1.41602 36.1328 0.878906 36.0352 0.0976562 Z M 51.6602 0.0488281 L 51.5137 -59.4238 C 51.5137 -60.2539 52.3926 -60.791 53.0762 -60.791 C 53.8574 -60.791 54.5898 -60.2539 54.5898 -59.4238 L 54.4434 0.0488281 C 54.4434 0.830078 53.7109 1.41602 53.0762 1.41602 C 52.3926 1.41602 51.6602 0.830078 51.6602 0.0488281 Z M 67.3828 -0.0976562 L 70.8496 -59.4727 C 70.8984 -60.2539 71.5332 -60.791 72.5098 -60.791 C 73.291 -60.791 73.9746 -60.2051 73.9258 -59.375 L 70.0684 0.0976562 C 70.0195 0.878906 69.4824 1.41602 68.6035 1.41602 C 67.8711 1.41602 67.334 0.830078 67.3828 -0.0976562 Z"/>
  </g>
  <g id="Black-S" transform="matrix(1 0 0 1 2886.43 696)">
   <path d="M 31.543 5.17578 L 62.4023 5.17578 C 70.0195 5.17578 74.2676 1.5625 74.6582 -6.05469 L 77.1484 -57.6172 L 82.1289 -57.6172 C 85.5957 -57.6172 88.0859 -59.9121 88.0859 -63.3789 C 88.0859 -66.748 85.5957 -69.043 82.1289 -69.043 L 67.2852 -69.043 L 67.2852 -71.7773 C 67.2852 -79.3945 61.6211 -84.4727 52.3438 -84.4727 L 41.6016 -84.4727 C 32.3242 -84.4727 26.6602 -79.3945 26.6602 -71.7773 L 26.6602 -69.043 L 11.8164 -69.043 C 8.34961 -69.043 5.85938 -66.748 5.85938 -63.3789 C 5.85938 -59.9121 8.34961 -57.6172 11.8164 -57.6172 L 16.7969 -57.6172 L 19.2871 -6.05469 C 19.6777 1.5625 23.9258 5.17578 31.543 5.17578 Z M 38.5254 -69.043 L 38.623 -71.582 C 38.6719 -73.3887 40.0391 -74.6094 42.041 -74.6094 L 51.9043 -74.6094 C 53.9062 -74.6094 55.2734 -73.3887 55.3223 -71.582 L 55.4199 -69.043 Z M 30.6152 -10.2539 L 29.5898 -49.6094 C 29.541 -51.6602 30.9082 -53.2715 32.7148 -53.2715 C 34.5703 -53.2715 36.084 -51.6602 36.1328 -49.6094 L 37.1582 -10.3027 C 37.207 -8.20312 35.791 -6.5918 33.9355 -6.5918 C 32.0801 -6.5918 30.6641 -8.1543 30.6152 -10.2539 Z M 43.7012 -10.2051 L 43.7012 -49.6582 C 43.7012 -51.6602 45.2148 -53.2715 46.9727 -53.2715 C 48.7305 -53.2715 50.2441 -51.6602 50.2441 -49.6582 L 50.2441 -10.2051 C 50.2441 -8.20312 48.7305 -6.5918 46.9727 -6.5918 C 45.2148 -6.5918 43.7012 -8.20312 43.7012 -10.2051 Z M 56.7871 -10.3027 L 57.8125 -49.6094 C 57.8613 -51.6602 59.375 -53.2715 61.2305 -53.2715 C 63.0859 -53.2715 64.4531 -51.6602 64.4043 -49.6094 L 63.3301 -10.2539 C 63.2812 -8.1543 61.8652 -6.5918 60.0586 -6.5918 C 58.1543 -6.5918 56.7383 -8.20312 56.7871 -10.3027 Z"/>
  </g>
  <g id="Heavy-S" transform="matrix(1 0 0 1 2590.62 696)">
   <path d="M 29.9316 4.54102 L 62.207 4.54102 C 69.1895 4.54102 73.0957 1.17188 73.4375 -5.81055 L 75.8789 -58.2031 L 80.957 -58.2031 C 84.0332 -58.2031 86.2793 -60.3027 86.2793 -63.3789 C 86.2793 -66.4062 84.0332 -68.5059 80.957 -68.5059 L 65.625 -68.5059 L 65.625 -71.875 C 65.625 -79.1016 60.4004 -83.7891 51.8555 -83.7891 L 40.2832 -83.7891 C 31.7871 -83.7891 26.5625 -79.1016 26.5625 -71.875 L 26.5625 -68.5059 L 11.1816 -68.5059 C 8.10547 -68.5059 5.85938 -66.4062 5.85938 -63.3789 C 5.85938 -60.3027 8.10547 -58.2031 11.1816 -58.2031 L 16.2598 -58.2031 L 18.7012 -5.81055 C 19.043 1.17188 22.9492 4.54102 29.9316 4.54102 Z M 37.2559 -68.5059 L 37.3535 -71.6309 C 37.3535 -73.4863 38.7695 -74.7559 40.7715 -74.7559 L 51.416 -74.7559 C 53.418 -74.7559 54.7852 -73.4863 54.834 -71.6309 L 54.8828 -68.5059 Z M 29.6875 -10.5469 L 28.5645 -50.1953 C 28.5156 -52.1973 29.834 -53.7598 31.5918 -53.7598 C 33.3984 -53.7598 34.8145 -52.1484 34.8633 -50.1953 L 35.9863 -10.5469 C 36.0352 -8.54492 34.668 -6.98242 32.8613 -6.98242 C 31.0547 -6.98242 29.7363 -8.49609 29.6875 -10.5469 Z M 42.9199 -10.498 L 42.9199 -50.2441 C 42.9199 -52.1484 44.3848 -53.7598 46.0938 -53.7598 C 47.8027 -53.7598 49.2676 -52.1484 49.2676 -50.2441 L 49.2676 -10.498 C 49.2676 -8.54492 47.8027 -6.98242 46.0938 -6.98242 C 44.3848 -6.98242 42.9199 -8.54492 42.9199 -10.498 Z M 56.2012 -10.5469 L 57.2754 -50.1953 C 57.3242 -52.1484 58.7891 -53.7598 60.5469 -53.7598 C 62.3535 -53.7598 63.6719 -52.1973 63.623 -50.1953 L 62.5 -10.5469 C 62.4512 -8.49609 61.084 -6.98242 59.3262 -6.98242 C 57.4707 -6.98242 56.1523 -8.54492 56.2012 -10.5469 Z"/>
  </g>
  <g id="Bold-S" transform="matrix(1 0 0 1 2294.91 696)">
   <path d="M 28.125 3.80859 L 62.0117 3.80859 C 68.3105 3.80859 71.7773 0.732422 72.0703 -5.56641 L 74.4629 -58.8867 L 79.6875 -58.8867 C 82.3242 -58.8867 84.2773 -60.791 84.2773 -63.4277 C 84.2773 -65.9668 82.3242 -67.8711 79.6875 -67.8711 L 63.7207 -67.8711 L 63.7207 -72.0215 C 63.7207 -78.7109 59.0332 -83.0566 51.3184 -83.0566 L 38.8184 -83.0566 C 31.1523 -83.0566 26.416 -78.7109 26.416 -72.0215 L 26.416 -67.8711 L 10.4492 -67.8711 C 7.86133 -67.8711 5.85938 -65.9668 5.85938 -63.4277 C 5.85938 -60.791 7.86133 -58.8867 10.4492 -58.8867 L 15.6738 -58.8867 L 18.0664 -5.56641 C 18.3594 0.732422 21.875 3.80859 28.125 3.80859 Z M 35.8398 -67.8711 L 35.8887 -71.6797 C 35.9375 -73.584 37.3047 -74.9023 39.3555 -74.9023 L 50.8301 -74.9023 C 52.832 -74.9023 54.248 -73.584 54.2969 -71.6797 L 54.3457 -67.8711 Z M 28.6133 -10.8398 L 27.3926 -50.8789 C 27.3438 -52.7832 28.6621 -54.2969 30.3711 -54.2969 C 32.0312 -54.2969 33.4473 -52.7344 33.4961 -50.8789 L 34.668 -10.8398 C 34.7168 -8.93555 33.3984 -7.42188 31.6406 -7.42188 C 29.9316 -7.42188 28.6621 -8.83789 28.6133 -10.8398 Z M 41.9922 -10.791 L 41.9922 -50.8789 C 41.9922 -52.7344 43.4082 -54.2969 45.0684 -54.2969 C 46.7285 -54.2969 48.1934 -52.7344 48.1934 -50.8789 L 48.1934 -10.791 C 48.1934 -8.93555 46.7285 -7.42188 45.0684 -7.42188 C 43.4082 -7.42188 41.9922 -8.93555 41.9922 -10.791 Z M 55.5176 -10.8398 L 56.6895 -50.8789 C 56.7383 -52.7344 58.1543 -54.2969 59.8145 -54.2969 C 61.5234 -54.2969 62.8418 -52.7832 62.793 -50.8789 L 61.5234 -10.8398 C 61.4746 -8.83789 60.2051 -7.42188 58.5449 -7.42188 C 56.7383 -7.42188 55.4688 -8.93555 55.5176 -10.8398 Z"/>
  </g>
  <g id="Semibold-S" transform="matrix(1 0 0 1 1998.88 696)">
   <path d="M 26.9043 3.27148 L 61.8652 3.27148 C 67.6758 3.27148 70.8984 0.390625 71.1426 -5.37109 L 73.5352 -59.3262 L 78.8086 -59.3262 C 81.1035 -59.3262 82.9102 -61.084 82.9102 -63.4277 C 82.9102 -65.7227 81.1035 -67.4316 78.8086 -67.4316 L 62.4512 -67.4316 L 62.4512 -72.1191 C 62.4512 -78.4668 58.0566 -82.5684 50.9277 -82.5684 L 37.8418 -82.5684 C 30.7129 -82.5684 26.3184 -78.4668 26.3184 -72.1191 L 26.3184 -67.4316 L 9.96094 -67.4316 C 7.66602 -67.4316 5.85938 -65.7227 5.85938 -63.4277 C 5.85938 -61.084 7.66602 -59.3262 9.96094 -59.3262 L 15.2832 -59.3262 L 17.627 -5.37109 C 17.9199 0.390625 21.1426 3.27148 26.9043 3.27148 Z M 34.8633 -67.4316 L 34.9121 -71.7285 C 34.9121 -73.6816 36.3281 -75 38.3301 -75 L 50.4395 -75 C 52.4902 -75 53.8574 -73.6816 53.9062 -71.7285 L 53.9062 -67.4316 Z M 27.9297 -11.0352 L 26.6113 -51.3184 C 26.5625 -53.1738 27.832 -54.6387 29.541 -54.6387 C 31.1035 -54.6387 32.4707 -53.125 32.5195 -51.3184 L 33.7402 -11.084 C 33.7891 -9.17969 32.5684 -7.71484 30.8105 -7.71484 C 29.1992 -7.71484 27.9785 -9.08203 27.9297 -11.0352 Z M 41.3574 -11.0352 L 41.3574 -51.3184 C 41.3574 -53.125 42.7734 -54.6387 44.3848 -54.6387 C 45.9961 -54.6387 47.4121 -53.125 47.4121 -51.3184 L 47.4121 -11.0352 C 47.4121 -9.17969 45.9961 -7.71484 44.3848 -7.71484 C 42.7734 -7.71484 41.3574 -9.17969 41.3574 -11.0352 Z M 55.0293 -11.084 L 56.2988 -51.3184 C 56.3477 -53.125 57.666 -54.6387 59.2773 -54.6387 C 60.9375 -54.6387 62.2559 -53.1738 62.207 -51.3184 L 60.8887 -11.0352 C 60.8398 -9.08203 59.6191 -7.71484 57.959 -7.71484 C 56.25 -7.71484 54.9805 -9.17969 55.0293 -11.084 Z"/>
  </g>
  <g id="Medium-S" transform="matrix(1 0 0 1 1702.71 696)">
   <path d="M 25.9766 2.88086 L 61.7676 2.88086 C 67.1875 2.88086 70.2148 0.195312 70.459 -5.27344 L 72.7539 -59.668 L 78.125 -59.668 C 80.2246 -59.668 81.8359 -61.3281 81.8359 -63.4277 C 81.8359 -65.4785 80.2246 -67.1387 78.125 -67.1387 L 61.4746 -67.1387 L 61.4746 -72.2168 C 61.4746 -78.3203 57.3242 -82.1777 50.6348 -82.1777 L 37.0605 -82.1777 C 30.3711 -82.1777 26.2695 -78.3203 26.2695 -72.2168 L 26.2695 -67.1387 L 9.57031 -67.1387 C 7.51953 -67.1387 5.85938 -65.4785 5.85938 -63.4277 C 5.85938 -61.3281 7.51953 -59.668 9.57031 -59.668 L 14.9902 -59.668 L 17.2852 -5.27344 C 17.5293 0.195312 20.5566 2.88086 25.9766 2.88086 Z M 34.1309 -67.1387 L 34.1309 -71.7773 C 34.1797 -73.7305 35.5469 -75.0488 37.5977 -75.0488 L 50.1465 -75.0488 C 52.1973 -75.0488 53.6133 -73.7305 53.6133 -71.7773 L 53.6133 -67.1387 Z M 27.3438 -11.1816 L 25.9766 -51.6602 C 25.9277 -53.5156 27.2461 -54.9316 28.8574 -54.9316 C 30.4199 -54.9316 31.7383 -53.418 31.7871 -51.6602 L 33.0566 -11.2305 C 33.1055 -9.42383 31.8848 -7.91016 30.2246 -7.91016 C 28.6133 -7.91016 27.3926 -9.27734 27.3438 -11.1816 Z M 40.918 -11.1816 L 40.918 -51.6602 C 40.918 -53.418 42.2852 -54.9316 43.8477 -54.9316 C 45.459 -54.9316 46.875 -53.418 46.875 -51.6602 L 46.8262 -11.1816 C 46.8262 -9.42383 45.459 -7.91016 43.8477 -7.91016 C 42.2852 -7.91016 40.918 -9.42383 40.918 -11.1816 Z M 54.6875 -11.2305 L 55.957 -51.6602 C 56.0059 -53.418 57.3242 -54.9316 58.8867 -54.9316 C 60.5469 -54.9316 61.8164 -53.5156 61.7676 -51.6602 L 60.4004 -11.1816 C 60.3516 -9.27734 59.1797 -7.91016 57.5684 -7.91016 C 55.8594 -7.91016 54.6387 -9.42383 54.6875 -11.2305 Z"/>
  </g>
  <g id="Regular-S" transform="matrix(1 0 0 1 1406.68 696)">
   <path d="M 24.7559 2.39258 L 61.6211 2.39258 C 66.5527 2.39258 69.3359 -0.0976562 69.5312 -5.07812 L 71.8262 -60.1562 L 77.2461 -60.1562 C 79.0527 -60.1562 80.4688 -61.6211 80.4688 -63.4277 C 80.4688 -65.2344 79.0527 -66.6992 77.2461 -66.6992 L 60.1562 -66.6992 L 60.1562 -72.2656 C 60.1562 -78.0762 56.3965 -81.6406 50.293 -81.6406 L 36.084 -81.6406 C 29.9316 -81.6406 26.1719 -78.0762 26.1719 -72.2656 L 26.1719 -66.6992 L 9.08203 -66.6992 C 7.37305 -66.6992 5.85938 -65.2344 5.85938 -63.4277 C 5.85938 -61.6211 7.37305 -60.1562 9.08203 -60.1562 L 14.5996 -60.1562 L 16.8945 -5.07812 C 17.0898 -0.0976562 19.8242 2.39258 24.7559 2.39258 Z M 33.1543 -66.6992 L 33.1543 -71.8262 C 33.1543 -73.7793 34.5703 -75.1465 36.6211 -75.1465 L 49.7559 -75.1465 C 51.8066 -75.1465 53.2227 -73.7793 53.2227 -71.8262 L 53.2227 -66.6992 Z M 26.6602 -11.4258 L 25.1953 -52.0996 C 25.1465 -53.9062 26.416 -55.2734 28.0273 -55.2734 C 29.4922 -55.2734 30.7617 -53.8086 30.8105 -52.0996 L 32.1777 -11.4258 C 32.2266 -9.66797 31.0547 -8.20312 29.3945 -8.20312 C 27.832 -8.20312 26.709 -9.52148 26.6602 -11.4258 Z M 40.2832 -11.4258 L 40.2832 -52.0996 C 40.2832 -53.8086 41.6016 -55.2734 43.1641 -55.2734 C 44.7266 -55.2734 46.0938 -53.8086 46.0938 -52.0996 L 46.0938 -11.4258 C 46.0938 -9.66797 44.7266 -8.20312 43.1641 -8.20312 C 41.6016 -8.20312 40.2832 -9.66797 40.2832 -11.4258 Z M 54.1992 -11.4258 L 55.5664 -52.0996 C 55.6152 -53.8086 56.8848 -55.2734 58.3496 -55.2734 C 59.9609 -55.2734 61.2305 -53.9062 61.1816 -52.0996 L 59.7656 -11.4258 C 59.7168 -9.52148 58.5449 -8.20312 56.9824 -8.20312 C 55.3711 -8.20312 54.1504 -9.66797 54.1992 -11.4258 Z"/>
  </g>
  <g id="Light-S" transform="matrix(1 0 0 1 1110.48 696)">
   <path d="M 24.707 2.73438 L 60.6445 2.73438 C 65.2344 2.73438 68.1641 0.0488281 68.3594 -4.54102 L 70.9473 -61.1816 L 76.9531 -61.1816 C 78.3203 -61.1816 79.4434 -62.3047 79.4434 -63.7207 C 79.4434 -65.0879 78.3203 -66.2598 76.9531 -66.2598 L 59.1797 -66.2598 L 59.1797 -72.1191 C 59.1797 -77.3926 55.5664 -80.8594 49.8535 -80.8594 L 35.4492 -80.8594 C 29.7363 -80.8594 26.1719 -77.3926 26.1719 -72.1191 L 26.1719 -66.2598 L 8.39844 -66.2598 C 7.03125 -66.2598 5.85938 -65.0879 5.85938 -63.7207 C 5.85938 -62.3047 7.03125 -61.1816 8.39844 -61.1816 L 14.4531 -61.1816 L 17.041 -4.54102 C 17.2363 0.0488281 20.1172 2.73438 24.707 2.73438 Z M 31.543 -66.2598 L 31.543 -71.8262 C 31.543 -74.1699 33.3008 -75.8789 35.8398 -75.8789 L 49.5117 -75.8789 C 52.0508 -75.8789 53.8086 -74.1699 53.8086 -71.8262 L 53.8086 -66.2598 Z M 27.1484 -10.2051 L 25.1953 -52.7344 C 25.1465 -54.1992 26.2207 -55.2734 27.4902 -55.2734 C 28.7598 -55.2734 29.7852 -54.1504 29.834 -52.7832 L 31.5918 -10.2539 C 31.6406 -8.83789 30.7129 -7.66602 29.3457 -7.66602 C 28.0762 -7.66602 27.1973 -8.74023 27.1484 -10.2051 Z M 40.332 -10.2051 L 40.332 -52.7832 C 40.332 -54.1504 41.4551 -55.2734 42.6758 -55.2734 C 43.9453 -55.2734 45.0684 -54.1504 45.0684 -52.7832 L 45.0195 -10.2051 C 45.0195 -8.83789 43.8965 -7.66602 42.6758 -7.66602 C 41.4551 -7.66602 40.332 -8.83789 40.332 -10.2051 Z M 53.7598 -10.2539 L 55.5664 -52.7832 C 55.6152 -54.1504 56.6406 -55.2734 57.8613 -55.2734 C 59.1797 -55.2734 60.2051 -54.1992 60.1562 -52.7344 L 58.252 -10.2051 C 58.2031 -8.74023 57.2754 -7.66602 56.0059 -7.66602 C 54.6875 -7.66602 53.7109 -8.83789 53.7598 -10.2539 Z"/>
  </g>
  <g id="Thin-S" transform="matrix(1 0 0 1 814.43 696)">
   <path d="M 24.6582 3.125 L 59.375 3.125 C 63.5254 3.125 66.6504 0.195312 66.8457 -3.85742 L 69.7754 -62.5 L 76.5625 -62.5 C 77.4414 -62.5 78.125 -63.1836 78.125 -64.0625 C 78.125 -64.9414 77.4414 -65.625 76.5625 -65.625 L 57.8613 -65.625 L 57.8613 -71.9238 C 57.8613 -76.5137 54.4434 -79.834 49.3164 -79.834 L 34.668 -79.834 C 29.4922 -79.834 26.123 -76.5137 26.123 -71.9238 L 26.123 -65.625 L 7.42188 -65.625 C 6.5918 -65.625 5.85938 -64.8926 5.85938 -64.0625 C 5.85938 -63.1836 6.5918 -62.5 7.42188 -62.5 L 14.2578 -62.5 L 17.1875 -3.85742 C 17.3828 0.195312 20.5078 3.125 24.6582 3.125 Z M 29.4434 -65.625 L 29.4434 -71.7773 C 29.4434 -74.6582 31.543 -76.7578 34.8145 -76.7578 L 49.1699 -76.7578 C 52.3926 -76.7578 54.5898 -74.6582 54.5898 -71.7773 L 54.5898 -65.625 Z M 27.7832 -8.64258 L 25.2441 -53.5645 C 25.1953 -54.5898 25.9277 -55.2734 26.7578 -55.2734 C 27.7344 -55.2734 28.4668 -54.541 28.5156 -53.6621 L 30.8594 -8.74023 C 30.9082 -7.71484 30.2246 -6.98242 29.2969 -6.98242 C 28.418 -6.98242 27.832 -7.66602 27.7832 -8.64258 Z M 40.4297 -8.64258 L 40.332 -53.6133 C 40.332 -54.541 41.2109 -55.2734 42.041 -55.2734 C 42.9199 -55.2734 43.7012 -54.541 43.7012 -53.6133 L 43.6035 -8.64258 C 43.6035 -7.71484 42.8223 -6.98242 42.041 -6.98242 C 41.2109 -6.98242 40.4297 -7.71484 40.4297 -8.64258 Z M 53.2227 -8.74023 L 55.5176 -53.6621 C 55.5664 -54.541 56.2988 -55.2734 57.2266 -55.2734 C 58.1543 -55.2734 58.8867 -54.541 58.8379 -53.5645 L 56.25 -8.64258 C 56.2012 -7.66602 55.5664 -6.98242 54.6387 -6.98242 C 53.8086 -6.98242 53.1738 -7.71484 53.2227 -8.74023 Z"/>
  </g>
  <g id="Ultralight-S" transform="matrix(1 0 0 1 518.085 696)">
   <path d="M 24.6094 3.36914 L 58.6914 3.36914 C 62.5977 3.36914 65.8691 0.341797 66.0645 -3.51562 L 69.1895 -63.2324 L 76.3672 -63.2324 C 76.9531 -63.2324 77.3926 -63.6719 77.3926 -64.2578 C 77.3926 -64.8438 76.9531 -65.2832 76.3672 -65.2832 L 57.1777 -65.2832 L 57.1777 -71.8262 C 57.1777 -76.0742 53.9062 -79.2969 49.0234 -79.2969 L 34.2285 -79.2969 C 29.3945 -79.2969 26.123 -76.0742 26.123 -71.8262 L 26.123 -65.2832 L 6.93359 -65.2832 C 6.34766 -65.2832 5.85938 -64.7949 5.85938 -64.2578 C 5.85938 -63.6719 6.34766 -63.2324 6.93359 -63.2324 L 14.1602 -63.2324 L 17.334 -3.51562 C 17.5293 0.341797 20.7031 3.36914 24.6094 3.36914 Z M 28.3203 -65.2832 L 28.3203 -71.7773 C 28.3203 -74.9023 30.6641 -77.2461 34.2773 -77.2461 L 49.0234 -77.2461 C 52.5879 -77.2461 54.9805 -74.9023 54.9805 -71.7773 L 54.9805 -65.2832 Z M 28.125 -7.8125 L 25.2441 -54.0039 C 25.1953 -54.7852 25.7812 -55.2734 26.416 -55.2734 C 27.1973 -55.2734 27.7832 -54.7852 27.832 -54.1016 L 30.4688 -7.95898 C 30.5176 -7.17773 29.9805 -6.64062 29.248 -6.64062 C 28.6133 -6.64062 28.1738 -7.12891 28.125 -7.8125 Z M 40.4785 -7.86133 L 40.3809 -54.0527 C 40.3809 -54.7852 41.1133 -55.2734 41.6992 -55.2734 C 42.3828 -55.2734 42.9688 -54.7852 42.9688 -54.0527 L 42.8711 -7.86133 C 42.8711 -7.17773 42.2852 -6.64062 41.6992 -6.64062 C 41.1133 -6.64062 40.4785 -7.17773 40.4785 -7.86133 Z M 52.8809 -7.95898 L 55.5176 -54.1016 C 55.5664 -54.7852 56.1035 -55.2734 56.9336 -55.2734 C 57.6172 -55.2734 58.1543 -54.7363 58.1055 -54.0039 L 55.2246 -7.8125 C 55.1758 -7.12891 54.6875 -6.64062 53.9551 -6.64062 C 53.3203 -6.64062 52.832 -7.17773 52.8809 -7.95898 Z"/>
  </g>
 </g>
</svg>
