<?xml version="1.0" encoding="UTF-8"?>
<!--Generator: Apple Native CoreSVG 149-->
<!DOCTYPE svg
PUBLIC "-//W3C//DTD SVG 1.1//EN"
       "http://www.w3.org/Graphics/SVG/1.1/DTD/svg11.dtd">
<svg version="1.1" xmlns="http://www.w3.org/2000/svg" xmlns:xlink="http://www.w3.org/1999/xlink" width="3300" height="2200">
 <!--glyph: "uni10017C.medium", point size: 100.000000, font version: "Version 16.0d18e1", template writer version: "8"-->
 <g id="Notes">
  <rect height="2200" id="artboard" style="fill:white;opacity:1" width="3300" x="0" y="0"/>
  <line id="" style="fill:none;stroke:black;opacity:1;stroke-width:0.5;" x1="263" x2="3036" y1="292" y2="292"/>
  <text style="stroke:none;fill:black;font-family:-apple-system,&quot;SF Pro Display&quot;,&quot;SF Pro Text&quot;,Helvetica,sans-serif;font-weight:bold;" transform="matrix(1 0 0 1 263 322)">Weight/Scale Variations</text>
  <text style="stroke:none;fill:black;font-family:-apple-system,&quot;SF Pro Display&quot;,&quot;SF Pro Text&quot;,Helvetica,sans-serif;text-anchor:middle;" transform="matrix(1 0 0 1 559.711 322)">Ultralight</text>
  <text style="stroke:none;fill:black;font-family:-apple-system,&quot;SF Pro Display&quot;,&quot;SF Pro Text&quot;,Helvetica,sans-serif;text-anchor:middle;" transform="matrix(1 0 0 1 856.422 322)">Thin</text>
  <text style="stroke:none;fill:black;font-family:-apple-system,&quot;SF Pro Display&quot;,&quot;SF Pro Text&quot;,Helvetica,sans-serif;text-anchor:middle;" transform="matrix(1 0 0 1 1153.13 322)">Light</text>
  <text style="stroke:none;fill:black;font-family:-apple-system,&quot;SF Pro Display&quot;,&quot;SF Pro Text&quot;,Helvetica,sans-serif;text-anchor:middle;" transform="matrix(1 0 0 1 1449.84 322)">Regular</text>
  <text style="stroke:none;fill:black;font-family:-apple-system,&quot;SF Pro Display&quot;,&quot;SF Pro Text&quot;,Helvetica,sans-serif;text-anchor:middle;" transform="matrix(1 0 0 1 1746.56 322)">Medium</text>
  <text style="stroke:none;fill:black;font-family:-apple-system,&quot;SF Pro Display&quot;,&quot;SF Pro Text&quot;,Helvetica,sans-serif;text-anchor:middle;" transform="matrix(1 0 0 1 2043.27 322)">Semibold</text>
  <text style="stroke:none;fill:black;font-family:-apple-system,&quot;SF Pro Display&quot;,&quot;SF Pro Text&quot;,Helvetica,sans-serif;text-anchor:middle;" transform="matrix(1 0 0 1 2339.98 322)">Bold</text>
  <text style="stroke:none;fill:black;font-family:-apple-system,&quot;SF Pro Display&quot;,&quot;SF Pro Text&quot;,Helvetica,sans-serif;text-anchor:middle;" transform="matrix(1 0 0 1 2636.69 322)">Heavy</text>
  <text style="stroke:none;fill:black;font-family:-apple-system,&quot;SF Pro Display&quot;,&quot;SF Pro Text&quot;,Helvetica,sans-serif;text-anchor:middle;" transform="matrix(1 0 0 1 2933.4 322)">Black</text>
  <line id="" style="fill:none;stroke:black;opacity:1;stroke-width:0.5;" x1="263" x2="3036" y1="1903" y2="1903"/>
  <g id="" transform="matrix(1 0 0 1 263 1933)">
   <path d="M9.24805 0.830078C13.5547 0.830078 17.1387-2.74414 17.1387-7.05078C17.1387-11.3574 13.5449-14.9316 9.23828-14.9316C4.94141-14.9316 1.36719-11.3574 1.36719-7.05078C1.36719-2.74414 4.95117 0.830078 9.24805 0.830078ZM9.24805-0.654297C5.70312-0.654297 2.87109-3.49609 2.87109-7.05078C2.87109-10.6055 5.69336-13.4473 9.23828-13.4473C12.793-13.4473 15.6348-10.6055 15.6445-7.05078C15.6543-3.49609 12.8027-0.654297 9.24805-0.654297ZM6.39648-6.31836L8.50586-6.31836L8.50586-4.19922C8.50586-3.75977 8.79883-3.45703 9.22852-3.45703C9.67773-3.45703 9.9707-3.75977 9.9707-4.19922L9.9707-6.31836L12.0996-6.31836C12.5391-6.31836 12.8418-6.61133 12.8418-7.04102C12.8418-7.48047 12.5391-7.7832 12.0996-7.7832L9.9707-7.7832L9.9707-9.89258C9.9707-10.3418 9.67773-10.6445 9.22852-10.6445C8.79883-10.6445 8.50586-10.3418 8.50586-9.89258L8.50586-7.7832L6.39648-7.7832C5.94727-7.7832 5.64453-7.48047 5.64453-7.04102C5.64453-6.61133 5.94727-6.31836 6.39648-6.31836Z"/>
  </g>
  <g id="" transform="matrix(1 0 0 1 281.506 1933)">
   <path d="M11.709 2.91016C17.1582 2.91016 21.6699-1.61133 21.6699-7.05078C21.6699-12.5 17.1484-17.0117 11.6992-17.0117C6.25977-17.0117 1.74805-12.5 1.74805-7.05078C1.74805-1.61133 6.26953 2.91016 11.709 2.91016ZM11.709 1.25C7.09961 1.25 3.41797-2.44141 3.41797-7.05078C3.41797-11.6602 7.08984-15.3516 11.6992-15.3516C16.3086-15.3516 20-11.6602 20.0098-7.05078C20.0195-2.44141 16.3184 1.25 11.709 1.25ZM7.98828-6.23047L10.8789-6.23047L10.8789-3.32031C10.8789-2.83203 11.2109-2.5 11.6895-2.5C12.1777-2.5 12.5195-2.83203 12.5195-3.32031L12.5195-6.23047L15.4297-6.23047C15.918-6.23047 16.25-6.5625 16.25-7.04102C16.25-7.5293 15.918-7.87109 15.4297-7.87109L12.5195-7.87109L12.5195-10.7617C12.5195-11.2695 12.1777-11.6016 11.6895-11.6016C11.2109-11.6016 10.8789-11.2598 10.8789-10.7617L10.8789-7.87109L7.98828-7.87109C7.48047-7.87109 7.14844-7.5293 7.14844-7.04102C7.14844-6.5625 7.49023-6.23047 7.98828-6.23047Z"/>
  </g>
  <g id="" transform="matrix(1 0 0 1 304.924 1933)">
   <path d="M14.9707 5.66406C21.9336 5.66406 27.6953-0.0976562 27.6953-7.05078C27.6953-14.0137 21.9238-19.7754 14.9609-19.7754C8.00781-19.7754 2.25586-14.0137 2.25586-7.05078C2.25586-0.0976562 8.01758 5.66406 14.9707 5.66406ZM14.9707 3.84766C8.93555 3.84766 4.08203-1.01562 4.08203-7.05078C4.08203-13.0957 8.92578-17.9492 14.9609-17.9492C21.0059-17.9492 25.8594-13.0957 25.8691-7.05078C25.8789-1.01562 21.0156 3.84766 14.9707 3.84766ZM10.0586-6.14258L14.0625-6.14258L14.0625-2.12891C14.0625-1.5918 14.4336-1.2207 14.9512-1.2207C15.4883-1.2207 15.8594-1.5918 15.8594-2.12891L15.8594-6.14258L19.8828-6.14258C20.4102-6.14258 20.791-6.51367 20.791-7.03125C20.791-7.56836 20.4199-7.94922 19.8828-7.94922L15.8594-7.94922L15.8594-11.9531C15.8594-12.5098 15.4883-12.8809 14.9512-12.8809C14.4336-12.8809 14.0625-12.5 14.0625-11.9531L14.0625-7.94922L10.0586-7.94922C9.50195-7.94922 9.13086-7.56836 9.13086-7.03125C9.13086-6.51367 9.51172-6.14258 10.0586-6.14258Z"/>
  </g>
  <text style="stroke:none;fill:black;font-family:-apple-system,&quot;SF Pro Display&quot;,&quot;SF Pro Text&quot;,Helvetica,sans-serif;font-weight:bold;" transform="matrix(1 0 0 1 263 1953)">Design Variations</text>
  <text style="stroke:none;fill:black;font-family:-apple-system,&quot;SF Pro Display&quot;,&quot;SF Pro Text&quot;,Helvetica,sans-serif;" transform="matrix(1 0 0 1 263 1971)">Symbols are supported in up to nine weights and three scales.</text>
  <text style="stroke:none;fill:black;font-family:-apple-system,&quot;SF Pro Display&quot;,&quot;SF Pro Text&quot;,Helvetica,sans-serif;" transform="matrix(1 0 0 1 263 1989)">For optimal layout with text and other symbols, vertically align</text>
  <text style="stroke:none;fill:black;font-family:-apple-system,&quot;SF Pro Display&quot;,&quot;SF Pro Text&quot;,Helvetica,sans-serif;" transform="matrix(1 0 0 1 263 2007)">symbols with the adjacent text.</text>
  <line id="" style="fill:none;stroke:#00AEEF;stroke-width:0.5;opacity:1.0;" x1="776" x2="776" y1="1919" y2="1933"/>
  <g id="" transform="matrix(1 0 0 1 776 1933)">
   <path d="M3.31055 0.126953C3.82812 0.126953 4.08203-0.0683594 4.26758-0.605469L5.52734-4.0625L11.2891-4.0625L12.5488-0.605469C12.7344-0.0683594 12.9883 0.126953 13.4961 0.126953C14.0137 0.126953 14.3457-0.185547 14.3457-0.673828C14.3457-0.839844 14.3164-0.986328 14.2383-1.20117L9.6582-13.3887C9.43359-13.9941 9.0332-14.2871 8.4082-14.2871C7.80273-14.2871 7.39258-13.9941 7.17773-13.3984L2.59766-1.19141C2.51953-0.976562 2.49023-0.830078 2.49023-0.664062C2.49023-0.175781 2.80273 0.126953 3.31055 0.126953ZM6.00586-5.53711L8.37891-12.1094L8.42773-12.1094L10.8008-5.53711Z"/>
  </g>
  <line id="" style="fill:none;stroke:#00AEEF;stroke-width:0.5;opacity:1.0;" x1="792.836" x2="792.836" y1="1919" y2="1933"/>
  <text style="stroke:none;fill:black;font-family:-apple-system,&quot;SF Pro Display&quot;,&quot;SF Pro Text&quot;,Helvetica,sans-serif;font-weight:bold;" transform="matrix(1 0 0 1 776 1953)">Margins</text>
  <text style="stroke:none;fill:black;font-family:-apple-system,&quot;SF Pro Display&quot;,&quot;SF Pro Text&quot;,Helvetica,sans-serif;" transform="matrix(1 0 0 1 776 1971)">Leading and trailing margins on the left and right side of each symbol</text>
  <text style="stroke:none;fill:black;font-family:-apple-system,&quot;SF Pro Display&quot;,&quot;SF Pro Text&quot;,Helvetica,sans-serif;" transform="matrix(1 0 0 1 776 1989)">can be adjusted by modifying the x-location of the margin guidelines.</text>
  <text style="stroke:none;fill:black;font-family:-apple-system,&quot;SF Pro Display&quot;,&quot;SF Pro Text&quot;,Helvetica,sans-serif;" transform="matrix(1 0 0 1 776 2007)">Modifications are automatically applied proportionally to all</text>
  <text style="stroke:none;fill:black;font-family:-apple-system,&quot;SF Pro Display&quot;,&quot;SF Pro Text&quot;,Helvetica,sans-serif;" transform="matrix(1 0 0 1 776 2025)">scales and weights.</text>
  <g id="" transform="matrix(1 0 0 1 1289 1933)">
   <path d="M2.8418 1.86523L4.54102 3.57422C5.40039 4.44336 6.38672 4.38477 7.31445 3.35938L17.4902-7.85156C17.7539-7.76367 18.0273-7.7832 18.3398-7.8418L19.4043-8.03711L20.0684-7.36328L20.0293-6.80664C19.9902-6.30859 20.1172-5.92773 20.6055-5.44922L21.3672-4.70703C21.8457-4.22852 22.4609-4.19922 22.9297-4.66797L25.8398-7.58789C26.3086-8.05664 26.2891-8.65234 25.8105-9.13086L25.0391-9.89258C24.5605-10.3711 24.1895-10.5273 23.7109-10.4883L23.1348-10.4395L22.4902-11.0742L22.7344-12.1973C22.8613-12.7637 22.7051-13.2031 22.1191-13.7891L19.9219-15.9766C16.582-19.2969 12.1484-19.2188 9.25781-16.3281C8.83789-15.918 8.80859-15.3418 9.04297-14.9512C9.27734-14.5898 9.73633-14.3555 10.3809-14.5215C11.8457-14.8633 13.3691-14.9219 14.7949-13.9844L14.209-12.5293C14.0137-12.0508 13.9844-11.6504 14.1113-11.2891L3.04688-0.898438C2.06055 0.0195312 1.98242 0.996094 2.8418 1.86523ZM10.752-15.957C13.1836-17.7344 16.4746-17.4316 18.7012-15.2051L21.1328-12.793C21.3672-12.5586 21.4062-12.373 21.3379-12.0312L21.0156-10.5469L22.5195-9.0625L23.5059-9.12109C23.7598-9.13086 23.8379-9.11133 24.0332-8.91602L24.6094-8.33984L22.168-5.89844L21.5918-6.47461C21.3965-6.66992 21.3672-6.74805 21.377-7.01172L21.4453-7.98828L19.9512-9.47266L18.4277-9.21875C18.1055-9.15039 17.959-9.17969 17.7148-9.41406L15.7129-11.416C15.459-11.6504 15.4297-11.8164 15.5859-12.1875L16.4648-14.2773C14.9023-15.7324 12.8711-16.3574 10.8398-15.7617C10.6836-15.7227 10.625-15.8496 10.752-15.957ZM5.27344 2.30469L4.10156 1.14258C3.63281 0.683594 3.74023 0.341797 4.14062-0.0195312L14.9512-10.1953L16.416-8.71094L6.42578 2.27539C6.07422 2.67578 5.74219 2.77344 5.27344 2.30469Z"/>
  </g>
  <text style="stroke:none;fill:black;font-family:-apple-system,&quot;SF Pro Display&quot;,&quot;SF Pro Text&quot;,Helvetica,sans-serif;font-weight:bold;" transform="matrix(1 0 0 1 1289 1953)">Exporting</text>
  <text style="stroke:none;fill:black;font-family:-apple-system,&quot;SF Pro Display&quot;,&quot;SF Pro Text&quot;,Helvetica,sans-serif;" transform="matrix(1 0 0 1 1289 1971)">Symbols should be outlined when exporting to ensure the</text>
  <text style="stroke:none;fill:black;font-family:-apple-system,&quot;SF Pro Display&quot;,&quot;SF Pro Text&quot;,Helvetica,sans-serif;" transform="matrix(1 0 0 1 1289 1989)">design is preserved when submitting to Xcode.</text>
  <text id="template-version" style="stroke:none;fill:black;font-family:-apple-system,&quot;SF Pro Display&quot;,&quot;SF Pro Text&quot;,Helvetica,sans-serif;text-anchor:end;" transform="matrix(1 0 0 1 3036 1933)">Template v.2.0</text>
  <text style="stroke:none;fill:black;font-family:-apple-system,&quot;SF Pro Display&quot;,&quot;SF Pro Text&quot;,Helvetica,sans-serif;text-anchor:end;" transform="matrix(1 0 0 1 3036 1951)">Requires Xcode 12 or greater</text>
  <text style="stroke:none;fill:black;font-family:-apple-system,&quot;SF Pro Display&quot;,&quot;SF Pro Text&quot;,Helvetica,sans-serif;text-anchor:end;" transform="matrix(1 0 0 1 3036 1969)">Generated from plus</text>
  <text style="stroke:none;fill:black;font-family:-apple-system,&quot;SF Pro Display&quot;,&quot;SF Pro Text&quot;,Helvetica,sans-serif;text-anchor:end;" transform="matrix(1 0 0 1 3036 1987)">Typeset at 100 points</text>
  <text style="stroke:none;fill:black;font-family:-apple-system,&quot;SF Pro Display&quot;,&quot;SF Pro Text&quot;,Helvetica,sans-serif;" transform="matrix(1 0 0 1 263 726)">Small</text>
  <text style="stroke:none;fill:black;font-family:-apple-system,&quot;SF Pro Display&quot;,&quot;SF Pro Text&quot;,Helvetica,sans-serif;" transform="matrix(1 0 0 1 263 1156)">Medium</text>
  <text style="stroke:none;fill:black;font-family:-apple-system,&quot;SF Pro Display&quot;,&quot;SF Pro Text&quot;,Helvetica,sans-serif;" transform="matrix(1 0 0 1 263 1586)">Large</text>
 </g>
 <g id="Guides">
  <g id="H-reference" style="fill:#27AAE1;stroke:none;" transform="matrix(1 0 0 1 339 696)">
   <path d="M0.976562 0L3.66211 0L12.9883-24.4629L45.752-24.4629L55.127 0L57.7637 0L30.6152-70.459L28.125-70.459ZM29.3457-67.1387L29.4434-67.1387L44.873-26.709L13.8672-26.709Z"/>
  </g>
  <line id="Baseline-S" style="fill:none;stroke:#27AAE1;opacity:1;stroke-width:0.5;" x1="263" x2="3036" y1="696" y2="696"/>
  <line id="Capline-S" style="fill:none;stroke:#27AAE1;opacity:1;stroke-width:0.5;" x1="263" x2="3036" y1="625.541" y2="625.541"/>
  <g id="H-reference" style="fill:#27AAE1;stroke:none;" transform="matrix(1 0 0 1 339 1126)">
   <path d="M0.976562 0L3.66211 0L12.9883-24.4629L45.752-24.4629L55.127 0L57.7637 0L30.6152-70.459L28.125-70.459ZM29.3457-67.1387L29.4434-67.1387L44.873-26.709L13.8672-26.709Z"/>
  </g>
  <line id="Baseline-M" style="fill:none;stroke:#27AAE1;opacity:1;stroke-width:0.5;" x1="263" x2="3036" y1="1126" y2="1126"/>
  <line id="Capline-M" style="fill:none;stroke:#27AAE1;opacity:1;stroke-width:0.5;" x1="263" x2="3036" y1="1055.54" y2="1055.54"/>
  <g id="H-reference" style="fill:#27AAE1;stroke:none;" transform="matrix(1 0 0 1 339 1556)">
   <path d="M0.976562 0L3.66211 0L12.9883-24.4629L45.752-24.4629L55.127 0L57.7637 0L30.6152-70.459L28.125-70.459ZM29.3457-67.1387L29.4434-67.1387L44.873-26.709L13.8672-26.709Z"/>
  </g>
  <line id="Baseline-L" style="fill:none;stroke:#27AAE1;opacity:1;stroke-width:0.5;" x1="263" x2="3036" y1="1556" y2="1556"/>
  <line id="Capline-L" style="fill:none;stroke:#27AAE1;opacity:1;stroke-width:0.5;" x1="263" x2="3036" y1="1485.54" y2="1485.54"/>
  <line id="left-margin" style="fill:none;stroke:#00AEEF;stroke-width:0.5;opacity:1.0;" x1="1397.11" x2="1397.11" y1="1030.79" y2="1150.12"/>
  <line id="right-margin" style="fill:none;stroke:#00AEEF;stroke-width:0.5;opacity:1.0;" x1="1502.58" x2="1502.58" y1="1030.79" y2="1150.12"/>
 </g>
 <g id="Symbols">
  <g id="Black-L" transform="matrix(1 0 0 1 2861.89 1556)">
   <path d="M28.125-23.1445L59.4238-23.1445L59.4238 8.1543C59.4238 14.7949 64.8438 20.2148 71.4844 20.2148C78.1738 20.2148 83.5938 14.7949 83.5938 8.1543L83.5938-23.1445L114.893-23.1445C121.533-23.1445 126.953-28.5156 126.953-35.2051C126.953-41.8945 121.533-47.2656 114.893-47.2656L83.5938-47.2656L83.5938-78.5645C83.5938-85.2539 78.1738-90.6738 71.4844-90.6738C64.8438-90.6738 59.4238-85.2539 59.4238-78.5645L59.4238-47.2656L28.125-47.2656C21.4844-47.2656 16.0645-41.8945 16.0645-35.2051C16.0645-28.5156 21.4844-23.1445 28.125-23.1445Z"/>
  </g>
  <g id="Heavy-L" transform="matrix(1 0 0 1 2566.13 1556)">
   <path d="M26.416-24.8535L60.2051-24.8535L60.2051 8.93555C60.2051 14.5996 64.8438 19.2383 70.5566 19.2383C76.2695 19.2383 80.9082 14.5996 80.9082 8.93555L80.9082-24.8535L114.697-24.8535C120.361-24.8535 125.049-29.4922 125.049-35.2051C125.049-40.9668 120.361-45.5566 114.697-45.5566L80.9082-45.5566L80.9082-79.3457C80.9082-85.0586 76.2695-89.6973 70.5566-89.6973C64.8438-89.6973 60.2051-85.0586 60.2051-79.3457L60.2051-45.5566L26.416-45.5566C20.7031-45.5566 16.0645-40.9668 16.0645-35.2051C16.0645-29.4922 20.7031-24.8535 26.416-24.8535Z"/>
  </g>
  <g id="Bold-L" transform="matrix(1 0 0 1 2270.5 1556)">
   <path d="M24.4629-26.8066L61.084-26.8066L61.084 9.76562C61.084 14.3555 64.8438 18.1641 69.4824 18.1641C74.1211 18.1641 77.8809 14.3555 77.8809 9.76562L77.8809-26.8066L114.453-26.8066C119.092-26.8066 122.9-30.6152 122.9-35.2539C122.9-39.8926 119.092-43.6523 114.453-43.6523L77.8809-43.6523L77.8809-80.2246C77.8809-84.8633 74.1211-88.6719 69.4824-88.6719C64.8438-88.6719 61.084-84.8633 61.084-80.2246L61.084-43.6523L24.4629-43.6523C19.873-43.6523 16.0645-39.8926 16.0645-35.2539C16.0645-30.6152 19.873-26.8066 24.4629-26.8066Z"/>
  </g>
  <g id="Semibold-L" transform="matrix(1 0 0 1 1974.52 1556)">
   <path d="M23.1445-28.1738L61.6699-28.1738L61.6699 10.3516C61.6699 14.209 64.8438 17.4316 68.75 17.4316C72.6562 17.4316 75.8301 14.209 75.8301 10.3516L75.8301-28.1738L114.307-28.1738C118.213-28.1738 121.436-31.3477 121.436-35.2539C121.436-39.1602 118.213-42.334 114.307-42.334L75.8301-42.334L75.8301-80.8594C75.8301-84.7168 72.6562-87.9395 68.75-87.9395C64.8438-87.9395 61.6699-84.7168 61.6699-80.8594L61.6699-42.334L23.1445-42.334C19.2871-42.334 16.0645-39.1602 16.0645-35.2539C16.0645-31.3477 19.2871-28.1738 23.1445-28.1738Z"/>
  </g>
  <g id="Medium-L" transform="matrix(1 0 0 1 1678.37 1556)">
   <path d="M22.168-29.1992L62.1094-29.1992L62.1094 10.791C62.1094 14.0625 64.8438 16.8457 68.1641 16.8457C71.5332 16.8457 74.2676 14.0625 74.2676 10.791L74.2676-29.1992L114.209-29.1992C117.529-29.1992 120.312-31.9336 120.312-35.2539C120.312-38.623 117.529-41.3574 114.209-41.3574L74.2676-41.3574L74.2676-81.2988C74.2676-84.6191 71.5332-87.4023 68.1641-87.4023C64.8438-87.4023 62.1094-84.6191 62.1094-81.2988L62.1094-41.3574L22.168-41.3574C18.8477-41.3574 16.0645-38.623 16.0645-35.2539C16.0645-31.9336 18.8477-29.1992 22.168-29.1992Z"/>
  </g>
  <g id="Regular-L" transform="matrix(1 0 0 1 1382.39 1556)">
   <path d="M20.8496-30.5176L62.6953-30.5176L62.6953 11.3281C62.6953 13.916 64.8438 16.1133 67.4316 16.1133C70.0684 16.1133 72.2168 13.916 72.2168 11.3281L72.2168-30.5176L114.062-30.5176C116.65-30.5176 118.848-32.666 118.848-35.2539C118.848-37.8906 116.65-40.0391 114.062-40.0391L72.2168-40.0391L72.2168-81.8848C72.2168-84.4727 70.0684-86.6699 67.4316-86.6699C64.8438-86.6699 62.6953-84.4727 62.6953-81.8848L62.6953-40.0391L20.8496-40.0391C18.2617-40.0391 16.0645-37.8906 16.0645-35.2539C16.0645-32.666 18.2617-30.5176 20.8496-30.5176Z"/>
  </g>
  <g id="Light-L" transform="matrix(1 0 0 1 1086.48 1556)">
   <path d="M19.6289-31.6895L63.0371-31.6895L63.0371 11.7188C63.0371 13.6719 64.6973 15.332 66.6504 15.332C68.6035 15.332 70.2148 13.6719 70.2148 11.7188L70.2148-31.6895L113.623-31.6895C115.576-31.6895 117.236-33.3008 117.236-35.2539C117.236-37.2559 115.576-38.8672 113.623-38.8672L70.2148-38.8672L70.2148-82.2754C70.2148-84.1797 68.6035-85.8398 66.6504-85.8398C64.6973-85.8398 63.0371-84.1797 63.0371-82.2754L63.0371-38.8672L19.6289-38.8672C17.7246-38.8672 16.0645-37.2559 16.0645-35.2539C16.0645-33.3008 17.7246-31.6895 19.6289-31.6895Z"/>
  </g>
  <g id="Thin-L" transform="matrix(1 0 0 1 790.846 1556)">
   <path d="M18.0664-33.252L63.5254-33.252L63.5254 12.207C63.5254 13.3301 64.4531 14.209 65.5762 14.209C66.6992 14.209 67.5781 13.3301 67.5781 12.207L67.5781-33.252L113.037-33.252C114.16-33.252 115.088-34.1797 115.088-35.2539C115.088-36.377 114.16-37.3047 113.037-37.3047L67.5781-37.3047L67.5781-82.7637C67.5781-83.8379 66.6992-84.7656 65.5762-84.7656C64.4531-84.7656 63.5254-83.8379 63.5254-82.7637L63.5254-37.3047L18.0664-37.3047C16.9922-37.3047 16.0645-36.377 16.0645-35.2539C16.0645-34.1797 16.9922-33.252 18.0664-33.252Z"/>
  </g>
  <g id="Ultralight-L" transform="matrix(1 0 0 1 494.696 1556)">
   <path d="M17.2852-34.0332L63.7695-34.0332L63.7695 12.4512C63.7695 13.1348 64.3555 13.6719 65.0391 13.6719C65.6738 13.6719 66.2598 13.1348 66.2598 12.4512L66.2598-34.0332L112.744-34.0332C113.428-34.0332 113.965-34.6191 113.965-35.2539C113.965-35.9375 113.428-36.4746 112.744-36.4746L66.2598-36.4746L66.2598-83.0078C66.2598-83.6914 65.6738-84.2285 65.0391-84.2285C64.3555-84.2285 63.7695-83.6914 63.7695-83.0078L63.7695-36.4746L17.2852-36.4746C16.6016-36.4746 16.0645-35.9375 16.0645-35.2539C16.0645-34.6191 16.6016-34.0332 17.2852-34.0332Z"/>
  </g>
  <g id="Black-M" transform="matrix(1 0 0 1 2877.13 1126)">
   <path d="M23.4863-24.1699L45.2148-24.1699L45.2148-2.44141C45.2148 3.71094 50.1465 8.64258 56.25 8.64258C62.4023 8.64258 67.334 3.71094 67.334-2.44141L67.334-24.1699L89.0625-24.1699C95.166-24.1699 100.098-29.0527 100.098-35.2051C100.098-41.3086 95.166-46.2402 89.0625-46.2402L67.334-46.2402L67.334-67.9688C67.334-74.1211 62.4023-79.0039 56.25-79.0039C50.1465-79.0039 45.2148-74.1211 45.2148-67.9688L45.2148-46.2402L23.4863-46.2402C17.3828-46.2402 12.4512-41.3086 12.4512-35.2051C12.4512-29.0527 17.3828-24.1699 23.4863-24.1699Z"/>
  </g>
  <g id="Heavy-M" transform="matrix(1 0 0 1 2581.24 1126)">
   <path d="M21.9238-25.7324L45.9473-25.7324L45.9473-1.70898C45.9473 3.51562 50.1953 7.76367 55.4199 7.76367C60.6934 7.76367 64.8926 3.51562 64.8926-1.70898L64.8926-25.7324L88.9648-25.7324C94.1895-25.7324 98.4375-29.9805 98.4375-35.2051C98.4375-40.4785 94.1895-44.6777 88.9648-44.6777L64.8926-44.6777L64.8926-68.75C64.8926-73.9746 60.6934-78.2227 55.4199-78.2227C50.1953-78.2227 45.9473-73.9746 45.9473-68.75L45.9473-44.6777L21.9238-44.6777C16.6992-44.6777 12.4512-40.4785 12.4512-35.2051C12.4512-29.9805 16.6992-25.7324 21.9238-25.7324Z"/>
  </g>
  <g id="Bold-M" transform="matrix(1 0 0 1 2285.46 1126)">
   <path d="M20.166-27.5391L46.7773-27.5391L46.7773-0.878906C46.7773 3.36914 50.2441 6.83594 54.4922 6.83594C58.7891 6.83594 62.207 3.36914 62.207-0.878906L62.207-27.5391L88.8672-27.5391C93.0664-27.5391 96.582-30.957 96.582-35.2051C96.582-39.502 93.0664-42.9199 88.8672-42.9199L62.207-42.9199L62.207-69.5801C62.207-73.8281 58.7891-77.2949 54.4922-77.2949C50.2441-77.2949 46.7773-73.8281 46.7773-69.5801L46.7773-42.9199L20.166-42.9199C15.918-42.9199 12.4512-39.502 12.4512-35.2051C12.4512-30.957 15.918-27.5391 20.166-27.5391Z"/>
  </g>
  <g id="Semibold-M" transform="matrix(1 0 0 1 1989.41 1126)">
   <path d="M18.9453-28.7598L47.3633-28.7598L47.3633-0.341797C47.3633 3.22266 50.293 6.15234 53.8574 6.15234C57.4219 6.15234 60.3516 3.22266 60.3516-0.341797L60.3516-28.7598L88.7695-28.7598C92.334-28.7598 95.2637-31.6406 95.2637-35.2539C95.2637-38.8184 92.334-41.748 88.7695-41.748L60.3516-41.748L60.3516-70.166C60.3516-73.7305 57.4219-76.6602 53.8574-76.6602C50.293-76.6602 47.3633-73.7305 47.3633-70.166L47.3633-41.748L18.9453-41.748C15.3809-41.748 12.4512-38.8184 12.4512-35.2539C12.4512-31.6406 15.3809-28.7598 18.9453-28.7598Z"/>
  </g>
  <g id="Medium-M" transform="matrix(1 0 0 1 1693.19 1126)">
   <path d="M18.0176-29.6875L47.8027-29.6875L47.8027 0.0976562C47.8027 3.125 50.293 5.66406 53.3691 5.66406C56.4453 5.66406 58.9355 3.125 58.9355 0.0976562L58.9355-29.6875L88.7207-29.6875C91.748-29.6875 94.2871-32.1777 94.2871-35.2539C94.2871-38.3301 91.748-40.8203 88.7207-40.8203L58.9355-40.8203L58.9355-70.6055C58.9355-73.6328 56.4453-76.1719 53.3691-76.1719C50.293-76.1719 47.8027-73.6328 47.8027-70.6055L47.8027-40.8203L18.0176-40.8203C14.9902-40.8203 12.4512-38.3301 12.4512-35.2539C12.4512-32.1777 14.9902-29.6875 18.0176-29.6875Z"/>
  </g>
  <g id="Regular-M" transform="matrix(1 0 0 1 1397.11 1126)">
   <path d="M16.7969-30.9082L48.3887-30.9082L48.3887 0.683594C48.3887 3.02734 50.3418 5.0293 52.7344 5.0293C55.127 5.0293 57.1289 3.02734 57.1289 0.683594L57.1289-30.9082L88.6719-30.9082C91.0156-30.9082 93.0176-32.8613 93.0176-35.2539C93.0176-37.6465 91.0156-39.6484 88.6719-39.6484L57.1289-39.6484L57.1289-71.1914C57.1289-73.5352 55.127-75.5371 52.7344-75.5371C50.3418-75.5371 48.3887-73.5352 48.3887-71.1914L48.3887-39.6484L16.7969-39.6484C14.4531-39.6484 12.4512-37.6465 12.4512-35.2539C12.4512-32.8613 14.4531-30.9082 16.7969-30.9082Z"/>
  </g>
  <g id="Light-M" transform="matrix(1 0 0 1 1101.13 1126)">
   <path d="M15.7715-31.9336L48.6816-31.9336L48.6816 0.976562C48.6816 2.7832 50.1953 4.29688 52.002 4.29688C53.8086 4.29688 55.3223 2.7832 55.3223 0.976562L55.3223-31.9336L88.2812-31.9336C90.0391-31.9336 91.5527-33.4473 91.5527-35.2539C91.5527-37.0605 90.0391-38.5742 88.2812-38.5742L55.3223-38.5742L55.3223-71.5332C55.3223-73.291 53.8086-74.8047 52.002-74.8047C50.1953-74.8047 48.6816-73.291 48.6816-71.5332L48.6816-38.5742L15.7715-38.5742C13.9648-38.5742 12.4512-37.0605 12.4512-35.2539C12.4512-33.4473 13.9648-31.9336 15.7715-31.9336Z"/>
  </g>
  <g id="Thin-M" transform="matrix(1 0 0 1 805.372 1126)">
   <path d="M14.3555-33.3496L49.1211-33.3496L49.1211 1.41602C49.1211 2.44141 50 3.32031 51.0254 3.32031C52.0996 3.32031 52.9297 2.44141 52.9297 1.41602L52.9297-33.3496L87.7441-33.3496C88.7695-33.3496 89.6484-34.2285 89.6484-35.2539C89.6484-36.3281 88.7695-37.1582 87.7441-37.1582L52.9297-37.1582L52.9297-71.9727C52.9297-72.998 52.0996-73.877 51.0254-73.877C50-73.877 49.1211-72.998 49.1211-71.9727L49.1211-37.1582L14.3555-37.1582C13.3301-37.1582 12.4512-36.3281 12.4512-35.2539C12.4512-34.2285 13.3301-33.3496 14.3555-33.3496Z"/>
  </g>
  <g id="Ultralight-M" transform="matrix(1 0 0 1 509.15 1126)">
   <path d="M13.623-34.082L49.3652-34.082L49.3652 1.66016C49.3652 2.29492 49.9023 2.83203 50.5371 2.83203C51.2207 2.83203 51.7578 2.29492 51.7578 1.66016L51.7578-34.082L87.4512-34.082C88.1348-34.082 88.6719-34.6191 88.6719-35.2539C88.6719-35.9375 88.1348-36.4258 87.4512-36.4258L51.7578-36.4258L51.7578-72.168C51.7578-72.8516 51.2207-73.3398 50.5371-73.3398C49.9023-73.3398 49.3652-72.8516 49.3652-72.168L49.3652-36.4258L13.623-36.4258C12.9883-36.4258 12.4512-35.9375 12.4512-35.2539C12.4512-34.6191 12.9883-34.082 13.623-34.082Z"/>
  </g>
  <g id="Black-S" transform="matrix(1 0 0 1 2889.36 696)">
   <path d="M18.3105-26.6602L35.498-26.6602L35.498-9.47266C35.498-4.73633 39.3066-0.927734 44.043-0.927734C48.7793-0.927734 52.5879-4.73633 52.5879-9.47266L52.5879-26.6602L69.7754-26.6602C74.5117-26.6602 78.3203-30.4688 78.3203-35.2051C78.3203-39.9414 74.5117-43.75 69.7754-43.75L52.5879-43.75L52.5879-60.9375C52.5879-65.6738 48.7793-69.4824 44.043-69.4824C39.3066-69.4824 35.498-65.6738 35.498-60.9375L35.498-43.75L18.3105-43.75C13.5742-43.75 9.76562-39.9414 9.76562-35.2051C9.76562-30.4688 13.5742-26.6602 18.3105-26.6602Z"/>
  </g>
  <g id="Heavy-S" transform="matrix(1 0 0 1 2593.21 696)">
   <path d="M17.2363-27.7832L36.0352-27.7832L36.0352-8.93555C36.0352-4.83398 39.3555-1.51367 43.5059-1.51367C47.6074-1.51367 50.9277-4.83398 50.9277-8.93555L50.9277-27.7832L69.7266-27.7832C73.877-27.7832 77.1973-31.1035 77.1973-35.2051C77.1973-39.3555 73.877-42.6758 69.7266-42.6758L50.9277-42.6758L50.9277-61.4746C50.9277-65.5762 47.6074-68.9453 43.5059-68.9453C39.3555-68.9453 36.0352-65.5762 36.0352-61.4746L36.0352-42.6758L17.2363-42.6758C13.0859-42.6758 9.76562-39.3555 9.76562-35.2051C9.76562-31.1035 13.0859-27.7832 17.2363-27.7832Z"/>
  </g>
  <g id="Bold-S" transform="matrix(1 0 0 1 2297.11 696)">
   <path d="M16.0156-29.0039L36.6211-29.0039L36.6211-8.34961C36.6211-4.93164 39.4043-2.14844 42.8711-2.14844C46.2891-2.14844 49.1211-4.93164 49.1211-8.34961L49.1211-29.0039L69.7266-29.0039C73.1445-29.0039 75.9766-31.7871 75.9766-35.2539C75.9766-38.6719 73.1445-41.4551 69.7266-41.4551L49.1211-41.4551L49.1211-62.1094C49.1211-65.5273 46.2891-68.3105 42.8711-68.3105C39.4043-68.3105 36.6211-65.5273 36.6211-62.1094L36.6211-41.4551L16.0156-41.4551C12.5977-41.4551 9.76562-38.6719 9.76562-35.2539C9.76562-31.7871 12.5977-29.0039 16.0156-29.0039Z"/>
  </g>
  <g id="Semibold-S" transform="matrix(1 0 0 1 2000.84 696)">
   <path d="M15.1855-29.834L37.0117-29.834L37.0117-7.95898C37.0117-5.0293 39.4531-2.58789 42.4316-2.58789C45.4102-2.58789 47.8516-5.0293 47.8516-7.95898L47.8516-29.834L69.6777-29.834C72.6562-29.834 75.0977-32.2754 75.0977-35.2539C75.0977-38.2324 72.6562-40.625 69.6777-40.625L47.8516-40.625L47.8516-62.5C47.8516-65.4297 45.4102-67.9199 42.4316-67.9199C39.4531-67.9199 37.0117-65.4297 37.0117-62.5L37.0117-40.625L15.1855-40.625C12.207-40.625 9.76562-38.2324 9.76562-35.2539C9.76562-32.2754 12.207-29.834 15.1855-29.834Z"/>
  </g>
  <g id="Medium-S" transform="matrix(1 0 0 1 1704.44 696)">
   <path d="M14.5508-30.4688L37.3535-30.4688L37.3535-7.66602C37.3535-5.07812 39.502-2.88086 42.0898-2.88086C44.7266-2.88086 46.875-5.07812 46.875-7.66602L46.875-30.4688L69.6777-30.4688C72.2656-30.4688 74.4629-32.6172 74.4629-35.2539C74.4629-37.8418 72.2656-39.9902 69.6777-39.9902L46.875-39.9902L46.875-62.8418C46.875-65.3809 44.7266-67.5781 42.0898-67.5781C39.502-67.5781 37.3535-65.3809 37.3535-62.8418L37.3535-39.9902L14.5508-39.9902C11.9629-39.9902 9.76562-37.8418 9.76562-35.2539C9.76562-32.6172 11.9629-30.4688 14.5508-30.4688Z"/>
  </g>
  <g id="Regular-S" transform="matrix(1 0 0 1 1408.17 696)">
   <path d="M13.7207-31.2988L37.7441-31.2988L37.7441-7.27539C37.7441-5.17578 39.5508-3.32031 41.6992-3.32031C43.8477-3.32031 45.6055-5.17578 45.6055-7.27539L45.6055-31.2988L69.6777-31.2988C71.7773-31.2988 73.584-33.1055 73.584-35.2539C73.584-37.4023 71.7773-39.209 69.6777-39.209L45.6055-39.209L45.6055-63.2324C45.6055-65.332 43.8477-67.1875 41.6992-67.1875C39.5508-67.1875 37.7441-65.332 37.7441-63.2324L37.7441-39.209L13.7207-39.209C11.5723-39.209 9.76562-37.4023 9.76562-35.2539C9.76562-33.1055 11.5723-31.2988 13.7207-31.2988Z"/>
  </g>
  <g id="Light-S" transform="matrix(1 0 0 1 1112.09 696)">
   <path d="M12.7441-32.2754L38.0371-32.2754L38.0371-6.98242C38.0371-5.37109 39.4043-4.00391 41.0156-4.00391C42.6758-4.00391 44.043-5.37109 44.043-6.98242L44.043-32.2754L69.3359-32.2754C70.9473-32.2754 72.3145-33.5938 72.3145-35.2539C72.3145-36.9141 70.9473-38.2324 69.3359-38.2324L44.043-38.2324L44.043-63.5254C44.043-65.1367 42.6758-66.5039 41.0156-66.5039C39.4043-66.5039 38.0371-65.1367 38.0371-63.5254L38.0371-38.2324L12.7441-38.2324C11.1328-38.2324 9.76562-36.9141 9.76562-35.2539C9.76562-33.5938 11.1328-32.2754 12.7441-32.2754Z"/>
  </g>
  <g id="Thin-S" transform="matrix(1 0 0 1 816.237 696)">
   <path d="M11.5234-33.4961L38.4277-33.4961L38.4277-6.5918C38.4277-5.61523 39.209-4.83398 40.1855-4.83398C41.1621-4.83398 41.9434-5.61523 41.9434-6.5918L41.9434-33.4961L68.8477-33.4961C69.8242-33.4961 70.6055-34.2773 70.6055-35.2539C70.6055-36.2305 69.8242-37.0117 68.8477-37.0117L41.9434-37.0117L41.9434-63.916C41.9434-64.8926 41.1621-65.6738 40.1855-65.6738C39.209-65.6738 38.4277-64.8926 38.4277-63.916L38.4277-37.0117L11.5234-37.0117C10.5957-37.0117 9.76562-36.2305 9.76562-35.2539C9.76562-34.2773 10.5957-33.4961 11.5234-33.4961Z"/>
  </g>
  <g id="Ultralight-S" transform="matrix(1 0 0 1 519.965 696)">
   <path d="M10.8887-34.1309L38.623-34.1309L38.623-6.39648C38.623-5.76172 39.1113-5.27344 39.7461-5.27344C40.3809-5.27344 40.8691-5.76172 40.8691-6.39648L40.8691-34.1309L68.6035-34.1309C69.2383-34.1309 69.7266-34.6191 69.7266-35.2539C69.7266-35.8887 69.2383-36.377 68.6035-36.377L40.8691-36.377L40.8691-64.1113C40.8691-64.7461 40.3809-65.2344 39.7461-65.2344C39.1113-65.2344 38.623-64.7461 38.623-64.1113L38.623-36.377L10.8887-36.377C10.2539-36.377 9.76562-35.8887 9.76562-35.2539C9.76562-34.6191 10.2539-34.1309 10.8887-34.1309Z"/>
  </g>
 </g>
</svg>
