<?xml version="1.0" encoding="UTF-8"?>
<!--Generator: Apple Native CoreSVG 123-->
<!DOCTYPE svg
PUBLIC "-//W3C//DTD SVG 1.1//EN"
       "http://www.w3.org/Graphics/SVG/1.1/DTD/svg11.dtd">
<svg version="1.1" xmlns="http://www.w3.org/2000/svg" xmlns:xlink="http://www.w3.org/1999/xlink" width="3300" height="2200">
 <!--glyph: "uni10039F.medium", point size: 100.000000, font version: "Version 15.0d7e11", template writer version: "5"-->
 <g id="Notes">
  <rect height="2200" id="artboard" style="fill:white;opacity:1" width="3300" x="0" y="0"/>
  <line id="" style="fill:none;stroke:black;opacity:1;stroke-width:0.5;" x1="263" x2="3036" y1="292" y2="292"/>
  <text style="stroke:none;fill:black;font-family:-apple-system,&quot;SF Pro Display&quot;,&quot;SF Pro Text&quot;,Helvetica,sans-serif;font-weight:bold;" transform="matrix(1 0 0 1 263 322)">Weight/Scale Variations</text>
  <text style="stroke:none;fill:black;font-family:-apple-system,&quot;SF Pro Display&quot;,&quot;SF Pro Text&quot;,Helvetica,sans-serif;text-anchor:middle;" transform="matrix(1 0 0 1 559.711 322)">Ultralight</text>
  <text style="stroke:none;fill:black;font-family:-apple-system,&quot;SF Pro Display&quot;,&quot;SF Pro Text&quot;,Helvetica,sans-serif;text-anchor:middle;" transform="matrix(1 0 0 1 856.422 322)">Thin</text>
  <text style="stroke:none;fill:black;font-family:-apple-system,&quot;SF Pro Display&quot;,&quot;SF Pro Text&quot;,Helvetica,sans-serif;text-anchor:middle;" transform="matrix(1 0 0 1 1153.13 322)">Light</text>
  <text style="stroke:none;fill:black;font-family:-apple-system,&quot;SF Pro Display&quot;,&quot;SF Pro Text&quot;,Helvetica,sans-serif;text-anchor:middle;" transform="matrix(1 0 0 1 1449.84 322)">Regular</text>
  <text style="stroke:none;fill:black;font-family:-apple-system,&quot;SF Pro Display&quot;,&quot;SF Pro Text&quot;,Helvetica,sans-serif;text-anchor:middle;" transform="matrix(1 0 0 1 1746.56 322)">Medium</text>
  <text style="stroke:none;fill:black;font-family:-apple-system,&quot;SF Pro Display&quot;,&quot;SF Pro Text&quot;,Helvetica,sans-serif;text-anchor:middle;" transform="matrix(1 0 0 1 2043.27 322)">Semibold</text>
  <text style="stroke:none;fill:black;font-family:-apple-system,&quot;SF Pro Display&quot;,&quot;SF Pro Text&quot;,Helvetica,sans-serif;text-anchor:middle;" transform="matrix(1 0 0 1 2339.98 322)">Bold</text>
  <text style="stroke:none;fill:black;font-family:-apple-system,&quot;SF Pro Display&quot;,&quot;SF Pro Text&quot;,Helvetica,sans-serif;text-anchor:middle;" transform="matrix(1 0 0 1 2636.69 322)">Heavy</text>
  <text style="stroke:none;fill:black;font-family:-apple-system,&quot;SF Pro Display&quot;,&quot;SF Pro Text&quot;,Helvetica,sans-serif;text-anchor:middle;" transform="matrix(1 0 0 1 2933.4 322)">Black</text>
  <line id="" style="fill:none;stroke:black;opacity:1;stroke-width:0.5;" x1="263" x2="3036" y1="1903" y2="1903"/>
  <g id="" transform="matrix(1 0 0 1 263 1933)">
   <path d="M 9.24805 0.830078 C 13.5547 0.830078 17.1387 -2.74414 17.1387 -7.05078 C 17.1387 -11.3574 13.5449 -14.9316 9.23828 -14.9316 C 4.94141 -14.9316 1.36719 -11.3574 1.36719 -7.05078 C 1.36719 -2.74414 4.95117 0.830078 9.24805 0.830078 Z M 9.24805 -0.654297 C 5.70312 -0.654297 2.87109 -3.49609 2.87109 -7.05078 C 2.87109 -10.6055 5.69336 -13.4473 9.23828 -13.4473 C 12.793 -13.4473 15.6348 -10.6055 15.6445 -7.05078 C 15.6543 -3.49609 12.8027 -0.654297 9.24805 -0.654297 Z M 9.22852 -3.42773 C 9.69727 -3.42773 9.9707 -3.74023 9.9707 -4.25781 L 9.9707 -6.31836 L 12.1973 -6.31836 C 12.6953 -6.31836 13.0371 -6.57227 13.0371 -7.04102 C 13.0371 -7.51953 12.7148 -7.7832 12.1973 -7.7832 L 9.9707 -7.7832 L 9.9707 -10.0098 C 9.9707 -10.5273 9.69727 -10.8496 9.22852 -10.8496 C 8.75977 -10.8496 8.50586 -10.5078 8.50586 -10.0098 L 8.50586 -7.7832 L 6.29883 -7.7832 C 5.78125 -7.7832 5.44922 -7.51953 5.44922 -7.04102 C 5.44922 -6.57227 5.80078 -6.31836 6.29883 -6.31836 L 8.50586 -6.31836 L 8.50586 -4.25781 C 8.50586 -3.75977 8.75977 -3.42773 9.22852 -3.42773 Z"/>
  </g>
  <g id="" transform="matrix(1 0 0 1 281.506 1933)">
   <path d="M 11.709 2.91016 C 17.1582 2.91016 21.6699 -1.60156 21.6699 -7.05078 C 21.6699 -12.4902 17.1484 -17.0117 11.6992 -17.0117 C 6.25977 -17.0117 1.74805 -12.4902 1.74805 -7.05078 C 1.74805 -1.60156 6.26953 2.91016 11.709 2.91016 Z M 11.709 1.25 C 7.09961 1.25 3.41797 -2.44141 3.41797 -7.05078 C 3.41797 -11.6504 7.08984 -15.3516 11.6992 -15.3516 C 16.3086 -15.3516 20 -11.6504 20.0098 -7.05078 C 20.0195 -2.44141 16.3184 1.25 11.709 1.25 Z M 11.6895 -2.41211 C 12.207 -2.41211 12.5195 -2.77344 12.5195 -3.33984 L 12.5195 -6.23047 L 15.5762 -6.23047 C 16.123 -6.23047 16.5039 -6.51367 16.5039 -7.03125 C 16.5039 -7.55859 16.1426 -7.86133 15.5762 -7.86133 L 12.5195 -7.86133 L 12.5195 -10.9277 C 12.5195 -11.5039 12.207 -11.8555 11.6895 -11.8555 C 11.1719 -11.8555 10.8789 -11.4844 10.8789 -10.9277 L 10.8789 -7.86133 L 7.83203 -7.86133 C 7.26562 -7.86133 6.89453 -7.55859 6.89453 -7.03125 C 6.89453 -6.51367 7.28516 -6.23047 7.83203 -6.23047 L 10.8789 -6.23047 L 10.8789 -3.33984 C 10.8789 -2.79297 11.1719 -2.41211 11.6895 -2.41211 Z"/>
  </g>
  <g id="" transform="matrix(1 0 0 1 304.924 1933)">
   <path d="M 14.9707 5.67383 C 21.9336 5.67383 27.6953 -0.078125 27.6953 -7.04102 C 27.6953 -14.0039 21.9238 -19.7559 14.9609 -19.7559 C 8.00781 -19.7559 2.25586 -14.0039 2.25586 -7.04102 C 2.25586 -0.078125 8.01758 5.67383 14.9707 5.67383 Z M 14.9707 3.85742 C 8.93555 3.85742 4.08203 -1.00586 4.08203 -7.04102 C 4.08203 -13.0762 8.92578 -17.9395 14.9609 -17.9395 C 21.0059 -17.9395 25.8594 -13.0762 25.8691 -7.04102 C 25.8789 -1.00586 21.0156 3.85742 14.9707 3.85742 Z M 14.9512 -1.06445 C 15.5176 -1.06445 15.8691 -1.45508 15.8691 -2.06055 L 15.8691 -6.13281 L 20.1074 -6.13281 C 20.6934 -6.13281 21.1133 -6.46484 21.1133 -7.02148 C 21.1133 -7.59766 20.7227 -7.93945 20.1074 -7.93945 L 15.8691 -7.93945 L 15.8691 -12.1875 C 15.8691 -12.8027 15.5176 -13.1934 14.9512 -13.1934 C 14.3848 -13.1934 14.0625 -12.7832 14.0625 -12.1875 L 14.0625 -7.93945 L 9.83398 -7.93945 C 9.21875 -7.93945 8.80859 -7.59766 8.80859 -7.02148 C 8.80859 -6.46484 9.23828 -6.13281 9.83398 -6.13281 L 14.0625 -6.13281 L 14.0625 -2.06055 C 14.0625 -1.47461 14.3848 -1.06445 14.9512 -1.06445 Z"/>
  </g>
  <text style="stroke:none;fill:black;font-family:-apple-system,&quot;SF Pro Display&quot;,&quot;SF Pro Text&quot;,Helvetica,sans-serif;font-weight:bold;" transform="matrix(1 0 0 1 263 1953)">Design Variations</text>
  <text style="stroke:none;fill:black;font-family:-apple-system,&quot;SF Pro Display&quot;,&quot;SF Pro Text&quot;,Helvetica,sans-serif;" transform="matrix(1 0 0 1 263 1971)">Symbols are supported in up to nine weights and three scales.</text>
  <text style="stroke:none;fill:black;font-family:-apple-system,&quot;SF Pro Display&quot;,&quot;SF Pro Text&quot;,Helvetica,sans-serif;" transform="matrix(1 0 0 1 263 1989)">For optimal layout with text and other symbols, vertically align</text>
  <text style="stroke:none;fill:black;font-family:-apple-system,&quot;SF Pro Display&quot;,&quot;SF Pro Text&quot;,Helvetica,sans-serif;" transform="matrix(1 0 0 1 263 2007)">symbols with the adjacent text.</text>
  <rect height="14" id="" style="fill:#00AEEF;stroke:none;opacity:0.4;" width="3" x="776" y="1919"/>
  <g id="" transform="matrix(1 0 0 1 779 1933)">
   <path d="M 10.5273 0 L 12.373 0 L 7.17773 -14.0918 L 5.43945 -14.0918 L 0.244141 0 L 2.08984 0 L 3.50586 -4.0332 L 9.11133 -4.0332 Z M 6.2793 -11.9531 L 6.33789 -11.9531 L 8.59375 -5.52734 L 4.02344 -5.52734 Z"/>
  </g>
  <rect height="14" id="" style="fill:#00AEEF;stroke:none;opacity:0.4;" width="3" x="791.617" y="1919"/>
  <text style="stroke:none;fill:black;font-family:-apple-system,&quot;SF Pro Display&quot;,&quot;SF Pro Text&quot;,Helvetica,sans-serif;font-weight:bold;" transform="matrix(1 0 0 1 776 1953)">Margins</text>
  <text style="stroke:none;fill:black;font-family:-apple-system,&quot;SF Pro Display&quot;,&quot;SF Pro Text&quot;,Helvetica,sans-serif;" transform="matrix(1 0 0 1 776 1971)">Leading and trailing margins on the left and right side of each symbol</text>
  <text style="stroke:none;fill:black;font-family:-apple-system,&quot;SF Pro Display&quot;,&quot;SF Pro Text&quot;,Helvetica,sans-serif;" transform="matrix(1 0 0 1 776 1989)">can be adjusted by modifying the width of the blue rectangles.</text>
  <text style="stroke:none;fill:black;font-family:-apple-system,&quot;SF Pro Display&quot;,&quot;SF Pro Text&quot;,Helvetica,sans-serif;" transform="matrix(1 0 0 1 776 2007)">Modifications are automatically applied proportionally to all</text>
  <text style="stroke:none;fill:black;font-family:-apple-system,&quot;SF Pro Display&quot;,&quot;SF Pro Text&quot;,Helvetica,sans-serif;" transform="matrix(1 0 0 1 776 2025)">scales and weights.</text>
  <g id="" transform="matrix(1 0 0 1 1289 1933)">
   <path d="M 2.83203 3.11523 L 4.375 4.6582 C 5.22461 5.48828 6.19141 5.41992 7.06055 4.46289 L 17.2754 -6.66016 C 17.7051 -6.36719 18.0957 -6.37695 18.5645 -6.47461 L 19.6094 -6.68945 L 20.3027 -5.99609 L 20.2539 -5.47852 C 20.1855 -4.95117 20.3516 -4.53125 20.8496 -4.0332 L 21.6602 -3.22266 C 22.168 -2.71484 22.8223 -2.68555 23.3008 -3.16406 L 26.5527 -6.41602 C 27.0312 -6.89453 27.0117 -7.54883 26.5039 -8.05664 L 25.6836 -8.87695 C 25.1855 -9.375 24.7754 -9.55078 24.2383 -9.47266 L 23.7109 -9.41406 L 23.0566 -10.0781 L 23.3398 -11.2207 C 23.4863 -11.7871 23.3398 -12.2559 22.7148 -12.8613 L 20.3027 -15.2539 C 16.7578 -18.7793 12.2266 -18.6719 9.11133 -15.5371 C 8.69141 -15.1074 8.64258 -14.5215 8.91602 -14.0918 C 9.15039 -13.7207 9.62891 -13.4961 10.2734 -13.6621 C 11.7871 -14.043 13.3008 -13.9258 14.7852 -12.9199 L 14.1602 -11.3379 C 13.9258 -10.752 13.9453 -10.2734 14.1797 -9.83398 L 3.01758 0.439453 C 2.08008 1.30859 1.97266 2.25586 2.83203 3.11523 Z M 10.6738 -15.1465 C 13.3398 -17.1387 16.6504 -16.8262 19.0527 -14.4141 L 21.6797 -11.8066 C 21.9141 -11.5723 21.9434 -11.3867 21.8848 -11.0938 L 21.5039 -9.53125 L 23.0762 -7.95898 L 24.043 -8.04688 C 24.3262 -8.07617 24.4141 -8.05664 24.6387 -7.83203 L 25.2637 -7.20703 L 22.5098 -4.46289 L 21.8848 -5.07812 C 21.6602 -5.30273 21.6406 -5.40039 21.6699 -5.68359 L 21.7578 -6.64062 L 20.1953 -8.20312 L 18.5742 -7.89062 C 18.291 -7.83203 18.1445 -7.83203 17.9102 -8.07617 L 15.7324 -10.2539 C 15.5078 -10.4883 15.4785 -10.625 15.6055 -10.9473 L 16.5527 -13.2227 C 14.9512 -14.7559 12.8418 -15.6055 10.8008 -14.9512 C 10.7129 -14.9219 10.6445 -14.9414 10.6152 -14.9805 C 10.5859 -15.0293 10.5859 -15.0781 10.6738 -15.1465 Z M 4.10156 2.41211 C 3.61328 1.91406 3.78906 1.61133 4.12109 1.30859 L 15.0781 -8.80859 L 16.3086 -7.57812 L 6.15234 3.34961 C 5.84961 3.68164 5.46875 3.7793 5.06836 3.37891 Z"/>
  </g>
  <text style="stroke:none;fill:black;font-family:-apple-system,&quot;SF Pro Display&quot;,&quot;SF Pro Text&quot;,Helvetica,sans-serif;font-weight:bold;" transform="matrix(1 0 0 1 1289 1953)">Exporting</text>
  <text style="stroke:none;fill:black;font-family:-apple-system,&quot;SF Pro Display&quot;,&quot;SF Pro Text&quot;,Helvetica,sans-serif;" transform="matrix(1 0 0 1 1289 1971)">Symbols should be outlined when exporting to ensure the</text>
  <text style="stroke:none;fill:black;font-family:-apple-system,&quot;SF Pro Display&quot;,&quot;SF Pro Text&quot;,Helvetica,sans-serif;" transform="matrix(1 0 0 1 1289 1989)">design is preserved when submitting to Xcode.</text>
  <text id="template-version" style="stroke:none;fill:black;font-family:-apple-system,&quot;SF Pro Display&quot;,&quot;SF Pro Text&quot;,Helvetica,sans-serif;text-anchor:end;" transform="matrix(1 0 0 1 3036 1933)">Template v.1.0</text>
  <text style="stroke:none;fill:black;font-family:-apple-system,&quot;SF Pro Display&quot;,&quot;SF Pro Text&quot;,Helvetica,sans-serif;text-anchor:end;" transform="matrix(1 0 0 1 3036 1951)">Generated from house.fill</text>
  <text style="stroke:none;fill:black;font-family:-apple-system,&quot;SF Pro Display&quot;,&quot;SF Pro Text&quot;,Helvetica,sans-serif;text-anchor:end;" transform="matrix(1 0 0 1 3036 1969)">Typeset at 100 points</text>
  <text style="stroke:none;fill:black;font-family:-apple-system,&quot;SF Pro Display&quot;,&quot;SF Pro Text&quot;,Helvetica,sans-serif;" transform="matrix(1 0 0 1 263 726)">Small</text>
  <text style="stroke:none;fill:black;font-family:-apple-system,&quot;SF Pro Display&quot;,&quot;SF Pro Text&quot;,Helvetica,sans-serif;" transform="matrix(1 0 0 1 263 1156)">Medium</text>
  <text style="stroke:none;fill:black;font-family:-apple-system,&quot;SF Pro Display&quot;,&quot;SF Pro Text&quot;,Helvetica,sans-serif;" transform="matrix(1 0 0 1 263 1586)">Large</text>
 </g>
 <g id="Guides">
  <g id="H-reference" style="fill:#27AAE1;stroke:none;" transform="matrix(1 0 0 1 339 696)">
   <path d="M 54.9316 0 L 57.666 0 L 30.5664 -70.459 L 28.0762 -70.459 L 0.976562 0 L 3.66211 0 L 12.9395 -24.4629 L 45.7031 -24.4629 Z M 29.1992 -67.0898 L 29.4434 -67.0898 L 44.8242 -26.709 L 13.8184 -26.709 Z"/>
  </g>
  <line id="Baseline-S" style="fill:none;stroke:#27AAE1;opacity:1;stroke-width:0.577;" x1="263" x2="3036" y1="696" y2="696"/>
  <line id="Capline-S" style="fill:none;stroke:#27AAE1;opacity:1;stroke-width:0.577;" x1="263" x2="3036" y1="625.541" y2="625.541"/>
  <g id="H-reference" style="fill:#27AAE1;stroke:none;" transform="matrix(1 0 0 1 339 1126)">
   <path d="M 54.9316 0 L 57.666 0 L 30.5664 -70.459 L 28.0762 -70.459 L 0.976562 0 L 3.66211 0 L 12.9395 -24.4629 L 45.7031 -24.4629 Z M 29.1992 -67.0898 L 29.4434 -67.0898 L 44.8242 -26.709 L 13.8184 -26.709 Z"/>
  </g>
  <line id="Baseline-M" style="fill:none;stroke:#27AAE1;opacity:1;stroke-width:0.577;" x1="263" x2="3036" y1="1126" y2="1126"/>
  <line id="Capline-M" style="fill:none;stroke:#27AAE1;opacity:1;stroke-width:0.577;" x1="263" x2="3036" y1="1055.54" y2="1055.54"/>
  <g id="H-reference" style="fill:#27AAE1;stroke:none;" transform="matrix(1 0 0 1 339 1556)">
   <path d="M 54.9316 0 L 57.666 0 L 30.5664 -70.459 L 28.0762 -70.459 L 0.976562 0 L 3.66211 0 L 12.9395 -24.4629 L 45.7031 -24.4629 Z M 29.1992 -67.0898 L 29.4434 -67.0898 L 44.8242 -26.709 L 13.8184 -26.709 Z"/>
  </g>
  <line id="Baseline-L" style="fill:none;stroke:#27AAE1;opacity:1;stroke-width:0.577;" x1="263" x2="3036" y1="1556" y2="1556"/>
  <line id="Capline-L" style="fill:none;stroke:#27AAE1;opacity:1;stroke-width:0.577;" x1="263" x2="3036" y1="1485.54" y2="1485.54"/>
  <rect height="119.336" id="left-margin" style="fill:#00AEEF;stroke:none;opacity:0.4;" width="12.4512" x="1380.36" y="1030.79"/>
  <rect height="119.336" id="right-margin" style="fill:#00AEEF;stroke:none;opacity:0.4;" width="12.4512" x="1506.88" y="1030.79"/>
 </g>
 <g id="Symbols">
  <g id="Black-L" transform="matrix(1 0 0 1 2831.86 1556)">
   <path d="M 16.0645 -39.7949 C 16.0645 -34.4727 20.4102 -30.3223 26.1719 -30.3223 C 29.1504 -30.3223 31.8359 -31.543 34.0332 -33.5449 L 100.391 -94.4824 C 100.684 -94.7754 101.025 -94.9707 101.514 -94.9707 C 101.904 -94.9707 102.393 -94.8242 102.686 -94.5312 L 169.043 -33.5449 C 171.24 -31.543 173.926 -30.3223 176.904 -30.3223 C 182.666 -30.3223 187.012 -34.4727 187.012 -39.7949 C 187.012 -42.4805 186.426 -45.1172 183.203 -48.0469 L 157.129 -71.8262 L 157.129 -111.816 C 157.129 -114.941 155.127 -116.943 152.002 -116.943 L 135.596 -116.943 C 132.471 -116.943 130.371 -114.941 130.371 -111.816 L 130.371 -96.2402 L 114.697 -110.547 C 110.645 -114.258 106.348 -116.016 101.465 -116.016 C 96.6797 -116.016 92.3828 -114.16 88.3789 -110.547 L 19.873 -48.0469 C 16.6504 -45.1172 16.0645 -42.4805 16.0645 -39.7949 Z M 42.7734 13.623 C 42.7734 23.7793 49.9023 30.3711 60.8398 30.3711 L 84.1797 30.3711 L 84.1797 -17.0898 C 84.1797 -20.2148 86.2793 -22.2656 89.4043 -22.2656 L 113.77 -22.2656 C 116.895 -22.2656 118.896 -20.2148 118.896 -17.0898 L 118.896 30.3711 L 142.285 30.3711 C 153.271 30.3711 160.352 23.7793 160.352 13.623 L 160.352 -30.2734 L 102.686 -83.0566 C 102.393 -83.3984 101.953 -83.5449 101.562 -83.5449 C 101.123 -83.5449 100.732 -83.3984 100.391 -83.0566 L 42.7734 -30.2734 Z"/>
  </g>
  <g id="Heavy-L" transform="matrix(1 0 0 1 2538.25 1556)">
   <path d="M 16.0645 -39.9414 C 16.0645 -35.3027 19.873 -31.7383 24.8535 -31.7383 C 27.4902 -31.7383 29.834 -32.8613 31.7383 -34.6191 L 97.0215 -94.4336 C 97.4121 -94.8242 97.8516 -95.0195 98.4375 -95.0195 C 98.9258 -95.0195 99.4629 -94.873 99.9023 -94.4824 L 165.137 -34.6191 C 167.041 -32.8613 169.385 -31.7383 172.021 -31.7383 C 177.002 -31.7383 180.811 -35.3027 180.811 -39.9414 C 180.811 -42.3828 180.225 -44.6289 177.49 -47.0703 L 152.686 -69.7266 L 152.686 -109.229 C 152.686 -112.207 150.781 -114.111 147.803 -114.111 L 133.594 -114.111 C 130.615 -114.111 128.613 -112.207 128.613 -109.229 L 128.613 -91.6504 L 110.156 -108.545 C 106.592 -111.816 102.686 -113.379 98.3887 -113.379 C 94.1406 -113.379 90.2344 -111.768 86.7188 -108.545 L 19.3848 -47.0703 C 16.6504 -44.6289 16.0645 -42.3828 16.0645 -39.9414 Z M 40.5762 13.4277 C 40.5762 23.1445 47.168 29.3457 57.5195 29.3457 L 81.4453 29.3457 L 81.4453 -17.4805 C 81.4453 -20.5078 83.4961 -22.4609 86.5234 -22.4609 L 110.449 -22.4609 C 113.477 -22.4609 115.43 -20.5078 115.43 -17.4805 L 115.43 29.3457 L 139.404 29.3457 C 149.756 29.3457 156.348 23.1445 156.348 13.4277 L 156.348 -31.543 L 99.8535 -83.0078 C 99.4629 -83.3984 98.9258 -83.6426 98.4375 -83.6426 C 97.9004 -83.6426 97.4121 -83.3984 96.9238 -82.959 L 40.5762 -31.3965 Z"/>
  </g>
  <g id="Bold-L" transform="matrix(1 0 0 1 2245.01 1556)">
   <path d="M 16.0645 -40.0879 C 16.0645 -36.1816 19.2383 -33.3008 23.3887 -33.3008 C 25.6348 -33.3008 27.5879 -34.3262 29.248 -35.8398 L 93.2129 -94.3848 C 93.75 -94.873 94.3359 -95.1172 94.9707 -95.1172 C 95.5566 -95.1172 96.1914 -94.9219 96.7773 -94.3848 L 160.693 -35.8398 C 162.354 -34.3262 164.307 -33.3008 166.553 -33.3008 C 170.703 -33.3008 173.877 -36.1816 173.877 -40.0879 C 173.877 -42.2363 173.291 -44.043 171.143 -45.9961 L 147.705 -67.4316 L 147.705 -106.396 C 147.705 -109.18 145.898 -110.986 143.115 -110.986 L 131.348 -110.986 C 128.564 -110.986 126.709 -109.18 126.709 -106.396 L 126.709 -86.5234 L 105.078 -106.299 C 102.002 -109.131 98.6328 -110.498 94.9219 -110.498 C 91.2598 -110.498 87.8906 -109.082 84.8633 -106.299 L 18.7988 -45.9961 C 16.6504 -44.043 16.0645 -42.2363 16.0645 -40.0879 Z M 38.0859 13.2324 C 38.0859 22.4121 44.1406 28.1738 53.8086 28.1738 L 78.3691 28.1738 L 78.3691 -17.9199 C 78.3691 -20.8496 80.3223 -22.7539 83.252 -22.7539 L 106.787 -22.7539 C 109.717 -22.7539 111.572 -20.8496 111.572 -17.9199 L 111.572 28.1738 L 136.182 28.1738 C 145.85 28.1738 151.855 22.4121 151.855 13.2324 L 151.855 -32.9102 L 96.7285 -82.9102 C 96.1914 -83.4473 95.5078 -83.6914 94.9219 -83.6914 C 94.2871 -83.6914 93.6523 -83.4473 93.0664 -82.8613 L 38.0859 -32.6172 Z"/>
  </g>
  <g id="Semibold-L" transform="matrix(1 0 0 1 1950.69 1556)">
   <path d="M 16.0645 -40.1855 C 16.0645 -36.8164 18.7988 -34.4238 22.3633 -34.4238 C 24.3652 -34.4238 26.0742 -35.3027 27.4902 -36.6699 L 90.5762 -94.3359 C 91.2109 -94.9219 91.8457 -95.2148 92.5781 -95.2148 C 93.2617 -95.2148 93.9941 -94.9219 94.6289 -94.3359 L 157.666 -36.6699 C 159.131 -35.3027 160.791 -34.4238 162.793 -34.4238 C 166.357 -34.4238 169.092 -36.8164 169.092 -40.1855 C 169.092 -42.1387 168.506 -43.7012 166.797 -45.2637 L 144.238 -65.8203 L 144.238 -104.443 C 144.238 -107.08 142.529 -108.838 139.893 -108.838 L 129.834 -108.838 C 127.197 -108.838 125.391 -107.08 125.391 -104.443 L 125.391 -83.0078 L 101.562 -104.736 C 98.877 -107.275 95.8008 -108.496 92.5293 -108.496 C 89.3066 -108.496 86.2793 -107.227 83.5938 -104.736 L 18.3594 -45.2637 C 16.6504 -43.7012 16.0645 -42.1387 16.0645 -40.1855 Z M 36.377 13.0371 C 36.377 21.9238 42.041 27.3438 51.2695 27.3438 L 76.2695 27.3438 L 76.2695 -18.2129 C 76.2695 -21.0938 78.1738 -22.9004 81.0547 -22.9004 L 104.199 -22.9004 C 107.08 -22.9004 108.936 -21.0938 108.936 -18.2129 L 108.936 27.3438 L 133.936 27.3438 C 143.115 27.3438 148.779 21.9238 148.779 13.0371 L 148.779 -33.8867 L 94.5801 -82.8613 C 93.8965 -83.4473 93.1641 -83.7402 92.4805 -83.7402 C 91.7969 -83.7402 91.0645 -83.4473 90.3809 -82.8125 L 36.377 -33.4473 Z"/>
  </g>
  <g id="Medium-L" transform="matrix(1 0 0 1 1655.78 1556)">
   <path d="M 16.0645 -40.2832 C 16.0645 -37.3047 18.5059 -35.2539 21.582 -35.2539 C 23.3887 -35.2539 24.9023 -36.084 26.1719 -37.3047 L 88.623 -94.2871 C 89.3066 -94.9707 89.9902 -95.2637 90.7715 -95.2637 C 91.5527 -95.2637 92.2852 -94.9707 92.9688 -94.3359 L 155.371 -37.3047 C 156.641 -36.084 158.154 -35.2539 159.961 -35.2539 C 163.037 -35.2539 165.479 -37.3047 165.479 -40.2832 C 165.479 -42.0898 164.844 -43.4082 163.477 -44.6777 L 141.65 -64.5996 L 141.65 -102.93 C 141.65 -105.518 139.99 -107.178 137.402 -107.178 L 128.662 -107.178 C 126.123 -107.178 124.365 -105.518 124.365 -102.93 L 124.365 -80.3223 L 98.9258 -103.564 C 96.4844 -105.859 93.6523 -106.934 90.7227 -106.934 C 87.8418 -106.934 85.0586 -105.811 82.6172 -103.564 L 18.0664 -44.6777 C 16.6504 -43.4082 16.0645 -42.0898 16.0645 -40.2832 Z M 35.1074 12.9395 C 35.1074 21.582 40.4785 26.7578 49.3164 26.7578 L 74.6582 26.7578 L 74.6582 -18.457 C 74.6582 -21.2402 76.5137 -23.0469 79.3457 -23.0469 L 102.295 -23.0469 C 105.078 -23.0469 106.885 -21.2402 106.885 -18.457 L 106.885 26.7578 L 132.227 26.7578 C 141.064 26.7578 146.436 21.582 146.436 12.9395 L 146.436 -34.5703 L 92.9199 -82.8125 C 92.1875 -83.4473 91.4062 -83.7891 90.6738 -83.7891 C 89.8926 -83.7891 89.1113 -83.4473 88.3789 -82.7637 L 35.1074 -34.082 Z"/>
  </g>
  <g id="Regular-L" transform="matrix(1 0 0 1 1361.44 1556)">
   <path d="M 16.0645 -40.3809 C 16.0645 -37.8906 18.0664 -36.3281 20.5566 -36.3281 C 22.1191 -36.3281 23.3398 -37.0605 24.4629 -38.1348 L 86.0352 -94.2871 C 86.7676 -95.0195 87.5977 -95.3125 88.4277 -95.3125 C 89.2578 -95.3125 90.0391 -94.9707 90.8203 -94.2871 L 152.344 -38.1348 C 153.467 -37.0605 154.688 -36.3281 156.25 -36.3281 C 158.74 -36.3281 160.742 -37.8906 160.742 -40.3809 C 160.742 -41.9922 160.156 -43.0176 159.131 -43.9453 L 138.232 -62.9883 L 138.232 -100.977 C 138.232 -103.467 136.621 -105.029 134.229 -105.029 L 127.148 -105.029 C 124.707 -105.029 123.047 -103.467 123.047 -100.977 L 123.047 -76.8066 L 95.459 -102.051 C 93.3594 -104.004 90.8691 -104.98 88.3789 -104.98 C 85.8887 -104.98 83.4473 -104.004 81.3477 -102.051 L 17.6758 -43.9453 C 16.6504 -43.0176 16.0645 -41.9922 16.0645 -40.3809 Z M 33.3984 12.793 C 33.3984 21.0938 38.3789 25.9766 46.7773 25.9766 L 72.6074 25.9766 L 72.6074 -18.75 C 72.6074 -21.4844 74.4141 -23.2422 77.1484 -23.2422 L 99.7559 -23.2422 C 102.49 -23.2422 104.248 -21.4844 104.248 -18.75 L 104.248 25.9766 L 130.029 25.9766 C 138.428 25.9766 143.408 21.0938 143.408 12.793 L 143.408 -35.5469 L 90.7715 -82.7148 C 89.9414 -83.4961 89.0625 -83.8379 88.2812 -83.8379 C 87.4023 -83.8379 86.5723 -83.4961 85.7422 -82.666 L 33.3984 -34.9121 Z"/>
  </g>
  <g id="Light-L" transform="matrix(1 0 0 1 1066.44 1556)">
   <path d="M 16.0645 -39.8438 C 16.0645 -38.0371 17.5293 -36.8164 19.4336 -36.8164 C 20.6543 -36.8164 21.5332 -37.4023 22.4121 -38.1836 L 84.082 -94.4824 C 84.9609 -95.2637 85.8398 -95.6055 86.7676 -95.6055 C 87.6465 -95.6055 88.5254 -95.2148 89.3555 -94.4824 L 151.025 -38.1836 C 151.855 -37.4023 152.734 -36.8164 153.955 -36.8164 C 155.859 -36.8164 157.324 -38.0371 157.324 -39.8438 C 157.324 -41.0645 156.885 -41.8457 156.152 -42.5781 L 136.475 -60.498 L 136.475 -99.5605 C 136.475 -101.611 135.107 -102.93 133.154 -102.93 L 127.686 -102.93 C 125.684 -102.93 124.268 -101.611 124.268 -99.5605 L 124.268 -71.6309 L 93.0664 -100.195 C 91.1621 -101.953 88.916 -102.832 86.6699 -102.832 C 84.4727 -102.832 82.2266 -101.953 80.3223 -100.195 L 17.2852 -42.5781 C 16.5039 -41.8457 16.0645 -41.0645 16.0645 -39.8438 Z M 32.4707 13.7695 C 32.4707 21.4355 37.0605 25.9766 44.8242 25.9766 L 70.9961 25.9766 L 70.9961 -18.6035 C 70.9961 -21.0938 72.6562 -22.7051 75.1465 -22.7051 L 98.3398 -22.7051 C 100.83 -22.7051 102.441 -21.0938 102.441 -18.6035 L 102.441 25.9766 L 128.564 25.9766 C 136.328 25.9766 140.918 21.4355 140.918 13.7695 L 140.918 -37.5 L 89.5508 -83.3496 C 88.5254 -84.2773 87.5 -84.7168 86.5234 -84.7168 C 85.498 -84.7168 84.5215 -84.2773 83.4961 -83.3008 L 32.4707 -36.5234 Z"/>
  </g>
  <g id="Thin-L" transform="matrix(1 0 0 1 771.974 1556)">
   <path d="M 16.0645 -39.1602 C 16.0645 -38.1836 16.7969 -37.4512 17.9199 -37.4512 C 18.75 -37.4512 19.1895 -37.793 19.6777 -38.2812 L 81.543 -94.7754 C 82.5195 -95.6543 83.4961 -96.0449 84.5215 -96.0449 C 85.498 -96.0449 86.4746 -95.5566 87.3535 -94.7754 L 149.219 -38.2812 C 149.707 -37.793 150.146 -37.4512 150.977 -37.4512 C 152.1 -37.4512 152.832 -38.1836 152.832 -39.1602 C 152.832 -39.8438 152.637 -40.2832 152.148 -40.7227 L 134.18 -57.2266 L 134.18 -97.7051 C 134.18 -99.2188 133.105 -100.195 131.689 -100.195 L 128.369 -100.195 C 126.953 -100.195 125.879 -99.2188 125.879 -97.7051 L 125.879 -64.7461 L 89.9414 -97.7539 C 88.2324 -99.2676 86.3281 -100.049 84.375 -100.049 C 82.5195 -100.049 80.6641 -99.2676 79.0039 -97.7539 L 16.748 -40.7227 C 16.2598 -40.2832 16.0645 -39.8438 16.0645 -39.1602 Z M 31.25 15.0391 C 31.25 21.9238 35.3516 26.0254 42.2363 26.0254 L 68.8965 26.0254 L 68.8965 -18.3594 C 68.8965 -20.5566 70.3125 -21.9727 72.5098 -21.9727 L 96.4355 -21.9727 C 98.584 -21.9727 100 -20.5566 100 -18.3594 L 100 26.0254 L 126.66 26.0254 C 133.545 26.0254 137.646 21.9238 137.646 15.0391 L 137.646 -40.1367 L 87.8906 -84.1797 C 86.6211 -85.3516 85.4004 -85.8887 84.2285 -85.8887 C 83.0078 -85.8887 81.7871 -85.3516 80.5176 -84.1797 L 31.25 -38.623 Z"/>
  </g>
  <g id="Ultralight-L" transform="matrix(1 0 0 1 476.41 1556)">
   <path d="M 16.0645 -38.7695 C 16.0645 -38.2812 16.4551 -37.7441 17.1387 -37.7441 C 17.7734 -37.7441 17.9688 -38.0371 18.3105 -38.3301 L 80.2734 -94.9219 C 81.25 -95.8496 82.3242 -96.2402 83.3984 -96.2402 C 84.375 -96.2402 85.4492 -95.752 86.3281 -94.9219 L 148.34 -38.3301 C 148.633 -38.0371 148.828 -37.7441 149.463 -37.7441 C 150.146 -37.7441 150.537 -38.2812 150.537 -38.7695 C 150.537 -39.209 150.439 -39.4531 150.098 -39.7949 L 133.008 -55.5176 L 133.008 -96.7285 C 133.008 -97.9492 132.08 -98.7793 130.957 -98.7793 L 128.76 -98.7793 C 127.588 -98.7793 126.709 -97.9492 126.709 -96.7285 L 126.709 -61.2305 L 88.3301 -96.4844 C 86.7676 -97.9004 85.0098 -98.584 83.2031 -98.584 C 81.543 -98.584 79.834 -97.9004 78.3203 -96.4844 L 16.5039 -39.7949 C 16.1621 -39.4531 16.0645 -39.209 16.0645 -38.7695 Z M 30.6641 15.7227 C 30.6641 22.168 34.4727 26.0254 40.918 26.0254 L 67.8223 26.0254 L 67.8223 -18.2617 C 67.8223 -20.2637 69.1406 -21.582 71.1426 -21.582 L 95.459 -21.582 C 97.4609 -21.582 98.7793 -20.2637 98.7793 -18.2617 L 98.7793 26.0254 L 125.684 26.0254 C 132.129 26.0254 135.986 22.168 135.986 15.7227 L 135.986 -41.4551 L 87.0605 -84.6191 C 85.6445 -85.8887 84.3262 -86.4746 83.0566 -86.4746 C 81.6895 -86.4746 80.3711 -85.8887 79.0039 -84.6191 L 30.6641 -39.7461 Z"/>
  </g>
  <g id="Black-M" transform="matrix(1 0 0 1 2851.44 1126)">
   <path d="M 12.4512 -38.2812 C 12.4512 -33.6426 16.3086 -29.7852 21.4355 -29.7852 C 24.0234 -29.7852 26.416 -30.7617 28.3203 -32.5195 L 81.3477 -81.3477 C 81.4941 -81.4453 81.6406 -81.5918 81.9824 -81.5918 C 82.1289 -81.5918 82.4707 -81.4941 82.5684 -81.3965 L 135.596 -32.5195 C 137.5 -30.7617 139.893 -29.7852 142.48 -29.7852 C 147.656 -29.7852 151.465 -33.6426 151.465 -38.2812 C 151.465 -40.5273 151.123 -42.9199 147.998 -45.7031 L 126.855 -65.0391 L 126.855 -97.2656 C 126.855 -99.6582 125.293 -101.221 122.852 -101.221 L 108.057 -101.221 C 105.615 -101.221 104.004 -99.6582 104.004 -97.2656 L 104.004 -85.8887 L 93.75 -95.3125 C 90.0879 -98.6328 86.3281 -100.195 81.8848 -100.195 C 77.5391 -100.195 73.7793 -98.584 70.166 -95.3125 L 15.918 -45.7031 C 12.8418 -42.9199 12.4512 -40.5273 12.4512 -38.2812 Z M 35.6445 3.4668 C 35.6445 11.5723 41.6016 17.041 50.5859 17.041 L 68.0664 17.041 L 68.0664 -20.5566 C 68.0664 -22.998 69.7266 -24.5605 72.1191 -24.5605 L 91.8457 -24.5605 C 94.2871 -24.5605 95.8496 -22.998 95.8496 -20.5566 L 95.8496 17.041 L 113.428 17.041 C 122.363 17.041 128.32 11.5723 128.32 3.4668 L 128.32 -30.7617 L 82.7148 -72.7539 C 82.5195 -72.9492 82.2754 -73.0469 82.0312 -73.0469 C 81.7383 -73.0469 81.4941 -72.9492 81.2988 -72.7539 L 35.6445 -30.7617 Z"/>
  </g>
  <g id="Heavy-M" transform="matrix(1 0 0 1 2557.69 1126)">
   <path d="M 12.4512 -38.5742 C 12.4512 -34.4727 15.8203 -31.2012 20.3125 -31.2012 C 22.6074 -31.2012 24.707 -32.1289 26.3672 -33.6914 L 78.1738 -81.2012 C 78.3691 -81.4453 78.6621 -81.5918 79.0039 -81.5918 C 79.2969 -81.5918 79.6875 -81.4941 79.8828 -81.25 L 131.641 -33.6914 C 133.35 -32.1289 135.4 -31.2012 137.695 -31.2012 C 142.188 -31.2012 145.557 -34.4727 145.557 -38.5742 C 145.557 -40.625 145.166 -42.6758 142.578 -45.0195 L 122.461 -63.4277 L 122.461 -94.8242 C 122.461 -97.168 120.947 -98.6816 118.555 -98.6816 L 105.713 -98.6816 C 103.369 -98.6816 101.807 -97.168 101.807 -94.8242 L 101.807 -82.2266 L 89.4043 -93.6035 C 86.1816 -96.5332 82.8125 -97.9004 78.9551 -97.9004 C 75.1465 -97.9004 71.7773 -96.4844 68.6523 -93.6035 L 15.4297 -45.0195 C 12.8418 -42.6758 12.4512 -40.625 12.4512 -38.5742 Z M 33.4961 2.97852 C 33.4961 10.791 39.0137 15.8691 47.4609 15.8691 L 65.5273 15.8691 L 65.5273 -21.0449 C 65.5273 -23.4375 67.0898 -24.9512 69.4824 -24.9512 L 88.623 -24.9512 C 91.0156 -24.9512 92.5293 -23.4375 92.5293 -21.0449 L 92.5293 15.8691 L 110.645 15.8691 C 119.092 15.8691 124.609 10.791 124.609 2.97852 L 124.609 -31.6406 L 79.9316 -72.5098 C 79.6875 -72.7539 79.3457 -72.9004 79.0527 -72.9004 C 78.6621 -72.9004 78.3691 -72.7539 78.0762 -72.5098 L 33.4961 -31.543 Z"/>
  </g>
  <g id="Bold-M" transform="matrix(1 0 0 1 2264.25 1126)">
   <path d="M 12.4512 -38.916 C 12.4512 -35.4004 15.2832 -32.7637 19.043 -32.7637 C 20.9961 -32.7637 22.7539 -33.6426 24.2188 -34.9609 L 74.5605 -81.1035 C 74.9023 -81.4453 75.2441 -81.5918 75.7324 -81.5918 C 76.123 -81.5918 76.5625 -81.4453 76.9043 -81.1035 L 127.246 -34.9609 C 128.662 -33.6426 130.42 -32.7637 132.422 -32.7637 C 136.133 -32.7637 139.014 -35.4004 139.014 -38.916 C 139.014 -40.7715 138.525 -42.4316 136.523 -44.2383 L 117.48 -61.6211 L 117.48 -92.1387 C 117.48 -94.3848 116.016 -95.8496 113.77 -95.8496 L 103.125 -95.8496 C 100.879 -95.8496 99.3164 -94.3848 99.3164 -92.1387 L 99.3164 -78.1738 L 84.5215 -91.6992 C 81.8359 -94.1406 78.9062 -95.3613 75.6836 -95.3613 C 72.4609 -95.3613 69.5801 -94.1406 66.8945 -91.6992 L 14.8926 -44.2383 C 12.9395 -42.4316 12.4512 -40.7715 12.4512 -38.916 Z M 31.0547 2.44141 C 31.0547 9.86328 36.0352 14.5996 43.9941 14.5996 L 62.6465 14.5996 L 62.6465 -21.5332 C 62.6465 -23.877 64.1602 -25.3906 66.5039 -25.3906 L 85.0098 -25.3906 C 87.3535 -25.3906 88.8184 -23.877 88.8184 -21.5332 L 88.8184 14.5996 L 107.52 14.5996 C 115.43 14.5996 120.459 9.86328 120.459 2.44141 L 120.459 -32.5684 L 76.9043 -72.2168 C 76.5137 -72.5586 76.123 -72.7539 75.7324 -72.7539 C 75.293 -72.7539 74.8535 -72.5586 74.5117 -72.2168 L 31.0547 -32.4219 Z"/>
  </g>
  <g id="Semibold-M" transform="matrix(1 0 0 1 1969.83 1126)">
   <path d="M 12.4512 -39.1602 C 12.4512 -36.084 14.9414 -33.8867 18.1641 -33.8867 C 19.9219 -33.8867 21.4355 -34.668 22.7051 -35.8887 L 72.0703 -81.0059 C 72.5098 -81.3965 72.9492 -81.5918 73.4375 -81.5918 C 73.9258 -81.5918 74.4141 -81.4453 74.8535 -81.0059 L 124.17 -35.8887 C 125.439 -34.668 127.002 -33.8867 128.76 -33.8867 C 131.982 -33.8867 134.424 -36.084 134.424 -39.1602 C 134.424 -40.8691 133.936 -42.2363 132.324 -43.7012 L 114.111 -60.3516 L 114.111 -90.2832 C 114.111 -92.4805 112.646 -93.8965 110.449 -93.8965 L 101.367 -93.8965 C 99.1211 -93.8965 97.6562 -92.4805 97.6562 -90.2832 L 97.6562 -75.3418 L 81.2012 -90.3809 C 78.8574 -92.5293 76.2207 -93.5547 73.4375 -93.5547 C 70.6543 -93.5547 68.0176 -92.5293 65.7227 -90.3809 L 14.5508 -43.7012 C 12.9395 -42.2363 12.4512 -40.8691 12.4512 -39.1602 Z M 29.3457 2.05078 C 29.3457 9.27734 34.0332 13.7207 41.5527 13.7207 L 60.6445 13.7207 L 60.6445 -21.9238 C 60.6445 -24.2188 62.1582 -25.7324 64.502 -25.7324 L 82.5195 -25.7324 C 84.8145 -25.7324 86.2793 -24.2188 86.2793 -21.9238 L 86.2793 13.7207 L 105.322 13.7207 C 112.891 13.7207 117.578 9.27734 117.578 2.05078 L 117.578 -33.2031 L 74.7559 -72.0215 C 74.3652 -72.4121 73.877 -72.6074 73.3887 -72.6074 C 72.9492 -72.6074 72.4609 -72.4121 72.0215 -71.9727 L 29.3457 -33.0078 Z"/>
  </g>
  <g id="Medium-M" transform="matrix(1 0 0 1 1674.83 1126)">
   <path d="M 12.4512 -39.3066 C 12.4512 -36.5723 14.6484 -34.7168 17.4805 -34.7168 C 19.0918 -34.7168 20.4102 -35.4492 21.582 -36.5723 L 70.2148 -80.957 C 70.7031 -81.3965 71.1914 -81.5918 71.7285 -81.5918 C 72.2656 -81.5918 72.8027 -81.3965 73.291 -80.957 L 121.875 -36.5723 C 122.998 -35.4492 124.365 -34.7168 125.977 -34.7168 C 128.809 -34.7168 131.006 -36.5723 131.006 -39.3066 C 131.006 -40.918 130.469 -42.1387 129.199 -43.3105 L 111.523 -59.4238 L 111.523 -88.8672 C 111.523 -91.0156 110.107 -92.4316 107.91 -92.4316 L 100 -92.4316 C 97.8027 -92.4316 96.3379 -91.0156 96.3379 -88.8672 L 96.3379 -73.1934 L 78.6621 -89.3555 C 76.5625 -91.3086 74.2188 -92.2363 71.7285 -92.2363 C 69.2383 -92.2363 66.8945 -91.2598 64.7949 -89.3555 L 14.2578 -43.3105 C 12.9883 -42.1387 12.4512 -40.918 12.4512 -39.3066 Z M 28.0762 1.80664 C 28.0762 8.78906 32.5195 13.0371 39.7461 13.0371 L 59.1309 13.0371 L 59.1309 -22.168 C 59.1309 -24.4629 60.6445 -25.9277 62.9395 -25.9277 L 80.6152 -25.9277 C 82.9102 -25.9277 84.375 -24.4629 84.375 -22.168 L 84.375 13.0371 L 103.711 13.0371 C 110.986 13.0371 115.381 8.78906 115.381 1.80664 L 115.381 -33.6914 L 73.1445 -71.875 C 72.7051 -72.3145 72.168 -72.5098 71.6797 -72.5098 C 71.1426 -72.5098 70.6543 -72.3145 70.166 -71.8262 L 28.0762 -33.4961 Z"/>
  </g>
  <g id="Regular-M" transform="matrix(1 0 0 1 1380.36 1126)">
   <path d="M 12.4512 -39.5508 C 12.4512 -37.207 14.3066 -35.791 16.6016 -35.791 C 17.9688 -35.791 19.1406 -36.4746 20.1172 -37.4512 L 67.7734 -80.8594 C 68.3105 -81.3965 68.8965 -81.5918 69.4824 -81.5918 C 70.1172 -81.5918 70.6543 -81.3965 71.2402 -80.8594 L 118.848 -37.4512 C 119.824 -36.4746 120.947 -35.791 122.363 -35.791 C 124.658 -35.791 126.514 -37.207 126.514 -39.5508 C 126.514 -41.0156 125.928 -41.9434 125.049 -42.7734 L 108.154 -58.1543 L 108.154 -87.0117 C 108.154 -89.1602 106.738 -90.5273 104.639 -90.5273 L 98.2422 -90.5273 C 96.0938 -90.5273 94.6777 -89.1602 94.6777 -87.0117 L 94.6777 -70.4102 L 75.3418 -88.0859 C 73.584 -89.6973 71.5332 -90.4785 69.4824 -90.4785 C 67.4316 -90.4785 65.3809 -89.6973 63.623 -88.0859 L 13.916 -42.7734 C 13.0371 -41.9434 12.4512 -41.0156 12.4512 -39.5508 Z M 26.416 1.41602 C 26.416 8.20312 30.5176 12.1582 37.4023 12.1582 L 57.1777 12.1582 L 57.1777 -22.5586 C 57.1777 -24.8047 58.6426 -26.2695 60.8887 -26.2695 L 78.125 -26.2695 C 80.4199 -26.2695 81.8359 -24.8047 81.8359 -22.5586 L 81.8359 12.1582 L 101.562 12.1582 C 108.447 12.1582 112.549 8.20312 112.549 1.41602 L 112.549 -34.3262 L 71.0449 -71.6797 C 70.5566 -72.168 69.9219 -72.4121 69.3848 -72.4121 C 68.8477 -72.4121 68.2617 -72.168 67.7246 -71.6309 L 26.416 -34.082 Z"/>
  </g>
  <g id="Light-M" transform="matrix(1 0 0 1 1085.19 1126)">
   <path d="M 12.4512 -39.0625 C 12.4512 -37.3535 13.8184 -36.2305 15.5762 -36.2305 C 16.6992 -36.2305 17.5293 -36.7676 18.2617 -37.5 L 66.0156 -81.0547 C 66.6504 -81.6406 67.2852 -81.8848 67.9688 -81.8848 C 68.6523 -81.8848 69.2871 -81.5918 69.9219 -81.0547 L 117.627 -37.5 C 118.408 -36.7676 119.238 -36.2305 120.361 -36.2305 C 122.07 -36.2305 123.438 -37.3535 123.438 -39.0625 C 123.438 -40.1855 123.047 -40.8691 122.363 -41.5527 L 106.592 -55.957 L 106.592 -85.7422 C 106.592 -87.5 105.42 -88.623 103.662 -88.623 L 98.7305 -88.623 C 96.9727 -88.623 95.752 -87.5 95.752 -85.7422 L 95.752 -65.7715 L 73.1934 -86.4258 C 71.6309 -87.8418 69.7754 -88.5742 67.9199 -88.5742 C 66.1133 -88.5742 64.2578 -87.8418 62.6953 -86.4258 L 13.5742 -41.5527 C 12.8418 -40.8691 12.4512 -40.1855 12.4512 -39.0625 Z M 25.5859 2.29492 C 25.5859 8.54492 29.3457 12.207 35.6445 12.207 L 55.7129 12.207 L 55.7129 -22.4121 C 55.7129 -24.4629 57.0801 -25.7812 59.1309 -25.7812 L 76.8555 -25.7812 C 78.9062 -25.7812 80.2246 -24.4629 80.2246 -22.4121 L 80.2246 12.207 L 100.293 12.207 C 106.592 12.207 110.303 8.54492 110.303 2.29492 L 110.303 -36.1328 L 69.9707 -72.2656 C 69.2383 -72.9004 68.5059 -73.1934 67.8223 -73.1934 C 67.1387 -73.1934 66.4062 -72.9004 65.7227 -72.2168 L 25.5859 -35.498 Z"/>
  </g>
  <g id="Thin-M" transform="matrix(1 0 0 1 790.48 1126)">
   <path d="M 12.4512 -38.4277 C 12.4512 -37.5 13.1836 -36.8164 14.209 -36.8164 C 14.9414 -36.8164 15.3809 -37.1582 15.8203 -37.5977 L 63.7695 -81.2988 C 64.4531 -81.9824 65.2344 -82.2754 66.0156 -82.2754 C 66.6992 -82.2754 67.4805 -81.9336 68.1152 -81.2988 L 116.016 -37.5977 C 116.504 -37.1582 116.943 -36.8164 117.676 -36.8164 C 118.701 -36.8164 119.434 -37.5 119.434 -38.4277 C 119.434 -39.0625 119.189 -39.4531 118.799 -39.8926 L 104.492 -52.9785 L 104.492 -84.0332 C 104.492 -85.3516 103.613 -86.1816 102.393 -86.1816 L 99.3652 -86.1816 C 98.0957 -86.1816 97.2168 -85.3516 97.2168 -84.0332 L 97.2168 -59.6191 L 70.3613 -84.2285 C 69.043 -85.4492 67.4316 -86.0352 65.8691 -86.0352 C 64.3555 -86.0352 62.8418 -85.4492 61.5234 -84.2285 L 13.0859 -39.8926 C 12.6465 -39.4531 12.4512 -39.0625 12.4512 -38.4277 Z M 24.5117 3.4668 C 24.5117 8.98438 27.7832 12.207 33.3008 12.207 L 53.8574 12.207 L 53.8574 -22.2168 C 53.8574 -23.9746 54.9805 -25.0977 56.7383 -25.0977 L 75.1465 -25.0977 C 76.9043 -25.0977 78.0273 -23.9746 78.0273 -22.2168 L 78.0273 12.207 L 98.584 12.207 C 104.102 12.207 107.373 8.98438 107.373 3.4668 L 107.373 -38.4766 L 68.5059 -72.998 C 67.5293 -73.8281 66.6016 -74.2188 65.7715 -74.2188 C 64.8926 -74.2188 63.9648 -73.8281 63.0371 -72.998 L 24.5117 -37.4023 Z"/>
  </g>
  <g id="Ultralight-M" transform="matrix(1 0 0 1 494.794 1126)">
   <path d="M 12.4512 -38.0859 C 12.4512 -37.5488 12.8418 -37.1094 13.5254 -37.1094 C 14.0625 -37.1094 14.3066 -37.3535 14.5996 -37.6465 L 62.5977 -81.4453 C 63.3301 -82.1289 64.1602 -82.4707 64.9902 -82.4707 C 65.7227 -82.4707 66.5527 -82.0801 67.2363 -81.4453 L 115.234 -37.6465 C 115.527 -37.3535 115.771 -37.1094 116.309 -37.1094 C 116.943 -37.1094 117.383 -37.5488 117.383 -38.0859 C 117.383 -38.5254 117.236 -38.7695 116.943 -39.0625 L 103.418 -51.4648 L 103.418 -83.2031 C 103.418 -84.2285 102.686 -84.9121 101.709 -84.9121 L 99.6582 -84.9121 C 98.6816 -84.9121 97.9492 -84.2285 97.9492 -83.2031 L 97.9492 -56.4453 L 68.9453 -83.1055 C 67.6758 -84.2285 66.2598 -84.7656 64.8438 -84.7656 C 63.4766 -84.7656 62.1094 -84.2285 60.8887 -83.1055 L 12.8906 -39.0625 C 12.5488 -38.7695 12.4512 -38.5254 12.4512 -38.0859 Z M 23.9258 4.05273 C 23.9258 9.17969 26.9531 12.207 32.1289 12.207 L 52.8809 12.207 L 52.8809 -22.1191 C 52.8809 -23.7305 53.9551 -24.7559 55.5664 -24.7559 L 74.2676 -24.7559 C 75.8789 -24.7559 76.9043 -23.7305 76.9043 -22.1191 L 76.9043 12.207 L 97.7051 12.207 C 102.832 12.207 105.859 9.17969 105.859 4.05273 L 105.859 -39.6484 L 67.7246 -73.3887 C 66.6504 -74.3164 65.6738 -74.7559 64.6973 -74.7559 C 63.7207 -74.7559 62.6953 -74.3164 61.7188 -73.3887 L 23.9258 -38.3789 Z"/>
  </g>
  <g id="Black-S" transform="matrix(1 0 0 1 2869.39 696)">
   <path d="M 9.76562 -37.6465 C 9.76562 -34.0332 12.7441 -31.0547 16.748 -31.0547 C 18.75 -31.0547 20.6055 -31.8359 22.0703 -33.2031 L 63.5254 -71.3379 C 63.623 -71.4355 63.7695 -71.5332 64.0137 -71.5332 C 64.1602 -71.5332 64.4043 -71.4844 64.502 -71.3867 L 105.957 -33.2031 C 107.422 -31.8359 109.277 -31.0547 111.279 -31.0547 C 115.283 -31.0547 118.262 -34.0332 118.262 -37.6465 C 118.262 -39.4043 117.969 -41.2598 115.576 -43.4082 L 99.0723 -58.4961 L 99.0723 -83.6426 C 99.0723 -85.5469 97.8516 -86.7676 95.9473 -86.7676 L 84.4727 -86.7676 C 82.5684 -86.7676 81.2988 -85.5469 81.2988 -83.6426 L 81.2988 -74.707 L 73.1445 -82.1777 C 70.3125 -84.7656 67.3828 -85.9863 63.9648 -85.9863 C 60.5957 -85.9863 57.666 -84.7168 54.8828 -82.1777 L 12.4512 -43.4082 C 10.0586 -41.2598 9.76562 -39.4043 9.76562 -37.6465 Z M 27.7832 -4.98047 C 27.7832 1.36719 32.4219 5.61523 39.4043 5.61523 L 53.1738 5.61523 L 53.1738 -23.7793 C 53.1738 -25.6836 54.4434 -26.9043 56.3477 -26.9043 L 71.7285 -26.9043 C 73.6328 -26.9043 74.8535 -25.6836 74.8535 -23.7793 L 74.8535 5.61523 L 88.6719 5.61523 C 95.6543 5.61523 100.293 1.36719 100.293 -4.98047 L 100.293 -31.7871 L 64.5996 -64.5996 C 64.4531 -64.7461 64.2578 -64.8438 64.0625 -64.8438 C 63.8184 -64.8438 63.623 -64.7461 63.4766 -64.5996 L 27.7832 -31.7871 Z"/>
  </g>
  <g id="Heavy-S" transform="matrix(1 0 0 1 2574.75 696)">
   <path d="M 9.76562 -37.9395 C 9.76562 -34.668 12.4512 -32.0801 15.9668 -32.0801 C 17.8223 -32.0801 19.4824 -32.8613 20.8008 -34.082 L 61.2793 -71.2402 C 61.4258 -71.3867 61.6211 -71.5332 61.9141 -71.5332 C 62.1582 -71.5332 62.4512 -71.4355 62.5977 -71.2891 L 103.076 -34.082 C 104.395 -32.8613 106.055 -32.0801 107.861 -32.0801 C 111.426 -32.0801 114.111 -34.668 114.111 -37.9395 C 114.111 -39.5996 113.77 -41.2109 111.719 -43.0176 L 95.8496 -57.5195 L 95.8496 -81.9336 C 95.8496 -83.8379 94.6777 -85.0586 92.7734 -85.0586 L 82.666 -85.0586 C 80.7617 -85.0586 79.4922 -83.8379 79.4922 -81.9336 L 79.4922 -72.4121 L 70.0684 -81.0547 C 67.5781 -83.3496 64.8926 -84.4238 61.9141 -84.4238 C 58.9355 -84.4238 56.25 -83.3008 53.8086 -81.0547 L 12.1094 -43.0176 C 10.1074 -41.2109 9.76562 -39.5996 9.76562 -37.9395 Z M 26.2207 -5.41992 C 26.2207 0.732422 30.5664 4.73633 37.207 4.73633 L 51.3672 4.73633 L 51.3672 -24.1699 C 51.3672 -26.0742 52.6367 -27.2461 54.541 -27.2461 L 69.3848 -27.2461 C 71.2891 -27.2461 72.5098 -26.0742 72.5098 -24.1699 L 72.5098 4.73633 L 86.6699 4.73633 C 93.3594 4.73633 97.7051 0.732422 97.7051 -5.41992 L 97.7051 -32.2266 L 62.6465 -64.3555 C 62.4512 -64.5508 62.207 -64.6484 61.9629 -64.6484 C 61.6699 -64.6484 61.4258 -64.5508 61.2305 -64.3555 L 26.2207 -32.2266 Z"/>
  </g>
  <g id="Bold-S" transform="matrix(1 0 0 1 2280.38 696)">
   <path d="M 9.76562 -38.2324 C 9.76562 -35.4004 12.1094 -33.252 15.1367 -33.252 C 16.748 -33.252 18.1641 -33.9355 19.3848 -35.0586 L 58.7402 -71.0938 C 58.9844 -71.3379 59.2773 -71.4844 59.6191 -71.4844 C 59.9121 -71.4844 60.2051 -71.3867 60.498 -71.1426 L 99.8535 -35.0586 C 101.025 -33.9355 102.441 -33.252 104.053 -33.252 C 107.08 -33.252 109.424 -35.4004 109.424 -38.2324 C 109.424 -39.7949 109.033 -41.1133 107.422 -42.5781 L 92.2852 -56.3965 L 92.2852 -80.0293 C 92.2852 -81.8848 91.0645 -83.1055 89.209 -83.1055 L 80.6152 -83.1055 C 78.7109 -83.1055 77.4902 -81.8848 77.4902 -80.0293 L 77.4902 -69.873 L 66.6016 -79.7852 C 64.4531 -81.7871 62.1582 -82.7148 59.5703 -82.7148 C 57.0312 -82.7148 54.6875 -81.7383 52.5879 -79.7852 L 11.7676 -42.5781 C 10.1562 -41.1133 9.76562 -39.7949 9.76562 -38.2324 Z M 24.4629 -5.95703 C 24.4629 0 28.4668 3.75977 34.7656 3.75977 L 49.3164 3.75977 L 49.3164 -24.5605 C 49.3164 -26.4648 50.5859 -27.6855 52.4902 -27.6855 L 66.7969 -27.6855 C 68.7012 -27.6855 69.873 -26.4648 69.873 -24.5605 L 69.873 3.75977 L 84.4238 3.75977 C 90.7715 3.75977 94.7754 0 94.7754 -5.95703 L 94.7754 -32.7148 L 60.4004 -64.0625 C 60.1562 -64.3066 59.8633 -64.4043 59.6191 -64.4043 C 59.2773 -64.4043 59.0332 -64.3066 58.7402 -64.0137 L 24.4629 -32.7148 Z"/>
  </g>
  <g id="Semibold-S" transform="matrix(1 0 0 1 1985.28 696)">
   <path d="M 9.76562 -38.4766 C 9.76562 -35.8887 11.8652 -34.082 14.5508 -34.082 C 16.0156 -34.082 17.2852 -34.7168 18.3594 -35.7422 L 56.9824 -71.0449 C 57.2754 -71.3379 57.6172 -71.4844 58.0078 -71.4844 C 58.3496 -71.4844 58.6914 -71.3379 59.0332 -71.0449 L 97.6074 -35.7422 C 98.6816 -34.7168 99.9512 -34.082 101.465 -34.082 C 104.102 -34.082 106.201 -35.8887 106.201 -38.4766 C 106.201 -39.8926 105.762 -41.0645 104.443 -42.2852 L 89.7949 -55.6152 L 89.7949 -78.7109 C 89.7949 -80.5664 88.623 -81.7871 86.7676 -81.7871 L 79.1992 -81.7871 C 77.3438 -81.7871 76.0742 -80.5664 76.0742 -78.7109 L 76.0742 -68.1152 L 64.209 -78.9551 C 62.3535 -80.6641 60.2539 -81.543 57.959 -81.543 C 55.7129 -81.543 53.6133 -80.6641 51.7578 -78.9551 L 11.5234 -42.2852 C 10.2051 -41.0645 9.76562 -39.8926 9.76562 -38.4766 Z M 23.2422 -6.29883 C 23.2422 -0.488281 27.002 3.07617 33.1055 3.07617 L 47.9492 3.07617 L 47.9492 -24.8535 C 47.9492 -26.7578 49.1699 -27.9297 51.0742 -27.9297 L 64.9902 -27.9297 C 66.8945 -27.9297 68.0664 -26.7578 68.0664 -24.8535 L 68.0664 3.07617 L 82.9102 3.07617 C 89.0137 3.07617 92.7734 -0.488281 92.7734 -6.29883 L 92.7734 -33.0566 L 58.8867 -63.8672 C 58.6426 -64.1113 58.3008 -64.2578 57.959 -64.2578 C 57.666 -64.2578 57.3242 -64.1113 57.0312 -63.8184 L 23.2422 -33.0566 Z"/>
  </g>
  <g id="Medium-S" transform="matrix(1 0 0 1 1689.79 696)">
   <path d="M 9.76562 -38.623 C 9.76562 -36.2305 11.6699 -34.668 14.1113 -34.668 C 15.4785 -34.668 16.6504 -35.3027 17.627 -36.2305 L 55.6641 -70.9473 C 56.0059 -71.2891 56.3477 -71.4355 56.7871 -71.4355 C 57.1777 -71.4355 57.5195 -71.3379 57.9102 -70.9473 L 95.8984 -36.2305 C 96.9238 -35.3027 98.0957 -34.668 99.4629 -34.668 C 101.855 -34.668 103.76 -36.2305 103.76 -38.623 C 103.76 -40.0391 103.32 -41.0645 102.197 -42.041 L 87.9395 -55.0293 L 87.9395 -77.7344 C 87.9395 -79.5898 86.7676 -80.7617 84.9121 -80.7617 L 78.125 -80.7617 C 76.2695 -80.7617 75.0488 -79.5898 75.0488 -77.7344 L 75.0488 -66.7969 L 62.4023 -78.2715 C 60.7422 -79.834 58.7891 -80.6152 56.7383 -80.6152 C 54.7363 -80.6152 52.7832 -79.834 51.123 -78.2715 L 11.3281 -42.041 C 10.2539 -41.0645 9.76562 -40.0391 9.76562 -38.623 Z M 22.3145 -6.5918 C 22.3145 -0.878906 25.9277 2.58789 31.8359 2.58789 L 46.875 2.58789 L 46.875 -25.0977 C 46.875 -26.9531 48.0957 -28.1738 50 -28.1738 L 63.623 -28.1738 C 65.5273 -28.1738 66.6992 -26.9531 66.6992 -25.0977 L 66.6992 2.58789 L 81.7383 2.58789 C 87.6465 2.58789 91.2598 -0.878906 91.2598 -6.5918 L 91.2598 -33.3496 L 57.7148 -63.7207 C 57.4219 -64.0137 57.0801 -64.1602 56.7383 -64.1602 C 56.3965 -64.1602 56.0547 -64.0137 55.7129 -63.6719 L 22.3145 -33.3008 Z"/>
  </g>
  <g id="Regular-S" transform="matrix(1 0 0 1 1394.67 696)">
   <path d="M 9.76562 -38.8184 C 9.76562 -36.7188 11.4258 -35.4492 13.5254 -35.4492 C 14.7461 -35.4492 15.7715 -36.084 16.6504 -36.9141 L 53.9551 -70.8984 C 54.3457 -71.2891 54.7363 -71.4355 55.1758 -71.4355 C 55.6152 -71.4355 56.0547 -71.2891 56.4941 -70.8984 L 93.7012 -36.9141 C 94.5801 -36.084 95.6055 -35.4492 96.875 -35.4492 C 98.9258 -35.4492 100.586 -36.7188 100.586 -38.8184 C 100.586 -40.1367 100.098 -41.0156 99.2676 -41.748 L 85.498 -54.2969 L 85.498 -76.416 C 85.498 -78.2715 84.3262 -79.4434 82.4707 -79.4434 L 76.7578 -79.4434 C 74.9023 -79.4434 73.6328 -78.2715 73.6328 -76.416 L 73.6328 -65.0391 L 60.0586 -77.4414 C 58.6426 -78.7598 56.8848 -79.4434 55.1758 -79.4434 C 53.4668 -79.4434 51.7578 -78.7598 50.293 -77.4414 L 11.084 -41.748 C 10.3027 -41.0156 9.76562 -40.1367 9.76562 -38.8184 Z M 21.0938 -6.93359 C 21.0938 -1.36719 24.4629 1.9043 30.127 1.9043 L 45.459 1.9043 L 45.459 -25.3906 C 45.459 -27.2461 46.7285 -28.418 48.584 -28.418 L 61.8652 -28.418 C 63.7207 -28.418 64.9414 -27.2461 64.9414 -25.3906 L 64.9414 1.9043 L 80.2246 1.9043 C 85.8887 1.9043 89.2578 -1.36719 89.2578 -6.93359 L 89.2578 -33.6914 L 56.2012 -63.5254 C 55.9082 -63.8184 55.4688 -63.9648 55.127 -63.9648 C 54.7852 -63.9648 54.3945 -63.8184 54.0527 -63.4766 L 21.0938 -33.6426 Z"/>
  </g>
  <g id="Light-S" transform="matrix(1 0 0 1 1099.3 696)">
   <path d="M 9.76562 -38.4277 C 9.76562 -36.8164 11.0352 -35.8398 12.5977 -35.8398 C 13.5742 -35.8398 14.3555 -36.3281 15.0391 -36.9629 L 52.3926 -71.0449 C 52.8809 -71.4844 53.3203 -71.6797 53.8574 -71.6797 C 54.3457 -71.6797 54.834 -71.4844 55.2734 -71.0449 L 92.627 -36.9629 C 93.3105 -36.3281 94.0918 -35.8398 95.0684 -35.8398 C 96.6309 -35.8398 97.9004 -36.8164 97.9004 -38.4277 C 97.9004 -39.4043 97.5098 -40.0391 96.875 -40.6738 L 84.082 -52.2949 L 84.082 -75.293 C 84.082 -76.8066 83.1055 -77.7832 81.5918 -77.7832 L 77.1484 -77.7832 C 75.6348 -77.7832 74.6094 -76.8066 74.6094 -75.293 L 74.6094 -60.9375 L 58.1543 -75.9766 C 56.8848 -77.1484 55.3711 -77.7344 53.8086 -77.7344 C 52.2949 -77.7344 50.7812 -77.1484 49.5117 -75.9766 L 10.791 -40.6738 C 10.1562 -40.0391 9.76562 -39.4043 9.76562 -38.4277 Z M 20.3613 -6.15234 C 20.3613 -1.07422 23.4375 1.9043 28.6133 1.9043 L 44.2383 1.9043 L 44.2383 -25.2441 C 44.2383 -26.9043 45.3125 -27.9785 47.0215 -27.9785 L 60.6934 -27.9785 C 62.4023 -27.9785 63.4766 -26.9043 63.4766 -25.2441 L 63.4766 1.9043 L 79.0527 1.9043 C 84.2285 1.9043 87.3047 -1.07422 87.3047 -6.15234 L 87.3047 -35.2539 L 55.2246 -64.0137 C 54.7363 -64.4531 54.248 -64.6973 53.7598 -64.6973 C 53.2715 -64.6973 52.7344 -64.4531 52.2461 -63.9648 L 20.3613 -34.9121 Z"/>
  </g>
  <g id="Thin-S" transform="matrix(1 0 0 1 804.371 696)">
   <path d="M 9.76562 -37.8418 C 9.76562 -36.9629 10.4492 -36.3281 11.4258 -36.3281 C 12.0605 -36.3281 12.4512 -36.6699 12.8906 -37.0605 L 50.3906 -71.2891 C 50.9277 -71.7773 51.5137 -72.0215 52.0996 -72.0215 C 52.6367 -72.0215 53.2227 -71.7285 53.7109 -71.2891 L 91.2109 -37.0605 C 91.6504 -36.6699 92.041 -36.3281 92.7246 -36.3281 C 93.6523 -36.3281 94.3359 -36.9629 94.3359 -37.8418 C 94.3359 -38.4766 94.1406 -38.8184 93.75 -39.209 L 82.2754 -49.707 L 82.2754 -73.7793 C 82.2754 -74.9023 81.543 -75.5859 80.4688 -75.5859 L 77.7344 -75.5859 C 76.6602 -75.5859 75.8789 -74.9023 75.8789 -73.7793 L 75.8789 -55.4688 L 55.6641 -74.0234 C 54.5898 -75.0488 53.3203 -75.5371 52.002 -75.5371 C 50.7812 -75.5371 49.5117 -75.0488 48.4375 -74.0234 L 10.3516 -39.209 C 9.96094 -38.8184 9.76562 -38.4766 9.76562 -37.8418 Z M 19.4336 -5.12695 C 19.4336 -0.683594 22.0703 1.95312 26.5625 1.95312 L 42.5781 1.95312 L 42.5781 -25.0488 C 42.5781 -26.5137 43.5059 -27.4414 44.9219 -27.4414 L 59.2285 -27.4414 C 60.6445 -27.4414 61.5723 -26.5137 61.5723 -25.0488 L 61.5723 1.95312 L 77.5879 1.95312 C 82.0312 1.95312 84.7168 -0.683594 84.7168 -5.12695 L 84.7168 -37.3047 L 53.9551 -64.6484 C 53.2715 -65.2832 52.5879 -65.5762 51.9531 -65.5762 C 51.2695 -65.5762 50.5859 -65.2832 49.9023 -64.6484 L 19.4336 -36.5723 Z"/>
  </g>
  <g id="Ultralight-S" transform="matrix(1 0 0 1 508.564 696)">
   <path d="M 9.76562 -37.5488 C 9.76562 -37.0605 10.1562 -36.6211 10.791 -36.6211 C 11.2793 -36.6211 11.5234 -36.8164 11.7676 -37.1094 L 49.3652 -71.3867 C 49.9512 -71.9238 50.5371 -72.168 51.1719 -72.168 C 51.7578 -72.168 52.3926 -71.875 52.9297 -71.3867 L 90.4785 -37.1094 C 90.7715 -36.8164 91.0156 -36.6211 91.5039 -36.6211 C 92.0898 -36.6211 92.5293 -37.0605 92.5293 -37.5488 C 92.5293 -37.9395 92.3828 -38.1836 92.1387 -38.4766 L 81.2988 -48.3398 L 81.2988 -73.0469 C 81.2988 -73.9258 80.7129 -74.4629 79.8828 -74.4629 L 78.0273 -74.4629 C 77.1973 -74.4629 76.5625 -73.9258 76.5625 -73.0469 L 76.5625 -52.6855 L 54.3945 -73.0469 C 53.418 -73.9258 52.2461 -74.3652 51.0742 -74.3652 C 50 -74.3652 48.877 -73.9258 47.9004 -73.0469 L 10.1562 -38.4766 C 9.86328 -38.1836 9.76562 -37.9395 9.76562 -37.5488 Z M 18.8965 -4.58984 C 18.8965 -0.488281 21.3379 1.95312 25.4883 1.95312 L 41.6992 1.95312 L 41.6992 -24.9512 C 41.6992 -26.2695 42.5293 -27.0996 43.8477 -27.0996 L 58.4473 -27.0996 C 59.7168 -27.0996 60.5957 -26.2695 60.5957 -24.9512 L 60.5957 1.95312 L 76.8066 1.95312 C 80.9082 1.95312 83.3496 -0.488281 83.3496 -4.58984 L 83.3496 -38.3789 L 53.2715 -64.9902 C 52.4902 -65.7227 51.709 -66.0645 50.9766 -66.0645 C 50.2441 -66.0645 49.4629 -65.7227 48.7305 -64.9902 L 18.8965 -37.4512 Z"/>
  </g>
 </g>
</svg>
