<?xml version="1.0" ?><!DOCTYPE svg  PUBLIC '-//W3C//DTD SVG 1.1//EN'  'http://www.w3.org/Graphics/SVG/1.1/DTD/svg11.dtd'><svg enable-background="new 0 0 64 64" height="64px" id="Layer_1" version="1.1" viewBox="0 0 64 64" width="64px" xml:space="preserve" xmlns="http://www.w3.org/2000/svg" xmlns:xlink="http://www.w3.org/1999/xlink"><g><path d="M52,12.982H12c-2.2,0-4,1.8-4,4v30.036c0,2.2,1.8,4,4,4H52c2.2,0,4-1.8,4-4V16.982C56,14.782,54.2,12.982,52,12.982z    M28.204,20.789l9.593,6.55l-9.593,6.55V20.789z M48.001,43.212H26.875c-0.57,1.24-1.816,2.105-3.27,2.105s-2.699-0.866-3.27-2.105   H16c-0.829,0-1.5-0.672-1.5-1.5s0.671-1.5,1.5-1.5h4.336c0.57-1.24,1.815-2.106,3.27-2.106s2.7,0.866,3.27,2.106h21.126   c0.828,0,1.5,0.672,1.5,1.5S48.829,43.212,48.001,43.212z"/><circle cx="23.605" cy="41.712" r="1.397"/></g></svg>