<?xml version="1.0" encoding="UTF-8"?>
<!--Generator: Apple Native CoreSVG 123-->
<!DOCTYPE svg
PUBLIC "-//W3C//DTD SVG 1.1//EN"
       "http://www.w3.org/Graphics/SVG/1.1/DTD/svg11.dtd">
<svg version="1.1" xmlns="http://www.w3.org/2000/svg" xmlns:xlink="http://www.w3.org/1999/xlink" width="3300" height="2200">
 <!--glyph: "uni10004C.medium", point size: 100.000000, font version: "Version 15.0d7e11", template writer version: "5"-->
 <g id="Notes">
  <rect height="2200" id="artboard" style="fill:white;opacity:1" width="3300" x="0" y="0"/>
  <line id="" style="fill:none;stroke:black;opacity:1;stroke-width:0.5;" x1="263" x2="3036" y1="292" y2="292"/>
  <text style="stroke:none;fill:black;font-family:-apple-system,&quot;SF Pro Display&quot;,&quot;SF Pro Text&quot;,Helvetica,sans-serif;font-weight:bold;" transform="matrix(1 0 0 1 263 322)">Weight/Scale Variations</text>
  <text style="stroke:none;fill:black;font-family:-apple-system,&quot;SF Pro Display&quot;,&quot;SF Pro Text&quot;,Helvetica,sans-serif;text-anchor:middle;" transform="matrix(1 0 0 1 559.711 322)">Ultralight</text>
  <text style="stroke:none;fill:black;font-family:-apple-system,&quot;SF Pro Display&quot;,&quot;SF Pro Text&quot;,Helvetica,sans-serif;text-anchor:middle;" transform="matrix(1 0 0 1 856.422 322)">Thin</text>
  <text style="stroke:none;fill:black;font-family:-apple-system,&quot;SF Pro Display&quot;,&quot;SF Pro Text&quot;,Helvetica,sans-serif;text-anchor:middle;" transform="matrix(1 0 0 1 1153.13 322)">Light</text>
  <text style="stroke:none;fill:black;font-family:-apple-system,&quot;SF Pro Display&quot;,&quot;SF Pro Text&quot;,Helvetica,sans-serif;text-anchor:middle;" transform="matrix(1 0 0 1 1449.84 322)">Regular</text>
  <text style="stroke:none;fill:black;font-family:-apple-system,&quot;SF Pro Display&quot;,&quot;SF Pro Text&quot;,Helvetica,sans-serif;text-anchor:middle;" transform="matrix(1 0 0 1 1746.56 322)">Medium</text>
  <text style="stroke:none;fill:black;font-family:-apple-system,&quot;SF Pro Display&quot;,&quot;SF Pro Text&quot;,Helvetica,sans-serif;text-anchor:middle;" transform="matrix(1 0 0 1 2043.27 322)">Semibold</text>
  <text style="stroke:none;fill:black;font-family:-apple-system,&quot;SF Pro Display&quot;,&quot;SF Pro Text&quot;,Helvetica,sans-serif;text-anchor:middle;" transform="matrix(1 0 0 1 2339.98 322)">Bold</text>
  <text style="stroke:none;fill:black;font-family:-apple-system,&quot;SF Pro Display&quot;,&quot;SF Pro Text&quot;,Helvetica,sans-serif;text-anchor:middle;" transform="matrix(1 0 0 1 2636.69 322)">Heavy</text>
  <text style="stroke:none;fill:black;font-family:-apple-system,&quot;SF Pro Display&quot;,&quot;SF Pro Text&quot;,Helvetica,sans-serif;text-anchor:middle;" transform="matrix(1 0 0 1 2933.4 322)">Black</text>
  <line id="" style="fill:none;stroke:black;opacity:1;stroke-width:0.5;" x1="263" x2="3036" y1="1903" y2="1903"/>
  <g id="" transform="matrix(1 0 0 1 263 1933)">
   <path d="M 9.24805 0.830078 C 13.5547 0.830078 17.1387 -2.74414 17.1387 -7.05078 C 17.1387 -11.3574 13.5449 -14.9316 9.23828 -14.9316 C 4.94141 -14.9316 1.36719 -11.3574 1.36719 -7.05078 C 1.36719 -2.74414 4.95117 0.830078 9.24805 0.830078 Z M 9.24805 -0.654297 C 5.70312 -0.654297 2.87109 -3.49609 2.87109 -7.05078 C 2.87109 -10.6055 5.69336 -13.4473 9.23828 -13.4473 C 12.793 -13.4473 15.6348 -10.6055 15.6445 -7.05078 C 15.6543 -3.49609 12.8027 -0.654297 9.24805 -0.654297 Z M 9.22852 -3.42773 C 9.69727 -3.42773 9.9707 -3.74023 9.9707 -4.25781 L 9.9707 -6.31836 L 12.1973 -6.31836 C 12.6953 -6.31836 13.0371 -6.57227 13.0371 -7.04102 C 13.0371 -7.51953 12.7148 -7.7832 12.1973 -7.7832 L 9.9707 -7.7832 L 9.9707 -10.0098 C 9.9707 -10.5273 9.69727 -10.8496 9.22852 -10.8496 C 8.75977 -10.8496 8.50586 -10.5078 8.50586 -10.0098 L 8.50586 -7.7832 L 6.29883 -7.7832 C 5.78125 -7.7832 5.44922 -7.51953 5.44922 -7.04102 C 5.44922 -6.57227 5.80078 -6.31836 6.29883 -6.31836 L 8.50586 -6.31836 L 8.50586 -4.25781 C 8.50586 -3.75977 8.75977 -3.42773 9.22852 -3.42773 Z"/>
  </g>
  <g id="" transform="matrix(1 0 0 1 281.506 1933)">
   <path d="M 11.709 2.91016 C 17.1582 2.91016 21.6699 -1.60156 21.6699 -7.05078 C 21.6699 -12.4902 17.1484 -17.0117 11.6992 -17.0117 C 6.25977 -17.0117 1.74805 -12.4902 1.74805 -7.05078 C 1.74805 -1.60156 6.26953 2.91016 11.709 2.91016 Z M 11.709 1.25 C 7.09961 1.25 3.41797 -2.44141 3.41797 -7.05078 C 3.41797 -11.6504 7.08984 -15.3516 11.6992 -15.3516 C 16.3086 -15.3516 20 -11.6504 20.0098 -7.05078 C 20.0195 -2.44141 16.3184 1.25 11.709 1.25 Z M 11.6895 -2.41211 C 12.207 -2.41211 12.5195 -2.77344 12.5195 -3.33984 L 12.5195 -6.23047 L 15.5762 -6.23047 C 16.123 -6.23047 16.5039 -6.51367 16.5039 -7.03125 C 16.5039 -7.55859 16.1426 -7.86133 15.5762 -7.86133 L 12.5195 -7.86133 L 12.5195 -10.9277 C 12.5195 -11.5039 12.207 -11.8555 11.6895 -11.8555 C 11.1719 -11.8555 10.8789 -11.4844 10.8789 -10.9277 L 10.8789 -7.86133 L 7.83203 -7.86133 C 7.26562 -7.86133 6.89453 -7.55859 6.89453 -7.03125 C 6.89453 -6.51367 7.28516 -6.23047 7.83203 -6.23047 L 10.8789 -6.23047 L 10.8789 -3.33984 C 10.8789 -2.79297 11.1719 -2.41211 11.6895 -2.41211 Z"/>
  </g>
  <g id="" transform="matrix(1 0 0 1 304.924 1933)">
   <path d="M 14.9707 5.67383 C 21.9336 5.67383 27.6953 -0.078125 27.6953 -7.04102 C 27.6953 -14.0039 21.9238 -19.7559 14.9609 -19.7559 C 8.00781 -19.7559 2.25586 -14.0039 2.25586 -7.04102 C 2.25586 -0.078125 8.01758 5.67383 14.9707 5.67383 Z M 14.9707 3.85742 C 8.93555 3.85742 4.08203 -1.00586 4.08203 -7.04102 C 4.08203 -13.0762 8.92578 -17.9395 14.9609 -17.9395 C 21.0059 -17.9395 25.8594 -13.0762 25.8691 -7.04102 C 25.8789 -1.00586 21.0156 3.85742 14.9707 3.85742 Z M 14.9512 -1.06445 C 15.5176 -1.06445 15.8691 -1.45508 15.8691 -2.06055 L 15.8691 -6.13281 L 20.1074 -6.13281 C 20.6934 -6.13281 21.1133 -6.46484 21.1133 -7.02148 C 21.1133 -7.59766 20.7227 -7.93945 20.1074 -7.93945 L 15.8691 -7.93945 L 15.8691 -12.1875 C 15.8691 -12.8027 15.5176 -13.1934 14.9512 -13.1934 C 14.3848 -13.1934 14.0625 -12.7832 14.0625 -12.1875 L 14.0625 -7.93945 L 9.83398 -7.93945 C 9.21875 -7.93945 8.80859 -7.59766 8.80859 -7.02148 C 8.80859 -6.46484 9.23828 -6.13281 9.83398 -6.13281 L 14.0625 -6.13281 L 14.0625 -2.06055 C 14.0625 -1.47461 14.3848 -1.06445 14.9512 -1.06445 Z"/>
  </g>
  <text style="stroke:none;fill:black;font-family:-apple-system,&quot;SF Pro Display&quot;,&quot;SF Pro Text&quot;,Helvetica,sans-serif;font-weight:bold;" transform="matrix(1 0 0 1 263 1953)">Design Variations</text>
  <text style="stroke:none;fill:black;font-family:-apple-system,&quot;SF Pro Display&quot;,&quot;SF Pro Text&quot;,Helvetica,sans-serif;" transform="matrix(1 0 0 1 263 1971)">Symbols are supported in up to nine weights and three scales.</text>
  <text style="stroke:none;fill:black;font-family:-apple-system,&quot;SF Pro Display&quot;,&quot;SF Pro Text&quot;,Helvetica,sans-serif;" transform="matrix(1 0 0 1 263 1989)">For optimal layout with text and other symbols, vertically align</text>
  <text style="stroke:none;fill:black;font-family:-apple-system,&quot;SF Pro Display&quot;,&quot;SF Pro Text&quot;,Helvetica,sans-serif;" transform="matrix(1 0 0 1 263 2007)">symbols with the adjacent text.</text>
  <rect height="14" id="" style="fill:#00AEEF;stroke:none;opacity:0.4;" width="3" x="776" y="1919"/>
  <g id="" transform="matrix(1 0 0 1 779 1933)">
   <path d="M 10.5273 0 L 12.373 0 L 7.17773 -14.0918 L 5.43945 -14.0918 L 0.244141 0 L 2.08984 0 L 3.50586 -4.0332 L 9.11133 -4.0332 Z M 6.2793 -11.9531 L 6.33789 -11.9531 L 8.59375 -5.52734 L 4.02344 -5.52734 Z"/>
  </g>
  <rect height="14" id="" style="fill:#00AEEF;stroke:none;opacity:0.4;" width="3" x="791.617" y="1919"/>
  <text style="stroke:none;fill:black;font-family:-apple-system,&quot;SF Pro Display&quot;,&quot;SF Pro Text&quot;,Helvetica,sans-serif;font-weight:bold;" transform="matrix(1 0 0 1 776 1953)">Margins</text>
  <text style="stroke:none;fill:black;font-family:-apple-system,&quot;SF Pro Display&quot;,&quot;SF Pro Text&quot;,Helvetica,sans-serif;" transform="matrix(1 0 0 1 776 1971)">Leading and trailing margins on the left and right side of each symbol</text>
  <text style="stroke:none;fill:black;font-family:-apple-system,&quot;SF Pro Display&quot;,&quot;SF Pro Text&quot;,Helvetica,sans-serif;" transform="matrix(1 0 0 1 776 1989)">can be adjusted by modifying the width of the blue rectangles.</text>
  <text style="stroke:none;fill:black;font-family:-apple-system,&quot;SF Pro Display&quot;,&quot;SF Pro Text&quot;,Helvetica,sans-serif;" transform="matrix(1 0 0 1 776 2007)">Modifications are automatically applied proportionally to all</text>
  <text style="stroke:none;fill:black;font-family:-apple-system,&quot;SF Pro Display&quot;,&quot;SF Pro Text&quot;,Helvetica,sans-serif;" transform="matrix(1 0 0 1 776 2025)">scales and weights.</text>
  <g id="" transform="matrix(1 0 0 1 1289 1933)">
   <path d="M 2.83203 3.11523 L 4.375 4.6582 C 5.22461 5.48828 6.19141 5.41992 7.06055 4.46289 L 17.2754 -6.66016 C 17.7051 -6.36719 18.0957 -6.37695 18.5645 -6.47461 L 19.6094 -6.68945 L 20.3027 -5.99609 L 20.2539 -5.47852 C 20.1855 -4.95117 20.3516 -4.53125 20.8496 -4.0332 L 21.6602 -3.22266 C 22.168 -2.71484 22.8223 -2.68555 23.3008 -3.16406 L 26.5527 -6.41602 C 27.0312 -6.89453 27.0117 -7.54883 26.5039 -8.05664 L 25.6836 -8.87695 C 25.1855 -9.375 24.7754 -9.55078 24.2383 -9.47266 L 23.7109 -9.41406 L 23.0566 -10.0781 L 23.3398 -11.2207 C 23.4863 -11.7871 23.3398 -12.2559 22.7148 -12.8613 L 20.3027 -15.2539 C 16.7578 -18.7793 12.2266 -18.6719 9.11133 -15.5371 C 8.69141 -15.1074 8.64258 -14.5215 8.91602 -14.0918 C 9.15039 -13.7207 9.62891 -13.4961 10.2734 -13.6621 C 11.7871 -14.043 13.3008 -13.9258 14.7852 -12.9199 L 14.1602 -11.3379 C 13.9258 -10.752 13.9453 -10.2734 14.1797 -9.83398 L 3.01758 0.439453 C 2.08008 1.30859 1.97266 2.25586 2.83203 3.11523 Z M 10.6738 -15.1465 C 13.3398 -17.1387 16.6504 -16.8262 19.0527 -14.4141 L 21.6797 -11.8066 C 21.9141 -11.5723 21.9434 -11.3867 21.8848 -11.0938 L 21.5039 -9.53125 L 23.0762 -7.95898 L 24.043 -8.04688 C 24.3262 -8.07617 24.4141 -8.05664 24.6387 -7.83203 L 25.2637 -7.20703 L 22.5098 -4.46289 L 21.8848 -5.07812 C 21.6602 -5.30273 21.6406 -5.40039 21.6699 -5.68359 L 21.7578 -6.64062 L 20.1953 -8.20312 L 18.5742 -7.89062 C 18.291 -7.83203 18.1445 -7.83203 17.9102 -8.07617 L 15.7324 -10.2539 C 15.5078 -10.4883 15.4785 -10.625 15.6055 -10.9473 L 16.5527 -13.2227 C 14.9512 -14.7559 12.8418 -15.6055 10.8008 -14.9512 C 10.7129 -14.9219 10.6445 -14.9414 10.6152 -14.9805 C 10.5859 -15.0293 10.5859 -15.0781 10.6738 -15.1465 Z M 4.10156 2.41211 C 3.61328 1.91406 3.78906 1.61133 4.12109 1.30859 L 15.0781 -8.80859 L 16.3086 -7.57812 L 6.15234 3.34961 C 5.84961 3.68164 5.46875 3.7793 5.06836 3.37891 Z"/>
  </g>
  <text style="stroke:none;fill:black;font-family:-apple-system,&quot;SF Pro Display&quot;,&quot;SF Pro Text&quot;,Helvetica,sans-serif;font-weight:bold;" transform="matrix(1 0 0 1 1289 1953)">Exporting</text>
  <text style="stroke:none;fill:black;font-family:-apple-system,&quot;SF Pro Display&quot;,&quot;SF Pro Text&quot;,Helvetica,sans-serif;" transform="matrix(1 0 0 1 1289 1971)">Symbols should be outlined when exporting to ensure the</text>
  <text style="stroke:none;fill:black;font-family:-apple-system,&quot;SF Pro Display&quot;,&quot;SF Pro Text&quot;,Helvetica,sans-serif;" transform="matrix(1 0 0 1 1289 1989)">design is preserved when submitting to Xcode.</text>
  <text id="template-version" style="stroke:none;fill:black;font-family:-apple-system,&quot;SF Pro Display&quot;,&quot;SF Pro Text&quot;,Helvetica,sans-serif;text-anchor:end;" transform="matrix(1 0 0 1 3036 1933)">Template v.1.0</text>
  <text style="stroke:none;fill:black;font-family:-apple-system,&quot;SF Pro Display&quot;,&quot;SF Pro Text&quot;,Helvetica,sans-serif;text-anchor:end;" transform="matrix(1 0 0 1 3036 1951)">Generated from plus.circle</text>
  <text style="stroke:none;fill:black;font-family:-apple-system,&quot;SF Pro Display&quot;,&quot;SF Pro Text&quot;,Helvetica,sans-serif;text-anchor:end;" transform="matrix(1 0 0 1 3036 1969)">Typeset at 100 points</text>
  <text style="stroke:none;fill:black;font-family:-apple-system,&quot;SF Pro Display&quot;,&quot;SF Pro Text&quot;,Helvetica,sans-serif;" transform="matrix(1 0 0 1 263 726)">Small</text>
  <text style="stroke:none;fill:black;font-family:-apple-system,&quot;SF Pro Display&quot;,&quot;SF Pro Text&quot;,Helvetica,sans-serif;" transform="matrix(1 0 0 1 263 1156)">Medium</text>
  <text style="stroke:none;fill:black;font-family:-apple-system,&quot;SF Pro Display&quot;,&quot;SF Pro Text&quot;,Helvetica,sans-serif;" transform="matrix(1 0 0 1 263 1586)">Large</text>
 </g>
 <g id="Guides">
  <g id="H-reference" style="fill:#27AAE1;stroke:none;" transform="matrix(1 0 0 1 339 696)">
   <path d="M 54.9316 0 L 57.666 0 L 30.5664 -70.459 L 28.0762 -70.459 L 0.976562 0 L 3.66211 0 L 12.9395 -24.4629 L 45.7031 -24.4629 Z M 29.1992 -67.0898 L 29.4434 -67.0898 L 44.8242 -26.709 L 13.8184 -26.709 Z"/>
  </g>
  <line id="Baseline-S" style="fill:none;stroke:#27AAE1;opacity:1;stroke-width:0.577;" x1="263" x2="3036" y1="696" y2="696"/>
  <line id="Capline-S" style="fill:none;stroke:#27AAE1;opacity:1;stroke-width:0.577;" x1="263" x2="3036" y1="625.541" y2="625.541"/>
  <g id="H-reference" style="fill:#27AAE1;stroke:none;" transform="matrix(1 0 0 1 339 1126)">
   <path d="M 54.9316 0 L 57.666 0 L 30.5664 -70.459 L 28.0762 -70.459 L 0.976562 0 L 3.66211 0 L 12.9395 -24.4629 L 45.7031 -24.4629 Z M 29.1992 -67.0898 L 29.4434 -67.0898 L 44.8242 -26.709 L 13.8184 -26.709 Z"/>
  </g>
  <line id="Baseline-M" style="fill:none;stroke:#27AAE1;opacity:1;stroke-width:0.577;" x1="263" x2="3036" y1="1126" y2="1126"/>
  <line id="Capline-M" style="fill:none;stroke:#27AAE1;opacity:1;stroke-width:0.577;" x1="263" x2="3036" y1="1055.54" y2="1055.54"/>
  <g id="H-reference" style="fill:#27AAE1;stroke:none;" transform="matrix(1 0 0 1 339 1556)">
   <path d="M 54.9316 0 L 57.666 0 L 30.5664 -70.459 L 28.0762 -70.459 L 0.976562 0 L 3.66211 0 L 12.9395 -24.4629 L 45.7031 -24.4629 Z M 29.1992 -67.0898 L 29.4434 -67.0898 L 44.8242 -26.709 L 13.8184 -26.709 Z"/>
  </g>
  <line id="Baseline-L" style="fill:none;stroke:#27AAE1;opacity:1;stroke-width:0.577;" x1="263" x2="3036" y1="1556" y2="1556"/>
  <line id="Capline-L" style="fill:none;stroke:#27AAE1;opacity:1;stroke-width:0.577;" x1="263" x2="3036" y1="1485.54" y2="1485.54"/>
  <rect height="119.336" id="left-margin" style="fill:#00AEEF;stroke:none;opacity:0.4;" width="8.74023" x="1391.3" y="1030.79"/>
  <rect height="119.336" id="right-margin" style="fill:#00AEEF;stroke:none;opacity:0.4;" width="8.74023" x="1499.65" y="1030.79"/>
 </g>
 <g id="Symbols">
  <g id="Black-L" transform="matrix(1 0 0 1 2854.05 1556)">
   <path d="M 79.3457 32.8613 C 116.748 32.8613 147.412 2.19727 147.412 -35.2051 C 147.412 -72.6074 116.748 -103.271 79.2969 -103.271 C 41.8945 -103.271 11.2793 -72.6074 11.2793 -35.2051 C 11.2793 2.19727 41.9434 32.8613 79.3457 32.8613 Z M 79.3457 12.4023 C 52.9785 12.4023 31.7383 -8.83789 31.7383 -35.2051 C 31.7383 -61.5723 52.9297 -82.8125 79.2969 -82.8125 C 105.664 -82.8125 126.953 -61.5723 126.953 -35.2051 C 127.002 -8.83789 105.713 12.4023 79.3457 12.4023 Z M 79.2969 -5.61523 C 84.082 -5.61523 87.5 -9.0332 87.5 -13.8184 L 87.5 -26.9531 L 101.611 -26.9531 C 106.348 -26.9531 109.863 -30.3711 109.863 -35.1074 C 109.863 -39.9414 106.396 -43.3594 101.611 -43.3594 L 87.5 -43.3594 L 87.5 -56.8848 C 87.5 -61.6699 84.082 -65.1367 79.2969 -65.1367 C 74.5117 -65.1367 71.0938 -61.6211 71.0938 -56.8848 L 71.0938 -43.3594 L 57.0312 -43.3594 C 52.2461 -43.3594 48.7793 -39.9414 48.7793 -35.1074 C 48.7793 -30.3711 52.2949 -26.9531 57.0312 -26.9531 L 71.0938 -26.9531 L 71.0938 -13.8184 C 71.0938 -9.08203 74.5117 -5.61523 79.2969 -5.61523 Z"/>
  </g>
  <g id="Heavy-L" transform="matrix(1 0 0 1 2558.39 1556)">
   <path d="M 78.2715 31.7871 C 115.088 31.7871 145.312 1.61133 145.312 -35.2051 C 145.312 -72.0215 115.039 -102.197 78.2715 -102.197 C 41.4551 -102.197 11.2793 -72.0215 11.2793 -35.2051 C 11.2793 1.61133 41.5039 31.7871 78.2715 31.7871 Z M 78.2715 14.0137 C 51.0254 14.0137 29.0527 -7.95898 29.0527 -35.2051 C 29.0527 -62.5 50.9766 -84.4727 78.2715 -84.4727 C 105.518 -84.4727 127.49 -62.5 127.539 -35.2051 C 127.539 -7.95898 105.566 14.0137 78.2715 14.0137 Z M 78.2227 -5.51758 C 82.5684 -5.51758 85.5957 -8.64258 85.5957 -12.9883 L 85.5957 -27.832 L 101.367 -27.832 C 105.664 -27.832 108.838 -30.8105 108.838 -35.1074 C 108.838 -39.4531 105.762 -42.4805 101.367 -42.4805 L 85.5957 -42.4805 L 85.5957 -57.8613 C 85.5957 -62.2559 82.5684 -65.332 78.2227 -65.332 C 73.9258 -65.332 70.9473 -62.1582 70.9473 -57.8613 L 70.9473 -42.4805 L 55.1758 -42.4805 C 50.7812 -42.4805 47.6562 -39.4531 47.6562 -35.1074 C 47.6562 -30.8105 50.8789 -27.832 55.1758 -27.832 L 70.9473 -27.832 L 70.9473 -12.9883 C 70.9473 -8.69141 73.9258 -5.51758 78.2227 -5.51758 Z"/>
  </g>
  <g id="Bold-L" transform="matrix(1 0 0 1 2262.88 1556)">
   <path d="M 77.0996 30.6152 C 113.232 30.6152 142.92 0.878906 142.92 -35.2051 C 142.92 -71.3379 113.184 -101.025 77.0508 -101.025 C 40.9668 -101.025 11.2793 -71.3379 11.2793 -35.2051 C 11.2793 0.878906 41.0156 30.6152 77.0996 30.6152 Z M 77.0996 15.8691 C 48.8281 15.8691 26.0742 -6.93359 26.0742 -35.2051 C 26.0742 -63.4766 48.7793 -86.2793 77.0508 -86.2793 C 105.371 -86.2793 128.125 -63.4766 128.174 -35.2051 C 128.174 -6.93359 105.371 15.8691 77.0996 15.8691 Z M 77.002 -5.46875 C 80.8594 -5.46875 83.3984 -8.1543 83.3984 -12.0605 L 83.3984 -28.8086 L 101.074 -28.8086 C 104.932 -28.8086 107.715 -31.3477 107.715 -35.1074 C 107.715 -38.9648 105.029 -41.5039 101.074 -41.5039 L 83.3984 -41.5039 L 83.3984 -58.9355 C 83.3984 -62.8418 80.8594 -65.5273 77.002 -65.5273 C 73.2422 -65.5273 70.7031 -62.793 70.7031 -58.9355 L 70.7031 -41.5039 L 53.0762 -41.5039 C 49.1699 -41.5039 46.4355 -38.9648 46.4355 -35.1074 C 46.4355 -31.3477 49.2676 -28.8086 53.0762 -28.8086 L 70.7031 -28.8086 L 70.7031 -12.0605 C 70.7031 -8.25195 73.2422 -5.46875 77.002 -5.46875 Z"/>
  </g>
  <g id="Semibold-L" transform="matrix(1 0 0 1 1966.97 1556)">
   <path d="M 76.2695 29.7852 C 111.914 29.7852 141.309 0.439453 141.309 -35.2051 C 141.309 -70.8496 111.865 -100.244 76.2695 -100.244 C 40.625 -100.244 11.2793 -70.8496 11.2793 -35.2051 C 11.2793 0.439453 40.6738 29.7852 76.2695 29.7852 Z M 76.2695 17.0898 C 47.3145 17.0898 24.0234 -6.25 24.0234 -35.2051 C 24.0234 -64.209 47.2656 -87.5 76.2695 -87.5 C 105.225 -87.5 128.564 -64.209 128.613 -35.2051 C 128.662 -6.25 105.273 17.0898 76.2695 17.0898 Z M 76.1719 -5.41992 C 79.6875 -5.41992 81.9336 -7.8125 81.9336 -11.4258 L 81.9336 -29.4922 L 100.879 -29.4922 C 104.395 -29.4922 106.934 -31.6895 106.934 -35.1074 C 106.934 -38.623 104.492 -40.8691 100.879 -40.8691 L 81.9336 -40.8691 L 81.9336 -59.668 C 81.9336 -63.2812 79.6875 -65.7227 76.1719 -65.7227 C 72.7539 -65.7227 70.5566 -63.1836 70.5566 -59.668 L 70.5566 -40.8691 L 51.6602 -40.8691 C 48.0469 -40.8691 45.5566 -38.623 45.5566 -35.1074 C 45.5566 -31.6895 48.1445 -29.4922 51.6602 -29.4922 L 70.5566 -29.4922 L 70.5566 -11.4258 C 70.5566 -7.91016 72.7539 -5.41992 76.1719 -5.41992 Z"/>
  </g>
  <g id="Medium-L" transform="matrix(1 0 0 1 1670.87 1556)">
   <path d="M 75.6836 29.1992 C 110.938 29.1992 140.088 0.0488281 140.088 -35.2051 C 140.088 -70.459 110.889 -99.6094 75.6348 -99.6094 C 40.3809 -99.6094 11.2793 -70.459 11.2793 -35.2051 C 11.2793 0.0488281 40.3809 29.1992 75.6836 29.1992 Z M 75.6836 18.0664 C 46.1426 18.0664 22.4609 -5.71289 22.4609 -35.2051 C 22.4609 -64.6973 46.1426 -88.4766 75.6348 -88.4766 C 105.127 -88.4766 128.906 -64.6973 128.906 -35.2051 C 128.955 -5.71289 105.176 18.0664 75.6836 18.0664 Z M 75.5371 -5.37109 C 78.7598 -5.37109 80.8105 -7.56836 80.8105 -10.9375 L 80.8105 -29.9805 L 100.732 -29.9805 C 104.004 -29.9805 106.348 -31.9824 106.348 -35.1074 C 106.348 -38.3301 104.102 -40.332 100.732 -40.332 L 80.8105 -40.332 L 80.8105 -60.2051 C 80.8105 -63.623 78.7598 -65.8203 75.5371 -65.8203 C 72.4121 -65.8203 70.459 -63.5254 70.459 -60.2051 L 70.459 -40.332 L 50.5859 -40.332 C 47.168 -40.332 44.9219 -38.3301 44.9219 -35.1074 C 44.9219 -31.9824 47.3145 -29.9805 50.5859 -29.9805 L 70.459 -29.9805 L 70.459 -10.9375 C 70.459 -7.66602 72.4121 -5.37109 75.5371 -5.37109 Z"/>
  </g>
  <g id="Regular-L" transform="matrix(1 0 0 1 1374.97 1556)">
   <path d="M 74.8535 28.3691 C 109.668 28.3691 138.477 -0.390625 138.477 -35.2051 C 138.477 -70.0195 109.619 -98.7793 74.8047 -98.7793 C 40.0391 -98.7793 11.2793 -70.0195 11.2793 -35.2051 C 11.2793 -0.390625 40.0879 28.3691 74.8535 28.3691 Z M 74.8535 19.2871 C 44.6777 19.2871 20.4102 -5.0293 20.4102 -35.2051 C 20.4102 -65.3809 44.6289 -89.6973 74.8047 -89.6973 C 105.029 -89.6973 129.297 -65.3809 129.346 -35.2051 C 129.395 -5.0293 105.078 19.2871 74.8535 19.2871 Z M 74.7559 -5.32227 C 77.5879 -5.32227 79.3457 -7.27539 79.3457 -10.3027 L 79.3457 -30.6641 L 100.537 -30.6641 C 103.467 -30.6641 105.566 -32.3242 105.566 -35.1074 C 105.566 -37.9883 103.613 -39.6973 100.537 -39.6973 L 79.3457 -39.6973 L 79.3457 -60.9375 C 79.3457 -64.0137 77.5879 -65.9668 74.7559 -65.9668 C 71.9238 -65.9668 70.3125 -63.916 70.3125 -60.9375 L 70.3125 -39.6973 L 49.1699 -39.6973 C 46.0938 -39.6973 44.043 -37.9883 44.043 -35.1074 C 44.043 -32.3242 46.1914 -30.6641 49.1699 -30.6641 L 70.3125 -30.6641 L 70.3125 -10.3027 C 70.3125 -7.37305 71.9238 -5.32227 74.7559 -5.32227 Z"/>
  </g>
  <g id="Light-L" transform="matrix(1 0 0 1 1079.18 1556)">
   <path d="M 73.9258 27.4902 C 108.301 27.4902 136.621 -0.830078 136.621 -35.1562 C 136.621 -69.5312 108.252 -97.8516 73.9258 -97.8516 C 39.5508 -97.8516 11.2793 -69.5312 11.2793 -35.1562 C 11.2793 -0.830078 39.5996 27.4902 73.9258 27.4902 Z M 73.9258 20.6055 C 43.1152 20.6055 18.2129 -4.3457 18.2129 -35.1562 C 18.2129 -66.0156 43.0664 -90.918 73.9258 -90.918 C 104.736 -90.918 129.688 -66.0156 129.736 -35.1562 C 129.736 -4.3457 104.785 20.6055 73.9258 20.6055 Z M 73.8281 -5.22461 C 76.0254 -5.22461 77.3438 -6.73828 77.3438 -8.98438 L 77.3438 -31.6895 L 100.586 -31.6895 C 102.734 -31.6895 104.346 -33.0078 104.346 -35.0586 C 104.346 -37.207 102.881 -38.5742 100.586 -38.5742 L 77.3438 -38.5742 L 77.3438 -61.8164 C 77.3438 -64.1113 76.0254 -65.5762 73.8281 -65.5762 C 71.7285 -65.5762 70.459 -64.0137 70.459 -61.8164 L 70.459 -38.5742 L 47.3145 -38.5742 C 45.0195 -38.5742 43.457 -37.207 43.457 -35.0586 C 43.457 -33.0078 45.1172 -31.6895 47.3145 -31.6895 L 70.459 -31.6895 L 70.459 -8.98438 C 70.459 -6.78711 71.7285 -5.22461 73.8281 -5.22461 Z"/>
  </g>
  <g id="Thin-L" transform="matrix(1 0 0 1 783.693 1556)">
   <path d="M 72.7051 26.3184 C 106.494 26.3184 134.18 -1.36719 134.18 -35.1074 C 134.18 -68.8965 106.494 -96.582 72.7051 -96.582 C 38.9648 -96.582 11.2793 -68.8965 11.2793 -35.1074 C 11.2793 -1.36719 38.9648 26.3184 72.7051 26.3184 Z M 72.7051 22.3145 C 41.0156 22.3145 15.2832 -3.41797 15.2832 -35.1074 C 15.2832 -66.8457 41.0156 -92.5781 72.7051 -92.5781 C 104.395 -92.5781 130.176 -66.8457 130.176 -35.1074 C 130.176 -3.41797 104.443 22.3145 72.7051 22.3145 Z M 72.6562 -5.12695 C 73.9258 -5.12695 74.7559 -6.00586 74.7559 -7.17773 L 74.7559 -33.0078 L 100.635 -33.0078 C 101.758 -33.0078 102.734 -33.8867 102.734 -34.9609 C 102.734 -36.1816 101.855 -37.1094 100.635 -37.1094 L 74.7559 -37.1094 L 74.7559 -62.9395 C 74.7559 -64.209 73.9258 -65.0879 72.6562 -65.0879 C 71.4844 -65.0879 70.6543 -64.1602 70.6543 -62.9395 L 70.6543 -37.1094 L 44.8242 -37.1094 C 43.6035 -37.1094 42.6758 -36.1816 42.6758 -34.9609 C 42.6758 -33.8867 43.6523 -33.0078 44.8242 -33.0078 L 70.6543 -33.0078 L 70.6543 -7.17773 C 70.6543 -6.05469 71.4844 -5.12695 72.6562 -5.12695 Z"/>
  </g>
  <g id="Ultralight-L" transform="matrix(1 0 0 1 487.616 1556)">
   <path d="M 72.1191 25.7324 C 105.566 25.7324 132.91 -1.61133 132.91 -35.1074 C 132.91 -68.5547 105.566 -95.8984 72.1191 -95.8984 C 38.623 -95.8984 11.2793 -68.5547 11.2793 -35.1074 C 11.2793 -1.61133 38.623 25.7324 72.1191 25.7324 Z M 72.1191 23.2422 C 39.9414 23.2422 13.7695 -2.97852 13.7695 -35.1074 C 13.7695 -67.2363 39.9414 -93.4082 72.1191 -93.4082 C 104.248 -93.4082 130.42 -67.2363 130.42 -35.1074 C 130.42 -2.97852 104.248 23.2422 72.1191 23.2422 Z M 72.0215 -5.07812 C 72.8516 -5.07812 73.4375 -5.66406 73.4375 -6.29883 L 73.4375 -33.6426 L 100.635 -33.6426 C 101.27 -33.6426 101.904 -34.375 101.904 -34.9121 C 101.904 -35.6445 101.367 -36.377 100.635 -36.377 L 73.4375 -36.377 L 73.4375 -63.5254 C 73.4375 -64.2578 72.8516 -64.7949 72.0215 -64.7949 C 71.3867 -64.7949 70.752 -64.2578 70.752 -63.5254 L 70.752 -36.377 L 43.5547 -36.377 C 42.8711 -36.377 42.2852 -35.6445 42.2852 -34.9121 C 42.2852 -34.375 42.9199 -33.6426 43.5547 -33.6426 L 70.752 -33.6426 L 70.752 -6.29883 C 70.752 -5.66406 71.3867 -5.07812 72.0215 -5.07812 Z"/>
  </g>
  <g id="Black-M" transform="matrix(1 0 0 1 2870.97 1126)">
   <path d="M 62.4023 18.457 C 91.9922 18.457 116.113 -5.61523 116.113 -35.2051 C 116.113 -64.7949 91.9922 -88.8672 62.4023 -88.8672 C 32.8125 -88.8672 8.74023 -64.7949 8.74023 -35.2051 C 8.74023 -5.61523 32.8125 18.457 62.4023 18.457 Z M 62.4023 0.195312 C 42.8711 0.195312 27.002 -15.625 27.002 -35.2051 C 27.002 -54.7363 42.8711 -70.6055 62.4023 -70.6055 C 81.9824 -70.6055 97.8027 -54.7363 97.8027 -35.2051 C 97.8027 -15.625 81.9824 0.195312 62.4023 0.195312 Z M 62.4023 -12.3535 C 66.3574 -12.3535 69.3848 -15.2344 69.3848 -19.043 L 69.3848 -28.1738 L 79.1504 -28.1738 C 82.959 -28.1738 85.8398 -31.2012 85.8398 -35.1562 C 85.8398 -39.0625 82.959 -42.0898 79.1504 -42.0898 L 69.3848 -42.0898 L 69.3848 -51.2207 C 69.3848 -55.0293 66.3574 -57.9102 62.4023 -57.9102 C 58.4961 -57.9102 55.4688 -55.0293 55.4688 -51.2207 L 55.4688 -42.0898 L 45.7031 -42.0898 C 41.8945 -42.0898 39.0137 -39.0625 39.0137 -35.1562 C 39.0137 -31.2012 41.8945 -28.1738 45.7031 -28.1738 L 55.4688 -28.1738 L 55.4688 -19.043 C 55.4688 -15.2344 58.4961 -12.3535 62.4023 -12.3535 Z"/>
  </g>
  <g id="Heavy-M" transform="matrix(1 0 0 1 2575.19 1126)">
   <path d="M 61.5234 17.5781 C 90.5273 17.5781 114.258 -6.15234 114.258 -35.2051 C 114.258 -64.2578 90.5273 -87.9883 61.4746 -87.9883 C 32.4707 -87.9883 8.74023 -64.2578 8.74023 -35.2051 C 8.74023 -6.15234 32.4707 17.5781 61.5234 17.5781 Z M 61.5234 1.66016 C 41.1133 1.66016 24.6582 -14.8438 24.6582 -35.2051 C 24.6582 -55.5664 41.1133 -72.0703 61.4746 -72.0703 C 81.8848 -72.0703 98.3398 -55.5664 98.3398 -35.2051 C 98.3398 -14.8438 81.8848 1.66016 61.5234 1.66016 Z M 61.4746 -12.2559 C 65.0879 -12.2559 67.7734 -14.8926 67.7734 -18.457 L 67.7734 -28.8574 L 78.8574 -28.8574 C 82.4219 -28.8574 85.0586 -31.4941 85.0586 -35.1562 C 85.0586 -38.7695 82.4219 -41.4551 78.8574 -41.4551 L 67.7734 -41.4551 L 67.7734 -52.002 C 67.7734 -55.6152 65.0879 -58.252 61.4746 -58.252 C 57.8613 -58.252 55.2246 -55.5664 55.2246 -52.002 L 55.2246 -41.4551 L 44.1406 -41.4551 C 40.5762 -41.4551 37.9395 -38.7695 37.9395 -35.1562 C 37.9395 -31.4941 40.5762 -28.8574 44.1406 -28.8574 L 55.2246 -28.8574 L 55.2246 -18.457 C 55.2246 -14.9414 57.8613 -12.2559 61.4746 -12.2559 Z"/>
  </g>
  <g id="Bold-M" transform="matrix(1 0 0 1 2279.5 1126)">
   <path d="M 60.498 16.5039 C 88.8672 16.5039 112.207 -6.78711 112.207 -35.2051 C 112.207 -63.623 88.8672 -86.9629 60.4492 -86.9629 C 32.0312 -86.9629 8.74023 -63.623 8.74023 -35.2051 C 8.74023 -6.78711 32.0801 16.5039 60.498 16.5039 Z M 60.498 3.22266 C 39.1602 3.22266 22.0703 -13.916 22.0703 -35.2051 C 22.0703 -56.4941 39.1602 -73.6816 60.4492 -73.6816 C 81.7383 -73.6816 98.9258 -56.4941 98.9258 -35.2051 C 98.9746 -13.916 81.7871 3.22266 60.498 3.22266 Z M 60.4492 -12.207 C 63.7207 -12.207 65.9668 -14.5508 65.9668 -17.8711 L 65.9668 -29.6387 L 78.5156 -29.6387 C 81.7871 -29.6387 84.1797 -31.8848 84.1797 -35.1562 C 84.1797 -38.4277 81.8359 -40.7227 78.5156 -40.7227 L 65.9668 -40.7227 L 65.9668 -52.9297 C 65.9668 -56.25 63.7207 -58.5938 60.4492 -58.5938 C 57.1777 -58.5938 54.9316 -56.2012 54.9316 -52.9297 L 54.9316 -40.7227 L 42.4316 -40.7227 C 39.1113 -40.7227 36.7676 -38.4277 36.7676 -35.1562 C 36.7676 -31.8848 39.1602 -29.6387 42.4316 -29.6387 L 54.9316 -29.6387 L 54.9316 -17.8711 C 54.9316 -14.5996 57.1777 -12.207 60.4492 -12.207 Z"/>
  </g>
  <g id="Semibold-M" transform="matrix(1 0 0 1 1983.5 1126)">
   <path d="M 59.7656 15.8203 C 87.7441 15.8203 110.791 -7.22656 110.791 -35.2051 C 110.791 -63.1836 87.6953 -86.2793 59.7656 -86.2793 C 31.7871 -86.2793 8.74023 -63.1836 8.74023 -35.2051 C 8.74023 -7.22656 31.7871 15.8203 59.7656 15.8203 Z M 59.7656 4.3457 C 37.8418 4.3457 20.2637 -13.2812 20.2637 -35.2051 C 20.2637 -57.1289 37.793 -74.8047 59.7656 -74.8047 C 81.6895 -74.8047 99.3164 -57.1289 99.3652 -35.2051 C 99.3652 -13.2812 81.6895 4.3457 59.7656 4.3457 Z M 59.7168 -12.1582 C 62.7441 -12.1582 64.7461 -14.3066 64.7461 -17.4316 L 64.7461 -30.1758 L 78.2715 -30.1758 C 81.3477 -30.1758 83.5449 -32.1289 83.5449 -35.1562 C 83.5449 -38.2324 81.4453 -40.1855 78.2715 -40.1855 L 64.7461 -40.1855 L 64.7461 -53.5645 C 64.7461 -56.6895 62.7441 -58.8379 59.7168 -58.8379 C 56.6895 -58.8379 54.7363 -56.6406 54.7363 -53.5645 L 54.7363 -40.1855 L 41.2598 -40.1855 C 38.0859 -40.1855 35.9375 -38.2324 35.9375 -35.1562 C 35.9375 -32.1289 38.1836 -30.1758 41.2598 -30.1758 L 54.7363 -30.1758 L 54.7363 -17.4316 C 54.7363 -14.3555 56.6895 -12.1582 59.7168 -12.1582 Z"/>
  </g>
  <g id="Medium-M" transform="matrix(1 0 0 1 1687.3 1126)">
   <path d="M 59.2285 15.2832 C 86.9141 15.2832 109.766 -7.56836 109.766 -35.2051 C 109.766 -62.8906 86.8652 -85.7422 59.1797 -85.7422 C 31.543 -85.7422 8.74023 -62.8906 8.74023 -35.2051 C 8.74023 -7.56836 31.5918 15.2832 59.2285 15.2832 Z M 59.2285 5.17578 C 36.8164 5.17578 18.8965 -12.8418 18.8965 -35.2051 C 18.8965 -57.6172 36.8164 -75.6348 59.1797 -75.6348 C 81.5918 -75.6348 99.6094 -57.6172 99.6582 -35.2051 C 99.707 -12.8418 81.6406 5.17578 59.2285 5.17578 Z M 59.1309 -12.1094 C 62.0117 -12.1094 63.8184 -14.1113 63.8184 -17.1387 L 63.8184 -30.6152 L 78.125 -30.6152 C 81.0547 -30.6152 83.1055 -32.3242 83.1055 -35.1562 C 83.1055 -38.0371 81.1523 -39.7949 78.125 -39.7949 L 63.8184 -39.7949 L 63.8184 -54.0527 C 63.8184 -57.0801 62.0117 -59.0332 59.1309 -59.0332 C 56.2988 -59.0332 54.5898 -56.9824 54.5898 -54.0527 L 54.5898 -39.7949 L 40.332 -39.7949 C 37.3047 -39.7949 35.3027 -38.0371 35.3027 -35.1562 C 35.3027 -32.3242 37.4023 -30.6152 40.332 -30.6152 L 54.5898 -30.6152 L 54.5898 -17.1387 C 54.5898 -14.209 56.2988 -12.1094 59.1309 -12.1094 Z"/>
  </g>
  <g id="Regular-M" transform="matrix(1 0 0 1 1391.3 1126)">
   <path d="M 58.5449 14.5508 C 85.791 14.5508 108.35 -8.00781 108.35 -35.2539 C 108.35 -62.4512 85.7422 -85.0586 58.4961 -85.0586 C 31.2988 -85.0586 8.74023 -62.4512 8.74023 -35.2539 C 8.74023 -8.00781 31.3477 14.5508 58.5449 14.5508 Z M 58.5449 6.25 C 35.498 6.25 17.0898 -12.207 17.0898 -35.2539 C 17.0898 -58.252 35.4492 -76.7578 58.4961 -76.7578 C 81.543 -76.7578 100 -58.252 100.049 -35.2539 C 100.098 -12.207 81.5918 6.25 58.5449 6.25 Z M 58.4473 -12.0605 C 61.0352 -12.0605 62.5977 -13.8672 62.5977 -16.6992 L 62.5977 -31.1523 L 77.8809 -31.1523 C 80.6152 -31.1523 82.5195 -32.5684 82.5195 -35.1562 C 82.5195 -37.793 80.7129 -39.3066 77.8809 -39.3066 L 62.5977 -39.3066 L 62.5977 -54.6387 C 62.5977 -57.5195 61.0352 -59.2773 58.4473 -59.2773 C 55.8594 -59.2773 54.3945 -57.4219 54.3945 -54.6387 L 54.3945 -39.3066 L 39.1602 -39.3066 C 36.3281 -39.3066 34.4727 -37.793 34.4727 -35.1562 C 34.4727 -32.5684 36.4258 -31.1523 39.1602 -31.1523 L 54.3945 -31.1523 L 54.3945 -16.6992 C 54.3945 -13.9648 55.8594 -12.0605 58.4473 -12.0605 Z"/>
  </g>
  <g id="Light-M" transform="matrix(1 0 0 1 1095.42 1126)">
   <path d="M 57.7148 13.7695 C 84.5215 13.7695 106.689 -8.39844 106.689 -35.2051 C 106.689 -62.0117 84.5215 -84.1797 57.666 -84.1797 C 30.8594 -84.1797 8.74023 -62.0117 8.74023 -35.2051 C 8.74023 -8.39844 30.9082 13.7695 57.7148 13.7695 Z M 57.7148 7.4707 C 34.082 7.4707 15.0879 -11.5723 15.0879 -35.2051 C 15.0879 -58.8379 34.082 -77.832 57.666 -77.832 C 81.2988 -77.832 100.342 -58.8379 100.391 -35.2051 C 100.391 -11.5723 81.3477 7.4707 57.7148 7.4707 Z M 57.6172 -12.0117 C 59.6191 -12.0117 60.8398 -13.3789 60.8398 -15.4785 L 60.8398 -32.0312 L 77.9297 -32.0312 C 79.9805 -32.0312 81.3965 -33.2031 81.3965 -35.1074 C 81.3965 -37.1094 80.0293 -38.3301 77.9297 -38.3301 L 60.8398 -38.3301 L 60.8398 -55.4199 C 60.8398 -57.5684 59.6191 -58.9355 57.6172 -58.9355 C 55.6641 -58.9355 54.541 -57.5195 54.541 -55.4199 L 54.541 -38.3301 L 37.5 -38.3301 C 35.3516 -38.3301 33.9355 -37.1094 33.9355 -35.1074 C 33.9355 -33.2031 35.4492 -32.0312 37.5 -32.0312 L 54.541 -32.0312 L 54.541 -15.4785 C 54.541 -13.4277 55.6641 -12.0117 57.6172 -12.0117 Z"/>
  </g>
  <g id="Thin-M" transform="matrix(1 0 0 1 799.806 1126)">
   <path d="M 56.6406 12.7441 C 82.9102 12.7441 104.492 -8.83789 104.492 -35.1562 C 104.492 -61.4746 82.9102 -83.0566 56.5918 -83.0566 C 30.3223 -83.0566 8.74023 -61.4746 8.74023 -35.1562 C 8.74023 -8.83789 30.3223 12.7441 56.6406 12.7441 Z M 56.6406 8.98438 C 32.2266 8.98438 12.4512 -10.791 12.4512 -35.1562 C 12.4512 -59.5215 32.2266 -79.2969 56.5918 -79.2969 C 81.0059 -79.2969 100.781 -59.5215 100.781 -35.1562 C 100.781 -10.791 81.0059 8.98438 56.6406 8.98438 Z M 56.543 -11.9141 C 57.7637 -11.9141 58.4961 -12.7441 58.4961 -13.8672 L 58.4961 -33.2031 L 77.9785 -33.2031 C 79.1016 -33.2031 79.9805 -33.9844 79.9805 -35.0586 C 79.9805 -36.1816 79.1504 -37.0117 77.9785 -37.0117 L 58.4961 -37.0117 L 58.4961 -56.4453 C 58.4961 -57.666 57.7637 -58.4961 56.543 -58.4961 C 55.4688 -58.4961 54.7363 -57.6172 54.7363 -56.4453 L 54.7363 -37.0117 L 35.2539 -37.0117 C 34.082 -37.0117 33.252 -36.1816 33.252 -35.0586 C 33.252 -33.9844 34.1309 -33.2031 35.2539 -33.2031 L 54.7363 -33.2031 L 54.7363 -13.8672 C 54.7363 -12.793 55.4688 -11.9141 56.543 -11.9141 Z"/>
  </g>
  <g id="Ultralight-M" transform="matrix(1 0 0 1 503.656 1126)">
   <path d="M 56.0547 12.207 C 82.0801 12.207 103.369 -9.08203 103.369 -35.1562 C 103.369 -61.1816 82.0801 -82.4707 56.0547 -82.4707 C 30.0293 -82.4707 8.74023 -61.1816 8.74023 -35.1562 C 8.74023 -9.08203 30.0293 12.207 56.0547 12.207 Z M 56.0547 9.81445 C 31.2988 9.81445 11.1328 -10.3516 11.1328 -35.1562 C 11.1328 -59.9121 31.2988 -80.0781 56.0547 -80.0781 C 80.8594 -80.0781 100.977 -59.9121 100.977 -35.1562 C 100.977 -10.3516 80.8594 9.81445 56.0547 9.81445 Z M 56.0059 -11.8652 C 56.7871 -11.8652 57.3242 -12.4023 57.3242 -13.0859 L 57.3242 -33.8379 L 77.9785 -33.8379 C 78.6133 -33.8379 79.248 -34.4238 79.248 -35.0098 C 79.248 -35.7422 78.7109 -36.3281 77.9785 -36.3281 L 57.3242 -36.3281 L 57.3242 -56.9824 C 57.3242 -57.7148 56.7871 -58.252 56.0059 -58.252 C 55.3711 -58.252 54.7852 -57.7148 54.7852 -56.9824 L 54.7852 -36.3281 L 34.1309 -36.3281 C 33.4473 -36.3281 32.9102 -35.7422 32.9102 -35.0098 C 32.9102 -34.4238 33.4961 -33.8379 34.1309 -33.8379 L 54.7852 -33.8379 L 54.7852 -13.0859 C 54.7852 -12.4023 55.3711 -11.8652 56.0059 -11.8652 Z"/>
  </g>
  <g id="Black-S" transform="matrix(1 0 0 1 2884.57 696)">
   <path d="M 48.8281 6.78711 C 71.9727 6.78711 90.8203 -12.0605 90.8203 -35.2051 C 90.8203 -58.3496 71.9727 -77.1973 48.8281 -77.1973 C 25.6836 -77.1973 6.83594 -58.3496 6.83594 -35.2051 C 6.83594 -12.0605 25.6836 6.78711 48.8281 6.78711 Z M 48.8281 -7.37305 C 33.4473 -7.37305 20.9961 -19.8242 20.9961 -35.2051 C 20.9961 -50.5859 33.4473 -63.0371 48.8281 -63.0371 C 64.209 -63.0371 76.6602 -50.5859 76.6602 -35.2051 C 76.6602 -19.8242 64.209 -7.37305 48.8281 -7.37305 Z M 48.8281 -17.2852 C 51.9043 -17.2852 54.248 -19.5312 54.248 -22.5098 L 54.248 -29.7363 L 61.9629 -29.7363 C 64.9414 -29.7363 67.1875 -32.0801 67.1875 -35.1562 C 67.1875 -38.2324 64.9414 -40.5762 61.9629 -40.5762 L 54.248 -40.5762 L 54.248 -47.8027 C 54.248 -50.7812 51.9043 -53.0273 48.8281 -53.0273 C 45.752 -53.0273 43.4082 -50.7812 43.4082 -47.8027 L 43.4082 -40.5762 L 35.6934 -40.5762 C 32.7148 -40.5762 30.4688 -38.2324 30.4688 -35.1562 C 30.4688 -32.0801 32.7148 -29.7363 35.6934 -29.7363 L 43.4082 -29.7363 L 43.4082 -22.5098 C 43.4082 -19.5312 45.752 -17.2852 48.8281 -17.2852 Z"/>
  </g>
  <g id="Heavy-S" transform="matrix(1 0 0 1 2588.47 696)">
   <path d="M 48.2422 6.15234 C 70.9961 6.15234 89.5996 -12.4512 89.5996 -35.2051 C 89.5996 -57.959 70.9961 -76.6113 48.1934 -76.6113 C 25.4395 -76.6113 6.83594 -57.959 6.83594 -35.2051 C 6.83594 -12.4512 25.4395 6.15234 48.2422 6.15234 Z M 48.2422 -6.39648 C 32.2754 -6.39648 19.4336 -19.2871 19.4336 -35.2051 C 19.4336 -51.1719 32.2754 -64.0137 48.1934 -64.0137 C 64.1602 -64.0137 77.002 -51.1719 77.0508 -35.2051 C 77.0508 -19.2871 64.1602 -6.39648 48.2422 -6.39648 Z M 48.1934 -17.2363 C 51.123 -17.2363 53.2227 -19.3359 53.2227 -22.2168 L 53.2227 -30.1758 L 61.7188 -30.1758 C 64.5996 -30.1758 66.6992 -32.2754 66.6992 -35.1562 C 66.6992 -38.0859 64.5996 -40.1855 61.7188 -40.1855 L 53.2227 -40.1855 L 53.2227 -48.3398 C 53.2227 -51.2207 51.123 -53.3203 48.1934 -53.3203 C 45.3125 -53.3203 43.2129 -51.2207 43.2129 -48.3398 L 43.2129 -40.1855 L 34.7168 -40.1855 C 31.8359 -40.1855 29.6875 -38.0859 29.6875 -35.1562 C 29.6875 -32.2754 31.8359 -30.1758 34.7168 -30.1758 L 43.2129 -30.1758 L 43.2129 -22.2168 C 43.2129 -19.3848 45.3125 -17.2363 48.1934 -17.2363 Z"/>
  </g>
  <g id="Bold-S" transform="matrix(1 0 0 1 2292.44 696)">
   <path d="M 47.5586 5.46875 C 69.873 5.46875 88.2324 -12.8906 88.2324 -35.2051 C 88.2324 -57.5684 69.873 -75.9277 47.5098 -75.9277 C 25.1953 -75.9277 6.83594 -57.5684 6.83594 -35.2051 C 6.83594 -12.8906 25.1953 5.46875 47.5586 5.46875 Z M 47.5586 -5.32227 C 30.957 -5.32227 17.6758 -18.6523 17.6758 -35.2051 C 17.6758 -51.8066 30.957 -65.1367 47.5098 -65.1367 C 64.1113 -65.1367 77.4414 -51.8066 77.4414 -35.2051 C 77.4414 -18.6523 64.1113 -5.32227 47.5586 -5.32227 Z M 47.5098 -17.1875 C 50.1953 -17.1875 52.0508 -19.1406 52.0508 -21.9238 L 52.0508 -30.6641 L 61.4746 -30.6641 C 64.209 -30.6641 66.1621 -32.4707 66.1621 -35.1562 C 66.1621 -37.8906 64.2578 -39.7461 61.4746 -39.7461 L 52.0508 -39.7461 L 52.0508 -48.9258 C 52.0508 -51.709 50.1953 -53.6133 47.5098 -53.6133 C 44.7754 -53.6133 42.9688 -51.6602 42.9688 -48.9258 L 42.9688 -39.7461 L 33.5938 -39.7461 C 30.8105 -39.7461 28.8574 -37.8906 28.8574 -35.1562 C 28.8574 -32.4707 30.8594 -30.6641 33.5938 -30.6641 L 42.9688 -30.6641 L 42.9688 -21.9238 C 42.9688 -19.1895 44.7754 -17.1875 47.5098 -17.1875 Z"/>
  </g>
  <g id="Semibold-S" transform="matrix(1 0 0 1 1996.2 696)">
   <path d="M 47.0703 4.98047 C 69.0918 4.98047 87.3047 -13.1836 87.3047 -35.2539 C 87.3047 -57.2754 69.0918 -75.4883 47.0215 -75.4883 C 25 -75.4883 6.83594 -57.2754 6.83594 -35.2539 C 6.83594 -13.1836 25.0488 4.98047 47.0703 4.98047 Z M 47.0703 -4.58984 C 30.0781 -4.58984 16.4551 -18.2129 16.4551 -35.2539 C 16.4551 -52.2461 30.0293 -65.8691 47.0215 -65.8691 C 64.0625 -65.8691 77.6855 -52.2461 77.7344 -35.2539 C 77.7344 -18.2129 64.0625 -4.58984 47.0703 -4.58984 Z M 47.0215 -17.1875 C 49.6094 -17.1875 51.2695 -18.9941 51.2695 -21.6797 L 51.2695 -31.0059 L 61.2793 -31.0059 C 63.916 -31.0059 65.8203 -32.6172 65.8203 -35.2051 C 65.8203 -37.793 64.0137 -39.4531 61.2793 -39.4531 L 51.2695 -39.4531 L 51.2695 -49.3652 C 51.2695 -52.0508 49.6094 -53.8574 47.0215 -53.8574 C 44.4336 -53.8574 42.8223 -52.002 42.8223 -49.3652 L 42.8223 -39.4531 L 32.8125 -39.4531 C 30.127 -39.4531 28.2715 -37.793 28.2715 -35.2051 C 28.2715 -32.6172 30.1758 -31.0059 32.8125 -31.0059 L 42.8223 -31.0059 L 42.8223 -21.6797 C 42.8223 -19.043 44.4336 -17.1875 47.0215 -17.1875 Z"/>
  </g>
  <g id="Medium-S" transform="matrix(1 0 0 1 1699.83 696)">
   <path d="M 46.7285 4.63867 C 68.5547 4.63867 86.6211 -13.4277 86.6211 -35.2539 C 86.6211 -57.0312 68.5059 -75.1465 46.6797 -75.1465 C 24.8535 -75.1465 6.83594 -57.0312 6.83594 -35.2539 C 6.83594 -13.4277 24.9023 4.63867 46.7285 4.63867 Z M 46.7285 -4.00391 C 29.3945 -4.00391 15.5273 -17.9199 15.5273 -35.2539 C 15.5273 -52.5879 29.3457 -66.4551 46.6797 -66.4551 C 64.0137 -66.4551 77.8809 -52.5879 77.9297 -35.2539 C 77.9785 -17.9199 64.0625 -4.00391 46.7285 -4.00391 Z M 46.6309 -17.1387 C 49.1211 -17.1387 50.6836 -18.8477 50.6836 -21.5332 L 50.6836 -31.25 L 61.1816 -31.25 C 63.7207 -31.25 65.5273 -32.7148 65.5273 -35.2051 C 65.5273 -37.6953 63.8184 -39.209 61.1816 -39.209 L 50.6836 -39.209 L 50.6836 -49.6582 C 50.6836 -52.2949 49.1211 -54.0039 46.6309 -54.0039 C 44.1895 -54.0039 42.7246 -52.2461 42.7246 -49.6582 L 42.7246 -39.209 L 32.2266 -39.209 C 29.5898 -39.209 27.832 -37.6953 27.832 -35.2051 C 27.832 -32.7148 29.6875 -31.25 32.2266 -31.25 L 42.7246 -31.25 L 42.7246 -21.5332 C 42.7246 -18.9453 44.1895 -17.1387 46.6309 -17.1387 Z"/>
  </g>
  <g id="Regular-S" transform="matrix(1 0 0 1 1403.58 696)">
   <path d="M 46.2402 4.15039 C 67.7734 4.15039 85.6934 -13.7207 85.6934 -35.2539 C 85.6934 -56.7871 67.7246 -74.6582 46.1914 -74.6582 C 24.707 -74.6582 6.83594 -56.7871 6.83594 -35.2539 C 6.83594 -13.7207 24.7559 4.15039 46.2402 4.15039 Z M 46.2402 -3.27148 C 28.5156 -3.27148 14.3555 -17.4805 14.3555 -35.2539 C 14.3555 -53.0273 28.4668 -67.2363 46.1914 -67.2363 C 63.9648 -67.2363 78.1738 -53.0273 78.2227 -35.2539 C 78.2715 -17.4805 64.0137 -3.27148 46.2402 -3.27148 Z M 46.1426 -17.1387 C 48.4863 -17.1387 49.8535 -18.7012 49.8535 -21.2891 L 49.8535 -31.5918 L 60.9863 -31.5918 C 63.4766 -31.5918 65.1855 -32.8613 65.1855 -35.2051 C 65.1855 -37.5977 63.5742 -38.916 60.9863 -38.916 L 49.8535 -38.916 L 49.8535 -50.0488 C 49.8535 -52.6367 48.4863 -54.248 46.1426 -54.248 C 43.7988 -54.248 42.5293 -52.5391 42.5293 -50.0488 L 42.5293 -38.916 L 31.4941 -38.916 C 28.9062 -38.916 27.2461 -37.5977 27.2461 -35.2051 C 27.2461 -32.8613 29.0039 -31.5918 31.4941 -31.5918 L 42.5293 -31.5918 L 42.5293 -21.2891 C 42.5293 -18.7988 43.7988 -17.1387 46.1426 -17.1387 Z"/>
  </g>
  <g id="Light-S" transform="matrix(1 0 0 1 1107.6 696)">
   <path d="M 45.5078 3.4668 C 66.6992 3.4668 84.2285 -14.0625 84.2285 -35.2051 C 84.2285 -56.3965 66.6504 -73.9258 45.5078 -73.9258 C 24.3164 -73.9258 6.83594 -56.3965 6.83594 -35.2051 C 6.83594 -14.0625 24.3652 3.4668 45.5078 3.4668 Z M 45.5078 -2.24609 C 27.2461 -2.24609 12.5977 -16.9434 12.5977 -35.2051 C 12.5977 -53.5156 27.1973 -68.2129 45.5078 -68.2129 C 63.7695 -68.2129 78.4668 -53.5156 78.5156 -35.2051 C 78.5156 -16.9434 63.8184 -2.24609 45.5078 -2.24609 Z M 45.459 -17.0898 C 47.2656 -17.0898 48.3398 -18.3105 48.3398 -20.2148 L 48.3398 -32.373 L 61.0352 -32.373 C 62.8906 -32.373 64.209 -33.3984 64.209 -35.1562 C 64.209 -36.9629 62.9883 -38.0371 61.0352 -38.0371 L 48.3398 -38.0371 L 48.3398 -50.7812 C 48.3398 -52.6855 47.2656 -53.9551 45.459 -53.9551 C 43.6523 -53.9551 42.6758 -52.6367 42.6758 -50.7812 L 42.6758 -38.0371 L 29.9805 -38.0371 C 28.0762 -38.0371 26.8066 -36.9629 26.8066 -35.1562 C 26.8066 -33.3984 28.125 -32.373 29.9805 -32.373 L 42.6758 -32.373 L 42.6758 -20.2148 C 42.6758 -18.3594 43.6523 -17.0898 45.459 -17.0898 Z"/>
  </g>
  <g id="Thin-S" transform="matrix(1 0 0 1 811.867 696)">
   <path d="M 44.5801 2.53906 C 65.2832 2.53906 82.2754 -14.4531 82.2754 -35.2051 C 82.2754 -55.9082 65.2344 -72.9004 44.5312 -72.9004 C 23.8281 -72.9004 6.83594 -55.9082 6.83594 -35.2051 C 6.83594 -14.4531 23.877 2.53906 44.5801 2.53906 Z M 44.5801 -0.878906 C 25.5859 -0.878906 10.2539 -16.2109 10.2539 -35.2051 C 10.2539 -54.1504 25.5859 -69.4824 44.5312 -69.4824 C 63.5254 -69.4824 78.8574 -54.1504 78.8574 -35.2051 C 78.8574 -16.2109 63.5254 -0.878906 44.5801 -0.878906 Z M 44.4824 -16.9922 C 45.6055 -16.9922 46.2891 -17.7246 46.2891 -18.7988 L 46.2891 -33.3984 L 61.0352 -33.3984 C 62.1094 -33.3984 62.9395 -34.1309 62.9395 -35.1074 C 62.9395 -36.1816 62.1582 -36.8652 61.0352 -36.8652 L 46.2891 -36.8652 L 46.2891 -51.6602 C 46.2891 -52.7832 45.6055 -53.5156 44.4824 -53.5156 C 43.5059 -53.5156 42.8223 -52.7344 42.8223 -51.6602 L 42.8223 -36.8652 L 28.0273 -36.8652 C 26.9531 -36.8652 26.1719 -36.1816 26.1719 -35.1074 C 26.1719 -34.1309 27.002 -33.3984 28.0273 -33.3984 L 42.8223 -33.3984 L 42.8223 -18.7988 C 42.8223 -17.7734 43.5059 -16.9922 44.4824 -16.9922 Z"/>
  </g>
  <g id="Ultralight-S" transform="matrix(1 0 0 1 515.644 696)">
   <path d="M 44.043 2.05078 C 64.502 2.05078 81.2988 -14.6973 81.2988 -35.1562 C 81.2988 -55.6152 64.502 -72.3633 44.043 -72.3633 C 23.584 -72.3633 6.83594 -55.6152 6.83594 -35.1562 C 6.83594 -14.6973 23.584 2.05078 44.043 2.05078 Z M 44.043 -0.146484 C 24.7559 -0.146484 9.08203 -15.8691 9.08203 -35.1562 C 9.08203 -54.4434 24.7559 -70.166 44.043 -70.166 C 63.3789 -70.166 79.0527 -54.4434 79.0527 -35.1562 C 79.0527 -15.8691 63.3789 -0.146484 44.043 -0.146484 Z M 43.9941 -16.9434 C 44.7266 -16.9434 45.2148 -17.4316 45.2148 -18.0664 L 45.2148 -33.9355 L 61.084 -33.9355 C 61.7188 -33.9355 62.2559 -34.4727 62.2559 -35.0586 C 62.2559 -35.7422 61.7676 -36.2793 61.084 -36.2793 L 45.2148 -36.2793 L 45.2148 -52.1484 C 45.2148 -52.832 44.7266 -53.3203 43.9941 -53.3203 C 43.3594 -53.3203 42.9199 -52.832 42.9199 -52.1484 L 42.9199 -36.2793 L 27.0508 -36.2793 C 26.3672 -36.2793 25.8301 -35.7422 25.8301 -35.0586 C 25.8301 -34.4727 26.416 -33.9355 27.0508 -33.9355 L 42.9199 -33.9355 L 42.9199 -18.0664 C 42.9199 -17.4316 43.3594 -16.9434 43.9941 -16.9434 Z"/>
  </g>
 </g>
</svg>
