<?xml version="1.0" encoding="UTF-8"?>
<!--Generator: Apple Native CoreSVG 123-->
<!DOCTYPE svg
PUBLIC "-//W3C//DTD SVG 1.1//EN"
       "http://www.w3.org/Graphics/SVG/1.1/DTD/svg11.dtd">
<svg version="1.1" xmlns="http://www.w3.org/2000/svg" xmlns:xlink="http://www.w3.org/1999/xlink" width="3300" height="2200">
 <!--glyph: "uni100191.medium", point size: 100.000000, font version: "Version 15.0d7e11", template writer version: "5"-->
 <g id="Notes">
  <rect height="2200" id="artboard" style="fill:white;opacity:1" width="3300" x="0" y="0"/>
  <line id="" style="fill:none;stroke:black;opacity:1;stroke-width:0.5;" x1="263" x2="3036" y1="292" y2="292"/>
  <text style="stroke:none;fill:black;font-family:-apple-system,&quot;SF Pro Display&quot;,&quot;SF Pro Text&quot;,Helvetica,sans-serif;font-weight:bold;" transform="matrix(1 0 0 1 263 322)">Weight/Scale Variations</text>
  <text style="stroke:none;fill:black;font-family:-apple-system,&quot;SF Pro Display&quot;,&quot;SF Pro Text&quot;,Helvetica,sans-serif;text-anchor:middle;" transform="matrix(1 0 0 1 559.711 322)">Ultralight</text>
  <text style="stroke:none;fill:black;font-family:-apple-system,&quot;SF Pro Display&quot;,&quot;SF Pro Text&quot;,Helvetica,sans-serif;text-anchor:middle;" transform="matrix(1 0 0 1 856.422 322)">Thin</text>
  <text style="stroke:none;fill:black;font-family:-apple-system,&quot;SF Pro Display&quot;,&quot;SF Pro Text&quot;,Helvetica,sans-serif;text-anchor:middle;" transform="matrix(1 0 0 1 1153.13 322)">Light</text>
  <text style="stroke:none;fill:black;font-family:-apple-system,&quot;SF Pro Display&quot;,&quot;SF Pro Text&quot;,Helvetica,sans-serif;text-anchor:middle;" transform="matrix(1 0 0 1 1449.84 322)">Regular</text>
  <text style="stroke:none;fill:black;font-family:-apple-system,&quot;SF Pro Display&quot;,&quot;SF Pro Text&quot;,Helvetica,sans-serif;text-anchor:middle;" transform="matrix(1 0 0 1 1746.56 322)">Medium</text>
  <text style="stroke:none;fill:black;font-family:-apple-system,&quot;SF Pro Display&quot;,&quot;SF Pro Text&quot;,Helvetica,sans-serif;text-anchor:middle;" transform="matrix(1 0 0 1 2043.27 322)">Semibold</text>
  <text style="stroke:none;fill:black;font-family:-apple-system,&quot;SF Pro Display&quot;,&quot;SF Pro Text&quot;,Helvetica,sans-serif;text-anchor:middle;" transform="matrix(1 0 0 1 2339.98 322)">Bold</text>
  <text style="stroke:none;fill:black;font-family:-apple-system,&quot;SF Pro Display&quot;,&quot;SF Pro Text&quot;,Helvetica,sans-serif;text-anchor:middle;" transform="matrix(1 0 0 1 2636.69 322)">Heavy</text>
  <text style="stroke:none;fill:black;font-family:-apple-system,&quot;SF Pro Display&quot;,&quot;SF Pro Text&quot;,Helvetica,sans-serif;text-anchor:middle;" transform="matrix(1 0 0 1 2933.4 322)">Black</text>
  <line id="" style="fill:none;stroke:black;opacity:1;stroke-width:0.5;" x1="263" x2="3036" y1="1903" y2="1903"/>
  <g id="" transform="matrix(1 0 0 1 263 1933)">
   <path d="M 9.24805 0.830078 C 13.5547 0.830078 17.1387 -2.74414 17.1387 -7.05078 C 17.1387 -11.3574 13.5449 -14.9316 9.23828 -14.9316 C 4.94141 -14.9316 1.36719 -11.3574 1.36719 -7.05078 C 1.36719 -2.74414 4.95117 0.830078 9.24805 0.830078 Z M 9.24805 -0.654297 C 5.70312 -0.654297 2.87109 -3.49609 2.87109 -7.05078 C 2.87109 -10.6055 5.69336 -13.4473 9.23828 -13.4473 C 12.793 -13.4473 15.6348 -10.6055 15.6445 -7.05078 C 15.6543 -3.49609 12.8027 -0.654297 9.24805 -0.654297 Z M 9.22852 -3.42773 C 9.69727 -3.42773 9.9707 -3.74023 9.9707 -4.25781 L 9.9707 -6.31836 L 12.1973 -6.31836 C 12.6953 -6.31836 13.0371 -6.57227 13.0371 -7.04102 C 13.0371 -7.51953 12.7148 -7.7832 12.1973 -7.7832 L 9.9707 -7.7832 L 9.9707 -10.0098 C 9.9707 -10.5273 9.69727 -10.8496 9.22852 -10.8496 C 8.75977 -10.8496 8.50586 -10.5078 8.50586 -10.0098 L 8.50586 -7.7832 L 6.29883 -7.7832 C 5.78125 -7.7832 5.44922 -7.51953 5.44922 -7.04102 C 5.44922 -6.57227 5.80078 -6.31836 6.29883 -6.31836 L 8.50586 -6.31836 L 8.50586 -4.25781 C 8.50586 -3.75977 8.75977 -3.42773 9.22852 -3.42773 Z"/>
  </g>
  <g id="" transform="matrix(1 0 0 1 281.506 1933)">
   <path d="M 11.709 2.91016 C 17.1582 2.91016 21.6699 -1.60156 21.6699 -7.05078 C 21.6699 -12.4902 17.1484 -17.0117 11.6992 -17.0117 C 6.25977 -17.0117 1.74805 -12.4902 1.74805 -7.05078 C 1.74805 -1.60156 6.26953 2.91016 11.709 2.91016 Z M 11.709 1.25 C 7.09961 1.25 3.41797 -2.44141 3.41797 -7.05078 C 3.41797 -11.6504 7.08984 -15.3516 11.6992 -15.3516 C 16.3086 -15.3516 20 -11.6504 20.0098 -7.05078 C 20.0195 -2.44141 16.3184 1.25 11.709 1.25 Z M 11.6895 -2.41211 C 12.207 -2.41211 12.5195 -2.77344 12.5195 -3.33984 L 12.5195 -6.23047 L 15.5762 -6.23047 C 16.123 -6.23047 16.5039 -6.51367 16.5039 -7.03125 C 16.5039 -7.55859 16.1426 -7.86133 15.5762 -7.86133 L 12.5195 -7.86133 L 12.5195 -10.9277 C 12.5195 -11.5039 12.207 -11.8555 11.6895 -11.8555 C 11.1719 -11.8555 10.8789 -11.4844 10.8789 -10.9277 L 10.8789 -7.86133 L 7.83203 -7.86133 C 7.26562 -7.86133 6.89453 -7.55859 6.89453 -7.03125 C 6.89453 -6.51367 7.28516 -6.23047 7.83203 -6.23047 L 10.8789 -6.23047 L 10.8789 -3.33984 C 10.8789 -2.79297 11.1719 -2.41211 11.6895 -2.41211 Z"/>
  </g>
  <g id="" transform="matrix(1 0 0 1 304.924 1933)">
   <path d="M 14.9707 5.67383 C 21.9336 5.67383 27.6953 -0.078125 27.6953 -7.04102 C 27.6953 -14.0039 21.9238 -19.7559 14.9609 -19.7559 C 8.00781 -19.7559 2.25586 -14.0039 2.25586 -7.04102 C 2.25586 -0.078125 8.01758 5.67383 14.9707 5.67383 Z M 14.9707 3.85742 C 8.93555 3.85742 4.08203 -1.00586 4.08203 -7.04102 C 4.08203 -13.0762 8.92578 -17.9395 14.9609 -17.9395 C 21.0059 -17.9395 25.8594 -13.0762 25.8691 -7.04102 C 25.8789 -1.00586 21.0156 3.85742 14.9707 3.85742 Z M 14.9512 -1.06445 C 15.5176 -1.06445 15.8691 -1.45508 15.8691 -2.06055 L 15.8691 -6.13281 L 20.1074 -6.13281 C 20.6934 -6.13281 21.1133 -6.46484 21.1133 -7.02148 C 21.1133 -7.59766 20.7227 -7.93945 20.1074 -7.93945 L 15.8691 -7.93945 L 15.8691 -12.1875 C 15.8691 -12.8027 15.5176 -13.1934 14.9512 -13.1934 C 14.3848 -13.1934 14.0625 -12.7832 14.0625 -12.1875 L 14.0625 -7.93945 L 9.83398 -7.93945 C 9.21875 -7.93945 8.80859 -7.59766 8.80859 -7.02148 C 8.80859 -6.46484 9.23828 -6.13281 9.83398 -6.13281 L 14.0625 -6.13281 L 14.0625 -2.06055 C 14.0625 -1.47461 14.3848 -1.06445 14.9512 -1.06445 Z"/>
  </g>
  <text style="stroke:none;fill:black;font-family:-apple-system,&quot;SF Pro Display&quot;,&quot;SF Pro Text&quot;,Helvetica,sans-serif;font-weight:bold;" transform="matrix(1 0 0 1 263 1953)">Design Variations</text>
  <text style="stroke:none;fill:black;font-family:-apple-system,&quot;SF Pro Display&quot;,&quot;SF Pro Text&quot;,Helvetica,sans-serif;" transform="matrix(1 0 0 1 263 1971)">Symbols are supported in up to nine weights and three scales.</text>
  <text style="stroke:none;fill:black;font-family:-apple-system,&quot;SF Pro Display&quot;,&quot;SF Pro Text&quot;,Helvetica,sans-serif;" transform="matrix(1 0 0 1 263 1989)">For optimal layout with text and other symbols, vertically align</text>
  <text style="stroke:none;fill:black;font-family:-apple-system,&quot;SF Pro Display&quot;,&quot;SF Pro Text&quot;,Helvetica,sans-serif;" transform="matrix(1 0 0 1 263 2007)">symbols with the adjacent text.</text>
  <rect height="14" id="" style="fill:#00AEEF;stroke:none;opacity:0.4;" width="3" x="776" y="1919"/>
  <g id="" transform="matrix(1 0 0 1 779 1933)">
   <path d="M 10.5273 0 L 12.373 0 L 7.17773 -14.0918 L 5.43945 -14.0918 L 0.244141 0 L 2.08984 0 L 3.50586 -4.0332 L 9.11133 -4.0332 Z M 6.2793 -11.9531 L 6.33789 -11.9531 L 8.59375 -5.52734 L 4.02344 -5.52734 Z"/>
  </g>
  <rect height="14" id="" style="fill:#00AEEF;stroke:none;opacity:0.4;" width="3" x="791.617" y="1919"/>
  <text style="stroke:none;fill:black;font-family:-apple-system,&quot;SF Pro Display&quot;,&quot;SF Pro Text&quot;,Helvetica,sans-serif;font-weight:bold;" transform="matrix(1 0 0 1 776 1953)">Margins</text>
  <text style="stroke:none;fill:black;font-family:-apple-system,&quot;SF Pro Display&quot;,&quot;SF Pro Text&quot;,Helvetica,sans-serif;" transform="matrix(1 0 0 1 776 1971)">Leading and trailing margins on the left and right side of each symbol</text>
  <text style="stroke:none;fill:black;font-family:-apple-system,&quot;SF Pro Display&quot;,&quot;SF Pro Text&quot;,Helvetica,sans-serif;" transform="matrix(1 0 0 1 776 1989)">can be adjusted by modifying the width of the blue rectangles.</text>
  <text style="stroke:none;fill:black;font-family:-apple-system,&quot;SF Pro Display&quot;,&quot;SF Pro Text&quot;,Helvetica,sans-serif;" transform="matrix(1 0 0 1 776 2007)">Modifications are automatically applied proportionally to all</text>
  <text style="stroke:none;fill:black;font-family:-apple-system,&quot;SF Pro Display&quot;,&quot;SF Pro Text&quot;,Helvetica,sans-serif;" transform="matrix(1 0 0 1 776 2025)">scales and weights.</text>
  <g id="" transform="matrix(1 0 0 1 1289 1933)">
   <path d="M 2.83203 3.11523 L 4.375 4.6582 C 5.22461 5.48828 6.19141 5.41992 7.06055 4.46289 L 17.2754 -6.66016 C 17.7051 -6.36719 18.0957 -6.37695 18.5645 -6.47461 L 19.6094 -6.68945 L 20.3027 -5.99609 L 20.2539 -5.47852 C 20.1855 -4.95117 20.3516 -4.53125 20.8496 -4.0332 L 21.6602 -3.22266 C 22.168 -2.71484 22.8223 -2.68555 23.3008 -3.16406 L 26.5527 -6.41602 C 27.0312 -6.89453 27.0117 -7.54883 26.5039 -8.05664 L 25.6836 -8.87695 C 25.1855 -9.375 24.7754 -9.55078 24.2383 -9.47266 L 23.7109 -9.41406 L 23.0566 -10.0781 L 23.3398 -11.2207 C 23.4863 -11.7871 23.3398 -12.2559 22.7148 -12.8613 L 20.3027 -15.2539 C 16.7578 -18.7793 12.2266 -18.6719 9.11133 -15.5371 C 8.69141 -15.1074 8.64258 -14.5215 8.91602 -14.0918 C 9.15039 -13.7207 9.62891 -13.4961 10.2734 -13.6621 C 11.7871 -14.043 13.3008 -13.9258 14.7852 -12.9199 L 14.1602 -11.3379 C 13.9258 -10.752 13.9453 -10.2734 14.1797 -9.83398 L 3.01758 0.439453 C 2.08008 1.30859 1.97266 2.25586 2.83203 3.11523 Z M 10.6738 -15.1465 C 13.3398 -17.1387 16.6504 -16.8262 19.0527 -14.4141 L 21.6797 -11.8066 C 21.9141 -11.5723 21.9434 -11.3867 21.8848 -11.0938 L 21.5039 -9.53125 L 23.0762 -7.95898 L 24.043 -8.04688 C 24.3262 -8.07617 24.4141 -8.05664 24.6387 -7.83203 L 25.2637 -7.20703 L 22.5098 -4.46289 L 21.8848 -5.07812 C 21.6602 -5.30273 21.6406 -5.40039 21.6699 -5.68359 L 21.7578 -6.64062 L 20.1953 -8.20312 L 18.5742 -7.89062 C 18.291 -7.83203 18.1445 -7.83203 17.9102 -8.07617 L 15.7324 -10.2539 C 15.5078 -10.4883 15.4785 -10.625 15.6055 -10.9473 L 16.5527 -13.2227 C 14.9512 -14.7559 12.8418 -15.6055 10.8008 -14.9512 C 10.7129 -14.9219 10.6445 -14.9414 10.6152 -14.9805 C 10.5859 -15.0293 10.5859 -15.0781 10.6738 -15.1465 Z M 4.10156 2.41211 C 3.61328 1.91406 3.78906 1.61133 4.12109 1.30859 L 15.0781 -8.80859 L 16.3086 -7.57812 L 6.15234 3.34961 C 5.84961 3.68164 5.46875 3.7793 5.06836 3.37891 Z"/>
  </g>
  <text style="stroke:none;fill:black;font-family:-apple-system,&quot;SF Pro Display&quot;,&quot;SF Pro Text&quot;,Helvetica,sans-serif;font-weight:bold;" transform="matrix(1 0 0 1 1289 1953)">Exporting</text>
  <text style="stroke:none;fill:black;font-family:-apple-system,&quot;SF Pro Display&quot;,&quot;SF Pro Text&quot;,Helvetica,sans-serif;" transform="matrix(1 0 0 1 1289 1971)">Symbols should be outlined when exporting to ensure the</text>
  <text style="stroke:none;fill:black;font-family:-apple-system,&quot;SF Pro Display&quot;,&quot;SF Pro Text&quot;,Helvetica,sans-serif;" transform="matrix(1 0 0 1 1289 1989)">design is preserved when submitting to Xcode.</text>
  <text id="template-version" style="stroke:none;fill:black;font-family:-apple-system,&quot;SF Pro Display&quot;,&quot;SF Pro Text&quot;,Helvetica,sans-serif;text-anchor:end;" transform="matrix(1 0 0 1 3036 1933)">Template v.1.0</text>
  <text style="stroke:none;fill:black;font-family:-apple-system,&quot;SF Pro Display&quot;,&quot;SF Pro Text&quot;,Helvetica,sans-serif;text-anchor:end;" transform="matrix(1 0 0 1 3036 1951)">Generated from chevron.compact.down</text>
  <text style="stroke:none;fill:black;font-family:-apple-system,&quot;SF Pro Display&quot;,&quot;SF Pro Text&quot;,Helvetica,sans-serif;text-anchor:end;" transform="matrix(1 0 0 1 3036 1969)">Typeset at 100 points</text>
  <text style="stroke:none;fill:black;font-family:-apple-system,&quot;SF Pro Display&quot;,&quot;SF Pro Text&quot;,Helvetica,sans-serif;" transform="matrix(1 0 0 1 263 726)">Small</text>
  <text style="stroke:none;fill:black;font-family:-apple-system,&quot;SF Pro Display&quot;,&quot;SF Pro Text&quot;,Helvetica,sans-serif;" transform="matrix(1 0 0 1 263 1156)">Medium</text>
  <text style="stroke:none;fill:black;font-family:-apple-system,&quot;SF Pro Display&quot;,&quot;SF Pro Text&quot;,Helvetica,sans-serif;" transform="matrix(1 0 0 1 263 1586)">Large</text>
 </g>
 <g id="Guides">
  <g id="H-reference" style="fill:#27AAE1;stroke:none;" transform="matrix(1 0 0 1 339 696)">
   <path d="M 54.9316 0 L 57.666 0 L 30.5664 -70.459 L 28.0762 -70.459 L 0.976562 0 L 3.66211 0 L 12.9395 -24.4629 L 45.7031 -24.4629 Z M 29.1992 -67.0898 L 29.4434 -67.0898 L 44.8242 -26.709 L 13.8184 -26.709 Z"/>
  </g>
  <line id="Baseline-S" style="fill:none;stroke:#27AAE1;opacity:1;stroke-width:0.577;" x1="263" x2="3036" y1="696" y2="696"/>
  <line id="Capline-S" style="fill:none;stroke:#27AAE1;opacity:1;stroke-width:0.577;" x1="263" x2="3036" y1="625.541" y2="625.541"/>
  <g id="H-reference" style="fill:#27AAE1;stroke:none;" transform="matrix(1 0 0 1 339 1126)">
   <path d="M 54.9316 0 L 57.666 0 L 30.5664 -70.459 L 28.0762 -70.459 L 0.976562 0 L 3.66211 0 L 12.9395 -24.4629 L 45.7031 -24.4629 Z M 29.1992 -67.0898 L 29.4434 -67.0898 L 44.8242 -26.709 L 13.8184 -26.709 Z"/>
  </g>
  <line id="Baseline-M" style="fill:none;stroke:#27AAE1;opacity:1;stroke-width:0.577;" x1="263" x2="3036" y1="1126" y2="1126"/>
  <line id="Capline-M" style="fill:none;stroke:#27AAE1;opacity:1;stroke-width:0.577;" x1="263" x2="3036" y1="1055.54" y2="1055.54"/>
  <g id="H-reference" style="fill:#27AAE1;stroke:none;" transform="matrix(1 0 0 1 339 1556)">
   <path d="M 54.9316 0 L 57.666 0 L 30.5664 -70.459 L 28.0762 -70.459 L 0.976562 0 L 3.66211 0 L 12.9395 -24.4629 L 45.7031 -24.4629 Z M 29.1992 -67.0898 L 29.4434 -67.0898 L 44.8242 -26.709 L 13.8184 -26.709 Z"/>
  </g>
  <line id="Baseline-L" style="fill:none;stroke:#27AAE1;opacity:1;stroke-width:0.577;" x1="263" x2="3036" y1="1556" y2="1556"/>
  <line id="Capline-L" style="fill:none;stroke:#27AAE1;opacity:1;stroke-width:0.577;" x1="263" x2="3036" y1="1485.54" y2="1485.54"/>
  <rect height="119.336" id="left-margin" style="fill:#00AEEF;stroke:none;opacity:0.4;" width="12.4512" x="1393.86" y="1030.79"/>
  <rect height="119.336" id="right-margin" style="fill:#00AEEF;stroke:none;opacity:0.4;" width="12.4512" x="1493.37" y="1030.79"/>
 </g>
 <g id="Symbols">
  <g id="Black-L" transform="matrix(1 0 0 1 2857.2 1556)">
   <path d="M 23.0957 -38.0371 L 63.8184 -19.5312 C 68.7012 -17.2852 71.7285 -15.8691 76.1719 -15.8691 C 80.6641 -15.8691 83.7402 -17.2852 88.5742 -19.5312 L 129.297 -38.0371 C 133.35 -39.9414 136.328 -43.5059 136.328 -48.2422 C 136.328 -56.1523 130.518 -61.1328 124.17 -61.1328 C 120.508 -61.1328 115.918 -58.9844 111.914 -57.0801 L 76.1719 -40.918 L 40.4785 -57.0801 C 36.4746 -58.9844 31.8848 -61.1328 28.2227 -61.1328 C 21.875 -61.1328 16.0645 -56.1523 16.0645 -48.2422 C 16.0645 -43.5059 19.043 -39.9414 23.0957 -38.0371 Z"/>
  </g>
  <g id="Heavy-L" transform="matrix(1 0 0 1 2561.66 1556)">
   <path d="M 22.2168 -38.8672 L 63.7207 -20.6055 C 68.0664 -18.6523 71.0449 -17.2852 75 -17.2852 C 79.0039 -17.2852 82.0312 -18.6523 86.2793 -20.6055 L 127.783 -38.8672 C 131.396 -40.4785 133.984 -43.6523 133.984 -47.7051 C 133.984 -54.4434 129.004 -58.8379 123.389 -58.8379 C 120.264 -58.8379 116.26 -56.9824 112.842 -55.4199 L 75 -38.916 L 37.1582 -55.4199 C 33.7891 -56.9824 29.7852 -58.8379 26.6113 -58.8379 C 21.0449 -58.8379 16.0645 -54.4434 16.0645 -47.7051 C 16.0645 -43.6523 18.6523 -40.4785 22.2168 -38.8672 Z"/>
  </g>
  <g id="Bold-L" transform="matrix(1 0 0 1 2266.27 1556)">
   <path d="M 21.2402 -39.7461 L 63.6719 -21.7773 C 67.334 -20.166 70.2637 -18.8965 73.6816 -18.8965 C 77.0996 -18.8965 80.127 -20.166 83.7402 -21.7773 L 126.123 -39.7461 C 129.199 -41.1133 131.348 -43.7988 131.348 -47.0703 C 131.348 -52.5879 127.295 -56.25 122.559 -56.25 C 119.971 -56.25 116.65 -54.7363 113.965 -53.5645 L 73.6816 -36.6211 L 33.4473 -53.5645 C 30.7617 -54.7363 27.4414 -56.25 24.8047 -56.25 C 20.1172 -56.25 16.0645 -52.5879 16.0645 -47.0703 C 16.0645 -43.7988 18.2129 -41.1133 21.2402 -39.7461 Z"/>
  </g>
  <g id="Semibold-L" transform="matrix(1 0 0 1 1970.46 1556)">
   <path d="M 20.5566 -40.3809 L 63.5742 -22.6074 C 66.7969 -21.2402 69.7754 -20.0195 72.8027 -20.0195 C 75.8301 -20.0195 78.8086 -21.2402 81.9824 -22.6074 L 125 -40.3809 C 127.686 -41.5039 129.541 -43.8965 129.541 -46.6797 C 129.541 -51.3184 126.123 -54.4922 121.973 -54.4922 C 119.775 -54.4922 116.895 -53.2227 114.697 -52.2461 L 72.8027 -35.0586 L 30.9082 -52.2461 C 28.7109 -53.2227 25.8301 -54.4922 23.584 -54.4922 C 19.4824 -54.4922 16.0645 -51.3184 16.0645 -46.6797 C 16.0645 -43.8965 17.8711 -41.5039 20.5566 -40.3809 Z"/>
  </g>
  <g id="Medium-L" transform="matrix(1 0 0 1 1674.46 1556)">
   <path d="M 20.0684 -40.8203 L 63.5254 -23.2422 C 66.4551 -22.0215 69.3848 -20.8496 72.1191 -20.8496 C 74.8535 -20.8496 77.832 -22.0215 80.6641 -23.2422 L 124.121 -40.8203 C 126.562 -41.8457 128.125 -43.9453 128.125 -46.3379 C 128.125 -50.3418 125.244 -53.1738 121.582 -53.1738 C 119.629 -53.1738 117.09 -52.0508 115.234 -51.2695 L 72.1191 -33.8867 L 28.9551 -51.2695 C 27.1484 -52.0508 24.6094 -53.1738 22.6562 -53.1738 C 18.9941 -53.1738 16.0645 -50.3418 16.0645 -46.3379 C 16.0645 -43.9453 17.627 -41.8457 20.0684 -40.8203 Z"/>
  </g>
  <g id="Regular-L" transform="matrix(1 0 0 1 1378.63 1556)">
   <path d="M 19.3848 -41.4551 L 63.4766 -24.0723 C 65.9668 -23.0957 68.8477 -21.9238 71.1914 -21.9238 C 73.584 -21.9238 76.5137 -23.0957 78.9062 -24.0723 L 122.998 -41.4551 C 125.049 -42.2363 126.367 -44.043 126.367 -45.9473 C 126.367 -49.0234 124.072 -51.416 120.996 -51.416 C 119.434 -51.416 117.334 -50.5371 115.967 -50 L 71.1914 -32.3242 L 26.416 -50 C 25.0977 -50.5371 22.998 -51.416 21.4355 -51.416 C 18.3594 -51.416 16.0645 -49.0234 16.0645 -45.9473 C 16.0645 -44.043 17.334 -42.2363 19.3848 -41.4551 Z"/>
  </g>
  <g id="Light-L" transform="matrix(1 0 0 1 1083.33 1556)">
   <path d="M 18.5059 -42.627 L 64.1113 -24.4629 C 65.918 -23.7305 68.0664 -22.9004 69.8242 -22.9004 C 71.5332 -22.9004 73.7305 -23.7305 75.4883 -24.4629 L 121.094 -42.627 C 122.656 -43.2617 123.535 -44.5801 123.535 -45.8984 C 123.535 -48.1934 121.875 -49.9512 119.58 -49.9512 C 118.457 -49.9512 116.895 -49.3164 115.918 -48.9258 L 69.8242 -30.5664 L 23.6816 -48.9258 C 22.7051 -49.3164 21.1914 -49.9512 20.0195 -49.9512 C 17.7246 -49.9512 16.0645 -48.1934 16.0645 -45.8984 C 16.0645 -44.5801 16.9434 -43.2617 18.5059 -42.627 Z"/>
  </g>
  <g id="Thin-L" transform="matrix(1 0 0 1 788.478 1556)">
   <path d="M 17.334 -44.1895 L 64.8926 -25 C 65.8691 -24.6094 66.9922 -24.1699 67.9688 -24.1699 C 68.8965 -24.1699 70.0195 -24.6094 70.9961 -25 L 118.555 -44.1895 C 119.434 -44.5801 119.824 -45.3125 119.824 -45.8984 C 119.824 -47.0703 118.945 -47.998 117.725 -47.998 C 117.188 -47.998 116.357 -47.6562 115.82 -47.4609 L 67.9688 -28.1738 L 20.0684 -47.4609 C 19.5312 -47.6562 18.7012 -47.998 18.1641 -47.998 C 16.9434 -47.998 16.0645 -47.0703 16.0645 -45.8984 C 16.0645 -45.3125 16.4551 -44.5801 17.334 -44.1895 Z"/>
  </g>
  <g id="Ultralight-L" transform="matrix(1 0 0 1 492.719 1556)">
   <path d="M 16.748 -44.9707 L 65.332 -25.293 C 65.8203 -25.0488 66.4551 -24.8047 66.9922 -24.8047 C 67.5293 -24.8047 68.1641 -25.0488 68.6523 -25.293 L 117.236 -44.9707 C 117.822 -45.2637 117.92 -45.6543 117.92 -45.8984 C 117.92 -46.4844 117.48 -47.0215 116.797 -47.0215 C 116.504 -47.0215 116.064 -46.875 115.771 -46.7285 L 66.9922 -26.9531 L 18.2129 -46.7285 C 17.9199 -46.875 17.4805 -47.0215 17.2363 -47.0215 C 16.5039 -47.0215 16.0645 -46.4844 16.0645 -45.8984 C 16.0645 -45.6543 16.1621 -45.2637 16.748 -44.9707 Z"/>
  </g>
  <g id="Black-M" transform="matrix(1 0 0 1 2873.51 1126)">
   <path d="M 18.6035 -36.9629 L 49.9023 -21.8262 C 54.1016 -19.8242 56.0547 -18.7988 59.8633 -18.7988 C 63.7207 -18.7988 65.6738 -19.8242 69.873 -21.8262 L 101.172 -36.9629 C 104.688 -38.6719 107.324 -41.748 107.324 -46.0449 C 107.324 -53.2227 102.002 -57.6172 96.4844 -57.6172 C 93.2129 -57.6172 89.1602 -55.6641 85.4004 -53.8574 L 59.8633 -41.3574 L 34.375 -53.8574 C 30.6152 -55.6641 26.5625 -57.6172 23.291 -57.6172 C 17.7734 -57.6172 12.4512 -53.2227 12.4512 -46.0449 C 12.4512 -41.748 15.0879 -38.6719 18.6035 -36.9629 Z"/>
  </g>
  <g id="Heavy-M" transform="matrix(1 0 0 1 2577.73 1126)">
   <path d="M 17.8711 -37.5488 L 49.6582 -22.9004 C 53.3691 -21.1426 55.5176 -20.1172 58.9844 -20.1172 C 62.4023 -20.1172 64.5508 -21.1426 68.3105 -22.9004 L 100.049 -37.5488 C 103.174 -39.0137 105.469 -41.748 105.469 -45.459 C 105.469 -51.6113 100.928 -55.5176 96.0449 -55.5176 C 93.2129 -55.5176 89.6484 -53.8086 86.4746 -52.2949 L 58.9844 -39.6484 L 31.4941 -52.2949 C 28.2715 -53.8086 24.7559 -55.5176 21.875 -55.5176 C 16.9922 -55.5176 12.4512 -51.6113 12.4512 -45.459 C 12.4512 -41.748 14.7461 -39.0137 17.8711 -37.5488 Z"/>
  </g>
  <g id="Bold-M" transform="matrix(1 0 0 1 2282.04 1126)">
   <path d="M 17.0898 -38.1836 L 49.3652 -24.0723 C 52.5879 -22.6074 54.9316 -21.582 57.959 -21.582 C 60.9375 -21.582 63.2812 -22.6074 66.5039 -24.0723 L 98.7793 -38.1836 C 101.514 -39.4043 103.418 -41.748 103.418 -44.7754 C 103.418 -49.8047 99.707 -53.125 95.5078 -53.125 C 93.1641 -53.125 90.1855 -51.709 87.6465 -50.5859 L 57.959 -37.6953 L 28.2227 -50.5859 C 25.6836 -51.709 22.7051 -53.125 20.3613 -53.125 C 16.1621 -53.125 12.4512 -49.8047 12.4512 -44.7754 C 12.4512 -41.748 14.3555 -39.4043 17.0898 -38.1836 Z"/>
  </g>
  <g id="Semibold-M" transform="matrix(1 0 0 1 1986.04 1126)">
   <path d="M 16.5039 -38.623 L 49.1699 -24.9023 C 52.0508 -23.6328 54.541 -22.6074 57.2266 -22.6074 C 59.9121 -22.6074 62.4023 -23.6328 65.2832 -24.9023 L 97.9492 -38.623 C 100.342 -39.6484 102.002 -41.748 102.002 -44.3359 C 102.002 -48.584 98.877 -51.4648 95.166 -51.4648 C 93.1641 -51.4648 90.5273 -50.293 88.4766 -49.3652 L 57.2266 -36.377 L 25.9766 -49.3652 C 23.9258 -50.293 21.3379 -51.4648 19.2871 -51.4648 C 15.5762 -51.4648 12.4512 -48.584 12.4512 -44.3359 C 12.4512 -41.748 14.1113 -39.6484 16.5039 -38.623 Z"/>
  </g>
  <g id="Medium-M" transform="matrix(1 0 0 1 1689.87 1126)">
   <path d="M 16.1133 -38.916 L 49.0234 -25.5371 C 51.6602 -24.4141 54.1992 -23.3887 56.6895 -23.3887 C 59.1797 -23.3887 61.7676 -24.4141 64.3555 -25.5371 L 97.2656 -38.916 C 99.4629 -39.8438 100.928 -41.748 100.928 -43.9941 C 100.928 -47.6562 98.2422 -50.1953 94.9219 -50.1953 C 93.1641 -50.1953 90.8203 -49.1699 89.1113 -48.4863 L 56.6895 -35.3516 L 24.2676 -48.4863 C 22.5586 -49.1699 20.2637 -50.1953 18.457 -50.1953 C 15.1367 -50.1953 12.4512 -47.6562 12.4512 -43.9941 C 12.4512 -41.748 13.916 -39.8438 16.1133 -38.916 Z"/>
  </g>
  <g id="Regular-M" transform="matrix(1 0 0 1 1393.86 1126)">
   <path d="M 15.5273 -39.3555 L 48.877 -26.3184 C 51.123 -25.4395 53.8086 -24.3652 56.0059 -24.3652 C 58.1543 -24.3652 60.8887 -25.4395 63.1348 -26.3184 L 96.4355 -39.3555 C 98.291 -40.0879 99.5117 -41.748 99.5117 -43.5547 C 99.5117 -46.4355 97.4121 -48.584 94.5801 -48.584 C 93.1152 -48.584 91.1621 -47.7539 89.9414 -47.3145 L 56.0059 -33.9844 L 22.0215 -47.3145 C 20.8008 -47.7539 18.8965 -48.584 17.3828 -48.584 C 14.5508 -48.584 12.4512 -46.4355 12.4512 -43.5547 C 12.4512 -41.748 13.6719 -40.0879 15.5273 -39.3555 Z"/>
  </g>
  <g id="Light-M" transform="matrix(1 0 0 1 1098.4 1126)">
   <path d="M 14.7461 -40.4297 L 49.4141 -26.709 C 51.0742 -26.0254 53.125 -25.2441 54.7363 -25.2441 C 56.3477 -25.2441 58.3984 -26.0254 60.0586 -26.709 L 94.7266 -40.4297 C 96.1426 -41.0156 97.0215 -42.2363 97.0215 -43.5059 C 97.0215 -45.6543 95.459 -47.2656 93.3105 -47.2656 C 92.2363 -47.2656 90.7715 -46.6797 89.8438 -46.3379 L 54.7363 -32.4219 L 19.5801 -46.3379 C 18.6523 -46.6797 17.2363 -47.2656 16.1621 -47.2656 C 14.0137 -47.2656 12.4512 -45.6543 12.4512 -43.5059 C 12.4512 -42.2363 13.3301 -41.0156 14.7461 -40.4297 Z"/>
  </g>
  <g id="Thin-M" transform="matrix(1 0 0 1 803.37 1126)">
   <path d="M 13.6719 -41.8457 L 50.1465 -27.1973 C 51.0742 -26.8066 52.1484 -26.3672 53.0762 -26.3672 C 53.9551 -26.3672 55.0781 -26.8066 56.0059 -27.1973 L 92.4316 -41.8457 C 93.2617 -42.1875 93.6523 -42.8711 93.6523 -43.5059 C 93.6523 -44.6289 92.8223 -45.5566 91.6504 -45.5566 C 91.1133 -45.5566 90.2832 -45.2148 89.7949 -45.0195 L 53.0762 -30.2734 L 16.3574 -45.0195 C 15.8203 -45.2148 15.0391 -45.5566 14.502 -45.5566 C 13.2812 -45.5566 12.4512 -44.6289 12.4512 -43.5059 C 12.4512 -42.8711 12.8418 -42.1875 13.6719 -41.8457 Z"/>
  </g>
  <g id="Ultralight-M" transform="matrix(1 0 0 1 507.514 1126)">
   <path d="M 13.1348 -42.5293 L 50.4883 -27.4414 C 51.0254 -27.1973 51.6602 -26.9531 52.1973 -26.9531 C 52.7344 -26.9531 53.3691 -27.1973 53.9062 -27.4414 L 91.2598 -42.5293 C 91.7969 -42.7734 91.9434 -43.2129 91.9434 -43.5059 C 91.9434 -44.1406 91.5039 -44.6777 90.7715 -44.6777 C 90.4785 -44.6777 90.0391 -44.4824 89.7461 -44.3848 L 52.1973 -29.1992 L 14.6973 -44.3848 C 14.4043 -44.4824 13.916 -44.6777 13.623 -44.6777 C 12.9395 -44.6777 12.4512 -44.1406 12.4512 -43.5059 C 12.4512 -43.2129 12.5977 -42.7734 13.1348 -42.5293 Z"/>
  </g>
  <g id="Black-S" transform="matrix(1 0 0 1 2886.53 696)">
   <path d="M 14.5508 -36.6211 L 39.0625 -24.8047 C 42.334 -23.2422 43.8965 -22.4609 46.875 -22.4609 C 49.8535 -22.4609 51.416 -23.2422 54.6875 -24.8047 L 79.1992 -36.6211 C 81.9336 -37.9395 83.9844 -40.332 83.9844 -43.6523 C 83.9844 -49.2188 79.8828 -52.6367 75.5859 -52.6367 C 73.0469 -52.6367 69.9219 -51.123 66.9922 -49.707 L 46.875 -39.9414 L 26.7578 -49.707 C 23.8281 -51.123 20.7031 -52.6367 18.1641 -52.6367 C 13.8672 -52.6367 9.76562 -49.2188 9.76562 -43.6523 C 9.76562 -40.332 11.8164 -37.9395 14.5508 -36.6211 Z"/>
  </g>
  <g id="Heavy-S" transform="matrix(1 0 0 1 2590.38 696)">
   <path d="M 14.0625 -36.9141 L 38.8184 -25.5859 C 41.7969 -24.2188 43.5547 -23.3887 46.2891 -23.3887 C 49.0723 -23.3887 50.8301 -24.2188 53.8086 -25.5859 L 78.5156 -36.9141 C 81.0059 -38.0859 82.8613 -40.2832 82.8613 -43.2129 C 82.8613 -48.0957 79.248 -51.1719 75.3906 -51.1719 C 73.1445 -51.1719 70.3125 -49.8047 67.8223 -48.6328 L 46.2891 -38.8184 L 24.8047 -48.6328 C 22.3145 -49.8047 19.4824 -51.1719 17.2363 -51.1719 C 13.3301 -51.1719 9.76562 -48.0957 9.76562 -43.2129 C 9.76562 -40.2832 11.5723 -38.0859 14.0625 -36.9141 Z"/>
  </g>
  <g id="Bold-S" transform="matrix(1 0 0 1 2294.3 696)">
   <path d="M 13.5742 -37.3047 L 38.5254 -26.4648 C 41.2109 -25.2441 43.2129 -24.3652 45.7031 -24.3652 C 48.1445 -24.3652 50.1953 -25.2441 52.832 -26.4648 L 77.7832 -37.3047 C 80.0293 -38.2812 81.5918 -40.2344 81.5918 -42.6758 C 81.5918 -46.7773 78.5645 -49.4629 75.1465 -49.4629 C 73.2422 -49.4629 70.752 -48.3398 68.75 -47.4121 L 45.7031 -37.5 L 22.6074 -47.4121 C 20.6055 -48.3398 18.1641 -49.4629 16.2109 -49.4629 C 12.793 -49.4629 9.76562 -46.7773 9.76562 -42.6758 C 9.76562 -40.2344 11.3281 -38.2812 13.5742 -37.3047 Z"/>
  </g>
  <g id="Semibold-S" transform="matrix(1 0 0 1 1998.03 696)">
   <path d="M 13.1836 -37.5488 L 38.3301 -27.0508 C 40.8203 -25.9766 42.9688 -25.0977 45.2637 -25.0977 C 47.5098 -25.0977 49.707 -25.9766 52.1484 -27.0508 L 77.2949 -37.5488 C 79.2969 -38.3789 80.7129 -40.1855 80.7129 -42.334 C 80.7129 -45.8984 78.125 -48.3398 75 -48.3398 C 73.291 -48.3398 71.0938 -47.3633 69.3848 -46.6309 L 45.2637 -36.6211 L 21.0938 -46.6309 C 19.3848 -47.3633 17.2363 -48.3398 15.4785 -48.3398 C 12.3535 -48.3398 9.76562 -45.8984 9.76562 -42.334 C 9.76562 -40.1855 11.1816 -38.3789 13.1836 -37.5488 Z"/>
  </g>
  <g id="Medium-S" transform="matrix(1 0 0 1 1701.63 696)">
   <path d="M 12.9395 -37.6953 L 38.2324 -27.4902 C 40.4785 -26.5625 42.7734 -25.6348 44.9219 -25.6348 C 47.0703 -25.6348 49.3652 -26.5625 51.6113 -27.4902 L 76.9043 -37.6953 C 78.7598 -38.4766 80.0781 -40.1367 80.0781 -42.0898 C 80.0781 -45.2148 77.7344 -47.4609 74.8535 -47.4609 C 73.3398 -47.4609 71.3379 -46.582 69.873 -45.9961 L 44.9219 -35.9375 L 19.9707 -45.9961 C 18.5059 -46.582 16.5527 -47.4609 14.9414 -47.4609 C 12.0605 -47.4609 9.76562 -45.2148 9.76562 -42.0898 C 9.76562 -40.1367 11.0352 -38.4766 12.9395 -37.6953 Z"/>
  </g>
  <g id="Regular-S" transform="matrix(1 0 0 1 1405.36 696)">
   <path d="M 12.5488 -37.9395 L 38.0371 -28.0762 C 40.0879 -27.2949 42.5293 -26.3184 44.4824 -26.3184 C 46.4355 -26.3184 48.9258 -27.2949 50.9277 -28.0762 L 76.416 -37.9395 C 78.0762 -38.623 79.1992 -40.1367 79.1992 -41.748 C 79.1992 -44.3848 77.2949 -46.3379 74.707 -46.3379 C 73.3887 -46.3379 71.6309 -45.6055 70.5078 -45.166 L 44.4824 -35.0098 L 18.457 -45.166 C 17.334 -45.6055 15.625 -46.3379 14.2578 -46.3379 C 11.6699 -46.3379 9.76562 -44.3848 9.76562 -41.748 C 9.76562 -40.1367 10.8887 -38.623 12.5488 -37.9395 Z"/>
  </g>
  <g id="Light-S" transform="matrix(1 0 0 1 1109.77 696)">
   <path d="M 11.8652 -38.916 L 38.5254 -28.418 C 40.0391 -27.7832 41.8945 -27.0508 43.3594 -27.0508 C 44.873 -27.0508 46.7285 -27.7832 48.2422 -28.418 L 74.8535 -38.916 C 76.1719 -39.4043 76.9531 -40.5273 76.9531 -41.748 C 76.9531 -43.7012 75.5371 -45.166 73.584 -45.166 C 72.6074 -45.166 71.2891 -44.6289 70.459 -44.2871 L 43.3594 -33.6426 L 16.3086 -44.2871 C 15.4297 -44.6289 14.1602 -45.166 13.1348 -45.166 C 11.1816 -45.166 9.76562 -43.7012 9.76562 -41.748 C 9.76562 -40.5273 10.5957 -39.4043 11.8652 -38.916 Z"/>
  </g>
  <g id="Thin-S" transform="matrix(1 0 0 1 814.528 696)">
   <path d="M 10.9375 -40.1367 L 39.1602 -28.8086 C 40.0391 -28.4668 41.0645 -28.0762 41.8945 -28.0762 C 42.7246 -28.0762 43.7988 -28.4668 44.6289 -28.8086 L 72.8516 -40.1367 C 73.6328 -40.4297 74.0234 -41.1133 74.0234 -41.6992 C 74.0234 -42.8223 73.2422 -43.6523 72.1191 -43.6523 C 71.582 -43.6523 70.8496 -43.3594 70.3613 -43.1641 L 41.8945 -31.7383 L 13.4277 -43.1641 C 12.9395 -43.3594 12.207 -43.6523 11.6699 -43.6523 C 10.5469 -43.6523 9.76562 -42.8223 9.76562 -41.6992 C 9.76562 -41.1133 10.1562 -40.4297 10.9375 -40.1367 Z"/>
  </g>
  <g id="Ultralight-S" transform="matrix(1 0 0 1 518.573 696)">
   <path d="M 10.4492 -40.7715 L 39.4531 -29.0527 C 39.9902 -28.8086 40.625 -28.6133 41.1621 -28.6133 C 41.6504 -28.6133 42.2852 -28.8086 42.8223 -29.0527 L 71.8262 -40.7715 C 72.3145 -40.9668 72.5098 -41.4062 72.5098 -41.6992 C 72.5098 -42.334 72.0703 -42.8711 71.3867 -42.8711 C 71.0449 -42.8711 70.6055 -42.6758 70.3125 -42.5781 L 41.1621 -30.8105 L 11.9629 -42.5781 C 11.6699 -42.6758 11.2305 -42.8711 10.9375 -42.8711 C 10.2539 -42.8711 9.76562 -42.334 9.76562 -41.6992 C 9.76562 -41.4062 9.96094 -40.9668 10.4492 -40.7715 Z"/>
  </g>
 </g>
</svg>
