<?xml version="1.0" encoding="UTF-8" standalone="no"?>
<!DOCTYPE svg PUBLIC "-//W3C//DTD SVG 1.1//EN" "http://www.w3.org/Graphics/SVG/1.1/DTD/svg11.dtd">
<svg width="100%" height="100%" viewBox="0 0 137 146" version="1.1" xmlns="http://www.w3.org/2000/svg" xmlns:xlink="http://www.w3.org/1999/xlink" xml:space="preserve" xmlns:serif="http://www.serif.com/" style="fill-rule:evenodd;clip-rule:evenodd;stroke-linejoin:round;stroke-miterlimit:2;">
    <path d="M0,109.649L0,45.561C0,40.817 0.934,36.12 2.749,31.738C4.565,27.356 7.225,23.374 10.579,20.02C13.933,16.666 17.915,14.005 22.298,12.19C26.68,10.375 31.377,9.441 36.12,9.441C36.12,9.441 23.248,9.5 51.4,9.5C52.25,9.5 55.222,9.493 60.6,9.493C97.453,9.493 96.637,0 111.4,0C126.163,0 136.33,11.856 136.33,24.4L136.33,109.649C136.33,114.392 135.396,119.089 133.58,123.472C131.765,127.854 129.104,131.836 125.75,135.19C122.396,138.544 118.414,141.205 114.031,143.02C109.649,144.835 104.952,145.769 100.208,145.769L36.12,145.769C26.54,145.769 17.353,141.963 10.579,135.189C3.805,128.415 0,119.228 0,109.649Z" style="fill:rgb(255,119,0);fill-rule:nonzero;"/>
    <path d="M111.901,32.576C116.627,32.576 120.458,28.745 120.458,24.019C120.458,19.293 116.627,15.462 111.901,15.462C107.175,15.462 103.344,19.293 103.344,24.019C103.344,28.745 107.175,32.576 111.901,32.576Z" style="fill:white;fill-rule:nonzero;"/>
    <path d="M68.164,118.031C90.491,118.031 108.59,99.931 108.59,77.605C108.59,55.278 90.491,37.179 68.164,37.179C45.837,37.179 27.738,55.278 27.738,77.605C27.738,99.931 45.837,118.031 68.164,118.031Z" style="fill:white;fill-rule:nonzero;"/>
    <path d="M68.164,106.229C83.972,106.229 96.787,93.414 96.787,77.606C96.787,61.798 83.972,48.983 68.164,48.983C52.356,48.983 39.541,61.798 39.541,77.606C39.541,93.414 52.356,106.229 68.164,106.229Z" style="fill:rgb(60,60,60);fill-rule:nonzero;"/>
</svg>
