<?xml version="1.0" encoding="UTF-8"?>
<!--Generator: Apple Native CoreSVG 123-->
<!DOCTYPE svg
PUBLIC "-//W3C//DTD SVG 1.1//EN"
       "http://www.w3.org/Graphics/SVG/1.1/DTD/svg11.dtd">
<svg version="1.1" xmlns="http://www.w3.org/2000/svg" xmlns:xlink="http://www.w3.org/1999/xlink" width="3300" height="2200">
 <!--glyph: "uni10020E.medium", point size: 100.000000, font version: "Version 15.0d7e11", template writer version: "5"-->
 <g id="Notes">
  <rect height="2200" id="artboard" style="fill:white;opacity:1" width="3300" x="0" y="0"/>
  <line id="" style="fill:none;stroke:black;opacity:1;stroke-width:0.5;" x1="263" x2="3036" y1="292" y2="292"/>
  <text style="stroke:none;fill:black;font-family:-apple-system,&quot;SF Pro Display&quot;,&quot;SF Pro Text&quot;,Helvetica,sans-serif;font-weight:bold;" transform="matrix(1 0 0 1 263 322)">Weight/Scale Variations</text>
  <text style="stroke:none;fill:black;font-family:-apple-system,&quot;SF Pro Display&quot;,&quot;SF Pro Text&quot;,Helvetica,sans-serif;text-anchor:middle;" transform="matrix(1 0 0 1 559.711 322)">Ultralight</text>
  <text style="stroke:none;fill:black;font-family:-apple-system,&quot;SF Pro Display&quot;,&quot;SF Pro Text&quot;,Helvetica,sans-serif;text-anchor:middle;" transform="matrix(1 0 0 1 856.422 322)">Thin</text>
  <text style="stroke:none;fill:black;font-family:-apple-system,&quot;SF Pro Display&quot;,&quot;SF Pro Text&quot;,Helvetica,sans-serif;text-anchor:middle;" transform="matrix(1 0 0 1 1153.13 322)">Light</text>
  <text style="stroke:none;fill:black;font-family:-apple-system,&quot;SF Pro Display&quot;,&quot;SF Pro Text&quot;,Helvetica,sans-serif;text-anchor:middle;" transform="matrix(1 0 0 1 1449.84 322)">Regular</text>
  <text style="stroke:none;fill:black;font-family:-apple-system,&quot;SF Pro Display&quot;,&quot;SF Pro Text&quot;,Helvetica,sans-serif;text-anchor:middle;" transform="matrix(1 0 0 1 1746.56 322)">Medium</text>
  <text style="stroke:none;fill:black;font-family:-apple-system,&quot;SF Pro Display&quot;,&quot;SF Pro Text&quot;,Helvetica,sans-serif;text-anchor:middle;" transform="matrix(1 0 0 1 2043.27 322)">Semibold</text>
  <text style="stroke:none;fill:black;font-family:-apple-system,&quot;SF Pro Display&quot;,&quot;SF Pro Text&quot;,Helvetica,sans-serif;text-anchor:middle;" transform="matrix(1 0 0 1 2339.98 322)">Bold</text>
  <text style="stroke:none;fill:black;font-family:-apple-system,&quot;SF Pro Display&quot;,&quot;SF Pro Text&quot;,Helvetica,sans-serif;text-anchor:middle;" transform="matrix(1 0 0 1 2636.69 322)">Heavy</text>
  <text style="stroke:none;fill:black;font-family:-apple-system,&quot;SF Pro Display&quot;,&quot;SF Pro Text&quot;,Helvetica,sans-serif;text-anchor:middle;" transform="matrix(1 0 0 1 2933.4 322)">Black</text>
  <line id="" style="fill:none;stroke:black;opacity:1;stroke-width:0.5;" x1="263" x2="3036" y1="1903" y2="1903"/>
  <g id="" transform="matrix(1 0 0 1 263 1933)">
   <path d="M 9.24805 0.830078 C 13.5547 0.830078 17.1387 -2.74414 17.1387 -7.05078 C 17.1387 -11.3574 13.5449 -14.9316 9.23828 -14.9316 C 4.94141 -14.9316 1.36719 -11.3574 1.36719 -7.05078 C 1.36719 -2.74414 4.95117 0.830078 9.24805 0.830078 Z M 9.24805 -0.654297 C 5.70312 -0.654297 2.87109 -3.49609 2.87109 -7.05078 C 2.87109 -10.6055 5.69336 -13.4473 9.23828 -13.4473 C 12.793 -13.4473 15.6348 -10.6055 15.6445 -7.05078 C 15.6543 -3.49609 12.8027 -0.654297 9.24805 -0.654297 Z M 9.22852 -3.42773 C 9.69727 -3.42773 9.9707 -3.74023 9.9707 -4.25781 L 9.9707 -6.31836 L 12.1973 -6.31836 C 12.6953 -6.31836 13.0371 -6.57227 13.0371 -7.04102 C 13.0371 -7.51953 12.7148 -7.7832 12.1973 -7.7832 L 9.9707 -7.7832 L 9.9707 -10.0098 C 9.9707 -10.5273 9.69727 -10.8496 9.22852 -10.8496 C 8.75977 -10.8496 8.50586 -10.5078 8.50586 -10.0098 L 8.50586 -7.7832 L 6.29883 -7.7832 C 5.78125 -7.7832 5.44922 -7.51953 5.44922 -7.04102 C 5.44922 -6.57227 5.80078 -6.31836 6.29883 -6.31836 L 8.50586 -6.31836 L 8.50586 -4.25781 C 8.50586 -3.75977 8.75977 -3.42773 9.22852 -3.42773 Z"/>
  </g>
  <g id="" transform="matrix(1 0 0 1 281.506 1933)">
   <path d="M 11.709 2.91016 C 17.1582 2.91016 21.6699 -1.60156 21.6699 -7.05078 C 21.6699 -12.4902 17.1484 -17.0117 11.6992 -17.0117 C 6.25977 -17.0117 1.74805 -12.4902 1.74805 -7.05078 C 1.74805 -1.60156 6.26953 2.91016 11.709 2.91016 Z M 11.709 1.25 C 7.09961 1.25 3.41797 -2.44141 3.41797 -7.05078 C 3.41797 -11.6504 7.08984 -15.3516 11.6992 -15.3516 C 16.3086 -15.3516 20 -11.6504 20.0098 -7.05078 C 20.0195 -2.44141 16.3184 1.25 11.709 1.25 Z M 11.6895 -2.41211 C 12.207 -2.41211 12.5195 -2.77344 12.5195 -3.33984 L 12.5195 -6.23047 L 15.5762 -6.23047 C 16.123 -6.23047 16.5039 -6.51367 16.5039 -7.03125 C 16.5039 -7.55859 16.1426 -7.86133 15.5762 -7.86133 L 12.5195 -7.86133 L 12.5195 -10.9277 C 12.5195 -11.5039 12.207 -11.8555 11.6895 -11.8555 C 11.1719 -11.8555 10.8789 -11.4844 10.8789 -10.9277 L 10.8789 -7.86133 L 7.83203 -7.86133 C 7.26562 -7.86133 6.89453 -7.55859 6.89453 -7.03125 C 6.89453 -6.51367 7.28516 -6.23047 7.83203 -6.23047 L 10.8789 -6.23047 L 10.8789 -3.33984 C 10.8789 -2.79297 11.1719 -2.41211 11.6895 -2.41211 Z"/>
  </g>
  <g id="" transform="matrix(1 0 0 1 304.924 1933)">
   <path d="M 14.9707 5.67383 C 21.9336 5.67383 27.6953 -0.078125 27.6953 -7.04102 C 27.6953 -14.0039 21.9238 -19.7559 14.9609 -19.7559 C 8.00781 -19.7559 2.25586 -14.0039 2.25586 -7.04102 C 2.25586 -0.078125 8.01758 5.67383 14.9707 5.67383 Z M 14.9707 3.85742 C 8.93555 3.85742 4.08203 -1.00586 4.08203 -7.04102 C 4.08203 -13.0762 8.92578 -17.9395 14.9609 -17.9395 C 21.0059 -17.9395 25.8594 -13.0762 25.8691 -7.04102 C 25.8789 -1.00586 21.0156 3.85742 14.9707 3.85742 Z M 14.9512 -1.06445 C 15.5176 -1.06445 15.8691 -1.45508 15.8691 -2.06055 L 15.8691 -6.13281 L 20.1074 -6.13281 C 20.6934 -6.13281 21.1133 -6.46484 21.1133 -7.02148 C 21.1133 -7.59766 20.7227 -7.93945 20.1074 -7.93945 L 15.8691 -7.93945 L 15.8691 -12.1875 C 15.8691 -12.8027 15.5176 -13.1934 14.9512 -13.1934 C 14.3848 -13.1934 14.0625 -12.7832 14.0625 -12.1875 L 14.0625 -7.93945 L 9.83398 -7.93945 C 9.21875 -7.93945 8.80859 -7.59766 8.80859 -7.02148 C 8.80859 -6.46484 9.23828 -6.13281 9.83398 -6.13281 L 14.0625 -6.13281 L 14.0625 -2.06055 C 14.0625 -1.47461 14.3848 -1.06445 14.9512 -1.06445 Z"/>
  </g>
  <text style="stroke:none;fill:black;font-family:-apple-system,&quot;SF Pro Display&quot;,&quot;SF Pro Text&quot;,Helvetica,sans-serif;font-weight:bold;" transform="matrix(1 0 0 1 263 1953)">Design Variations</text>
  <text style="stroke:none;fill:black;font-family:-apple-system,&quot;SF Pro Display&quot;,&quot;SF Pro Text&quot;,Helvetica,sans-serif;" transform="matrix(1 0 0 1 263 1971)">Symbols are supported in up to nine weights and three scales.</text>
  <text style="stroke:none;fill:black;font-family:-apple-system,&quot;SF Pro Display&quot;,&quot;SF Pro Text&quot;,Helvetica,sans-serif;" transform="matrix(1 0 0 1 263 1989)">For optimal layout with text and other symbols, vertically align</text>
  <text style="stroke:none;fill:black;font-family:-apple-system,&quot;SF Pro Display&quot;,&quot;SF Pro Text&quot;,Helvetica,sans-serif;" transform="matrix(1 0 0 1 263 2007)">symbols with the adjacent text.</text>
  <rect height="14" id="" style="fill:#00AEEF;stroke:none;opacity:0.4;" width="3" x="776" y="1919"/>
  <g id="" transform="matrix(1 0 0 1 779 1933)">
   <path d="M 10.5273 0 L 12.373 0 L 7.17773 -14.0918 L 5.43945 -14.0918 L 0.244141 0 L 2.08984 0 L 3.50586 -4.0332 L 9.11133 -4.0332 Z M 6.2793 -11.9531 L 6.33789 -11.9531 L 8.59375 -5.52734 L 4.02344 -5.52734 Z"/>
  </g>
  <rect height="14" id="" style="fill:#00AEEF;stroke:none;opacity:0.4;" width="3" x="791.617" y="1919"/>
  <text style="stroke:none;fill:black;font-family:-apple-system,&quot;SF Pro Display&quot;,&quot;SF Pro Text&quot;,Helvetica,sans-serif;font-weight:bold;" transform="matrix(1 0 0 1 776 1953)">Margins</text>
  <text style="stroke:none;fill:black;font-family:-apple-system,&quot;SF Pro Display&quot;,&quot;SF Pro Text&quot;,Helvetica,sans-serif;" transform="matrix(1 0 0 1 776 1971)">Leading and trailing margins on the left and right side of each symbol</text>
  <text style="stroke:none;fill:black;font-family:-apple-system,&quot;SF Pro Display&quot;,&quot;SF Pro Text&quot;,Helvetica,sans-serif;" transform="matrix(1 0 0 1 776 1989)">can be adjusted by modifying the width of the blue rectangles.</text>
  <text style="stroke:none;fill:black;font-family:-apple-system,&quot;SF Pro Display&quot;,&quot;SF Pro Text&quot;,Helvetica,sans-serif;" transform="matrix(1 0 0 1 776 2007)">Modifications are automatically applied proportionally to all</text>
  <text style="stroke:none;fill:black;font-family:-apple-system,&quot;SF Pro Display&quot;,&quot;SF Pro Text&quot;,Helvetica,sans-serif;" transform="matrix(1 0 0 1 776 2025)">scales and weights.</text>
  <g id="" transform="matrix(1 0 0 1 1289 1933)">
   <path d="M 2.83203 3.11523 L 4.375 4.6582 C 5.22461 5.48828 6.19141 5.41992 7.06055 4.46289 L 17.2754 -6.66016 C 17.7051 -6.36719 18.0957 -6.37695 18.5645 -6.47461 L 19.6094 -6.68945 L 20.3027 -5.99609 L 20.2539 -5.47852 C 20.1855 -4.95117 20.3516 -4.53125 20.8496 -4.0332 L 21.6602 -3.22266 C 22.168 -2.71484 22.8223 -2.68555 23.3008 -3.16406 L 26.5527 -6.41602 C 27.0312 -6.89453 27.0117 -7.54883 26.5039 -8.05664 L 25.6836 -8.87695 C 25.1855 -9.375 24.7754 -9.55078 24.2383 -9.47266 L 23.7109 -9.41406 L 23.0566 -10.0781 L 23.3398 -11.2207 C 23.4863 -11.7871 23.3398 -12.2559 22.7148 -12.8613 L 20.3027 -15.2539 C 16.7578 -18.7793 12.2266 -18.6719 9.11133 -15.5371 C 8.69141 -15.1074 8.64258 -14.5215 8.91602 -14.0918 C 9.15039 -13.7207 9.62891 -13.4961 10.2734 -13.6621 C 11.7871 -14.043 13.3008 -13.9258 14.7852 -12.9199 L 14.1602 -11.3379 C 13.9258 -10.752 13.9453 -10.2734 14.1797 -9.83398 L 3.01758 0.439453 C 2.08008 1.30859 1.97266 2.25586 2.83203 3.11523 Z M 10.6738 -15.1465 C 13.3398 -17.1387 16.6504 -16.8262 19.0527 -14.4141 L 21.6797 -11.8066 C 21.9141 -11.5723 21.9434 -11.3867 21.8848 -11.0938 L 21.5039 -9.53125 L 23.0762 -7.95898 L 24.043 -8.04688 C 24.3262 -8.07617 24.4141 -8.05664 24.6387 -7.83203 L 25.2637 -7.20703 L 22.5098 -4.46289 L 21.8848 -5.07812 C 21.6602 -5.30273 21.6406 -5.40039 21.6699 -5.68359 L 21.7578 -6.64062 L 20.1953 -8.20312 L 18.5742 -7.89062 C 18.291 -7.83203 18.1445 -7.83203 17.9102 -8.07617 L 15.7324 -10.2539 C 15.5078 -10.4883 15.4785 -10.625 15.6055 -10.9473 L 16.5527 -13.2227 C 14.9512 -14.7559 12.8418 -15.6055 10.8008 -14.9512 C 10.7129 -14.9219 10.6445 -14.9414 10.6152 -14.9805 C 10.5859 -15.0293 10.5859 -15.0781 10.6738 -15.1465 Z M 4.10156 2.41211 C 3.61328 1.91406 3.78906 1.61133 4.12109 1.30859 L 15.0781 -8.80859 L 16.3086 -7.57812 L 6.15234 3.34961 C 5.84961 3.68164 5.46875 3.7793 5.06836 3.37891 Z"/>
  </g>
  <text style="stroke:none;fill:black;font-family:-apple-system,&quot;SF Pro Display&quot;,&quot;SF Pro Text&quot;,Helvetica,sans-serif;font-weight:bold;" transform="matrix(1 0 0 1 1289 1953)">Exporting</text>
  <text style="stroke:none;fill:black;font-family:-apple-system,&quot;SF Pro Display&quot;,&quot;SF Pro Text&quot;,Helvetica,sans-serif;" transform="matrix(1 0 0 1 1289 1971)">Symbols should be outlined when exporting to ensure the</text>
  <text style="stroke:none;fill:black;font-family:-apple-system,&quot;SF Pro Display&quot;,&quot;SF Pro Text&quot;,Helvetica,sans-serif;" transform="matrix(1 0 0 1 1289 1989)">design is preserved when submitting to Xcode.</text>
  <text id="template-version" style="stroke:none;fill:black;font-family:-apple-system,&quot;SF Pro Display&quot;,&quot;SF Pro Text&quot;,Helvetica,sans-serif;text-anchor:end;" transform="matrix(1 0 0 1 3036 1933)">Template v.1.0</text>
  <text style="stroke:none;fill:black;font-family:-apple-system,&quot;SF Pro Display&quot;,&quot;SF Pro Text&quot;,Helvetica,sans-serif;text-anchor:end;" transform="matrix(1 0 0 1 3036 1951)">Generated from square.and.pencil</text>
  <text style="stroke:none;fill:black;font-family:-apple-system,&quot;SF Pro Display&quot;,&quot;SF Pro Text&quot;,Helvetica,sans-serif;text-anchor:end;" transform="matrix(1 0 0 1 3036 1969)">Typeset at 100 points</text>
  <text style="stroke:none;fill:black;font-family:-apple-system,&quot;SF Pro Display&quot;,&quot;SF Pro Text&quot;,Helvetica,sans-serif;" transform="matrix(1 0 0 1 263 726)">Small</text>
  <text style="stroke:none;fill:black;font-family:-apple-system,&quot;SF Pro Display&quot;,&quot;SF Pro Text&quot;,Helvetica,sans-serif;" transform="matrix(1 0 0 1 263 1156)">Medium</text>
  <text style="stroke:none;fill:black;font-family:-apple-system,&quot;SF Pro Display&quot;,&quot;SF Pro Text&quot;,Helvetica,sans-serif;" transform="matrix(1 0 0 1 263 1586)">Large</text>
 </g>
 <g id="Guides">
  <g id="H-reference" style="fill:#27AAE1;stroke:none;" transform="matrix(1 0 0 1 339 696)">
   <path d="M 54.9316 0 L 57.666 0 L 30.5664 -70.459 L 28.0762 -70.459 L 0.976562 0 L 3.66211 0 L 12.9395 -24.4629 L 45.7031 -24.4629 Z M 29.1992 -67.0898 L 29.4434 -67.0898 L 44.8242 -26.709 L 13.8184 -26.709 Z"/>
  </g>
  <line id="Baseline-S" style="fill:none;stroke:#27AAE1;opacity:1;stroke-width:0.577;" x1="263" x2="3036" y1="696" y2="696"/>
  <line id="Capline-S" style="fill:none;stroke:#27AAE1;opacity:1;stroke-width:0.577;" x1="263" x2="3036" y1="625.541" y2="625.541"/>
  <g id="H-reference" style="fill:#27AAE1;stroke:none;" transform="matrix(1 0 0 1 339 1126)">
   <path d="M 54.9316 0 L 57.666 0 L 30.5664 -70.459 L 28.0762 -70.459 L 0.976562 0 L 3.66211 0 L 12.9395 -24.4629 L 45.7031 -24.4629 Z M 29.1992 -67.0898 L 29.4434 -67.0898 L 44.8242 -26.709 L 13.8184 -26.709 Z"/>
  </g>
  <line id="Baseline-M" style="fill:none;stroke:#27AAE1;opacity:1;stroke-width:0.577;" x1="263" x2="3036" y1="1126" y2="1126"/>
  <line id="Capline-M" style="fill:none;stroke:#27AAE1;opacity:1;stroke-width:0.577;" x1="263" x2="3036" y1="1055.54" y2="1055.54"/>
  <g id="H-reference" style="fill:#27AAE1;stroke:none;" transform="matrix(1 0 0 1 339 1556)">
   <path d="M 54.9316 0 L 57.666 0 L 30.5664 -70.459 L 28.0762 -70.459 L 0.976562 0 L 3.66211 0 L 12.9395 -24.4629 L 45.7031 -24.4629 Z M 29.1992 -67.0898 L 29.4434 -67.0898 L 44.8242 -26.709 L 13.8184 -26.709 Z"/>
  </g>
  <line id="Baseline-L" style="fill:none;stroke:#27AAE1;opacity:1;stroke-width:0.577;" x1="263" x2="3036" y1="1556" y2="1556"/>
  <line id="Capline-L" style="fill:none;stroke:#27AAE1;opacity:1;stroke-width:0.577;" x1="263" x2="3036" y1="1485.54" y2="1485.54"/>
  <rect height="119.336" id="left-margin" style="fill:#00AEEF;stroke:none;opacity:0.4;" width="12.4512" x="1389.1" y="1030.79"/>
  <rect height="119.336" id="right-margin" style="fill:#00AEEF;stroke:none;opacity:0.4;" width="12.4509" x="1498.14" y="1030.79"/>
 </g>
 <g id="Symbols">
  <g id="Black-L" transform="matrix(1 0 0 1 2852.27 1556)">
   <path d="M 137.939 -83.3496 L 143.506 -89.209 C 146.68 -92.627 147.266 -97.7051 143.945 -100.879 L 141.699 -103.271 C 138.965 -106.104 133.887 -105.273 130.615 -102.148 L 124.805 -96.5332 Z M 39.9902 26.5137 L 111.621 26.5137 C 126.221 26.5137 134.863 17.8711 134.863 2.68555 L 134.863 -62.6465 L 114.648 -42.3828 L 114.648 -0.146484 C 114.648 4.39453 112.451 6.29883 108.887 6.29883 L 42.6758 6.29883 C 38.4766 6.29883 36.3281 4.39453 36.3281 -0.146484 L 36.3281 -65.625 C 36.3281 -70.166 38.4766 -72.0703 42.6758 -72.0703 L 82.7148 -72.0703 L 102.979 -92.2852 L 39.9902 -92.2852 C 24.7559 -92.2852 16.0645 -83.6914 16.0645 -68.457 L 16.0645 2.68555 C 16.0645 17.8711 24.7559 26.5137 39.9902 26.5137 Z M 69.043 -23.584 L 83.9844 -29.3457 L 133.545 -78.9551 L 120.361 -92.0898 L 70.8008 -42.4805 L 64.9902 -27.7344 C 63.9648 -25.0977 66.748 -22.7539 69.043 -23.584 Z"/>
  </g>
  <g id="Heavy-L" transform="matrix(1 0 0 1 2556.37 1556)">
   <path d="M 136.914 -84.8633 L 142.139 -90.3809 C 145.068 -93.5059 145.557 -97.998 142.529 -100.928 L 140.527 -103.027 C 137.988 -105.615 133.447 -104.932 130.469 -102.1 L 125.049 -96.7773 Z M 67.4805 -23.9258 L 81.543 -29.4922 L 132.52 -80.4688 L 120.605 -92.334 L 69.6777 -41.3574 L 63.9648 -27.4902 C 63.0371 -25.2441 65.4785 -23.1445 67.4805 -23.9258 Z M 38.8184 25.4395 L 110.938 25.4395 C 124.707 25.4395 132.812 17.334 132.812 2.7832 L 132.812 -63.5254 L 115.332 -45.9961 L 115.332 0.488281 C 115.332 5.61523 112.744 7.91016 108.789 7.91016 L 40.918 7.91016 C 36.084 7.91016 33.5938 5.61523 33.5938 0.488281 L 33.5938 -66.4062 C 33.5938 -71.5332 36.084 -73.8281 40.918 -73.8281 L 84.8633 -73.8281 L 102.344 -91.3086 L 38.8184 -91.3086 C 24.2188 -91.3086 16.0645 -83.252 16.0645 -68.7012 L 16.0645 2.7832 C 16.0645 17.334 24.2188 25.4395 38.8184 25.4395 Z"/>
  </g>
  <g id="Bold-L" transform="matrix(1 0 0 1 2260.53 1556)">
   <path d="M 135.791 -86.5723 L 140.674 -91.6992 C 143.311 -94.4824 143.604 -98.3887 140.967 -100.977 L 139.209 -102.734 C 136.914 -105.078 133.008 -104.59 130.371 -102.002 L 125.293 -97.0703 Z M 65.6738 -24.2676 L 78.8086 -29.6387 L 131.348 -82.2266 L 120.898 -92.627 L 68.3594 -40.0879 L 62.793 -27.1973 C 62.0605 -25.3906 64.0137 -23.6328 65.6738 -24.2676 Z M 37.5 24.2188 L 110.156 24.2188 C 123.047 24.2188 130.518 16.6992 130.518 2.92969 L 130.518 -64.502 L 116.113 -50.0488 L 116.113 1.26953 C 116.113 7.03125 113.086 9.76562 108.691 9.76562 L 38.9648 9.76562 C 33.4473 9.76562 30.5176 7.03125 30.5176 1.26953 L 30.5176 -67.2852 C 30.5176 -73.0469 33.4473 -75.8301 38.9648 -75.8301 L 87.207 -75.8301 L 101.66 -90.2344 L 37.5 -90.2344 C 23.6328 -90.2344 16.0645 -82.7637 16.0645 -68.9453 L 16.0645 2.92969 C 16.0645 16.748 23.6328 24.2188 37.5 24.2188 Z"/>
  </g>
  <g id="Semibold-L" transform="matrix(1 0 0 1 1964.46 1556)">
   <path d="M 134.961 -87.793 L 139.648 -92.627 C 142.041 -95.1172 142.285 -98.584 139.844 -100.977 L 138.33 -102.539 C 136.182 -104.736 132.666 -104.297 130.273 -101.953 L 125.488 -97.2656 Z M 64.4531 -24.5117 L 76.9531 -29.7852 L 130.566 -83.3984 L 121.094 -92.8223 L 67.4805 -39.209 L 62.0117 -27.0508 C 61.3281 -25.5371 63.0371 -23.9258 64.4531 -24.5117 Z M 36.6211 23.3887 L 109.619 23.3887 C 121.875 23.3887 128.955 16.3086 128.955 2.97852 L 128.955 -65.1855 L 116.602 -52.832 L 116.602 1.75781 C 116.602 7.95898 113.33 11.0352 108.643 11.0352 L 37.5977 11.0352 C 31.6406 11.0352 28.418 7.95898 28.418 1.75781 L 28.418 -67.8711 C 28.418 -74.1211 31.6406 -77.1973 37.5977 -77.1973 L 88.8672 -77.1973 L 101.221 -89.502 L 36.6211 -89.502 C 23.1934 -89.502 16.0645 -82.4707 16.0645 -69.0918 L 16.0645 2.97852 C 16.0645 16.3086 23.1934 23.3887 36.6211 23.3887 Z"/>
  </g>
  <g id="Medium-L" transform="matrix(1 0 0 1 1668.21 1556)">
   <path d="M 134.375 -88.6719 L 138.867 -93.3105 C 141.113 -95.6543 141.26 -98.7793 139.014 -100.977 L 137.646 -102.393 C 135.645 -104.443 132.422 -104.102 130.225 -101.953 L 125.635 -97.4609 Z M 63.5254 -24.6582 L 75.5371 -29.834 L 129.98 -84.2773 L 121.24 -92.9688 L 66.7969 -38.5254 L 61.377 -26.9043 C 60.8398 -25.6348 62.2559 -24.1699 63.5254 -24.6582 Z M 35.9375 22.7539 L 109.229 22.7539 C 120.996 22.7539 127.783 15.9668 127.783 3.02734 L 127.783 -65.6738 L 117.041 -54.9316 L 117.041 2.14844 C 117.041 8.69141 113.477 12.0117 108.594 12.0117 L 36.5723 12.0117 C 30.2246 12.0117 26.8066 8.69141 26.8066 2.14844 L 26.8066 -68.3594 C 26.8066 -74.9023 30.2246 -78.2227 36.5723 -78.2227 L 90.0879 -78.2227 L 100.83 -88.9648 L 35.9375 -88.9648 C 22.9004 -88.9648 16.0645 -82.2266 16.0645 -69.2383 L 16.0645 3.02734 C 16.0645 16.0156 22.9004 22.7539 35.9375 22.7539 Z"/>
  </g>
  <g id="Regular-L" transform="matrix(1 0 0 1 1372.11 1556)">
   <path d="M 133.594 -89.8438 L 137.842 -94.1895 C 139.893 -96.2891 139.941 -99.0234 137.939 -101.025 L 136.719 -102.246 C 134.912 -104.053 132.08 -103.857 130.127 -101.904 L 125.83 -97.6562 Z M 62.3047 -24.9023 L 73.6816 -29.9316 L 129.199 -85.4492 L 121.436 -93.1641 L 65.918 -37.6465 L 60.5957 -26.709 C 60.1562 -25.7324 61.2793 -24.4629 62.3047 -24.9023 Z M 35.0586 21.9238 L 108.691 21.9238 C 119.824 21.9238 126.221 15.5273 126.221 3.125 L 126.221 -66.3574 L 117.578 -57.7148 L 117.578 2.63672 C 117.578 9.66797 113.721 13.2812 108.496 13.2812 L 35.2539 13.2812 C 28.418 13.2812 24.707 9.66797 24.707 2.63672 L 24.707 -68.9453 C 24.707 -75.9766 28.418 -79.5898 35.2539 -79.5898 L 91.6992 -79.5898 L 100.391 -88.2324 L 35.0586 -88.2324 C 22.4609 -88.2324 16.0645 -81.8848 16.0645 -69.3848 L 16.0645 3.125 C 16.0645 15.625 22.4609 21.9238 35.0586 21.9238 Z"/>
  </g>
  <g id="Light-L" transform="matrix(1 0 0 1 1076.25 1556)">
   <path d="M 132.324 -89.8926 L 136.182 -93.8477 C 138.135 -95.8496 138.184 -98.0957 136.328 -99.9512 L 135.498 -100.781 C 133.838 -102.441 131.396 -102.246 129.59 -100.439 L 125.684 -96.582 Z M 62.793 -25.8301 L 72.8027 -30.4688 L 128.271 -85.9375 L 121.68 -92.5293 L 66.2109 -37.0605 L 61.377 -27.2949 C 60.9375 -26.4648 61.9141 -25.4883 62.793 -25.8301 Z M 34.0332 20.9473 L 107.129 20.9473 C 118.066 20.9473 124.17 14.7461 124.17 3.07617 L 124.17 -65.4785 L 117.578 -58.8379 L 117.578 2.73438 C 117.578 10.3516 113.33 14.3066 106.982 14.3066 L 34.1797 14.3066 C 26.709 14.3066 22.7051 10.3516 22.7051 2.73438 L 22.7051 -68.9941 C 22.7051 -76.6113 26.709 -80.5664 34.1797 -80.5664 L 93.3594 -80.5664 L 100 -87.207 L 34.0332 -87.207 C 22.168 -87.207 16.0645 -81.1035 16.0645 -69.3359 L 16.0645 3.07617 C 16.0645 14.8438 22.168 20.9473 34.0332 20.9473 Z"/>
  </g>
  <g id="Thin-L" transform="matrix(1 0 0 1 780.69 1556)">
   <path d="M 130.615 -89.9902 L 133.984 -93.3594 C 135.791 -95.166 135.84 -96.875 134.18 -98.5352 L 133.887 -98.8281 C 132.422 -100.342 130.518 -100.146 128.857 -98.4863 L 125.488 -95.166 Z M 63.3789 -27.0508 L 71.6797 -31.1523 L 127.051 -86.5234 L 121.973 -91.6504 L 66.6016 -36.2793 L 62.3535 -28.0762 C 62.0117 -27.4414 62.7441 -26.8066 63.3789 -27.0508 Z M 32.666 19.6289 L 105.078 19.6289 C 115.771 19.6289 121.484 13.7207 121.484 3.02734 L 121.484 -64.3066 L 117.578 -60.3516 L 117.578 2.83203 C 117.578 11.2793 112.842 15.6738 104.932 15.6738 L 32.8125 15.6738 C 24.4141 15.6738 19.9707 11.2793 19.9707 2.83203 L 19.9707 -69.043 C 19.9707 -77.4902 24.4141 -81.8848 32.8125 -81.8848 L 95.5566 -81.8848 L 99.5117 -85.791 L 32.666 -85.791 C 21.7773 -85.791 16.0645 -80.0781 16.0645 -69.2383 L 16.0645 3.02734 C 16.0645 13.8672 21.7773 19.6289 32.666 19.6289 Z"/>
  </g>
  <g id="Ultralight-L" transform="matrix(1 0 0 1 484.565 1556)">
   <path d="M 129.785 -90.0391 L 132.861 -93.1152 C 134.57 -94.873 134.668 -96.2402 133.105 -97.8027 L 133.057 -97.8516 C 131.689 -99.2188 130.029 -99.0723 128.467 -97.5098 L 125.391 -94.4336 Z M 63.6719 -27.6855 L 71.0938 -31.4941 L 126.416 -86.8164 L 122.119 -91.1621 L 66.8457 -35.8887 L 62.8906 -28.4668 C 62.5488 -27.9297 63.1348 -27.4902 63.6719 -27.6855 Z M 31.9824 18.9453 L 104.004 18.9453 C 114.551 18.9453 120.117 13.2324 120.117 2.97852 L 120.117 -63.6719 L 117.578 -61.1328 L 117.578 2.88086 C 117.578 11.7676 112.598 16.3574 103.857 16.3574 L 32.1289 16.3574 C 23.1934 16.3574 18.6035 11.7676 18.6035 2.88086 L 18.6035 -69.043 C 18.6035 -77.9297 23.1934 -82.5684 32.1289 -82.5684 L 96.7285 -82.5684 L 99.2676 -85.1074 L 31.9824 -85.1074 C 21.582 -85.1074 16.0645 -79.5898 16.0645 -69.1895 L 16.0645 2.97852 C 16.0645 13.3789 21.582 18.9453 31.9824 18.9453 Z"/>
  </g>
  <g id="Black-M" transform="matrix(1 0 0 1 2869.92 1126)">
   <path d="M 107.617 -70.5078 L 112.109 -75.293 C 114.893 -78.2715 115.527 -82.7637 112.646 -85.498 L 110.742 -87.5 C 108.447 -89.9414 103.955 -89.1602 101.074 -86.377 L 96.2891 -81.7871 Z M 31.9824 13.5742 L 86.6211 13.5742 C 98.9258 13.5742 106.201 6.29883 106.201 -5.95703 L 106.201 -54.834 L 87.8906 -36.5234 L 87.8906 -8.88672 C 87.8906 -5.81055 86.5723 -4.73633 83.6914 -4.73633 L 34.9121 -4.73633 C 32.0801 -4.73633 30.7617 -5.81055 30.7617 -8.88672 L 30.7617 -57.7148 C 30.7617 -60.8398 32.0801 -61.9141 34.9121 -61.9141 L 62.1582 -61.9141 L 80.4199 -80.1758 L 31.9824 -80.1758 C 19.7266 -80.1758 12.4512 -72.9004 12.4512 -60.6445 L 12.4512 -5.95703 C 12.4512 6.29883 19.7266 13.5742 31.9824 13.5742 Z M 55.9082 -26.2695 L 67.9199 -30.7617 L 104.395 -67.2852 L 93.0664 -78.5645 L 56.5918 -42.0898 L 52.1973 -30.0781 C 51.2207 -27.5391 53.8086 -25.5371 55.9082 -26.2695 Z"/>
  </g>
  <g id="Heavy-M" transform="matrix(1 0 0 1 2573.85 1126)">
   <path d="M 106.836 -72.168 L 111.084 -76.709 C 113.623 -79.3457 114.111 -83.3008 111.475 -85.8398 L 109.766 -87.6465 C 107.666 -89.8438 103.662 -89.1602 101.074 -86.6699 L 96.6309 -82.373 Z M 31.0059 12.6465 L 86.2793 12.6465 C 97.7539 12.6465 104.492 5.85938 104.492 -5.85938 L 104.492 -56.0059 L 88.6719 -40.1855 L 88.6719 -8.20312 C 88.6719 -4.63867 86.9629 -3.22266 83.9844 -3.22266 L 33.252 -3.22266 C 29.9316 -3.22266 28.2715 -4.63867 28.2715 -8.20312 L 28.2715 -58.5938 C 28.2715 -62.1582 29.9316 -63.5742 33.252 -63.5742 L 64.0137 -63.5742 L 79.8828 -79.3945 L 31.0059 -79.3945 C 19.2383 -79.3945 12.4512 -72.6562 12.4512 -60.9375 L 12.4512 -5.85938 C 12.4512 5.85938 19.2383 12.6465 31.0059 12.6465 Z M 54.0527 -26.3672 L 65.4785 -30.8105 L 103.516 -68.8477 L 93.3105 -79.0527 L 55.2734 -41.0156 L 50.8301 -29.6387 C 50.0488 -27.5391 52.2461 -25.7324 54.0527 -26.3672 Z"/>
  </g>
  <g id="Bold-M" transform="matrix(1 0 0 1 2277.87 1126)">
   <path d="M 105.957 -74.0234 L 109.961 -78.2227 C 112.158 -80.5664 112.5 -83.9844 110.205 -86.1816 L 108.691 -87.7441 C 106.787 -89.7461 103.369 -89.209 101.123 -87.0605 L 96.9727 -83.0078 Z M 51.9531 -26.5137 L 62.7441 -30.8105 L 102.539 -70.6055 L 93.5059 -79.541 L 53.7598 -39.7461 L 49.3652 -29.1992 C 48.6816 -27.4902 50.4883 -25.9277 51.9531 -26.5137 Z M 29.8828 11.5723 L 85.8887 11.5723 C 96.3867 11.5723 102.588 5.41992 102.588 -5.76172 L 102.588 -57.3242 L 89.502 -44.2383 L 89.502 -7.42188 C 89.502 -3.32031 87.4512 -1.46484 84.3262 -1.46484 L 31.3965 -1.46484 C 27.5391 -1.46484 25.5371 -3.32031 25.5371 -7.42188 L 25.5371 -59.5215 C 25.5371 -63.623 27.5391 -65.4785 31.3965 -65.4785 L 66.1621 -65.4785 L 79.1992 -78.5156 L 29.8828 -78.5156 C 18.6523 -78.5156 12.4512 -72.3633 12.4512 -61.2305 L 12.4512 -5.76172 C 12.4512 5.41992 18.6523 11.5723 29.8828 11.5723 Z"/>
  </g>
  <g id="Semibold-M" transform="matrix(1 0 0 1 1981.65 1126)">
   <path d="M 105.322 -75.293 L 109.18 -79.2969 C 111.182 -81.3965 111.377 -84.4238 109.326 -86.4258 L 107.959 -87.8418 C 106.201 -89.6484 103.125 -89.2578 101.123 -87.3047 L 97.168 -83.4473 Z M 50.5371 -26.5625 L 60.8398 -30.8105 L 101.855 -71.7773 L 93.7012 -79.8828 L 52.7344 -38.916 L 48.3398 -28.8574 C 47.7539 -27.4902 49.2676 -26.0742 50.5371 -26.5625 Z M 29.1016 10.8887 L 85.5957 10.8887 C 95.459 10.8887 101.27 5.12695 101.27 -5.66406 L 101.27 -58.252 L 90.0879 -47.0703 L 90.0879 -6.88477 C 90.0879 -2.44141 87.793 -0.292969 84.5703 -0.292969 L 30.127 -0.292969 C 25.8789 -0.292969 23.6328 -2.44141 23.6328 -6.88477 L 23.6328 -60.2051 C 23.6328 -64.6484 25.8789 -66.748 30.127 -66.748 L 67.5781 -66.748 L 78.7598 -77.9297 L 29.1016 -77.9297 C 18.2617 -77.9297 12.4512 -72.168 12.4512 -61.4258 L 12.4512 -5.66406 C 12.4512 5.12695 18.2617 10.8887 29.1016 10.8887 Z"/>
  </g>
  <g id="Medium-M" transform="matrix(1 0 0 1 1685.33 1126)">
   <path d="M 104.883 -76.2695 L 108.545 -80.0781 C 110.4 -82.0312 110.547 -84.7656 108.691 -86.5723 L 107.422 -87.8906 C 105.762 -89.5996 102.979 -89.3066 101.172 -87.5 L 97.3633 -83.7891 Z M 49.4629 -26.6602 L 59.4238 -30.8105 L 101.318 -72.7051 L 93.7988 -80.1758 L 51.9531 -38.2812 L 47.5586 -28.6133 C 47.0703 -27.4902 48.3398 -26.1719 49.4629 -26.6602 Z M 28.5156 10.3516 L 85.4004 10.3516 C 94.7754 10.3516 100.244 4.88281 100.244 -5.56641 L 100.244 -58.9355 L 90.5273 -49.2188 L 90.5273 -6.44531 C 90.5273 -1.75781 88.0371 0.585938 84.7656 0.585938 L 29.1504 0.585938 C 24.6582 0.585938 22.168 -1.75781 22.168 -6.44531 L 22.168 -60.6934 C 22.168 -65.3809 24.6582 -67.7246 29.1504 -67.7246 L 68.7012 -67.7246 L 78.418 -77.4902 L 28.5156 -77.4902 C 17.9688 -77.4902 12.4512 -72.0215 12.4512 -61.5723 L 12.4512 -5.56641 C 12.4512 4.88281 17.9688 10.3516 28.5156 10.3516 Z"/>
  </g>
  <g id="Regular-M" transform="matrix(1 0 0 1 1389.1 1126)">
   <path d="M 104.248 -77.4902 L 107.764 -81.1035 C 109.424 -82.8125 109.473 -85.2051 107.812 -86.8164 L 106.689 -87.9883 C 105.176 -89.502 102.734 -89.3066 101.172 -87.7441 L 97.6074 -84.2285 Z M 48.0469 -26.709 L 57.5684 -30.8594 L 100.635 -73.9258 L 93.9453 -80.5176 L 50.9277 -37.4512 L 46.5332 -28.2715 C 46.1426 -27.4414 47.1191 -26.3184 48.0469 -26.709 Z M 27.7832 9.61914 L 85.1074 9.61914 C 93.8477 9.61914 98.9746 4.54102 98.9746 -5.51758 L 98.9746 -59.8633 L 91.1133 -52.002 L 91.1133 -5.9082 C 91.1133 -0.830078 88.3301 1.75781 84.9609 1.75781 L 27.8809 1.75781 C 22.998 1.75781 20.3125 -0.830078 20.3125 -5.9082 L 20.3125 -61.3281 C 20.3125 -66.4062 22.998 -69.043 27.8809 -69.043 L 70.1172 -69.043 L 77.9785 -76.9043 L 27.7832 -76.9043 C 17.5781 -76.9043 12.4512 -71.8262 12.4512 -61.7676 L 12.4512 -5.51758 C 12.4512 4.58984 17.5781 9.61914 27.7832 9.61914 Z"/>
  </g>
  <g id="Light-M" transform="matrix(1 0 0 1 1093.17 1126)">
   <path d="M 103.125 -77.5879 L 106.299 -80.8105 C 107.861 -82.4219 107.861 -84.375 106.396 -85.8887 L 105.566 -86.6699 C 104.199 -88.0371 102.148 -87.8906 100.684 -86.4258 L 97.4609 -83.252 Z M 48.4375 -27.5391 L 56.8359 -31.2988 L 99.8047 -74.3164 L 94.1895 -79.9316 L 51.2207 -36.9141 L 47.2168 -28.8086 C 46.875 -28.125 47.7051 -27.2461 48.4375 -27.5391 Z M 26.8555 8.74023 L 83.6914 8.74023 C 92.2852 8.74023 97.1191 3.85742 97.1191 -5.51758 L 97.1191 -59.0332 L 91.1133 -53.0273 L 91.1133 -5.85938 C 91.1133 -0.195312 87.9883 2.68555 83.5938 2.68555 L 26.9531 2.68555 C 21.4844 2.68555 18.5059 -0.195312 18.5059 -5.85938 L 18.5059 -61.377 C 18.5059 -66.9922 21.4844 -69.9219 26.9531 -69.9219 L 71.6309 -69.9219 L 77.6855 -75.9766 L 26.8555 -75.9766 C 17.334 -75.9766 12.4512 -71.1426 12.4512 -61.6699 L 12.4512 -5.51758 C 12.4512 3.90625 17.334 8.74023 26.8555 8.74023 Z"/>
  </g>
  <g id="Thin-M" transform="matrix(1 0 0 1 797.487 1126)">
   <path d="M 101.611 -77.6855 L 104.297 -80.3711 C 105.762 -81.8359 105.811 -83.252 104.443 -84.6191 L 104.102 -84.9609 C 102.93 -86.1328 101.318 -85.9863 100 -84.668 L 97.3145 -81.9824 Z M 48.9746 -28.6133 L 55.8105 -31.9336 L 98.7305 -74.8535 L 94.4824 -79.1504 L 51.5625 -36.2305 L 48.0957 -29.4922 C 47.8516 -29.0039 48.4375 -28.418 48.9746 -28.6133 Z M 25.6348 7.56836 L 81.8848 7.56836 C 90.2344 7.56836 94.7266 2.92969 94.7266 -5.56641 L 94.7266 -58.0078 L 91.1133 -54.3945 L 91.1133 -5.76172 C 91.1133 0.634766 87.5488 3.90625 81.7383 3.90625 L 25.7324 3.90625 C 19.3848 3.90625 16.0645 0.634766 16.0645 -5.76172 L 16.0645 -61.4258 C 16.0645 -67.7734 19.3848 -71.0938 25.7324 -71.0938 L 73.584 -71.0938 L 77.2461 -74.707 L 25.6348 -74.707 C 16.9922 -74.707 12.4512 -70.2148 12.4512 -61.6211 L 12.4512 -5.56641 C 12.4512 3.02734 16.9922 7.56836 25.6348 7.56836 Z"/>
  </g>
  <g id="Ultralight-M" transform="matrix(1 0 0 1 501.288 1126)">
   <path d="M 100.83 -77.6855 L 103.32 -80.1758 C 104.688 -81.543 104.736 -82.7148 103.467 -83.9355 L 103.369 -84.0332 C 102.246 -85.1562 100.928 -85.0586 99.6582 -83.7891 L 97.2168 -81.3477 Z M 49.2676 -29.1992 L 55.2734 -32.2266 L 98.1445 -75.0977 L 94.6289 -78.7109 L 51.709 -35.8398 L 48.584 -29.8828 C 48.3398 -29.4434 48.8281 -29.0039 49.2676 -29.1992 Z M 25 6.93359 L 80.9082 6.93359 C 89.1602 6.93359 93.5059 2.49023 93.5059 -5.61523 L 93.5059 -57.4707 L 91.1133 -55.0781 L 91.1133 -5.71289 C 91.1133 1.02539 87.3535 4.54102 80.8105 4.54102 L 25.0977 4.54102 C 18.3594 4.54102 14.8438 1.02539 14.8438 -5.71289 L 14.8438 -61.4258 C 14.8438 -68.2129 18.3594 -71.7285 25.0977 -71.7285 L 74.6094 -71.7285 L 77.002 -74.1211 L 25 -74.1211 C 16.7969 -74.1211 12.4512 -69.7266 12.4512 -61.5723 L 12.4512 -5.61523 C 12.4512 2.58789 16.7969 6.93359 25 6.93359 Z"/>
  </g>
  <g id="Black-S" transform="matrix(1 0 0 1 2883.69 696)">
   <path d="M 84.2773 -62.9883 L 87.793 -66.748 C 89.9414 -69.043 90.4297 -72.5098 88.1836 -74.6582 L 86.7188 -76.2207 C 84.9121 -78.125 81.4453 -77.4902 79.1992 -75.3418 L 75.4883 -71.7773 Z M 25 2.92969 L 67.8711 2.92969 C 77.4414 2.92969 83.1055 -2.73438 83.1055 -12.3047 L 83.1055 -50.6836 L 68.9453 -36.5234 L 68.9453 -14.5508 C 68.9453 -12.1094 67.8711 -11.2305 65.625 -11.2305 L 27.2461 -11.2305 C 25 -11.2305 23.9258 -12.1094 23.9258 -14.5508 L 23.9258 -52.9297 C 23.9258 -55.3711 25 -56.25 27.2461 -56.25 L 48.8281 -56.25 L 62.9883 -70.4102 L 25 -70.4102 C 15.4297 -70.4102 9.76562 -64.7461 9.76562 -55.1758 L 9.76562 -12.3047 C 9.76562 -2.73438 15.4297 2.92969 25 2.92969 Z M 43.6523 -28.2227 L 53.0273 -31.7383 L 81.7383 -60.4492 L 72.9492 -69.2383 L 44.2383 -40.5273 L 40.7715 -31.1523 C 40.0391 -29.1992 42.041 -27.6367 43.6523 -28.2227 Z"/>
  </g>
  <g id="Heavy-S" transform="matrix(1 0 0 1 2587.4 696)">
   <path d="M 83.7891 -64.2578 L 87.1582 -67.8223 C 89.1113 -69.9219 89.502 -73.0469 87.4512 -75 L 86.084 -76.4648 C 84.4238 -78.2227 81.2988 -77.6855 79.2969 -75.7324 L 75.7324 -72.3145 Z M 24.3652 2.34375 L 67.7734 2.34375 C 76.709 2.34375 81.9824 -2.97852 81.9824 -12.207 L 81.9824 -51.6602 L 69.5312 -39.209 L 69.5312 -14.0137 C 69.5312 -11.2793 68.2129 -10.1562 66.0156 -10.1562 L 26.0742 -10.1562 C 23.5352 -10.1562 22.2656 -11.2793 22.2656 -14.0137 L 22.2656 -53.5645 C 22.2656 -56.2988 23.5352 -57.4219 26.0742 -57.4219 L 50.0977 -57.4219 L 62.5977 -69.9219 L 24.3652 -69.9219 C 15.0879 -69.9219 9.76562 -64.6484 9.76562 -55.3711 L 9.76562 -12.207 C 9.76562 -2.97852 15.0879 2.34375 24.3652 2.34375 Z M 42.1875 -28.2227 L 51.2695 -31.6895 L 81.1523 -61.6211 L 73.0957 -69.6777 L 43.1641 -39.7461 L 39.6973 -30.7617 C 39.0625 -29.1016 40.7715 -27.6855 42.1875 -28.2227 Z"/>
  </g>
  <g id="Bold-S" transform="matrix(1 0 0 1 2291.13 696)">
   <path d="M 83.252 -65.6738 L 86.4746 -69.043 C 88.2324 -70.8984 88.4766 -73.6328 86.6699 -75.3906 L 85.4004 -76.709 C 83.8867 -78.2715 81.1523 -77.8809 79.3457 -76.1719 L 76.0254 -72.9004 Z M 40.5762 -28.1738 L 49.2676 -31.6406 L 80.5176 -62.8906 L 73.2422 -70.1172 L 41.9922 -38.8672 L 38.4766 -30.3223 C 37.9395 -29.0039 39.3555 -27.7344 40.5762 -28.1738 Z M 23.6328 1.66016 L 67.627 1.66016 C 75.8789 1.66016 80.7617 -3.22266 80.7617 -12.1094 L 80.7617 -52.7832 L 70.166 -42.1875 L 70.166 -13.4277 C 70.166 -10.3516 68.6035 -8.98438 66.4551 -8.98438 L 24.8047 -8.98438 C 21.9238 -8.98438 20.3613 -10.3516 20.3613 -13.4277 L 20.3613 -54.2969 C 20.3613 -57.373 21.9238 -58.7402 24.8047 -58.7402 L 51.5137 -58.7402 L 62.1094 -69.3848 L 23.6328 -69.3848 C 14.6973 -69.3848 9.76562 -64.502 9.76562 -55.6152 L 9.76562 -12.1094 C 9.76562 -3.22266 14.6973 1.66016 23.6328 1.66016 Z"/>
  </g>
  <g id="Semibold-S" transform="matrix(1 0 0 1 1994.73 696)">
   <path d="M 82.9102 -66.6016 L 85.9863 -69.873 C 87.5977 -71.582 87.7441 -74.0723 86.1328 -75.6348 L 84.9609 -76.9043 C 83.4961 -78.3203 81.0059 -78.0273 79.3945 -76.4648 L 76.2207 -73.3398 Z M 39.4531 -28.1738 L 47.9004 -31.6406 L 80.0293 -63.7695 L 73.3398 -70.459 L 41.2109 -38.2812 L 37.5977 -30.0293 C 37.1582 -28.9551 38.3789 -27.7832 39.4531 -28.1738 Z M 23.0957 1.17188 L 67.5293 1.17188 C 75.293 1.17188 79.9316 -3.41797 79.9316 -12.0605 L 79.9316 -53.5645 L 70.6055 -44.2383 L 70.6055 -12.9883 C 70.6055 -9.7168 68.8965 -8.1543 66.748 -8.1543 L 23.877 -8.1543 C 20.752 -8.1543 19.0918 -9.7168 19.0918 -12.9883 L 19.0918 -54.7852 C 19.0918 -58.1055 20.752 -59.668 23.877 -59.668 L 52.5391 -59.668 L 61.8164 -68.9941 L 23.0957 -68.9941 C 14.4043 -68.9941 9.76562 -64.4043 9.76562 -55.7617 L 9.76562 -12.0605 C 9.76562 -3.41797 14.4043 1.17188 23.0957 1.17188 Z"/>
  </g>
  <g id="Medium-S" transform="matrix(1 0 0 1 1698.26 696)">
   <path d="M 82.6172 -67.3828 L 85.6445 -70.5078 C 87.1582 -72.0703 87.207 -74.3652 85.7422 -75.8789 L 84.5703 -77.002 C 83.252 -78.3691 80.9082 -78.1738 79.4434 -76.709 L 76.3672 -73.6328 Z M 38.5742 -28.1738 L 46.8262 -31.5918 L 79.6875 -64.4531 L 73.4375 -70.7031 L 40.5762 -37.793 L 36.9629 -29.834 C 36.5723 -28.9062 37.6465 -27.7832 38.5742 -28.1738 Z M 22.7051 0.830078 L 67.4316 0.830078 C 74.9023 0.830078 79.248 -3.56445 79.248 -12.0117 L 79.248 -54.1504 L 70.9473 -45.8008 L 70.9473 -12.6953 C 70.9473 -9.22852 69.0918 -7.51953 66.9922 -7.51953 L 23.1934 -7.51953 C 19.9219 -7.51953 18.0664 -9.22852 18.0664 -12.6953 L 18.0664 -55.1758 C 18.0664 -58.6426 19.9219 -60.3516 23.1934 -60.3516 L 53.2715 -60.3516 L 61.5723 -68.7012 L 22.7051 -68.7012 C 14.209 -68.7012 9.76562 -64.3555 9.76562 -55.9082 L 9.76562 -12.0117 C 9.76562 -3.51562 14.209 0.830078 22.7051 0.830078 Z"/>
  </g>
  <g id="Regular-S" transform="matrix(1 0 0 1 1401.87 696)">
   <path d="M 82.2266 -68.3105 L 85.1562 -71.3379 C 86.5234 -72.7539 86.5234 -74.7559 85.1562 -76.123 L 84.1309 -77.1973 C 82.8613 -78.418 80.8105 -78.2715 79.4922 -77.002 L 76.5625 -74.0723 Z M 37.4512 -28.1738 L 45.5078 -31.543 L 79.248 -65.332 L 73.5352 -70.9961 L 39.7949 -37.207 L 36.1328 -29.541 C 35.791 -28.8086 36.6699 -27.832 37.4512 -28.1738 Z M 22.2168 0.341797 L 67.3828 0.341797 C 74.3164 0.341797 78.418 -3.71094 78.418 -11.9141 L 78.418 -54.8828 L 71.3867 -47.8516 L 71.3867 -12.3047 C 71.3867 -8.59375 69.3848 -6.68945 67.2852 -6.68945 L 22.3145 -6.68945 C 18.7988 -6.68945 16.7969 -8.59375 16.7969 -12.3047 L 16.7969 -55.6641 C 16.7969 -59.375 18.7988 -61.2793 22.3145 -61.2793 L 54.248 -61.2793 L 61.2793 -68.3105 L 22.2168 -68.3105 C 13.916 -68.3105 9.76562 -64.2578 9.76562 -56.0547 L 9.76562 -11.9141 C 9.76562 -3.71094 13.916 0.341797 22.2168 0.341797 Z"/>
  </g>
  <g id="Light-S" transform="matrix(1 0 0 1 1105.84 696)">
   <path d="M 81.25 -68.3594 L 83.8379 -71.0449 C 85.1074 -72.3633 85.1074 -74.0234 83.8867 -75.293 L 83.1543 -76.0254 C 82.0312 -77.1484 80.2734 -77.0508 79.0527 -75.8301 L 76.416 -73.2422 Z M 37.793 -28.9062 L 44.8242 -31.9824 L 78.5156 -65.6738 L 73.7305 -70.459 L 40.0391 -36.7676 L 36.7188 -29.9805 C 36.4746 -29.3945 37.1582 -28.6133 37.793 -28.9062 Z M 21.3867 -0.439453 L 66.1133 -0.439453 C 72.9004 -0.439453 76.8066 -4.3457 76.8066 -11.9629 L 76.8066 -54.1992 L 71.3867 -48.7793 L 71.3867 -12.2559 C 71.3867 -8.05664 69.0918 -5.85938 66.0156 -5.85938 L 21.4844 -5.85938 C 17.4316 -5.85938 15.1855 -8.05664 15.1855 -12.2559 L 15.1855 -55.7129 C 15.1855 -59.9121 17.4316 -62.0605 21.4844 -62.0605 L 55.5664 -62.0605 L 60.9863 -67.4805 L 21.3867 -67.4805 C 13.6719 -67.4805 9.76562 -63.623 9.76562 -56.0059 L 9.76562 -11.9629 C 9.76562 -4.29688 13.6719 -0.439453 21.3867 -0.439453 Z"/>
  </g>
  <g id="Thin-S" transform="matrix(1 0 0 1 810.036 696)">
   <path d="M 79.8828 -68.457 L 82.1289 -70.7031 C 83.252 -71.875 83.3008 -73.0957 82.2266 -74.1699 L 81.8848 -74.5117 C 80.9082 -75.4883 79.541 -75.3906 78.5156 -74.3164 L 76.2695 -72.1191 Z M 38.2812 -29.834 L 43.9453 -32.5195 L 77.5879 -66.1621 L 73.9746 -69.7754 L 40.332 -36.1328 L 37.5488 -30.6152 C 37.3047 -30.1758 37.793 -29.6387 38.2812 -29.834 Z M 20.3125 -1.46484 L 64.502 -1.46484 C 71.0938 -1.46484 74.707 -5.12695 74.707 -11.9629 L 74.707 -53.2715 L 71.3867 -49.9512 L 71.3867 -12.1582 C 71.3867 -7.32422 68.7012 -4.78516 64.4043 -4.78516 L 20.4102 -4.78516 C 15.625 -4.78516 13.0859 -7.32422 13.0859 -12.1582 L 13.0859 -55.7129 C 13.0859 -60.5957 15.625 -63.0859 20.4102 -63.0859 L 57.2754 -63.0859 L 60.5957 -66.4062 L 20.3125 -66.4062 C 13.3789 -66.4062 9.76562 -62.8418 9.76562 -55.9082 L 9.76562 -11.9629 C 9.76562 -5.07812 13.3789 -1.46484 20.3125 -1.46484 Z"/>
  </g>
  <g id="Ultralight-S" transform="matrix(1 0 0 1 513.788 696)">
   <path d="M 79.1992 -68.5059 L 81.2012 -70.5078 C 82.2754 -71.582 82.3242 -72.5586 81.3477 -73.584 L 81.2012 -73.7305 C 80.3223 -74.6094 79.1992 -74.5117 78.1738 -73.5352 L 76.1719 -71.5332 Z M 38.5254 -30.3711 L 43.457 -32.8125 L 77.0508 -66.4062 L 74.0723 -69.4336 L 40.4785 -35.791 L 37.9395 -30.957 C 37.7441 -30.5664 38.1348 -30.1758 38.5254 -30.3711 Z M 19.7754 -2.00195 L 63.6719 -2.00195 C 70.1172 -2.00195 73.584 -5.56641 73.584 -12.0117 L 73.584 -52.7832 L 71.3867 -50.5859 L 71.3867 -12.1094 C 71.3867 -6.93359 68.5059 -4.24805 63.5742 -4.24805 L 19.873 -4.24805 C 14.6484 -4.24805 11.9629 -6.93359 11.9629 -12.1094 L 11.9629 -55.7617 C 11.9629 -60.9375 14.6484 -63.623 19.873 -63.623 L 58.2031 -63.623 L 60.4004 -65.8691 L 19.7754 -65.8691 C 13.2324 -65.8691 9.76562 -62.4023 9.76562 -55.8594 L 9.76562 -12.0117 C 9.76562 -5.46875 13.2324 -2.00195 19.7754 -2.00195 Z"/>
  </g>
 </g>
</svg>
