<?xml version="1.0" encoding="UTF-8"?>
<!--Generator: Apple Native CoreSVG 123-->
<!DOCTYPE svg
PUBLIC "-//W3C//DTD SVG 1.1//EN"
       "http://www.w3.org/Graphics/SVG/1.1/DTD/svg11.dtd">
<svg version="1.1" xmlns="http://www.w3.org/2000/svg" xmlns:xlink="http://www.w3.org/1999/xlink" width="3300" height="2200">
 <!--glyph: "uni1003EB.medium", point size: 100.000000, font version: "Version 15.0d7e11", template writer version: "5"-->
 <g id="Notes">
  <rect height="2200" id="artboard" style="fill:white;opacity:1" width="3300" x="0" y="0"/>
  <line id="" style="fill:none;stroke:black;opacity:1;stroke-width:0.5;" x1="263" x2="3036" y1="292" y2="292"/>
  <text style="stroke:none;fill:black;font-family:-apple-system,&quot;SF Pro Display&quot;,&quot;SF Pro Text&quot;,Helvetica,sans-serif;font-weight:bold;" transform="matrix(1 0 0 1 263 322)">Weight/Scale Variations</text>
  <text style="stroke:none;fill:black;font-family:-apple-system,&quot;SF Pro Display&quot;,&quot;SF Pro Text&quot;,Helvetica,sans-serif;text-anchor:middle;" transform="matrix(1 0 0 1 559.711 322)">Ultralight</text>
  <text style="stroke:none;fill:black;font-family:-apple-system,&quot;SF Pro Display&quot;,&quot;SF Pro Text&quot;,Helvetica,sans-serif;text-anchor:middle;" transform="matrix(1 0 0 1 856.422 322)">Thin</text>
  <text style="stroke:none;fill:black;font-family:-apple-system,&quot;SF Pro Display&quot;,&quot;SF Pro Text&quot;,Helvetica,sans-serif;text-anchor:middle;" transform="matrix(1 0 0 1 1153.13 322)">Light</text>
  <text style="stroke:none;fill:black;font-family:-apple-system,&quot;SF Pro Display&quot;,&quot;SF Pro Text&quot;,Helvetica,sans-serif;text-anchor:middle;" transform="matrix(1 0 0 1 1449.84 322)">Regular</text>
  <text style="stroke:none;fill:black;font-family:-apple-system,&quot;SF Pro Display&quot;,&quot;SF Pro Text&quot;,Helvetica,sans-serif;text-anchor:middle;" transform="matrix(1 0 0 1 1746.56 322)">Medium</text>
  <text style="stroke:none;fill:black;font-family:-apple-system,&quot;SF Pro Display&quot;,&quot;SF Pro Text&quot;,Helvetica,sans-serif;text-anchor:middle;" transform="matrix(1 0 0 1 2043.27 322)">Semibold</text>
  <text style="stroke:none;fill:black;font-family:-apple-system,&quot;SF Pro Display&quot;,&quot;SF Pro Text&quot;,Helvetica,sans-serif;text-anchor:middle;" transform="matrix(1 0 0 1 2339.98 322)">Bold</text>
  <text style="stroke:none;fill:black;font-family:-apple-system,&quot;SF Pro Display&quot;,&quot;SF Pro Text&quot;,Helvetica,sans-serif;text-anchor:middle;" transform="matrix(1 0 0 1 2636.69 322)">Heavy</text>
  <text style="stroke:none;fill:black;font-family:-apple-system,&quot;SF Pro Display&quot;,&quot;SF Pro Text&quot;,Helvetica,sans-serif;text-anchor:middle;" transform="matrix(1 0 0 1 2933.4 322)">Black</text>
  <line id="" style="fill:none;stroke:black;opacity:1;stroke-width:0.5;" x1="263" x2="3036" y1="1903" y2="1903"/>
  <g id="" transform="matrix(1 0 0 1 263 1933)">
   <path d="M 9.24805 0.830078 C 13.5547 0.830078 17.1387 -2.74414 17.1387 -7.05078 C 17.1387 -11.3574 13.5449 -14.9316 9.23828 -14.9316 C 4.94141 -14.9316 1.36719 -11.3574 1.36719 -7.05078 C 1.36719 -2.74414 4.95117 0.830078 9.24805 0.830078 Z M 9.24805 -0.654297 C 5.70312 -0.654297 2.87109 -3.49609 2.87109 -7.05078 C 2.87109 -10.6055 5.69336 -13.4473 9.23828 -13.4473 C 12.793 -13.4473 15.6348 -10.6055 15.6445 -7.05078 C 15.6543 -3.49609 12.8027 -0.654297 9.24805 -0.654297 Z M 9.22852 -3.42773 C 9.69727 -3.42773 9.9707 -3.74023 9.9707 -4.25781 L 9.9707 -6.31836 L 12.1973 -6.31836 C 12.6953 -6.31836 13.0371 -6.57227 13.0371 -7.04102 C 13.0371 -7.51953 12.7148 -7.7832 12.1973 -7.7832 L 9.9707 -7.7832 L 9.9707 -10.0098 C 9.9707 -10.5273 9.69727 -10.8496 9.22852 -10.8496 C 8.75977 -10.8496 8.50586 -10.5078 8.50586 -10.0098 L 8.50586 -7.7832 L 6.29883 -7.7832 C 5.78125 -7.7832 5.44922 -7.51953 5.44922 -7.04102 C 5.44922 -6.57227 5.80078 -6.31836 6.29883 -6.31836 L 8.50586 -6.31836 L 8.50586 -4.25781 C 8.50586 -3.75977 8.75977 -3.42773 9.22852 -3.42773 Z"/>
  </g>
  <g id="" transform="matrix(1 0 0 1 281.506 1933)">
   <path d="M 11.709 2.91016 C 17.1582 2.91016 21.6699 -1.60156 21.6699 -7.05078 C 21.6699 -12.4902 17.1484 -17.0117 11.6992 -17.0117 C 6.25977 -17.0117 1.74805 -12.4902 1.74805 -7.05078 C 1.74805 -1.60156 6.26953 2.91016 11.709 2.91016 Z M 11.709 1.25 C 7.09961 1.25 3.41797 -2.44141 3.41797 -7.05078 C 3.41797 -11.6504 7.08984 -15.3516 11.6992 -15.3516 C 16.3086 -15.3516 20 -11.6504 20.0098 -7.05078 C 20.0195 -2.44141 16.3184 1.25 11.709 1.25 Z M 11.6895 -2.41211 C 12.207 -2.41211 12.5195 -2.77344 12.5195 -3.33984 L 12.5195 -6.23047 L 15.5762 -6.23047 C 16.123 -6.23047 16.5039 -6.51367 16.5039 -7.03125 C 16.5039 -7.55859 16.1426 -7.86133 15.5762 -7.86133 L 12.5195 -7.86133 L 12.5195 -10.9277 C 12.5195 -11.5039 12.207 -11.8555 11.6895 -11.8555 C 11.1719 -11.8555 10.8789 -11.4844 10.8789 -10.9277 L 10.8789 -7.86133 L 7.83203 -7.86133 C 7.26562 -7.86133 6.89453 -7.55859 6.89453 -7.03125 C 6.89453 -6.51367 7.28516 -6.23047 7.83203 -6.23047 L 10.8789 -6.23047 L 10.8789 -3.33984 C 10.8789 -2.79297 11.1719 -2.41211 11.6895 -2.41211 Z"/>
  </g>
  <g id="" transform="matrix(1 0 0 1 304.924 1933)">
   <path d="M 14.9707 5.67383 C 21.9336 5.67383 27.6953 -0.078125 27.6953 -7.04102 C 27.6953 -14.0039 21.9238 -19.7559 14.9609 -19.7559 C 8.00781 -19.7559 2.25586 -14.0039 2.25586 -7.04102 C 2.25586 -0.078125 8.01758 5.67383 14.9707 5.67383 Z M 14.9707 3.85742 C 8.93555 3.85742 4.08203 -1.00586 4.08203 -7.04102 C 4.08203 -13.0762 8.92578 -17.9395 14.9609 -17.9395 C 21.0059 -17.9395 25.8594 -13.0762 25.8691 -7.04102 C 25.8789 -1.00586 21.0156 3.85742 14.9707 3.85742 Z M 14.9512 -1.06445 C 15.5176 -1.06445 15.8691 -1.45508 15.8691 -2.06055 L 15.8691 -6.13281 L 20.1074 -6.13281 C 20.6934 -6.13281 21.1133 -6.46484 21.1133 -7.02148 C 21.1133 -7.59766 20.7227 -7.93945 20.1074 -7.93945 L 15.8691 -7.93945 L 15.8691 -12.1875 C 15.8691 -12.8027 15.5176 -13.1934 14.9512 -13.1934 C 14.3848 -13.1934 14.0625 -12.7832 14.0625 -12.1875 L 14.0625 -7.93945 L 9.83398 -7.93945 C 9.21875 -7.93945 8.80859 -7.59766 8.80859 -7.02148 C 8.80859 -6.46484 9.23828 -6.13281 9.83398 -6.13281 L 14.0625 -6.13281 L 14.0625 -2.06055 C 14.0625 -1.47461 14.3848 -1.06445 14.9512 -1.06445 Z"/>
  </g>
  <text style="stroke:none;fill:black;font-family:-apple-system,&quot;SF Pro Display&quot;,&quot;SF Pro Text&quot;,Helvetica,sans-serif;font-weight:bold;" transform="matrix(1 0 0 1 263 1953)">Design Variations</text>
  <text style="stroke:none;fill:black;font-family:-apple-system,&quot;SF Pro Display&quot;,&quot;SF Pro Text&quot;,Helvetica,sans-serif;" transform="matrix(1 0 0 1 263 1971)">Symbols are supported in up to nine weights and three scales.</text>
  <text style="stroke:none;fill:black;font-family:-apple-system,&quot;SF Pro Display&quot;,&quot;SF Pro Text&quot;,Helvetica,sans-serif;" transform="matrix(1 0 0 1 263 1989)">For optimal layout with text and other symbols, vertically align</text>
  <text style="stroke:none;fill:black;font-family:-apple-system,&quot;SF Pro Display&quot;,&quot;SF Pro Text&quot;,Helvetica,sans-serif;" transform="matrix(1 0 0 1 263 2007)">symbols with the adjacent text.</text>
  <rect height="14" id="" style="fill:#00AEEF;stroke:none;opacity:0.4;" width="3" x="776" y="1919"/>
  <g id="" transform="matrix(1 0 0 1 779 1933)">
   <path d="M 10.5273 0 L 12.373 0 L 7.17773 -14.0918 L 5.43945 -14.0918 L 0.244141 0 L 2.08984 0 L 3.50586 -4.0332 L 9.11133 -4.0332 Z M 6.2793 -11.9531 L 6.33789 -11.9531 L 8.59375 -5.52734 L 4.02344 -5.52734 Z"/>
  </g>
  <rect height="14" id="" style="fill:#00AEEF;stroke:none;opacity:0.4;" width="3" x="791.617" y="1919"/>
  <text style="stroke:none;fill:black;font-family:-apple-system,&quot;SF Pro Display&quot;,&quot;SF Pro Text&quot;,Helvetica,sans-serif;font-weight:bold;" transform="matrix(1 0 0 1 776 1953)">Margins</text>
  <text style="stroke:none;fill:black;font-family:-apple-system,&quot;SF Pro Display&quot;,&quot;SF Pro Text&quot;,Helvetica,sans-serif;" transform="matrix(1 0 0 1 776 1971)">Leading and trailing margins on the left and right side of each symbol</text>
  <text style="stroke:none;fill:black;font-family:-apple-system,&quot;SF Pro Display&quot;,&quot;SF Pro Text&quot;,Helvetica,sans-serif;" transform="matrix(1 0 0 1 776 1989)">can be adjusted by modifying the width of the blue rectangles.</text>
  <text style="stroke:none;fill:black;font-family:-apple-system,&quot;SF Pro Display&quot;,&quot;SF Pro Text&quot;,Helvetica,sans-serif;" transform="matrix(1 0 0 1 776 2007)">Modifications are automatically applied proportionally to all</text>
  <text style="stroke:none;fill:black;font-family:-apple-system,&quot;SF Pro Display&quot;,&quot;SF Pro Text&quot;,Helvetica,sans-serif;" transform="matrix(1 0 0 1 776 2025)">scales and weights.</text>
  <g id="" transform="matrix(1 0 0 1 1289 1933)">
   <path d="M 2.83203 3.11523 L 4.375 4.6582 C 5.22461 5.48828 6.19141 5.41992 7.06055 4.46289 L 17.2754 -6.66016 C 17.7051 -6.36719 18.0957 -6.37695 18.5645 -6.47461 L 19.6094 -6.68945 L 20.3027 -5.99609 L 20.2539 -5.47852 C 20.1855 -4.95117 20.3516 -4.53125 20.8496 -4.0332 L 21.6602 -3.22266 C 22.168 -2.71484 22.8223 -2.68555 23.3008 -3.16406 L 26.5527 -6.41602 C 27.0312 -6.89453 27.0117 -7.54883 26.5039 -8.05664 L 25.6836 -8.87695 C 25.1855 -9.375 24.7754 -9.55078 24.2383 -9.47266 L 23.7109 -9.41406 L 23.0566 -10.0781 L 23.3398 -11.2207 C 23.4863 -11.7871 23.3398 -12.2559 22.7148 -12.8613 L 20.3027 -15.2539 C 16.7578 -18.7793 12.2266 -18.6719 9.11133 -15.5371 C 8.69141 -15.1074 8.64258 -14.5215 8.91602 -14.0918 C 9.15039 -13.7207 9.62891 -13.4961 10.2734 -13.6621 C 11.7871 -14.043 13.3008 -13.9258 14.7852 -12.9199 L 14.1602 -11.3379 C 13.9258 -10.752 13.9453 -10.2734 14.1797 -9.83398 L 3.01758 0.439453 C 2.08008 1.30859 1.97266 2.25586 2.83203 3.11523 Z M 10.6738 -15.1465 C 13.3398 -17.1387 16.6504 -16.8262 19.0527 -14.4141 L 21.6797 -11.8066 C 21.9141 -11.5723 21.9434 -11.3867 21.8848 -11.0938 L 21.5039 -9.53125 L 23.0762 -7.95898 L 24.043 -8.04688 C 24.3262 -8.07617 24.4141 -8.05664 24.6387 -7.83203 L 25.2637 -7.20703 L 22.5098 -4.46289 L 21.8848 -5.07812 C 21.6602 -5.30273 21.6406 -5.40039 21.6699 -5.68359 L 21.7578 -6.64062 L 20.1953 -8.20312 L 18.5742 -7.89062 C 18.291 -7.83203 18.1445 -7.83203 17.9102 -8.07617 L 15.7324 -10.2539 C 15.5078 -10.4883 15.4785 -10.625 15.6055 -10.9473 L 16.5527 -13.2227 C 14.9512 -14.7559 12.8418 -15.6055 10.8008 -14.9512 C 10.7129 -14.9219 10.6445 -14.9414 10.6152 -14.9805 C 10.5859 -15.0293 10.5859 -15.0781 10.6738 -15.1465 Z M 4.10156 2.41211 C 3.61328 1.91406 3.78906 1.61133 4.12109 1.30859 L 15.0781 -8.80859 L 16.3086 -7.57812 L 6.15234 3.34961 C 5.84961 3.68164 5.46875 3.7793 5.06836 3.37891 Z"/>
  </g>
  <text style="stroke:none;fill:black;font-family:-apple-system,&quot;SF Pro Display&quot;,&quot;SF Pro Text&quot;,Helvetica,sans-serif;font-weight:bold;" transform="matrix(1 0 0 1 1289 1953)">Exporting</text>
  <text style="stroke:none;fill:black;font-family:-apple-system,&quot;SF Pro Display&quot;,&quot;SF Pro Text&quot;,Helvetica,sans-serif;" transform="matrix(1 0 0 1 1289 1971)">Symbols should be outlined when exporting to ensure the</text>
  <text style="stroke:none;fill:black;font-family:-apple-system,&quot;SF Pro Display&quot;,&quot;SF Pro Text&quot;,Helvetica,sans-serif;" transform="matrix(1 0 0 1 1289 1989)">design is preserved when submitting to Xcode.</text>
  <text id="template-version" style="stroke:none;fill:black;font-family:-apple-system,&quot;SF Pro Display&quot;,&quot;SF Pro Text&quot;,Helvetica,sans-serif;text-anchor:end;" transform="matrix(1 0 0 1 3036 1933)">Template v.1.0</text>
  <text style="stroke:none;fill:black;font-family:-apple-system,&quot;SF Pro Display&quot;,&quot;SF Pro Text&quot;,Helvetica,sans-serif;text-anchor:end;" transform="matrix(1 0 0 1 3036 1951)">Generated from photo.on.rectangle</text>
  <text style="stroke:none;fill:black;font-family:-apple-system,&quot;SF Pro Display&quot;,&quot;SF Pro Text&quot;,Helvetica,sans-serif;text-anchor:end;" transform="matrix(1 0 0 1 3036 1969)">Typeset at 100 points</text>
  <text style="stroke:none;fill:black;font-family:-apple-system,&quot;SF Pro Display&quot;,&quot;SF Pro Text&quot;,Helvetica,sans-serif;" transform="matrix(1 0 0 1 263 726)">Small</text>
  <text style="stroke:none;fill:black;font-family:-apple-system,&quot;SF Pro Display&quot;,&quot;SF Pro Text&quot;,Helvetica,sans-serif;" transform="matrix(1 0 0 1 263 1156)">Medium</text>
  <text style="stroke:none;fill:black;font-family:-apple-system,&quot;SF Pro Display&quot;,&quot;SF Pro Text&quot;,Helvetica,sans-serif;" transform="matrix(1 0 0 1 263 1586)">Large</text>
 </g>
 <g id="Guides">
  <g id="H-reference" style="fill:#27AAE1;stroke:none;" transform="matrix(1 0 0 1 339 696)">
   <path d="M 54.9316 0 L 57.666 0 L 30.5664 -70.459 L 28.0762 -70.459 L 0.976562 0 L 3.66211 0 L 12.9395 -24.4629 L 45.7031 -24.4629 Z M 29.1992 -67.0898 L 29.4434 -67.0898 L 44.8242 -26.709 L 13.8184 -26.709 Z"/>
  </g>
  <line id="Baseline-S" style="fill:none;stroke:#27AAE1;opacity:1;stroke-width:0.577;" x1="263" x2="3036" y1="696" y2="696"/>
  <line id="Capline-S" style="fill:none;stroke:#27AAE1;opacity:1;stroke-width:0.577;" x1="263" x2="3036" y1="625.541" y2="625.541"/>
  <g id="H-reference" style="fill:#27AAE1;stroke:none;" transform="matrix(1 0 0 1 339 1126)">
   <path d="M 54.9316 0 L 57.666 0 L 30.5664 -70.459 L 28.0762 -70.459 L 0.976562 0 L 3.66211 0 L 12.9395 -24.4629 L 45.7031 -24.4629 Z M 29.1992 -67.0898 L 29.4434 -67.0898 L 44.8242 -26.709 L 13.8184 -26.709 Z"/>
  </g>
  <line id="Baseline-M" style="fill:none;stroke:#27AAE1;opacity:1;stroke-width:0.577;" x1="263" x2="3036" y1="1126" y2="1126"/>
  <line id="Capline-M" style="fill:none;stroke:#27AAE1;opacity:1;stroke-width:0.577;" x1="263" x2="3036" y1="1055.54" y2="1055.54"/>
  <g id="H-reference" style="fill:#27AAE1;stroke:none;" transform="matrix(1 0 0 1 339 1556)">
   <path d="M 54.9316 0 L 57.666 0 L 30.5664 -70.459 L 28.0762 -70.459 L 0.976562 0 L 3.66211 0 L 12.9395 -24.4629 L 45.7031 -24.4629 Z M 29.1992 -67.0898 L 29.4434 -67.0898 L 44.8242 -26.709 L 13.8184 -26.709 Z"/>
  </g>
  <line id="Baseline-L" style="fill:none;stroke:#27AAE1;opacity:1;stroke-width:0.577;" x1="263" x2="3036" y1="1556" y2="1556"/>
  <line id="Capline-L" style="fill:none;stroke:#27AAE1;opacity:1;stroke-width:0.577;" x1="263" x2="3036" y1="1485.54" y2="1485.54"/>
  <rect height="119.336" id="left-margin" style="fill:#00AEEF;stroke:none;opacity:0.4;" width="12.4512" x="1372.84" y="1030.79"/>
  <rect height="119.336" id="right-margin" style="fill:#00AEEF;stroke:none;opacity:0.4;" width="12.4512" x="1514.4" y="1030.79"/>
 </g>
 <g id="Symbols">
  <g id="Black-L" transform="matrix(1 0 0 1 2829.35 1556)">
   <path d="M 39.9902 5.37109 L 51.1719 5.37109 L 51.1719 15.2832 C 51.1719 30.4688 59.8145 39.1113 75.0488 39.1113 L 168.115 39.1113 C 183.35 39.1113 192.041 30.4688 192.041 15.2832 L 192.041 -52.4902 C 192.041 -67.6758 183.35 -76.3184 168.115 -76.3184 L 156.934 -76.3184 L 156.934 -85.9375 C 156.934 -101.172 148.291 -109.766 133.057 -109.766 L 39.9902 -109.766 C 24.707 -109.766 16.0645 -101.172 16.0645 -85.9375 L 16.0645 -18.4082 C 16.0645 -3.22266 24.707 5.37109 39.9902 5.37109 Z M 42.6758 -14.8438 C 38.4766 -14.8438 36.3281 -16.748 36.3281 -21.2891 L 36.3281 -83.1055 C 36.3281 -87.6465 38.4766 -89.5508 42.6758 -89.5508 L 130.322 -89.5508 C 134.57 -89.5508 136.719 -87.6465 136.719 -83.1055 L 136.719 -76.3184 L 75.0488 -76.3184 C 59.8145 -76.3184 51.1719 -67.6758 51.1719 -52.4902 L 51.1719 -14.8438 Z M 71.3867 -49.6094 C 71.3867 -54.1504 73.5352 -56.0547 77.7832 -56.0547 L 165.43 -56.0547 C 169.629 -56.0547 171.777 -54.1504 171.777 -49.6094 L 171.777 0.341797 L 149.023 -20.8496 C 146.631 -22.998 143.848 -24.0723 140.82 -24.0723 C 137.891 -24.0723 135.01 -22.998 132.52 -20.8496 L 107.227 1.61133 L 96.9727 -7.61719 C 94.7266 -9.61914 92.1387 -10.6445 89.502 -10.6445 C 86.9629 -10.6445 84.3262 -9.66797 82.1777 -7.71484 L 71.3867 2.05078 Z M 101.562 -17.7246 C 109.229 -17.7246 115.869 -24.4141 115.869 -31.9336 C 115.869 -39.6973 109.229 -46.3379 101.562 -46.3379 C 94.043 -46.3379 87.3535 -39.6973 87.3535 -31.9336 C 87.3535 -24.4141 94.043 -17.7246 101.562 -17.7246 Z"/>
  </g>
  <g id="Heavy-L" transform="matrix(1 0 0 1 2533.88 1556)">
   <path d="M 38.8184 4.54102 L 50.1465 4.54102 L 50.1465 14.5996 C 50.1465 29.1504 58.3008 37.2559 72.9004 37.2559 L 166.797 37.2559 C 181.445 37.2559 189.551 29.1504 189.551 14.5996 L 189.551 -53.0273 C 189.551 -67.5781 181.445 -75.6348 166.797 -75.6348 L 155.469 -75.6348 L 155.469 -85.4492 C 155.469 -100 147.314 -108.057 132.715 -108.057 L 38.8184 -108.057 C 24.1699 -108.057 16.0645 -100 16.0645 -85.4492 L 16.0645 -18.1152 C 16.0645 -3.56445 24.1699 4.54102 38.8184 4.54102 Z M 40.918 -12.9883 C 36.084 -12.9883 33.5938 -15.2832 33.5938 -20.4102 L 33.5938 -83.1543 C 33.5938 -88.2812 36.084 -90.5762 40.918 -90.5762 L 130.566 -90.5762 C 135.4 -90.5762 137.939 -88.2812 137.939 -83.1543 L 137.939 -75.6348 L 72.9004 -75.6348 C 58.3008 -75.6348 50.1465 -67.5781 50.1465 -53.0273 L 50.1465 -12.9883 Z M 67.6758 -50.7324 C 67.6758 -55.8594 70.2148 -58.1543 75.0488 -58.1543 L 164.697 -58.1543 C 169.482 -58.1543 172.07 -55.8594 172.07 -50.7324 L 172.07 0.292969 L 148.877 -21.2891 C 146.436 -23.5352 143.506 -24.707 140.332 -24.707 C 137.256 -24.707 134.326 -23.584 131.738 -21.3379 L 105.713 1.75781 L 95.3125 -7.71484 C 92.9688 -9.81445 90.2832 -10.8887 87.5488 -10.8887 C 84.9609 -10.8887 82.3242 -9.86328 80.0293 -7.8125 L 67.6758 3.32031 Z M 99.0234 -18.6035 C 106.836 -18.6035 113.477 -25.2441 113.477 -32.9102 C 113.477 -40.7715 106.836 -47.4609 99.0234 -47.4609 C 91.3574 -47.4609 84.668 -40.7715 84.668 -32.9102 C 84.668 -25.2441 91.3574 -18.6035 99.0234 -18.6035 Z"/>
  </g>
  <g id="Bold-L" transform="matrix(1 0 0 1 2238.54 1556)">
   <path d="M 37.5 3.56445 L 49.0723 3.56445 L 49.0723 13.8672 C 49.0723 27.6855 56.5918 35.1562 70.5078 35.1562 L 165.332 35.1562 C 179.248 35.1562 186.816 27.6855 186.816 13.8672 L 186.816 -53.6133 C 186.816 -67.4316 179.248 -74.9512 165.332 -74.9512 L 153.809 -74.9512 L 153.809 -84.8633 C 153.809 -98.6816 146.24 -106.201 132.324 -106.201 L 37.5 -106.201 C 23.584 -106.201 16.0645 -98.6816 16.0645 -84.8633 L 16.0645 -17.7246 C 16.0645 -3.90625 23.584 3.56445 37.5 3.56445 Z M 38.9648 -10.8887 C 33.4473 -10.8887 30.5176 -13.623 30.5176 -19.3848 L 30.5176 -83.2031 C 30.5176 -88.9648 33.4473 -91.748 38.9648 -91.748 L 130.908 -91.748 C 136.328 -91.748 139.355 -88.9648 139.355 -83.2031 L 139.355 -74.9512 L 70.5078 -74.9512 C 56.5918 -74.9512 49.0723 -67.4805 49.0723 -53.6133 L 49.0723 -10.8887 Z M 63.5254 -51.9531 C 63.5254 -57.7148 66.4551 -60.498 71.9727 -60.498 L 163.916 -60.498 C 169.336 -60.498 172.363 -57.7148 172.363 -51.9531 L 172.363 0.244141 L 148.779 -21.7773 C 146.143 -24.1699 143.115 -25.3906 139.844 -25.3906 C 136.572 -25.3906 133.643 -24.2188 130.908 -21.8262 L 104.102 1.85547 L 93.4082 -7.8125 C 90.918 -10.0098 88.2324 -11.1816 85.4004 -11.1816 C 82.666 -11.1816 80.0781 -10.1074 77.6855 -7.91016 L 63.5254 4.6875 Z M 96.1914 -19.5312 C 104.102 -19.5312 110.742 -26.1719 110.742 -34.0332 C 110.742 -41.9922 104.102 -48.6816 96.1914 -48.6816 C 88.3301 -48.6816 81.6406 -41.9922 81.6406 -34.0332 C 81.6406 -26.1719 88.3301 -19.5312 96.1914 -19.5312 Z"/>
  </g>
  <g id="Semibold-L" transform="matrix(1 0 0 1 1942.78 1556)">
   <path d="M 36.6211 2.92969 L 48.291 2.92969 L 48.291 13.3301 C 48.291 26.709 55.4199 33.7402 68.8965 33.7402 L 164.307 33.7402 C 177.783 33.7402 184.912 26.6602 184.912 13.3301 L 184.912 -54.0527 C 184.912 -67.334 177.783 -74.4629 164.307 -74.4629 L 152.637 -74.4629 L 152.637 -84.4727 C 152.637 -97.7539 145.508 -104.883 132.08 -104.883 L 36.6211 -104.883 C 23.1445 -104.883 16.0645 -97.8027 16.0645 -84.4727 L 16.0645 -17.4805 C 16.0645 -4.15039 23.1445 2.92969 36.6211 2.92969 Z M 37.5977 -9.42383 C 31.6406 -9.42383 28.418 -12.5 28.418 -18.7012 L 28.418 -83.252 C 28.418 -89.4531 31.6406 -92.5293 37.5977 -92.5293 L 131.104 -92.5293 C 137.012 -92.5293 140.283 -89.4531 140.283 -83.252 L 140.283 -74.4629 L 68.8965 -74.4629 C 55.4199 -74.4629 48.291 -67.3828 48.291 -54.0527 L 48.291 -9.42383 Z M 60.6445 -52.832 C 60.6445 -59.0332 63.8672 -62.1094 69.873 -62.1094 L 163.33 -62.1094 C 169.238 -62.1094 172.559 -59.0332 172.559 -52.832 L 172.559 0.195312 L 148.682 -22.1191 C 145.996 -24.6094 142.871 -25.8789 139.453 -25.8789 C 136.084 -25.8789 133.105 -24.6582 130.273 -22.168 L 102.979 1.95312 L 92.0898 -7.91016 C 89.5508 -10.1562 86.8164 -11.3281 83.8867 -11.3281 C 81.1035 -11.3281 78.5156 -10.2539 76.0254 -7.95898 L 60.6445 5.66406 Z M 94.2383 -20.166 C 102.246 -20.166 108.887 -26.8555 108.887 -34.8145 C 108.887 -42.8223 102.246 -49.5605 94.2383 -49.5605 C 86.2793 -49.5605 79.5898 -42.8223 79.5898 -34.8145 C 79.5898 -26.8555 86.2793 -20.166 94.2383 -20.166 Z"/>
  </g>
  <g id="Medium-L" transform="matrix(1 0 0 1 1646.8 1556)">
   <path d="M 35.9375 2.39258 L 47.7539 2.39258 L 47.7539 12.9395 C 47.7539 25.9277 54.541 32.666 67.627 32.666 L 163.574 32.666 C 176.611 32.666 183.447 25.8789 183.447 12.9395 L 183.447 -54.3457 C 183.447 -67.2852 176.611 -74.0723 163.574 -74.0723 L 151.758 -74.0723 L 151.758 -84.1797 C 151.758 -97.0703 144.971 -103.857 131.885 -103.857 L 35.9375 -103.857 C 22.8516 -103.857 16.0645 -97.1191 16.0645 -84.1797 L 16.0645 -17.2852 C 16.0645 -4.3457 22.8516 2.39258 35.9375 2.39258 Z M 36.5723 -8.30078 C 30.2246 -8.30078 26.8066 -11.6211 26.8066 -18.2129 L 26.8066 -83.252 C 26.8066 -89.8438 30.2246 -93.1152 36.5723 -93.1152 L 131.25 -93.1152 C 137.5 -93.1152 141.016 -89.8438 141.016 -83.252 L 141.016 -74.0723 L 67.627 -74.0723 C 54.541 -74.0723 47.7539 -67.334 47.7539 -54.3457 L 47.7539 -8.30078 Z M 58.4961 -53.4668 C 58.4961 -60.0098 61.9141 -63.3301 68.2617 -63.3301 L 162.939 -63.3301 C 169.189 -63.3301 172.705 -60.0098 172.705 -53.4668 L 172.705 0.146484 L 148.584 -22.4121 C 145.85 -24.9023 142.627 -26.2207 139.209 -26.2207 C 135.742 -26.2207 132.764 -25 129.834 -22.4609 L 102.1 2.05078 L 91.1133 -7.95898 C 88.5254 -10.2539 85.7422 -11.4746 82.7637 -11.4746 C 79.9316 -11.4746 77.3438 -10.3516 74.7559 -8.00781 L 58.4961 6.39648 Z M 92.7734 -20.6543 C 100.83 -20.6543 107.471 -27.3438 107.471 -35.4004 C 107.471 -43.457 100.83 -50.1953 92.7734 -50.1953 C 84.668 -50.1953 78.0273 -43.457 78.0273 -35.4004 C 78.0273 -27.3438 84.668 -20.6543 92.7734 -20.6543 Z"/>
  </g>
  <g id="Regular-L" transform="matrix(1 0 0 1 1351.04 1556)">
   <path d="M 35.0586 1.75781 L 46.9727 1.75781 L 46.9727 12.4512 C 46.9727 24.9512 53.3691 31.25 66.0156 31.25 L 162.549 31.25 C 175.146 31.25 181.543 24.9023 181.543 12.4512 L 181.543 -54.7363 C 181.543 -67.1875 175.146 -73.584 162.549 -73.584 L 150.635 -73.584 L 150.635 -83.7891 C 150.635 -96.1914 144.238 -102.588 131.641 -102.588 L 35.0586 -102.588 C 22.4121 -102.588 16.0645 -96.2402 16.0645 -83.7891 L 16.0645 -17.041 C 16.0645 -4.54102 22.4121 1.75781 35.0586 1.75781 Z M 35.2539 -6.88477 C 28.418 -6.88477 24.707 -10.498 24.707 -17.5293 L 24.707 -83.3008 C 24.707 -90.332 28.418 -93.9453 35.2539 -93.9453 L 131.445 -93.9453 C 138.135 -93.9453 141.992 -90.332 141.992 -83.3008 L 141.992 -73.584 L 66.0156 -73.584 C 53.3691 -73.584 46.9727 -67.2363 46.9727 -54.7363 L 46.9727 -6.88477 Z M 55.6641 -54.2969 C 55.6641 -61.3281 59.375 -64.9414 66.1621 -64.9414 L 162.402 -64.9414 C 169.092 -64.9414 172.9 -61.3281 172.9 -54.2969 L 172.9 0.146484 L 148.486 -22.7051 C 145.654 -25.3418 142.383 -26.709 138.818 -26.709 C 135.254 -26.709 132.275 -25.4395 129.248 -22.8027 L 100.977 2.09961 L 89.7949 -8.00781 C 87.1094 -10.4004 84.3262 -11.6699 81.25 -11.6699 C 78.3691 -11.6699 75.8301 -10.498 73.1445 -8.10547 L 55.6641 7.32422 Z M 90.8203 -21.2891 C 98.9746 -21.2891 105.615 -27.9785 105.615 -36.1816 C 105.615 -44.2871 98.9746 -51.0254 90.8203 -51.0254 C 82.6172 -51.0254 75.9766 -44.2871 75.9766 -36.1816 C 75.9766 -27.9785 82.6172 -21.2891 90.8203 -21.2891 Z"/>
  </g>
  <g id="Light-L" transform="matrix(1 0 0 1 1055.04 1556)">
   <path d="M 34.0332 1.70898 L 46.2402 1.70898 L 46.2402 12.207 C 46.2402 24.0234 52.3438 30.0781 64.209 30.0781 L 162.158 30.0781 C 173.975 30.0781 180.127 23.9258 180.127 12.207 L 180.127 -55.3711 C 180.127 -67.041 173.975 -73.1934 162.158 -73.1934 L 149.951 -73.1934 L 149.951 -83.4473 C 149.951 -95.1172 143.799 -101.27 131.934 -101.27 L 34.0332 -101.27 C 22.168 -101.27 16.0645 -95.2148 16.0645 -83.4473 L 16.0645 -16.1621 C 16.0645 -4.39453 22.168 1.70898 34.0332 1.70898 Z M 34.1797 -4.93164 C 26.709 -4.93164 22.7051 -8.88672 22.7051 -16.5039 L 22.7051 -83.1055 C 22.7051 -90.7227 26.709 -94.6777 34.1797 -94.6777 L 131.787 -94.6777 C 139.111 -94.6777 143.311 -90.7227 143.311 -83.1055 L 143.311 -73.1934 L 64.209 -73.1934 C 52.3438 -73.1934 46.2402 -67.1387 46.2402 -55.3711 L 46.2402 -4.93164 Z M 52.8809 -54.9805 C 52.8809 -62.6465 56.8848 -66.6016 64.4043 -66.6016 L 161.963 -66.6016 C 169.287 -66.6016 173.486 -62.6465 173.486 -54.9805 L 173.486 1.9043 L 147.314 -22.4121 C 144.336 -25.0977 141.113 -26.5625 137.354 -26.5625 C 133.691 -26.5625 130.762 -25.1465 127.637 -22.4609 L 99.3652 2.19727 L 88.4277 -7.8125 C 85.7422 -10.2539 83.0566 -11.5723 79.834 -11.5723 C 76.8066 -11.5723 74.4141 -10.3516 71.7285 -7.91016 L 52.8809 8.98438 Z M 89.4043 -21.0938 C 97.5586 -21.0938 104.199 -27.7832 104.199 -35.9863 C 104.199 -44.0918 97.5586 -50.8789 89.4043 -50.8789 C 81.2012 -50.8789 74.5605 -44.0918 74.5605 -35.9863 C 74.5605 -27.7832 81.2012 -21.0938 89.4043 -21.0938 Z"/>
  </g>
  <g id="Thin-L" transform="matrix(1 0 0 1 759.279 1556)">
   <path d="M 32.666 1.61133 L 45.2637 1.61133 L 45.2637 11.9141 C 45.2637 22.8027 51.0254 28.5156 61.8652 28.5156 L 161.621 28.5156 C 172.461 28.5156 178.223 22.6562 178.223 11.9141 L 178.223 -56.1523 C 178.223 -66.8457 172.461 -72.7051 161.621 -72.7051 L 149.023 -72.7051 L 149.023 -83.0078 C 149.023 -93.7012 143.262 -99.5605 132.373 -99.5605 L 32.666 -99.5605 C 21.7773 -99.5605 16.0645 -93.8477 16.0645 -83.0078 L 16.0645 -14.9902 C 16.0645 -4.15039 21.7773 1.61133 32.666 1.61133 Z M 32.8125 -2.34375 C 24.4141 -2.34375 19.9707 -6.73828 19.9707 -15.1855 L 19.9707 -82.8125 C 19.9707 -91.2598 24.4141 -95.6543 32.8125 -95.6543 L 132.227 -95.6543 C 140.381 -95.6543 145.068 -91.2598 145.068 -82.8125 L 145.068 -72.7051 L 61.8652 -72.7051 C 51.0254 -72.7051 45.2637 -66.9922 45.2637 -56.1523 L 45.2637 -2.34375 Z M 49.2188 -55.957 C 49.2188 -64.4043 53.6133 -68.7988 62.0605 -68.7988 L 161.426 -68.7988 C 169.58 -68.7988 174.268 -64.4043 174.268 -55.957 L 174.268 4.10156 L 145.703 -21.9727 C 142.627 -24.7559 139.453 -26.3184 135.449 -26.3184 C 131.592 -26.3184 128.76 -24.8047 125.537 -22.0215 L 97.2656 2.34375 L 86.5723 -7.56836 C 83.8867 -10.0586 81.3477 -11.4258 77.9785 -11.4258 C 74.7559 -11.4258 72.5586 -10.1562 69.8242 -7.66602 L 49.2188 11.2305 Z M 87.5488 -20.8496 C 95.7031 -20.8496 102.344 -27.5391 102.344 -35.7422 C 102.344 -43.8477 95.7031 -50.6348 87.5488 -50.6348 C 79.3457 -50.6348 72.7051 -43.8477 72.7051 -35.7422 C 72.7051 -27.5391 79.3457 -20.8496 87.5488 -20.8496 Z"/>
  </g>
  <g id="Ultralight-L" transform="matrix(1 0 0 1 463.056 1556)">
   <path d="M 31.9824 1.5625 L 44.7754 1.5625 L 44.7754 11.7676 C 44.7754 22.168 50.293 27.7344 60.6934 27.7344 L 161.328 27.7344 C 171.729 27.7344 177.246 21.9727 177.246 11.7676 L 177.246 -56.543 C 177.246 -66.748 171.729 -72.4609 161.328 -72.4609 L 148.535 -72.4609 L 148.535 -82.7637 C 148.535 -92.9688 143.018 -98.6816 132.617 -98.6816 L 31.9824 -98.6816 C 21.582 -98.6816 16.0645 -93.1641 16.0645 -82.7637 L 16.0645 -14.4043 C 16.0645 -4.00391 21.582 1.5625 31.9824 1.5625 Z M 32.1289 -1.02539 C 23.1934 -1.02539 18.6035 -5.61523 18.6035 -14.502 L 18.6035 -82.666 C 18.6035 -91.5527 23.1934 -96.1426 32.1289 -96.1426 L 132.471 -96.1426 C 141.016 -96.1426 145.996 -91.5527 145.996 -82.666 L 145.996 -72.4609 L 60.6934 -72.4609 C 50.293 -72.4609 44.7754 -66.8945 44.7754 -56.543 L 44.7754 -1.02539 Z M 47.3145 11.6699 L 47.3145 -56.3965 C 47.3145 -65.2832 51.9043 -69.9219 60.8398 -69.9219 L 161.182 -69.9219 C 169.727 -69.9219 174.707 -65.2832 174.707 -56.3965 L 174.707 5.22461 L 144.922 -21.7285 C 141.748 -24.5605 138.623 -26.2207 134.424 -26.2207 C 130.566 -26.2207 127.783 -24.6582 124.414 -21.8262 L 96.1914 2.39258 L 85.6445 -7.4707 C 82.9102 -9.96094 80.4688 -11.3281 77.0508 -11.3281 C 73.6816 -11.3281 71.582 -10.0586 68.8477 -7.56836 L 47.3145 12.4023 C 47.3145 12.1582 47.3145 11.9141 47.3145 11.6699 Z M 86.6211 -20.752 C 94.7266 -20.752 101.416 -27.3926 101.416 -35.5957 C 101.416 -43.75 94.7266 -50.4883 86.6211 -50.4883 C 78.418 -50.4883 71.7285 -43.75 71.7285 -35.5957 C 71.7285 -27.3926 78.418 -20.752 86.6211 -20.752 Z"/>
  </g>
  <g id="Black-M" transform="matrix(1 0 0 1 2851.47 1126)">
   <path d="M 31.9824 -2.63672 L 40.5762 -2.63672 L 40.5762 4.6875 C 40.5762 16.9434 47.8516 24.2188 60.1074 24.2188 L 131.885 24.2188 C 144.141 24.2188 151.416 16.9434 151.416 4.6875 L 151.416 -48.1934 C 151.416 -60.4492 144.141 -67.7246 131.885 -67.7246 L 123.291 -67.7246 L 123.291 -75.0488 C 123.291 -87.3047 116.016 -94.5801 103.76 -94.5801 L 31.9824 -94.5801 C 19.7266 -94.5801 12.4512 -87.3047 12.4512 -75.0488 L 12.4512 -22.168 C 12.4512 -9.91211 19.7266 -2.63672 31.9824 -2.63672 Z M 34.9121 -20.9473 C 32.0801 -20.9473 30.7617 -22.0215 30.7617 -25.0977 L 30.7617 -72.1191 C 30.7617 -75.2441 32.0801 -76.3184 34.9121 -76.3184 L 100.83 -76.3184 C 103.662 -76.3184 104.98 -75.2441 104.98 -72.1191 L 104.98 -67.7246 L 60.1074 -67.7246 C 47.8516 -67.7246 40.5762 -60.4492 40.5762 -48.1934 L 40.5762 -20.9473 Z M 114.99 -23.291 C 113.281 -24.8535 111.279 -25.6348 108.984 -25.6348 C 106.885 -25.6348 104.688 -24.8535 102.881 -23.291 L 84.2285 -6.78711 L 76.709 -13.623 C 75.0977 -15.0391 73.1934 -15.7715 71.2402 -15.7715 C 69.3359 -15.7715 67.2852 -15.0879 65.7715 -13.6719 L 58.8379 -7.22656 L 58.8379 -45.2637 C 58.8379 -48.3398 60.2051 -49.4141 63.0371 -49.4141 L 128.955 -49.4141 C 131.787 -49.4141 133.105 -48.3398 133.105 -45.2637 L 133.105 -6.64062 Z M 81.3477 -20.459 C 87.207 -20.459 92.2852 -25.6348 92.2852 -31.2012 C 92.2852 -37.1094 87.207 -42.2363 81.3477 -42.2363 C 75.7812 -42.2363 70.6055 -37.1094 70.6055 -31.2012 C 70.6055 -25.6348 75.7812 -20.459 81.3477 -20.459 Z"/>
  </g>
  <g id="Heavy-M" transform="matrix(1 0 0 1 2555.93 1126)">
   <path d="M 31.0059 -3.56445 L 39.6973 -3.56445 L 39.6973 4.00391 C 39.6973 15.7715 46.4355 22.5098 58.2031 22.5098 L 130.518 22.5098 C 142.285 22.5098 149.072 15.7715 149.072 4.00391 L 149.072 -48.6328 C 149.072 -60.3516 142.285 -67.1387 130.518 -67.1387 L 121.826 -67.1387 L 121.826 -74.6094 C 121.826 -86.3281 115.039 -93.0664 103.271 -93.0664 L 31.0059 -93.0664 C 19.1895 -93.0664 12.4512 -86.3281 12.4512 -74.6094 L 12.4512 -22.0703 C 12.4512 -10.3027 19.1895 -3.56445 31.0059 -3.56445 Z M 33.252 -19.3848 C 29.9316 -19.3848 28.2715 -20.8496 28.2715 -24.3652 L 28.2715 -72.2656 C 28.2715 -75.7812 29.9316 -77.2461 33.252 -77.2461 L 101.025 -77.2461 C 104.297 -77.2461 106.006 -75.7812 106.006 -72.2656 L 106.006 -67.1387 L 58.2031 -67.1387 C 46.4355 -67.1387 39.6973 -60.3516 39.6973 -48.6328 L 39.6973 -19.3848 Z M 55.5176 -46.2891 C 55.5176 -49.8535 57.1777 -51.2695 60.498 -51.2695 L 128.271 -51.2695 C 131.543 -51.2695 133.252 -49.8535 133.252 -46.2891 L 133.252 -7.17773 L 115.186 -23.877 C 113.33 -25.5371 111.23 -26.3672 108.838 -26.3672 C 106.592 -26.3672 104.395 -25.5371 102.49 -23.877 L 83.0078 -6.68945 L 75.1953 -13.7695 C 73.4863 -15.2832 71.4844 -16.0645 69.4824 -16.0645 C 67.4805 -16.0645 65.4785 -15.332 63.8184 -13.8184 L 55.5176 -6.25 Z M 78.9551 -21.4355 C 84.9121 -21.4355 90.0391 -26.6113 90.0391 -32.373 C 90.0391 -38.3789 84.9121 -43.5059 78.9551 -43.5059 C 73.1934 -43.5059 68.0176 -38.3789 68.0176 -32.373 C 68.0176 -26.6113 73.1934 -21.4355 78.9551 -21.4355 Z"/>
  </g>
  <g id="Bold-M" transform="matrix(1 0 0 1 2260.51 1126)">
   <path d="M 29.8828 -4.58984 L 38.7207 -4.58984 L 38.7207 3.27148 C 38.7207 14.4531 44.873 20.6055 56.1523 20.6055 L 129.053 20.6055 C 140.234 20.6055 146.484 14.4043 146.484 3.27148 L 146.484 -49.1211 C 146.484 -60.2539 140.234 -66.4551 129.053 -66.4551 L 120.215 -66.4551 L 120.215 -74.0723 C 120.215 -85.2051 114.014 -91.3574 102.783 -91.3574 L 29.8828 -91.3574 C 18.6523 -91.3574 12.4512 -85.2051 12.4512 -74.0723 L 12.4512 -21.9238 C 12.4512 -10.7422 18.6523 -4.58984 29.8828 -4.58984 Z M 31.3965 -17.6758 C 27.5391 -17.6758 25.5371 -19.4824 25.5371 -23.584 L 25.5371 -72.3633 C 25.5371 -76.4648 27.5391 -78.3203 31.3965 -78.3203 L 101.27 -78.3203 C 105.078 -78.3203 107.129 -76.4648 107.129 -72.3633 L 107.129 -66.4551 L 56.1523 -66.4551 C 44.873 -66.4551 38.7207 -60.2539 38.7207 -49.1211 L 38.7207 -17.6758 Z M 51.7578 -47.4609 C 51.7578 -51.5137 53.8086 -53.3691 57.666 -53.3691 L 127.49 -53.3691 C 131.348 -53.3691 133.398 -51.5137 133.398 -47.4609 L 133.398 -7.76367 L 115.381 -24.5117 C 113.428 -26.2695 111.182 -27.1973 108.691 -27.1973 C 106.299 -27.1973 104.004 -26.3184 102.002 -24.5605 L 81.6895 -6.54297 L 73.5352 -13.916 C 71.7285 -15.5762 69.6289 -16.4062 67.5293 -16.4062 C 65.4785 -16.4062 63.4277 -15.625 61.6699 -14.0137 L 51.7578 -5.12695 Z M 76.2695 -22.5098 C 82.3242 -22.5098 87.5 -27.6855 87.5 -33.6426 C 87.5 -39.7461 82.3242 -44.9219 76.2695 -44.9219 C 70.3125 -44.9219 65.1367 -39.7461 65.1367 -33.6426 C 65.1367 -27.6855 70.3125 -22.5098 76.2695 -22.5098 Z"/>
  </g>
  <g id="Semibold-M" transform="matrix(1 0 0 1 1964.7 1126)">
   <path d="M 29.1016 -5.27344 L 38.0371 -5.27344 L 38.0371 2.73438 C 38.0371 13.5254 43.7988 19.2871 54.6875 19.2871 L 128.027 19.2871 C 138.867 19.2871 144.678 13.5254 144.678 2.73438 L 144.678 -49.4629 C 144.678 -60.2051 138.867 -65.9668 128.027 -65.9668 L 119.092 -65.9668 L 119.092 -73.6816 C 119.092 -84.4238 113.281 -90.1855 102.441 -90.1855 L 29.1016 -90.1855 C 18.2617 -90.1855 12.4512 -84.4727 12.4512 -73.6816 L 12.4512 -21.8262 C 12.4512 -11.0352 18.2617 -5.27344 29.1016 -5.27344 Z M 30.127 -16.4551 C 25.8789 -16.4551 23.6328 -18.6035 23.6328 -23.0469 L 23.6328 -72.4609 C 23.6328 -76.9043 25.8789 -79.0527 30.127 -79.0527 L 101.416 -79.0527 C 105.615 -79.0527 107.91 -76.9043 107.91 -72.4609 L 107.91 -65.9668 L 54.6875 -65.9668 C 43.7988 -65.9668 38.0371 -60.2051 38.0371 -49.4629 L 38.0371 -16.4551 Z M 49.2188 -48.2422 C 49.2188 -52.6855 51.4648 -54.7852 55.7129 -54.7852 L 127.002 -54.7852 C 131.201 -54.7852 133.496 -52.6855 133.496 -48.2422 L 133.496 -8.1543 L 115.527 -24.9512 C 113.525 -26.8066 111.133 -27.7344 108.594 -27.7344 C 106.104 -27.7344 103.76 -26.8555 101.66 -25 L 80.7617 -6.49414 L 72.4121 -14.0625 C 70.459 -15.7715 68.3594 -16.6504 66.1621 -16.6504 C 64.0625 -16.6504 62.0117 -15.8203 60.1562 -14.1113 L 49.2188 -4.39453 Z M 74.4141 -23.2422 C 80.5664 -23.2422 85.7422 -28.418 85.7422 -34.5215 C 85.7422 -40.6738 80.5664 -45.8984 74.4141 -45.8984 C 68.3105 -45.8984 63.1348 -40.6738 63.1348 -34.5215 C 63.1348 -28.418 68.3105 -23.2422 74.4141 -23.2422 Z"/>
  </g>
  <g id="Medium-M" transform="matrix(1 0 0 1 1668.67 1126)">
   <path d="M 28.5156 -5.81055 L 37.5 -5.81055 L 37.5 2.34375 C 37.5 12.8418 43.0176 18.2617 53.6133 18.2617 L 127.246 18.2617 C 137.793 18.2617 143.311 12.793 143.311 2.34375 L 143.311 -49.707 C 143.311 -60.1562 137.793 -65.625 127.246 -65.625 L 118.262 -65.625 L 118.262 -73.3887 C 118.262 -83.8379 112.695 -89.3066 102.148 -89.3066 L 28.5156 -89.3066 C 17.9199 -89.3066 12.4512 -83.8867 12.4512 -73.3887 L 12.4512 -21.7285 C 12.4512 -11.2793 17.9199 -5.81055 28.5156 -5.81055 Z M 29.1504 -15.5762 C 24.6582 -15.5762 22.168 -17.9199 22.168 -22.6074 L 22.168 -72.5098 C 22.168 -77.2461 24.6582 -79.5898 29.1504 -79.5898 L 101.514 -79.5898 C 106.006 -79.5898 108.496 -77.2461 108.496 -72.5098 L 108.496 -65.625 L 53.6133 -65.625 C 43.0176 -65.625 37.5 -60.1562 37.5 -49.707 L 37.5 -15.5762 Z M 47.2656 -48.8281 C 47.2656 -53.5645 49.707 -55.8594 54.1992 -55.8594 L 126.611 -55.8594 C 131.055 -55.8594 133.545 -53.5645 133.545 -48.8281 L 133.545 -8.44727 L 115.625 -25.293 C 113.574 -27.1973 111.084 -28.1738 108.545 -28.1738 C 105.908 -28.1738 103.613 -27.2461 101.416 -25.3418 L 80.0781 -6.39648 L 71.5332 -14.1113 C 69.5312 -15.918 67.3828 -16.7969 65.1367 -16.7969 C 62.9883 -16.7969 60.9863 -15.9668 58.9844 -14.209 L 47.2656 -3.85742 Z M 72.998 -23.7793 C 79.248 -23.7793 84.375 -28.9551 84.375 -35.2051 C 84.375 -41.4062 79.248 -46.6309 72.998 -46.6309 C 66.7969 -46.6309 61.6211 -41.4062 61.6211 -35.2051 C 61.6211 -28.9551 66.7969 -23.7793 72.998 -23.7793 Z"/>
  </g>
  <g id="Regular-M" transform="matrix(1 0 0 1 1372.84 1126)">
   <path d="M 27.7832 -6.54297 L 36.8164 -6.54297 L 36.8164 1.85547 C 36.8164 11.9141 41.9434 16.9922 52.1484 16.9922 L 126.221 16.9922 C 136.377 16.9922 141.553 11.9141 141.553 1.85547 L 141.553 -50.0488 C 141.553 -60.0586 136.377 -65.1367 126.221 -65.1367 L 117.139 -65.1367 L 117.139 -73.0469 C 117.139 -83.1055 112.012 -88.1836 101.807 -88.1836 L 27.7832 -88.1836 C 17.5293 -88.1836 12.4512 -83.1055 12.4512 -73.0469 L 12.4512 -21.6309 C 12.4512 -11.5723 17.5293 -6.54297 27.7832 -6.54297 Z M 27.8809 -14.4043 C 22.998 -14.4043 20.3125 -16.9922 20.3125 -22.0703 L 20.3125 -72.6074 C 20.3125 -77.6855 22.998 -80.3223 27.8809 -80.3223 L 101.709 -80.3223 C 106.494 -80.3223 109.277 -77.6855 109.277 -72.6074 L 109.277 -65.1367 L 52.1484 -65.1367 C 41.9434 -65.1367 36.8164 -60.1074 36.8164 -50.0488 L 36.8164 -14.4043 Z M 44.6777 -49.6094 C 44.6777 -54.6875 47.4121 -57.2754 52.2949 -57.2754 L 126.074 -57.2754 C 130.908 -57.2754 133.691 -54.6875 133.691 -49.6094 L 133.691 -8.83789 L 115.771 -25.7324 C 113.623 -27.7344 111.084 -28.7109 108.398 -28.7109 C 105.713 -28.7109 103.369 -27.7832 101.074 -25.7812 L 79.1504 -6.34766 L 70.4102 -14.2578 C 68.3105 -16.0645 66.1133 -17.041 63.7695 -17.041 C 61.6211 -17.041 59.5703 -16.1621 57.5195 -14.3066 L 44.6777 -3.17383 Z M 71.1914 -24.5117 C 77.4902 -24.5117 82.666 -29.6875 82.666 -36.084 C 82.666 -42.334 77.4902 -47.6074 71.1914 -47.6074 C 64.8438 -47.6074 59.668 -42.334 59.668 -36.084 C 59.668 -29.6875 64.8438 -24.5117 71.1914 -24.5117 Z"/>
  </g>
  <g id="Light-M" transform="matrix(1 0 0 1 1076.79 1126)">
   <path d="M 26.8555 -6.5918 L 36.1816 -6.5918 L 36.1816 1.66016 C 36.1816 11.084 41.0156 15.918 50.5859 15.918 L 125.83 15.918 C 135.352 15.918 140.234 11.0352 140.234 1.66016 L 140.234 -50.5371 C 140.234 -59.9609 135.352 -64.8438 125.83 -64.8438 L 116.504 -64.8438 L 116.504 -72.7539 C 116.504 -82.1289 111.621 -87.0117 102.1 -87.0117 L 26.8555 -87.0117 C 17.2852 -87.0117 12.4512 -82.1777 12.4512 -72.7539 L 12.4512 -20.8496 C 12.4512 -11.377 17.2852 -6.5918 26.8555 -6.5918 Z M 26.9531 -12.6465 C 21.4844 -12.6465 18.5059 -15.5273 18.5059 -21.1914 L 18.5059 -72.4121 C 18.5059 -78.0762 21.4844 -80.957 26.9531 -80.957 L 102.002 -80.957 C 107.373 -80.957 110.449 -78.0762 110.449 -72.4121 L 110.449 -64.8438 L 50.5859 -64.8438 C 41.0156 -64.8438 36.1816 -60.0098 36.1816 -50.5371 L 36.1816 -12.6465 Z M 42.2363 -50.2441 C 42.2363 -55.8594 45.166 -58.7891 50.6836 -58.7891 L 125.732 -58.7891 C 131.104 -58.7891 134.18 -55.8594 134.18 -50.2441 L 134.18 -7.22656 L 114.697 -25.4395 C 112.451 -27.4902 109.912 -28.5645 107.129 -28.5645 C 104.297 -28.5645 102.002 -27.5391 99.6582 -25.4883 L 77.7344 -6.25 L 69.1406 -14.0625 C 67.0898 -15.9668 64.9414 -16.9434 62.5 -16.9434 C 60.2051 -16.9434 58.3008 -16.0156 56.2012 -14.1602 L 42.2363 -1.70898 Z M 69.9219 -24.3652 C 76.2207 -24.3652 81.3965 -29.541 81.3965 -35.8887 C 81.3965 -42.1875 76.2207 -47.4121 69.9219 -47.4121 C 63.5742 -47.4121 58.3984 -42.1875 58.3984 -35.8887 C 58.3984 -29.541 63.5742 -24.3652 69.9219 -24.3652 Z"/>
  </g>
  <g id="Thin-M" transform="matrix(1 0 0 1 780.934 1126)">
   <path d="M 25.6348 -6.68945 L 35.3027 -6.68945 L 35.3027 1.36719 C 35.3027 10.0098 39.7949 14.502 48.4863 14.502 L 125.342 14.502 C 133.984 14.502 138.525 9.91211 138.525 1.36719 L 138.525 -51.2695 C 138.525 -59.7656 133.984 -64.4043 125.342 -64.4043 L 115.674 -64.4043 L 115.674 -72.3633 C 115.674 -80.8594 111.133 -85.4492 102.49 -85.4492 L 25.6348 -85.4492 C 16.9922 -85.4492 12.4512 -80.957 12.4512 -72.3633 L 12.4512 -19.8242 C 12.4512 -11.1816 16.9922 -6.68945 25.6348 -6.68945 Z M 25.7324 -10.3027 C 19.3848 -10.3027 16.0645 -13.623 16.0645 -19.9707 L 16.0645 -72.168 C 16.0645 -78.5156 19.3848 -81.8359 25.7324 -81.8359 L 102.393 -81.8359 C 108.496 -81.8359 112.061 -78.5156 112.061 -72.168 L 112.061 -64.4043 L 48.4863 -64.4043 C 39.7949 -64.4043 35.3027 -59.8633 35.3027 -51.2695 L 35.3027 -10.3027 Z M 38.916 -51.0742 C 38.916 -57.4707 42.2363 -60.7422 48.584 -60.7422 L 125.244 -60.7422 C 131.348 -60.7422 134.912 -57.4707 134.912 -51.0742 L 134.912 -5.22461 L 113.281 -25.0488 C 110.889 -27.1973 108.447 -28.3691 105.371 -28.3691 C 102.441 -28.3691 100.244 -27.2461 97.7539 -25.0977 L 75.8301 -6.15234 L 67.5293 -13.8672 C 65.3809 -15.7715 63.4277 -16.7969 60.8398 -16.7969 C 58.3984 -16.7969 56.6406 -15.8203 54.4922 -13.916 L 38.916 0.292969 Z M 68.2617 -24.1211 C 74.5605 -24.1211 79.7363 -29.2969 79.7363 -35.6934 C 79.7363 -41.9922 74.5605 -47.2168 68.2617 -47.2168 C 61.9141 -47.2168 56.7383 -41.9922 56.7383 -35.6934 C 56.7383 -29.2969 61.9141 -24.1211 68.2617 -24.1211 Z"/>
  </g>
  <g id="Ultralight-M" transform="matrix(1 0 0 1 484.662 1126)">
   <path d="M 25 -6.73828 L 34.8633 -6.73828 L 34.8633 1.26953 C 34.8633 9.42383 39.209 13.7695 47.4121 13.7695 L 125.098 13.7695 C 133.301 13.7695 137.646 9.32617 137.646 1.26953 L 137.646 -51.6113 C 137.646 -59.668 133.301 -64.1602 125.098 -64.1602 L 115.234 -64.1602 L 115.234 -72.1191 C 115.234 -80.2246 110.889 -84.668 102.734 -84.668 L 25 -84.668 C 16.7969 -84.668 12.4512 -80.3223 12.4512 -72.1191 L 12.4512 -19.2383 C 12.4512 -11.084 16.7969 -6.73828 25 -6.73828 Z M 25.0977 -9.13086 C 18.3594 -9.13086 14.8438 -12.5977 14.8438 -19.3848 L 14.8438 -72.0215 C 14.8438 -78.7598 18.3594 -82.2754 25.0977 -82.2754 L 102.588 -82.2754 C 109.082 -82.2754 112.842 -78.7598 112.842 -72.0215 L 112.842 -64.1602 L 47.4121 -64.1602 C 39.209 -64.1602 34.8633 -59.8145 34.8633 -51.6113 L 34.8633 -9.13086 Z M 37.2559 1.12305 L 37.2559 -51.5137 C 37.2559 -58.252 40.7715 -61.7676 47.5098 -61.7676 L 125 -61.7676 C 131.494 -61.7676 135.254 -58.252 135.254 -51.5137 L 135.254 -4.19922 L 112.549 -24.8535 C 110.107 -27.002 107.666 -28.2715 104.492 -28.2715 C 101.514 -28.2715 99.3164 -27.0996 96.7773 -24.9023 L 74.9023 -6.10352 L 66.6504 -13.7695 C 64.5508 -15.6738 62.5977 -16.748 60.0098 -16.748 C 57.4219 -16.748 55.7617 -15.7227 53.6621 -13.8184 L 37.2559 1.31836 C 37.2559 1.12305 37.2559 1.12305 37.2559 1.12305 Z M 67.4316 -24.0234 C 73.7305 -24.0234 78.8574 -29.1992 78.8574 -35.5469 C 78.8574 -41.8457 73.7305 -47.0703 67.4316 -47.0703 C 61.0352 -47.0703 55.9082 -41.8457 55.9082 -35.5469 C 55.9082 -29.1992 61.0352 -24.0234 67.4316 -24.0234 Z"/>
  </g>
  <g id="Black-S" transform="matrix(1 0 0 1 2869.29 696)">
   <path d="M 25 -9.76562 L 31.7383 -9.76562 L 31.7383 -4.00391 C 31.7383 5.56641 37.4023 11.2305 46.9727 11.2305 L 103.223 11.2305 C 112.793 11.2305 118.457 5.56641 118.457 -4.00391 L 118.457 -45.4102 C 118.457 -54.9805 112.793 -60.6445 103.223 -60.6445 L 96.4844 -60.6445 L 96.4844 -66.4062 C 96.4844 -75.9766 90.8203 -81.6406 81.25 -81.6406 L 25 -81.6406 C 15.4297 -81.6406 9.76562 -75.9766 9.76562 -66.4062 L 9.76562 -25 C 9.76562 -15.4297 15.4297 -9.76562 25 -9.76562 Z M 27.2461 -23.9258 C 25 -23.9258 23.9258 -24.8047 23.9258 -27.2461 L 23.9258 -64.1602 C 23.9258 -66.6016 25 -67.4805 27.2461 -67.4805 L 79.0039 -67.4805 C 81.25 -67.4805 82.3242 -66.6016 82.3242 -64.1602 L 82.3242 -60.6445 L 46.9727 -60.6445 C 37.4023 -60.6445 31.7383 -54.9805 31.7383 -45.4102 L 31.7383 -23.9258 Z M 90.1367 -25.9277 C 88.7695 -27.1484 87.207 -27.7832 85.4004 -27.7832 C 83.7402 -27.7832 82.0312 -27.1484 80.6152 -25.9277 L 65.918 -12.9395 L 60.0098 -18.3105 C 58.7402 -19.4336 57.2266 -20.0195 55.7129 -20.0195 C 54.1992 -20.0195 52.5879 -19.4824 51.416 -18.3594 L 45.8984 -13.2324 L 45.8984 -43.1641 C 45.8984 -45.6055 46.9727 -46.4844 49.2188 -46.4844 L 100.977 -46.4844 C 103.223 -46.4844 104.297 -45.6055 104.297 -43.1641 L 104.297 -12.8906 Z M 63.5742 -23.7305 C 68.1641 -23.7305 72.168 -27.7832 72.168 -32.1777 C 72.168 -36.8164 68.1641 -40.8203 63.5742 -40.8203 C 59.1797 -40.8203 55.127 -36.8164 55.127 -32.1777 C 55.127 -27.7832 59.1797 -23.7305 63.5742 -23.7305 Z"/>
  </g>
  <g id="Heavy-S" transform="matrix(1 0 0 1 2573.41 696)">
   <path d="M 24.3652 -10.4492 L 31.1523 -10.4492 L 31.1523 -4.49219 C 31.1523 4.73633 36.4258 10.0586 45.7031 10.0586 L 102.246 10.0586 C 111.523 10.0586 116.797 4.73633 116.797 -4.49219 L 116.797 -45.7031 C 116.797 -54.9316 111.523 -60.2051 102.246 -60.2051 L 95.459 -60.2051 L 95.459 -66.0645 C 95.459 -75.3418 90.1367 -80.6152 80.8594 -80.6152 L 24.3652 -80.6152 C 15.0391 -80.6152 9.76562 -75.3418 9.76562 -66.0645 L 9.76562 -25 C 9.76562 -15.7227 15.0391 -10.4492 24.3652 -10.4492 Z M 26.0742 -22.9492 C 23.5352 -22.9492 22.2656 -24.0723 22.2656 -26.8066 L 22.2656 -64.2578 C 22.2656 -66.9922 23.5352 -68.1152 26.0742 -68.1152 L 79.1504 -68.1152 C 81.6895 -68.1152 82.959 -66.9922 82.959 -64.2578 L 82.959 -60.2051 L 45.7031 -60.2051 C 36.4258 -60.2051 31.1523 -54.9316 31.1523 -45.7031 L 31.1523 -22.9492 Z M 43.6035 -43.8965 C 43.6035 -46.6309 44.9219 -47.7539 47.4609 -47.7539 L 100.488 -47.7539 C 103.027 -47.7539 104.346 -46.6309 104.346 -43.8965 L 104.346 -13.4766 L 90.3809 -26.416 C 88.9648 -27.6855 87.3047 -28.3691 85.4492 -28.3691 C 83.6914 -28.3691 81.9336 -27.6855 80.4688 -26.416 L 65.1855 -12.8906 L 58.9844 -18.457 C 57.666 -19.6289 56.0547 -20.2637 54.4922 -20.2637 C 52.9785 -20.2637 51.3184 -19.6777 50.0488 -18.5059 L 43.6035 -12.6465 Z M 61.8652 -24.4629 C 66.5527 -24.4629 70.5566 -28.5156 70.5566 -33.0566 C 70.5566 -37.793 66.5527 -41.7969 61.8652 -41.7969 C 57.3242 -41.7969 53.2715 -37.793 53.2715 -33.0566 C 53.2715 -28.5156 57.3242 -24.4629 61.8652 -24.4629 Z"/>
  </g>
  <g id="Bold-S" transform="matrix(1 0 0 1 2277.6 696)">
   <path d="M 23.6328 -11.2305 L 30.4688 -11.2305 L 30.4688 -5.0293 C 30.4688 3.85742 35.3516 8.69141 44.2871 8.69141 L 101.123 8.69141 C 110.059 8.69141 114.99 3.85742 114.99 -5.0293 L 114.99 -45.9961 C 114.99 -54.8828 110.059 -59.7168 101.123 -59.7168 L 94.2871 -59.7168 L 94.2871 -65.7227 C 94.2871 -74.5605 89.3555 -79.4434 80.4199 -79.4434 L 23.6328 -79.4434 C 14.6484 -79.4434 9.76562 -74.6094 9.76562 -65.7227 L 9.76562 -25 C 9.76562 -16.1133 14.6484 -11.2305 23.6328 -11.2305 Z M 24.8047 -21.8262 C 21.9238 -21.8262 20.3613 -23.2422 20.3613 -26.3184 L 20.3613 -64.4043 C 20.3613 -67.4805 21.9238 -68.8477 24.8047 -68.8477 L 79.248 -68.8477 C 82.1289 -68.8477 83.6914 -67.4805 83.6914 -64.4043 L 83.6914 -59.7168 L 44.2871 -59.7168 C 35.3516 -59.7168 30.4688 -54.8828 30.4688 -45.9961 L 30.4688 -21.8262 Z M 41.0645 -44.6777 C 41.0645 -47.7539 42.5781 -49.1211 45.459 -49.1211 L 99.9512 -49.1211 C 102.832 -49.1211 104.395 -47.7539 104.395 -44.6777 L 104.395 -14.1113 L 90.6738 -26.9531 C 89.209 -28.3203 87.4023 -29.0039 85.498 -29.0039 C 83.6426 -29.0039 81.8359 -28.3203 80.2734 -26.9531 L 64.3066 -12.793 L 57.9102 -18.6035 C 56.4453 -19.873 54.7852 -20.5078 53.1738 -20.5078 C 51.5625 -20.5078 49.9512 -19.9219 48.5352 -18.6523 L 41.0645 -11.9629 Z M 60.0098 -25.3418 C 64.7461 -25.3418 68.7988 -29.3945 68.7988 -34.082 C 68.7988 -38.8672 64.7461 -42.9199 60.0098 -42.9199 C 55.3223 -42.9199 51.2695 -38.8672 51.2695 -34.082 C 51.2695 -29.3945 55.3223 -25.3418 60.0098 -25.3418 Z"/>
  </g>
  <g id="Semibold-S" transform="matrix(1 0 0 1 1981.52 696)">
   <path d="M 23.0957 -11.7676 L 29.9805 -11.7676 L 29.9805 -5.41992 C 29.9805 3.22266 34.6191 7.8125 43.3594 7.8125 L 100.391 7.8125 C 109.082 7.8125 113.721 3.22266 113.721 -5.41992 L 113.721 -46.1914 C 113.721 -54.834 109.082 -59.4238 100.391 -59.4238 L 93.5059 -59.4238 L 93.5059 -65.4297 C 93.5059 -74.0723 88.8672 -78.6621 80.127 -78.6621 L 23.0957 -78.6621 C 14.3555 -78.6621 9.76562 -74.0723 9.76562 -65.4297 L 9.76562 -25 C 9.76562 -16.3574 14.3555 -11.7676 23.0957 -11.7676 Z M 23.877 -21.0938 C 20.752 -21.0938 19.0918 -22.6562 19.0918 -25.9766 L 19.0918 -64.4531 C 19.0918 -67.7734 20.752 -69.3359 23.877 -69.3359 L 79.3457 -69.3359 C 82.4707 -69.3359 84.1797 -67.7734 84.1797 -64.4531 L 84.1797 -59.4238 L 43.3594 -59.4238 C 34.6191 -59.4238 29.9805 -54.834 29.9805 -46.1914 L 29.9805 -21.0938 Z M 39.3066 -45.2148 C 39.3066 -48.5352 41.0156 -50.0977 44.1406 -50.0977 L 99.6094 -50.0977 C 102.734 -50.0977 104.443 -48.5352 104.443 -45.2148 L 104.443 -14.5508 L 90.8691 -27.2949 C 89.3555 -28.7109 87.4512 -29.4434 85.5469 -29.4434 C 83.5938 -29.4434 81.7383 -28.7598 80.127 -27.3438 L 63.7207 -12.7441 L 57.1289 -18.7012 C 55.6152 -20.0195 53.9062 -20.7031 52.1973 -20.7031 C 50.6348 -20.7031 48.9746 -20.0684 47.5098 -18.75 L 39.3066 -11.5234 Z M 58.6914 -25.9277 C 63.5254 -25.9277 67.5293 -29.9805 67.5293 -34.7656 C 67.5293 -39.5996 63.5254 -43.6523 58.6914 -43.6523 C 53.9062 -43.6523 49.8535 -39.5996 49.8535 -34.7656 C 49.8535 -29.9805 53.9062 -25.9277 58.6914 -25.9277 Z"/>
  </g>
  <g id="Medium-S" transform="matrix(1 0 0 1 1685.3 696)">
   <path d="M 22.7051 -12.1582 L 29.6387 -12.1582 L 29.6387 -5.71289 C 29.6387 2.73438 34.0332 7.08008 42.627 7.08008 L 99.8047 7.08008 C 108.35 7.08008 112.744 2.73438 112.744 -5.71289 L 112.744 -46.3379 C 112.744 -54.7852 108.35 -59.1797 99.8047 -59.1797 L 92.8711 -59.1797 L 92.8711 -65.2344 C 92.8711 -73.6816 88.4277 -78.0273 79.9316 -78.0273 L 22.7051 -78.0273 C 14.1602 -78.0273 9.76562 -73.6816 9.76562 -65.2344 L 9.76562 -25 C 9.76562 -16.5527 14.1602 -12.1582 22.7051 -12.1582 Z M 23.1934 -20.5078 C 19.9219 -20.5078 18.0664 -22.2168 18.0664 -25.6836 L 18.0664 -64.5508 C 18.0664 -68.0176 19.9219 -69.7266 23.1934 -69.7266 L 79.4434 -69.7266 C 82.7148 -69.7266 84.5703 -68.0176 84.5703 -64.5508 L 84.5703 -59.1797 L 42.627 -59.1797 C 34.0332 -59.1797 29.6387 -54.7852 29.6387 -46.3379 L 29.6387 -20.5078 Z M 37.9883 -45.6543 C 37.9883 -49.1211 39.7949 -50.8301 43.0664 -50.8301 L 99.3164 -50.8301 C 102.588 -50.8301 104.443 -49.1211 104.443 -45.6543 L 104.443 -14.8926 L 91.0645 -27.5879 C 89.4531 -29.0527 87.5 -29.7852 85.5469 -29.7852 C 83.5449 -29.7852 81.6895 -29.1016 80.0293 -27.5879 L 63.2812 -12.6953 L 56.543 -18.75 C 54.9805 -20.1172 53.2227 -20.8496 51.5137 -20.8496 C 49.9023 -20.8496 48.2422 -20.166 46.7285 -18.7988 L 37.9883 -11.2305 Z M 57.666 -26.3672 C 62.5488 -26.3672 66.6016 -30.4199 66.6016 -35.3027 C 66.6016 -40.1367 62.5488 -44.2383 57.666 -44.2383 C 52.832 -44.2383 48.7793 -40.1367 48.7793 -35.3027 C 48.7793 -30.4199 52.832 -26.3672 57.666 -26.3672 Z"/>
  </g>
  <g id="Regular-S" transform="matrix(1 0 0 1 1389.2 696)">
   <path d="M 22.2168 -12.6953 L 29.1992 -12.6953 L 29.1992 -6.10352 C 29.1992 2.09961 33.3008 6.20117 41.6504 6.20117 L 99.0723 6.20117 C 107.373 6.20117 111.523 2.09961 111.523 -6.10352 L 111.523 -46.582 C 111.523 -54.7852 107.373 -58.8379 99.0723 -58.8379 L 92.0898 -58.8379 L 92.0898 -64.9902 C 92.0898 -73.1934 87.9395 -77.2461 79.6387 -77.2461 L 22.2168 -77.2461 C 13.8672 -77.2461 9.76562 -73.1934 9.76562 -64.9902 L 9.76562 -24.9512 C 9.76562 -16.748 13.8672 -12.6953 22.2168 -12.6953 Z M 22.3145 -19.7266 C 18.7988 -19.7266 16.7969 -21.6309 16.7969 -25.3418 L 16.7969 -64.5996 C 16.7969 -68.3105 18.7988 -70.2148 22.3145 -70.2148 L 79.541 -70.2148 C 83.0566 -70.2148 85.0586 -68.3105 85.0586 -64.5996 L 85.0586 -58.8379 L 41.6504 -58.8379 C 33.3008 -58.8379 29.1992 -54.7852 29.1992 -46.582 L 29.1992 -19.7266 Z M 36.2305 -46.1914 C 36.2305 -49.9023 38.2324 -51.8066 41.748 -51.8066 L 98.9746 -51.8066 C 102.49 -51.8066 104.492 -49.9023 104.492 -46.1914 L 104.492 -15.332 L 91.2598 -27.9297 C 89.5996 -29.4434 87.5488 -30.2246 85.5957 -30.2246 C 83.5449 -30.2246 81.6406 -29.4922 79.8828 -27.9785 L 62.6953 -12.6465 L 55.7617 -18.8477 C 54.1504 -20.3125 52.3438 -21.0449 50.5859 -21.0449 C 48.9746 -21.0449 47.3145 -20.3613 45.7031 -18.8965 L 36.2305 -10.791 Z M 56.3965 -26.9043 C 61.3281 -26.9043 65.3809 -30.957 65.3809 -35.9375 C 65.3809 -40.8691 61.3281 -44.9707 56.3965 -44.9707 C 51.416 -44.9707 47.3633 -40.8691 47.3633 -35.9375 C 47.3633 -30.957 51.416 -26.9043 56.3965 -26.9043 Z"/>
  </g>
  <g id="Light-S" transform="matrix(1 0 0 1 1093.07 696)">
   <path d="M 21.3867 -12.7441 L 28.6133 -12.7441 L 28.6133 -6.25 C 28.6133 1.36719 32.5195 5.22461 40.2344 5.22461 L 98.7305 5.22461 C 106.445 5.22461 110.352 1.36719 110.352 -6.25 L 110.352 -47.0215 C 110.352 -54.6387 106.445 -58.5449 98.7305 -58.5449 L 91.5527 -58.5449 L 91.5527 -64.7461 C 91.5527 -72.3633 87.5977 -76.2207 79.8828 -76.2207 L 21.3867 -76.2207 C 13.6719 -76.2207 9.76562 -72.3633 9.76562 -64.7461 L 9.76562 -24.2676 C 9.76562 -16.6016 13.6719 -12.7441 21.3867 -12.7441 Z M 21.4844 -18.2129 C 17.4316 -18.2129 15.1855 -20.3613 15.1855 -24.5605 L 15.1855 -64.4531 C 15.1855 -68.6523 17.4316 -70.8008 21.4844 -70.8008 L 79.7852 -70.8008 C 83.7891 -70.8008 86.084 -68.6523 86.084 -64.4531 L 86.084 -58.5449 L 40.2344 -58.5449 C 32.5195 -58.5449 28.6133 -54.6875 28.6133 -47.0215 L 28.6133 -18.2129 Z M 34.0332 -46.7285 C 34.0332 -50.9277 36.2793 -53.125 40.332 -53.125 L 98.6328 -53.125 C 102.637 -53.125 104.932 -50.9277 104.932 -46.7285 L 104.932 -13.916 L 90.2832 -27.6855 C 88.5742 -29.248 86.5723 -30.0781 84.4238 -30.0781 C 82.2754 -30.0781 80.4199 -29.2969 78.6133 -27.7344 L 61.4746 -12.5488 L 54.6875 -18.7012 C 53.0273 -20.166 51.3184 -20.9473 49.4629 -20.9473 C 47.7051 -20.9473 46.1914 -20.2148 44.5312 -18.75 L 34.0332 -9.52148 Z M 55.2734 -26.7578 C 60.2051 -26.7578 64.2578 -30.8105 64.2578 -35.791 C 64.2578 -40.7227 60.2051 -44.8242 55.2734 -44.8242 C 50.293 -44.8242 46.2402 -40.7227 46.2402 -35.791 C 46.2402 -30.8105 50.293 -26.7578 55.2734 -26.7578 Z"/>
  </g>
  <g id="Thin-S" transform="matrix(1 0 0 1 797.096 696)">
   <path d="M 20.3125 -12.8418 L 27.832 -12.8418 L 27.832 -6.49414 C 27.832 0.439453 31.4453 4.00391 38.3789 4.00391 L 98.3398 4.00391 C 105.273 4.00391 108.887 0.341797 108.887 -6.49414 L 108.887 -47.6562 C 108.887 -54.4922 105.273 -58.1543 98.3398 -58.1543 L 90.8203 -58.1543 L 90.8203 -64.4043 C 90.8203 -71.2402 87.207 -74.9023 80.2246 -74.9023 L 20.3125 -74.9023 C 13.3789 -74.9023 9.76562 -71.2891 9.76562 -64.4043 L 9.76562 -23.3398 C 9.76562 -16.4551 13.3789 -12.8418 20.3125 -12.8418 Z M 20.4102 -16.1621 C 15.625 -16.1621 13.0859 -18.6523 13.0859 -23.5352 L 13.0859 -64.209 C 13.0859 -69.043 15.625 -71.582 20.4102 -71.582 L 80.127 -71.582 C 84.8145 -71.582 87.5 -69.043 87.5 -64.209 L 87.5 -58.1543 L 38.3789 -58.1543 C 31.4453 -58.1543 27.832 -54.5898 27.832 -47.6562 L 27.832 -16.1621 Z M 31.1523 -47.4609 C 31.1523 -52.3438 33.6914 -54.834 38.4766 -54.834 L 98.2422 -54.834 C 102.881 -54.834 105.566 -52.3438 105.566 -47.4609 L 105.566 -12.1094 L 89.0137 -27.3438 C 87.207 -29.0039 85.2539 -29.8828 82.9102 -29.8828 C 80.6152 -29.8828 78.8574 -29.0527 76.9531 -27.3926 L 59.8145 -12.4512 L 53.2227 -18.5547 C 51.5625 -20.0195 50 -20.8496 47.998 -20.8496 C 46.0938 -20.8496 44.6777 -20.0684 43.0664 -18.6035 L 31.1523 -7.8125 Z M 53.8086 -26.6113 C 58.7402 -26.6113 62.793 -30.6641 62.793 -35.6445 C 62.793 -40.5762 58.7402 -44.6777 53.8086 -44.6777 C 48.8281 -44.6777 44.7754 -40.5762 44.7754 -35.6445 C 44.7754 -30.6641 48.8281 -26.6113 53.8086 -26.6113 Z"/>
  </g>
  <g id="Ultralight-S" transform="matrix(1 0 0 1 500.776 696)">
   <path d="M 19.7754 -12.8906 L 27.4414 -12.8906 L 27.4414 -6.5918 C 27.4414 -0.0976562 30.9082 3.36914 37.4023 3.36914 L 98.0957 3.36914 C 104.639 3.36914 108.105 -0.195312 108.105 -6.5918 L 108.105 -47.998 C 108.105 -54.3945 104.639 -57.959 98.0957 -57.959 L 90.4297 -57.959 L 90.4297 -64.209 C 90.4297 -70.6543 86.9629 -74.1699 80.4199 -74.1699 L 19.7754 -74.1699 C 13.2324 -74.1699 9.76562 -70.752 9.76562 -64.209 L 9.76562 -22.8516 C 9.76562 -16.3086 13.2324 -12.8906 19.7754 -12.8906 Z M 19.873 -15.0879 C 14.6484 -15.0879 11.9629 -17.7734 11.9629 -22.998 L 11.9629 -64.1113 C 11.9629 -69.2871 14.6484 -71.9727 19.873 -71.9727 L 80.3223 -71.9727 C 85.3516 -71.9727 88.2324 -69.2871 88.2324 -64.1113 L 88.2324 -57.959 L 37.4023 -57.959 C 30.9082 -57.959 27.4414 -54.4922 27.4414 -47.998 L 27.4414 -15.0879 Z M 29.6387 -47.8516 C 29.6387 -53.0762 32.3242 -55.7617 37.5 -55.7617 L 97.998 -55.7617 C 102.979 -55.7617 105.908 -53.0762 105.908 -47.8516 L 105.908 -11.1816 L 88.3789 -27.1484 C 86.4746 -28.8574 84.5703 -29.7852 82.1289 -29.7852 C 79.7852 -29.7852 78.0762 -28.9062 76.0742 -27.1973 L 58.9355 -12.4023 L 52.4902 -18.4082 C 50.8301 -19.9219 49.2676 -20.752 47.2656 -20.752 C 45.2637 -20.752 43.9453 -19.9707 42.2852 -18.457 L 29.6387 -6.88477 Z M 53.0762 -26.4648 C 58.0078 -26.4648 62.0605 -30.5176 62.0605 -35.498 C 62.0605 -40.4297 58.0078 -44.5312 53.0762 -44.5312 C 48.0957 -44.5312 44.043 -40.4297 44.043 -35.498 C 44.043 -30.5176 48.0957 -26.4648 53.0762 -26.4648 Z"/>
  </g>
 </g>
</svg>
