<?xml version="1.0" encoding="UTF-8"?>
<!--Generator: Apple Native CoreSVG 175.5-->
<!DOCTYPE svg
PUBLIC "-//W3C//DTD SVG 1.1//EN"
       "http://www.w3.org/Graphics/SVG/1.1/DTD/svg11.dtd">
<svg version="1.1" xmlns="http://www.w3.org/2000/svg" xmlns:xlink="http://www.w3.org/1999/xlink" width="3300" height="2200">
 <!--glyph: "uni100770.medium", point size: 100.0, font version: "18.0d12e2", template writer version: "101"-->
 <g id="Notes">
  <rect height="2200" id="artboard" style="fill:white;opacity:1" width="3300" x="0" y="0"/>
  <line style="fill:none;stroke:black;opacity:1;stroke-width:0.5;" x1="263" x2="3036" y1="292" y2="292"/>
  <text style="stroke:none;fill:black;font-family:sans-serif;font-size:13;font-weight:bold;" transform="matrix(1 0 0 1 263 322)">Weight/Scale Variations</text>
  <text style="stroke:none;fill:black;font-family:sans-serif;font-size:13;text-anchor:middle;" transform="matrix(1 0 0 1 559.711 322)">Ultralight</text>
  <text style="stroke:none;fill:black;font-family:sans-serif;font-size:13;text-anchor:middle;" transform="matrix(1 0 0 1 856.422 322)">Thin</text>
  <text style="stroke:none;fill:black;font-family:sans-serif;font-size:13;text-anchor:middle;" transform="matrix(1 0 0 1 1153.13 322)">Light</text>
  <text style="stroke:none;fill:black;font-family:sans-serif;font-size:13;text-anchor:middle;" transform="matrix(1 0 0 1 1449.84 322)">Regular</text>
  <text style="stroke:none;fill:black;font-family:sans-serif;font-size:13;text-anchor:middle;" transform="matrix(1 0 0 1 1746.56 322)">Medium</text>
  <text style="stroke:none;fill:black;font-family:sans-serif;font-size:13;text-anchor:middle;" transform="matrix(1 0 0 1 2043.27 322)">Semibold</text>
  <text style="stroke:none;fill:black;font-family:sans-serif;font-size:13;text-anchor:middle;" transform="matrix(1 0 0 1 2339.98 322)">Bold</text>
  <text style="stroke:none;fill:black;font-family:sans-serif;font-size:13;text-anchor:middle;" transform="matrix(1 0 0 1 2636.69 322)">Heavy</text>
  <text style="stroke:none;fill:black;font-family:sans-serif;font-size:13;text-anchor:middle;" transform="matrix(1 0 0 1 2933.4 322)">Black</text>
  <line style="fill:none;stroke:black;opacity:1;stroke-width:0.5;" x1="263" x2="3036" y1="1903" y2="1903"/>
  <g transform="matrix(1 0 0 1 263 1933)">
   <path d="M9.24805 0.830078C13.5547 0.830078 17.1387-2.74414 17.1387-7.05078C17.1387-11.3574 13.5449-14.9316 9.23828-14.9316C4.94141-14.9316 1.36719-11.3574 1.36719-7.05078C1.36719-2.74414 4.95117 0.830078 9.24805 0.830078ZM9.24805-0.654297C5.70312-0.654297 2.87109-3.49609 2.87109-7.05078C2.87109-10.6055 5.69336-13.4473 9.23828-13.4473C12.793-13.4473 15.6445-10.6055 15.6445-7.05078C15.6445-3.49609 12.8027-0.654297 9.24805-0.654297ZM5.6543-7.05078C5.6543-6.62109 5.95703-6.32812 6.40625-6.32812L8.50586-6.32812L8.50586-4.20898C8.50586-3.76953 8.79883-3.4668 9.22852-3.4668C9.67773-3.4668 9.9707-3.76953 9.9707-4.20898L9.9707-6.32812L12.0898-6.32812C12.5293-6.32812 12.832-6.62109 12.832-7.05078C12.832-7.49023 12.5293-7.79297 12.0898-7.79297L9.9707-7.79297L9.9707-9.90234C9.9707-10.3516 9.67773-10.6543 9.22852-10.6543C8.79883-10.6543 8.50586-10.3516 8.50586-9.90234L8.50586-7.79297L6.40625-7.79297C5.95703-7.79297 5.6543-7.49023 5.6543-7.05078Z"/>
  </g>
  <g transform="matrix(1 0 0 1 281.867 1933)">
   <path d="M11.709 2.91016C17.1582 2.91016 21.6699-1.61133 21.6699-7.05078C21.6699-12.5 17.1484-17.0117 11.6992-17.0117C6.25977-17.0117 1.74805-12.5 1.74805-7.05078C1.74805-1.61133 6.26953 2.91016 11.709 2.91016ZM11.709 1.25C7.09961 1.25 3.41797-2.44141 3.41797-7.05078C3.41797-11.6602 7.08984-15.3516 11.6992-15.3516C16.3086-15.3516 20.0098-11.6602 20.0098-7.05078C20.0098-2.44141 16.3184 1.25 11.709 1.25ZM7.17773-7.05078C7.17773-6.57227 7.50977-6.25 8.00781-6.25L10.8789-6.25L10.8789-3.36914C10.8789-2.88086 11.2109-2.53906 11.6895-2.53906C12.1777-2.53906 12.5195-2.87109 12.5195-3.36914L12.5195-6.25L15.4004-6.25C15.8887-6.25 16.2305-6.57227 16.2305-7.05078C16.2305-7.53906 15.8887-7.88086 15.4004-7.88086L12.5195-7.88086L12.5195-10.752C12.5195-11.25 12.1777-11.5918 11.6895-11.5918C11.2109-11.5918 10.8789-11.25 10.8789-10.752L10.8789-7.88086L8.00781-7.88086C7.50977-7.88086 7.17773-7.53906 7.17773-7.05078Z"/>
  </g>
  <g transform="matrix(1 0 0 1 305.646 1933)">
   <path d="M14.9707 5.66406C21.9336 5.66406 27.6953-0.0976562 27.6953-7.05078C27.6953-14.0137 21.9238-19.7754 14.9609-19.7754C8.00781-19.7754 2.25586-14.0137 2.25586-7.05078C2.25586-0.0976562 8.01758 5.66406 14.9707 5.66406ZM14.9707 3.84766C8.93555 3.84766 4.08203-1.01562 4.08203-7.05078C4.08203-13.0957 8.92578-17.9492 14.9609-17.9492C21.0059-17.9492 25.8691-13.0957 25.8691-7.05078C25.8691-1.01562 21.0156 3.84766 14.9707 3.84766ZM9.19922-7.05078C9.19922-6.5332 9.57031-6.17188 10.1172-6.17188L14.0625-6.17188L14.0625-2.2168C14.0625-1.67969 14.4336-1.29883 14.9512-1.29883C15.4883-1.29883 15.8594-1.66992 15.8594-2.2168L15.8594-6.17188L19.8145-6.17188C20.3516-6.17188 20.7324-6.5332 20.7324-7.05078C20.7324-7.59766 20.3613-7.96875 19.8145-7.96875L15.8594-7.96875L15.8594-11.9141C15.8594-12.4609 15.4883-12.8418 14.9512-12.8418C14.4336-12.8418 14.0625-12.4609 14.0625-11.9141L14.0625-7.96875L10.1172-7.96875C9.57031-7.96875 9.19922-7.59766 9.19922-7.05078Z"/>
  </g>
  <text style="stroke:none;fill:black;font-family:sans-serif;font-size:13;font-weight:bold;" transform="matrix(1 0 0 1 263 1953)">Design Variations</text>
  <text style="stroke:none;fill:black;font-family:sans-serif;font-size:13;" transform="matrix(1 0 0 1 263 1971)">Symbols are supported in up to nine weights and three scales.</text>
  <text style="stroke:none;fill:black;font-family:sans-serif;font-size:13;" transform="matrix(1 0 0 1 263 1989)">For optimal layout with text and other symbols, vertically align</text>
  <text style="stroke:none;fill:black;font-family:sans-serif;font-size:13;" transform="matrix(1 0 0 1 263 2007)">symbols with the adjacent text.</text>
  <line style="fill:none;stroke:#00AEEF;stroke-width:0.5;opacity:1.0;" x1="776" x2="776" y1="1919" y2="1933"/>
  <g transform="matrix(1 0 0 1 776 1933)">
   <path d="M3.31055 0.15625C3.82812 0.15625 4.08203-0.0390625 4.26758-0.585938L5.52734-4.0332L11.2891-4.0332L12.5488-0.585938C12.7344-0.0390625 12.9883 0.15625 13.4961 0.15625C14.0137 0.15625 14.3457-0.15625 14.3457-0.644531C14.3457-0.810547 14.3164-0.966797 14.2383-1.17188L9.6582-13.3691C9.43359-13.9648 9.0332-14.2676 8.4082-14.2676C7.80273-14.2676 7.39258-13.9746 7.17773-13.3789L2.59766-1.16211C2.51953-0.957031 2.49023-0.800781 2.49023-0.634766C2.49023-0.146484 2.80273 0.15625 3.31055 0.15625ZM6.00586-5.51758L8.37891-12.0898L8.42773-12.0898L10.8008-5.51758Z"/>
  </g>
  <line style="fill:none;stroke:#00AEEF;stroke-width:0.5;opacity:1.0;" x1="793.197" x2="793.197" y1="1919" y2="1933"/>
  <text style="stroke:none;fill:black;font-family:sans-serif;font-size:13;font-weight:bold;" transform="matrix(1 0 0 1 776 1953)">Margins</text>
  <text style="stroke:none;fill:black;font-family:sans-serif;font-size:13;" transform="matrix(1 0 0 1 776 1971)">Leading and trailing margins on the left and right side of each symbol</text>
  <text style="stroke:none;fill:black;font-family:sans-serif;font-size:13;" transform="matrix(1 0 0 1 776 1989)">can be adjusted by modifying the x-location of the margin guidelines.</text>
  <text style="stroke:none;fill:black;font-family:sans-serif;font-size:13;" transform="matrix(1 0 0 1 776 2007)">Modifications are automatically applied proportionally to all</text>
  <text style="stroke:none;fill:black;font-family:sans-serif;font-size:13;" transform="matrix(1 0 0 1 776 2025)">scales and weights.</text>
  <g transform="matrix(1 0 0 1 1289 1933)">
   <path d="M2.8418 1.86523L4.54102 3.57422C5.40039 4.44336 6.38672 4.38477 7.31445 3.35938L18.0078-8.42773L17.041-9.4043L6.42578 2.27539C6.07422 2.67578 5.74219 2.77344 5.27344 2.30469L4.10156 1.14258C3.63281 0.683594 3.74023 0.341797 4.14062-0.0195312L15.6152-10.8203L14.6387-11.7871L3.04688-0.898438C2.06055 0.0195312 1.98242 0.996094 2.8418 1.86523ZM9.25781-16.3281C8.83789-15.918 8.80859-15.3418 9.04297-14.9512C9.27734-14.5898 9.73633-14.3555 10.3809-14.5215C11.8457-14.8633 13.3691-14.9219 14.7949-13.9844L14.209-12.5293C13.8672-11.6992 14.043-11.1133 14.5801-10.5664L16.875-8.25195C17.3633-7.76367 17.7734-7.74414 18.3398-7.8418L19.4043-8.03711L20.0684-7.36328L20.0293-6.80664C19.9902-6.30859 20.1172-5.92773 20.6055-5.44922L21.3672-4.70703C21.8457-4.22852 22.4609-4.19922 22.9297-4.66797L25.8398-7.58789C26.3086-8.05664 26.2891-8.65234 25.8105-9.13086L25.0391-9.89258C24.5605-10.3711 24.1895-10.5273 23.7109-10.4883L23.1348-10.4395L22.4902-11.0742L22.7344-12.1973C22.8613-12.7637 22.7051-13.2031 22.1191-13.7891L19.9219-15.9766C16.582-19.2969 12.1484-19.2188 9.25781-16.3281ZM10.752-15.957C13.1836-17.7344 16.4746-17.4316 18.7012-15.2051L21.1328-12.793C21.3672-12.5586 21.4062-12.373 21.3379-12.0312L21.0156-10.5469L22.5195-9.0625L23.5059-9.12109C23.7598-9.13086 23.8379-9.11133 24.0332-8.91602L24.6094-8.33984L22.168-5.89844L21.5918-6.47461C21.3965-6.66992 21.3672-6.74805 21.377-7.01172L21.4453-7.98828L19.9512-9.47266L18.4277-9.21875C18.1055-9.15039 17.959-9.17969 17.7148-9.41406L15.7129-11.416C15.459-11.6504 15.4297-11.8164 15.5859-12.1875L16.4648-14.2773C14.9023-15.7324 12.8711-16.3574 10.8398-15.7617C10.6836-15.7227 10.625-15.8496 10.752-15.957Z"/>
  </g>
  <text style="stroke:none;fill:black;font-family:sans-serif;font-size:13;font-weight:bold;" transform="matrix(1 0 0 1 1289 1953)">Exporting</text>
  <text style="stroke:none;fill:black;font-family:sans-serif;font-size:13;" transform="matrix(1 0 0 1 1289 1971)">Symbols should be outlined when exporting to ensure the</text>
  <text style="stroke:none;fill:black;font-family:sans-serif;font-size:13;" transform="matrix(1 0 0 1 1289 1989)">design is preserved when submitting to Xcode.</text>
  <text id="template-version" style="stroke:none;fill:black;font-family:sans-serif;font-size:13;text-anchor:end;" transform="matrix(1 0 0 1 3036 1933)">Template v.4.0</text>
  <text style="stroke:none;fill:black;font-family:sans-serif;font-size:13;text-anchor:end;" transform="matrix(1 0 0 1 3036 1951)">Requires Xcode 14 or greater</text>
  <text id="descriptive-name" style="stroke:none;fill:black;font-family:sans-serif;font-size:13;text-anchor:end;" transform="matrix(1 0 0 1 3036 1969)">Generated from hand.point.up.left</text>
  <text style="stroke:none;fill:black;font-family:sans-serif;font-size:13;text-anchor:end;" transform="matrix(1 0 0 1 3036 1987)">Typeset at 100 points</text>
  <text style="stroke:none;fill:black;font-family:sans-serif;font-size:13;" transform="matrix(1 0 0 1 263 726)">Small</text>
  <text style="stroke:none;fill:black;font-family:sans-serif;font-size:13;" transform="matrix(1 0 0 1 263 1156)">Medium</text>
  <text style="stroke:none;fill:black;font-family:sans-serif;font-size:13;" transform="matrix(1 0 0 1 263 1586)">Large</text>
 </g>
 <g id="Guides">
  <g id="H-reference" style="fill:#27AAE1;stroke:none;" transform="matrix(1 0 0 1 339 696)">
   <path d="M0.993654 0L3.63775 0L29.3281-67.1323L30.0303-67.1323L30.0303-70.459L28.1226-70.459ZM11.6885-24.4799L46.9815-24.4799L46.2315-26.7285L12.4385-26.7285ZM55.1196 0L57.7637 0L30.6382-70.459L29.4326-70.459L29.4326-67.1323Z"/>
  </g>
  <line id="Baseline-S" style="fill:none;stroke:#27AAE1;opacity:1;stroke-width:0.5;" x1="263" x2="3036" y1="696" y2="696"/>
  <line id="Capline-S" style="fill:none;stroke:#27AAE1;opacity:1;stroke-width:0.5;" x1="263" x2="3036" y1="625.541" y2="625.541"/>
  <g id="H-reference" style="fill:#27AAE1;stroke:none;" transform="matrix(1 0 0 1 339 1126)">
   <path d="M0.993654 0L3.63775 0L29.3281-67.1323L30.0303-67.1323L30.0303-70.459L28.1226-70.459ZM11.6885-24.4799L46.9815-24.4799L46.2315-26.7285L12.4385-26.7285ZM55.1196 0L57.7637 0L30.6382-70.459L29.4326-70.459L29.4326-67.1323Z"/>
  </g>
  <line id="Baseline-M" style="fill:none;stroke:#27AAE1;opacity:1;stroke-width:0.5;" x1="263" x2="3036" y1="1126" y2="1126"/>
  <line id="Capline-M" style="fill:none;stroke:#27AAE1;opacity:1;stroke-width:0.5;" x1="263" x2="3036" y1="1055.54" y2="1055.54"/>
  <g id="H-reference" style="fill:#27AAE1;stroke:none;" transform="matrix(1 0 0 1 339 1556)">
   <path d="M0.993654 0L3.63775 0L29.3281-67.1323L30.0303-67.1323L30.0303-70.459L28.1226-70.459ZM11.6885-24.4799L46.9815-24.4799L46.2315-26.7285L12.4385-26.7285ZM55.1196 0L57.7637 0L30.6382-70.459L29.4326-70.459L29.4326-67.1323Z"/>
  </g>
  <line id="Baseline-L" style="fill:none;stroke:#27AAE1;opacity:1;stroke-width:0.5;" x1="263" x2="3036" y1="1556" y2="1556"/>
  <line id="Capline-L" style="fill:none;stroke:#27AAE1;opacity:1;stroke-width:0.5;" x1="263" x2="3036" y1="1485.54" y2="1485.54"/>
  <line id="left-margin-Regular-M" style="fill:none;stroke:#00AEEF;stroke-width:0.5;opacity:1.0;" x1="1398.48" x2="1398.48" y1="1030.79" y2="1150.12"/>
  <line id="right-margin-Regular-M" style="fill:none;stroke:#00AEEF;stroke-width:0.5;opacity:1.0;" x1="1501.21" x2="1501.21" y1="1030.79" y2="1150.12"/>
 </g>
 <g id="Symbols">
  <g id="Black-L" transform="matrix(1 0 0 1 2857.85 1556)">
   <path d="M104.281 29.9219C135.609 18.4972 147.133-7.11675 135.233-39.6782L128.613-58.0275C123.044-73.2734 111.357-80.1442 98.1342-76.0356C94.2105-79.9118 88.3268-80.9673 82.5279-78.9072C81.2247-78.4182 79.9643-77.8221 78.8844-77.043C74.5658-81.2569 69.1401-82.6085 63.5123-80.5068C63.0957-80.3723 62.6779-80.1902 62.3041-79.9045L58.0384-91.6299C54.2791-101.913 45.009-106.46 35.1772-102.865C24.9329-99.1508 20.5355-89.6334 24.274-79.3291L38.3454-40.6207C38.4842-40.2406 38.405-39.9189 38.2001-39.8385C38.0173-39.7581 37.854-39.8385 37.692-39.9641L35.6269-42.0232C31.582-44.792 26.796-45.3719 22.0588-43.6538C13.3025-40.4968 9.1087-32.2326 12.3318-23.3414C13.3232-20.6628 14.8572-17.9142 16.726-15.7624L38.9681 10.7514C57.0553 32.3092 79.7818 38.9324 104.281 29.9219ZM98.7068 13.2552C81.2815 19.5591 66.3181 15.0164 52.1267-0.646831L29.1654-25.9729C28.8325-26.4082 28.6032-26.7048 28.3752-27.2281C28.0179-28.2757 28.4032-29.3904 29.7348-29.9074C30.6195-30.2247 31.4414-29.9062 32.122-29.1803L48.5826-14.0535C51.3914-11.3967 54.5657-11.0959 57.3335-12.0717C61.0255-13.4408 63.3947-17.4069 61.652-22.1382L38.6554-85.5629C38.1337-86.8856 38.7155-88.1428 39.975-88.6038C41.2542-89.0659 42.6014-88.4745 43.0647-87.2102L58.5216-44.6807C59.8079-41.2579 63.6011-39.536 67.0031-40.8223C70.3854-42.0293 72.1995-45.8234 70.9924-49.2253L65.7922-63.5547C66.3307-63.8977 67.0573-64.277 67.7219-64.5051C69.1344-65.032 70.528-64.4014 71.0574-62.9806L76.4395-48.1548C77.649-44.782 81.3851-43.1477 84.725-44.3536C88.0638-45.5583 89.8278-49.1735 88.5391-52.5242L85.0998-62.0135C85.7175-62.3941 86.4441-62.7358 87.0879-62.9639C88.442-63.47 89.8928-62.8978 90.4233-61.4186L93.9278-51.8029C95.2165-48.3354 99.011-46.6206 102.468-47.8849C105.844-49.0896 107.667-52.88 106.457-56.3683L105.204-59.6147C108.379-60.8154 110.789-59.0587 112.504-54.2358L119.442-35.2666C127.761-12.3657 120.143 5.40802 98.7068 13.2552Z"/>
  </g>
  <g id="Heavy-L" transform="matrix(1 0 0 1 2563.44 1556)">
   <path d="M101.212 28.2233C130.967 17.3871 142.309-7.49921 130.835-38.8962L124.7-55.9059C119.273-70.7709 108.165-77.3395 95.4905-73.2987C91.8044-77.1666 86.2367-78.2861 80.6484-76.2993C79.2305-75.7596 77.8786-75.0813 76.7122-74.2063C72.6577-78.4036 67.3495-79.7921 61.8491-77.745C61.2037-77.519 60.5526-77.2045 59.9732-76.7683L55.0065-90.4175C51.4982-100.002 42.8491-104.207 33.737-100.877C24.2956-97.4454 20.1955-88.6213 23.6736-79.0063L38.7355-37.6375C38.8605-37.2712 38.7857-36.9496 38.5533-36.8691C38.3567-36.7887 38.1846-36.8691 38.0181-37.0268L34.5377-40.6678C30.5931-43.6991 25.9114-44.4222 21.3237-42.7583C13.2904-39.862 9.24105-32.2618 12.2447-23.9734C13.1446-21.5137 14.6063-18.9007 16.3571-16.8483L38.3782 9.47994C55.8857 30.4364 77.6294 36.8826 101.212 28.2233ZM96.3686 13.6689C79.1461 19.8989 64.0421 15.6565 49.8339-0.369264L27.2584-25.7805C26.8571-26.298 26.5776-26.6904 26.3038-27.3511C25.8555-28.649 26.3677-30.06 27.9728-30.6635C29.1278-31.0861 30.163-30.6579 31.0621-29.6816L47.0783-14.5525C49.7706-11.9527 52.6802-11.6612 55.2887-12.5824C58.684-13.8373 60.7312-17.4659 59.1671-21.7026L36.3725-84.5297C35.7465-86.1608 36.4518-87.7136 38.0158-88.2838C39.6044-88.8595 41.1882-88.1093 41.7696-86.5228L57.2996-43.7974C58.4629-40.7072 61.8745-39.1733 64.9345-40.3366C67.97-41.4251 69.5987-44.8133 68.5102-47.8733L63.1942-62.513C63.8045-62.9883 64.6629-63.4724 65.4599-63.7463C67.2689-64.4238 68.9355-63.6244 69.6242-61.7761L74.89-47.2632C75.9897-44.1784 79.3623-42.7586 82.3608-43.8414C85.3538-44.9187 86.9771-48.1561 85.8026-51.2052L82.2166-61.112C82.9017-61.6017 83.7601-62.0713 84.5269-62.3452C86.2912-62.9925 87.9969-62.2378 88.6912-60.3449L92.1378-50.8573C93.3123-47.719 96.7295-46.2187 99.8173-47.3462C102.825-48.4235 104.493-51.7948 103.393-54.9633L101.834-59.0605C105.567-60.4565 108.603-58.0849 110.738-52.1245L116.974-35.0933C125.383-11.9514 117.643 5.87963 96.3686 13.6689Z"/>
  </g>
  <g id="Bold-L" transform="matrix(1 0 0 1 2269.5 1556)">
   <path d="M97.4978 26.1627C125.316 16.049 136.495-7.8414 125.514-37.8982L119.955-53.3078C114.691-67.7412 104.298-73.9557 92.2841-70.0069C88.8827-73.8521 83.6845-75.0485 78.3425-73.1465C76.7937-72.5527 75.334-71.7745 74.06-70.7841C70.3359-74.9361 65.1885-76.3632 59.8494-74.3852C58.9346-74.0515 58.0065-73.5756 57.1809-72.9548L51.3982-88.8446C48.1973-97.5835 40.3017-101.358 32.0884-98.3579C23.6309-95.2727 19.8847-87.3017 23.0476-78.5248L39.3164-33.9043C39.4261-33.5534 39.3589-33.2318 39.0956-33.1513C38.8835-33.0709 38.6962-33.1513 38.5222-33.3474L33.1854-39.082C29.3638-42.3988 24.8201-43.2689 20.4318-41.6815C13.2526-39.0931 9.4025-32.2703 12.1446-24.7124C12.9367-22.5217 14.2988-20.0927 15.8962-18.1781L37.745 8.03888C54.4782 28.1755 75.0451 34.3915 97.4978 26.1627ZM93.5389 14.1985C76.5326 20.3513 61.2445 16.3511 47.1325 0.050977L24.9217-25.5572C24.4359-26.1746 24.0949-26.6824 23.7672-27.5048C23.2037-29.1176 23.8846-30.8973 25.8278-31.6084C27.2984-32.1542 28.6099-31.5951 29.7854-30.304L45.2857-15.1375C47.8023-12.6441 50.389-12.3604 52.7977-13.2125C55.8317-14.3291 57.5241-17.5426 56.1679-21.202L33.6715-83.1572C32.9075-85.1948 33.759-87.1238 35.7144-87.8321C37.6947-88.5537 39.5779-87.5964 40.3127-85.588L55.8604-42.8255C56.8701-40.1501 59.7905-38.8319 62.4278-39.8416C65.0404-40.784 66.4163-43.6726 65.4738-46.31L60.0418-61.2594C60.759-61.8961 61.7863-62.5108 62.7447-62.8386C65.0455-63.7006 67.0576-62.6937 67.9461-60.3003L73.0361-46.2686C74.005-43.5298 76.9095-42.3714 79.4779-43.3007C82.0332-44.2167 83.4724-46.9779 82.4363-49.6655L78.6809-60.0499C79.4653-60.6778 80.4926-61.3013 81.4131-61.629C83.6846-62.453 85.7127-61.4754 86.6144-59.0528L89.9694-49.7861C91.0055-47.0401 93.9391-45.8013 96.566-46.7597C99.1125-47.6758 100.581-50.5246 99.612-53.3086L97.6909-58.4138C102.145-60.063 105.935-56.9904 108.578-49.6609L114.02-34.8111C122.545-11.3621 114.569 6.50088 93.5389 14.1985Z"/>
  </g>
  <g id="Semibold-L" transform="matrix(1 0 0 1 1974.71 1556)">
   <path d="M94.9373 24.7421C121.421 15.1265 132.487-8.0773 121.846-37.2101L116.685-51.5167C111.532-65.6526 101.631-71.623 90.0737-67.7376C86.8685-71.5672 81.925-72.8166 76.7529-70.9729C75.1137-70.3419 73.5798-69.4947 72.2316-68.4249C68.7352-72.5456 63.6988-73.9994 58.4708-72.069C57.3703-71.661 56.2513-71.0738 55.256-70.3258L48.9106-87.7601C45.9217-95.916 38.5456-99.3943 30.9519-96.6216C23.1727-93.7749 19.6704-86.392 22.616-78.1928L39.7169-31.3307C39.8159-30.9904 39.754-30.6687 39.4695-30.5883C39.2468-30.5079 39.049-30.5883 38.8696-30.8109L32.2532-37.9888C28.5163-41.5024 24.0678-42.4739 19.8169-40.9392C13.2266-38.563 9.51379-32.2762 12.0755-25.2218C12.7934-23.2167 14.0869-20.9144 15.5784-19.0948L37.3086 7.04542C53.5079 26.6168 73.2635 32.6741 94.9373 24.7421ZM91.588 14.5637C74.7309 20.6631 59.3158 16.8299 45.2702 0.340688L23.3108-25.4032C22.7667-26.0896 22.3833-26.6769 22.0185-27.6107C21.3756-29.4406 22.1727-31.4745 24.3491-32.2597C26.0373-32.8905 27.5392-32.2413 28.9053-30.7331L44.05-15.5408C46.4454-13.1208 48.8095-12.8425 51.0805-13.647C53.8654-14.6681 55.3132-17.5955 54.1003-20.8568L31.8094-82.211C30.9502-84.5288 31.9026-86.7171 34.1279-87.5208C36.3781-88.3429 38.4678-87.2427 39.3084-84.9435L54.8682-42.1554C55.772-39.766 58.3537-38.5965 60.6997-39.5002C63.0208-40.3421 64.2224-42.8862 63.3806-45.2322L57.8685-60.3952C58.6595-61.1432 59.8032-61.8479 60.8729-62.2128C63.5127-63.202 65.7631-62.052 66.7892-59.2829L71.7581-45.5829C72.6368-43.0827 75.2185-42.1045 77.4905-42.9278C79.744-43.7327 81.0563-46.1657 80.1156-48.604L76.2434-59.3177C77.0964-60.0409 78.2401-60.7704 79.2664-61.1353C81.8876-62.0811 84.1381-60.9498 85.1827-58.1621L88.4745-49.0476C89.4152-46.5722 92.0155-45.5135 94.3246-46.3554C96.5533-47.1603 97.8842-49.649 97.0055-52.1678L94.835-57.968C99.7869-59.7918 104.096-56.2358 107.089-47.9625L111.983-34.6165C120.588-10.9558 112.45 6.92916 91.588 14.5637Z"/>
  </g>
  <g id="Medium-L" transform="matrix(1 0 0 1 1679.45 1556)">
   <path d="M92.9959 23.6649C118.467 14.427 129.447-8.25617 119.064-36.6885L114.205-50.1586C109.136-64.0689 99.6096-69.8542 88.3977-66.0169C85.3412-69.8346 80.5909-71.1242 75.5475-69.3249C73.8399-68.6656 72.2497-67.7662 70.8453-66.636C67.5215-70.733 62.5692-72.207 57.4255-70.3127C56.1842-69.8484 54.9204-69.1768 53.7964-68.3325L47.0244-86.9379C44.1963-94.6516 37.214-97.9051 30.0901-95.3051C22.8252-92.6392 19.508-85.7022 22.2887-77.9411L40.0206-29.3792C40.1115-29.047 40.0536-28.7253 39.7529-28.6449C39.5222-28.5645 39.3164-28.6449 39.1331-28.8876L31.5463-37.1598C27.8738-40.8227 23.4974-41.871 19.3507-40.3763C13.2069-38.1611 9.59818-32.2807 12.0232-25.6082C12.6847-23.7436 13.9261-21.5375 15.3375-19.79L36.9776 6.29214C52.7722 25.435 71.9125 31.372 92.9959 23.6649ZM90.1088 14.8405C73.3647 20.8996 57.8534 17.193 43.8581 0.56036L22.0893-25.2865C21.501-26.0251 21.0855-26.6728 20.6925-27.691C19.9894-29.6855 20.8747-31.9122 23.2278-32.7537C25.081-33.4488 26.7274-32.7312 28.2379-31.0584L43.1129-15.8466C45.4165-13.4823 47.6118-13.208 49.7785-13.9764C52.3745-14.9252 53.6368-17.6356 52.5325-20.5951L30.3975-81.4935C29.4662-84.0238 30.4949-86.4088 32.9249-87.2847C35.3798-88.1831 37.626-86.9746 38.5469-84.4548L54.1159-41.6473C54.9393-39.4748 57.2643-38.418 59.3894-39.2415C61.4895-40.0069 62.5589-42.29 61.7934-44.415L56.2206-59.7399C57.0676-60.5723 58.2996-61.3453 59.4537-61.7383C62.3505-62.8239 64.7815-61.5655 65.912-58.5115L70.789-45.063C71.5994-42.7437 73.9363-41.9021 75.9835-42.6452C78.0082-43.3657 79.2243-45.5498 78.356-47.7992L74.3952-58.7625C75.3001-59.558 76.5321-60.3679 77.6387-60.7609C80.525-61.7991 82.9441-60.5512 84.0971-57.4867L87.341-48.4877C88.2094-46.2173 90.5569-45.2953 92.6251-46.0489C94.6128-46.7694 95.8394-48.9851 95.029-51.3029L92.6695-57.63C97.9985-59.5861 102.702-55.6636 105.96-46.6747L110.439-34.469C119.104-10.6478 110.843 7.2539 90.1088 14.8405Z"/>
  </g>
  <g id="Regular-L" transform="matrix(1 0 0 1 1384.64 1556)">
   <path d="M90.4636 22.26C114.614 13.5146 125.483-8.48947 115.436-36.008L110.97-48.3872C106.012-62.0032 96.9725-67.5471 86.2115-63.7725C83.3492-67.5748 78.8507-68.9168 73.9753-67.1752C72.1784-66.4791 70.5147-65.5115 69.037-64.3027C65.9384-68.3688 61.0958-69.8691 56.0621-68.022C54.6371-67.4842 53.1844-66.7025 51.8926-65.7324L44.5642-85.8654C41.9457-93.0024 35.4771-95.9626 28.9661-93.5879C22.372-91.1578 19.2961-84.8025 21.8619-77.6127L40.4167-26.8338C40.4971-26.5122 40.4444-26.1905 40.1227-26.1101C39.8814-26.0296 39.6653-26.1101 39.4768-26.379L30.6243-36.0786C27.0356-39.9362 22.7533-41.0846 18.7425-39.6422C13.1812-37.6368 9.70825-32.2865 11.9549-26.112C12.543-24.4309 13.7165-22.3501 15.0232-20.6966L36.546 5.3096C51.8126 23.8935 70.1505 29.6735 90.4636 22.26ZM88.1795 15.2016C71.5827 21.208 55.946 17.6666 42.0163 0.846887L20.4961-25.1342C19.8502-25.941 19.3928-26.6673 18.963-27.7957C18.1814-30.0049 19.1817-32.4831 21.7654-33.3979C23.8337-34.177 25.6685-33.3702 27.3675-31.4827L41.8907-16.2455C44.0744-13.9537 46.0496-13.6848 48.0801-14.406C50.4298-15.2604 51.4501-17.6879 50.4876-20.2537L28.5559-80.5577C27.5305-83.3651 28.6589-86.0066 31.3557-86.9768C34.0776-87.9746 36.5281-86.6249 37.5536-83.8174L53.1346-40.9846C53.8533-39.0949 55.8434-38.1852 57.6803-38.9039C59.4921-39.5698 60.3891-41.5122 59.7232-43.3492L54.0712-58.8851C54.9911-59.8276 56.3383-60.6897 57.6024-61.1194C60.8345-62.3308 63.5011-60.9309 64.7678-57.5052L69.525-44.3848C70.2462-42.3015 72.264-41.6382 74.0179-42.2764C75.7442-42.887 76.8348-44.7465 76.0608-46.7494L71.9845-58.0383C72.9571-58.9281 74.3043-59.8429 75.5157-60.2726C78.7478-61.4313 81.3867-60.0314 82.6811-56.6057L85.8626-47.7573C86.6366-45.7545 88.6543-45.0107 90.4083-45.649C92.0818-46.2596 93.1724-48.119 92.4511-50.1747L89.8449-57.189C95.6658-59.3178 100.883-54.9173 104.487-44.995L108.425-34.2766C117.168-10.246 108.747 7.67748 88.1795 15.2016Z"/>
  </g>
  <g id="Light-L" transform="matrix(1 0 0 1 1089.4 1556)">
   <path d="M88.4596 21.1148C111.35 12.8275 122.506-7.87875 112.573-35.1301L108.356-46.784C103.416-60.3619 94.854-65.7913 84.4366-62.1311C81.7078-65.838 77.3239-67.2182 72.5249-65.4957C70.7089-64.8187 69.007-63.7938 67.4529-62.5277C64.6025-66.403 59.9698-67.8842 55.0697-66.0944C53.5492-65.5184 51.9821-64.6413 50.5757-63.5566L43.0183-84.3195C40.5906-90.9984 34.542-93.6151 28.6989-91.4885C22.7156-89.2684 19.7923-83.4665 22.1863-76.7539L41.4473-24.0092C41.5277-23.6875 41.494-23.3659 41.1724-23.2854C40.9311-23.205 40.6768-23.2854 40.4692-23.5734L29.67-35.5824C26.1577-39.3827 22.0281-40.4357 18.2463-39.1078C13.0094-37.2169 9.80368-32.1147 11.9358-26.3411C12.4857-24.8317 13.5256-22.98 14.6797-21.5173L36.7368 5.176C51.1064 22.7102 68.8909 28.2612 88.4596 21.1148ZM86.6526 15.6788C69.9796 21.7233 54.152 17.5139 41.0429 1.62938L19.0456-25.077C18.3424-25.941 17.8469-26.7246 17.398-27.9103C16.521-30.3676 17.7121-33.1129 20.5248-34.104C22.6886-34.9213 24.7905-34.0573 26.7186-31.9217L41.1082-16.4363C42.9675-14.4499 44.7518-14.1619 46.6296-14.8259C48.7693-15.604 49.8279-17.7643 48.9226-20.1583L27.5062-79.0118C26.3281-82.2582 27.5138-85.2241 30.5732-86.3088C33.6196-87.4402 36.3182-85.8806 37.4963-82.6342L52.6193-41.0991C53.2235-39.5148 54.7555-38.6433 56.3062-39.2474C57.8699-39.8179 58.4424-41.4359 57.8719-42.9865L52.3154-58.2553C53.4261-59.2932 54.926-60.2507 56.2855-60.6995C59.8612-62.0254 62.8141-60.492 64.2335-56.5891L68.6661-44.4039C69.3301-42.4924 70.9089-41.9817 72.3193-42.5055C73.683-42.9825 74.5827-44.4602 73.885-46.2913L69.7706-57.6566C70.915-58.6609 72.4148-59.652 73.7407-60.1009C77.3164-61.3931 80.2225-59.8596 81.6887-55.9568L84.6793-47.6619C85.3769-45.8308 86.9557-45.2397 88.3661-45.7635C89.6961-46.2405 90.5958-47.7182 89.9319-49.583L87.1921-56.9982C93.7-59.3751 99.2992-54.8791 103.17-44.2698L107.051-33.6468C115.89-9.34895 106.762 8.34547 86.6526 15.6788Z"/>
  </g>
  <g id="Thin-L" transform="matrix(1 0 0 1 794.649 1556)">
   <path d="M85.8092 19.6003C107.034 11.9188 118.568-7.07101 108.787-33.9689L104.897-44.6637C99.9834-58.1911 92.0522-63.469 82.0891-59.9603C79.537-63.541 75.3046-64.9717 70.6065-63.2744C68.7653-62.6226 67.0129-61.5221 65.3578-60.1802C62.8356-63.8031 58.4805-65.2591 53.7571-63.5449C52.1105-62.9185 50.3918-61.9152 48.834-60.6791L40.9737-82.2749C38.7984-88.348 33.3051-90.5104 28.3455-88.7119C23.1699-86.7694 20.4486-81.6996 22.6154-75.618L42.8104-20.2734C42.8908-19.9517 42.8823-19.6301 42.5607-19.5496C42.3194-19.4692 42.0146-19.5496 41.7818-19.8629L28.4079-34.9261C24.9966-38.6507 21.0689-39.5775 17.59-38.401C12.7823-36.6616 9.92989-31.8876 11.9106-26.644C12.41-25.3617 13.2732-23.8129 14.2253-22.6027L36.9892 4.99931C50.1725 21.1452 67.2249 26.3933 85.8092 19.6003ZM84.6333 16.3098C67.8593 22.4049 51.7792 17.312 39.7556 2.6643L17.1272-25.0013C16.3483-25.941 15.8023-26.8003 15.3282-28.0617C14.3249-30.8472 15.7685-33.9459 18.8841-35.038C21.1741-35.9057 23.6294-34.966 25.8604-32.5022L40.0733-16.6888C41.5035-15.1062 43.0354-14.793 44.7113-15.3812C46.5733-16.0583 47.6823-17.8653 46.8528-20.0321L26.1179-76.9672C24.7379-80.7942 25.9993-84.1892 29.5383-85.4253C33.0138-86.7334 36.0405-84.8961 37.4206-81.0692L51.9378-41.2506C52.3905-40.0701 53.3167-39.2491 54.4888-39.7018C55.7243-40.1461 55.8677-41.3349 55.4234-42.5069L49.9931-57.4223C51.3563-58.5864 53.0581-59.6701 54.5439-60.1442C58.5738-61.6216 61.9054-59.9114 63.5267-55.3775L67.5303-44.4291C68.1185-42.7448 69.1167-42.4361 70.0728-42.8084C70.9569-43.1087 71.6042-44.0816 71.0075-45.6855L66.8425-57.1518C68.2141-58.3075 69.9159-59.3996 71.3933-59.8737C75.4232-61.3426 78.6828-59.6324 80.3761-55.0986L83.1143-47.5357C83.711-45.9318 84.7092-45.5426 85.6653-45.9149C86.5409-46.2152 87.1882-47.1882 86.5999-48.8005L83.6835-56.7458C91.1001-59.4508 97.2041-54.8286 101.429-43.3106L105.234-32.8138C114.199-8.16259 104.137 9.22893 84.6333 16.3098Z"/>
  </g>
  <g id="Ultralight-L" transform="matrix(1 0 0 1 498.94 1556)">
   <path d="M84.4517 18.8246C104.823 11.4534 116.551-6.65729 106.848-33.3742L103.126-43.5777C98.2251-57.0792 90.6171-62.2796 80.8867-58.8485C78.4252-62.3645 74.2703-63.821 69.6239-62.1367C67.7697-61.4978 65.9915-60.3585 64.2847-58.9779C61.9305-62.4714 57.7177-63.9145 53.0848-62.2391C51.3735-61.5868 49.5773-60.5189 47.942-59.2052L39.9265-81.2277C37.8805-86.9905 32.6716-88.9201 28.1645-87.2897C23.4026-85.4895 20.7847-80.7946 22.8352-75.0362L43.5085-18.36C43.5889-18.0383 43.5934-17.7166 43.2718-17.6362C43.0305-17.5558 42.6998-17.6362 42.4541-17.9624L27.7615-34.59C24.4018-38.2758 20.5776-39.138 17.2539-38.039C12.6659-36.3772 9.99453-31.7712 11.8977-26.7991C12.3712-25.6332 13.1439-24.2396 13.9926-23.1586L37.1185 4.90881C49.6941 20.3436 66.3716 25.4366 84.4517 18.8246ZM83.599 16.633C66.7733 22.7539 50.5639 17.2086 39.0962 3.19438L16.1446-24.9625C15.327-25.941 14.755-26.8391 14.268-28.1393C13.2001-31.0928 14.773-34.3725 18.0437-35.5163C20.3984-36.41 23.0347-35.4314 25.4208-32.7996L39.5432-16.818C40.7536-15.4424 42.1562-15.1162 43.7287-15.6657C45.4485-16.291 46.5834-17.917 45.7926-19.9675L25.4069-75.92C23.9234-80.0443 25.2236-83.6591 29.0082-84.9728C32.7035-86.3714 35.8983-84.3919 37.3818-80.2676L51.5887-41.3282C51.9639-40.3546 52.5798-39.5594 53.5579-39.9345C54.6254-40.3141 54.549-41.2832 54.1693-42.2613L48.8037-56.9957C50.2962-58.2244 52.1013-59.3728 53.6518-59.8598C57.9145-61.4147 61.4399-59.614 63.1647-54.7569L66.9485-44.4421C67.4979-42.8741 68.1988-42.6688 68.9221-42.9635C69.5606-43.1733 70.0786-43.8877 69.5336-45.3752L65.3428-56.8932C66.8308-58.1265 68.6359-59.2703 70.1909-59.7573C74.4536-61.3168 77.8941-59.5161 79.7038-54.659L82.3127-47.4711C82.8577-45.9835 83.5586-45.6978 84.2819-45.9925C84.9248-46.2023 85.4428-46.9167 84.8934-48.3997L81.8864-56.6165C89.7684-59.4896 96.131-54.8028 100.537-42.8193L104.303-32.3872C113.332-7.55494 102.792 9.68143 83.599 16.633Z"/>
  </g>
  <g id="Black-M" transform="matrix(1 0 0 1 2873.09 1126)">
   <path d="M83.1567 16.5506C108.61 7.2558 117.733-13.0379 108.163-39.2293L102.651-54.4982C98.2166-66.6321 88.7293-72.1994 78.0603-68.9735C74.8343-71.9707 70.0199-72.7386 65.3565-71.0822C64.4429-70.7495 63.5399-70.3505 62.7674-69.8217C59.2281-73.0748 54.9521-74.0875 50.5006-72.4201C50.3616-72.3894 50.2228-72.3492 50.0945-72.2417L47.3609-79.7577C44.2587-88.2632 36.6-92.0322 28.4548-89.0538C19.9108-85.9616 16.2692-78.0674 19.366-69.5564L29.5121-41.5874C29.6315-41.2811 29.5689-41.0318 29.4339-40.9695C29.3041-40.9072 29.18-40.9695 29.0557-41.042L28.4085-41.5905C25.1988-43.5023 21.422-43.8155 17.6544-42.4535C10.2932-39.7989 6.95607-32.8594 9.62626-25.5072C10.4678-23.2671 11.7003-21.052 13.2289-19.3255L30.723 1.46849C45.1127 18.5447 63.4894 23.7972 83.1567 16.5506ZM78.275 2.04276C64.5901 6.99532 53.0924 3.1273 42.2234-8.56939L24.0381-28.2157C23.8312-28.4901 23.6915-28.6451 23.5516-28.9403C23.3401-29.5703 23.5554-30.2156 24.383-30.5521C24.8491-30.7126 25.3386-30.5523 25.7092-30.1716L38.8259-18.4205C41.058-16.3547 43.7189-16.111 45.9796-16.9062C49.0665-18.0546 51.1839-21.3812 49.6879-25.4486L31.7678-74.9034C31.4325-75.7226 31.7848-76.4865 32.5481-76.7653C33.3172-77.0438 34.1912-76.6937 34.4694-75.9315L46.3195-43.3263C47.4062-40.4301 50.611-38.9397 53.5017-40.0264C56.3866-41.0505 57.9074-44.2948 56.8833-47.1855L52.9669-57.9842C53.3483-58.149 53.8186-58.3658 54.2327-58.5057C55.0327-58.8001 55.9166-58.4385 56.2104-57.6404L60.4363-46.0121C61.4599-43.1749 64.6073-41.7451 67.4417-42.7695C70.2765-43.7942 71.7382-46.868 70.652-49.6999L68.1083-56.7033C68.5523-56.9198 69.0226-57.085 69.4312-57.2249C70.1742-57.5138 71.1154-57.2093 71.4089-56.3541L74.148-48.8694C75.2341-45.9232 78.4386-44.4311 81.3873-45.5126C84.2736-46.5373 85.7924-49.7824 84.7688-52.734L84.0436-54.5721C86.1159-55.3682 87.4971-54.5226 88.5008-51.6708L94.4717-35.3219C100.851-17.7505 94.9586-4.06072 78.275 2.04276Z"/>
  </g>
  <g id="Heavy-M" transform="matrix(1 0 0 1 2578.49 1126)">
   <path d="M80.3415 14.9958C104.373 6.23399 113.292-13.4682 104.127-38.5458L99.0665-52.5721C94.7696-64.3371 85.8045-69.6195 75.6396-66.4494C72.6336-69.4473 68.1175-70.2743 63.653-68.6877C62.629-68.3038 61.6401-67.8297 60.79-67.2123C57.4861-70.4668 53.3055-71.5175 48.9663-69.8981C48.6123-69.7814 48.2561-69.6206 47.9373-69.3765L44.5397-78.7152C41.6652-86.5799 34.5748-90.0469 27.0715-87.3038C19.2561-84.4688 15.891-77.2012 18.7492-69.3201L29.7984-38.9317C29.9043-38.6389 29.8443-38.3897 29.6823-38.3274C29.539-38.2651 29.4099-38.3274 29.283-38.4293L27.4317-40.3113C24.3131-42.4849 20.6241-42.947 16.9816-41.6273C10.2972-39.2171 7.07665-32.9037 9.54285-26.1039C10.2985-24.0619 11.4726-21.9584 12.8999-20.3113L30.1287 0.237861C44.0344 16.8231 61.5015 21.9236 80.3415 14.9958ZM76.1301 2.40313C62.6506 7.27995 51.033 3.7671 40.0718-8.37023L22.3077-28.0328C22.0392-28.3823 21.854-28.6258 21.6711-29.05C21.3794-29.9019 21.7011-30.812 22.775-31.2261C23.4965-31.486 24.17-31.2238 24.733-30.6212L37.4275-18.8907C39.5757-16.8524 41.9955-16.6196 44.1144-17.3667C46.9306-18.4106 48.7298-21.4318 47.4032-25.0316L29.6329-74.036C29.2098-75.1162 29.6776-76.1391 30.7051-76.5141C31.7467-76.8913 32.8291-76.4053 33.2086-75.3687L45.1725-42.4523C46.1495-39.8531 49.0235-38.5429 51.6063-39.5199C54.175-40.437 55.5445-43.3144 54.6275-45.8972L50.5891-57.0239C51.0231-57.3094 51.6082-57.6198 52.1428-57.8027C53.2988-58.2337 54.4232-57.7194 54.8587-56.5475L59.0007-45.1388C59.9223-42.5672 62.7549-41.3329 65.2873-42.2477C67.8174-43.1602 69.1592-45.8999 68.1776-48.4528L65.494-55.8572C65.988-56.1699 66.5731-56.453 67.0914-56.636C68.2037-57.0506 69.3694-56.5799 69.8072-55.3644L72.5072-47.9538C73.4888-45.3136 76.365-44.0171 78.9847-44.9755C81.542-45.888 82.9274-48.7585 82.0059-51.4151L80.9932-54.048C83.5483-55.012 85.5062-53.5743 86.8961-49.6737L92.1856-35.2105C98.6455-17.4282 92.6984-3.66131 76.1301 2.40313Z"/>
  </g>
  <g id="Bold-M" transform="matrix(1 0 0 1 2284.14 1126)">
   <path d="M77.1923 13.2566C99.6328 5.09096 108.323-13.9494 99.6135-37.7811L95.057-50.4175C90.9138-61.7698 82.5326-66.7336 72.9317-63.6259C70.1719-66.6246 65.9895-67.5175 61.7474-66.0092C60.6-65.5678 59.5149-65.0098 58.5779-64.2934C55.5374-67.5494 51.4636-68.6424 47.2499-67.0769C46.6556-66.8641 46.0561-66.5683 45.5242-66.1714L41.3838-77.549C38.764-84.6969 32.3093-87.826 25.5242-85.3461C18.5238-82.7989 15.468-76.2322 18.0592-69.0557L30.1187-35.961C30.2095-35.6832 30.1524-35.434 29.9602-35.3717C29.8019-35.3094 29.667-35.3717 29.5372-35.5067L26.3391-38.8803C23.3223-41.3468 19.7316-41.9755 16.2289-40.7031C10.3016-38.5663 7.21154-32.9533 9.44955-26.7713C10.109-24.951 11.2179-22.9722 12.5319-21.4141L29.464-1.13877C42.8282 14.8973 59.2779 19.8278 77.1923 13.2566ZM73.7307 2.80625C60.4809 7.59835 48.7292 4.48282 37.6649-8.14745L20.3719-27.8283C20.0346-28.2617 19.7984-28.6042 19.5674-29.1727C19.1861-30.2727 19.6269-31.4792 20.9762-31.9801C21.9833-32.3512 22.8627-31.9749 23.6409-31.1241L35.8631-19.4168C37.9176-17.4091 40.0675-17.1885 42.0279-17.8818C44.5414-18.8088 45.9844-21.4885 44.8473-24.5651L27.2447-73.0657C26.7233-74.4378 27.3203-75.7505 28.6433-76.2331C29.9898-76.7208 31.3053-76.0827 31.7982-74.7392L43.8894-41.4747C44.7438-39.2075 47.2476-38.099 49.486-38.9534C51.701-39.7506 52.9013-42.2176 52.1041-44.4561L47.9293-55.9498C48.422-56.3701 49.1355-56.7852 49.8051-57.0163C51.3592-57.6001 52.7525-56.9151 53.3466-55.325L57.3948-44.1618C58.2023-41.8873 60.6827-40.8719 62.8772-41.664C65.0666-42.451 66.2743-44.8169 65.4096-47.0577L62.5696-54.9107C63.1195-55.3309 63.833-55.7461 64.4739-55.9771C65.9995-56.5323 67.4163-55.8759 68.0155-54.2572L70.6718-46.9295C71.5364-44.6317 74.0454-43.554 76.297-44.3746C78.4863-45.1616 79.7226-47.6132 78.9151-49.9396L77.581-53.4617C80.6762-54.6136 83.2792-52.5134 85.101-47.4397L89.6282-35.086C96.1777-17.0677 90.1701-3.21452 73.7307 2.80625Z"/>
  </g>
  <g id="Semibold-M" transform="matrix(1 0 0 1 1989.06 1126)">
   <path d="M75.0212 12.0575C96.3652 4.30296 104.898-14.2812 96.5017-37.254L92.2929-48.9322C88.2555-60 80.277-64.7441 71.0649-61.6793C68.4747-64.6786 64.5224-65.617 60.4337-64.1627C59.2012-63.6816 58.0498-63.0658 57.053-62.2811C54.1939-65.5382 50.1938-66.6604 46.0666-65.1319C45.3066-64.8528 44.5394-64.4641 43.8606-63.9619L39.2081-76.745C36.7639-83.3987 30.7474-86.2949 24.4574-83.9966C18.0189-81.6477 15.1763-75.5642 17.5835-68.8734L30.3395-33.913C30.4199-33.6456 30.3647-33.3964 30.1518-33.3341C29.9831-33.2718 29.8442-33.3341 29.7125-33.4918L25.5858-37.8938C22.6393-40.5623 19.1163-41.3057 15.71-40.066C10.3046-38.1177 7.30453-32.9875 9.38523-27.2314C9.9784-25.564 11.0423-23.6712 12.2782-22.1743L29.0057-2.08781C41.9967 13.5696 57.7449 18.3829 75.0212 12.0575ZM72.0766 3.08416C58.9852 7.81785 47.141 4.97623 36.0056-7.99386L19.0374-27.6873C18.6526-28.1786 18.3813-28.5894 18.1172-29.2572C17.674-30.5284 18.1969-31.9392 19.7362-32.4999C20.9402-32.9477 21.9614-32.4927 22.888-31.4708L34.7847-19.7794C36.7744-17.7929 38.7384-17.5807 40.5895-18.2369C42.8942-19.0833 44.0918-21.5276 43.0853-24.2434L25.5983-72.3968C25.0092-73.9701 25.6952-75.4826 27.222-76.0394C28.7786-76.6032 30.2549-75.8604 30.8258-74.3052L43.0048-40.8006C43.7746-38.7625 46.0233-37.793 48.0244-38.5629C49.9955-39.2775 51.0791-41.4616 50.3645-43.4626L46.0957-55.2093C46.6289-55.7226 47.4309-56.2099 48.1934-56.4741C50.0221-57.1633 51.6008-56.3605 52.3042-54.4821L56.2877-43.4884C57.0165-41.4187 59.2541-40.5541 61.2157-41.2616C63.1702-41.962 64.2855-44.0703 63.5014-46.0959L60.5536-54.2581C61.1419-54.7526 61.9439-55.2588 62.6694-55.5229C64.48-56.1751 66.0698-55.3905 66.7803-53.4939L69.4065-46.2234C70.1905-44.1616 72.4463-43.2347 74.4442-43.9604C76.3798-44.6608 77.5132-46.8236 76.7843-48.9225L75.2286-53.0575C78.6961-54.339 81.7438-51.782 83.8634-45.8995L87.8652-35.0002C94.4765-16.8191 88.4271-2.9065 72.0766 3.08416Z"/>
  </g>
  <g id="Medium-M" transform="matrix(1 0 0 1 1693.58 1126)">
   <path d="M73.3751 11.1484C93.8876 3.70546 102.301-14.5328 94.1421-36.8543L90.197-47.8059C86.24-58.658 78.5667-63.2355 69.6494-60.2034C67.1879-63.203 63.41-64.176 59.4376-62.7625C58.1405-62.2515 56.9389-61.5917 55.8967-60.7553C53.1753-64.0132 49.231-65.1576 45.1694-63.6572C44.2837-63.3279 43.3894-62.8686 42.5991-62.2865L37.5585-76.1353C35.2473-82.4144 29.5632-85.134 23.6485-82.9733C17.6361-80.7748 14.9552-75.0577 17.2229-68.7352L30.5069-32.3601C30.5794-32.1006 30.5257-31.8514 30.2971-31.7891C30.1204-31.7268 29.9786-31.7891 29.8454-31.9641L25.0147-37.1458C22.1214-39.9674 18.6498-40.7979 15.3166-39.5829C10.3069-37.7775 7.37504-33.0135 9.33646-27.5803C9.87936-26.0287 10.9092-24.2012 12.0858-22.7507L28.6582-2.80741C41.3662 12.5629 56.5825 17.2874 73.3751 11.1484ZM70.8223 3.29488C57.851 7.98429 45.9368 5.35036 34.7475-7.87741L18.0256-27.5804C17.6047-28.1155 17.3068-28.5781 17.0176-29.3214C16.5275-30.7223 17.1126-32.2879 18.7959-32.894C20.1492-33.4 21.2781-32.8854 22.3171-31.7337L33.967-20.0544C35.9077-18.0839 37.7306-17.8781 39.4988-18.5062C41.6453-19.2914 42.6568-21.5572 41.7493-23.9996L24.35-71.8896C23.7095-73.6155 24.463-75.2795 26.1442-75.8925C27.8603-76.5141 29.4584-75.6917 30.0886-73.9761L42.3341-40.2896C43.0398-38.4251 45.095-37.561 46.916-38.2667C48.7023-38.9187 49.6975-40.8883 49.0455-42.7093L44.7053-54.6478C45.2692-55.2316 46.1383-55.7737 46.9714-56.063C49.0082-56.832 50.7276-55.94 51.5138-53.843L55.4483-42.9777C56.1174-41.0633 58.171-40.3131 59.9559-40.9565C61.7323-41.5913 62.7774-43.5042 62.0545-45.3666L59.0249-53.7633C59.6425-54.314 60.5116-54.8893 61.3012-55.1786C63.3278-55.9042 65.0488-55.0225 65.8437-52.9152L68.4471-45.6881C69.1699-43.8051 71.2337-42.9927 73.0393-43.6463C74.7825-44.2811 75.8379-46.2249 75.1687-48.1513L73.4449-52.751C77.1948-54.1307 80.5796-51.2275 82.925-44.7317L86.5283-34.9351C93.1866-16.6307 87.1055-2.67295 70.8223 3.29488Z"/>
  </g>
  <g id="Regular-M" transform="matrix(1 0 0 1 1398.48 1126)">
   <path d="M71.2279 9.96254C90.6559 2.92612 98.9138-14.8609 91.0644-36.3329L87.4633-46.3369C83.611-56.9076 76.3359-61.2679 67.8031-58.2783C65.5094-61.2784 61.959-62.2964 58.1384-60.9363C56.7571-60.3861 55.4899-59.6691 54.3885-58.7651C51.8466-62.0241 47.9751-63.1973 43.9992-61.7337C42.9496-61.3387 41.8894-60.7875 40.9538-60.1012L35.4067-75.3402C33.2692-81.1305 28.0185-83.6197 22.5935-81.6385C17.1368-79.6362 14.6667-74.3971 16.7524-68.555L30.7252-30.3346C30.7875-30.0854 30.7358-29.8362 30.4866-29.7739C30.2996-29.7116 30.1539-29.7739 30.0188-29.9714L24.2697-36.1701C21.4459-39.1914 18.0412-40.1355 14.8034-38.9527C10.3099-37.3338 7.46701-33.0473 9.27285-28.0353C9.75018-26.635 10.7355-24.8924 11.8349-23.5026L28.2049-3.74603C40.5438 11.2498 55.0663 15.8584 71.2279 9.96254ZM69.1864 3.56973C56.3717 8.20138 44.366 5.83835 33.1064-7.72551L16.7057-27.4409C16.238-28.0333 15.9053-28.5634 15.5833-29.405C15.0321-30.9752 15.6983-32.7428 17.5695-33.4081C19.1175-33.9899 20.3867-33.3975 21.5725-32.0766L32.9004-20.413C34.7771-18.4635 36.4161-18.266 38.0762-18.8574C40.0162-19.5629 40.785-21.5958 40.0067-23.6815L22.7216-71.2281C22.0142-73.153 22.8558-75.0146 24.7385-75.7009C26.6624-76.3978 28.4195-75.4718 29.1269-73.5469L41.4593-39.623C42.0813-37.985 43.8841-37.2584 45.4704-37.8804C47.0155-38.4507 47.8953-40.1405 47.325-41.7268L42.8918-53.9154C43.4958-54.5912 44.4524-55.2047 45.3774-55.5268C47.6857-56.4 49.5885-55.3916 50.4829-53.0095L54.3533-42.3116C54.9447-40.5997 56.7581-39.9988 58.3127-40.5585C59.8568-41.1077 60.8104-42.7659 60.1673-44.4154L57.031-53.118C57.6867-53.742 58.6433-54.4073 59.5166-54.7294C61.8249-55.5509 63.7171-54.5424 64.622-52.1603L67.1956-44.9897C67.8388-43.3402 69.6522-42.6769 71.2068-43.2366C72.6991-43.7858 73.6528-45.444 73.0614-47.1453L71.1184-52.3512C75.2365-53.8591 79.0612-50.5042 81.7011-43.2085L84.7847-34.8502C91.504-16.3849 85.3816-2.36831 69.1864 3.56973Z"/>
  </g>
  <g id="Light-M" transform="matrix(1 0 0 1 1103.1 1126)">
   <path d="M69.4312 8.93589C87.73 2.31013 96.2445-14.3134 88.4978-35.5458L85.1191-44.8995C81.2839-55.436 74.4366-59.6937 66.2118-56.8067C64.0379-59.7213 60.5902-60.7735 56.8379-59.4305C55.4396-58.8974 54.1381-58.1291 52.9683-57.1738C50.6488-60.2617 46.9656-61.4178 43.1094-60.0055C41.9742-59.5763 40.8114-58.9396 39.7732-58.1505L34.0207-73.9542C32.0544-79.3339 27.1801-81.5151 22.3539-79.7563C17.4448-77.9422 15.1116-73.1993 17.0433-67.785L31.6492-27.8022C31.7115-27.553 31.6769-27.3038 31.4277-27.2415C31.2407-27.1792 31.0608-27.2415 30.9085-27.4561L23.4142-35.7252C20.6588-38.6952 17.391-39.5537 14.3585-38.4736C10.1559-36.9574 7.55257-32.8933 9.25574-28.2406C9.69885-26.9943 10.5644-25.4571 11.5269-24.2384L28.376-3.8658C39.9107 10.189 53.937 14.5922 69.4312 8.93589ZM67.8175 3.99751C54.9344 8.66338 42.7576 5.70146 32.2338-7.02396L15.4053-27.3896C14.8862-28.0333 14.5193-28.6147 14.1802-29.5077C13.5434-31.3003 14.3808-33.3075 16.4572-34.0412C18.0909-34.6572 19.5996-34.0135 20.9907-32.4701L32.1989-20.5841C33.7847-18.9084 35.2526-18.6938 36.7758-19.2339C38.5276-19.8709 39.3306-21.6643 38.6036-23.596L21.7805-69.8421C20.9362-72.1605 21.8291-74.313 24.037-75.102C26.2517-75.9187 28.2313-74.8045 29.0756-72.486L40.9973-39.7256C41.5166-38.3614 42.9088-37.6691 44.2384-38.1884C45.561-38.6732 46.15-40.0721 45.6652-41.4017L41.3176-53.3507C42.0927-54.1121 43.1862-54.8111 44.1968-55.1503C46.8131-56.1263 48.9725-54.9981 50.0038-52.1881L53.5833-42.3287C54.1234-40.7709 55.5432-40.3068 56.7898-40.7639C58.0088-41.1933 58.7914-42.5092 58.2167-44.0048L55.0461-52.7758C55.8558-53.5025 56.9494-54.2362 57.9253-54.5754C60.5416-55.5166 62.6734-54.3884 63.7323-51.5785L66.1348-44.9042C66.7095-43.4086 68.1293-42.8822 69.3759-43.3393C70.5602-43.7687 71.3428-45.0846 70.8027-46.6148L68.7399-52.1801C73.4741-53.9104 77.641-50.47 80.5204-42.5583L83.5527-34.2855C90.3576-15.5806 83.6021-1.76943 67.8175 3.99751Z"/>
  </g>
  <g id="Thin-M" transform="matrix(1 0 0 1 808.14 1126)">
   <path d="M67.055 7.57805C83.8601 1.49542 92.7141-13.5892 85.1032-34.5048L82.0187-42.9986C78.2061-53.4898 71.9246-57.6117 64.1072-54.8605C62.0916-57.662 58.7797-58.7594 55.118-57.439C53.697-56.9286 52.3503-56.0923 51.09-55.0692C49.0647-57.9307 45.6304-59.0642 41.9326-57.7198C40.6843-57.2454 39.3857-56.4955 38.2116-55.5707L32.1876-72.1211C30.4476-76.9577 26.0712-78.7315 22.0371-77.2669C17.8521-75.7018 15.7-71.6152 17.428-66.7666L32.8713-24.4529C32.9336-24.2037 32.9216-23.9545 32.6723-23.8921C32.4854-23.8298 32.2602-23.8921 32.0853-24.1294L22.2826-35.1368C19.6178-38.0389 16.5311-38.7843 13.7701-37.84C9.95225-36.4595 7.66572-32.6897 9.23311-28.5122C9.63096-27.4695 10.3381-26.2039 11.1195-25.2115L28.6023-4.02422C39.0734 8.78586 52.4434 12.9175 67.055 7.57805ZM66.0071 4.56327C53.0334 9.2744 40.6303 5.52041 31.0796-6.09611L13.6854-27.3217C13.0984-28.0333 12.6863-28.6826 12.3244-29.6435C11.5745-31.7303 12.6382-34.0543 14.9863-34.8785C16.733-35.5398 18.5586-34.8282 20.2213-32.9906L31.271-20.8104C32.4721-19.4968 33.7137-19.2596 35.0559-19.7317C36.5587-20.2782 37.407-21.7548 36.7479-23.4828L20.5359-68.009C19.5105-70.848 20.4713-73.3852 23.1091-74.31C25.7086-75.2851 27.9823-73.9219 29.0077-71.0829L40.3862-39.8614C40.7698-38.8593 41.6189-38.2122 42.609-38.5958C43.6374-38.9674 43.8416-39.9815 43.4701-40.9717L39.2356-52.6039C40.2369-53.4784 41.5116-54.2906 42.6353-54.6525C45.6589-55.7642 48.1578-54.4775 49.3701-51.1019L52.565-42.3514C53.0371-40.9972 53.9365-40.7142 54.7757-41.0354C55.5647-41.3064 56.1209-42.1697 55.6368-43.4616L52.4209-52.3232C53.4343-53.1857 54.7089-54.0099 55.8206-54.3717C58.8443-55.4714 61.2929-54.1848 62.5555-50.8091L64.7317-44.791C65.2158-43.4991 66.1152-43.1538 66.9544-43.4751C67.7314-43.7461 68.2877-44.6094 67.8155-45.9133L65.5943-51.9538C71.1431-53.9783 75.7626-50.4247 78.9589-41.6984L81.9233-33.5387C88.8413-14.517 81.2485-0.977358 66.0071 4.56327Z"/>
  </g>
  <g id="Ultralight-M" transform="matrix(1 0 0 1 512.327 1126)">
   <path d="M65.8379 6.88257C81.878 1.07814 90.9059-13.2183 83.3645-33.9716L80.4307-42.0249C76.6297-52.4929 70.6379-56.5453 63.0292-53.8636C61.0948-56.6071 57.8524-57.7278 54.2371-56.419C52.8045-55.9201 51.4346-55.0491 50.1279-53.9912C48.2533-56.7368 44.9465-57.8587 41.3299-56.549C40.0236-56.0515 38.6554-55.2436 37.4119-54.2492L31.2487-71.1822C29.6246-75.7406 25.5032-77.3058 21.8748-75.9919C18.0608-74.5543 16.0014-70.8038 17.6251-66.245L33.4972-22.7374C33.5595-22.4882 33.5591-22.2389 33.3099-22.1766C33.1229-22.1143 32.8746-22.1766 32.6881-22.4254L21.7031-34.8355C19.0846-37.7027 16.0906-38.3902 13.4688-37.5154C9.84793-36.2045 7.72368-32.5853 9.22151-28.6513C9.59618-27.7129 10.2222-26.5864 10.9109-25.7099L28.7183-4.10535C38.6445 8.0672 51.6784 12.0598 65.8379 6.88257ZM65.0798 4.85305C52.0598 9.58737 39.5407 5.42768 30.4885-5.62087L12.8044-27.2869C12.1827-28.0333 11.7474-28.7174 11.374-29.713C10.5661-31.9505 11.7457-34.4368 14.2328-35.3074C16.0376-35.9919 18.0254-35.2455 19.8272-33.2572L30.7958-20.9264C31.7998-19.7981 32.9255-19.5493 34.175-19.9867C35.5503-20.4869 36.4217-21.8011 35.7974-23.4249L19.8983-67.0701C18.7802-70.1757 19.7758-72.9099 22.6339-73.9043C25.4304-74.9605 27.8548-73.4698 28.9729-70.3643L40.0733-39.931C40.3873-39.1143 40.9582-38.4904 41.7744-38.8044C42.6522-39.1181 42.6593-39.9352 42.3457-40.7515L38.1692-52.2214C39.2865-53.1539 40.6538-54.024 41.8355-54.3974C45.0678-55.5787 47.7405-54.2109 49.0456-50.5455L52.0434-42.363C52.4807-41.1131 53.1135-40.9228 53.7441-41.1745C54.3128-41.3644 54.7532-41.9959 54.3154-43.1834L51.0764-52.0913C52.1941-53.0234 53.5614-53.894 54.7427-54.2674C57.9749-55.4482 60.5858-54.0804 61.9527-50.415L64.013-44.7331C64.4508-43.5455 65.0835-43.2929 65.7142-43.5446C66.2825-43.7345 66.7228-44.366 66.2854-45.554L63.9831-51.8379C69.9492-54.0131 74.8006-50.4015 78.1591-41.2579L81.0887-33.1562C88.0647-13.9722 80.043-0.571663 65.0798 4.85305Z"/>
  </g>
  <g id="Black-S" transform="matrix(1 0 0 1 2885.57 696)">
   <path d="M65.918 5.76172C86.2305-1.66016 93.457-17.6758 85.8398-38.5254L81.3965-50.8301C77.8809-60.4492 70.3125-64.8926 61.8164-62.3535C59.2285-64.6973 55.3711-65.2832 51.6602-63.9648C50.9766-63.7207 50.293-63.4277 49.707-63.0371C46.875-65.5762 43.5059-66.3574 39.9902-65.0391C39.9414-65.0391 39.8926-65.0391 39.8438-64.9902L37.8906-70.3613C35.4004-77.1973 29.248-80.2246 22.7051-77.832C15.8203-75.3418 12.8906-68.9941 15.3809-62.1582L23.0957-40.8691C23.1934-40.625 23.1445-40.4297 23.0469-40.3809C22.9492-40.332 22.8516-40.3809 22.7539-40.4297L22.5098-40.5762C19.9707-41.9922 16.9922-42.1875 14.0137-41.1133C8.05664-38.9648 5.41992-33.3496 7.56836-27.4414C8.25195-25.6348 9.22852-23.877 10.4492-22.5098L24.2676-6.10352C35.6445 7.37305 50.293 11.5234 65.918 5.76172ZM61.9141-6.10352C51.123-2.19727 42.1387-5.37109 33.6914-14.3555L19.2871-29.7852C19.1406-29.9805 19.043-30.0781 18.9453-30.2734C18.7988-30.7129 18.9453-31.1523 19.5312-31.3965C19.8242-31.4941 20.166-31.3965 20.4102-31.1523L30.8105-21.9238C32.5684-20.3125 34.7168-20.1172 36.5234-20.752C39.0137-21.6797 40.7715-24.3652 39.5508-27.6855L25.4883-66.5039C25.2441-67.0898 25.4883-67.627 26.0254-67.8223C26.5625-68.0176 27.1973-67.7734 27.3926-67.2363L36.6211-41.8457C37.5-39.502 40.0879-38.2812 42.4316-39.1602C44.7754-39.9902 45.9961-42.627 45.166-44.9707L42.1387-53.3203C42.4316-53.418 42.7734-53.5645 43.0664-53.6621C43.6035-53.8574 44.2383-53.6133 44.4336-53.0762L47.7539-43.9453C48.584-41.6504 51.123-40.4785 53.418-41.3086C55.7129-42.1387 56.8848-44.6289 56.0059-46.9238L54.0527-52.2949C54.3945-52.4414 54.7363-52.5391 55.0293-52.6367C55.5176-52.832 56.2012-52.6367 56.3965-52.0508L58.5449-46.1914C59.4238-43.7988 62.0117-42.5781 64.4043-43.457C66.748-44.2871 67.9688-46.9238 67.1387-49.3164L66.6504-50.5371C68.1641-51.123 69.0918-50.6348 69.7754-48.6816L74.6582-35.3027C79.6387-21.582 75-10.8887 61.9141-6.10352Z"/>
  </g>
  <g id="Heavy-S" transform="matrix(1 0 0 1 2590.5 696)">
   <path d="M63.7398 4.56317C82.9806-2.45534 89.9997-18.1137 82.7167-38.0414L78.6306-49.3665C75.2302-58.6745 68.0537-62.8873 59.9494-60.3828C57.5344-62.7381 53.919-63.3701 50.3694-62.1094C49.5936-61.8192 48.8409-61.4686 48.1973-61.0088C45.5382-63.5709 42.2266-64.3867 38.7917-63.103C38.57-63.0338 38.3483-62.9416 38.1497-62.7891L35.6549-69.6468C33.3375-75.9872 27.6231-78.7956 21.5526-76.5759C15.221-74.2815 12.5103-68.4064 14.8162-62.0545L23.2225-38.9215C23.3086-38.6889 23.2598-38.4936 23.1391-38.4447C23.0299-38.3959 22.9322-38.4447 22.8346-38.5166L21.7837-39.539C19.3138-41.1855 16.3929-41.5191 13.4951-40.4679C8.07969-38.5154 5.51212-33.4072 7.49921-27.9254C8.11366-26.2686 9.05565-24.5799 10.2072-23.2589L23.7375-7.14072C34.8032 6.03621 48.7372 10.0829 63.7398 4.56317ZM60.2545-5.84998C49.6479-2.01287 40.5829-4.80639 31.9627-14.2748L17.9733-29.6353C17.7807-29.8883 17.6485-30.0551 17.5163-30.3541C17.3122-30.9549 17.5278-31.5903 18.2981-31.892C18.7985-32.0704 19.2671-31.892 19.6495-31.4866L29.7042-22.3041C31.4274-20.6813 33.3915-20.4975 35.0944-21.0977C37.3772-21.9448 38.8584-24.3998 37.776-27.3398L23.7827-65.9392C23.4809-66.698 23.8172-67.4195 24.5387-67.684C25.2718-67.9484 26.0563-67.6121 26.3208-66.8906L35.6991-41.0851C36.4974-38.9603 38.8548-37.8894 40.968-38.6877C43.0698-39.4371 44.1983-41.7972 43.4489-43.9105L40.3063-52.5712C40.6223-52.7611 41.0448-52.9767 41.4299-53.1089C42.2321-53.408 43.0397-53.0486 43.3388-52.2464L46.6245-43.1962C47.3739-41.1087 49.694-40.0867 51.77-40.8361C53.8459-41.5855 54.9371-43.8337 54.1389-45.9097L52.0705-51.615C52.4354-51.8306 52.8578-52.0205 53.2315-52.1527C53.9963-52.4402 54.8413-52.1181 55.1403-51.2786L57.2772-45.4193C58.0755-43.2687 60.4329-42.1978 62.5834-42.9845C64.6852-43.7339 65.8137-46.0941 65.0643-48.2562L64.3455-50.1107C66.1934-50.8119 67.5706-49.8281 68.5538-47.0567L72.8604-35.2797C77.8985-21.4092 73.2944-10.6236 60.2545-5.84998Z"/>
  </g>
  <g id="Bold-S" transform="matrix(1 0 0 1 2295.62 696)">
   <path d="M61.3037 3.22266C79.3457-3.34473 86.1328-18.6035 79.2236-37.5L75.5371-47.7295C72.2656-56.6895 65.5273-60.6445 57.8613-58.1787C55.6396-60.5469 52.2949-61.2305 48.9258-60.0342C48.0469-59.6924 47.2168-59.2773 46.5088-58.7402C44.043-61.3281 40.7959-62.1826 37.4512-60.9375C37.0361-60.791 36.6211-60.5957 36.2549-60.3271L33.1543-68.8477C31.0303-74.6338 25.8057-77.1973 20.2637-75.1709C14.5508-73.0957 12.085-67.749 14.1846-61.9385L23.3643-36.7432C23.4375-36.5234 23.3887-36.3281 23.2422-36.2793C23.1201-36.2305 23.0225-36.2793 22.9248-36.377L20.9717-38.3789C18.5791-40.2832 15.7227-40.7715 12.915-39.7461C8.10547-38.0127 5.61523-33.4717 7.42188-28.4668C7.95898-26.9775 8.8623-25.3662 9.93652-24.0967L23.1445-8.30078C33.8623 4.54102 46.9971 8.47168 61.3037 3.22266ZM58.3984-5.56641C47.998-1.80664 38.8428-4.1748 30.0293-14.1846L16.5039-29.4678C16.2598-29.7852 16.0889-30.0293 15.918-30.4443C15.6494-31.2256 15.9424-32.0801 16.9189-32.4463C17.6514-32.7148 18.2617-32.4463 18.7988-31.8604L28.4668-22.7295C30.1514-21.0938 31.9092-20.9229 33.4961-21.4844C35.5469-22.2412 36.7188-24.4385 35.791-26.9531L21.875-65.3076C21.5088-66.2598 21.9482-67.1875 22.876-67.5293C23.8281-67.8711 24.7803-67.4316 25.1221-66.5039L34.668-40.2344C35.376-38.3545 37.4756-37.4512 39.3311-38.1592C41.1621-38.8184 42.1875-40.8691 41.5283-42.7246L38.2568-51.7334C38.5986-52.0264 39.1113-52.3193 39.5996-52.4902C40.6982-52.9053 41.6992-52.417 42.1143-51.3184L45.3613-42.3584C46.0205-40.5029 48.0957-39.6484 49.9268-40.3076C51.7578-40.9668 52.7588-42.9443 52.0508-44.7754L49.8535-50.8545C50.2441-51.1475 50.7568-51.4404 51.2207-51.6113C52.2949-52.002 53.3203-51.5381 53.7354-50.415L55.8594-44.5557C56.5674-42.6758 58.667-41.7725 60.5469-42.4561C62.3779-43.1152 63.4033-45.166 62.7441-47.0703L61.7676-49.6338C63.9893-50.4639 65.8691-48.9258 67.1875-45.2393L70.8496-35.2539C75.9521-21.2158 71.3867-10.3271 58.3984-5.56641Z"/>
  </g>
  <g id="Semibold-S" transform="matrix(1 0 0 1 2000.17 696)">
   <path d="M59.6241 2.29844C76.8396-3.95791 83.4668-18.9412 76.8153-37.1268L73.4043-46.6009C70.2217-55.3209 63.7855-59.0982 56.4217-56.6591C54.3333-59.0361 51.1752-59.7553 47.9305-58.6034C46.9805-58.2261 46.0971-57.7666 45.3446-57.1762C43.0121-59.7818 39.8095-60.663 36.527-59.4445C35.9786-59.2447 35.4303-58.9783 34.9485-58.6298L31.4303-68.2967C29.4396-73.7007 24.5526-76.0953 19.375-74.2022C14.0887-72.2781 11.7917-67.2958 13.7491-61.8585L23.462-35.2413C23.5264-35.0305 23.4775-34.8352 23.3133-34.7863C23.1823-34.7375 23.0847-34.7863 22.987-34.9018L20.4118-37.5791C18.0726-39.6611 15.2605-40.2561 12.5151-39.2484C8.12324-37.6661 5.68633-33.5161 7.36855-28.84C7.85234-27.4663 8.729-25.9083 9.7499-24.6743L22.7357-9.10059C33.2136 3.51016 45.7974 7.36084 59.6241 2.29844ZM57.1187-5.3709C46.8605-1.66445 37.6431-3.73936 28.6963-14.1224L15.4908-29.3522C15.2111-29.7141 15.0136-30.0115 14.816-30.5065C14.503-31.4122 14.8493-32.4178 15.9681-32.8284C16.8604-33.1592 17.5686-32.8284 18.2123-32.1181L27.6137-23.0228C29.2716-21.3781 30.8872-21.2161 32.3941-21.751C34.285-22.4456 35.2436-24.4651 34.4225-26.6865L20.5598-64.8722C20.1491-65.9576 20.6597-67.0275 21.7296-67.4227C22.8328-67.8178 23.9005-67.3072 24.2956-66.2373L33.957-39.6479C34.6028-37.9368 36.5247-37.149 38.2024-37.7948C39.8469-38.3918 40.8012-40.2293 40.2042-41.907L36.8438-51.1558C37.2034-51.5198 37.7783-51.8661 38.3377-52.0637C39.6407-52.5587 40.775-51.9815 41.27-50.6785L44.4904-41.7808C45.0874-40.0853 46.9937-39.3463 48.656-39.9433C50.3182-40.5402 51.2569-42.3312 50.6111-43.9934L48.325-50.3302C48.7334-50.6765 49.3083-51.0405 49.8344-51.2381C51.1219-51.6998 52.2717-51.1382 52.7667-49.8196L54.8818-43.9603C55.5276-42.267 57.4495-41.4792 59.1428-42.0917C60.7872-42.6887 61.7415-44.5262 61.1445-46.2527L59.9902-49.305C62.4696-50.2239 64.6961-48.3037 66.2455-43.9862L69.4633-35.2361C74.6103-21.0825 70.0715-10.1228 57.1187-5.3709Z"/>
  </g>
  <g id="Medium-S" transform="matrix(1 0 0 1 1704.41 696)">
   <path d="M58.3506 1.59766C74.9395-4.42285 81.4453-19.1973 74.9893-36.8438L71.7871-45.7451C68.6719-54.2832 62.4648-57.9258 55.3301-55.5068C53.3428-57.8906 50.3262-58.6367 47.1758-57.5186C46.1719-57.1143 45.248-56.6211 44.4619-55.9902C42.2305-58.6094 39.0615-59.5107 35.8262-58.3125C35.1768-58.0723 34.5273-57.752 33.958-57.3428L30.123-67.8789C28.2334-72.9932 23.6025-75.2598 18.7012-73.4678C13.7383-71.6582 11.5693-66.9521 13.4189-61.7979L23.5361-34.1025C23.5938-33.8984 23.5449-33.7031 23.3672-33.6543C23.2295-33.6055 23.1318-33.6543 23.0342-33.7832L19.9873-36.9727C17.6885-39.1895 14.9102-39.8652 12.2119-38.8711C8.13672-37.4033 5.74023-33.5498 7.32812-29.123C7.77148-27.8369 8.62793-26.3193 9.6084-25.1123L22.4258-9.70703C32.7217 2.72852 44.8877 6.51855 58.3506 1.59766ZM56.1484-5.22266C45.998-1.55664 36.7334-3.40918 27.6855-14.0752L14.7227-29.2646C14.416-29.6602 14.1982-29.998 13.9805-30.5537C13.6338-31.5537 14.0205-32.6738 15.2471-33.1182C16.2607-33.4961 17.043-33.1182 17.7676-32.3135L26.9668-23.2451C28.6045-21.5938 30.1123-21.4385 31.5586-21.9531C33.3281-22.6006 34.125-24.4854 33.3848-26.4844L19.5625-64.542C19.1182-65.7285 19.6826-66.9062 20.8604-67.3418C22.0781-67.7773 23.2334-67.2129 23.6689-66.0352L33.418-39.2031C34.0166-37.6201 35.8037-36.9199 37.3467-37.5186C38.8496-38.0684 39.75-39.7441 39.2002-41.2871L35.7725-50.7178C36.1455-51.1357 36.7676-51.5225 37.3809-51.7402C38.8389-52.2959 40.0742-51.6514 40.6299-50.1934L43.8301-41.3428C44.3799-39.7686 46.1582-39.1172 47.6924-39.667C49.2266-40.2168 50.1182-41.8662 49.5195-43.4004L47.166-49.9326C47.5879-50.3193 48.21-50.7373 48.7832-50.9551C50.2324-51.4707 51.4766-50.835 52.0322-49.3682L54.1406-43.5088C54.7393-41.957 56.5264-41.2568 58.0781-41.8154C59.5811-42.3652 60.4814-44.041 59.9316-45.6328L58.6426-49.0557C61.3174-50.042 63.8066-47.832 65.5312-43.0361L68.4121-35.2227C73.5928-20.9814 69.0742-9.96777 56.1484-5.22266Z"/>
  </g>
  <g id="Regular-S" transform="matrix(1 0 0 1 1408.95 696)">
   <path d="M56.6895 0.683594C72.4609-5.0293 78.8086-19.5312 72.6074-36.4746L69.6777-44.6289C66.6504-52.9297 60.7422-56.3965 53.9062-54.0039C52.0508-56.3965 49.2188-57.1777 46.1914-56.1035C45.1172-55.6641 44.1406-55.127 43.3105-54.4434C41.2109-57.0801 38.0859-58.0078 34.9121-56.8359C34.1309-56.543 33.3496-56.1523 32.666-55.6641L28.418-67.334C26.6602-72.0703 22.3633-74.1699 17.8223-72.5098C13.2812-70.8496 11.2793-66.5039 12.9883-61.7188L23.6328-32.6172C23.6816-32.4219 23.6328-32.2266 23.4375-32.1777C23.291-32.1289 23.1934-32.1777 23.0957-32.3242L19.4336-36.1816C17.1875-38.5742 14.4531-39.3555 11.8164-38.3789C8.1543-37.0605 5.81055-33.5938 7.27539-29.4922C7.66602-28.3203 8.49609-26.8555 9.42383-25.6836L22.0215-10.498C32.0801 1.70898 43.7012 5.41992 56.6895 0.683594ZM54.8828-5.0293C44.873-1.41602 35.5469-2.97852 26.3672-14.0137L13.7207-29.1504C13.3789-29.5898 13.1348-29.9805 12.8906-30.6152C12.5-31.7383 12.9395-33.0078 14.3066-33.4961C15.4785-33.9355 16.3574-33.4961 17.1875-32.5684L26.123-23.5352C27.7344-21.875 29.1016-21.7285 30.4688-22.2168C32.0801-22.8027 32.666-24.5117 32.0312-26.2207L18.2617-64.1113C17.7734-65.4297 18.4082-66.748 19.7266-67.2363C21.0938-67.7246 22.3633-67.0898 22.8516-65.7715L32.7148-38.623C33.252-37.207 34.8633-36.6211 36.2305-37.1582C37.5488-37.6465 38.3789-39.1113 37.8906-40.4785L34.375-50.1465C34.7656-50.6348 35.4492-51.0742 36.1328-51.3184C37.793-51.9531 39.1602-51.2207 39.7949-49.5605L42.9688-40.7715C43.457-39.3555 45.0684-38.8184 46.4355-39.3066C47.8027-39.7949 48.6328-41.2598 48.0957-42.627L45.6543-49.4141C46.0938-49.8535 46.7773-50.3418 47.4121-50.5859C49.0723-51.1719 50.4395-50.4395 51.0742-48.7793L53.1738-42.9199C53.7109-41.5527 55.3223-40.9668 56.6895-41.4551C58.0078-41.9434 58.8379-43.4082 58.3496-44.8242L56.8848-48.7305C59.8145-49.8047 62.6465-47.2168 64.5996-41.7969L67.041-35.2051C72.2656-20.8496 67.7734-9.76562 54.8828-5.0293Z"/>
  </g>
  <g id="Light-S" transform="matrix(1 0 0 1 1113.41 696)">
   <path d="M55.1001-0.224602C69.8726-5.57421 76.4473-19.0469 70.3369-35.7783L67.604-43.3574C64.5918-51.6279 59.062-55.0039 52.4985-52.7022C50.749-55.0191 48.0078-55.8306 45.041-54.7715C43.9517-54.3472 42.9448-53.7647 42.0542-53.0357C40.1514-55.521 37.1929-56.4336 34.125-55.3071C33.2681-54.9839 32.396-54.5176 31.6216-53.9385L27.1919-66.1079C25.5855-70.481 21.6216-72.3081 17.6104-70.8447C13.5537-69.3511 11.6728-65.4443 13.2456-61.0376L24.4502-30.377C24.499-30.1817 24.4653-29.9863 24.27-29.9375C24.1235-29.8887 23.9956-29.9375 23.8828-30.0991L18.6768-35.7881C16.4912-38.1353 13.8779-38.8408 11.4229-37.9551C8.01807-36.7275 5.88623-33.4575 7.26025-29.6738C7.62061-28.6382 8.34473-27.355 9.15137-26.3345L22.1729-10.604C31.52 0.770515 42.7022 4.29981 55.1001-0.224602ZM53.6719-4.65088C43.6016-1.00733 34.124-3.09961 25.5952-13.3931L12.5703-29.105C12.1831-29.5898 11.9087-30.0259 11.6494-30.7061C11.1831-32.0259 11.7739-33.5073 13.3228-34.0561C14.5703-34.5259 15.6611-34.041 16.6729-32.9165L25.5024-23.6865C26.8565-22.2686 28.0723-22.1069 29.3184-22.5498C30.7632-23.0752 31.3794-24.5723 30.79-26.145L17.4292-62.8853C16.8198-64.5518 17.5-66.1274 19.106-66.7065C20.7305-67.3008 22.1968-66.4995 22.8062-64.833L32.3062-38.7139C32.7524-37.54 34.0005-36.9844 35.1406-37.4307C36.2622-37.8433 36.835-39.0508 36.4224-40.1909L32.9824-49.647C33.5244-50.2109 34.3291-50.7261 35.0884-50.9854C37.021-51.7109 38.6152-50.8726 39.3711-48.834L42.2876-40.7866C42.7305-39.5068 43.9937-39.0908 45.0884-39.4883C46.168-39.8706 46.8467-41.0327 46.3701-42.2637L43.8985-49.1113C44.4741-49.6416 45.2788-50.1904 46.0044-50.4497C47.937-51.1416 49.5161-50.3032 50.2871-48.2647L52.2354-42.8442C52.7119-41.6133 53.9751-41.1484 55.0698-41.5459C56.1157-41.9282 56.7944-43.0903 56.3516-44.355L54.7808-48.5791C58.2554-49.8501 61.3901-47.1865 63.5552-41.2217L65.9512-34.7056C71.2515-20.1382 66.1992-9.23584 53.6719-4.65088Z"/>
  </g>
  <g id="Thin-S" transform="matrix(1 0 0 1 818.253 696)">
   <path d="M52.9981-1.42576C66.4493-6.29491 73.3243-18.4063 67.334-34.8574L64.8614-41.6758C61.8692-49.9063 56.8399-53.1621 50.6367-50.9805C49.0274-53.1973 46.4063-54.0489 43.5196-53.0098C42.4102-52.6055 41.3633-51.9629 40.3926-51.1739C38.75-53.459 36.0117-54.3516 33.084-53.2852C32.127-52.9219 31.1348-52.3555 30.2403-51.6563L25.5703-64.4864C24.1641-68.3789 20.6406-69.8457 17.3301-68.6426C13.9141-67.3692 12.1934-64.043 13.5859-60.1367L25.5312-27.4141C25.5801-27.2188 25.5664-27.0235 25.3711-26.9747C25.2246-26.9258 25.0566-26.9747 24.9238-27.1563L17.6758-35.2676C15.5703-37.5547 13.1172-38.1602 10.9024-37.3945C7.83789-36.2871 5.98633-33.2773 7.24023-29.9141C7.56055-29.0586 8.14453-28.0156 8.79102-27.1953L22.373-10.7441C30.7793-0.470686 41.3809 2.81838 52.9981-1.42576ZM52.0703-4.1504C41.9199-0.466804 32.2422-3.25976 24.5742-12.5723L11.0488-29.0449C10.6016-29.5898 10.2871-30.0859 10.0078-30.8262C9.44143-32.4062 10.2324-34.168 12.0215-34.7969C13.3692-35.3066 14.7402-34.7617 15.9922-33.3769L24.6817-23.8867C25.6953-22.7891 26.711-22.6074 27.7969-22.9902C29.0215-23.4355 29.6778-24.6523 29.1485-26.0449L16.3281-61.2637C15.5586-63.3906 16.2988-65.3067 18.2852-66.0059C20.25-66.7402 21.9766-65.7188 22.7461-63.5918L31.7656-38.834C32.0918-37.9805 32.8594-37.4648 33.6992-37.791C34.5606-38.1035 34.793-38.9707 34.4805-39.8106L31.1407-48.9863C31.8828-49.6504 32.8477-50.2656 33.7071-50.5449C36-51.3906 37.8945-50.4121 38.8106-47.8731L41.3867-40.8066C41.7695-39.707 42.5723-39.4512 43.3067-39.7285C44.0059-39.9707 44.4844-40.7324 44.0879-41.7832L41.5762-48.7109C42.3321-49.3613 43.2969-49.9902 44.1426-50.2695C46.4356-51.1016 48.2949-50.123 49.2461-47.584L50.9942-42.7441C51.3906-41.6934 52.1934-41.3887 52.9278-41.666C53.6133-41.9082 54.0918-42.6699 53.709-43.7344L51.9981-48.3789C56.1934-49.9102 59.7285-47.1465 62.1738-40.4609L64.5098-34.0449C69.9102-19.1973 64.1172-8.53517 52.0703-4.1504Z"/>
  </g>
  <g id="Ultralight-S" transform="matrix(1 0 0 1 522.337 696)">
   <path d="M51.9214-2.04099C64.6959-6.66405 71.7247-18.0781 65.796-34.3858L63.4566-40.8145C60.4747-49.0244 55.7017-52.2188 49.6831-50.0987C48.1455-52.2642 45.586-53.1363 42.7403-52.1075C41.6206-51.7134 40.5533-51.0401 39.5415-50.2202C38.0323-52.4029 35.4068-53.2852 32.5508-52.2495C31.5425-51.8658 30.4888-51.2481 29.5327-50.4873L24.7398-63.6558C23.4361-67.3023 20.1382-68.5845 17.1865-67.5147C14.0986-66.354 12.46-63.3252 13.7602-59.6753L26.0849-25.8965C26.1338-25.7012 26.1304-25.5059 25.935-25.4571C25.7886-25.4083 25.6001-25.4571 25.457-25.649L17.1631-35.001C15.0986-37.2573 12.7276-37.8115 10.6358-37.1074C7.74561-36.0615 6.0376-33.1851 7.22998-30.0371C7.52979-29.2739 8.042-28.354 8.60645-27.6362L22.4756-10.8159C30.3999-1.10642 40.7041 2.0596 51.9214-2.04099ZM51.25-3.89405C41.0586-0.189951 31.2784-3.34179 24.0513-12.1519L10.2696-29.0142C9.79153-29.5898 9.45657-30.1167 9.16702-30.8877C8.54935-32.6011 9.4429-34.5063 11.355-35.1763C12.7539-35.7065 14.2686-35.1308 15.6436-33.6128L24.2612-23.9893C25.1006-23.0557 26.0137-22.8638 27.0176-23.2158C28.1294-23.6201 28.8062-24.6934 28.3076-25.9937L15.7642-60.4331C14.9126-62.7959 15.6836-64.8862 17.8648-65.647C20.0039-66.4531 21.8638-65.3189 22.7153-62.9561L31.4888-38.8955C31.7534-38.206 32.2749-37.7109 32.961-37.9756C33.689-38.2368 33.7471-38.9297 33.4859-39.6157L30.1973-48.648C31.042-49.3633 32.0889-50.0298 32.9995-50.3193C35.4771-51.2266 37.5254-50.1763 38.5234-47.3809L40.9253-40.8169C41.2774-39.8096 41.8443-39.6357 42.3941-39.8516C42.8985-40.022 43.2745-40.5786 42.919-41.5371L40.3868-48.5059C41.2349-49.2178 42.2818-49.8877 43.189-50.1772C45.6665-51.0811 47.6695-50.0308 48.7129-47.2354L50.3584-42.6929C50.7139-41.7344 51.2808-41.5117 51.8306-41.7275C52.3316-41.8979 52.7076-42.4546 52.3555-43.4165L50.5728-48.2764C55.1372-49.9409 58.8775-47.126 61.4663-40.0713L63.7715-33.7066C69.2232-18.7153 63.0508-8.17628 51.25-3.89405Z"/>
  </g>
 </g>
</svg>
