<?xml version="1.0" encoding="UTF-8"?>
<!--Generator: Apple Native CoreSVG 175.5-->
<!DOCTYPE svg
PUBLIC "-//W3C//DTD SVG 1.1//EN"
       "http://www.w3.org/Graphics/SVG/1.1/DTD/svg11.dtd">
<svg version="1.1" xmlns="http://www.w3.org/2000/svg" xmlns:xlink="http://www.w3.org/1999/xlink" width="3300" height="2200">
 <!--glyph: "uni100833.medium", point size: 100.0, font version: "18.0d12e2", template writer version: "101"-->
 <g id="Notes">
  <rect height="2200" id="artboard" style="fill:white;opacity:1" width="3300" x="0" y="0"/>
  <line style="fill:none;stroke:black;opacity:1;stroke-width:0.5;" x1="263" x2="3036" y1="292" y2="292"/>
  <text style="stroke:none;fill:black;font-family:sans-serif;font-size:13;font-weight:bold;" transform="matrix(1 0 0 1 263 322)">Weight/Scale Variations</text>
  <text style="stroke:none;fill:black;font-family:sans-serif;font-size:13;text-anchor:middle;" transform="matrix(1 0 0 1 559.711 322)">Ultralight</text>
  <text style="stroke:none;fill:black;font-family:sans-serif;font-size:13;text-anchor:middle;" transform="matrix(1 0 0 1 856.422 322)">Thin</text>
  <text style="stroke:none;fill:black;font-family:sans-serif;font-size:13;text-anchor:middle;" transform="matrix(1 0 0 1 1153.13 322)">Light</text>
  <text style="stroke:none;fill:black;font-family:sans-serif;font-size:13;text-anchor:middle;" transform="matrix(1 0 0 1 1449.84 322)">Regular</text>
  <text style="stroke:none;fill:black;font-family:sans-serif;font-size:13;text-anchor:middle;" transform="matrix(1 0 0 1 1746.56 322)">Medium</text>
  <text style="stroke:none;fill:black;font-family:sans-serif;font-size:13;text-anchor:middle;" transform="matrix(1 0 0 1 2043.27 322)">Semibold</text>
  <text style="stroke:none;fill:black;font-family:sans-serif;font-size:13;text-anchor:middle;" transform="matrix(1 0 0 1 2339.98 322)">Bold</text>
  <text style="stroke:none;fill:black;font-family:sans-serif;font-size:13;text-anchor:middle;" transform="matrix(1 0 0 1 2636.69 322)">Heavy</text>
  <text style="stroke:none;fill:black;font-family:sans-serif;font-size:13;text-anchor:middle;" transform="matrix(1 0 0 1 2933.4 322)">Black</text>
  <line style="fill:none;stroke:black;opacity:1;stroke-width:0.5;" x1="263" x2="3036" y1="1903" y2="1903"/>
  <g transform="matrix(1 0 0 1 263 1933)">
   <path d="M9.24805 0.830078C13.5547 0.830078 17.1387-2.74414 17.1387-7.05078C17.1387-11.3574 13.5449-14.9316 9.23828-14.9316C4.94141-14.9316 1.36719-11.3574 1.36719-7.05078C1.36719-2.74414 4.95117 0.830078 9.24805 0.830078ZM9.24805-0.654297C5.70312-0.654297 2.87109-3.49609 2.87109-7.05078C2.87109-10.6055 5.69336-13.4473 9.23828-13.4473C12.793-13.4473 15.6445-10.6055 15.6445-7.05078C15.6445-3.49609 12.8027-0.654297 9.24805-0.654297ZM5.6543-7.05078C5.6543-6.62109 5.95703-6.32812 6.40625-6.32812L8.50586-6.32812L8.50586-4.20898C8.50586-3.76953 8.79883-3.4668 9.22852-3.4668C9.67773-3.4668 9.9707-3.76953 9.9707-4.20898L9.9707-6.32812L12.0898-6.32812C12.5293-6.32812 12.832-6.62109 12.832-7.05078C12.832-7.49023 12.5293-7.79297 12.0898-7.79297L9.9707-7.79297L9.9707-9.90234C9.9707-10.3516 9.67773-10.6543 9.22852-10.6543C8.79883-10.6543 8.50586-10.3516 8.50586-9.90234L8.50586-7.79297L6.40625-7.79297C5.95703-7.79297 5.6543-7.49023 5.6543-7.05078Z"/>
  </g>
  <g transform="matrix(1 0 0 1 281.867 1933)">
   <path d="M11.709 2.91016C17.1582 2.91016 21.6699-1.61133 21.6699-7.05078C21.6699-12.5 17.1484-17.0117 11.6992-17.0117C6.25977-17.0117 1.74805-12.5 1.74805-7.05078C1.74805-1.61133 6.26953 2.91016 11.709 2.91016ZM11.709 1.25C7.09961 1.25 3.41797-2.44141 3.41797-7.05078C3.41797-11.6602 7.08984-15.3516 11.6992-15.3516C16.3086-15.3516 20.0098-11.6602 20.0098-7.05078C20.0098-2.44141 16.3184 1.25 11.709 1.25ZM7.17773-7.05078C7.17773-6.57227 7.50977-6.25 8.00781-6.25L10.8789-6.25L10.8789-3.36914C10.8789-2.88086 11.2109-2.53906 11.6895-2.53906C12.1777-2.53906 12.5195-2.87109 12.5195-3.36914L12.5195-6.25L15.4004-6.25C15.8887-6.25 16.2305-6.57227 16.2305-7.05078C16.2305-7.53906 15.8887-7.88086 15.4004-7.88086L12.5195-7.88086L12.5195-10.752C12.5195-11.25 12.1777-11.5918 11.6895-11.5918C11.2109-11.5918 10.8789-11.25 10.8789-10.752L10.8789-7.88086L8.00781-7.88086C7.50977-7.88086 7.17773-7.53906 7.17773-7.05078Z"/>
  </g>
  <g transform="matrix(1 0 0 1 305.646 1933)">
   <path d="M14.9707 5.66406C21.9336 5.66406 27.6953-0.0976562 27.6953-7.05078C27.6953-14.0137 21.9238-19.7754 14.9609-19.7754C8.00781-19.7754 2.25586-14.0137 2.25586-7.05078C2.25586-0.0976562 8.01758 5.66406 14.9707 5.66406ZM14.9707 3.84766C8.93555 3.84766 4.08203-1.01562 4.08203-7.05078C4.08203-13.0957 8.92578-17.9492 14.9609-17.9492C21.0059-17.9492 25.8691-13.0957 25.8691-7.05078C25.8691-1.01562 21.0156 3.84766 14.9707 3.84766ZM9.19922-7.05078C9.19922-6.5332 9.57031-6.17188 10.1172-6.17188L14.0625-6.17188L14.0625-2.2168C14.0625-1.67969 14.4336-1.29883 14.9512-1.29883C15.4883-1.29883 15.8594-1.66992 15.8594-2.2168L15.8594-6.17188L19.8145-6.17188C20.3516-6.17188 20.7324-6.5332 20.7324-7.05078C20.7324-7.59766 20.3613-7.96875 19.8145-7.96875L15.8594-7.96875L15.8594-11.9141C15.8594-12.4609 15.4883-12.8418 14.9512-12.8418C14.4336-12.8418 14.0625-12.4609 14.0625-11.9141L14.0625-7.96875L10.1172-7.96875C9.57031-7.96875 9.19922-7.59766 9.19922-7.05078Z"/>
  </g>
  <text style="stroke:none;fill:black;font-family:sans-serif;font-size:13;font-weight:bold;" transform="matrix(1 0 0 1 263 1953)">Design Variations</text>
  <text style="stroke:none;fill:black;font-family:sans-serif;font-size:13;" transform="matrix(1 0 0 1 263 1971)">Symbols are supported in up to nine weights and three scales.</text>
  <text style="stroke:none;fill:black;font-family:sans-serif;font-size:13;" transform="matrix(1 0 0 1 263 1989)">For optimal layout with text and other symbols, vertically align</text>
  <text style="stroke:none;fill:black;font-family:sans-serif;font-size:13;" transform="matrix(1 0 0 1 263 2007)">symbols with the adjacent text.</text>
  <line style="fill:none;stroke:#00AEEF;stroke-width:0.5;opacity:1.0;" x1="776" x2="776" y1="1919" y2="1933"/>
  <g transform="matrix(1 0 0 1 776 1933)">
   <path d="M3.31055 0.15625C3.82812 0.15625 4.08203-0.0390625 4.26758-0.585938L5.52734-4.0332L11.2891-4.0332L12.5488-0.585938C12.7344-0.0390625 12.9883 0.15625 13.4961 0.15625C14.0137 0.15625 14.3457-0.15625 14.3457-0.644531C14.3457-0.810547 14.3164-0.966797 14.2383-1.17188L9.6582-13.3691C9.43359-13.9648 9.0332-14.2676 8.4082-14.2676C7.80273-14.2676 7.39258-13.9746 7.17773-13.3789L2.59766-1.16211C2.51953-0.957031 2.49023-0.800781 2.49023-0.634766C2.49023-0.146484 2.80273 0.15625 3.31055 0.15625ZM6.00586-5.51758L8.37891-12.0898L8.42773-12.0898L10.8008-5.51758Z"/>
  </g>
  <line style="fill:none;stroke:#00AEEF;stroke-width:0.5;opacity:1.0;" x1="793.197" x2="793.197" y1="1919" y2="1933"/>
  <text style="stroke:none;fill:black;font-family:sans-serif;font-size:13;font-weight:bold;" transform="matrix(1 0 0 1 776 1953)">Margins</text>
  <text style="stroke:none;fill:black;font-family:sans-serif;font-size:13;" transform="matrix(1 0 0 1 776 1971)">Leading and trailing margins on the left and right side of each symbol</text>
  <text style="stroke:none;fill:black;font-family:sans-serif;font-size:13;" transform="matrix(1 0 0 1 776 1989)">can be adjusted by modifying the x-location of the margin guidelines.</text>
  <text style="stroke:none;fill:black;font-family:sans-serif;font-size:13;" transform="matrix(1 0 0 1 776 2007)">Modifications are automatically applied proportionally to all</text>
  <text style="stroke:none;fill:black;font-family:sans-serif;font-size:13;" transform="matrix(1 0 0 1 776 2025)">scales and weights.</text>
  <g transform="matrix(1 0 0 1 1289 1933)">
   <path d="M2.8418 1.86523L4.54102 3.57422C5.40039 4.44336 6.38672 4.38477 7.31445 3.35938L18.0078-8.42773L17.041-9.4043L6.42578 2.27539C6.07422 2.67578 5.74219 2.77344 5.27344 2.30469L4.10156 1.14258C3.63281 0.683594 3.74023 0.341797 4.14062-0.0195312L15.6152-10.8203L14.6387-11.7871L3.04688-0.898438C2.06055 0.0195312 1.98242 0.996094 2.8418 1.86523ZM9.25781-16.3281C8.83789-15.918 8.80859-15.3418 9.04297-14.9512C9.27734-14.5898 9.73633-14.3555 10.3809-14.5215C11.8457-14.8633 13.3691-14.9219 14.7949-13.9844L14.209-12.5293C13.8672-11.6992 14.043-11.1133 14.5801-10.5664L16.875-8.25195C17.3633-7.76367 17.7734-7.74414 18.3398-7.8418L19.4043-8.03711L20.0684-7.36328L20.0293-6.80664C19.9902-6.30859 20.1172-5.92773 20.6055-5.44922L21.3672-4.70703C21.8457-4.22852 22.4609-4.19922 22.9297-4.66797L25.8398-7.58789C26.3086-8.05664 26.2891-8.65234 25.8105-9.13086L25.0391-9.89258C24.5605-10.3711 24.1895-10.5273 23.7109-10.4883L23.1348-10.4395L22.4902-11.0742L22.7344-12.1973C22.8613-12.7637 22.7051-13.2031 22.1191-13.7891L19.9219-15.9766C16.582-19.2969 12.1484-19.2188 9.25781-16.3281ZM10.752-15.957C13.1836-17.7344 16.4746-17.4316 18.7012-15.2051L21.1328-12.793C21.3672-12.5586 21.4062-12.373 21.3379-12.0312L21.0156-10.5469L22.5195-9.0625L23.5059-9.12109C23.7598-9.13086 23.8379-9.11133 24.0332-8.91602L24.6094-8.33984L22.168-5.89844L21.5918-6.47461C21.3965-6.66992 21.3672-6.74805 21.377-7.01172L21.4453-7.98828L19.9512-9.47266L18.4277-9.21875C18.1055-9.15039 17.959-9.17969 17.7148-9.41406L15.7129-11.416C15.459-11.6504 15.4297-11.8164 15.5859-12.1875L16.4648-14.2773C14.9023-15.7324 12.8711-16.3574 10.8398-15.7617C10.6836-15.7227 10.625-15.8496 10.752-15.957Z"/>
  </g>
  <text style="stroke:none;fill:black;font-family:sans-serif;font-size:13;font-weight:bold;" transform="matrix(1 0 0 1 1289 1953)">Exporting</text>
  <text style="stroke:none;fill:black;font-family:sans-serif;font-size:13;" transform="matrix(1 0 0 1 1289 1971)">Symbols should be outlined when exporting to ensure the</text>
  <text style="stroke:none;fill:black;font-family:sans-serif;font-size:13;" transform="matrix(1 0 0 1 1289 1989)">design is preserved when submitting to Xcode.</text>
  <text id="template-version" style="stroke:none;fill:black;font-family:sans-serif;font-size:13;text-anchor:end;" transform="matrix(1 0 0 1 3036 1933)">Template v.4.0</text>
  <text style="stroke:none;fill:black;font-family:sans-serif;font-size:13;text-anchor:end;" transform="matrix(1 0 0 1 3036 1951)">Requires Xcode 14 or greater</text>
  <text id="descriptive-name" style="stroke:none;fill:black;font-family:sans-serif;font-size:13;text-anchor:end;" transform="matrix(1 0 0 1 3036 1969)">Generated from pip</text>
  <text style="stroke:none;fill:black;font-family:sans-serif;font-size:13;text-anchor:end;" transform="matrix(1 0 0 1 3036 1987)">Typeset at 100 points</text>
  <text style="stroke:none;fill:black;font-family:sans-serif;font-size:13;" transform="matrix(1 0 0 1 263 726)">Small</text>
  <text style="stroke:none;fill:black;font-family:sans-serif;font-size:13;" transform="matrix(1 0 0 1 263 1156)">Medium</text>
  <text style="stroke:none;fill:black;font-family:sans-serif;font-size:13;" transform="matrix(1 0 0 1 263 1586)">Large</text>
 </g>
 <g id="Guides">
  <g id="H-reference" style="fill:#27AAE1;stroke:none;" transform="matrix(1 0 0 1 339 696)">
   <path d="M0.993654 0L3.63775 0L29.3281-67.1323L30.0303-67.1323L30.0303-70.459L28.1226-70.459ZM11.6885-24.4799L46.9815-24.4799L46.2315-26.7285L12.4385-26.7285ZM55.1196 0L57.7637 0L30.6382-70.459L29.4326-70.459L29.4326-67.1323Z"/>
  </g>
  <line id="Baseline-S" style="fill:none;stroke:#27AAE1;opacity:1;stroke-width:0.5;" x1="263" x2="3036" y1="696" y2="696"/>
  <line id="Capline-S" style="fill:none;stroke:#27AAE1;opacity:1;stroke-width:0.5;" x1="263" x2="3036" y1="625.541" y2="625.541"/>
  <g id="H-reference" style="fill:#27AAE1;stroke:none;" transform="matrix(1 0 0 1 339 1126)">
   <path d="M0.993654 0L3.63775 0L29.3281-67.1323L30.0303-67.1323L30.0303-70.459L28.1226-70.459ZM11.6885-24.4799L46.9815-24.4799L46.2315-26.7285L12.4385-26.7285ZM55.1196 0L57.7637 0L30.6382-70.459L29.4326-70.459L29.4326-67.1323Z"/>
  </g>
  <line id="Baseline-M" style="fill:none;stroke:#27AAE1;opacity:1;stroke-width:0.5;" x1="263" x2="3036" y1="1126" y2="1126"/>
  <line id="Capline-M" style="fill:none;stroke:#27AAE1;opacity:1;stroke-width:0.5;" x1="263" x2="3036" y1="1055.54" y2="1055.54"/>
  <g id="H-reference" style="fill:#27AAE1;stroke:none;" transform="matrix(1 0 0 1 339 1556)">
   <path d="M0.993654 0L3.63775 0L29.3281-67.1323L30.0303-67.1323L30.0303-70.459L28.1226-70.459ZM11.6885-24.4799L46.9815-24.4799L46.2315-26.7285L12.4385-26.7285ZM55.1196 0L57.7637 0L30.6382-70.459L29.4326-70.459L29.4326-67.1323Z"/>
  </g>
  <line id="Baseline-L" style="fill:none;stroke:#27AAE1;opacity:1;stroke-width:0.5;" x1="263" x2="3036" y1="1556" y2="1556"/>
  <line id="Capline-L" style="fill:none;stroke:#27AAE1;opacity:1;stroke-width:0.5;" x1="263" x2="3036" y1="1485.54" y2="1485.54"/>
  <line id="left-margin-Regular-M" style="fill:none;stroke:#00AEEF;stroke-width:0.5;opacity:1.0;" x1="1374.14" x2="1374.14" y1="1030.79" y2="1150.12"/>
  <line id="right-margin-Regular-M" style="fill:none;stroke:#00AEEF;stroke-width:0.5;opacity:1.0;" x1="1525.54" x2="1525.54" y1="1030.79" y2="1150.12"/>
 </g>
 <g id="Symbols">
  <g id="Black-L" transform="matrix(1 0 0 1 2829.52 1556)">
   <path d="M39.8556 5.0591L85.0854 5.0591L85.0854-14.9219L42.5864-14.9219C38.2704-14.9219 36.065-16.8521 36.065-21.4849L36.065-81.6057C36.065-86.2385 38.2704-88.1687 42.5864-88.1687L130.721-88.1687C135.033-88.1687 137.243-86.2385 137.243-81.6057L137.243-47.8776L157.224-47.8776L157.224-84.4613C157.224-99.5606 148.595-108.15 133.452-108.15L39.8556-108.15C24.6915-108.15 16.084-99.563 16.084-84.4613L16.084-18.6293C16.084-3.52762 24.6915 5.0591 39.8556 5.0591ZM99.5691 37.7736L167.91 37.7736C183.055 37.7736 191.682 29.1845 191.682 14.0852L191.682-31.3813C191.682-46.461 183.055-55.0697 167.91-55.0697L99.5691-55.0697C84.4246-55.0697 75.7974-46.4842 75.7974-31.3813L75.7974 14.0852C75.7974 29.1868 84.4246 37.7736 99.5691 37.7736ZM102.3 17.7925C97.9839 17.7925 95.7772 15.8624 95.7772 11.2295L95.7772-28.5269C95.7772-33.1585 97.9839-35.0899 102.3-35.0899L165.18-35.0899C169.491-35.0899 171.702-33.1585 171.702-28.5269L171.702 11.2295C171.702 15.8624 169.491 17.7925 165.18 17.7925Z"/>
  </g>
  <g id="Heavy-L" transform="matrix(1 0 0 1 2534.35 1556)">
   <path d="M38.8315 4.22978L84.2935 4.22978L84.2935-13.2706L40.9557-13.2706C36.118-13.2706 33.5844-15.5653 33.5844-20.7023L33.5844-81.4285C33.5844-86.5655 36.118-88.8602 40.9557-88.8602L129.908-88.8602C134.723-88.8602 137.279-86.5655 137.279-81.4285L137.279-47.191L154.78-47.191L154.78-83.7339C154.78-98.2749 146.645-106.361 132.032-106.361L38.8315-106.361C24.1886-106.361 16.084-98.2862 16.084-83.7339L16.084-18.397C16.084-3.84465 24.1886 4.22978 38.8315 4.22978ZM98.9553 35.9933L165.837 35.9933C180.455 35.9933 188.584 27.9076 188.584 13.3665L188.584-31.0481C188.584-45.5646 180.455-53.6749 165.837-53.6749L98.9553-53.6749C84.337-53.6749 76.2078-45.606 76.2078-31.0481L76.2078 13.3665C76.2078 27.9188 84.337 35.9933 98.9553 35.9933ZM101.08 18.4929C96.2418 18.4929 93.7026 16.1981 93.7026 11.0612L93.7026-28.7484C93.7026-33.8797 96.2418-36.1801 101.08-36.1801L163.713-36.1801C168.528-36.1801 171.09-33.8797 171.09-28.7484L171.09 11.0612C171.09 16.1981 168.528 18.4929 163.713 18.4929Z"/>
  </g>
  <g id="Bold-L" transform="matrix(1 0 0 1 2239.54 1556)">
   <path d="M37.5412 3.26727L83.0865 3.26727L83.0865-11.1745L38.987-11.1745C33.4665-11.1745 30.5257-13.9225 30.5257-19.7117L30.5257-81.1313C30.5257-86.9205 33.4665-89.6685 38.987-89.6685L128.864-89.6685C134.332-89.6685 137.325-86.9205 137.325-81.1313L137.325-46.5915L151.767-46.5915L151.767-82.805C151.767-96.6172 144.224-104.11 130.31-104.11L37.5412-104.11C23.5885-104.11 16.084-96.6437 16.084-82.805L16.084-18.038C16.084-4.1993 23.5885 3.26727 37.5412 3.26727ZM97.9636 33.7582L163.33 33.7582C177.258 33.7582 184.787 26.2651 184.787 12.4529L184.787-30.8494C184.787-44.6369 177.258-52.1547 163.33-52.1547L97.9636-52.1547C84.0356-52.1547 76.5063-44.7013 76.5063-30.8494L76.5063 12.4529C76.5063 26.2916 84.0356 33.7582 97.9636 33.7582ZM99.4094 19.3164C93.8889 19.3164 90.9349 16.5684 90.9349 10.7792L90.9349-29.1889C90.9349-34.9649 93.8889-37.7261 99.4094-37.7261L161.884-37.7261C167.352-37.7261 170.359-34.9649 170.359-29.1889L170.359 10.7792C170.359 16.5684 167.352 19.3164 161.884 19.3164Z"/>
  </g>
  <g id="Semibold-L" transform="matrix(1 0 0 1 1944.14 1556)">
   <path d="M36.6517 2.60373L82.2544 2.60373L82.2544-9.72941L37.6298-9.72941C31.6387-9.72941 28.4171-12.7899 28.4171-19.0288L28.4171-80.9263C28.4171-87.1652 31.6387-90.2258 37.6298-90.2258L128.144-90.2258C134.062-90.2258 137.357-87.1652 137.357-80.9263L137.357-46.1783L149.69-46.1783L149.69-82.1646C149.69-95.4744 142.556-102.559 129.122-102.559L36.6517-102.559C23.1749-102.559 16.084-95.5114 16.084-82.1646L16.084-17.7906C16.084-4.44379 23.1749 2.60373 36.6517 2.60373ZM97.2799 32.2173L161.602 32.2173C175.054 32.2173 182.17 25.1328 182.17 11.823L182.17-30.7124C182.17-43.9973 175.054-51.1067 161.602-51.1067L97.2799-51.1067C83.8279-51.1067 76.7121-44.0776 76.7121-30.7124L76.7121 11.823C76.7121 25.1698 83.8279 32.2173 97.2799 32.2173ZM98.258 19.8842C92.2668 19.8842 89.0268 16.8236 89.0268 10.5847L89.0268-29.4926C89.0268-35.713 92.2668-38.792 98.258-38.792L160.624-38.792C166.541-38.792 169.855-35.713 169.855-29.4926L169.855 10.5847C169.855 16.8236 166.541 19.8842 160.624 19.8842Z"/>
  </g>
  <g id="Medium-L" transform="matrix(1 0 0 1 1648.42 1556)">
   <path d="M35.9773 2.1006L81.6234 2.1006L81.6234-8.6337L36.6007-8.6337C30.2527-8.6337 26.8183-11.9312 26.8183-18.511L26.8183-80.771C26.8183-87.3508 30.2527-90.6483 36.6007-90.6483L127.599-90.6483C133.857-90.6483 137.381-87.3508 137.381-80.771L137.381-45.8649L148.115-45.8649L148.115-81.679C148.115-94.6079 141.291-101.383 128.222-101.383L35.9773-101.383C22.8612-101.383 16.084-94.6528 16.084-81.679L16.084-17.6029C16.084-4.62917 22.8612 2.1006 35.9773 2.1006ZM96.7615 31.0489L160.291 31.0489C173.383 31.0489 180.185 24.2743 180.185 11.3454L180.185-30.6085C180.185-43.5123 173.383-50.312 160.291-50.312L96.7615-50.312C83.6704-50.312 76.8682-43.6047 76.8682-30.6085L76.8682 11.3454C76.8682 24.3192 83.6704 31.0489 96.7615 31.0489ZM97.3849 20.3146C91.0369 20.3146 87.58 17.0172 87.58 10.4373L87.58-29.7228C87.58-36.2802 91.0369-39.6002 97.3849-39.6002L159.668-39.6002C165.926-39.6002 169.473-36.2802 169.473-29.7228L169.473 10.4373C169.473 17.0172 165.926 20.3146 159.668 20.3146Z"/>
  </g>
  <g id="Regular-L" transform="matrix(1 0 0 1 1353 1556)">
   <path d="M35.0976 1.44435L80.8004 1.44435L80.8004-7.20452L35.2584-7.20452C28.4449-7.20452 24.7328-10.8111 24.7328-17.8356L24.7328-80.5683C24.7328-87.5929 28.4449-91.1994 35.2584-91.1994L126.887-91.1994C133.59-91.1994 137.413-87.5929 137.413-80.5683L137.413-45.4562L146.061-45.4562L146.061-81.0457C146.061-93.4776 139.641-99.8483 127.048-99.8483L35.0976-99.8483C22.4521-99.8483 16.084-93.5329 16.084-81.0457L16.084-17.3582C16.084-4.87097 22.4521 1.44435 35.0976 1.44435ZM96.0853 29.525L158.582 29.525C171.203 29.525 177.596 23.1544 177.596 10.7224L177.596-30.473C177.596-42.8798 171.203-49.2755 158.582-49.2755L96.0853-49.2755C83.4649-49.2755 77.0717-42.9879 77.0717-30.473L77.0717 10.7224C77.0717 23.2097 83.4649 29.525 96.0853 29.525ZM96.2462 20.8762C89.4326 20.8762 85.6929 17.2696 85.6929 10.245L85.6929-30.0232C85.6929-37.0201 89.4326-40.6543 96.2462-40.6543L158.421-40.6543C165.124-40.6543 168.975-37.0201 168.975-30.0232L168.975 10.245C168.975 17.2696 165.124 20.8762 158.421 20.8762Z"/>
  </g>
  <g id="Light-L" transform="matrix(1 0 0 1 1057.48 1556)">
   <path d="M34.067 1.19624L78.5102 1.19624L78.5102-5.42959L34.2278-5.42959C26.7082-5.42959 22.7098-9.36058 22.7098-17.015L22.7098-79.8621C22.7098-87.5165 26.7082-91.4475 34.2278-91.4475L125.933-91.4475C133.265-91.4475 137.451-87.5165 137.451-79.8621L137.451-46.6585L144.077-46.6585L144.077-80.225C144.077-91.9126 137.942-98.0733 126.094-98.0733L34.067-98.0733C22.1849-98.0733 16.084-92.0061 16.084-80.225L16.084-16.6521C16.084-4.87097 22.1849 1.19624 34.067 1.19624ZM93.9096 27.7883L157.246 27.7883C169.141 27.7883 175.229 21.6276 175.229 9.93995L175.229-31.7135C175.229-43.4142 169.141-49.5618 157.246-49.5618L93.9096-49.5618C82.0144-49.5618 75.9266-43.5413 75.9266-31.7135L75.9266 9.93995C75.9266 21.721 82.0144 27.7883 93.9096 27.7883ZM94.0704 21.1624C86.5508 21.1624 82.5057 17.2314 82.5057 9.57704L82.5057-31.3973C82.5057-39.005 86.5508-42.9827 94.0704-42.9827L157.085-42.9827C164.418-42.9827 168.65-39.005 168.65-31.3973L168.65 9.57704C168.65 17.2314 164.418 21.1624 157.085 21.1624Z"/>
  </g>
  <g id="Thin-L" transform="matrix(1 0 0 1 762.331 1556)">
   <path d="M32.7039 0.868093L75.4812 0.868093L75.4812-3.0821L32.8648-3.0821C24.4111-3.0821 20.0342-7.4422 20.0342-15.9296L20.0342-78.9282C20.0342-87.4156 24.4111-91.7757 32.8648-91.7757L124.671-91.7757C132.836-91.7757 137.501-87.4156 137.501-78.9282L137.501-48.2488L141.451-48.2488L141.451-79.1396C141.451-89.8428 135.695-95.7258 124.831-95.7258L32.7039-95.7258C21.8315-95.7258 16.084-89.9868 16.084-79.1396L16.084-15.7181C16.084-4.87097 21.8315 0.868093 32.7039 0.868093ZM91.032 25.4912L155.479 25.4912C166.415 25.4912 172.099 19.6082 172.099 8.90504L172.099-33.3542C172.099-44.1209 166.415-49.9404 155.479-49.9404L91.032-49.9404C80.096-49.9404 74.4121-44.2733 74.4121-33.3542L74.4121 8.90504C74.4121 19.7522 80.096 25.4912 91.032 25.4912ZM91.1929 21.5411C82.7392 21.5411 78.2903 17.181 78.2903 8.69358L78.2903-33.2147C78.2903-41.6301 82.7392-46.0622 91.1929-46.0622L155.318-46.0622C163.484-46.0622 168.221-41.6301 168.221-33.2147L168.221 8.69358C168.221 17.181 163.484 21.5411 155.318 21.5411Z"/>
  </g>
  <g id="Ultralight-L" transform="matrix(1 0 0 1 466.421 1556)">
   <path d="M32.0058 0.700019L73.9297 0.700019L73.9297-1.87972L32.1666-1.87972C23.2346-1.87972 18.6637-6.45961 18.6637-15.3736L18.6637-78.4498C18.6637-87.3638 23.2346-91.9437 32.1666-91.9437L124.024-91.9437C132.616-91.9437 137.527-87.3638 137.527-78.4498L137.527-49.0633L140.107-49.0633L140.107-78.5837C140.107-88.7827 134.545-94.5235 124.185-94.5235L32.0058-94.5235C21.6505-94.5235 16.084-88.9525 16.084-78.5837L16.084-15.2398C16.084-4.87097 21.6505 0.700019 32.0058 0.700019ZM89.5582 24.3147L154.574 24.3147C165.019 24.3147 170.496 18.5739 170.496 8.37496L170.496-34.1946C170.496-44.4829 165.019-50.1344 154.574-50.1344L89.5582-50.1344C79.1134-50.1344 73.6364-44.6483 73.6364-34.1946L73.6364 8.37496C73.6364 18.7437 79.1134 24.3147 89.5582 24.3147ZM89.719 21.735C80.787 21.735 76.1312 17.1551 76.1312 8.24108L76.1312-34.1456C76.1312-42.9747 80.787-47.6395 89.719-47.6395L154.413-47.6395C163.006-47.6395 168.001-42.9747 168.001-34.1456L168.001 8.24108C168.001 17.1551 163.006 21.735 154.413 21.735Z"/>
  </g>
  <g id="Black-M" transform="matrix(1 0 0 1 2851.75 1126)">
   <path d="M31.6184-3.33711L66.2895-3.33711L66.2895-20.6751L34.2553-20.6751C31.2643-20.6751 29.7989-21.9011 29.7989-25.1424L29.7989-71.2157C29.7989-74.457 31.2643-75.6831 34.2553-75.6831L101.845-75.6831C104.837-75.6831 106.302-74.457 106.302-71.2157L106.302-45.7815L123.64-45.7815L123.64-73.8855C123.64-85.9624 116.569-93.021 104.482-93.021L31.6184-93.021C19.5256-93.021 12.4609-85.9619 12.4609-73.8855L12.4609-22.4726C12.4609-10.3963 19.5256-3.33711 31.6184-3.33711ZM77.373 22.6238L131.688 22.6238C143.775 22.6238 150.846 15.5652 150.846 3.48827L150.846-32.7026C150.846-44.7737 143.775-51.8381 131.688-51.8381L77.373-51.8381C65.286-51.8381 58.2156-44.7787 58.2156-32.7026L58.2156 3.48827C58.2156 15.5646 65.286 22.6238 77.373 22.6238ZM80.0099 5.28583C77.0189 5.28583 75.5538 4.05978 75.5538 0.818468L75.5538-30.0325C75.5538-33.2741 77.0189-34.4999 80.0099-34.4999L129.051-34.4999C132.044-34.4999 133.508-33.2741 133.508-30.0325L133.508 0.818468C133.508 4.05978 132.044 5.28583 129.051 5.28583Z"/>
  </g>
  <g id="Heavy-M" transform="matrix(1 0 0 1 2556.44 1126)">
   <path d="M30.7123-4.12493L65.7267-4.12493L65.7267-19.2245L32.7562-19.2245C29.3203-19.2245 27.5605-20.777 27.5605-24.4531L27.5605-71.1076C27.5605-74.7837 29.3203-76.3361 32.7562-76.3361L101.138-76.3361C104.565-76.3361 106.334-74.7837 106.334-71.1076L106.334-44.9994L121.433-44.9994L121.433-73.2501C121.433-84.85 114.819-91.4358 103.182-91.4358L30.7123-91.4358C19.0586-91.4358 12.4609-84.8545 12.4609-73.2501L12.4609-22.3106C12.4609-10.7062 19.0586-4.12493 30.7123-4.12493ZM76.9737 21.0436L129.785 21.0436C141.424 21.0436 148.036 14.4578 148.036 2.85792L148.036-32.2624C148.036-43.8482 141.424-50.4481 129.785-50.4481L76.9737-50.4481C65.3342-50.4481 58.7224-43.8692 58.7224-32.2624L58.7224 2.85792C58.7224 14.4624 65.3342 21.0436 76.9737 21.0436ZM79.0177 5.94402C75.5818 5.94402 73.8197 4.39153 73.8197 0.715504L73.8197-30.1223C73.8197-33.796 75.5818-35.3508 79.0177-35.3508L127.741-35.3508C131.167-35.3508 132.939-33.796 132.939-30.1223L132.939 0.715504C132.939 4.39153 131.167 5.94402 127.741 5.94402Z"/>
  </g>
  <g id="Bold-M" transform="matrix(1 0 0 1 2261.3 1126)">
   <path d="M29.6986-5.00623L65.097-5.00623L65.097-17.6019L31.0794-17.6019C27.1457-17.6019 25.0566-19.5196 25.0566-23.6819L25.0566-70.9867C25.0566-75.1491 27.1457-77.0667 31.0794-77.0667L100.347-77.0667C104.26-77.0667 106.37-75.1491 106.37-70.9867L106.37-44.1245L118.965-44.1245L118.965-72.5392C118.965-83.6055 112.861-89.6624 101.728-89.6624L29.6986-89.6624C18.5362-89.6624 12.4609-83.6158 12.4609-72.5392L12.4609-22.1294C12.4609-11.0529 18.5362-5.00623 29.6986-5.00623ZM76.5271 19.276L127.655 19.276C138.794 19.276 144.893 13.2191 144.893 2.15279L144.893-31.77C144.893-42.8129 138.794-48.8933 127.655-48.8933L76.5271-48.8933C65.3881-48.8933 59.2894-42.8518 59.2894-31.77L59.2894 2.15279C59.2894 13.2294 65.3881 19.276 76.5271 19.276ZM77.9078 6.6803C73.9742 6.6803 71.88 4.76265 71.88 0.600323L71.88-30.2227C71.88-34.3799 73.9742-36.3027 77.9078-36.3027L126.274-36.3027C130.187-36.3027 132.302-34.3799 132.302-30.2227L132.302 0.600323C132.302 4.76265 130.187 6.6803 126.274 6.6803Z"/>
  </g>
  <g id="Semibold-M" transform="matrix(1 0 0 1 1965.67 1126)">
   <path d="M28.9998-5.61379L64.663-5.61379L64.663-16.4833L29.9233-16.4833C25.6466-16.4833 23.3305-18.6527 23.3305-23.1503L23.3305-70.9034C23.3305-75.401 25.6466-77.5704 29.9233-77.5704L99.8014-77.5704C104.05-77.5704 106.394-75.401 106.394-70.9034L106.394-43.5213L117.264-43.5213L117.264-72.0491C117.264-82.7476 111.512-88.4399 100.725-88.4399L28.9998-88.4399C18.1761-88.4399 12.4609-82.7618 12.4609-72.0491L12.4609-22.0045C12.4609-11.2919 18.1761-5.61379 28.9998-5.61379ZM76.2192 18.0574L126.187 18.0574C136.981 18.0574 142.726 12.3651 142.726 1.66667L142.726-31.4306C142.726-42.0991 136.981-47.8213 126.187-47.8213L76.2192-47.8213C65.4253-47.8213 59.6803-42.1504 59.6803-31.4306L59.6803 1.66667C59.6803 12.3793 65.4253 18.0574 76.2192 18.0574ZM77.1427 7.18789C72.8659 7.18789 70.5427 5.01849 70.5427 0.520919L70.5427-30.2919C70.5427-34.7824 72.8659-36.9589 77.1427-36.9589L125.263-36.9589C129.512-36.9589 131.863-34.7824 131.863-30.2919L131.863 0.520919C131.863 5.01849 129.512 7.18789 125.263 7.18789Z"/>
  </g>
  <g id="Medium-M" transform="matrix(1 0 0 1 1669.78 1126)">
   <path d="M28.47-6.07446L64.3339-6.07446L64.3339-15.6351L29.0468-15.6351C24.5098-15.6351 22.0216-17.9954 22.0216-22.7472L22.0216-70.8402C22.0216-75.592 24.5098-77.9522 29.0468-77.9522L99.3879-77.9522C103.89-77.9522 106.413-75.592 106.413-70.8402L106.413-43.0639L115.974-43.0639L115.974-71.6776C115.974-82.0971 110.488-87.5129 99.9647-87.5129L28.47-87.5129C17.903-87.5129 12.4609-82.1143 12.4609-71.6776L12.4609-21.9098C12.4609-11.4731 17.903-6.07446 28.47-6.07446ZM75.9857 17.1334L125.074 17.1334C135.606 17.1334 141.083 11.7176 141.083 1.29808L141.083-31.1732C141.083-41.5579 135.606-47.0085 125.074-47.0085L75.9857-47.0085C65.4535-47.0085 59.9766-41.6185 59.9766-31.1732L59.9766 1.29808C59.9766 11.7348 65.4535 17.1334 75.9857 17.1334ZM76.5625 7.57276C72.0256 7.57276 69.5287 5.21249 69.5287 0.460711L69.5287-30.3444C69.5287-35.0876 72.0256-37.4565 76.5625-37.4565L124.497-37.4565C128.999-37.4565 131.531-35.0876 131.531-30.3444L131.531 0.460711C131.531 5.21249 128.999 7.57276 124.497 7.57276Z"/>
  </g>
  <g id="Regular-M" transform="matrix(1 0 0 1 1374.14 1126)">
   <path d="M27.7789-6.67535L63.9046-6.67535L63.9046-14.5288L27.9035-14.5288C23.0272-14.5288 20.3144-17.1381 20.3144-22.2214L20.3144-70.7578C20.3144-75.8411 23.0272-78.4503 27.9035-78.4503L98.8484-78.4503C103.683-78.4503 106.438-75.8411 106.438-70.7578L106.438-42.4674L114.291-42.4674L114.291-71.1929C114.291-81.2486 109.153-86.3038 98.973-86.3038L27.7789-86.3038C17.5468-86.3038 12.4609-81.2697 12.4609-71.1929L12.4609-21.7863C12.4609-11.7095 17.5468-6.67535 27.7789-6.67535ZM75.6812 15.9282L123.622 15.9282C133.812 15.9282 138.94 10.873 138.94 0.81731L138.94-30.8375C138.94-40.852 133.812-45.9484 123.622-45.9484L75.6812-45.9484C65.4903-45.9484 60.3632-40.9248 60.3632-30.8375L60.3632 0.81731C60.3632 10.8941 65.4903 15.9282 75.6812 15.9282ZM75.8058 8.07477C70.9294 8.07477 68.2061 5.46552 68.2061 0.382179L68.2061-30.4129C68.2061-35.4857 70.9294-38.1055 75.8058-38.1055L123.497-38.1055C128.331-38.1055 131.097-35.4857 131.097-30.4129L131.097 0.382179C131.097 5.46552 128.331 8.07477 123.497 8.07477Z"/>
  </g>
  <g id="Light-M" transform="matrix(1 0 0 1 1078.49 1126)">
   <path d="M26.8549-6.89779L61.8513-6.89779L61.8513-12.9375L26.9795-12.9375C21.4701-12.9375 18.5006-15.8376 18.5006-21.4856L18.5006-70.1247C18.5006-75.7727 21.4701-78.6728 26.9795-78.6728L97.9929-78.6728C103.392-78.6728 106.472-75.7727 106.472-70.1247L106.472-43.5453L112.511-43.5453L112.511-70.4571C112.511-79.8455 107.63-84.7125 98.1175-84.7125L26.8549-84.7125C17.3073-84.7125 12.4609-79.9008 12.4609-70.4571L12.4609-21.1532C12.4609-11.7095 17.3073-6.89779 26.8549-6.89779ZM73.7305 14.3711L122.424 14.3711C131.964 14.3711 136.818 9.50413 136.818 0.115761L136.818-31.9497C136.818-41.3311 131.964-46.2051 122.424-46.2051L73.7305-46.2051C64.1899-46.2051 59.3366-41.421 59.3366-31.9497L59.3366 0.115761C59.3366 9.55946 64.1899 14.3711 73.7305 14.3711ZM73.8551 8.33143C68.3457 8.33143 65.3486 5.4313 65.3486-0.216704L65.3486-31.6449C65.3486-37.2652 68.3457-40.193 73.8551-40.193L122.299-40.193C127.698-40.193 130.806-37.2652 130.806-31.6449L130.806-0.216704C130.806 5.4313 127.698 8.33143 122.299 8.33143Z"/>
  </g>
  <g id="Thin-M" transform="matrix(1 0 0 1 783.186 1126)">
   <path d="M25.6328-7.19199L59.1356-7.19199L59.1356-10.8328L25.7574-10.8328C19.4107-10.8328 16.1018-14.1177 16.1018-20.5125L16.1018-69.2873C16.1018-75.6821 19.4107-78.967 25.7574-78.967L96.8613-78.967C103.007-78.967 106.517-75.6821 106.517-69.2873L106.517-44.9711L110.158-44.9711L110.158-69.484C110.158-77.9898 105.616-82.6078 96.986-82.6078L25.6328-82.6078C16.9904-82.6078 12.4609-78.0904 12.4609-69.484L12.4609-20.3158C12.4609-11.7095 16.9904-7.19199 25.6328-7.19199ZM71.1506 12.3118L120.84 12.3118C129.52 12.3118 134.012 7.69368 134.012-0.812093L134.012-33.4207C134.012-41.9647 129.52-46.5445 120.84-46.5445L71.1506-46.5445C62.47-46.5445 57.9787-42.0773 57.9787-33.4207L57.9787-0.812093C57.9787 7.79427 62.47 12.3118 71.1506 12.3118ZM71.2752 8.67089C64.9285 8.67089 61.5693 5.38604 61.5693-1.00878L61.5693-33.2743C61.5693-39.6188 64.9285-42.954 71.2752-42.954L120.715-42.954C126.861-42.954 130.421-39.6188 130.421-33.2743L130.421-1.00878C130.421 5.38604 126.861 8.67089 120.715 8.67089Z"/>
  </g>
  <g id="Ultralight-M" transform="matrix(1 0 0 1 487.194 1126)">
   <path d="M25.0069-7.34267L57.7446-7.34267L57.7446-9.75486L25.1315-9.75486C18.3559-9.75486 14.8731-13.2368 14.8731-20.0141L14.8731-68.8584C14.8731-75.6358 18.3559-79.1177 25.1315-79.1177L96.2818-79.1177C102.81-79.1177 106.54-75.6358 106.54-68.8584L106.54-45.7013L108.952-45.7013L108.952-68.9856C108.952-77.0393 104.585-81.5299 96.4064-81.5299L25.0069-81.5299C16.8282-81.5299 12.4609-77.1631 12.4609-68.9856L12.4609-19.887C12.4609-11.7095 16.8282-7.34267 25.0069-7.34267ZM69.8292 11.2569L120.028 11.2569C128.268 11.2569 132.574 6.76638 132.574-1.28734L132.574-34.1741C132.574-42.2893 128.268-46.7184 120.028-46.7184L69.8292-46.7184C61.589-46.7184 57.2833-42.4135 57.2833-34.1741L57.2833-1.28734C57.2833 6.89015 61.589 11.2569 69.8292 11.2569ZM69.9538 8.84476C63.1782 8.84476 59.6336 5.36285 59.6336-1.41447L59.6336-34.1089C59.6336-40.8243 63.1782-44.3681 69.9538-44.3681L119.904-44.3681C126.432-44.3681 130.224-40.8243 130.224-34.1089L130.224-1.41447C130.224 5.36285 126.432 8.84476 119.904 8.84476Z"/>
  </g>
  <g id="Black-S" transform="matrix(1 0 0 1 2869.04 696)">
   <path d="M25-10.0098L52.002-10.0098L52.002-24.1699L27.2461-24.1699C25-24.1699 23.9258-25.0488 23.9258-27.4902L23.9258-63.4277C23.9258-65.8691 25-66.748 27.2461-66.748L79.9805-66.748C82.2266-66.748 83.3008-65.8691 83.3008-63.4277L83.3008-43.7988L97.4609-43.7988L97.4609-65.6738C97.4609-75.2441 91.7969-80.9082 82.2266-80.9082L25-80.9082C15.4297-80.9082 9.76562-75.2441 9.76562-65.6738L9.76562-25.2441C9.76562-15.6738 15.4297-10.0098 25-10.0098ZM60.6445 10.498L103.711 10.498C113.281 10.498 118.945 4.83398 118.945-4.73633L118.945-33.4473C118.945-43.0176 113.281-48.6816 103.711-48.6816L60.6445-48.6816C51.0742-48.6816 45.4102-43.0176 45.4102-33.4473L45.4102-4.73633C45.4102 4.83398 51.0742 10.498 60.6445 10.498ZM62.8906-3.66211C60.6445-3.66211 59.5703-4.54102 59.5703-6.98242L59.5703-31.2012C59.5703-33.6426 60.6445-34.5215 62.8906-34.5215L101.465-34.5215C103.711-34.5215 104.785-33.6426 104.785-31.2012L104.785-6.98242C104.785-4.54102 103.711-3.66211 101.465-3.66211Z"/>
  </g>
  <g id="Heavy-S" transform="matrix(1 0 0 1 2573.4 696)">
   <path d="M24.3431-10.6551L51.783-10.6551L51.783-23.1327L26.0821-23.1327C23.5364-23.1327 22.2432-24.2536 22.2432-26.9947L22.2432-63.4162C22.2432-66.1573 23.5364-67.2782 26.0821-67.2782L79.4849-67.2782C82.0306-67.2782 83.3238-66.1573 83.3238-63.4162L83.3238-42.9921L95.8014-42.9921L95.8014-65.2244C95.8014-74.472 90.4946-79.7558 81.2239-79.7558L24.3431-79.7558C15.0609-79.7558 9.76562-74.472 9.76562-65.2244L9.76562-25.1865C9.76562-15.9389 15.0609-10.6551 24.3431-10.6551ZM60.5523 9.3456L102.236 9.3456C111.506 9.3456 116.813 4.06185 116.813-5.18578L116.813-32.9287C116.813-42.1648 111.506-47.46 102.236-47.46L60.5523-47.46C51.2817-47.46 45.9749-42.1763 45.9749-32.9287L45.9749-5.18578C45.9749 4.06185 51.2817 9.3456 60.5523 9.3456ZM62.2914-3.13198C59.7456-3.13198 58.4524-4.2529 58.4524-6.99395L58.4524-31.1205C58.4524-33.8615 59.7456-34.9825 62.2914-34.9825L100.497-34.9825C103.043-34.9825 104.336-33.8615 104.336-31.1205L104.336-6.99395C104.336-4.2529 103.043-3.13198 100.497-3.13198Z"/>
  </g>
  <g id="Bold-S" transform="matrix(1 0 0 1 2277.88 696)">
   <path d="M23.6084-11.377L51.5381-11.377L51.5381-21.9727L24.7803-21.9727C21.8994-21.9727 20.3613-23.3643 20.3613-26.4404L20.3613-63.4033C20.3613-66.4795 21.8994-67.8711 24.7803-67.8711L78.9307-67.8711C81.8115-67.8711 83.3496-66.4795 83.3496-63.4033L83.3496-42.0898L93.9453-42.0898L93.9453-64.7217C93.9453-73.6084 89.0381-78.4668 80.1025-78.4668L23.6084-78.4668C14.6484-78.4668 9.76562-73.6084 9.76562-64.7217L9.76562-25.1221C9.76562-16.2354 14.6484-11.377 23.6084-11.377ZM60.4492 8.05664L100.586 8.05664C109.521 8.05664 114.429 3.19824 114.429-5.68848L114.429-32.3486C114.429-41.2109 109.521-46.0938 100.586-46.0938L60.4492-46.0938C51.5137-46.0938 46.6064-41.2354 46.6064-32.3486L46.6064-5.68848C46.6064 3.19824 51.5137 8.05664 60.4492 8.05664ZM61.6211-2.53906C58.7402-2.53906 57.2021-3.93066 57.2021-7.00684L57.2021-31.0303C57.2021-34.1064 58.7402-35.498 61.6211-35.498L99.4141-35.498C102.295-35.498 103.833-34.1064 103.833-31.0303L103.833-7.00684C103.833-3.93066 102.295-2.53906 99.4141-2.53906Z"/>
  </g>
  <g id="Semibold-S" transform="matrix(1 0 0 1 1981.99 696)">
   <path d="M23.1019-11.8746L51.3692-11.8746L51.3692-21.1729L23.8827-21.1729C20.7708-21.1729 19.0639-22.7511 19.0639-26.0583L19.0639-63.3944C19.0639-66.7017 20.7708-68.2799 23.8827-68.2799L78.5485-68.2799C81.6604-68.2799 83.3674-66.7017 83.3674-63.3944L83.3674-41.4678L92.6656-41.4678L92.6656-64.3751C92.6656-73.013 88.0339-77.5781 79.3294-77.5781L23.1019-77.5781C14.3641-77.5781 9.76562-73.013 9.76562-64.3751L9.76562-25.0776C9.76562-16.4397 14.3641-11.8746 23.1019-11.8746ZM60.3781 7.16797L99.4484 7.16797C108.153 7.16797 112.785 2.60283 112.785-6.03506L112.785-31.9487C112.785-40.5533 108.153-45.1518 99.4484-45.1518L60.3781-45.1518C51.6736-45.1518 47.0419-40.5866 47.0419-31.9487L47.0419-6.03506C47.0419 2.60283 51.6736 7.16797 60.3781 7.16797ZM61.159-2.13027C58.0471-2.13027 56.3401-3.7085 56.3401-7.01572L56.3401-30.9681C56.3401-34.2753 58.0471-35.8535 61.159-35.8535L98.6676-35.8535C101.779-35.8535 103.486-34.2753 103.486-30.9681L103.486-7.01572C103.486-3.7085 101.779-2.13027 98.6676-2.13027Z"/>
  </g>
  <g id="Medium-S" transform="matrix(1 0 0 1 1685.9 696)">
   <path d="M22.7178-12.252L51.2412-12.252L51.2412-20.5664L23.2021-20.5664C19.915-20.5664 18.0801-22.2861 18.0801-25.7686L18.0801-63.3877C18.0801-66.8701 19.915-68.5898 23.2021-68.5898L78.2588-68.5898C81.5459-68.5898 83.3809-66.8701 83.3809-63.3877L83.3809-40.9961L91.6953-40.9961L91.6953-64.1123C91.6953-72.5615 87.2725-76.9043 78.7432-76.9043L22.7178-76.9043C14.1484-76.9043 9.76562-72.5615 9.76562-64.1123L9.76562-25.0439C9.76562-16.5947 14.1484-12.252 22.7178-12.252ZM60.3242 6.49414L98.5859 6.49414C107.115 6.49414 111.538 2.15137 111.538-6.29785L111.538-31.6455C111.538-40.0547 107.115-44.4375 98.5859-44.4375L60.3242-44.4375C51.7949-44.4375 47.3721-40.0947 47.3721-31.6455L47.3721-6.29785C47.3721 2.15137 51.7949 6.49414 60.3242 6.49414ZM60.8086-1.82031C57.5215-1.82031 55.6865-3.54004 55.6865-7.02246L55.6865-30.9209C55.6865-34.4033 57.5215-36.123 60.8086-36.123L98.1016-36.123C101.389-36.123 103.224-34.4033 103.224-30.9209L103.224-7.02246C103.224-3.54004 101.389-1.82031 98.1016-1.82031Z"/>
  </g>
  <g id="Regular-S" transform="matrix(1 0 0 1 1390.01 696)">
   <path d="M22.2168-12.7441L51.0742-12.7441L51.0742-19.7754L22.3145-19.7754C18.7988-19.7754 16.7969-21.6797 16.7969-25.3906L16.7969-63.3789C16.7969-67.0898 18.7988-68.9941 22.3145-68.9941L77.8809-68.9941C81.3965-68.9941 83.3984-67.0898 83.3984-63.3789L83.3984-40.3809L90.4297-40.3809L90.4297-63.7695C90.4297-71.9727 86.2793-76.0254 77.9785-76.0254L22.2168-76.0254C13.8672-76.0254 9.76562-71.9727 9.76562-63.7695L9.76562-25C9.76562-16.7969 13.8672-12.7441 22.2168-12.7441ZM60.2539 5.61523L97.4609 5.61523C105.762 5.61523 109.912 1.5625 109.912-6.64062L109.912-31.25C109.912-39.4043 105.762-43.5059 97.4609-43.5059L60.2539-43.5059C51.9531-43.5059 47.8027-39.4531 47.8027-31.25L47.8027-6.64062C47.8027 1.5625 51.9531 5.61523 60.2539 5.61523ZM60.3516-1.41602C56.8359-1.41602 54.834-3.32031 54.834-7.03125L54.834-30.8594C54.834-34.5703 56.8359-36.4746 60.3516-36.4746L97.3633-36.4746C100.879-36.4746 102.881-34.5703 102.881-30.8594L102.881-7.03125C102.881-3.32031 100.879-1.41602 97.3633-1.41602Z"/>
  </g>
  <g id="Light-S" transform="matrix(1 0 0 1 1094.23 696)">
   <path d="M21.3994-12.9409L49.2578-12.9409L49.2578-18.3677L21.4971-18.3677C17.4214-18.3677 15.1924-20.5293 15.1924-24.7398L15.1924-62.8189C15.1924-67.0293 17.4214-69.1909 21.4971-69.1909L77.124-69.1909C81.1392-69.1909 83.4287-67.0293 83.4287-62.8189L83.4287-41.3345L88.8555-41.3345L88.8555-63.1187C88.8555-70.7315 84.9321-74.6177 77.2217-74.6177L21.3994-74.6177C13.6553-74.6177 9.76562-70.7617 9.76562-63.1187L9.76562-24.4399C9.76562-16.7969 13.6553-12.9409 21.3994-12.9409ZM58.5283 4.2378L96.4014 4.2378C104.127 4.2378 108.035 0.351572 108.035-7.26123L108.035-32.2339C108.035-39.8281 104.127-43.7329 96.4014-43.7329L58.5283-43.7329C50.8027-43.7329 46.8945-39.8921 46.8945-32.2339L46.8945-7.26123C46.8945 0.381845 50.8027 4.2378 58.5283 4.2378ZM58.626-1.18897C54.5503-1.18897 52.3062-3.35059 52.3062-7.56103L52.3062-31.9492C52.3062-36.1445 54.5503-38.3213 58.626-38.3213L96.3037-38.3213C100.319-38.3213 102.624-36.1445 102.624-31.9492L102.624-7.56103C102.624-3.35059 100.319-1.18897 96.3037-1.18897Z"/>
  </g>
  <g id="Thin-S" transform="matrix(1 0 0 1 798.763 696)">
   <path d="M20.3184-13.2012L46.8555-13.2012L46.8555-16.5059L20.416-16.5059C15.5996-16.5059 13.0703-19.0078 13.0703-23.8789L13.0703-62.0781C13.0703-66.9492 15.5996-69.4512 20.416-69.4512L76.1231-69.4512C80.7988-69.4512 83.4687-66.9492 83.4687-62.0781L83.4687-42.5957L86.7735-42.5957L86.7735-62.2578C86.7735-69.0899 83.1504-72.7559 76.2207-72.7559L20.3184-72.7559C13.375-72.7559 9.76562-69.1602 9.76562-62.2578L9.76562-23.6992C9.76562-16.7969 13.375-13.2012 20.3184-13.2012ZM56.2461 2.41604L95 2.41604C101.965 2.41604 105.553-1.24998 105.553-8.08202L105.553-33.5351C105.553-40.3887 101.965-44.0332 95-44.0332L56.2461-44.0332C49.2813-44.0332 45.6934-40.4726 45.6934-33.5351L45.6934-8.08202C45.6934-1.17967 49.2813 2.41604 56.2461 2.41604ZM56.3438-0.888676C51.5274-0.888676 48.9629-3.39062 48.9629-8.26171L48.9629-33.3906C48.9629-38.2265 51.5274-40.7636 56.3438-40.7636L94.9024-40.7636C99.5781-40.7636 102.283-38.2265 102.283-33.3906L102.283-8.26171C102.283-3.39062 99.5781-0.888676 94.9024-0.888676Z"/>
  </g>
  <g id="Ultralight-S" transform="matrix(1 0 0 1 502.688 696)">
   <path d="M19.7647-13.3345L45.625-13.3345L45.625-15.5523L19.8623-15.5523C14.6665-15.5523 11.9834-18.2285 11.9834-23.438L11.9834-61.6987C11.9834-66.9082 14.6665-69.5845 19.8623-69.5845L75.6104-69.5845C80.6245-69.5845 83.4893-66.9082 83.4893-61.6987L83.4893-43.2417L85.7071-43.2417L85.7071-61.8169C85.7071-68.2491 82.2378-71.8023 75.708-71.8023L19.7647-71.8023C13.2315-71.8023 9.76562-68.3399 9.76562-61.8169L9.76562-23.3198C9.76562-16.7969 13.2315-13.3345 19.7647-13.3345ZM55.0772 1.48294L94.2823 1.48294C100.857 1.48294 104.281-2.07028 104.281-8.50243L104.281-34.2016C104.281-40.6758 100.857-44.187 94.2823-44.187L55.0772-44.187C48.502-44.187 45.0781-40.77 45.0781-34.2016L45.0781-8.50243C45.0781-1.97946 48.502 1.48294 55.0772 1.48294ZM55.1748-0.734869C49.9791-0.734869 47.2505-3.41113 47.2505-8.62059L47.2505-34.1289C47.2505-39.2929 49.9791-42.0146 55.1748-42.0146L94.1846-42.0146C99.1987-42.0146 102.109-39.2929 102.109-34.1289L102.109-8.62059C102.109-3.41113 99.1987-0.734869 94.1846-0.734869Z"/>
  </g>
 </g>
</svg>
