<?xml version="1.0" encoding="UTF-8"?>
<!--Generator: Apple Native CoreSVG 175.5-->
<!DOCTYPE svg
PUBLIC "-//W3C//DTD SVG 1.1//EN"
       "http://www.w3.org/Graphics/SVG/1.1/DTD/svg11.dtd">
<svg version="1.1" xmlns="http://www.w3.org/2000/svg" xmlns:xlink="http://www.w3.org/1999/xlink" width="3300" height="2200">
 <!--glyph: "uni1003E7.medium", point size: 100.0, font version: "18.0d12e2", template writer version: "101"-->
 <g id="Notes">
  <rect height="2200" id="artboard" style="fill:white;opacity:1" width="3300" x="0" y="0"/>
  <line style="fill:none;stroke:black;opacity:1;stroke-width:0.5;" x1="263" x2="3036" y1="292" y2="292"/>
  <text style="stroke:none;fill:black;font-family:sans-serif;font-size:13;font-weight:bold;" transform="matrix(1 0 0 1 263 322)">Weight/Scale Variations</text>
  <text style="stroke:none;fill:black;font-family:sans-serif;font-size:13;text-anchor:middle;" transform="matrix(1 0 0 1 559.711 322)">Ultralight</text>
  <text style="stroke:none;fill:black;font-family:sans-serif;font-size:13;text-anchor:middle;" transform="matrix(1 0 0 1 856.422 322)">Thin</text>
  <text style="stroke:none;fill:black;font-family:sans-serif;font-size:13;text-anchor:middle;" transform="matrix(1 0 0 1 1153.13 322)">Light</text>
  <text style="stroke:none;fill:black;font-family:sans-serif;font-size:13;text-anchor:middle;" transform="matrix(1 0 0 1 1449.84 322)">Regular</text>
  <text style="stroke:none;fill:black;font-family:sans-serif;font-size:13;text-anchor:middle;" transform="matrix(1 0 0 1 1746.56 322)">Medium</text>
  <text style="stroke:none;fill:black;font-family:sans-serif;font-size:13;text-anchor:middle;" transform="matrix(1 0 0 1 2043.27 322)">Semibold</text>
  <text style="stroke:none;fill:black;font-family:sans-serif;font-size:13;text-anchor:middle;" transform="matrix(1 0 0 1 2339.98 322)">Bold</text>
  <text style="stroke:none;fill:black;font-family:sans-serif;font-size:13;text-anchor:middle;" transform="matrix(1 0 0 1 2636.69 322)">Heavy</text>
  <text style="stroke:none;fill:black;font-family:sans-serif;font-size:13;text-anchor:middle;" transform="matrix(1 0 0 1 2933.4 322)">Black</text>
  <line style="fill:none;stroke:black;opacity:1;stroke-width:0.5;" x1="263" x2="3036" y1="1903" y2="1903"/>
  <g transform="matrix(1 0 0 1 263 1933)">
   <path d="M9.24805 0.830078C13.5547 0.830078 17.1387-2.74414 17.1387-7.05078C17.1387-11.3574 13.5449-14.9316 9.23828-14.9316C4.94141-14.9316 1.36719-11.3574 1.36719-7.05078C1.36719-2.74414 4.95117 0.830078 9.24805 0.830078ZM9.24805-0.654297C5.70312-0.654297 2.87109-3.49609 2.87109-7.05078C2.87109-10.6055 5.69336-13.4473 9.23828-13.4473C12.793-13.4473 15.6445-10.6055 15.6445-7.05078C15.6445-3.49609 12.8027-0.654297 9.24805-0.654297ZM5.6543-7.05078C5.6543-6.62109 5.95703-6.32812 6.40625-6.32812L8.50586-6.32812L8.50586-4.20898C8.50586-3.76953 8.79883-3.4668 9.22852-3.4668C9.67773-3.4668 9.9707-3.76953 9.9707-4.20898L9.9707-6.32812L12.0898-6.32812C12.5293-6.32812 12.832-6.62109 12.832-7.05078C12.832-7.49023 12.5293-7.79297 12.0898-7.79297L9.9707-7.79297L9.9707-9.90234C9.9707-10.3516 9.67773-10.6543 9.22852-10.6543C8.79883-10.6543 8.50586-10.3516 8.50586-9.90234L8.50586-7.79297L6.40625-7.79297C5.95703-7.79297 5.6543-7.49023 5.6543-7.05078Z"/>
  </g>
  <g transform="matrix(1 0 0 1 281.867 1933)">
   <path d="M11.709 2.91016C17.1582 2.91016 21.6699-1.61133 21.6699-7.05078C21.6699-12.5 17.1484-17.0117 11.6992-17.0117C6.25977-17.0117 1.74805-12.5 1.74805-7.05078C1.74805-1.61133 6.26953 2.91016 11.709 2.91016ZM11.709 1.25C7.09961 1.25 3.41797-2.44141 3.41797-7.05078C3.41797-11.6602 7.08984-15.3516 11.6992-15.3516C16.3086-15.3516 20.0098-11.6602 20.0098-7.05078C20.0098-2.44141 16.3184 1.25 11.709 1.25ZM7.17773-7.05078C7.17773-6.57227 7.50977-6.25 8.00781-6.25L10.8789-6.25L10.8789-3.36914C10.8789-2.88086 11.2109-2.53906 11.6895-2.53906C12.1777-2.53906 12.5195-2.87109 12.5195-3.36914L12.5195-6.25L15.4004-6.25C15.8887-6.25 16.2305-6.57227 16.2305-7.05078C16.2305-7.53906 15.8887-7.88086 15.4004-7.88086L12.5195-7.88086L12.5195-10.752C12.5195-11.25 12.1777-11.5918 11.6895-11.5918C11.2109-11.5918 10.8789-11.25 10.8789-10.752L10.8789-7.88086L8.00781-7.88086C7.50977-7.88086 7.17773-7.53906 7.17773-7.05078Z"/>
  </g>
  <g transform="matrix(1 0 0 1 305.646 1933)">
   <path d="M14.9707 5.66406C21.9336 5.66406 27.6953-0.0976562 27.6953-7.05078C27.6953-14.0137 21.9238-19.7754 14.9609-19.7754C8.00781-19.7754 2.25586-14.0137 2.25586-7.05078C2.25586-0.0976562 8.01758 5.66406 14.9707 5.66406ZM14.9707 3.84766C8.93555 3.84766 4.08203-1.01562 4.08203-7.05078C4.08203-13.0957 8.92578-17.9492 14.9609-17.9492C21.0059-17.9492 25.8691-13.0957 25.8691-7.05078C25.8691-1.01562 21.0156 3.84766 14.9707 3.84766ZM9.19922-7.05078C9.19922-6.5332 9.57031-6.17188 10.1172-6.17188L14.0625-6.17188L14.0625-2.2168C14.0625-1.67969 14.4336-1.29883 14.9512-1.29883C15.4883-1.29883 15.8594-1.66992 15.8594-2.2168L15.8594-6.17188L19.8145-6.17188C20.3516-6.17188 20.7324-6.5332 20.7324-7.05078C20.7324-7.59766 20.3613-7.96875 19.8145-7.96875L15.8594-7.96875L15.8594-11.9141C15.8594-12.4609 15.4883-12.8418 14.9512-12.8418C14.4336-12.8418 14.0625-12.4609 14.0625-11.9141L14.0625-7.96875L10.1172-7.96875C9.57031-7.96875 9.19922-7.59766 9.19922-7.05078Z"/>
  </g>
  <text style="stroke:none;fill:black;font-family:sans-serif;font-size:13;font-weight:bold;" transform="matrix(1 0 0 1 263 1953)">Design Variations</text>
  <text style="stroke:none;fill:black;font-family:sans-serif;font-size:13;" transform="matrix(1 0 0 1 263 1971)">Symbols are supported in up to nine weights and three scales.</text>
  <text style="stroke:none;fill:black;font-family:sans-serif;font-size:13;" transform="matrix(1 0 0 1 263 1989)">For optimal layout with text and other symbols, vertically align</text>
  <text style="stroke:none;fill:black;font-family:sans-serif;font-size:13;" transform="matrix(1 0 0 1 263 2007)">symbols with the adjacent text.</text>
  <line style="fill:none;stroke:#00AEEF;stroke-width:0.5;opacity:1.0;" x1="776" x2="776" y1="1919" y2="1933"/>
  <g transform="matrix(1 0 0 1 776 1933)">
   <path d="M3.31055 0.15625C3.82812 0.15625 4.08203-0.0390625 4.26758-0.585938L5.52734-4.0332L11.2891-4.0332L12.5488-0.585938C12.7344-0.0390625 12.9883 0.15625 13.4961 0.15625C14.0137 0.15625 14.3457-0.15625 14.3457-0.644531C14.3457-0.810547 14.3164-0.966797 14.2383-1.17188L9.6582-13.3691C9.43359-13.9648 9.0332-14.2676 8.4082-14.2676C7.80273-14.2676 7.39258-13.9746 7.17773-13.3789L2.59766-1.16211C2.51953-0.957031 2.49023-0.800781 2.49023-0.634766C2.49023-0.146484 2.80273 0.15625 3.31055 0.15625ZM6.00586-5.51758L8.37891-12.0898L8.42773-12.0898L10.8008-5.51758Z"/>
  </g>
  <line style="fill:none;stroke:#00AEEF;stroke-width:0.5;opacity:1.0;" x1="793.197" x2="793.197" y1="1919" y2="1933"/>
  <text style="stroke:none;fill:black;font-family:sans-serif;font-size:13;font-weight:bold;" transform="matrix(1 0 0 1 776 1953)">Margins</text>
  <text style="stroke:none;fill:black;font-family:sans-serif;font-size:13;" transform="matrix(1 0 0 1 776 1971)">Leading and trailing margins on the left and right side of each symbol</text>
  <text style="stroke:none;fill:black;font-family:sans-serif;font-size:13;" transform="matrix(1 0 0 1 776 1989)">can be adjusted by modifying the x-location of the margin guidelines.</text>
  <text style="stroke:none;fill:black;font-family:sans-serif;font-size:13;" transform="matrix(1 0 0 1 776 2007)">Modifications are automatically applied proportionally to all</text>
  <text style="stroke:none;fill:black;font-family:sans-serif;font-size:13;" transform="matrix(1 0 0 1 776 2025)">scales and weights.</text>
  <g transform="matrix(1 0 0 1 1289 1933)">
   <path d="M2.8418 1.86523L4.54102 3.57422C5.40039 4.44336 6.38672 4.38477 7.31445 3.35938L18.0078-8.42773L17.041-9.4043L6.42578 2.27539C6.07422 2.67578 5.74219 2.77344 5.27344 2.30469L4.10156 1.14258C3.63281 0.683594 3.74023 0.341797 4.14062-0.0195312L15.6152-10.8203L14.6387-11.7871L3.04688-0.898438C2.06055 0.0195312 1.98242 0.996094 2.8418 1.86523ZM9.25781-16.3281C8.83789-15.918 8.80859-15.3418 9.04297-14.9512C9.27734-14.5898 9.73633-14.3555 10.3809-14.5215C11.8457-14.8633 13.3691-14.9219 14.7949-13.9844L14.209-12.5293C13.8672-11.6992 14.043-11.1133 14.5801-10.5664L16.875-8.25195C17.3633-7.76367 17.7734-7.74414 18.3398-7.8418L19.4043-8.03711L20.0684-7.36328L20.0293-6.80664C19.9902-6.30859 20.1172-5.92773 20.6055-5.44922L21.3672-4.70703C21.8457-4.22852 22.4609-4.19922 22.9297-4.66797L25.8398-7.58789C26.3086-8.05664 26.2891-8.65234 25.8105-9.13086L25.0391-9.89258C24.5605-10.3711 24.1895-10.5273 23.7109-10.4883L23.1348-10.4395L22.4902-11.0742L22.7344-12.1973C22.8613-12.7637 22.7051-13.2031 22.1191-13.7891L19.9219-15.9766C16.582-19.2969 12.1484-19.2188 9.25781-16.3281ZM10.752-15.957C13.1836-17.7344 16.4746-17.4316 18.7012-15.2051L21.1328-12.793C21.3672-12.5586 21.4062-12.373 21.3379-12.0312L21.0156-10.5469L22.5195-9.0625L23.5059-9.12109C23.7598-9.13086 23.8379-9.11133 24.0332-8.91602L24.6094-8.33984L22.168-5.89844L21.5918-6.47461C21.3965-6.66992 21.3672-6.74805 21.377-7.01172L21.4453-7.98828L19.9512-9.47266L18.4277-9.21875C18.1055-9.15039 17.959-9.17969 17.7148-9.41406L15.7129-11.416C15.459-11.6504 15.4297-11.8164 15.5859-12.1875L16.4648-14.2773C14.9023-15.7324 12.8711-16.3574 10.8398-15.7617C10.6836-15.7227 10.625-15.8496 10.752-15.957Z"/>
  </g>
  <text style="stroke:none;fill:black;font-family:sans-serif;font-size:13;font-weight:bold;" transform="matrix(1 0 0 1 1289 1953)">Exporting</text>
  <text style="stroke:none;fill:black;font-family:sans-serif;font-size:13;" transform="matrix(1 0 0 1 1289 1971)">Symbols should be outlined when exporting to ensure the</text>
  <text style="stroke:none;fill:black;font-family:sans-serif;font-size:13;" transform="matrix(1 0 0 1 1289 1989)">design is preserved when submitting to Xcode.</text>
  <text id="template-version" style="stroke:none;fill:black;font-family:sans-serif;font-size:13;text-anchor:end;" transform="matrix(1 0 0 1 3036 1933)">Template v.2.0</text>
  <text style="stroke:none;fill:black;font-family:sans-serif;font-size:13;text-anchor:end;" transform="matrix(1 0 0 1 3036 1951)">Requires Xcode 12 or greater</text>
  <text id="descriptive-name" style="stroke:none;fill:black;font-family:sans-serif;font-size:13;text-anchor:end;" transform="matrix(1 0 0 1 3036 1969)">Generated from rectangle.on.rectangle</text>
  <text style="stroke:none;fill:black;font-family:sans-serif;font-size:13;text-anchor:end;" transform="matrix(1 0 0 1 3036 1987)">Typeset at 100 points</text>
  <text style="stroke:none;fill:black;font-family:sans-serif;font-size:13;" transform="matrix(1 0 0 1 263 726)">Small</text>
  <text style="stroke:none;fill:black;font-family:sans-serif;font-size:13;" transform="matrix(1 0 0 1 263 1156)">Medium</text>
  <text style="stroke:none;fill:black;font-family:sans-serif;font-size:13;" transform="matrix(1 0 0 1 263 1586)">Large</text>
 </g>
 <g id="Guides">
  <g id="H-reference" style="fill:#27AAE1;stroke:none;" transform="matrix(1 0 0 1 339 696)">
   <path d="M0.993654 0L3.63775 0L29.3281-67.1323L30.0303-67.1323L30.0303-70.459L28.1226-70.459ZM11.6885-24.4799L46.9815-24.4799L46.2315-26.7285L12.4385-26.7285ZM55.1196 0L57.7637 0L30.6382-70.459L29.4326-70.459L29.4326-67.1323Z"/>
  </g>
  <line id="Baseline-S" style="fill:none;stroke:#27AAE1;opacity:1;stroke-width:0.5;" x1="263" x2="3036" y1="696" y2="696"/>
  <line id="Capline-S" style="fill:none;stroke:#27AAE1;opacity:1;stroke-width:0.5;" x1="263" x2="3036" y1="625.541" y2="625.541"/>
  <g id="H-reference" style="fill:#27AAE1;stroke:none;" transform="matrix(1 0 0 1 339 1126)">
   <path d="M0.993654 0L3.63775 0L29.3281-67.1323L30.0303-67.1323L30.0303-70.459L28.1226-70.459ZM11.6885-24.4799L46.9815-24.4799L46.2315-26.7285L12.4385-26.7285ZM55.1196 0L57.7637 0L30.6382-70.459L29.4326-70.459L29.4326-67.1323Z"/>
  </g>
  <line id="Baseline-M" style="fill:none;stroke:#27AAE1;opacity:1;stroke-width:0.5;" x1="263" x2="3036" y1="1126" y2="1126"/>
  <line id="Capline-M" style="fill:none;stroke:#27AAE1;opacity:1;stroke-width:0.5;" x1="263" x2="3036" y1="1055.54" y2="1055.54"/>
  <g id="H-reference" style="fill:#27AAE1;stroke:none;" transform="matrix(1 0 0 1 339 1556)">
   <path d="M0.993654 0L3.63775 0L29.3281-67.1323L30.0303-67.1323L30.0303-70.459L28.1226-70.459ZM11.6885-24.4799L46.9815-24.4799L46.2315-26.7285L12.4385-26.7285ZM55.1196 0L57.7637 0L30.6382-70.459L29.4326-70.459L29.4326-67.1323Z"/>
  </g>
  <line id="Baseline-L" style="fill:none;stroke:#27AAE1;opacity:1;stroke-width:0.5;" x1="263" x2="3036" y1="1556" y2="1556"/>
  <line id="Capline-L" style="fill:none;stroke:#27AAE1;opacity:1;stroke-width:0.5;" x1="263" x2="3036" y1="1485.54" y2="1485.54"/>
  <line id="left-margin" style="fill:none;stroke:#00AEEF;stroke-width:0.5;opacity:1.0;" x1="1376.68" x2="1376.68" y1="1030.79" y2="1150.12"/>
  <line id="right-margin" style="fill:none;stroke:#00AEEF;stroke-width:0.5;opacity:1.0;" x1="1523.01" x2="1523.01" y1="1030.79" y2="1150.12"/>
 </g>
 <g id="Symbols">
  <g id="Black-L" transform="matrix(1 0 0 1 2833.53 1556)">
   <path d="M39.8556 2.72166L59.629 2.72166L59.629-17.2594L42.5864-17.2594C38.2704-17.2594 36.065-19.1895 36.065-23.8224L36.065-79.4279C36.065-84.0607 38.2704-85.9713 42.5864-85.9713L122.684-85.9713C126.995-85.9713 129.207-84.0607 129.207-79.4279L129.207-66.1903L149.187-66.1903L149.187-82.2627C149.187-97.3632 140.56-105.972 125.415-105.972L39.8556-105.972C24.6915-105.972 16.084-97.3656 16.084-82.2627L16.084-20.9667C16.084-5.86506 24.6915 2.72166 39.8556 2.72166ZM74.2244 35.4361L159.875 35.4361C175.018 35.4361 183.646 26.8274 183.646 11.7477L183.646-49.5691C183.646-64.6684 175.018-73.2575 159.875-73.2575L74.2244-73.2575C59.0591-73.2575 50.4528-64.6708 50.4528-49.5691L50.4528 11.7477C50.4528 26.8506 59.0591 35.4361 74.2244 35.4361ZM76.9552 15.4563C72.6392 15.4563 70.4326 13.5249 70.4326 8.8933L70.4326-46.7135C70.4326-51.3463 72.6392-53.2765 76.9552-53.2765L157.144-53.2765C161.455-53.2765 163.665-51.3463 163.665-46.7135L163.665 8.8933C163.665 13.5249 161.455 15.4563 157.144 15.4563Z"/>
  </g>
  <g id="Heavy-L" transform="matrix(1 0 0 1 2538.18 1556)">
   <path d="M38.8315 1.94039L57.5702 1.94039L57.5702-15.56L40.9557-15.56C36.118-15.56 33.5844-17.8547 33.5844-22.9917L33.5844-79.2944C33.5844-84.4313 36.118-86.7015 40.9557-86.7015L122.253-86.7015C127.068-86.7015 129.63-84.4313 129.63-79.2944L129.63-66.1602L147.125-66.1602L147.125-81.5695C147.125-96.1162 138.996-104.226 124.377-104.226L38.8315-104.226C24.1886-104.226 16.084-96.1274 16.084-81.5695L16.084-20.6863C16.084-6.13405 24.1886 1.94039 38.8315 1.94039ZM72.3514 33.7039L158.188 33.7039C172.8 33.7039 180.935 25.5936 180.935 11.0771L180.935-49.8362C180.935-64.3773 172.8-72.463 158.188-72.463L72.3514-72.463C57.7029-72.463 49.6039-64.3885 49.6039-49.8362L49.6039 11.0771C49.6039 25.635 57.7029 33.7039 72.3514 33.7039ZM74.4756 16.2091C69.6379 16.2091 67.0987 13.9087 67.0987 8.7774L67.0987-47.5309C67.0987-52.6678 69.6379-54.9626 74.4756-54.9626L156.063-54.9626C160.879-54.9626 163.435-52.6678 163.435-47.5309L163.435 8.7774C163.435 13.9087 160.879 16.2091 156.063 16.2091Z"/>
  </g>
  <g id="Bold-L" transform="matrix(1 0 0 1 2243.12 1556)">
   <path d="M37.5412 1.0691L54.9968 1.0691L54.9968-13.3727L38.987-13.3727C33.4665-13.3727 30.5257-16.1207 30.5257-21.9099L30.5257-79.0807C30.5257-84.8699 33.4665-87.5932 38.987-87.5932L121.693-87.5932C127.16-87.5932 130.167-84.8699 130.167-79.0807L130.167-66.2336L144.596-66.2336L144.596-80.7164C144.596-94.5419 137.067-102.06 123.139-102.06L37.5412-102.06C23.5885-102.06 16.084-94.5684 16.084-80.7164L16.084-20.2362C16.084-6.39747 23.5885 1.0691 37.5412 1.0691ZM69.9563 31.56L156.172 31.56C170.087 31.56 177.629 24.0422 177.629 10.2547L177.629-50.2635C177.629-64.0758 170.087-71.5688 156.172-71.5688L69.9563-71.5688C55.9904-71.5688 48.4991-64.1022 48.4991-50.2635L48.4991 10.2547C48.4991 24.1066 55.9904 31.56 69.9563 31.56ZM71.4021 17.1315C65.8816 17.1315 62.9276 14.3702 62.9276 8.59422L62.9276-48.5898C62.9276-54.379 65.8816-57.1271 71.4021-57.1271L154.726-57.1271C160.194-57.1271 163.188-54.379 163.188-48.5898L163.188 8.59422C163.188 14.3702 160.194 17.1315 154.726 17.1315Z"/>
  </g>
  <g id="Semibold-L" transform="matrix(1 0 0 1 1947.55 1556)">
   <path d="M36.6517 0.468443L53.2228 0.468443L53.2228-11.8647L37.6298-11.8647C31.6387-11.8647 28.4171-14.9252 28.4171-21.1641L28.4171-78.9334C28.4171-85.1723 31.6387-88.2079 37.6298-88.2079L121.307-88.2079C127.224-88.2079 130.538-85.1723 130.538-78.9334L130.538-66.2842L142.853-66.2842L142.853-80.1283C142.853-93.4566 135.737-100.566 122.285-100.566L36.6517-100.566C23.1749-100.566 16.084-93.4936 16.084-80.1283L16.084-19.9259C16.084-6.57907 23.1749 0.468443 36.6517 0.468443ZM68.3052 30.082L154.783 30.082C168.216 30.082 175.35 22.9726 175.35 9.68771L175.35-50.5581C175.35-63.8679 168.216-70.9524 154.783-70.9524L68.3052-70.9524C54.8098-70.9524 47.7374-63.9049 47.7374-50.5581L47.7374 9.68771C47.7374 23.053 54.8098 30.082 68.3052 30.082ZM69.2833 17.7674C63.2921 17.7674 60.0521 14.6883 60.0521 8.46793L60.0521-49.3198C60.0521-55.5587 63.2921-58.6193 69.2833-58.6193L153.805-58.6193C159.722-58.6193 163.017-55.5587 163.017-49.3198L163.017 8.46793C163.017 14.6883 159.722 17.7674 153.805 17.7674Z"/>
  </g>
  <g id="Medium-L" transform="matrix(1 0 0 1 1651.7 1556)">
   <path d="M35.9773 0.0129988L51.8776 0.0129988L51.8776-10.7213L36.6007-10.7213C30.2527-10.7213 26.8183-14.0188 26.8183-20.5986L26.8183-78.8217C26.8183-85.4016 30.2527-88.6741 36.6007-88.6741L121.014-88.6741C127.272-88.6741 130.819-85.4016 130.819-78.8217L130.819-66.3226L141.531-66.3226L141.531-79.6824C141.531-92.6337 134.728-99.4334 121.637-99.4334L35.9773-99.4334C22.8612-99.4334 16.084-92.6786 16.084-79.6824L16.084-19.6905C16.084-6.71677 22.8612 0.0129988 35.9773 0.0129988ZM67.0532 28.9613L153.729 28.9613C166.798 28.9613 173.622 22.1617 173.622 9.2578L173.622-50.7815C173.622-63.7103 166.798-70.485 153.729-70.485L67.0532-70.485C53.9146-70.485 47.1599-63.7552 47.1599-50.7815L47.1599 9.2578C47.1599 22.254 53.9146 28.9613 67.0532 28.9613ZM67.6766 18.2495C61.3286 18.2495 57.8717 14.9296 57.8717 8.37218L57.8717-49.8734C57.8717-56.4532 61.3286-59.7507 67.6766-59.7507L153.106-59.7507C159.364-59.7507 162.888-56.4532 162.888-49.8734L162.888 8.37218C162.888 14.9296 159.364 18.2495 153.106 18.2495Z"/>
  </g>
  <g id="Regular-L" transform="matrix(1 0 0 1 1356.12 1556)">
   <path d="M35.0976-0.581059L50.123-0.581059L50.123-9.22992L35.2584-9.22992C28.4449-9.22992 24.7328-12.8365 24.7328-19.861L24.7328-78.6761C24.7328-85.7006 28.4449-89.2821 35.2584-89.2821L120.632-89.2821C127.335-89.2821 131.185-85.7006 131.185-78.6761L131.185-66.3726L139.806-66.3726L139.806-79.1007C139.806-91.5603 133.413-97.956 120.793-97.956L35.0976-97.956C22.4521-97.956 16.084-91.6156 16.084-79.1007L16.084-19.3836C16.084-6.89638 22.4521-0.581059 35.0976-0.581059ZM65.4202 27.4996L152.355 27.4996C164.948 27.4996 171.369 21.1039 171.369 8.69704L171.369-51.0728C171.369-63.5047 164.948-69.8754 152.355-69.8754L65.4202-69.8754C52.747-69.8754 46.4066-63.5601 46.4066-51.0728L46.4066 8.69704C46.4066 21.212 52.747 27.4996 65.4202 27.4996ZM65.5811 18.8784C58.7675 18.8784 55.0278 15.2442 55.0278 8.24728L55.0278-50.5954C55.0278-57.62 58.7675-61.2265 65.5811-61.2265L152.194-61.2265C158.897-61.2265 162.72-57.62 162.72-50.5954L162.72 8.24728C162.72 15.2442 158.897 18.8784 152.194 18.8784Z"/>
  </g>
  <g id="Light-L" transform="matrix(1 0 0 1 1060.38 1556)">
   <path d="M34.067-0.561974L48.1954-0.561974L48.1954-7.1878L34.2278-7.1878C26.7082-7.1878 22.7098-11.1188 22.7098-18.7732L22.7098-78.218C22.7098-85.8724 26.7082-89.8165 34.2278-89.8165L120.079-89.8165C127.411-89.8165 131.643-85.8724 131.643-78.218L131.643-67.136L138.222-67.136L138.222-78.5472C138.222-90.2816 132.135-96.4292 120.239-96.4292L34.067-96.4292C22.1849-96.4292 16.084-90.3751 16.084-78.5472L16.084-18.4103C16.084-6.62918 22.1849-0.561974 34.067-0.561974ZM63.2827 26.03L151.439 26.03C163.287 26.03 169.422 19.8824 169.422 8.18174L169.422-51.9889C169.422-63.6765 163.287-69.8372 151.439-69.8372L63.2827-69.8372C51.3538-69.8372 45.2997-63.77 45.2997-51.9889L45.2997 8.18174C45.2997 20.0096 51.3538 26.03 63.2827 26.03ZM63.4435 19.451C55.9238 19.451 51.8787 15.4732 51.8787 7.86558L51.8787-51.626C51.8787-59.2804 55.9238-63.2114 63.4435-63.2114L151.278-63.2114C158.611-63.2114 162.796-59.2804 162.796-51.626L162.796 7.86558C162.796 15.4732 158.611 19.451 151.278 19.451Z"/>
  </g>
  <g id="Thin-L" transform="matrix(1 0 0 1 764.957 1556)">
   <path d="M32.7039-0.536732L45.6459-0.536732L45.6459-4.48692L32.8648-4.48692C24.4111-4.48692 20.0342-8.84702 20.0342-17.3344L20.0342-77.6122C20.0342-86.0996 24.4111-90.5232 32.8648-90.5232L119.347-90.5232C127.512-90.5232 132.249-86.0996 132.249-77.6122L132.249-68.1457L136.127-68.1457L136.127-77.8152C136.127-88.5904 130.443-94.4099 119.507-94.4099L32.7039-94.4099C21.8315-94.4099 16.084-88.7344 16.084-77.8152L16.084-17.1229C16.084-6.2758 21.8315-0.536732 32.7039-0.536732ZM60.4556 24.0864L150.227 24.0864C161.091 24.0864 166.847 18.2669 166.847 7.50021L166.847-53.2005C166.847-63.9037 161.091-69.7867 150.227-69.7867L60.4556-69.7867C49.5112-69.7867 43.8356-64.0477 43.8356-53.2005L43.8356 7.50021C43.8356 18.4193 49.5112 24.0864 60.4556 24.0864ZM60.6164 20.2082C52.1628 20.2082 47.7138 15.7761 47.7138 7.36074L47.7138-52.9891C47.7138-61.4764 52.1628-65.8365 60.6164-65.8365L150.066-65.8365C158.232-65.8365 162.897-61.4764 162.897-52.9891L162.897 7.36074C162.897 15.7761 158.232 20.2082 150.066 20.2082Z"/>
  </g>
  <g id="Ultralight-L" transform="matrix(1 0 0 1 468.905 1556)">
   <path d="M32.0058-0.523803L44.3401-0.523803L44.3401-3.10355L32.1666-3.10355C23.2346-3.10355 18.6637-7.68344 18.6637-16.5975L18.6637-77.3019C18.6637-86.2159 23.2346-90.8852 32.1666-90.8852L118.972-90.8852C127.564-90.8852 132.559-86.2159 132.559-77.3019L132.559-68.6628L135.054-68.6628L135.054-77.4403C135.054-87.7242 129.577-93.3756 119.132-93.3756L32.0058-93.3756C21.6505-93.3756 16.084-87.894 16.084-77.4403L16.084-16.4636C16.084-6.09479 21.6505-0.523803 32.0058-0.523803ZM59.0076 23.0909L149.607 23.0909C159.966 23.0909 165.528 17.4395 165.528 7.15114L165.528-53.8211C165.528-64.02 159.966-69.7609 149.607-69.7609L59.0076-69.7609C48.5674-69.7609 43.0858-64.1899 43.0858-53.8211L43.0858 7.15114C43.0858 17.6048 48.5674 23.0909 59.0076 23.0909ZM59.1684 20.5961C50.2364 20.5961 45.5806 15.9313 45.5806 7.10216L45.5806-53.6872C45.5806-62.6012 50.2364-67.1811 59.1684-67.1811L149.446-67.1811C158.038-67.1811 162.949-62.6012 162.949-53.6872L162.949 7.10216C162.949 15.9313 158.038 20.5961 149.446 20.5961Z"/>
  </g>
  <g id="Black-M" transform="matrix(1 0 0 1 2855 1126)">
   <path d="M31.6184-5.15312L47.7053-5.15312L47.7053-22.4911L34.2553-22.4911C31.2643-22.4911 29.7989-23.7171 29.7989-26.9584L29.7989-69.5246C29.7989-72.7659 31.2643-73.9862 34.2553-73.9862L95.3444-73.9862C98.3365-73.9862 99.8005-72.7659 99.8005-69.5246L99.8005-59.3454L117.139-59.3454L117.139-72.1889C117.139-84.2655 110.068-91.3299 97.9813-91.3299L31.6184-91.3299C19.5256-91.3299 12.4609-84.265 12.4609-72.1889L12.4609-24.2886C12.4609-12.2123 19.5256-5.15312 31.6184-5.15312ZM58.8249 20.8078L125.187 20.8078C137.274 20.8078 144.345 13.7434 144.345 1.67226L144.345-46.2335C144.345-58.3104 137.274-65.369 125.187-65.369L58.8249-65.369C46.7324-65.369 39.6675-58.3099 39.6675-46.2335L39.6675 1.67226C39.6675 13.7483 46.7324 20.8078 58.8249 20.8078ZM61.4618 3.46954C58.4708 3.46954 57.0057 2.24377 57.0057-0.997822L57.0057-43.5637C57.0057-46.805 58.4708-48.0311 61.4618-48.0311L122.55-48.0311C125.542-48.0311 127.007-46.805 127.007-43.5637L127.007-0.997822C127.007 2.24377 125.542 3.46954 122.55 3.46954Z"/>
  </g>
  <g id="Heavy-M" transform="matrix(1 0 0 1 2559.52 1126)">
   <path d="M30.7123-5.91862L45.8706-5.91862L45.8706-21.0182L32.7562-21.0182C29.3203-21.0182 27.5605-22.5707 27.5605-26.2467L27.5605-69.4363C27.5605-73.1123 29.3203-74.6507 32.7562-74.6507L94.9738-74.6507C98.4006-74.6507 100.172-73.1123 100.172-69.4363L100.172-59.2456L115.269-59.2456L115.269-71.5623C115.269-83.1645 108.657-89.7644 97.0178-89.7644L30.7123-89.7644C19.0586-89.7644 12.4609-83.169 12.4609-71.5623L12.4609-24.1043C12.4609-12.4999 19.0586-5.91862 30.7123-5.91862ZM57.1911 19.2499L123.623 19.2499C135.26 19.2499 141.874 12.65 141.874 1.06423L141.874-46.4101C141.874-58.0101 135.26-64.5958 123.623-64.5958L57.1911-64.5958C45.5351-64.5958 38.9397-58.0146 38.9397-46.4101L38.9397 1.06423C38.9397 12.671 45.5351 19.2499 57.1911 19.2499ZM59.2351 4.1526C55.7991 4.1526 54.0371 2.59785 54.0371-1.07591L54.0371-44.2677C54.0371-47.9438 55.7991-49.4962 59.2351-49.4962L121.579-49.4962C125.005-49.4962 126.774-47.9438 126.774-44.2677L126.774-1.07591C126.774 2.59785 125.005 4.1526 121.579 4.1526Z"/>
  </g>
  <g id="Bold-M" transform="matrix(1 0 0 1 2264.19 1126)">
   <path d="M29.6986-6.77494L43.8181-6.77494L43.8181-19.3707L31.0794-19.3707C27.1457-19.3707 25.0566-21.2883 25.0566-25.4506L25.0566-69.3375C25.0566-73.4998 27.1457-75.394 31.0794-75.394L94.5593-75.394C98.4724-75.394 100.587-73.4998 100.587-69.3375L100.587-59.1339L113.178-59.1339L113.178-70.8613C113.178-81.9328 107.079-88.0132 95.94-88.0132L29.6986-88.0132C18.5362-88.0132 12.4609-81.943 12.4609-70.8613L12.4609-23.8982C12.4609-12.8216 18.5362-6.77494 29.6986-6.77494ZM55.3634 17.5073L121.872 17.5073C133.006 17.5073 139.11 11.4269 139.11 0.384071L139.11-46.6077C139.11-57.674 133.006-63.7309 121.872-63.7309L55.3634-63.7309C44.1958-63.7309 38.1257-57.6843 38.1257-46.6077L38.1257 0.384071C38.1257 11.4658 44.1958 17.5073 55.3634 17.5073ZM56.7441 4.91671C52.8105 4.91671 50.7163 2.99393 50.7163-1.16326L50.7163-45.0553C50.7163-49.2176 52.8105-51.1352 56.7441-51.1352L120.492-51.1352C124.405-51.1352 126.514-49.2176 126.514-45.0553L126.514-1.16326C126.514 2.99393 124.405 4.91671 120.492 4.91671Z"/>
  </g>
  <g id="Semibold-M" transform="matrix(1 0 0 1 1968.43 1126)">
   <path d="M28.9998-7.36529L42.4031-7.36529L42.4031-18.2348L29.9233-18.2348C25.6466-18.2348 23.3305-20.4042 23.3305-24.9018L23.3305-69.2694C23.3305-73.767 25.6466-75.9064 29.9233-75.9064L94.2735-75.9064C98.5218-75.9064 100.873-73.767 100.873-69.2694L100.873-59.0569L111.736-59.0569L111.736-70.3781C111.736-81.0837 105.991-86.8059 95.197-86.8059L28.9998-86.8059C18.1761-86.8059 12.4609-81.0979 12.4609-70.3781L12.4609-23.756C12.4609-13.0434 18.1761-7.36529 28.9998-7.36529ZM54.1034 16.3059L120.666 16.3059C131.453 16.3059 137.205 10.5837 137.205-0.0848291L137.205-46.7439C137.205-57.4424 131.453-63.1347 120.666-63.1347L54.1034-63.1347C43.2725-63.1347 37.5645-57.4566 37.5645-46.7439L37.5645-0.0848291C37.5645 10.6349 43.2725 16.3059 54.1034 16.3059ZM55.0269 5.44349C50.7501 5.44349 48.4269 3.26699 48.4269-1.22348L48.4269-45.5982C48.4269-50.0958 50.7501-52.2652 55.0269-52.2652L119.742-52.2652C123.991-52.2652 126.335-50.0958 126.335-45.5982L126.335-1.22348C126.335 3.26699 123.991 5.44349 119.742 5.44349Z"/>
  </g>
  <g id="Medium-M" transform="matrix(1 0 0 1 1672.45 1126)">
   <path d="M28.47-7.81291L41.3302-7.81291L41.3302-17.3736L29.0468-17.3736C24.5098-17.3736 22.0216-19.7339 22.0216-24.4856L22.0216-69.2177C22.0216-73.9695 24.5098-76.295 29.0468-76.295L94.0568-76.295C98.5593-76.295 101.091-73.9695 101.091-69.2177L101.091-58.9985L110.643-58.9985L110.643-70.0117C110.643-80.4398 105.166-85.8905 94.6336-85.8905L28.47-85.8905C17.903-85.8905 12.4609-80.457 12.4609-70.0117L12.4609-23.6483C12.4609-13.2115 17.903-7.81291 28.47-7.81291ZM53.148 15.395L119.751 15.395C130.275 15.395 135.76 9.94432 135.76-0.440369L135.76-46.8472C135.76-57.2667 130.275-62.6826 119.751-62.6826L53.148-62.6826C42.5724-62.6826 37.139-57.2839 37.139-46.8472L37.139-0.440369C37.139 10.005 42.5724 15.395 53.148 15.395ZM53.7248 5.84291C49.1879 5.84291 46.691 3.47404 46.691-1.26914L46.691-46.0099C46.691-50.7616 49.1879-53.1219 53.7248-53.1219L119.174-53.1219C123.677-53.1219 126.199-50.7616 126.199-46.0099L126.199-1.26914C126.199 3.47404 123.677 5.84291 119.174 5.84291Z"/>
  </g>
  <g id="Regular-M" transform="matrix(1 0 0 1 1376.68 1126)">
   <path d="M27.7789-8.39677L39.9308-8.39677L39.9308-16.2502L27.9035-16.2502C23.0272-16.2502 20.3144-18.8595 20.3144-23.9428L20.3144-69.1504C20.3144-74.2337 23.0272-76.8018 27.9035-76.8018L93.7741-76.8018C98.6082-76.8018 101.374-74.2337 101.374-69.1504L101.374-58.9223L109.217-58.9223L109.217-69.5338C109.217-79.6 104.09-84.6964 93.8987-84.6964L27.7789-84.6964C17.5468-84.6964 12.4609-79.6211 12.4609-69.5338L12.4609-23.5077C12.4609-13.4309 17.5468-8.39677 27.7789-8.39677ZM51.9019 14.2068L118.558 14.2068C128.738 14.2068 133.876 9.11038 133.876-0.904116L133.876-46.9819C133.876-57.0376 128.738-62.0929 118.558-62.0929L51.9019-62.0929C41.6593-62.0929 36.5839-57.0587 36.5839-46.9819L36.5839-0.904116C36.5839 9.18323 41.6593 14.2068 51.9019 14.2068ZM52.0265 6.36389C47.1502 6.36389 44.4269 3.74409 44.4269-1.3287L44.4269-46.5468C44.4269-51.6301 47.1502-54.2394 52.0265-54.2394L118.433-54.2394C123.267-54.2394 126.022-51.6301 126.022-46.5468L126.022-1.3287C126.022 3.74409 123.267 6.36389 118.433 6.36389Z"/>
  </g>
  <g id="Light-M" transform="matrix(1 0 0 1 1080.84 1126)">
   <path d="M26.8549-8.37966L38.2026-8.37966L38.2026-14.4194L26.9795-14.4194C21.4701-14.4194 18.5006-17.3195 18.5006-22.9675L18.5006-68.7397C18.5006-74.3877 21.4701-77.2809 26.9795-77.2809L93.2779-77.2809C98.6767-77.2809 101.784-74.3877 101.784-68.7397L101.784-59.6068L107.796-59.6068L107.796-69.0375C107.796-78.4536 102.943-83.3276 93.4025-83.3276L26.8549-83.3276C17.3073-83.3276 12.4609-78.5089 12.4609-69.0375L12.4609-22.635C12.4609-13.1913 17.3073-8.37966 26.8549-8.37966ZM49.9855 12.8893L117.736 12.8893C127.249 12.8893 132.13 8.01528 132.13-1.36611L132.13-47.8033C132.13-57.1916 127.249-62.0586 117.736-62.0586L49.9855-62.0586C40.4102-62.0586 35.5915-57.247 35.5915-47.8033L35.5915-1.36611C35.5915 8.10524 40.4102 12.8893 49.9855 12.8893ZM50.1101 6.87722C44.6006 6.87722 41.6035 3.94942 41.6035-1.67092L41.6035-47.4708C41.6035-53.1188 44.6006-56.0189 50.1101-56.0189L117.612-56.0189C123.011-56.0189 126.091-53.1188 126.091-47.4708L126.091-1.67092C126.091 3.94942 123.011 6.87722 117.612 6.87722Z"/>
  </g>
  <g id="Thin-M" transform="matrix(1 0 0 1 785.281 1126)">
   <path d="M25.6328-8.35703L35.9169-8.35703L35.9169-11.9979L25.7574-11.9979C19.4107-11.9979 16.1018-15.2828 16.1018-21.6776L16.1018-68.1966C16.1018-74.5914 19.4107-77.9145 25.7574-77.9145L92.6216-77.9145C98.7672-77.9145 102.328-74.5914 102.328-68.1966L102.328-60.512L105.918-60.512L105.918-68.3813C105.918-76.9373 101.427-81.5171 92.7462-81.5171L25.6328-81.5171C16.9904-81.5171 12.4609-77.0379 12.4609-68.3813L12.4609-21.4809C12.4609-12.8745 16.9904-8.35703 25.6328-8.35703ZM47.4508 11.1467L116.65 11.1467C125.281 11.1467 129.822 6.56692 129.822-1.97714L129.822-48.8895C129.822-57.3953 125.281-62.0134 116.65-62.0134L47.4508-62.0134C38.7581-62.0134 34.2789-57.4959 34.2789-48.8895L34.2789-1.97714C34.2789 6.67952 38.7581 11.1467 47.4508 11.1467ZM47.5754 7.55614C41.2287 7.55614 37.8695 4.22099 37.8695-2.12353L37.8695-48.6928C37.8695-55.0877 41.2287-58.3725 47.5754-58.3725L116.526-58.3725C122.671-58.3725 126.181-55.0877 126.181-48.6928L126.181-2.12353C126.181 4.22099 122.671 7.55614 116.526 7.55614Z"/>
  </g>
  <g id="Ultralight-M" transform="matrix(1 0 0 1 489.161 1126)">
   <path d="M25.0069-8.34544L34.7462-8.34544L34.7462-10.7576L25.1315-10.7576C18.3559-10.7576 14.8731-14.2395 14.8731-21.0169L14.8731-67.9184C14.8731-74.6957 18.3559-78.2391 25.1315-78.2391L92.2854-78.2391C98.8136-78.2391 102.606-74.6957 102.606-67.9184L102.606-60.9756L104.956-60.9756L104.956-68.0451C104.956-76.1607 100.65-80.5898 92.4101-80.5898L25.0069-80.5898C16.8282-80.5898 12.4609-76.2845 12.4609-68.0451L12.4609-20.8897C12.4609-12.7122 16.8282-8.34544 25.0069-8.34544ZM46.1526 10.2542L116.094 10.2542C124.272 10.2542 128.64 5.82508 128.64-2.2901L128.64-49.4459C128.64-57.4996 124.272-61.9902 116.094-61.9902L46.1526-61.9902C37.912-61.9902 33.6066-57.6234 33.6066-49.4459L33.6066-2.2901C33.6066 5.94927 37.912 10.2542 46.1526 10.2542ZM46.2772 7.90388C39.5016 7.90388 35.9569 4.36009 35.9569-2.35535L35.9569-49.3188C35.9569-56.0961 39.5016-59.578 46.2772-59.578L115.969-59.578C122.497-59.578 126.228-56.0961 126.228-49.3188L126.228-2.35535C126.228 4.36009 122.497 7.90388 115.969 7.90388Z"/>
  </g>
  <g id="Black-S" transform="matrix(1 0 0 1 2871.63 696)">
   <path d="M25-11.4258L37.8418-11.4258L37.8418-25.5859L27.2461-25.5859C25-25.5859 23.9258-26.4648 23.9258-28.9062L23.9258-62.1094C23.9258-64.5508 25-65.4297 27.2461-65.4297L74.8047-65.4297C77.0508-65.4297 78.125-64.5508 78.125-62.1094L78.125-54.1992L92.2852-54.1992L92.2852-64.3555C92.2852-73.9258 86.6211-79.5898 77.0508-79.5898L25-79.5898C15.4297-79.5898 9.76562-73.9258 9.76562-64.3555L9.76562-26.6602C9.76562-17.0898 15.4297-11.4258 25-11.4258ZM46.4844 9.08203L98.5352 9.08203C108.105 9.08203 113.77 3.41797 113.77-6.15234L113.77-43.8477C113.77-53.418 108.105-59.082 98.5352-59.082L46.4844-59.082C36.9141-59.082 31.25-53.418 31.25-43.8477L31.25-6.15234C31.25 3.41797 36.9141 9.08203 46.4844 9.08203ZM48.7305-5.07812C46.4844-5.07812 45.4102-5.95703 45.4102-8.39844L45.4102-41.6016C45.4102-44.043 46.4844-44.9219 48.7305-44.9219L96.2891-44.9219C98.5352-44.9219 99.6094-44.043 99.6094-41.6016L99.6094-8.39844C99.6094-5.95703 98.5352-5.07812 96.2891-5.07812Z"/>
  </g>
  <g id="Heavy-S" transform="matrix(1 0 0 1 2575.87 696)">
   <path d="M24.3431-12.0827L36.4934-12.0827L36.4934-24.5603L26.0821-24.5603C23.5364-24.5603 22.2432-25.6812 22.2432-28.4222L22.2432-62.0863C22.2432-64.8274 23.5364-65.9368 26.0821-65.9368L74.5511-65.9368C77.0969-65.9368 78.3901-64.8274 78.3901-62.0863L78.3901-54.0264L90.8676-54.0264L90.8676-63.883C90.8676-73.1306 85.5608-78.4259 76.2902-78.4259L24.3431-78.4259C15.0609-78.4259 9.76562-73.1306 9.76562-63.883L9.76562-26.6141C9.76562-17.3664 15.0609-12.0827 24.3431-12.0827ZM45.3319 7.91806L97.302 7.91806C106.573 7.91806 111.88 2.62278 111.88-6.61332L111.88-43.8938C111.88-53.1414 106.573-58.4251 97.302-58.4251L45.3319-58.4251C36.0497-58.4251 30.7544-53.1414 30.7544-43.8938L30.7544-6.61332C30.7544 2.63431 36.0497 7.91806 45.3319 7.91806ZM47.0709-4.55952C44.5252-4.55952 43.232-5.68044 43.232-8.42149L43.232-42.0856C43.232-44.8266 44.5252-45.9476 47.0709-45.9476L95.563-45.9476C98.1088-45.9476 99.4019-44.8266 99.4019-42.0856L99.4019-8.42149C99.4019-5.68044 98.1088-4.55952 95.563-4.55952Z"/>
  </g>
  <g id="Bold-S" transform="matrix(1 0 0 1 2280.21 696)">
   <path d="M23.6084-12.8174L34.9854-12.8174L34.9854-23.4131L24.7803-23.4131C21.8994-23.4131 20.3613-24.8047 20.3613-27.8809L20.3613-62.0605C20.3613-65.1367 21.8994-66.5039 24.7803-66.5039L74.2676-66.5039C77.1484-66.5039 78.6865-65.1367 78.6865-62.0605L78.6865-53.833L89.2822-53.833L89.2822-63.3545C89.2822-72.2412 84.375-77.124 75.4395-77.124L23.6084-77.124C14.6484-77.124 9.76562-72.2412 9.76562-63.3545L9.76562-26.5625C9.76562-17.6758 14.6484-12.8174 23.6084-12.8174ZM44.043 6.61621L95.9229 6.61621C104.858 6.61621 109.766 1.7334 109.766-7.12891L109.766-43.9453C109.766-52.832 104.858-57.6904 95.9229-57.6904L44.043-57.6904C35.083-57.6904 30.2002-52.832 30.2002-43.9453L30.2002-7.12891C30.2002 1.75781 35.083 6.61621 44.043 6.61621ZM45.2148-3.97949C42.334-3.97949 40.7959-5.37109 40.7959-8.44727L40.7959-42.627C40.7959-45.7031 42.334-47.0947 45.2148-47.0947L94.751-47.0947C97.6318-47.0947 99.1699-45.7031 99.1699-42.627L99.1699-8.44727C99.1699-5.37109 97.6318-3.97949 94.751-3.97949Z"/>
  </g>
  <g id="Semibold-S" transform="matrix(1 0 0 1 1984.23 696)">
   <path d="M23.1019-13.3239L33.9456-13.3239L33.9456-22.6222L23.8827-22.6222C20.7708-22.6222 19.0639-24.2004 19.0639-27.5076L19.0639-62.0428C19.0639-65.35 20.7708-66.8949 23.8827-66.8949L74.0721-66.8949C77.184-66.8949 78.8909-65.35 78.8909-62.0428L78.8909-53.6997L88.1892-53.6997L88.1892-62.9901C88.1892-71.628 83.5574-76.2265 74.8529-76.2265L23.1019-76.2265C14.3641-76.2265 9.76562-71.628 9.76562-62.9901L9.76562-26.527C9.76562-17.8891 14.3641-13.3239 23.1019-13.3239ZM43.1543 5.71865L94.972 5.71865C103.676 5.71865 108.308 1.12021 108.308-7.48438L108.308-43.9809C108.308-52.6187 103.676-57.1839 94.972-57.1839L43.1543-57.1839C34.4165-57.1839 29.8181-52.6187 29.8181-43.9809L29.8181-7.48438C29.8181 1.15352 34.4165 5.71865 43.1543 5.71865ZM43.9352-3.57959C40.8232-3.57959 39.1163-5.15781 39.1163-8.46504L39.1163-43.0002C39.1163-46.3074 40.8232-47.8856 43.9352-47.8856L94.1911-47.8856C97.303-47.8856 99.01-46.3074 99.01-43.0002L99.01-8.46504C99.01-5.15781 97.303-3.57959 94.1911-3.57959Z"/>
  </g>
  <g id="Medium-S" transform="matrix(1 0 0 1 1688.07 696)">
   <path d="M22.7178-13.708L33.1572-13.708L33.1572-22.0225L23.2021-22.0225C19.915-22.0225 18.0801-23.7422 18.0801-27.2246L18.0801-62.0293C18.0801-65.5117 19.915-67.1914 23.2021-67.1914L73.9238-67.1914C77.2109-67.1914 79.0459-65.5117 79.0459-62.0293L79.0459-53.5986L87.3604-53.5986L87.3604-62.7139C87.3604-71.1631 82.9375-75.5459 74.4082-75.5459L22.7178-75.5459C14.1484-75.5459 9.76562-71.1631 9.76562-62.7139L9.76562-26.5C9.76562-18.0508 14.1484-13.708 22.7178-13.708ZM42.4805 5.03809L94.251 5.03809C102.78 5.03809 107.203 0.655273 107.203-7.75391L107.203-44.0078C107.203-52.457 102.78-56.7998 94.251-56.7998L42.4805-56.7998C33.9111-56.7998 29.5283-52.457 29.5283-44.0078L29.5283-7.75391C29.5283 0.695312 33.9111 5.03809 42.4805 5.03809ZM42.9648-3.27637C39.6777-3.27637 37.8428-4.99609 37.8428-8.47852L37.8428-43.2832C37.8428-46.7656 39.6777-48.4854 42.9648-48.4854L93.7666-48.4854C97.0537-48.4854 98.8887-46.7656 98.8887-43.2832L98.8887-8.47852C98.8887-4.99609 97.0537-3.27637 93.7666-3.27637Z"/>
  </g>
  <g id="Regular-S" transform="matrix(1 0 0 1 1392.08 696)">
   <path d="M22.2168-14.209L32.1289-14.209L32.1289-21.2402L22.3145-21.2402C18.7988-21.2402 16.7969-23.1445 16.7969-26.8555L16.7969-62.0117C16.7969-65.7227 18.7988-67.5781 22.3145-67.5781L73.7305-67.5781C77.2461-67.5781 79.248-65.7227 79.248-62.0117L79.248-53.4668L86.2793-53.4668L86.2793-62.3535C86.2793-70.5566 82.1289-74.6582 73.8281-74.6582L22.2168-74.6582C13.8672-74.6582 9.76562-70.5566 9.76562-62.3535L9.76562-26.4648C9.76562-18.2617 13.8672-14.209 22.2168-14.209ZM41.6016 4.15039L93.3105 4.15039C101.611 4.15039 105.762 0.0488281 105.762-8.10547L105.762-44.043C105.762-52.2461 101.611-56.2988 93.3105-56.2988L41.6016-56.2988C33.252-56.2988 29.1504-52.2461 29.1504-44.043L29.1504-8.10547C29.1504 0.0976562 33.252 4.15039 41.6016 4.15039ZM41.6992-2.88086C38.1836-2.88086 36.1816-4.78516 36.1816-8.49609L36.1816-43.6523C36.1816-47.3633 38.1836-49.2676 41.6992-49.2676L93.2129-49.2676C96.7285-49.2676 98.7305-47.3633 98.7305-43.6523L98.7305-8.49609C98.7305-4.78516 96.7285-2.88086 93.2129-2.88086Z"/>
  </g>
  <g id="Light-S" transform="matrix(1 0 0 1 1096.14 696)">
   <path d="M21.3994-14.1938L30.6001-14.1938L30.6001-19.6206L21.4971-19.6206C17.4214-19.6206 15.1924-21.7822 15.1924-25.9927L15.1924-61.6484C15.1924-65.8589 17.4214-68.0019 21.4971-68.0019L73.2915-68.0019C77.3066-68.0019 79.6113-65.8589 79.6113-61.6484L79.6113-54.0723L85.023-54.0723L85.023-61.9146C85.023-69.5425 81.1148-73.4473 73.3892-73.4473L21.3994-73.4473C13.6553-73.4473 9.76562-69.5728 9.76562-61.9146L9.76562-25.6929C9.76562-18.0498 13.6553-14.1938 21.3994-14.1938ZM39.9063 2.98487L92.584 2.98487C100.294 2.98487 104.218-0.919914 104.218-8.51416L104.218-44.7695C104.218-52.3823 100.294-56.2686 92.584-56.2686L39.9063-56.2686C32.147-56.2686 28.2725-52.4126 28.2725-44.7695L28.2725-8.51416C28.2725-0.85595 32.147 2.98487 39.9063 2.98487ZM40.0039-2.42676C35.9282-2.42676 33.6841-4.60352 33.6841-8.79883L33.6841-44.4697C33.6841-48.6802 35.9282-50.8418 40.0039-50.8418L92.4863-50.8418C96.5015-50.8418 98.791-48.6802 98.791-44.4697L98.791-8.79883C98.791-4.60352 96.5015-2.42676 92.4863-2.42676Z"/>
  </g>
  <g id="Thin-S" transform="matrix(1 0 0 1 800.452 696)">
   <path d="M20.3184-14.1738L28.5782-14.1738L28.5782-17.4785L20.416-17.4785C15.5996-17.4785 13.0703-19.9805 13.0703-24.8516L13.0703-61.168C13.0703-66.0391 15.5996-68.5625 20.416-68.5625L72.7109-68.5625C77.3867-68.5625 80.0918-66.0391 80.0918-61.168L80.0918-54.873L83.3614-54.873L83.3614-61.334C83.3614-68.2012 79.7735-71.8457 72.8086-71.8457L20.3184-71.8457C13.375-71.8457 9.76562-68.2715 9.76562-61.334L9.76562-24.6719C9.76562-17.7695 13.375-14.1738 20.3184-14.1738ZM37.6641 1.44338L91.6231 1.44338C98.5528 1.44338 102.176-2.20115 102.176-9.05468L102.176-45.7305C102.176-52.5625 98.5528-56.2285 91.6231-56.2285L37.6641-56.2285C30.6856-56.2285 27.1113-52.6328 27.1113-45.7305L27.1113-9.05468C27.1113-2.11717 30.6856 1.44338 37.6641 1.44338ZM37.7617-1.82618C32.9454-1.82618 30.3809-4.36328 30.3809-9.19921L30.3809-45.5508C30.3809-50.4219 32.9454-52.9238 37.7617-52.9238L91.5254-52.9238C96.2012-52.9238 98.8711-50.4219 98.8711-45.5508L98.8711-9.19921C98.8711-4.36328 96.2012-1.82618 91.5254-1.82618Z"/>
  </g>
  <g id="Ultralight-S" transform="matrix(1 0 0 1 504.263 696)">
   <path d="M19.7647-14.1636L27.5425-14.1636L27.5425-16.3814L19.8623-16.3814C14.6665-16.3814 11.9834-19.0576 11.9834-24.2671L11.9834-60.9219C11.9834-66.1313 14.6665-68.8496 19.8623-68.8496L72.4136-68.8496C77.4277-68.8496 80.3379-66.1313 80.3379-60.9219L80.3379-55.2832L82.5103-55.2832L82.5103-61.0366C82.5103-67.5142 79.0864-71.0254 72.5112-71.0254L19.7647-71.0254C13.2315-71.0254 9.76562-67.605 9.76562-61.0366L9.76562-24.1489C9.76562-17.626 13.2315-14.1636 19.7647-14.1636ZM36.5157 0.653836L91.1309 0.653836C97.6607 0.653836 101.13-2.8574 101.13-9.33153L101.13-46.2226C101.13-52.6548 97.6607-56.208 91.1309-56.208L36.5157-56.208C29.937-56.208 26.5166-52.7456 26.5166-46.2226L26.5166-9.33153C26.5166-2.76316 29.937 0.653836 36.5157 0.653836ZM36.6133-1.51857C31.4175-1.51857 28.689-4.24024 28.689-9.40429L28.689-46.1045C28.689-51.3139 31.4175-53.9902 36.6133-53.9902L91.0332-53.9902C96.0474-53.9902 98.9121-51.3139 98.9121-46.1045L98.9121-9.40429C98.9121-4.24024 96.0474-1.51857 91.0332-1.51857Z"/>
  </g>
 </g>
</svg>
