<?xml version="1.0" encoding="UTF-8"?>
<!--Generator: Apple Native CoreSVG 149-->
<!DOCTYPE svg
PUBLIC "-//W3C//DTD SVG 1.1//EN"
       "http://www.w3.org/Graphics/SVG/1.1/DTD/svg11.dtd">
<svg version="1.1" xmlns="http://www.w3.org/2000/svg" xmlns:xlink="http://www.w3.org/1999/xlink" width="3300" height="2200">
 <!--glyph: "uni10017E.medium", point size: 100.000000, font version: "Version 16.0d18e1", template writer version: "8"-->
 <g id="Notes">
  <rect height="2200" id="artboard" style="fill:white;opacity:1" width="3300" x="0" y="0"/>
  <line id="" style="fill:none;stroke:black;opacity:1;stroke-width:0.5;" x1="263" x2="3036" y1="292" y2="292"/>
  <text style="stroke:none;fill:black;font-family:-apple-system,&quot;SF Pro Display&quot;,&quot;SF Pro Text&quot;,Helvetica,sans-serif;font-weight:bold;" transform="matrix(1 0 0 1 263 322)">Weight/Scale Variations</text>
  <text style="stroke:none;fill:black;font-family:-apple-system,&quot;SF Pro Display&quot;,&quot;SF Pro Text&quot;,Helvetica,sans-serif;text-anchor:middle;" transform="matrix(1 0 0 1 559.711 322)">Ultralight</text>
  <text style="stroke:none;fill:black;font-family:-apple-system,&quot;SF Pro Display&quot;,&quot;SF Pro Text&quot;,Helvetica,sans-serif;text-anchor:middle;" transform="matrix(1 0 0 1 856.422 322)">Thin</text>
  <text style="stroke:none;fill:black;font-family:-apple-system,&quot;SF Pro Display&quot;,&quot;SF Pro Text&quot;,Helvetica,sans-serif;text-anchor:middle;" transform="matrix(1 0 0 1 1153.13 322)">Light</text>
  <text style="stroke:none;fill:black;font-family:-apple-system,&quot;SF Pro Display&quot;,&quot;SF Pro Text&quot;,Helvetica,sans-serif;text-anchor:middle;" transform="matrix(1 0 0 1 1449.84 322)">Regular</text>
  <text style="stroke:none;fill:black;font-family:-apple-system,&quot;SF Pro Display&quot;,&quot;SF Pro Text&quot;,Helvetica,sans-serif;text-anchor:middle;" transform="matrix(1 0 0 1 1746.56 322)">Medium</text>
  <text style="stroke:none;fill:black;font-family:-apple-system,&quot;SF Pro Display&quot;,&quot;SF Pro Text&quot;,Helvetica,sans-serif;text-anchor:middle;" transform="matrix(1 0 0 1 2043.27 322)">Semibold</text>
  <text style="stroke:none;fill:black;font-family:-apple-system,&quot;SF Pro Display&quot;,&quot;SF Pro Text&quot;,Helvetica,sans-serif;text-anchor:middle;" transform="matrix(1 0 0 1 2339.98 322)">Bold</text>
  <text style="stroke:none;fill:black;font-family:-apple-system,&quot;SF Pro Display&quot;,&quot;SF Pro Text&quot;,Helvetica,sans-serif;text-anchor:middle;" transform="matrix(1 0 0 1 2636.69 322)">Heavy</text>
  <text style="stroke:none;fill:black;font-family:-apple-system,&quot;SF Pro Display&quot;,&quot;SF Pro Text&quot;,Helvetica,sans-serif;text-anchor:middle;" transform="matrix(1 0 0 1 2933.4 322)">Black</text>
  <line id="" style="fill:none;stroke:black;opacity:1;stroke-width:0.5;" x1="263" x2="3036" y1="1903" y2="1903"/>
  <g id="" transform="matrix(1 0 0 1 263 1933)">
   <path d="M9.24805 0.830078C13.5547 0.830078 17.1387-2.74414 17.1387-7.05078C17.1387-11.3574 13.5449-14.9316 9.23828-14.9316C4.94141-14.9316 1.36719-11.3574 1.36719-7.05078C1.36719-2.74414 4.95117 0.830078 9.24805 0.830078ZM9.24805-0.654297C5.70312-0.654297 2.87109-3.49609 2.87109-7.05078C2.87109-10.6055 5.69336-13.4473 9.23828-13.4473C12.793-13.4473 15.6348-10.6055 15.6445-7.05078C15.6543-3.49609 12.8027-0.654297 9.24805-0.654297ZM6.39648-6.31836L8.50586-6.31836L8.50586-4.19922C8.50586-3.75977 8.79883-3.45703 9.22852-3.45703C9.67773-3.45703 9.9707-3.75977 9.9707-4.19922L9.9707-6.31836L12.0996-6.31836C12.5391-6.31836 12.8418-6.61133 12.8418-7.04102C12.8418-7.48047 12.5391-7.7832 12.0996-7.7832L9.9707-7.7832L9.9707-9.89258C9.9707-10.3418 9.67773-10.6445 9.22852-10.6445C8.79883-10.6445 8.50586-10.3418 8.50586-9.89258L8.50586-7.7832L6.39648-7.7832C5.94727-7.7832 5.64453-7.48047 5.64453-7.04102C5.64453-6.61133 5.94727-6.31836 6.39648-6.31836Z"/>
  </g>
  <g id="" transform="matrix(1 0 0 1 281.506 1933)">
   <path d="M11.709 2.91016C17.1582 2.91016 21.6699-1.61133 21.6699-7.05078C21.6699-12.5 17.1484-17.0117 11.6992-17.0117C6.25977-17.0117 1.74805-12.5 1.74805-7.05078C1.74805-1.61133 6.26953 2.91016 11.709 2.91016ZM11.709 1.25C7.09961 1.25 3.41797-2.44141 3.41797-7.05078C3.41797-11.6602 7.08984-15.3516 11.6992-15.3516C16.3086-15.3516 20-11.6602 20.0098-7.05078C20.0195-2.44141 16.3184 1.25 11.709 1.25ZM7.98828-6.23047L10.8789-6.23047L10.8789-3.32031C10.8789-2.83203 11.2109-2.5 11.6895-2.5C12.1777-2.5 12.5195-2.83203 12.5195-3.32031L12.5195-6.23047L15.4297-6.23047C15.918-6.23047 16.25-6.5625 16.25-7.04102C16.25-7.5293 15.918-7.87109 15.4297-7.87109L12.5195-7.87109L12.5195-10.7617C12.5195-11.2695 12.1777-11.6016 11.6895-11.6016C11.2109-11.6016 10.8789-11.2598 10.8789-10.7617L10.8789-7.87109L7.98828-7.87109C7.48047-7.87109 7.14844-7.5293 7.14844-7.04102C7.14844-6.5625 7.49023-6.23047 7.98828-6.23047Z"/>
  </g>
  <g id="" transform="matrix(1 0 0 1 304.924 1933)">
   <path d="M14.9707 5.66406C21.9336 5.66406 27.6953-0.0976562 27.6953-7.05078C27.6953-14.0137 21.9238-19.7754 14.9609-19.7754C8.00781-19.7754 2.25586-14.0137 2.25586-7.05078C2.25586-0.0976562 8.01758 5.66406 14.9707 5.66406ZM14.9707 3.84766C8.93555 3.84766 4.08203-1.01562 4.08203-7.05078C4.08203-13.0957 8.92578-17.9492 14.9609-17.9492C21.0059-17.9492 25.8594-13.0957 25.8691-7.05078C25.8789-1.01562 21.0156 3.84766 14.9707 3.84766ZM10.0586-6.14258L14.0625-6.14258L14.0625-2.12891C14.0625-1.5918 14.4336-1.2207 14.9512-1.2207C15.4883-1.2207 15.8594-1.5918 15.8594-2.12891L15.8594-6.14258L19.8828-6.14258C20.4102-6.14258 20.791-6.51367 20.791-7.03125C20.791-7.56836 20.4199-7.94922 19.8828-7.94922L15.8594-7.94922L15.8594-11.9531C15.8594-12.5098 15.4883-12.8809 14.9512-12.8809C14.4336-12.8809 14.0625-12.5 14.0625-11.9531L14.0625-7.94922L10.0586-7.94922C9.50195-7.94922 9.13086-7.56836 9.13086-7.03125C9.13086-6.51367 9.51172-6.14258 10.0586-6.14258Z"/>
  </g>
  <text style="stroke:none;fill:black;font-family:-apple-system,&quot;SF Pro Display&quot;,&quot;SF Pro Text&quot;,Helvetica,sans-serif;font-weight:bold;" transform="matrix(1 0 0 1 263 1953)">Design Variations</text>
  <text style="stroke:none;fill:black;font-family:-apple-system,&quot;SF Pro Display&quot;,&quot;SF Pro Text&quot;,Helvetica,sans-serif;" transform="matrix(1 0 0 1 263 1971)">Symbols are supported in up to nine weights and three scales.</text>
  <text style="stroke:none;fill:black;font-family:-apple-system,&quot;SF Pro Display&quot;,&quot;SF Pro Text&quot;,Helvetica,sans-serif;" transform="matrix(1 0 0 1 263 1989)">For optimal layout with text and other symbols, vertically align</text>
  <text style="stroke:none;fill:black;font-family:-apple-system,&quot;SF Pro Display&quot;,&quot;SF Pro Text&quot;,Helvetica,sans-serif;" transform="matrix(1 0 0 1 263 2007)">symbols with the adjacent text.</text>
  <line id="" style="fill:none;stroke:#00AEEF;stroke-width:0.5;opacity:1.0;" x1="776" x2="776" y1="1919" y2="1933"/>
  <g id="" transform="matrix(1 0 0 1 776 1933)">
   <path d="M3.31055 0.126953C3.82812 0.126953 4.08203-0.0683594 4.26758-0.605469L5.52734-4.0625L11.2891-4.0625L12.5488-0.605469C12.7344-0.0683594 12.9883 0.126953 13.4961 0.126953C14.0137 0.126953 14.3457-0.185547 14.3457-0.673828C14.3457-0.839844 14.3164-0.986328 14.2383-1.20117L9.6582-13.3887C9.43359-13.9941 9.0332-14.2871 8.4082-14.2871C7.80273-14.2871 7.39258-13.9941 7.17773-13.3984L2.59766-1.19141C2.51953-0.976562 2.49023-0.830078 2.49023-0.664062C2.49023-0.175781 2.80273 0.126953 3.31055 0.126953ZM6.00586-5.53711L8.37891-12.1094L8.42773-12.1094L10.8008-5.53711Z"/>
  </g>
  <line id="" style="fill:none;stroke:#00AEEF;stroke-width:0.5;opacity:1.0;" x1="792.836" x2="792.836" y1="1919" y2="1933"/>
  <text style="stroke:none;fill:black;font-family:-apple-system,&quot;SF Pro Display&quot;,&quot;SF Pro Text&quot;,Helvetica,sans-serif;font-weight:bold;" transform="matrix(1 0 0 1 776 1953)">Margins</text>
  <text style="stroke:none;fill:black;font-family:-apple-system,&quot;SF Pro Display&quot;,&quot;SF Pro Text&quot;,Helvetica,sans-serif;" transform="matrix(1 0 0 1 776 1971)">Leading and trailing margins on the left and right side of each symbol</text>
  <text style="stroke:none;fill:black;font-family:-apple-system,&quot;SF Pro Display&quot;,&quot;SF Pro Text&quot;,Helvetica,sans-serif;" transform="matrix(1 0 0 1 776 1989)">can be adjusted by modifying the x-location of the margin guidelines.</text>
  <text style="stroke:none;fill:black;font-family:-apple-system,&quot;SF Pro Display&quot;,&quot;SF Pro Text&quot;,Helvetica,sans-serif;" transform="matrix(1 0 0 1 776 2007)">Modifications are automatically applied proportionally to all</text>
  <text style="stroke:none;fill:black;font-family:-apple-system,&quot;SF Pro Display&quot;,&quot;SF Pro Text&quot;,Helvetica,sans-serif;" transform="matrix(1 0 0 1 776 2025)">scales and weights.</text>
  <g id="" transform="matrix(1 0 0 1 1289 1933)">
   <path d="M2.8418 1.86523L4.54102 3.57422C5.40039 4.44336 6.38672 4.38477 7.31445 3.35938L17.4902-7.85156C17.7539-7.76367 18.0273-7.7832 18.3398-7.8418L19.4043-8.03711L20.0684-7.36328L20.0293-6.80664C19.9902-6.30859 20.1172-5.92773 20.6055-5.44922L21.3672-4.70703C21.8457-4.22852 22.4609-4.19922 22.9297-4.66797L25.8398-7.58789C26.3086-8.05664 26.2891-8.65234 25.8105-9.13086L25.0391-9.89258C24.5605-10.3711 24.1895-10.5273 23.7109-10.4883L23.1348-10.4395L22.4902-11.0742L22.7344-12.1973C22.8613-12.7637 22.7051-13.2031 22.1191-13.7891L19.9219-15.9766C16.582-19.2969 12.1484-19.2188 9.25781-16.3281C8.83789-15.918 8.80859-15.3418 9.04297-14.9512C9.27734-14.5898 9.73633-14.3555 10.3809-14.5215C11.8457-14.8633 13.3691-14.9219 14.7949-13.9844L14.209-12.5293C14.0137-12.0508 13.9844-11.6504 14.1113-11.2891L3.04688-0.898438C2.06055 0.0195312 1.98242 0.996094 2.8418 1.86523ZM10.752-15.957C13.1836-17.7344 16.4746-17.4316 18.7012-15.2051L21.1328-12.793C21.3672-12.5586 21.4062-12.373 21.3379-12.0312L21.0156-10.5469L22.5195-9.0625L23.5059-9.12109C23.7598-9.13086 23.8379-9.11133 24.0332-8.91602L24.6094-8.33984L22.168-5.89844L21.5918-6.47461C21.3965-6.66992 21.3672-6.74805 21.377-7.01172L21.4453-7.98828L19.9512-9.47266L18.4277-9.21875C18.1055-9.15039 17.959-9.17969 17.7148-9.41406L15.7129-11.416C15.459-11.6504 15.4297-11.8164 15.5859-12.1875L16.4648-14.2773C14.9023-15.7324 12.8711-16.3574 10.8398-15.7617C10.6836-15.7227 10.625-15.8496 10.752-15.957ZM5.27344 2.30469L4.10156 1.14258C3.63281 0.683594 3.74023 0.341797 4.14062-0.0195312L14.9512-10.1953L16.416-8.71094L6.42578 2.27539C6.07422 2.67578 5.74219 2.77344 5.27344 2.30469Z"/>
  </g>
  <text style="stroke:none;fill:black;font-family:-apple-system,&quot;SF Pro Display&quot;,&quot;SF Pro Text&quot;,Helvetica,sans-serif;font-weight:bold;" transform="matrix(1 0 0 1 1289 1953)">Exporting</text>
  <text style="stroke:none;fill:black;font-family:-apple-system,&quot;SF Pro Display&quot;,&quot;SF Pro Text&quot;,Helvetica,sans-serif;" transform="matrix(1 0 0 1 1289 1971)">Symbols should be outlined when exporting to ensure the</text>
  <text style="stroke:none;fill:black;font-family:-apple-system,&quot;SF Pro Display&quot;,&quot;SF Pro Text&quot;,Helvetica,sans-serif;" transform="matrix(1 0 0 1 1289 1989)">design is preserved when submitting to Xcode.</text>
  <text id="template-version" style="stroke:none;fill:black;font-family:-apple-system,&quot;SF Pro Display&quot;,&quot;SF Pro Text&quot;,Helvetica,sans-serif;text-anchor:end;" transform="matrix(1 0 0 1 3036 1933)">Template v.2.0</text>
  <text style="stroke:none;fill:black;font-family:-apple-system,&quot;SF Pro Display&quot;,&quot;SF Pro Text&quot;,Helvetica,sans-serif;text-anchor:end;" transform="matrix(1 0 0 1 3036 1951)">Requires Xcode 12 or greater</text>
  <text style="stroke:none;fill:black;font-family:-apple-system,&quot;SF Pro Display&quot;,&quot;SF Pro Text&quot;,Helvetica,sans-serif;text-anchor:end;" transform="matrix(1 0 0 1 3036 1969)">Generated from multiply</text>
  <text style="stroke:none;fill:black;font-family:-apple-system,&quot;SF Pro Display&quot;,&quot;SF Pro Text&quot;,Helvetica,sans-serif;text-anchor:end;" transform="matrix(1 0 0 1 3036 1987)">Typeset at 100 points</text>
  <text style="stroke:none;fill:black;font-family:-apple-system,&quot;SF Pro Display&quot;,&quot;SF Pro Text&quot;,Helvetica,sans-serif;" transform="matrix(1 0 0 1 263 726)">Small</text>
  <text style="stroke:none;fill:black;font-family:-apple-system,&quot;SF Pro Display&quot;,&quot;SF Pro Text&quot;,Helvetica,sans-serif;" transform="matrix(1 0 0 1 263 1156)">Medium</text>
  <text style="stroke:none;fill:black;font-family:-apple-system,&quot;SF Pro Display&quot;,&quot;SF Pro Text&quot;,Helvetica,sans-serif;" transform="matrix(1 0 0 1 263 1586)">Large</text>
 </g>
 <g id="Guides">
  <g id="H-reference" style="fill:#27AAE1;stroke:none;" transform="matrix(1 0 0 1 339 696)">
   <path d="M0.976562 0L3.66211 0L12.9883-24.4629L45.752-24.4629L55.127 0L57.7637 0L30.6152-70.459L28.125-70.459ZM29.3457-67.1387L29.4434-67.1387L44.873-26.709L13.8672-26.709Z"/>
  </g>
  <line id="Baseline-S" style="fill:none;stroke:#27AAE1;opacity:1;stroke-width:0.5;" x1="263" x2="3036" y1="696" y2="696"/>
  <line id="Capline-S" style="fill:none;stroke:#27AAE1;opacity:1;stroke-width:0.5;" x1="263" x2="3036" y1="625.541" y2="625.541"/>
  <g id="H-reference" style="fill:#27AAE1;stroke:none;" transform="matrix(1 0 0 1 339 1126)">
   <path d="M0.976562 0L3.66211 0L12.9883-24.4629L45.752-24.4629L55.127 0L57.7637 0L30.6152-70.459L28.125-70.459ZM29.3457-67.1387L29.4434-67.1387L44.873-26.709L13.8672-26.709Z"/>
  </g>
  <line id="Baseline-M" style="fill:none;stroke:#27AAE1;opacity:1;stroke-width:0.5;" x1="263" x2="3036" y1="1126" y2="1126"/>
  <line id="Capline-M" style="fill:none;stroke:#27AAE1;opacity:1;stroke-width:0.5;" x1="263" x2="3036" y1="1055.54" y2="1055.54"/>
  <g id="H-reference" style="fill:#27AAE1;stroke:none;" transform="matrix(1 0 0 1 339 1556)">
   <path d="M0.976562 0L3.66211 0L12.9883-24.4629L45.752-24.4629L55.127 0L57.7637 0L30.6152-70.459L28.125-70.459ZM29.3457-67.1387L29.4434-67.1387L44.873-26.709L13.8672-26.709Z"/>
  </g>
  <line id="Baseline-L" style="fill:none;stroke:#27AAE1;opacity:1;stroke-width:0.5;" x1="263" x2="3036" y1="1556" y2="1556"/>
  <line id="Capline-L" style="fill:none;stroke:#27AAE1;opacity:1;stroke-width:0.5;" x1="263" x2="3036" y1="1485.54" y2="1485.54"/>
  <line id="left-margin" style="fill:none;stroke:#00AEEF;stroke-width:0.5;opacity:1.0;" x1="1404.92" x2="1404.92" y1="1030.79" y2="1150.12"/>
  <line id="right-margin" style="fill:none;stroke:#00AEEF;stroke-width:0.5;opacity:1.0;" x1="1494.77" x2="1494.77" y1="1030.79" y2="1150.12"/>
 </g>
 <g id="Symbols">
  <g id="Black-L" transform="matrix(1 0 0 1 2871.83 1556)">
   <path d="M19.3359-10.0098C15.0391-5.76172 14.8438 2.29492 19.4824 6.88477C24.1211 11.5234 32.1777 11.3281 36.4258 7.08008L61.5723-18.0664L86.6211 7.03125C91.1133 11.4746 98.9258 11.4746 103.564 6.83594C108.203 2.24609 108.203-5.56641 103.76-10.0586L78.6621-35.1562L103.76-60.2539C108.203-64.7461 108.203-72.5586 103.564-77.1484C98.9258-81.7871 91.1133-81.7871 86.6211-77.3438L61.5723-52.2461L36.4258-77.3926C32.1777-81.6895 24.1211-81.8848 19.4824-77.2461C14.8438-72.6074 15.0391-64.5508 19.3359-60.3027L44.4336-35.1562Z"/>
  </g>
  <g id="Heavy-L" transform="matrix(1 0 0 1 2576.12 1556)">
   <path d="M18.8965-8.10547C15.1855-4.44336 15.0391 2.44141 18.9941 6.39648C22.9492 10.4004 29.834 10.2539 33.5449 6.54297L60.5957-20.5078L87.5488 6.49414C91.4551 10.3027 98.1445 10.3516 102.1 6.34766C106.104 2.39258 106.055-4.29688 102.246-8.1543L75.2441-35.1562L102.246-62.1582C106.055-66.0156 106.104-72.7051 102.1-76.6602C98.1445-80.6641 91.4551-80.6641 87.5488-76.8066L60.5957-49.8047L33.5449-76.8555C29.834-80.5664 22.9492-80.7129 18.9941-76.709C15.0391-72.7539 15.1855-65.8691 18.8965-62.207L45.8984-35.1562Z"/>
  </g>
  <g id="Bold-L" transform="matrix(1 0 0 1 2280.51 1556)">
   <path d="M18.4082-6.00586C15.332-2.92969 15.2344 2.63672 18.457 5.85938C21.6797 9.13086 27.2461 8.98438 30.3223 5.95703L59.4727-23.2422L88.623 5.9082C91.7969 9.0332 97.2168 9.08203 100.439 5.81055C103.711 2.58789 103.662-2.83203 100.537-6.00586L71.3867-35.1562L100.537-64.3066C103.662-67.4805 103.711-72.9004 100.439-76.123C97.2168-79.3945 91.7969-79.3457 88.623-76.2207L59.4727-47.0703L30.3223-76.2695C27.2461-79.2969 21.6797-79.4434 18.457-76.1719C15.2344-72.9492 15.332-67.3828 18.4082-64.3066L47.5586-35.1562Z"/>
  </g>
  <g id="Semibold-L" transform="matrix(1 0 0 1 1984.55 1556)">
   <path d="M18.0664-4.54102C15.4297-1.9043 15.332 2.73438 18.1152 5.46875C20.8008 8.20312 25.4883 8.10547 28.0762 5.51758L58.7402-25.0977L89.3555 5.51758C92.041 8.1543 96.6309 8.20312 99.3164 5.41992C102.1 2.73438 102.051-1.85547 99.3652-4.54102L68.75-35.1562L99.3652-65.7715C102.051-68.457 102.1-73.0469 99.3164-75.7812C96.6309-78.5156 92.041-78.4668 89.3555-75.8301L58.7402-45.2148L28.0762-75.8301C25.4883-78.418 20.8008-78.5156 18.1152-75.7812C15.332-73.0469 15.4297-68.4082 18.0664-65.7715L48.6816-35.1562Z"/>
  </g>
  <g id="Medium-L" transform="matrix(1 0 0 1 1688.4 1556)">
   <path d="M17.7734-3.41797C15.5273-1.12305 15.4297 2.83203 17.8223 5.17578C20.166 7.56836 24.1211 7.4707 26.416 5.22461L58.1543-26.5625L89.8926 5.17578C92.1875 7.4707 96.1426 7.51953 98.4863 5.17578C100.83 2.83203 100.781-1.12305 98.4863-3.41797L66.748-35.1562L98.4863-66.8945C100.781-69.1895 100.83-73.1445 98.4863-75.4883C96.1426-77.832 92.1875-77.832 89.8926-75.4883L58.1543-43.75L26.416-75.5371C24.1211-77.7832 20.166-77.8809 17.8223-75.4883C15.4297-73.1445 15.5273-69.1895 17.7734-66.8945L49.5605-35.1562Z"/>
  </g>
  <g id="Regular-L" transform="matrix(1 0 0 1 1392.45 1556)">
   <path d="M17.4316-1.95312C15.625-0.146484 15.5762 2.97852 17.4316 4.78516C19.2871 6.68945 22.3633 6.64062 24.2188 4.78516L57.4219-28.418L90.625 4.78516C92.4316 6.64062 95.5078 6.68945 97.3633 4.78516C99.2188 2.97852 99.1699-0.146484 97.3633-1.95312L64.1602-35.1562L97.3633-68.3594C99.1699-70.166 99.2188-73.291 97.3633-75.0977C95.5078-77.002 92.4316-76.9531 90.625-75.0977L57.4219-41.8945L24.2188-75.0977C22.3633-76.9531 19.2871-77.002 17.4316-75.0977C15.5762-73.291 15.625-70.166 17.4316-68.3594L50.6348-35.1562Z"/>
  </g>
  <g id="Light-L" transform="matrix(1 0 0 1 1096.52 1556)">
   <path d="M17.1387-0.683594C15.7227 0.683594 15.7227 2.97852 17.1387 4.3457C18.5059 5.76172 20.8008 5.76172 22.168 4.3457L56.6406-30.0781L91.0645 4.3457C92.4316 5.76172 94.7266 5.76172 96.1426 4.3457C97.5586 2.97852 97.5098 0.683594 96.1426-0.683594L61.6699-35.1562L96.1426-69.5801C97.5098-70.9473 97.5586-73.2422 96.1426-74.6582C94.7266-76.0742 92.4316-76.0254 91.0645-74.6582L56.6406-40.1855L22.168-74.6582C20.8008-76.0254 18.5059-76.0742 17.1387-74.6582C15.7227-73.2422 15.7227-70.9473 17.1387-69.5801L51.5625-35.1562Z"/>
  </g>
  <g id="Thin-L" transform="matrix(1 0 0 1 800.831 1556)">
   <path d="M16.6504 0.976562C15.8691 1.75781 15.8691 3.02734 16.6504 3.80859C17.4805 4.58984 18.7012 4.58984 19.5312 3.80859L55.5664-32.2754L91.6504 3.80859C92.4805 4.58984 93.7012 4.58984 94.4824 3.80859C95.3125 3.02734 95.3125 1.75781 94.4824 0.976562L58.4473-35.1074L94.4824-71.1914C95.3125-71.9727 95.3125-73.2422 94.4824-74.0234C93.7012-74.8535 92.4805-74.8535 91.6504-74.0234L55.5664-37.9395L19.5312-74.0234C18.7012-74.8535 17.4805-74.8535 16.6504-74.0234C15.8691-73.2422 15.8691-71.9727 16.6504-71.1914L52.7344-35.1074Z"/>
  </g>
  <g id="Ultralight-L" transform="matrix(1 0 0 1 504.657 1556)">
   <path d="M16.4551 1.80664C15.918 2.29492 15.9668 3.02734 16.4551 3.51562C16.9434 4.00391 17.627 4.00391 18.1152 3.51562L55.0293-33.3984L91.9922 3.51562C92.4805 4.00391 93.1641 4.00391 93.6523 3.51562C94.1406 3.02734 94.1895 2.29492 93.6523 1.80664L56.7383-35.1074L93.6523-72.0215C94.1895-72.5098 94.1406-73.2422 93.6523-73.7305C93.1641-74.2188 92.4805-74.2188 91.9922-73.7305L55.0293-36.8164L18.1152-73.7305C17.627-74.2188 16.9434-74.2188 16.4551-73.7305C15.9668-73.2422 15.918-72.5098 16.4551-72.0215L53.3691-35.1074Z"/>
  </g>
  <g id="Black-M" transform="matrix(1 0 0 1 2884.79 1126)">
   <path d="M15.3809-17.5781C11.5234-13.7695 11.3281-6.34766 15.5762-2.14844C19.8242 2.09961 27.1973 1.9043 31.0547-1.95312L48.6328-19.5312L66.1133-2.00195C70.2148 2.05078 77.3438 2.05078 81.5918-2.19727C85.791-6.44531 85.791-13.5742 81.7871-17.6758L64.2578-35.1562L81.7871-52.6855C85.791-56.7871 85.791-63.916 81.5918-68.1152C77.3438-72.3633 70.2148-72.3633 66.1133-68.3105L48.6328-50.8301L31.0547-68.4082C27.1973-72.2168 19.8242-72.4121 15.5762-68.2129C11.3281-63.9648 11.5234-56.5918 15.3809-52.7344L32.959-35.1562Z"/>
  </g>
  <g id="Heavy-M" transform="matrix(1 0 0 1 2588.94 1126)">
   <path d="M14.9902-15.8203C11.6699-12.5 11.5234-6.20117 15.1367-2.58789C18.75 1.07422 25.0977 0.927734 28.418-2.44141L47.7539-21.7285L67.041-2.49023C70.5566 1.02539 76.6602 1.02539 80.3223-2.63672C83.9355-6.25 83.9355-12.3535 80.4688-15.8691L61.1816-35.1562L80.4688-54.4434C83.9355-57.959 83.9355-64.1113 80.3223-67.7246C76.6602-71.3867 70.5566-71.3379 67.041-67.8711L47.7539-48.584L28.418-67.9199C25.0977-71.2402 18.75-71.4355 15.1367-67.7734C11.5234-64.1602 11.6699-57.8125 14.9902-54.4922L34.3262-35.1562Z"/>
  </g>
  <g id="Bold-M" transform="matrix(1 0 0 1 2293.2 1126)">
   <path d="M14.5508-13.8672C11.8164-11.1328 11.6699-6.00586 14.6484-3.02734C17.5781-0.0976562 22.7051-0.195312 25.4883-2.97852L46.7773-24.2676L68.0176-2.97852C70.9473-0.146484 75.9277-0.0976562 78.8574-3.07617C81.8359-6.05469 81.8359-11.0352 78.9551-13.916L57.7148-35.1562L78.9551-56.4453C81.8359-59.3262 81.8359-64.3066 78.8574-67.2852C75.9277-70.2637 70.9473-70.2148 68.0176-67.3828L46.7773-46.0938L25.4883-67.3828C22.7051-70.166 17.5781-70.2637 14.6484-67.2852C11.6699-64.3555 11.8164-59.2285 14.5508-56.4941L35.8398-35.1562Z"/>
  </g>
  <g id="Semibold-M" transform="matrix(1 0 0 1 1997.17 1126)">
   <path d="M14.2578-12.5C11.8652-10.1562 11.8164-5.85938 14.3066-3.36914C16.7969-0.878906 21.0938-0.976562 23.4375-3.32031L46.0938-25.9766L68.75-3.36914C71.1914-0.927734 75.3906-0.878906 77.8809-3.41797C80.3711-5.9082 80.3711-10.1074 77.9297-12.5488L55.3223-35.1562L77.9297-57.8125C80.3711-60.2539 80.3711-64.4531 77.8809-66.9434C75.3906-69.4824 71.1914-69.4336 68.75-66.9922L46.0938-44.3848L23.4375-67.041C21.0938-69.3848 16.7969-69.4824 14.3066-66.9922C11.8164-64.502 11.8652-60.2051 14.2578-57.8125L36.9141-35.1562Z"/>
  </g>
  <g id="Medium-M" transform="matrix(1 0 0 1 1700.95 1126)">
   <path d="M14.0137-11.4746C11.9629-9.42383 11.8652-5.76172 14.0625-3.66211C16.1621-1.46484 19.873-1.5625 21.9238-3.61328L45.6055-27.2949L69.2871-3.61328C71.3867-1.51367 75-1.46484 77.0996-3.66211C79.2969-5.76172 79.248-9.42383 77.1484-11.5234L53.4668-35.2051L77.1484-58.8379C79.248-60.9863 79.2969-64.5996 77.0996-66.6992C75-68.8965 71.3867-68.8477 69.2871-66.748L45.6055-43.0664L21.9238-66.748C19.873-68.7988 16.1621-68.8965 14.0625-66.6992C11.8652-64.5996 11.9629-60.9375 14.0137-58.8867L37.6953-35.2051Z"/>
  </g>
  <g id="Regular-M" transform="matrix(1 0 0 1 1404.92 1126)">
   <path d="M13.7207-10.1562C12.0605-8.49609 12.0117-5.66406 13.7207-3.95508C15.3809-2.24609 18.2617-2.29492 19.9219-3.95508L44.9219-29.0039L69.9707-3.95508C71.6309-2.29492 74.4629-2.24609 76.123-3.95508C77.8809-5.66406 77.832-8.49609 76.123-10.1562L51.123-35.2051L76.123-60.2051C77.832-61.8652 77.8809-64.7461 76.123-66.4062C74.4629-68.1152 71.6309-68.0664 69.9707-66.4062L44.9219-41.3574L19.9219-66.4062C18.2617-68.0664 15.3809-68.1152 13.7207-66.4062C12.0117-64.7461 12.0605-61.8652 13.7207-60.2051L38.7695-35.2051Z"/>
  </g>
  <g id="Light-M" transform="matrix(1 0 0 1 1108.9 1126)">
   <path d="M13.4277-9.0332C12.1582-7.76367 12.1094-5.61523 13.4277-4.3457C14.6973-3.02734 16.8457-3.07617 18.1152-4.3457L44.2383-30.4688L70.3613-4.3457C71.6309-3.07617 73.7793-3.02734 75.0488-4.3457C76.3672-5.61523 76.3184-7.76367 75.0488-9.0332L48.9258-35.1562L75.0488-61.3281C76.3184-62.5977 76.3672-64.6973 75.0488-65.9668C73.7793-67.2852 71.6309-67.2363 70.3613-65.9668L44.2383-39.8438L18.1152-65.9668C16.8457-67.2363 14.6973-67.2852 13.4277-65.9668C12.1094-64.6973 12.1582-62.5977 13.4277-61.3281L39.5508-35.1562Z"/>
  </g>
  <g id="Thin-M" transform="matrix(1 0 0 1 813.112 1126)">
   <path d="M13.0371-7.51953C12.2559-6.78711 12.2559-5.61523 13.0371-4.88281C13.7695-4.10156 14.9414-4.10156 15.6738-4.88281L43.3105-32.4707L70.8984-4.88281C71.6309-4.10156 72.8516-4.10156 73.584-4.88281C74.3652-5.61523 74.3164-6.78711 73.584-7.51953L45.9961-35.1562L73.584-62.7441C74.3164-63.4766 74.3652-64.6973 73.584-65.4297C72.8516-66.2109 71.6309-66.1621 70.8984-65.4297L43.3105-37.8418L15.6738-65.4297C14.9414-66.1621 13.7695-66.2109 13.0371-65.4297C12.2559-64.6973 12.2559-63.4766 13.0371-62.7441L40.625-35.1562Z"/>
  </g>
  <g id="Ultralight-M" transform="matrix(1 0 0 1 516.889 1126)">
   <path d="M12.793-6.78711C12.3535-6.29883 12.3535-5.61523 12.793-5.12695C13.2812-4.63867 14.0137-4.63867 14.4531-5.12695L42.8223-33.4961L71.1914-5.12695C71.6797-4.63867 72.3633-4.63867 72.8516-5.12695C73.3398-5.61523 73.3398-6.29883 72.8516-6.78711L44.4824-35.1562L72.8516-63.4766C73.3398-63.9648 73.3398-64.6973 72.8516-65.1367C72.3633-65.625 71.6797-65.625 71.1914-65.1367L42.8223-36.8164L14.4531-65.1367C14.0137-65.625 13.2812-65.625 12.793-65.1367C12.3535-64.6973 12.3535-63.9648 12.793-63.4766L41.1621-35.1562Z"/>
  </g>
  <g id="Black-S" transform="matrix(1 0 0 1 2895.36 696)">
   <path d="M12.0605-21.2891C9.08203-18.3105 8.93555-12.5977 12.207-9.32617C15.4785-6.05469 21.1914-6.20117 24.1699-9.17969L38.0371-23.0957L51.9043-9.22852C55.0781-6.10352 60.5957-6.10352 63.8672-9.375C67.1387-12.6465 67.1387-18.1641 64.0137-21.3379L50.1465-35.2051L64.0137-49.0234C67.1387-52.1973 67.1387-57.7148 63.8672-60.9863C60.5957-64.2578 55.0781-64.2578 51.9043-61.1328L38.0371-47.3145L24.1699-61.1816C21.1914-64.1602 15.4785-64.3066 12.207-61.0352C8.93555-57.7637 9.08203-52.0508 12.0605-49.0723L25.9277-35.2051Z"/>
  </g>
  <g id="Heavy-S" transform="matrix(1 0 0 1 2599.24 696)">
   <path d="M11.7676-20.0684C9.13086-17.4316 9.0332-12.4512 11.8652-9.61914C14.7461-6.73828 19.7266-6.88477 22.3145-9.52148L37.4512-24.6094L52.5391-9.52148C55.3223-6.78711 60.1074-6.78711 62.9883-9.66797C65.8691-12.5 65.8203-17.334 63.0859-20.1172L47.998-35.2051L63.0859-50.2441C65.8203-53.0273 65.8691-57.8613 62.9883-60.6934C60.1074-63.5742 55.3223-63.5742 52.5391-60.8398L37.4512-45.752L22.3145-60.8887C19.7266-63.4766 14.7461-63.623 11.8652-60.7422C9.0332-57.9102 9.13086-52.9297 11.7676-50.293L26.9043-35.2051Z"/>
  </g>
  <g id="Bold-S" transform="matrix(1 0 0 1 2303.19 696)">
   <path d="M11.4746-18.7012C9.22852-16.4551 9.13086-12.3047 11.5234-9.96094C13.916-7.51953 18.0664-7.61719 20.3125-9.86328L36.8164-26.3672L53.2715-9.91211C55.5664-7.56836 59.6191-7.56836 62.0117-9.96094C64.4531-12.3535 64.4043-16.4062 62.1094-18.75L45.6543-35.2051L62.1094-51.6602C64.4043-54.0039 64.4531-58.0078 62.0117-60.4004C59.6191-62.8418 55.5664-62.793 53.2715-60.498L36.8164-44.043L20.3125-60.498C18.0664-62.7441 13.916-62.8418 11.5234-60.4492C9.13086-58.0566 9.22852-53.9062 11.4746-51.6602L27.9297-35.2051Z"/>
  </g>
  <g id="Semibold-S" transform="matrix(1 0 0 1 2006.91 696)">
   <path d="M11.2793-17.7734C9.27734-15.8203 9.22852-12.207 11.3281-10.1562C13.3789-8.05664 16.9434-8.1543 18.9453-10.1074L36.3281-27.5391L53.7598-10.1562C55.7617-8.10547 59.2773-8.10547 61.377-10.2051C63.4766-12.2559 63.4277-15.7715 61.4258-17.7734L43.9941-35.2051L61.4258-52.5879C63.4277-54.6387 63.4766-58.1543 61.377-60.2051C59.2773-62.3047 55.7617-62.2559 53.7598-60.2539L36.3281-42.8711L18.9453-60.2539C16.9434-62.2559 13.3789-62.3047 11.3281-60.2051C9.22852-58.1543 9.27734-54.5898 11.2793-52.6367L28.7109-35.2051Z"/>
  </g>
  <g id="Medium-S" transform="matrix(1 0 0 1 1710.54 696)">
   <path d="M11.1328-17.041C9.32617-15.2832 9.27734-12.1582 11.1328-10.3516C12.9395-8.49609 16.1133-8.54492 17.8711-10.3027L35.9863-28.4668L54.1504-10.3027C55.9082-8.54492 59.0332-8.49609 60.8398-10.3516C62.6953-12.1582 62.6953-15.2832 60.8887-17.0898L42.7734-35.2051L60.8887-53.3203C62.6953-55.127 62.6953-58.252 60.8398-60.0586C59.0332-61.9141 55.9082-61.8652 54.1504-60.0586L35.9863-41.9434L17.8711-60.1074C16.1133-61.8652 12.9395-61.9141 11.1328-60.0586C9.27734-58.252 9.32617-55.0781 11.1328-53.3203L29.248-35.2051Z"/>
  </g>
  <g id="Regular-S" transform="matrix(1 0 0 1 1414.3 696)">
   <path d="M10.8887-16.1133C9.42383-14.6484 9.375-12.0605 10.8887-10.5469C12.4023-9.0332 14.9902-9.0332 16.5039-10.5469L35.5469-29.6387L54.6387-10.5469C56.1035-9.0332 58.6914-9.0332 60.2051-10.5469C61.7676-12.0605 61.7188-14.6484 60.2051-16.1133L41.1133-35.2051L60.2051-54.248C61.7188-55.7617 61.7676-58.3496 60.2051-59.8633C58.6914-61.377 56.1035-61.3281 54.6387-59.8633L35.5469-40.7715L16.5039-59.8633C14.9902-61.3281 12.4023-61.377 10.8887-59.8633C9.375-58.3496 9.42383-55.7617 10.8887-54.248L29.9805-35.2051Z"/>
  </g>
  <g id="Light-S" transform="matrix(1 0 0 1 1118.2 696)">
   <path d="M10.6445-15.1367C9.47266-13.9648 9.47266-12.0605 10.6445-10.8887C11.7676-9.7168 13.7207-9.76562 14.8926-10.8887L34.9121-30.957L54.9805-10.8887C56.1523-9.76562 58.0566-9.7168 59.2285-10.8887C60.4004-12.0605 60.3516-13.9648 59.2285-15.1367L39.1602-35.2051L59.2285-55.2246C60.3516-56.3965 60.4004-58.3496 59.2285-59.4727C58.0566-60.6445 56.1523-60.6445 54.9805-59.4727L34.9121-39.4531L14.8926-59.4727C13.7207-60.6445 11.7676-60.6445 10.6445-59.4727C9.47266-58.3496 9.47266-56.3965 10.6445-55.2246L30.7129-35.2051Z"/>
  </g>
  <g id="Thin-S" transform="matrix(1 0 0 1 822.316 696)">
   <path d="M10.3027-13.8184C9.61914-13.1348 9.57031-12.0117 10.3027-11.3281C10.9863-10.6445 12.0605-10.6445 12.7441-11.3281L34.1309-32.666L55.4688-11.3281C56.1523-10.6445 57.2754-10.6445 57.959-11.3281C58.6426-12.0117 58.6426-13.1348 57.959-13.8184L36.5723-35.1562L57.959-56.4941C58.6426-57.1777 58.6426-58.3008 57.959-58.9844C57.2754-59.7168 56.1523-59.668 55.4688-58.9844L34.1309-37.6465L12.7441-58.9844C12.0605-59.668 10.9863-59.7168 10.3027-58.9844C9.57031-58.3008 9.61914-57.1777 10.3027-56.4941L31.6406-35.1562Z"/>
  </g>
  <g id="Ultralight-S" transform="matrix(1 0 0 1 526.02 696)">
   <path d="M10.1074-13.1348C9.66797-12.6953 9.66797-12.0117 10.1074-11.5723C10.5469-11.1328 11.2305-11.1328 11.6699-11.5723L33.6914-33.5938L55.7129-11.5723C56.1523-11.1328 56.8359-11.1328 57.2754-11.5723C57.7148-12.0117 57.7148-12.6953 57.2754-13.1348L35.2539-35.1562L57.2754-57.1777C57.7148-57.6172 57.7148-58.3008 57.2754-58.7402C56.8359-59.1797 56.1523-59.1797 55.7129-58.7402L33.6914-36.7188L11.6699-58.7402C11.2305-59.1797 10.5469-59.1797 10.1074-58.7402C9.66797-58.3008 9.66797-57.6172 10.1074-57.1777L32.1289-35.1562Z"/>
  </g>
 </g>
</svg>
