<?xml version="1.0" encoding="UTF-8"?>
<!--Generator: Apple Native CoreSVG 175.5-->
<!DOCTYPE svg
PUBLIC "-//W3C//DTD SVG 1.1//EN"
       "http://www.w3.org/Graphics/SVG/1.1/DTD/svg11.dtd">
<svg version="1.1" xmlns="http://www.w3.org/2000/svg" xmlns:xlink="http://www.w3.org/1999/xlink" width="3300" height="2200">
 <!--glyph: "uni1002A3.medium", point size: 100.0, font version: "18.0d12e2", template writer version: "101"-->
 <g id="Notes">
  <rect height="2200" id="artboard" style="fill:white;opacity:1" width="3300" x="0" y="0"/>
  <line style="fill:none;stroke:black;opacity:1;stroke-width:0.5;" x1="263" x2="3036" y1="292" y2="292"/>
  <text style="stroke:none;fill:black;font-family:sans-serif;font-size:13;font-weight:bold;" transform="matrix(1 0 0 1 263 322)">Weight/Scale Variations</text>
  <text style="stroke:none;fill:black;font-family:sans-serif;font-size:13;text-anchor:middle;" transform="matrix(1 0 0 1 559.711 322)">Ultralight</text>
  <text style="stroke:none;fill:black;font-family:sans-serif;font-size:13;text-anchor:middle;" transform="matrix(1 0 0 1 856.422 322)">Thin</text>
  <text style="stroke:none;fill:black;font-family:sans-serif;font-size:13;text-anchor:middle;" transform="matrix(1 0 0 1 1153.13 322)">Light</text>
  <text style="stroke:none;fill:black;font-family:sans-serif;font-size:13;text-anchor:middle;" transform="matrix(1 0 0 1 1449.84 322)">Regular</text>
  <text style="stroke:none;fill:black;font-family:sans-serif;font-size:13;text-anchor:middle;" transform="matrix(1 0 0 1 1746.56 322)">Medium</text>
  <text style="stroke:none;fill:black;font-family:sans-serif;font-size:13;text-anchor:middle;" transform="matrix(1 0 0 1 2043.27 322)">Semibold</text>
  <text style="stroke:none;fill:black;font-family:sans-serif;font-size:13;text-anchor:middle;" transform="matrix(1 0 0 1 2339.98 322)">Bold</text>
  <text style="stroke:none;fill:black;font-family:sans-serif;font-size:13;text-anchor:middle;" transform="matrix(1 0 0 1 2636.69 322)">Heavy</text>
  <text style="stroke:none;fill:black;font-family:sans-serif;font-size:13;text-anchor:middle;" transform="matrix(1 0 0 1 2933.4 322)">Black</text>
  <line style="fill:none;stroke:black;opacity:1;stroke-width:0.5;" x1="263" x2="3036" y1="1903" y2="1903"/>
  <g transform="matrix(1 0 0 1 263 1933)">
   <path d="M9.24805 0.830078C13.5547 0.830078 17.1387-2.74414 17.1387-7.05078C17.1387-11.3574 13.5449-14.9316 9.23828-14.9316C4.94141-14.9316 1.36719-11.3574 1.36719-7.05078C1.36719-2.74414 4.95117 0.830078 9.24805 0.830078ZM9.24805-0.654297C5.70312-0.654297 2.87109-3.49609 2.87109-7.05078C2.87109-10.6055 5.69336-13.4473 9.23828-13.4473C12.793-13.4473 15.6445-10.6055 15.6445-7.05078C15.6445-3.49609 12.8027-0.654297 9.24805-0.654297ZM5.6543-7.05078C5.6543-6.62109 5.95703-6.32812 6.40625-6.32812L8.50586-6.32812L8.50586-4.20898C8.50586-3.76953 8.79883-3.4668 9.22852-3.4668C9.67773-3.4668 9.9707-3.76953 9.9707-4.20898L9.9707-6.32812L12.0898-6.32812C12.5293-6.32812 12.832-6.62109 12.832-7.05078C12.832-7.49023 12.5293-7.79297 12.0898-7.79297L9.9707-7.79297L9.9707-9.90234C9.9707-10.3516 9.67773-10.6543 9.22852-10.6543C8.79883-10.6543 8.50586-10.3516 8.50586-9.90234L8.50586-7.79297L6.40625-7.79297C5.95703-7.79297 5.6543-7.49023 5.6543-7.05078Z"/>
  </g>
  <g transform="matrix(1 0 0 1 281.867 1933)">
   <path d="M11.709 2.91016C17.1582 2.91016 21.6699-1.61133 21.6699-7.05078C21.6699-12.5 17.1484-17.0117 11.6992-17.0117C6.25977-17.0117 1.74805-12.5 1.74805-7.05078C1.74805-1.61133 6.26953 2.91016 11.709 2.91016ZM11.709 1.25C7.09961 1.25 3.41797-2.44141 3.41797-7.05078C3.41797-11.6602 7.08984-15.3516 11.6992-15.3516C16.3086-15.3516 20.0098-11.6602 20.0098-7.05078C20.0098-2.44141 16.3184 1.25 11.709 1.25ZM7.17773-7.05078C7.17773-6.57227 7.50977-6.25 8.00781-6.25L10.8789-6.25L10.8789-3.36914C10.8789-2.88086 11.2109-2.53906 11.6895-2.53906C12.1777-2.53906 12.5195-2.87109 12.5195-3.36914L12.5195-6.25L15.4004-6.25C15.8887-6.25 16.2305-6.57227 16.2305-7.05078C16.2305-7.53906 15.8887-7.88086 15.4004-7.88086L12.5195-7.88086L12.5195-10.752C12.5195-11.25 12.1777-11.5918 11.6895-11.5918C11.2109-11.5918 10.8789-11.25 10.8789-10.752L10.8789-7.88086L8.00781-7.88086C7.50977-7.88086 7.17773-7.53906 7.17773-7.05078Z"/>
  </g>
  <g transform="matrix(1 0 0 1 305.646 1933)">
   <path d="M14.9707 5.66406C21.9336 5.66406 27.6953-0.0976562 27.6953-7.05078C27.6953-14.0137 21.9238-19.7754 14.9609-19.7754C8.00781-19.7754 2.25586-14.0137 2.25586-7.05078C2.25586-0.0976562 8.01758 5.66406 14.9707 5.66406ZM14.9707 3.84766C8.93555 3.84766 4.08203-1.01562 4.08203-7.05078C4.08203-13.0957 8.92578-17.9492 14.9609-17.9492C21.0059-17.9492 25.8691-13.0957 25.8691-7.05078C25.8691-1.01562 21.0156 3.84766 14.9707 3.84766ZM9.19922-7.05078C9.19922-6.5332 9.57031-6.17188 10.1172-6.17188L14.0625-6.17188L14.0625-2.2168C14.0625-1.67969 14.4336-1.29883 14.9512-1.29883C15.4883-1.29883 15.8594-1.66992 15.8594-2.2168L15.8594-6.17188L19.8145-6.17188C20.3516-6.17188 20.7324-6.5332 20.7324-7.05078C20.7324-7.59766 20.3613-7.96875 19.8145-7.96875L15.8594-7.96875L15.8594-11.9141C15.8594-12.4609 15.4883-12.8418 14.9512-12.8418C14.4336-12.8418 14.0625-12.4609 14.0625-11.9141L14.0625-7.96875L10.1172-7.96875C9.57031-7.96875 9.19922-7.59766 9.19922-7.05078Z"/>
  </g>
  <text style="stroke:none;fill:black;font-family:sans-serif;font-size:13;font-weight:bold;" transform="matrix(1 0 0 1 263 1953)">Design Variations</text>
  <text style="stroke:none;fill:black;font-family:sans-serif;font-size:13;" transform="matrix(1 0 0 1 263 1971)">Symbols are supported in up to nine weights and three scales.</text>
  <text style="stroke:none;fill:black;font-family:sans-serif;font-size:13;" transform="matrix(1 0 0 1 263 1989)">For optimal layout with text and other symbols, vertically align</text>
  <text style="stroke:none;fill:black;font-family:sans-serif;font-size:13;" transform="matrix(1 0 0 1 263 2007)">symbols with the adjacent text.</text>
  <line style="fill:none;stroke:#00AEEF;stroke-width:0.5;opacity:1.0;" x1="776" x2="776" y1="1919" y2="1933"/>
  <g transform="matrix(1 0 0 1 776 1933)">
   <path d="M3.31055 0.15625C3.82812 0.15625 4.08203-0.0390625 4.26758-0.585938L5.52734-4.0332L11.2891-4.0332L12.5488-0.585938C12.7344-0.0390625 12.9883 0.15625 13.4961 0.15625C14.0137 0.15625 14.3457-0.15625 14.3457-0.644531C14.3457-0.810547 14.3164-0.966797 14.2383-1.17188L9.6582-13.3691C9.43359-13.9648 9.0332-14.2676 8.4082-14.2676C7.80273-14.2676 7.39258-13.9746 7.17773-13.3789L2.59766-1.16211C2.51953-0.957031 2.49023-0.800781 2.49023-0.634766C2.49023-0.146484 2.80273 0.15625 3.31055 0.15625ZM6.00586-5.51758L8.37891-12.0898L8.42773-12.0898L10.8008-5.51758Z"/>
  </g>
  <line style="fill:none;stroke:#00AEEF;stroke-width:0.5;opacity:1.0;" x1="793.197" x2="793.197" y1="1919" y2="1933"/>
  <text style="stroke:none;fill:black;font-family:sans-serif;font-size:13;font-weight:bold;" transform="matrix(1 0 0 1 776 1953)">Margins</text>
  <text style="stroke:none;fill:black;font-family:sans-serif;font-size:13;" transform="matrix(1 0 0 1 776 1971)">Leading and trailing margins on the left and right side of each symbol</text>
  <text style="stroke:none;fill:black;font-family:sans-serif;font-size:13;" transform="matrix(1 0 0 1 776 1989)">can be adjusted by modifying the x-location of the margin guidelines.</text>
  <text style="stroke:none;fill:black;font-family:sans-serif;font-size:13;" transform="matrix(1 0 0 1 776 2007)">Modifications are automatically applied proportionally to all</text>
  <text style="stroke:none;fill:black;font-family:sans-serif;font-size:13;" transform="matrix(1 0 0 1 776 2025)">scales and weights.</text>
  <g transform="matrix(1 0 0 1 1289 1933)">
   <path d="M2.8418 1.86523L4.54102 3.57422C5.40039 4.44336 6.38672 4.38477 7.31445 3.35938L18.0078-8.42773L17.041-9.4043L6.42578 2.27539C6.07422 2.67578 5.74219 2.77344 5.27344 2.30469L4.10156 1.14258C3.63281 0.683594 3.74023 0.341797 4.14062-0.0195312L15.6152-10.8203L14.6387-11.7871L3.04688-0.898438C2.06055 0.0195312 1.98242 0.996094 2.8418 1.86523ZM9.25781-16.3281C8.83789-15.918 8.80859-15.3418 9.04297-14.9512C9.27734-14.5898 9.73633-14.3555 10.3809-14.5215C11.8457-14.8633 13.3691-14.9219 14.7949-13.9844L14.209-12.5293C13.8672-11.6992 14.043-11.1133 14.5801-10.5664L16.875-8.25195C17.3633-7.76367 17.7734-7.74414 18.3398-7.8418L19.4043-8.03711L20.0684-7.36328L20.0293-6.80664C19.9902-6.30859 20.1172-5.92773 20.6055-5.44922L21.3672-4.70703C21.8457-4.22852 22.4609-4.19922 22.9297-4.66797L25.8398-7.58789C26.3086-8.05664 26.2891-8.65234 25.8105-9.13086L25.0391-9.89258C24.5605-10.3711 24.1895-10.5273 23.7109-10.4883L23.1348-10.4395L22.4902-11.0742L22.7344-12.1973C22.8613-12.7637 22.7051-13.2031 22.1191-13.7891L19.9219-15.9766C16.582-19.2969 12.1484-19.2188 9.25781-16.3281ZM10.752-15.957C13.1836-17.7344 16.4746-17.4316 18.7012-15.2051L21.1328-12.793C21.3672-12.5586 21.4062-12.373 21.3379-12.0312L21.0156-10.5469L22.5195-9.0625L23.5059-9.12109C23.7598-9.13086 23.8379-9.11133 24.0332-8.91602L24.6094-8.33984L22.168-5.89844L21.5918-6.47461C21.3965-6.66992 21.3672-6.74805 21.377-7.01172L21.4453-7.98828L19.9512-9.47266L18.4277-9.21875C18.1055-9.15039 17.959-9.17969 17.7148-9.41406L15.7129-11.416C15.459-11.6504 15.4297-11.8164 15.5859-12.1875L16.4648-14.2773C14.9023-15.7324 12.8711-16.3574 10.8398-15.7617C10.6836-15.7227 10.625-15.8496 10.752-15.957Z"/>
  </g>
  <text style="stroke:none;fill:black;font-family:sans-serif;font-size:13;font-weight:bold;" transform="matrix(1 0 0 1 1289 1953)">Exporting</text>
  <text style="stroke:none;fill:black;font-family:sans-serif;font-size:13;" transform="matrix(1 0 0 1 1289 1971)">Symbols should be outlined when exporting to ensure the</text>
  <text style="stroke:none;fill:black;font-family:sans-serif;font-size:13;" transform="matrix(1 0 0 1 1289 1989)">design is preserved when submitting to Xcode.</text>
  <text id="template-version" style="stroke:none;fill:black;font-family:sans-serif;font-size:13;text-anchor:end;" transform="matrix(1 0 0 1 3036 1933)">Template v.4.0</text>
  <text style="stroke:none;fill:black;font-family:sans-serif;font-size:13;text-anchor:end;" transform="matrix(1 0 0 1 3036 1951)">Requires Xcode 14 or greater</text>
  <text id="descriptive-name" style="stroke:none;fill:black;font-family:sans-serif;font-size:13;text-anchor:end;" transform="matrix(1 0 0 1 3036 1969)">Generated from speaker.slash.fill</text>
  <text style="stroke:none;fill:black;font-family:sans-serif;font-size:13;text-anchor:end;" transform="matrix(1 0 0 1 3036 1987)">Typeset at 100 points</text>
  <text style="stroke:none;fill:black;font-family:sans-serif;font-size:13;" transform="matrix(1 0 0 1 263 726)">Small</text>
  <text style="stroke:none;fill:black;font-family:sans-serif;font-size:13;" transform="matrix(1 0 0 1 263 1156)">Medium</text>
  <text style="stroke:none;fill:black;font-family:sans-serif;font-size:13;" transform="matrix(1 0 0 1 263 1586)">Large</text>
 </g>
 <g id="Guides">
  <g id="H-reference" style="fill:#27AAE1;stroke:none;" transform="matrix(1 0 0 1 339 696)">
   <path d="M0.993654 0L3.63775 0L29.3281-67.1323L30.0303-67.1323L30.0303-70.459L28.1226-70.459ZM11.6885-24.4799L46.9815-24.4799L46.2315-26.7285L12.4385-26.7285ZM55.1196 0L57.7637 0L30.6382-70.459L29.4326-70.459L29.4326-67.1323Z"/>
  </g>
  <line id="Baseline-S" style="fill:none;stroke:#27AAE1;opacity:1;stroke-width:0.5;" x1="263" x2="3036" y1="696" y2="696"/>
  <line id="Capline-S" style="fill:none;stroke:#27AAE1;opacity:1;stroke-width:0.5;" x1="263" x2="3036" y1="625.541" y2="625.541"/>
  <g id="H-reference" style="fill:#27AAE1;stroke:none;" transform="matrix(1 0 0 1 339 1126)">
   <path d="M0.993654 0L3.63775 0L29.3281-67.1323L30.0303-67.1323L30.0303-70.459L28.1226-70.459ZM11.6885-24.4799L46.9815-24.4799L46.2315-26.7285L12.4385-26.7285ZM55.1196 0L57.7637 0L30.6382-70.459L29.4326-70.459L29.4326-67.1323Z"/>
  </g>
  <line id="Baseline-M" style="fill:none;stroke:#27AAE1;opacity:1;stroke-width:0.5;" x1="263" x2="3036" y1="1126" y2="1126"/>
  <line id="Capline-M" style="fill:none;stroke:#27AAE1;opacity:1;stroke-width:0.5;" x1="263" x2="3036" y1="1055.54" y2="1055.54"/>
  <g id="H-reference" style="fill:#27AAE1;stroke:none;" transform="matrix(1 0 0 1 339 1556)">
   <path d="M0.993654 0L3.63775 0L29.3281-67.1323L30.0303-67.1323L30.0303-70.459L28.1226-70.459ZM11.6885-24.4799L46.9815-24.4799L46.2315-26.7285L12.4385-26.7285ZM55.1196 0L57.7637 0L30.6382-70.459L29.4326-70.459L29.4326-67.1323Z"/>
  </g>
  <line id="Baseline-L" style="fill:none;stroke:#27AAE1;opacity:1;stroke-width:0.5;" x1="263" x2="3036" y1="1556" y2="1556"/>
  <line id="Capline-L" style="fill:none;stroke:#27AAE1;opacity:1;stroke-width:0.5;" x1="263" x2="3036" y1="1485.54" y2="1485.54"/>
  <line id="left-margin-Regular-M" style="fill:none;stroke:#00AEEF;stroke-width:0.5;opacity:1.0;" x1="1400.21" x2="1400.21" y1="1030.79" y2="1150.12"/>
  <line id="right-margin-Regular-M" style="fill:none;stroke:#00AEEF;stroke-width:0.5;opacity:1.0;" x1="1499.48" x2="1499.48" y1="1030.79" y2="1150.12"/>
 </g>
 <g id="Symbols">
  <g id="Black-L" transform="matrix(1 0 0 1 2862.75 1556)">
   <path d="M38.9978-4.90929L56.1188-4.90929C56.4941-4.90929 56.805-4.86287 57.1535-4.59481L81.924 18.4843C86.0078 22.2696 89.2838 23.902 93.584 23.902C98.2806 23.902 102.157 21.4448 104.064 17.3658L25.8882-60.7508C22.8132-57.6177 21.1496-52.9146 21.1496-46.8181L21.1496-23.5289C21.1496-11.4884 27.4159-4.90929 38.9978-4.90929ZM105.182-23.4296L105.182-82.5991C105.182-89.151 100.163-94.2841 93.546-94.2841C89.4758-94.2841 86.2287-92.7257 81.924-88.7415L60.5983-68.9217C60.4863-68.8121 60.313-68.6888 60.1378-68.6304L59.8813-68.6304ZM128.027 28.2782C130.233 30.4256 133.851 30.484 135.977 28.2782C138.106 26.07 138.184 22.5334 135.977 20.3264L17.8431-97.7495C15.6385-99.9333 11.9995-99.9565 9.79247-97.7495C7.66468-95.6217 7.66468-91.9047 9.79247-89.7769Z"/>
  </g>
  <g id="Heavy-L" transform="matrix(1 0 0 1 2567.78 1556)">
   <path d="M37.1688-6.10276L54.5419-6.10276C54.9801-6.10276 55.3456-6.01994 55.7255-5.72043L81.1481 17.9603C84.9241 21.4561 87.9734 22.9881 91.9145 22.9881C96.2715 22.9881 99.7747 20.7033 101.451 16.7611L24.891-59.7488C22.1099-56.8705 20.6206-52.5508 20.6206-46.929L20.6206-23.3688C20.6206-12.1127 26.3772-6.10276 37.1688-6.10276ZM102.391-22.0667L102.391-82.7695C102.391-88.6921 97.8954-93.3835 91.871-93.3835C88.0915-93.3835 85.1643-91.8747 81.1481-88.1746L58.7572-67.3702C58.5961-67.2203 58.35-67.0739 58.1218-67.0293L57.3233-67.0293ZM124.904 27.8925C127.008 29.9515 130.462 29.9962 132.491 27.8925C134.531 25.7775 134.6 22.4098 132.491 20.3005L16.9829-95.1627C14.8848-97.2306 11.4009-97.2721 9.29154-95.1627C7.25704-93.1282 7.25704-89.5751 9.29154-87.5406Z"/>
  </g>
  <g id="Bold-L" transform="matrix(1 0 0 1 2273.34 1556)">
   <path d="M34.7828-7.59307L52.5156-7.59307C53.0456-7.59307 53.4802-7.46418 53.906-7.11878L80.2025 17.3073C83.5646 20.4122 86.3148 21.8212 89.7954 21.8212C93.767 21.8212 96.7943 19.692 98.1641 15.9188L23.6391-58.5638C21.1894-56.008 19.9003-52.1571 19.9003-47.112L19.9003-23.1095C19.9003-12.8887 25.012-7.59307 34.7828-7.59307ZM98.8885-20.0335L98.8885-82.9547C98.8885-88.1011 95.0459-92.2395 89.7591-92.2395C86.3556-92.2395 83.8129-90.7996 80.2025-87.4977L56.4006-65.4045C56.1631-65.1935 55.8249-65.0239 55.5053-64.9947L53.8221-64.9947ZM120.898 27.3191C122.834 29.2259 126.02 29.2551 127.889 27.3191C129.784 25.3567 129.838 22.2636 127.889 20.3145L15.6913-91.8542C13.7686-93.7389 10.5438-93.8034 8.59468-91.8542C6.7127-89.9722 6.7127-86.6935 8.59468-84.8116Z"/>
  </g>
  <g id="Semibold-L" transform="matrix(1 0 0 1 1978.19 1556)">
   <path d="M33.138-8.62049L51.1187-8.62049C51.712-8.62049 52.1942-8.45983 52.6517-8.0828L79.5506 16.8572C82.6273 19.6925 85.1713 21.0168 88.3344 21.0168C92.0404 21.0168 94.7396 18.9947 95.8979 15.3381L22.776-57.7468C20.5548-55.4133 19.4038-51.8857 19.4038-47.2382L19.4038-22.9307C19.4038-13.4236 24.0707-8.62049 33.138-8.62049ZM96.4739-18.6318L96.4739-83.0824C96.4739-87.6937 93.0815-91.4508 88.3031-91.4508C85.1589-91.4508 82.8813-90.0585 79.5506-87.031L54.776-64.0494C54.4859-63.7962 54.0841-63.6106 53.7015-63.592L51.4084-63.592ZM118.136 26.9239C119.956 28.7256 122.959 28.7442 124.717 26.9239C126.512 25.0666 126.556 22.1628 124.717 20.3241L14.8009-89.5733C12.9991-91.3318 9.95303-91.4121 8.11427-89.5733C6.33744-87.7965 6.33744-84.707 8.11427-82.9302Z"/>
  </g>
  <g id="Medium-L" transform="matrix(1 0 0 1 1682.67 1556)">
   <path d="M31.8908-9.39951L50.0595-9.39951C50.7007-9.39951 51.2191-9.21477 51.7005-8.81375L79.0563 16.5158C81.9167 19.1469 84.3043 20.4068 87.2267 20.4068C90.7313 20.4068 93.1816 18.466 94.1796 14.8978L22.1215-57.1273C20.0736-54.9624 19.0273-51.68 19.0273-47.3338L19.0273-22.7951C19.0273-13.8293 23.3571-9.39951 31.8908-9.39951ZM94.643-17.569L94.643-83.1792C94.643-87.3848 91.592-90.8528 87.1992-90.8528C84.2515-90.8528 82.1749-89.4965 79.0563-86.6771L53.5441-63.0218C53.2141-62.7367 52.7642-62.539 52.3338-62.5284L49.5782-62.5284ZM116.041 26.6242C117.774 28.3463 120.637 28.3568 122.312 26.6242C124.031 24.8467 124.067 22.0864 122.312 20.3314L14.1258-87.8439C12.4156-89.5065 9.50505-89.5989 7.75-87.8439C6.0529-86.1468 6.0529-83.2007 7.75-81.5036Z"/>
  </g>
  <g id="Regular-L" transform="matrix(1 0 0 1 1387.5 1556)">
   <path d="M30.264-10.4156L48.678-10.4156C49.3817-10.4156 49.9472-10.1995 50.46-9.76718L78.4116 16.0706C80.9897 18.4351 83.1734 19.6112 85.7818 19.6112C89.0237 19.6112 91.1495 17.7765 91.9384 14.3235L21.2679-56.3193C19.4459-54.3743 18.5362-51.4115 18.5362-47.4586L18.5362-22.6183C18.5362-14.3584 22.4262-10.4156 30.264-10.4156ZM92.255-16.1827L92.255-83.3055C92.255-86.9819 89.6492-90.0727 85.7592-90.0727C83.0679-90.0727 81.2535-88.7635 78.4116-86.2155L51.9373-61.6816C51.5552-61.3548 51.0425-61.1412 50.5498-61.1412L47.191-61.1412ZM113.309 26.2333C114.928 27.8515 117.609 27.8515 119.174 26.2333C120.795 24.5598 120.82 21.9867 119.174 20.3409L13.2452-85.588C11.6546-87.1258 8.92072-87.2339 7.27486-85.588C5.68176-83.9949 5.68176-81.236 7.27486-79.6429Z"/>
  </g>
  <g id="Light-L" transform="matrix(1 0 0 1 1093.14 1556)">
   <path d="M27.8401-11.5226L46.8076-11.5226C47.6641-11.5226 48.2868-11.2683 48.8759-10.7596L77.8581 15.5934C79.94 17.4808 81.7993 18.5806 83.9878 18.5806C87.1915 18.5806 88.8974 16.4787 89.3428 13.1402L20.2946-55.8613C18.4917-54.1835 17.6201-51.507 17.6201-47.8785L17.6201-22.0457C17.6201-14.9118 20.9757-11.5226 27.8401-11.5226ZM89.5449-12.5565L89.5449-83.2673C89.5449-86.4284 87.4162-89.0994 84.0606-89.0994C81.7319-89.0994 80.1084-87.8855 77.8581-85.9102L49.8189-60.0402C49.2841-59.5989 48.695-59.4044 47.9733-59.4044L42.6296-59.4044ZM109.645 25.2218C110.881 26.4583 112.971 26.4583 114.174 25.2218C115.47 23.8918 115.457 21.9295 114.174 20.6462L10.8977-82.6298C9.70791-83.7859 7.58475-83.9131 6.30151-82.6298C5.05195-81.3803 5.05195-79.2702 6.30151-78.0206Z"/>
  </g>
  <g id="Thin-L" transform="matrix(1 0 0 1 799.533 1556)">
   <path d="M24.6344-12.9866L44.3339-12.9866C45.3923-12.9866 46.0908-12.6818 46.7808-12.0722L77.1261 14.9624C78.5517 16.2188 79.9819 17.2175 81.615 17.2175C84.7683 17.2175 85.9189 14.7622 85.9099 11.5752L19.0072-55.2555C17.2296-53.9311 16.4085-51.6332 16.4085-48.4338L16.4085-21.2885C16.4085-15.6439 19.0573-12.9866 24.6344-12.9866ZM85.9605-7.76056L85.9605-83.2168C85.9605-85.6964 84.4629-87.8121 81.8141-87.8121C79.965-87.8121 78.5939-86.7244 77.1261-85.5063L47.017-57.8694C46.2803-57.2767 45.5903-57.1074 44.5656-57.1074L36.5968-57.1074ZM104.799 23.884C105.53 24.6156 106.837 24.6156 107.56 23.884C108.428 23.0083 108.364 21.8538 107.56 21.0501L7.79292-78.7173C7.13324-79.3686 5.81783-79.521 5.01418-78.7173C4.21897-77.9221 4.21897-76.6703 5.01418-75.8751Z"/>
  </g>
  <g id="Ultralight-L" transform="matrix(1 0 0 1 504.412 1556)">
   <path d="M22.9925-13.7365L43.0669-13.7365C44.2287-13.7365 44.966-13.4058 45.7077-12.7445L76.7512 14.6392C77.8407 15.5723 79.051 16.5194 80.3997 16.5194C83.5271 16.5194 84.3933 13.8831 84.1516 10.7736L18.3479-54.9452C16.5831-53.8018 15.7879-51.6978 15.7879-48.7182L15.7879-20.9006C15.7879-16.0188 18.0747-13.7365 22.9925-13.7365ZM84.1247-5.3041L84.1247-83.191C84.1247-85.3214 82.9502-87.1527 80.6634-87.1527C79.06-87.1527 77.8182-86.1297 76.7512-85.2994L45.5819-56.7576C44.7418-56.0872 44-55.9309 42.8203-55.9309L33.5068-55.9309ZM102.316 23.1987C102.789 23.6718 103.695 23.6718 104.173 23.1987C104.82 22.5558 104.731 21.815 104.173 21.257L6.20269-76.7134C5.81451-77.1061 4.91281-77.2714 4.35481-76.7134C3.79232-76.1509 3.79232-75.3386 4.35481-74.7761Z"/>
  </g>
  <g id="Black-M" transform="matrix(1 0 0 1 2877.49 1126)">
   <path d="M31.4568-10.8634L44.5794-10.8634C44.8368-10.8634 45.0385-10.8536 45.2918-10.6626L64.0619 6.77046C67.4231 9.88736 70.112 11.2279 73.6952 11.2279C77.6206 11.2279 80.8871 9.13979 82.5171 5.87761L20.7818-55.801C18.1494-53.1908 16.7161-49.2566 16.7161-44.1692L16.7161-26.2245C16.7161-16.3747 21.9364-10.8634 31.4568-10.8634ZM83.5207-26.7677L83.5207-71.7772C83.5207-77.3241 79.2463-81.6238 73.6834-81.6238C70.3294-81.6238 67.5647-80.3867 64.0619-77.1333L48.2433-62.4433C48.178-62.3774 48.096-62.3044 47.9748-62.2473L47.973-62.2473ZM101.375 14.167C103.12 15.8549 105.984 15.912 107.666 14.167C109.348 12.4226 109.411 9.62022 107.666 7.87552L14.2451-85.4887C12.4998-87.2285 9.62997-87.2334 7.88527-85.4887C6.20316-83.8066 6.20316-80.8738 7.88527-79.1917Z"/>
  </g>
  <g id="Heavy-M" transform="matrix(1 0 0 1 2582.26 1126)">
   <path d="M29.8924-11.928L43.2105-11.928C43.5152-11.928 43.765-11.8861 44.042-11.6714L63.3544 6.30229C66.4605 9.18011 68.9577 10.4296 72.2287 10.4296C75.8255 10.4296 78.7663 8.53473 80.2021 5.39569L19.8968-54.8637C17.55-52.478 16.2834-48.8921 16.2834-44.2389L16.2834-26.1209C16.2834-16.9339 21.0548-11.928 29.8924-11.928ZM81.0421-25.7698L81.0421-71.9472C81.0421-76.9266 77.2358-80.8331 72.2027-80.8331C69.0994-80.8331 66.6298-79.6358 63.3544-76.6073L46.6389-61.078C46.5398-60.9834 46.3936-60.886 46.2417-60.8424L45.8932-60.8424ZM98.6604 13.8833C100.341 15.52 103.099 15.5636 104.719 13.8833C106.344 12.1983 106.402 9.50475 104.719 7.8221L13.6207-83.2329C11.9426-84.8946 9.16802-84.9155 7.48538-83.2329C5.86276-81.6103 5.86276-78.7779 7.48538-77.1553Z"/>
  </g>
  <g id="Bold-M" transform="matrix(1 0 0 1 2287.21 1126)">
   <path d="M28.1424-13.1189L41.6791-13.1189C42.0369-13.1189 42.3405-13.0411 42.644-12.7999L62.563 5.77858C65.3837 8.38894 67.6665 9.53657 70.5881 9.53657C73.8175 9.53657 76.3939 7.85789 77.6124 4.8566L18.9068-53.8153C16.8794-51.6807 15.7994-48.4843 15.7994-44.3169L15.7994-26.0049C15.7994-17.5595 20.0687-13.1189 28.1424-13.1189ZM78.2694-24.6536L78.2694-72.1375C78.2694-76.4819 74.9869-79.9486 70.5463-79.9486C67.7234-79.9486 65.5839-78.7957 62.563-76.0189L44.8443-59.5508C44.7071-59.4239 44.4893-59.2992 44.303-59.2707L43.5666-59.2707ZM95.6241 13.5659C97.2322 15.1454 99.8716 15.1739 101.423 13.5659C102.984 11.9475 103.036 9.37558 101.423 7.76235L12.9222-80.7094C11.3192-82.2837 8.65127-82.3226 7.03804-80.7094C5.48198-79.1533 5.48198-76.4333 7.03804-74.8773Z"/>
  </g>
  <g id="Semibold-M" transform="matrix(1 0 0 1 1991.64 1126)">
   <path d="M26.9359-13.9399L40.6233-13.9399C41.0177-13.9399 41.3584-13.8374 41.6802-13.5779L62.0174 5.41754C64.6413 7.84351 66.7763 8.9209 69.4572 8.9209C72.4332 8.9209 74.7584 7.39128 75.8271 4.48495L18.2243-53.0926C16.4171-51.131 15.4658-48.2032 15.4658-44.3707L15.4658-25.925C15.4658-17.9908 19.3889-13.9399 26.9359-13.9399ZM76.358-23.8841L76.358-72.2686C76.358-76.1753 73.4364-79.3389 69.4044-79.3389C66.7749-79.3389 64.8629-78.2166 62.0174-75.6133L43.607-58.4979C43.4437-58.3489 43.1764-58.2054 42.9665-58.1872L41.9626-58.1872ZM93.5309 13.347C95.0892 14.8872 97.6467 14.9053 99.1497 13.347C100.667 11.7746 100.715 9.28653 99.1497 7.72116L12.4407-78.9697C10.8895-80.4839 8.29502-80.5351 6.72964-78.9697C5.21947-77.4596 5.21947-74.817 6.72964-73.3068Z"/>
  </g>
  <g id="Medium-M" transform="matrix(1 0 0 1 1695.79 1126)">
   <path d="M26.0212-14.5624L39.8228-14.5624C40.2449-14.5624 40.6137-14.4411 40.9494-14.1678L61.6037 5.14379C64.0785 7.42995 66.1014 8.45408 68.5996 8.45408C71.3836 8.45408 73.5182 7.03747 74.4733 4.20315L17.7068-52.5445C16.0666-50.7142 15.2128-47.99 15.2128-44.4115L15.2128-25.8644C15.2128-18.3178 18.8734-14.5624 26.0212-14.5624ZM74.9086-23.3006L74.9086-72.368C74.9086-75.9428 72.2608-78.8766 68.5386-78.8766C66.0556-78.8766 64.3162-77.7775 61.6037-75.3057L42.6689-57.6996C42.4857-57.5337 42.1809-57.3759 41.9531-57.3656L40.7465-57.3656ZM91.9438 13.1811C93.4643 14.6913 95.9596 14.7016 97.4264 13.1811C98.9104 11.6434 98.9555 9.21901 97.4264 7.68993L12.0755-77.6507C10.5637-79.1191 8.02489-79.1797 6.49581-77.6507C5.02042-76.1753 5.02042-73.5914 6.49581-72.116Z"/>
  </g>
  <g id="Regular-M" transform="matrix(1 0 0 1 1400.21 1126)">
   <path d="M24.828-15.3744L38.7787-15.3744C39.2369-15.3744 39.6424-15.2287 39.9961-14.9372L61.0641 4.78671C63.3443 6.89051 65.221 7.84519 67.4811 7.84519C70.0144 7.84519 71.9007 6.57599 72.7076 3.83558L17.0318-51.8297C15.6094-50.1706 14.8828-47.712 14.8828-44.4646L14.8828-25.7853C14.8828-18.7444 18.2011-15.3744 24.828-15.3744ZM73.0182-22.5395L73.0182-72.4977C73.0182-75.6396 70.7274-78.2735 67.4092-78.2735C65.1175-78.2735 63.6031-77.2048 61.0641-74.9045L41.4452-56.6583C41.2362-56.4704 40.8825-56.2941 40.6313-56.2941L39.1601-56.2941ZM89.8736 12.9647C91.3448 14.4359 93.7591 14.4359 95.1786 12.9647C96.6192 11.4724 96.6604 9.13094 95.1786 7.64919L11.5993-75.9301C10.1386-77.339 7.67256-77.4119 6.1908-75.9301C4.7608-74.5001 4.7608-71.9928 6.1908-70.5628Z"/>
  </g>
  <g id="Light-M" transform="matrix(1 0 0 1 1105.6 1126)">
   <path d="M22.6549-16.3668L37.1018-16.3668C37.6969-16.3668 38.1538-16.1869 38.5759-15.827L60.5679 4.35894C62.4032 6.03497 63.989 6.92119 65.8726 6.92119C68.3718 6.92119 69.8816 5.41244 70.3805 2.7747L16.1592-51.419C14.7538-49.9995 14.0615-47.7976 14.0615-44.8411L14.0615-25.272C14.0615-19.2406 16.9006-16.3668 22.6549-16.3668ZM70.5884-19.2885L70.5884-72.4635C70.5884-75.1434 68.7255-77.4009 65.8863-77.4009C63.9197-77.4009 62.5764-76.4177 60.5679-74.6307L39.5459-55.1868C39.2-54.8962 38.7779-54.737 38.3213-54.737L35.0706-54.737ZM86.5883 12.0578C87.7173 13.1868 89.6012 13.1868 90.6955 12.0578C91.8452 10.8735 91.8522 9.07961 90.6955 7.92296L9.49465-73.2779C8.39332-74.3446 6.47479-74.4346 5.31815-73.2779C4.19614-72.1559 4.19614-70.2304 5.31815-69.1084Z"/>
  </g>
  <g id="Thin-M" transform="matrix(1 0 0 1 811.674 1126)">
   <path d="M19.7808-17.6794L34.884-17.6794C35.6602-17.6794 36.1849-17.4542 36.6976-17.0038L59.9116 3.79317C61.1585 4.90344 62.3596 5.69914 63.7453 5.69914C66.1993 5.69914 67.2112 3.87356 67.3028 1.37161L15.005-50.8759C13.6223-49.7731 12.9752-47.9107 12.9752-45.339L12.9752-24.5931C12.9752-19.8969 15.1807-17.6794 19.7808-17.6794ZM67.3749-14.9886L67.3749-72.4183C67.3749-74.4871 66.0777-76.2467 63.8722-76.2467C62.3356-76.2467 61.2186-75.3767 59.9116-74.2687L37.0339-53.2406C36.507-52.8142 35.9943-52.6776 35.2662-52.6776L29.6619-52.6776ZM82.2432 10.8584C82.9196 11.5348 84.102 11.5348 84.7663 10.8584C85.5313 10.0815 85.493 9.01172 84.7663 8.28505L6.71108-69.7702C6.085-70.3842 4.89065-70.4968 4.16399-69.7702C3.44933-69.0555 3.44933-67.8995 4.16399-67.1848Z"/>
  </g>
  <g id="Ultralight-M" transform="matrix(1 0 0 1 516.389 1126)">
   <path d="M18.3087-18.3517L33.7481-18.3517C34.617-18.3517 35.1765-18.1033 35.7355-17.6065L59.5755 3.50339C60.521 4.32387 61.525 5.07321 62.6558 5.07321C65.0865 5.07321 65.8434 3.08536 65.7264 0.652947L14.4138-50.5977C13.0427-49.6572 12.4188-47.9687 12.4188-45.594L12.4188-24.2453C12.4188-20.233 14.2998-18.3517 18.3087-18.3517ZM65.7289-12.7863L65.7289-72.3951C65.7289-74.151 64.7215-75.6555 62.8406-75.6555C61.5242-75.6555 60.5231-74.8435 59.5755-74.0832L35.7473-52.2437C35.1276-51.7478 34.5686-51.6228 33.7013-51.6228L26.8916-51.6228ZM80.0177 10.2441C80.4623 10.6886 81.2853 10.6886 81.7294 10.2441C82.2973 9.67576 82.2358 8.97695 81.7294 8.47051L5.28536-67.9735C4.90269-68.3558 4.07926-68.48 3.57283-67.9735C3.06682-67.4675 3.06682-66.7056 3.57283-66.1995Z"/>
  </g>
  <g id="Black-S" transform="matrix(1 0 0 1 2889.26 696)">
   <path d="M25-15.8691L35.2539-15.8691C35.4492-15.8691 35.5957-15.8691 35.791-15.7227L50.3906-2.19727C53.0762 0.292969 55.2246 1.36719 58.1055 1.36719C61.2793 1.36719 63.916-0.341797 65.2344-2.92969L16.5039-51.6113C14.3555-49.5117 13.1836-46.3379 13.1836-42.2363L13.1836-28.1738C13.1836-20.3125 17.3828-15.8691 25-15.8691ZM66.0645-28.7109L66.0645-63.8184C66.0645-68.3105 62.5977-71.7773 58.1055-71.7773C55.4199-71.7773 53.1738-70.8008 50.3906-68.2129L38.1836-56.8848C38.1348-56.8359 38.0859-56.7871 37.9883-56.7383L37.9883-56.7383ZM80.0781 3.51562C81.4453 4.83398 83.6914 4.88281 85.0098 3.51562C86.3281 2.14844 86.377-0.0488281 85.0098-1.41602L11.2305-75.1465C9.86328-76.5137 7.61719-76.5137 6.25-75.1465C4.93164-73.8281 4.93164-71.5332 6.25-70.2148Z"/>
  </g>
  <g id="Heavy-S" transform="matrix(1 0 0 1 2593.55 696)">
   <path d="M23.9397-16.6528L34.2974-16.6528C34.5157-16.6528 34.6968-16.6298 34.9036-16.4717L49.849-2.543C52.3732-0.202583 54.3948 0.802489 57.0567 0.802489C59.954 0.802489 62.3602-0.71058 63.5518-3.20627L15.8585-50.8622C13.9521-48.924 12.9185-46.0152 12.9185-42.2479L12.9185-28.1508C12.9185-20.7274 16.7951-16.6528 23.9397-16.6528ZM64.2551-28.273L64.2551-63.9682C64.2551-68.034 61.134-71.2126 57.0337-71.2126C54.521-71.2126 52.5054-70.2591 49.849-67.798L37.0542-55.9052C36.9938-55.8448 36.8989-55.773 36.8013-55.7357L36.7321-55.7357ZM78.1766 3.38886C79.5323 4.70722 81.7553 4.74452 83.0621 3.38886C84.369 2.03319 84.4178-0.141024 83.0621-1.49669L10.9654-73.5561C9.60974-74.9002 7.37517-74.9118 6.01951-73.5561C4.71268-72.2493 4.71268-69.9659 6.01951-68.659Z"/>
  </g>
  <g id="Bold-S" transform="matrix(1 0 0 1 2297.95 696)">
   <path d="M22.7539-17.5293L33.2275-17.5293C33.4717-17.5293 33.6914-17.4805 33.9111-17.3096L49.2432-2.92969C51.5869-0.756836 53.4668 0.170898 55.8838 0.170898C58.4717 0.170898 60.6201-1.12305 61.6699-3.51562L15.1367-50.0244C13.501-48.2666 12.6221-45.6543 12.6221-42.2607L12.6221-28.125C12.6221-21.1914 16.1377-17.5293 22.7539-17.5293ZM62.2314-27.7832L62.2314-64.1357C62.2314-67.7246 59.4971-70.5811 55.835-70.5811C53.5156-70.5811 51.7578-69.6533 49.2432-67.334L35.791-54.8096C35.7178-54.7363 35.5713-54.6387 35.4736-54.6143L35.3271-54.6143ZM76.0498 3.24707C77.3926 4.56543 79.5898 4.58984 80.8838 3.24707C82.1777 1.9043 82.2266-0.244141 80.8838-1.58691L10.6689-71.7773C9.32617-73.0957 7.10449-73.1201 5.76172-71.7773C4.46777-70.4834 4.46777-68.2129 5.76172-66.9189Z"/>
  </g>
  <g id="Semibold-S" transform="matrix(1 0 0 1 2002.01 696)">
   <path d="M21.9363-18.1336L32.4899-18.1336C32.7519-18.1336 32.9982-18.067 33.2269-17.8872L48.8255-3.19629C51.0448-1.13896 52.827-0.264551 55.0751-0.264551C57.4497-0.264551 59.4204-1.40742 60.3725-3.72891L14.6391-49.4468C13.1899-47.8134 12.4177-45.4055 12.4177-42.2696L12.4177-28.1072C12.4177-21.5113 15.6845-18.1336 21.9363-18.1336ZM60.8362-27.4455L60.8362-64.2513C60.8362-67.5113 58.3685-70.1456 55.0085-70.1456C52.8225-70.1456 51.2424-69.2356 48.8255-67.0141L34.9201-54.0542C34.838-53.9721 34.656-53.8566 34.5583-53.8411L34.3585-53.8411ZM74.5835 3.14932C75.9174 4.46768 78.0969 4.4832 79.3819 3.14932C80.667 1.81543 80.7158-0.315234 79.3819-1.64912L10.4646-70.551C9.13066-71.8516 6.91787-71.8849 5.58398-70.551C4.29893-69.2659 4.29893-67.0043 5.58398-65.7192Z"/>
  </g>
  <g id="Medium-S" transform="matrix(1 0 0 1 1705.88 696)">
   <path d="M21.3164-18.5918L31.9307-18.5918C32.2061-18.5918 32.4727-18.5117 32.708-18.3252L48.5088-3.39844C50.6338-1.42871 52.3418-0.594727 54.4619-0.594727C56.6748-0.594727 58.5107-1.62305 59.3887-3.89062L14.2617-49.0088C12.9541-47.4697 12.2627-45.2168 12.2627-42.2764L12.2627-28.0938C12.2627-21.7539 15.3408-18.5918 21.3164-18.5918ZM59.7783-27.1895L59.7783-64.3389C59.7783-67.3496 57.5127-69.8154 54.3818-69.8154C52.2969-69.8154 50.8516-68.9189 48.5088-66.7715L34.2598-53.4814C34.1709-53.3926 33.9619-53.2637 33.8643-53.2549L33.624-53.2549ZM73.4717 3.0752C74.7988 4.39355 76.9648 4.40234 78.2432 3.0752C79.5215 1.74805 79.5703-0.369141 78.2432-1.69629L10.3096-69.6211C8.98242-70.9082 6.77637-70.9482 5.44922-69.6211C4.1709-68.3428 4.1709-66.0879 5.44922-64.8096Z"/>
  </g>
  <g id="Regular-S" transform="matrix(1 0 0 1 1409.93 696)">
   <path d="M20.5078-19.1895L31.2012-19.1895C31.4941-19.1895 31.7871-19.0918 32.0312-18.8965L48.0957-3.66211C50.0977-1.80664 51.709-1.02539 53.6621-1.02539C55.6641-1.02539 57.3242-1.9043 58.1055-4.10156L13.7695-48.4375C12.6465-47.0215 12.0605-44.9707 12.0605-42.2852L12.0605-28.0762C12.0605-22.0703 14.8926-19.1895 20.5078-19.1895ZM58.3984-26.8555L58.3984-64.4531C58.3984-67.1387 56.3965-69.3848 53.5645-69.3848C51.6113-69.3848 50.3418-68.5059 48.0957-66.4551L33.3984-52.7344C33.3008-52.6367 33.0566-52.4902 32.959-52.4902L32.666-52.4902ZM72.0215 2.97852C73.3398 4.29688 75.4883 4.29688 76.7578 2.97852C78.0273 1.66016 78.0762-0.439453 76.7578-1.75781L10.1074-68.4082C8.78906-69.6777 6.5918-69.7266 5.27344-68.4082C4.00391-67.1387 4.00391-64.8926 5.27344-63.623Z"/>
  </g>
  <g id="Light-S" transform="matrix(1 0 0 1 1115.08 696)">
   <path d="M18.5855-20.0674L29.7178-20.0674C30.1318-20.0674 30.4702-19.9394 30.7749-19.6836L47.6567-4.04052C49.2651-2.56347 50.6191-1.84277 52.2393-1.84277C54.2109-1.84277 55.5381-2.93359 56.0469-5.04003L12.9976-48.0742C11.8897-46.8701 11.334-45.0464 11.334-42.6182L11.334-27.6221C11.334-22.5093 13.7422-20.0674 18.5855-20.0674ZM56.249-23.9795L56.249-64.4229C56.249-66.6997 54.6255-68.6128 52.2173-68.6128C50.5518-68.6128 49.4336-67.8096 47.6567-66.2129L31.7183-51.4326C31.4995-51.2442 31.1948-51.1128 30.9155-51.1128L29.0484-51.1128ZM69.1153 2.17628C70.1309 3.1919 71.8101 3.1919 72.792 2.17628C73.8042 1.13038 73.8228-0.484863 72.792-1.51563L8.24562-66.062C7.24513-67.0288 5.53223-67.0928 4.50147-66.062C3.5044-65.065 3.5044-63.3335 4.50147-62.3364Z"/>
  </g>
  <g id="Thin-S" transform="matrix(1 0 0 1 820.829 696)">
   <path d="M16.043-21.2285L27.7559-21.2285C28.3301-21.2285 28.7285-21.0605 29.1133-20.7246L47.0762-4.54101C48.1641-3.56444 49.1778-2.92381 50.3574-2.92381C52.2891-2.92381 53.1758-4.2949 53.3243-6.28123L11.9766-47.5938C10.8887-46.6699 10.3731-45.1465 10.3731-43.0586L10.3731-27.0215C10.3731-23.0898 12.2207-21.2285 16.043-21.2285ZM53.4063-20.1758L53.4063-64.3828C53.4063-66.1191 52.2832-67.5918 50.4356-67.5918C49.1504-67.5918 48.2324-66.8887 47.0762-65.8926L29.4961-49.711C29.1172-49.4024 28.7325-49.291 28.2129-49.291L24.2637-49.291ZM65.2715 1.11525C65.8868 1.73049 66.9454 1.73049 67.5469 1.11525C68.2188 0.429697 68.1973-0.544921 67.5469-1.19532L5.78324-62.959C5.20315-63.5254 4.13088-63.6094 3.48048-62.959C2.84376-62.3223 2.84376-61.2715 3.48048-60.6348Z"/>
  </g>
  <g id="Ultralight-S" transform="matrix(1 0 0 1 525.38 696)">
   <path d="M14.7408-21.8232L26.751-21.8232C27.4073-21.8232 27.8365-21.6347 28.2622-21.2578L46.7788-4.79735C47.6001-4.07713 48.4395-3.47752 49.3936-3.47752C51.3047-3.47752 51.9659-4.99216 51.9297-6.91697L11.4536-47.3477C10.376-46.5674 9.88088-45.1978 9.88088-43.2842L9.88088-26.7139C9.88088-23.3872 11.4414-21.8232 14.7408-21.8232ZM51.9502-18.2276L51.9502-64.3623C51.9502-65.8218 51.0835-67.0689 49.523-67.0689C48.4326-67.0689 47.6172-66.417 46.7788-65.7285L28.3579-48.8291C27.897-48.459 27.4712-48.3579 26.8287-48.3579L21.8131-48.3579ZM63.3028 0.571796C63.713 0.98196 64.4537 0.98196 64.8604 0.571796C65.358 0.0708133 65.316-0.575683 64.8604-1.03126L4.52202-61.3697C4.15726-61.731 3.41311-61.8253 2.95754-61.3697C2.50538-60.9175 2.50538-60.2154 2.95754-59.7632Z"/>
  </g>
 </g>
</svg>
