<?xml version="1.0" encoding="UTF-8"?>
<!--Generator: Apple Native CoreSVG 175.5-->
<!DOCTYPE svg
PUBLIC "-//W3C//DTD SVG 1.1//EN"
       "http://www.w3.org/Graphics/SVG/1.1/DTD/svg11.dtd">
<svg version="1.1" xmlns="http://www.w3.org/2000/svg" xmlns:xlink="http://www.w3.org/1999/xlink" width="3300" height="2200">
 <!--glyph: "uni1002A7.medium", point size: 100.0, font version: "18.0d12e2", template writer version: "101"-->
 <g id="Notes">
  <rect height="2200" id="artboard" style="fill:white;opacity:1" width="3300" x="0" y="0"/>
  <line style="fill:none;stroke:black;opacity:1;stroke-width:0.5;" x1="263" x2="3036" y1="292" y2="292"/>
  <text style="stroke:none;fill:black;font-family:sans-serif;font-size:13;font-weight:bold;" transform="matrix(1 0 0 1 263 322)">Weight/Scale Variations</text>
  <text style="stroke:none;fill:black;font-family:sans-serif;font-size:13;text-anchor:middle;" transform="matrix(1 0 0 1 559.711 322)">Ultralight</text>
  <text style="stroke:none;fill:black;font-family:sans-serif;font-size:13;text-anchor:middle;" transform="matrix(1 0 0 1 856.422 322)">Thin</text>
  <text style="stroke:none;fill:black;font-family:sans-serif;font-size:13;text-anchor:middle;" transform="matrix(1 0 0 1 1153.13 322)">Light</text>
  <text style="stroke:none;fill:black;font-family:sans-serif;font-size:13;text-anchor:middle;" transform="matrix(1 0 0 1 1449.84 322)">Regular</text>
  <text style="stroke:none;fill:black;font-family:sans-serif;font-size:13;text-anchor:middle;" transform="matrix(1 0 0 1 1746.56 322)">Medium</text>
  <text style="stroke:none;fill:black;font-family:sans-serif;font-size:13;text-anchor:middle;" transform="matrix(1 0 0 1 2043.27 322)">Semibold</text>
  <text style="stroke:none;fill:black;font-family:sans-serif;font-size:13;text-anchor:middle;" transform="matrix(1 0 0 1 2339.98 322)">Bold</text>
  <text style="stroke:none;fill:black;font-family:sans-serif;font-size:13;text-anchor:middle;" transform="matrix(1 0 0 1 2636.69 322)">Heavy</text>
  <text style="stroke:none;fill:black;font-family:sans-serif;font-size:13;text-anchor:middle;" transform="matrix(1 0 0 1 2933.4 322)">Black</text>
  <line style="fill:none;stroke:black;opacity:1;stroke-width:0.5;" x1="263" x2="3036" y1="1903" y2="1903"/>
  <g transform="matrix(1 0 0 1 263 1933)">
   <path d="M9.24805 0.830078C13.5547 0.830078 17.1387-2.74414 17.1387-7.05078C17.1387-11.3574 13.5449-14.9316 9.23828-14.9316C4.94141-14.9316 1.36719-11.3574 1.36719-7.05078C1.36719-2.74414 4.95117 0.830078 9.24805 0.830078ZM9.24805-0.654297C5.70312-0.654297 2.87109-3.49609 2.87109-7.05078C2.87109-10.6055 5.69336-13.4473 9.23828-13.4473C12.793-13.4473 15.6445-10.6055 15.6445-7.05078C15.6445-3.49609 12.8027-0.654297 9.24805-0.654297ZM5.6543-7.05078C5.6543-6.62109 5.95703-6.32812 6.40625-6.32812L8.50586-6.32812L8.50586-4.20898C8.50586-3.76953 8.79883-3.4668 9.22852-3.4668C9.67773-3.4668 9.9707-3.76953 9.9707-4.20898L9.9707-6.32812L12.0898-6.32812C12.5293-6.32812 12.832-6.62109 12.832-7.05078C12.832-7.49023 12.5293-7.79297 12.0898-7.79297L9.9707-7.79297L9.9707-9.90234C9.9707-10.3516 9.67773-10.6543 9.22852-10.6543C8.79883-10.6543 8.50586-10.3516 8.50586-9.90234L8.50586-7.79297L6.40625-7.79297C5.95703-7.79297 5.6543-7.49023 5.6543-7.05078Z"/>
  </g>
  <g transform="matrix(1 0 0 1 281.867 1933)">
   <path d="M11.709 2.91016C17.1582 2.91016 21.6699-1.61133 21.6699-7.05078C21.6699-12.5 17.1484-17.0117 11.6992-17.0117C6.25977-17.0117 1.74805-12.5 1.74805-7.05078C1.74805-1.61133 6.26953 2.91016 11.709 2.91016ZM11.709 1.25C7.09961 1.25 3.41797-2.44141 3.41797-7.05078C3.41797-11.6602 7.08984-15.3516 11.6992-15.3516C16.3086-15.3516 20.0098-11.6602 20.0098-7.05078C20.0098-2.44141 16.3184 1.25 11.709 1.25ZM7.17773-7.05078C7.17773-6.57227 7.50977-6.25 8.00781-6.25L10.8789-6.25L10.8789-3.36914C10.8789-2.88086 11.2109-2.53906 11.6895-2.53906C12.1777-2.53906 12.5195-2.87109 12.5195-3.36914L12.5195-6.25L15.4004-6.25C15.8887-6.25 16.2305-6.57227 16.2305-7.05078C16.2305-7.53906 15.8887-7.88086 15.4004-7.88086L12.5195-7.88086L12.5195-10.752C12.5195-11.25 12.1777-11.5918 11.6895-11.5918C11.2109-11.5918 10.8789-11.25 10.8789-10.752L10.8789-7.88086L8.00781-7.88086C7.50977-7.88086 7.17773-7.53906 7.17773-7.05078Z"/>
  </g>
  <g transform="matrix(1 0 0 1 305.646 1933)">
   <path d="M14.9707 5.66406C21.9336 5.66406 27.6953-0.0976562 27.6953-7.05078C27.6953-14.0137 21.9238-19.7754 14.9609-19.7754C8.00781-19.7754 2.25586-14.0137 2.25586-7.05078C2.25586-0.0976562 8.01758 5.66406 14.9707 5.66406ZM14.9707 3.84766C8.93555 3.84766 4.08203-1.01562 4.08203-7.05078C4.08203-13.0957 8.92578-17.9492 14.9609-17.9492C21.0059-17.9492 25.8691-13.0957 25.8691-7.05078C25.8691-1.01562 21.0156 3.84766 14.9707 3.84766ZM9.19922-7.05078C9.19922-6.5332 9.57031-6.17188 10.1172-6.17188L14.0625-6.17188L14.0625-2.2168C14.0625-1.67969 14.4336-1.29883 14.9512-1.29883C15.4883-1.29883 15.8594-1.66992 15.8594-2.2168L15.8594-6.17188L19.8145-6.17188C20.3516-6.17188 20.7324-6.5332 20.7324-7.05078C20.7324-7.59766 20.3613-7.96875 19.8145-7.96875L15.8594-7.96875L15.8594-11.9141C15.8594-12.4609 15.4883-12.8418 14.9512-12.8418C14.4336-12.8418 14.0625-12.4609 14.0625-11.9141L14.0625-7.96875L10.1172-7.96875C9.57031-7.96875 9.19922-7.59766 9.19922-7.05078Z"/>
  </g>
  <text style="stroke:none;fill:black;font-family:sans-serif;font-size:13;font-weight:bold;" transform="matrix(1 0 0 1 263 1953)">Design Variations</text>
  <text style="stroke:none;fill:black;font-family:sans-serif;font-size:13;" transform="matrix(1 0 0 1 263 1971)">Symbols are supported in up to nine weights and three scales.</text>
  <text style="stroke:none;fill:black;font-family:sans-serif;font-size:13;" transform="matrix(1 0 0 1 263 1989)">For optimal layout with text and other symbols, vertically align</text>
  <text style="stroke:none;fill:black;font-family:sans-serif;font-size:13;" transform="matrix(1 0 0 1 263 2007)">symbols with the adjacent text.</text>
  <line style="fill:none;stroke:#00AEEF;stroke-width:0.5;opacity:1.0;" x1="776" x2="776" y1="1919" y2="1933"/>
  <g transform="matrix(1 0 0 1 776 1933)">
   <path d="M3.31055 0.15625C3.82812 0.15625 4.08203-0.0390625 4.26758-0.585938L5.52734-4.0332L11.2891-4.0332L12.5488-0.585938C12.7344-0.0390625 12.9883 0.15625 13.4961 0.15625C14.0137 0.15625 14.3457-0.15625 14.3457-0.644531C14.3457-0.810547 14.3164-0.966797 14.2383-1.17188L9.6582-13.3691C9.43359-13.9648 9.0332-14.2676 8.4082-14.2676C7.80273-14.2676 7.39258-13.9746 7.17773-13.3789L2.59766-1.16211C2.51953-0.957031 2.49023-0.800781 2.49023-0.634766C2.49023-0.146484 2.80273 0.15625 3.31055 0.15625ZM6.00586-5.51758L8.37891-12.0898L8.42773-12.0898L10.8008-5.51758Z"/>
  </g>
  <line style="fill:none;stroke:#00AEEF;stroke-width:0.5;opacity:1.0;" x1="793.197" x2="793.197" y1="1919" y2="1933"/>
  <text style="stroke:none;fill:black;font-family:sans-serif;font-size:13;font-weight:bold;" transform="matrix(1 0 0 1 776 1953)">Margins</text>
  <text style="stroke:none;fill:black;font-family:sans-serif;font-size:13;" transform="matrix(1 0 0 1 776 1971)">Leading and trailing margins on the left and right side of each symbol</text>
  <text style="stroke:none;fill:black;font-family:sans-serif;font-size:13;" transform="matrix(1 0 0 1 776 1989)">can be adjusted by modifying the x-location of the margin guidelines.</text>
  <text style="stroke:none;fill:black;font-family:sans-serif;font-size:13;" transform="matrix(1 0 0 1 776 2007)">Modifications are automatically applied proportionally to all</text>
  <text style="stroke:none;fill:black;font-family:sans-serif;font-size:13;" transform="matrix(1 0 0 1 776 2025)">scales and weights.</text>
  <g transform="matrix(1 0 0 1 1289 1933)">
   <path d="M2.8418 1.86523L4.54102 3.57422C5.40039 4.44336 6.38672 4.38477 7.31445 3.35938L18.0078-8.42773L17.041-9.4043L6.42578 2.27539C6.07422 2.67578 5.74219 2.77344 5.27344 2.30469L4.10156 1.14258C3.63281 0.683594 3.74023 0.341797 4.14062-0.0195312L15.6152-10.8203L14.6387-11.7871L3.04688-0.898438C2.06055 0.0195312 1.98242 0.996094 2.8418 1.86523ZM9.25781-16.3281C8.83789-15.918 8.80859-15.3418 9.04297-14.9512C9.27734-14.5898 9.73633-14.3555 10.3809-14.5215C11.8457-14.8633 13.3691-14.9219 14.7949-13.9844L14.209-12.5293C13.8672-11.6992 14.043-11.1133 14.5801-10.5664L16.875-8.25195C17.3633-7.76367 17.7734-7.74414 18.3398-7.8418L19.4043-8.03711L20.0684-7.36328L20.0293-6.80664C19.9902-6.30859 20.1172-5.92773 20.6055-5.44922L21.3672-4.70703C21.8457-4.22852 22.4609-4.19922 22.9297-4.66797L25.8398-7.58789C26.3086-8.05664 26.2891-8.65234 25.8105-9.13086L25.0391-9.89258C24.5605-10.3711 24.1895-10.5273 23.7109-10.4883L23.1348-10.4395L22.4902-11.0742L22.7344-12.1973C22.8613-12.7637 22.7051-13.2031 22.1191-13.7891L19.9219-15.9766C16.582-19.2969 12.1484-19.2188 9.25781-16.3281ZM10.752-15.957C13.1836-17.7344 16.4746-17.4316 18.7012-15.2051L21.1328-12.793C21.3672-12.5586 21.4062-12.373 21.3379-12.0312L21.0156-10.5469L22.5195-9.0625L23.5059-9.12109C23.7598-9.13086 23.8379-9.11133 24.0332-8.91602L24.6094-8.33984L22.168-5.89844L21.5918-6.47461C21.3965-6.66992 21.3672-6.74805 21.377-7.01172L21.4453-7.98828L19.9512-9.47266L18.4277-9.21875C18.1055-9.15039 17.959-9.17969 17.7148-9.41406L15.7129-11.416C15.459-11.6504 15.4297-11.8164 15.5859-12.1875L16.4648-14.2773C14.9023-15.7324 12.8711-16.3574 10.8398-15.7617C10.6836-15.7227 10.625-15.8496 10.752-15.957Z"/>
  </g>
  <text style="stroke:none;fill:black;font-family:sans-serif;font-size:13;font-weight:bold;" transform="matrix(1 0 0 1 1289 1953)">Exporting</text>
  <text style="stroke:none;fill:black;font-family:sans-serif;font-size:13;" transform="matrix(1 0 0 1 1289 1971)">Symbols should be outlined when exporting to ensure the</text>
  <text style="stroke:none;fill:black;font-family:sans-serif;font-size:13;" transform="matrix(1 0 0 1 1289 1989)">design is preserved when submitting to Xcode.</text>
  <text id="template-version" style="stroke:none;fill:black;font-family:sans-serif;font-size:13;text-anchor:end;" transform="matrix(1 0 0 1 3036 1933)">Template v.4.0</text>
  <text style="stroke:none;fill:black;font-family:sans-serif;font-size:13;text-anchor:end;" transform="matrix(1 0 0 1 3036 1951)">Requires Xcode 14 or greater</text>
  <text id="descriptive-name" style="stroke:none;fill:black;font-family:sans-serif;font-size:13;text-anchor:end;" transform="matrix(1 0 0 1 3036 1969)">Generated from speaker.wave.2.fill</text>
  <text style="stroke:none;fill:black;font-family:sans-serif;font-size:13;text-anchor:end;" transform="matrix(1 0 0 1 3036 1987)">Typeset at 100 points</text>
  <text style="stroke:none;fill:black;font-family:sans-serif;font-size:13;" transform="matrix(1 0 0 1 263 726)">Small</text>
  <text style="stroke:none;fill:black;font-family:sans-serif;font-size:13;" transform="matrix(1 0 0 1 263 1156)">Medium</text>
  <text style="stroke:none;fill:black;font-family:sans-serif;font-size:13;" transform="matrix(1 0 0 1 263 1586)">Large</text>
 </g>
 <g id="Guides">
  <g id="H-reference" style="fill:#27AAE1;stroke:none;" transform="matrix(1 0 0 1 339 696)">
   <path d="M0.993654 0L3.63775 0L29.3281-67.1323L30.0303-67.1323L30.0303-70.459L28.1226-70.459ZM11.6885-24.4799L46.9815-24.4799L46.2315-26.7285L12.4385-26.7285ZM55.1196 0L57.7637 0L30.6382-70.459L29.4326-70.459L29.4326-67.1323Z"/>
  </g>
  <line id="Baseline-S" style="fill:none;stroke:#27AAE1;opacity:1;stroke-width:0.5;" x1="263" x2="3036" y1="696" y2="696"/>
  <line id="Capline-S" style="fill:none;stroke:#27AAE1;opacity:1;stroke-width:0.5;" x1="263" x2="3036" y1="625.541" y2="625.541"/>
  <g id="H-reference" style="fill:#27AAE1;stroke:none;" transform="matrix(1 0 0 1 339 1126)">
   <path d="M0.993654 0L3.63775 0L29.3281-67.1323L30.0303-67.1323L30.0303-70.459L28.1226-70.459ZM11.6885-24.4799L46.9815-24.4799L46.2315-26.7285L12.4385-26.7285ZM55.1196 0L57.7637 0L30.6382-70.459L29.4326-70.459L29.4326-67.1323Z"/>
  </g>
  <line id="Baseline-M" style="fill:none;stroke:#27AAE1;opacity:1;stroke-width:0.5;" x1="263" x2="3036" y1="1126" y2="1126"/>
  <line id="Capline-M" style="fill:none;stroke:#27AAE1;opacity:1;stroke-width:0.5;" x1="263" x2="3036" y1="1055.54" y2="1055.54"/>
  <g id="H-reference" style="fill:#27AAE1;stroke:none;" transform="matrix(1 0 0 1 339 1556)">
   <path d="M0.993654 0L3.63775 0L29.3281-67.1323L30.0303-67.1323L30.0303-70.459L28.1226-70.459ZM11.6885-24.4799L46.9815-24.4799L46.2315-26.7285L12.4385-26.7285ZM55.1196 0L57.7637 0L30.6382-70.459L29.4326-70.459L29.4326-67.1323Z"/>
  </g>
  <line id="Baseline-L" style="fill:none;stroke:#27AAE1;opacity:1;stroke-width:0.5;" x1="263" x2="3036" y1="1556" y2="1556"/>
  <line id="Capline-L" style="fill:none;stroke:#27AAE1;opacity:1;stroke-width:0.5;" x1="263" x2="3036" y1="1485.54" y2="1485.54"/>
  <line id="left-margin-Regular-M" style="fill:none;stroke:#00AEEF;stroke-width:0.5;opacity:1.0;" x1="1380.48" x2="1380.48" y1="1030.79" y2="1150.12"/>
  <line id="right-margin-Regular-M" style="fill:none;stroke:#00AEEF;stroke-width:0.5;opacity:1.0;" x1="1519.2" x2="1519.2" y1="1030.79" y2="1150.12"/>
 </g>
 <g id="Symbols">
  <g id="Black-L" transform="matrix(1 0 0 1 2830.22 1556)">
   <path d="M93.5888 23.902C100.144 23.902 105.182 18.8949 105.182 12.3223L105.182-82.5991C105.182-89.151 100.144-94.2829 93.5472-94.2829C89.4782-94.2829 86.2287-92.7478 81.9252-88.7415L57.2418-65.891C56.9153-65.6229 56.6032-65.4401 56.2268-65.4401L39.0438-65.4401C27.463-65.4401 21.1496-58.8347 21.1496-46.7745L21.1496-23.5736C21.1496-11.5355 27.463-4.90929 39.0438-4.90929L56.1684-4.90929C56.5448-4.90929 56.8569-4.86287 57.1834-4.59481L81.9252 18.4843C86.0078 22.2708 89.2862 23.902 93.5888 23.902ZM127.314-3.516C131.747-0.814626 137.131-1.87643 139.858-5.71014C145.676-13.8339 149.085-24.246 149.085-35.2697C149.085-46.2934 145.676-56.6847 139.858-64.8877C137.131-68.663 131.747-69.7248 127.314-67.0026C122.584-64.1375 121.405-58.4775 125.384-51.7366C128.263-47.1156 129.85-41.2884 129.85-35.2697C129.85-29.251 128.242-23.4446 125.384-18.8028C121.426-12.0411 122.584-6.40188 127.314-3.516ZM158.732 14.6842C163.286 17.252 168.824 16.1706 171.668 11.6932C180.354-1.63423 185.203-18.0101 185.203-35.2697C185.203-52.5293 180.375-68.9468 171.668-82.2326C168.824-86.71 163.286-87.7914 158.732-85.2236C153.537-82.3042 152.944-76.1029 156.357-70.4718C162.529-60.4363 166.027-48.156 166.027-35.2697C166.027-22.3834 162.487-10.124 156.357-0.0675977C152.965 5.56354 153.537 11.7648 158.732 14.6842Z"/>
  </g>
  <g id="Heavy-L" transform="matrix(1 0 0 1 2536.92 1556)">
   <path d="M91.937 22.9881C97.8764 22.9881 102.391 18.4834 102.391 12.5306L102.391-82.7695C102.391-88.6921 97.8764-93.3779 91.8766-93.3779C88.1027-93.3779 85.1643-91.9105 81.1537-88.1746L55.9105-64.7025C55.5664-64.403 55.1952-64.2063 54.7515-64.2063L37.3169-64.2063C26.5309-64.2063 20.6206-58.0729 20.6206-46.7922L20.6206-23.5113C20.6206-12.2664 26.5309-6.10276 37.3169-6.10276L54.7068-6.10276C55.1506-6.10276 55.5217-6.01994 55.8659-5.72043L81.1537 17.9603C84.9241 21.4617 87.9846 22.9881 91.937 22.9881ZM124.692-4.6938C128.554-2.31615 133.314-3.22245 135.773-6.6888C141.357-14.3996 144.663-24.547 144.663-35.2697C144.663-45.9924 141.357-56.1096 135.773-63.8952C133.314-67.317 128.554-68.2233 124.692-65.8154C120.526-63.2366 119.531-58.2323 123.003-52.5023C126.108-47.7443 127.804-41.6459 127.804-35.2697C127.804-28.8935 126.078-22.8253 123.003-18.0371C119.561-12.2769 120.526-7.30279 124.692-4.6938ZM154.126 13.0874C158.123 15.3916 162.987 14.4607 165.536 10.4979C174.074-2.27538 178.917-18.4065 178.917-35.2697C178.917-52.1329 174.104-68.3244 165.536-81.0373C162.987-85.0001 158.123-85.931 154.126-83.6268C149.644-81.0493 149.1-75.6648 152.116-70.7826C158.496-60.796 162.103-48.321 162.103-35.2697C162.103-22.2184 158.436-9.77359 152.116 0.243166C149.13 5.12541 149.644 10.5099 154.126 13.0874Z"/>
  </g>
  <g id="Bold-L" transform="matrix(1 0 0 1 2244.36 1556)">
   <path d="M89.8483 21.8212C95.0344 21.8212 98.8885 17.924 98.8885 12.7396L98.8885-82.9547C98.8885-88.1011 95.0344-92.2262 89.7723-92.2262C86.3821-92.2262 83.8129-90.8509 80.2157-87.4977L54.266-63.2123C53.8914-62.867 53.4435-62.6549 52.9004-62.6549L35.0987-62.6549C25.341-62.6549 19.9003-57.0682 19.9003-46.8227L19.9003-23.4121C19.9003-13.2177 25.341-7.59307 35.0987-7.59307L52.8712-7.59307C53.4143-7.59307 53.8622-7.46418 54.2368-7.11878L80.2157 17.3073C83.5646 20.4254 86.3412 21.8212 89.8483 21.8212ZM121.531-6.05684C124.701-4.0788 128.678-4.80043 130.792-7.78357C136.113-15.0244 139.326-24.8489 139.326-35.2697C139.326-45.6905 136.113-55.477 130.792-62.785C128.678-65.739 124.701-66.4606 121.531-64.4446C118.072-62.2342 117.292-58.0518 120.142-53.522C123.561-48.5279 125.395-42.1287 125.395-35.2697C125.395-28.4107 123.523-22.0495 120.142-17.0174C117.33-12.4496 118.072-8.30523 121.531-6.05684ZM148.596 11.2691C151.909 13.2355 155.935 12.4891 158.108 9.17147C166.484-2.95512 171.342-18.8312 171.342-35.2697C171.342-51.7082 166.522-67.6603 158.108-79.7109C155.935-83.0285 151.909-83.7749 148.596-81.8085C144.975-79.6536 144.5-75.2684 147.024-71.2935C153.688-61.3162 157.44-48.5806 157.44-35.2697C157.44-21.9588 153.612-9.26121 147.024 0.754073C144.538 4.72898 144.975 9.11421 148.596 11.2691Z"/>
  </g>
  <g id="Semibold-L" transform="matrix(1 0 0 1 1950.51 1556)">
   <path d="M88.4083 21.0168C93.0751 21.0168 96.4739 17.5384 96.4739 12.8837L96.4739-83.0824C96.4739-87.6937 93.0751-91.4323 88.3216-91.4323C85.1958-91.4323 82.8813-90.1203 79.5691-87.031L53.1323-62.1851C52.7367-61.808 52.2359-61.5853 51.6242-61.5853L33.5694-61.5853C24.5207-61.5853 19.4038-56.3756 19.4038-46.8437L19.4038-23.3437C19.4038-13.8736 24.5207-8.62049 33.5694-8.62049L51.6057-8.62049C52.2174-8.62049 52.7181-8.45983 53.1137-8.0828L79.5691 16.8572C82.6273 19.711 85.2083 21.0168 88.4083 21.0168ZM119.352-6.99651C122.045-5.29396 125.481-5.88828 127.357-8.5383C132.498-15.4551 135.647-25.057 135.647-35.2697C135.647-45.4824 132.498-55.041 127.357-62.0197C125.481-64.6511 122.045-65.2454 119.352-63.4995C116.38-61.5431 115.749-57.9273 118.17-54.225C121.805-49.0682 123.735-42.4616 123.735-35.2697C123.735-28.0778 121.762-21.5146 118.17-16.3144C115.792-12.5687 116.38-8.99631 119.352-6.99651ZM144.783 10.0155C147.625 11.749 151.074 11.1298 152.987 8.25703C161.252-3.42373 166.12-19.1239 166.12-35.2697C166.12-51.4155 161.295-67.2024 152.987-78.7964C151.074-81.6692 147.625-82.2885 144.783-80.5549C141.756-78.6914 141.329-74.9951 143.514-71.6457C150.373-61.6748 154.226-48.7595 154.226-35.2697C154.226-21.7799 150.286-8.90797 143.514 1.10629C141.372 4.45568 141.756 8.152 144.783 10.0155Z"/>
  </g>
  <g id="Medium-L" transform="matrix(1 0 0 1 1655.96 1556)">
   <path d="M87.3165 20.4068C91.5895 20.4068 94.643 17.246 94.643 12.9929L94.643-83.1792C94.643-87.3848 91.5895-90.8303 87.2216-90.8303C84.2964-90.8303 82.1749-89.5664 79.0788-86.6771L52.2726-61.4061C51.8611-61.0051 51.3203-60.7744 50.6566-60.7744L32.4099-60.7744C23.8987-60.7744 19.0273-55.8504 19.0273-46.8596L19.0273-23.2918C19.0273-14.3709 23.8987-9.39951 32.4099-9.39951L50.6461-9.39951C51.3098-9.39951 51.8506-9.21477 52.2621-8.81375L79.0788 16.5158C81.9167 19.1693 84.3492 20.4068 87.3165 20.4068ZM117.7-7.70901C120.031-6.21534 123.058-6.71314 124.753-9.11057C129.757-15.7817 132.857-25.2148 132.857-35.2697C132.857-45.3246 129.757-54.7103 124.753-61.4393C123.058-63.8263 120.031-64.3241 117.7-62.783C115.097-61.0191 114.578-57.8329 116.674-54.7581C120.474-49.4778 122.475-42.714 122.475-35.2697C122.475-27.8254 120.426-21.1091 116.674-15.7813C114.626-12.659 115.097-9.52031 117.7-7.70901ZM141.893 9.06497C144.377 10.622 147.388 10.0992 149.104 7.56367C157.284-3.77906 162.16-19.3459 162.16-35.2697C162.16-51.1935 157.332-66.8552 149.104-78.1031C147.388-80.6386 144.377-81.1614 141.893-79.6044C139.315-77.9618 138.924-74.7879 140.852-71.9128C147.859-61.9467 151.789-48.8952 151.789-35.2697C151.789-21.6442 147.765-8.64013 140.852 1.37335C138.971 4.24846 139.315 7.42242 141.893 9.06497Z"/>
  </g>
  <g id="Regular-L" transform="matrix(1 0 0 1 1362.08 1556)">
   <path d="M85.8924 19.6112C89.6517 19.6112 92.255 16.8646 92.255 13.1354L92.255-83.3055C92.255-86.9819 89.6517-90.0451 85.7869-90.0451C83.1232-90.0451 81.2535-88.8439 78.4392-86.2155L51.1514-60.3901C50.7191-59.9578 50.1259-59.7166 49.3945-59.7166L30.8975-59.7166C23.0874-59.7166 18.5362-55.1654 18.5362-46.8804L18.5362-23.2242C18.5362-15.0196 23.0874-10.4156 30.8975-10.4156L49.3945-10.4156C50.1259-10.4156 50.7191-10.1995 51.1514-9.76718L78.4392 16.0706C80.9897 18.4628 83.2287 19.6112 85.8924 19.6112ZM115.545-8.63835C117.404-7.41715 119.897-7.78904 121.357-9.85701C126.182-16.2076 129.218-25.4206 129.218-35.2697C129.218-45.1188 126.182-54.279 121.357-60.6824C119.897-62.7504 117.404-63.1223 115.545-61.8483C113.424-60.3356 113.052-57.7098 114.723-55.4533C118.737-50.012 120.833-43.0432 120.833-35.2697C120.833-27.4962 118.684-20.5801 114.723-15.0861C113.105-12.7768 113.424-10.2038 115.545-8.63835ZM138.122 7.82518C140.14 9.15191 142.58 8.75491 144.04 6.65928C152.109-4.24252 156.995-19.6355 156.995-35.2697C156.995-50.9039 152.162-66.4024 144.04-77.1987C142.58-79.2943 140.14-79.6913 138.122-78.3646C136.132-77.0102 135.788-74.5176 137.381-72.2611C144.581-62.3014 148.61-49.0721 148.61-35.2697C148.61-21.4673 144.476-8.29078 137.381 1.7217C135.84 3.97816 136.132 6.47079 138.122 7.82518Z"/>
  </g>
  <g id="Light-L" transform="matrix(1 0 0 1 1067.76 1556)">
   <path d="M84.1747 18.5806C87.476 18.5806 89.5449 16.1584 89.5449 12.9637L89.5449-83.2673C89.5449-86.4284 87.476-89.0526 84.1074-89.0526C81.8254-89.0526 80.1084-87.966 77.9048-85.9102L50.0444-59.245C49.5358-58.7364 48.8663-58.4951 47.9631-58.4951L28.8554-58.4951C22.0377-58.4951 17.6201-54.0775 17.6201-46.9567L17.6201-23.0142C17.6201-15.9738 22.0377-11.5226 28.8554-11.5226L47.9631-11.5226C48.8663-11.5226 49.5358-11.2683 50.0444-10.7596L77.9048 15.5934C79.94 17.5276 81.8928 18.5806 84.1747 18.5806ZM113.923-8.9628C115.4-8.00879 117.282-8.30434 118.418-9.85701C123.243-16.1504 126.431-25.1725 126.431-35.2697C126.431-45.3669 123.243-54.3554 118.418-60.6824C117.282-62.2351 115.4-62.5306 113.923-61.5429C112.336-60.3738 112.041-58.3778 113.311-56.6175C117.764-50.5846 119.974-43.6348 119.974-35.2697C119.974-26.9046 117.73-19.9885 113.311-13.9219C112.074-12.1279 112.336-10.1656 113.923-8.9628ZM135.431 7.59615C137.01 8.61752 138.858 8.33503 139.993 6.73563C148.082-3.97532 153.12-19.5019 153.12-35.2697C153.12-51.0375 148.116-66.6314 139.993-77.275C138.858-78.8744 137.01-79.1569 135.431-78.1356C133.899-77.0674 133.65-75.1856 134.9-73.4253C142.463-63.1411 146.663-49.6065 146.663-35.2697C146.663-20.9329 142.395-7.43194 134.9 2.8859C133.684 4.64615 133.899 6.52804 135.431 7.59615Z"/>
  </g>
  <g id="Thin-L" transform="matrix(1 0 0 1 774.22 1556)">
   <path d="M81.903 17.2175C84.5984 17.2175 85.9605 15.2245 85.9605 12.7365L85.9605-83.2168C85.9605-85.6964 84.5984-87.7401 81.8861-87.7401C80.109-87.7401 78.5939-86.8048 77.1981-85.5063L48.5804-57.7305C47.9708-57.1209 47.2003-56.8796 46.07-56.8796L26.1545-56.8796C20.6494-56.8796 16.4085-52.6387 16.4085-47.0577L16.4085-22.7366C16.4085-17.2359 20.6494-12.9866 26.1545-12.9866L46.07-12.9866C47.2003-12.9866 47.9708-12.6818 48.5804-12.0722L77.1981 14.9624C78.5517 16.2907 80.1258 17.2175 81.903 17.2175ZM111.777-9.39191C112.75-8.79129 113.824-8.98587 114.53-9.85701C119.356-16.0746 122.746-24.8444 122.746-35.2697C122.746-45.695 119.356-54.4563 114.53-60.6824C113.824-61.5535 112.75-61.7481 111.777-61.1391C110.897-60.4243 110.703-59.2613 111.443-58.1573C116.476-51.3419 118.838-44.4173 118.838-35.2697C118.838-26.1221 116.468-19.206 111.443-12.3821C110.711-11.2697 110.897-10.1151 111.777-9.39191ZM131.872 7.29325C132.87 7.91075 133.936 7.77971 134.642 6.83659C142.756-3.62194 147.996-19.3252 147.996-35.2697C147.996-51.2142 142.765-66.9343 134.642-77.376C133.936-78.3191 132.87-78.4502 131.872-77.8327C130.946-77.1432 130.823-76.069 131.618-74.9651C139.661-64.2518 144.088-50.3133 144.088-35.2697C144.088-20.2261 139.644-6.29606 131.618 4.42565C130.831 5.52961 130.946 6.60377 131.872 7.29325Z"/>
  </g>
  <g id="Ultralight-L" transform="matrix(1 0 0 1 479.131 1556)">
   <path d="M80.7394 16.5194C83.1246 16.5194 84.1247 14.7461 84.1247 12.6201L84.1247-83.191C84.1247-85.3214 83.1246-87.0678 80.7484-87.0678C79.2298-87.0678 77.8182-86.2101 76.8361-85.2994L47.8305-56.9548C47.1692-56.2935 46.347-56.0522 45.1003-56.0522L24.7711-56.0522C19.9383-56.0522 15.7879-51.9018 15.7879-47.1094L15.7879-22.5944C15.7879-17.8824 19.9383-13.7365 24.7711-13.7365L45.1003-13.7365C46.347-13.7365 47.1692-13.4058 47.8305-12.7445L76.8361 14.6392C77.8407 15.6572 79.2208 16.5194 80.7394 16.5194ZM110.678-9.6117C111.392-9.19208 112.053-9.33495 112.539-9.85701C117.365-16.0359 120.859-24.6763 120.859-35.2697C120.859-45.8631 117.365-54.508 112.539-60.6824C112.053-61.2045 111.392-61.3473 110.678-60.9322C110.16-60.4501 110.018-59.7138 110.486-58.9459C115.817-51.7297 118.256-44.8181 118.256-35.2697C118.256-25.7213 115.821-18.8052 110.486-11.5935C110.013-10.8301 110.16-10.0893 110.678-9.6117ZM130.049 7.13811C130.75 7.54874 131.415 7.49528 131.901 6.88831C140.028-3.44094 145.372-19.2347 145.372-35.2697C145.372-51.3047 140.024-67.0895 131.901-77.4277C131.415-78.0347 130.75-78.0881 130.049-77.6775C129.433-77.182 129.375-76.5215 129.937-75.7537C138.226-64.8206 142.77-50.6753 142.77-35.2697C142.77-19.8641 138.235-5.71426 129.937 5.21431C129.371 5.98212 129.433 6.64255 130.049 7.13811Z"/>
  </g>
  <g id="Black-M" transform="matrix(1 0 0 1 2850.86 1126)">
   <path d="M73.6941 11.2279C79.2402 11.2279 83.5207 6.96096 83.5207 1.4085L83.5207-71.7772C83.5207-77.3241 79.2402-81.6241 73.6831-81.6241C70.3288-81.6241 67.5647-80.3919 64.0616-77.1333L45.3418-59.8505C45.0937-59.6596 44.8923-59.5297 44.6352-59.5297L31.4563-59.5297C21.9356-59.5297 16.7161-54.0247 16.7161-44.1691L16.7161-26.2244C16.7161-16.374 21.9356-10.8634 31.4563-10.8634L44.5781-10.8634C44.8352-10.8634 45.0366-10.8536 45.2847-10.6626L64.0616 6.77046C67.4231 9.88708 70.1114 11.2279 73.6941 11.2279ZM100.669-9.69144C104.543-7.35656 109.167-8.30248 111.466-11.5185C116.175-18.1595 118.925-26.4279 118.925-35.2606C118.925-44.0934 116.175-52.3563 111.466-59.0599C109.167-62.2188 104.543-63.1647 100.669-60.8244C96.5915-58.4052 95.5313-53.5419 98.9947-47.518C101.091-43.9754 102.242-39.6965 102.242-35.2606C102.242-30.8248 101.086-26.5514 98.9947-23.0033C95.5368-16.9739 96.5915-12.1161 100.669-9.69144ZM126.571 4.78208C130.518 6.95666 135.308 6.00496 137.721 2.16114C144.58-8.61461 148.362-21.5301 148.362-35.2606C148.362-48.9912 144.585-61.9177 137.721-72.6824C135.308-76.5262 130.518-77.4779 126.571-75.3034C121.996-72.7865 121.506-67.3629 124.445-62.4238C129.097-54.5628 131.737-45.1748 131.737-35.2606C131.737-25.3465 129.086-15.9639 124.445-8.09744C121.512-3.15838 121.996 2.2652 126.571 4.78208Z"/>
  </g>
  <g id="Heavy-M" transform="matrix(1 0 0 1 2557.26 1126)">
   <path d="M72.2378 10.4296C77.224 10.4296 81.0421 6.62381 81.0421 1.62804L81.0421-71.9472C81.0421-76.9266 77.224-80.8308 72.205-80.8308C69.1039-80.8308 66.6298-79.6544 63.3567-76.6073L44.1425-58.7943C43.8842-58.5796 43.6321-58.4363 43.3251-58.4363L29.9565-58.4363C21.1213-58.4363 16.2834-53.3804 16.2834-44.1793L16.2834-26.1828C16.2834-17.0004 21.1213-11.928 29.9565-11.928L43.2814-11.928C43.5885-11.928 43.8405-11.8861 44.0989-11.6714L63.3567 6.30229C66.4605 9.18238 68.9623 10.4296 72.2378 10.4296ZM98.2557-10.8129C101.606-8.76982 105.677-9.57077 107.744-12.4752C112.224-18.7178 114.859-26.745 114.859-35.2606C114.859-43.7763 112.224-51.7871 107.744-58.0897C105.677-60.9505 101.606-61.7515 98.2557-59.692C94.6805-57.521 93.7923-53.2406 96.7978-48.159C99.0743-44.5372 100.321-39.9914 100.321-35.2606C100.321-30.5299 99.0579-26.0005 96.7978-22.3622C93.8087-17.2643 94.6805-13.0003 98.2557-10.8129ZM122.316 3.24222C125.759 5.18725 129.945 4.37216 132.099 0.98559C138.812-9.26602 142.575-21.93 142.575-35.2606C142.575-48.5913 138.828-61.2881 132.099-71.5069C129.945-74.8935 125.759-75.7085 122.316-73.7635C118.395-71.5545 117.946-66.873 120.528-62.6202C125.35-54.837 128.08-45.2868 128.08-35.2606C128.08-25.2345 125.317-15.7007 120.528-7.90105C117.962-3.6483 118.395 1.03319 122.316 3.24222Z"/>
  </g>
  <g id="Bold-M" transform="matrix(1 0 0 1 2264.03 1126)">
   <path d="M70.6087 9.53657C74.9685 9.53657 78.2694 6.24666 78.2694 1.87362L78.2694-72.1375C78.2694-76.4819 74.9685-79.9435 70.5514-79.9435C67.7337-79.9435 65.5839-78.8295 62.5681-76.0189L42.8009-57.6128C42.5311-57.3716 42.2224-57.2132 41.8594-57.2132L28.2788-57.2132C20.2103-57.2132 15.7994-52.6596 15.7994-44.1908L15.7994-26.1362C15.7994-17.7011 20.2103-13.1189 28.2788-13.1189L41.8309-13.1189C42.1938-13.1189 42.5026-13.0411 42.7723-12.7999L62.5681 5.77858C65.3837 8.39407 67.6768 9.53657 70.6087 9.53657ZM95.5556-12.0674C98.3213-10.3508 101.773-10.9895 103.581-13.5454C107.804-19.3423 110.312-27.0997 110.312-35.2606C110.312-43.4216 107.804-51.1504 103.581-57.0044C101.773-59.5318 98.3213-60.1705 95.5556-58.4253C92.5429-56.5319 91.847-52.9036 94.3402-48.8762C96.8181-45.1656 98.1729-40.3212 98.1729-35.2606C98.1729-30.2001 96.7895-25.3843 94.3402-21.6451C91.8756-17.5891 92.5429-13.9894 95.5556-12.0674ZM117.557 1.51967C120.437 3.20791 123.945 2.54565 125.81-0.329431C132.36-9.99473 136.1-22.3772 136.1-35.2606C136.1-48.1441 132.388-60.5838 125.81-70.1919C123.945-73.0669 120.437-73.7292 117.557-72.041C114.368-70.1763 113.962-66.3249 116.147-62.8399C121.158-55.1438 123.99-45.4121 123.99-35.2606C123.99-25.1092 121.101-15.4061 116.147-7.68136C113.991-4.19635 114.368-0.344982 117.557 1.51967Z"/>
  </g>
  <g id="Semibold-M" transform="matrix(1 0 0 1 1969.72 1126)">
   <path d="M69.4856 8.9209C73.4136 8.9209 76.358 5.98666 76.358 2.04292L76.358-72.2686C76.358-76.1753 73.4136-79.3318 69.4115-79.3318C66.7891-79.3318 64.8629-78.2608 62.0245-75.6133L41.876-56.7983C41.5983-56.5388 41.2505-56.37 40.8491-56.37L27.1222-56.37C19.5822-56.37 15.4658-52.1628 15.4658-44.1986L15.4658-26.1042C15.4658-18.1842 19.5822-13.9399 27.1222-13.9399L40.8309-13.9399C41.2324-13.9399 41.5802-13.8374 41.8578-13.5779L62.0245 5.41754C64.6413 7.85062 66.7905 8.9209 69.4856 8.9209ZM93.6942-12.9322C96.0567-11.4406 99.0816-11.9676 100.71-14.2832C104.757-19.7728 107.176-27.3442 107.176-35.2606C107.176-43.177 104.757-50.7114 100.71-56.2562C99.0816-58.5537 96.0567-59.0806 93.6942-57.552C91.0692-55.85 90.5059-52.6712 92.6459-49.3705C95.2627-45.5989 96.6917-40.5486 96.6917-35.2606C96.6917-29.9727 95.2257-24.9594 92.6459-21.1508C90.543-17.813 91.0692-14.6713 93.6942-12.9322ZM114.275 0.332161C116.767 1.84336 119.81 1.28646 121.475-1.236C127.912-10.4971 131.637-22.6855 131.637-35.2606C131.637-47.8357 127.949-60.0983 121.475-69.2853C119.81-71.8077 116.767-72.3647 114.275-70.8534C111.591-69.2262 111.216-65.9471 113.126-62.9914C118.269-55.3552 121.17-45.4985 121.17-35.2606C121.17-25.0228 118.195-15.2031 113.126-7.5299C111.253-4.57417 111.591-1.29509 114.275 0.332161Z"/>
  </g>
  <g id="Medium-M" transform="matrix(1 0 0 1 1674.82 1126)">
   <path d="M68.634 8.45408C72.2346 8.45408 74.9086 5.78951 74.9086 2.17129L74.9086-72.368C74.9086-75.9428 72.2346-78.868 68.5472-78.868C66.0728-78.868 64.3162-77.8296 61.6123-75.3057L41.1747-56.1806C40.891-55.9073 40.5136-55.7307 40.083-55.7307L26.2452-55.7307C19.1061-55.7307 15.2128-51.786 15.2128-44.2046L15.2128-26.0798C15.2128-18.5505 19.1061-14.5624 26.2452-14.5624L40.0727-14.5624C40.5034-14.5624 40.8808-14.4411 41.1644-14.1678L61.6123 5.14379C64.0785 7.43855 66.1186 8.45408 68.634 8.45408ZM92.2828-13.588C94.3396-12.267 97.0409-12.7092 98.5339-14.8427C102.447-20.0993 104.799-27.5297 104.799-35.2606C104.799-42.9916 102.447-50.3786 98.5339-55.6889C97.0409-57.812 94.3396-58.2542 92.2828-56.8899C89.9518-55.3329 89.489-52.4951 91.3613-49.7454C94.0834-45.9274 95.5686-40.721 95.5686-35.2606C95.5686-29.8003 94.04-24.6373 91.3613-20.7759C89.5325-17.9828 89.9518-15.1884 92.2828-13.588ZM111.788-0.568262C113.985 0.80871 116.674 0.331686 118.187-1.9234C124.539-10.878 128.253-22.9193 128.253-35.2606C128.253-47.6019 124.583-59.7301 118.187-68.5979C116.674-70.853 113.985-71.33 111.788-69.953C109.486-68.5058 109.134-65.6606 110.836-63.1062C116.078-55.5156 119.032-45.564 119.032-35.2606C119.032-24.9573 115.991-15.0492 110.836-7.41506C109.178-4.86066 109.486-2.0155 111.788-0.568262Z"/>
  </g>
  <g id="Regular-M" transform="matrix(1 0 0 1 1380.48 1126)">
   <path d="M67.5233 7.84519C70.6968 7.84519 73.0182 5.53237 73.0182 2.33873L73.0182-72.4977C73.0182-75.6396 70.6968-78.263 67.4198-78.263C65.1386-78.263 63.6031-77.2671 61.0747-74.9045L40.2599-55.375C39.9685-55.0836 39.5525-54.8967 39.0837-54.8967L25.1013-54.8967C18.4849-54.8967 14.8828-51.2946 14.8828-44.2124L14.8828-26.0481C14.8828-19.0282 18.4849-15.3744 25.1013-15.3744L39.0837-15.3744C39.5525-15.3744 39.9685-15.2287 40.2599-14.9372L61.0747 4.78671C63.3443 6.90107 65.2421 7.84519 67.5233 7.84519ZM90.4418-14.4433C92.1-13.345 94.3791-13.6766 95.6951-15.5724C99.4333-20.5251 101.698-27.7715 101.698-35.2606C101.698-42.7498 99.4333-49.9445 95.6951-54.9489C94.3791-56.8447 92.1-57.1763 90.4418-56.0262C88.4943-54.6585 88.1627-52.2653 89.6856-50.2343C92.5451-46.3559 94.1037-40.9459 94.1037-35.2606C94.1037-29.5754 92.4933-24.2172 89.6856-20.287C88.2144-18.2043 88.4943-15.8628 90.4418-14.4433ZM108.542-1.74273C110.356-0.540839 112.583-0.913666 113.899-2.82C120.14-11.3748 123.838-23.2243 123.838-35.2606C123.838-47.297 120.192-59.25 113.899-67.7013C112.583-69.6076 110.356-69.9804 108.542-68.7786C106.74-67.5661 106.418-65.287 107.848-63.256C113.22-55.7247 116.244-45.6494 116.244-35.2606C116.244-24.8719 113.117-14.8483 107.848-7.26527C106.47-5.23433 106.74-2.95516 108.542-1.74273Z"/>
  </g>
  <g id="Light-M" transform="matrix(1 0 0 1 1085.92 1126)">
   <path d="M65.9833 6.92119C68.7461 6.92119 70.5884 4.89926 70.5884 2.18473L70.5884-72.4635C70.5884-75.1434 68.7461-77.3732 65.914-77.3732C63.975-77.3732 62.5764-76.48 60.5956-74.6307L39.2675-54.3484C38.9076-53.9885 38.4231-53.8016 37.8004-53.8016L23.2704-53.8016C17.5438-53.8016 14.0615-50.3193 14.0615-44.2809L14.0615-25.8599C14.0615-19.8838 17.5438-16.3668 23.2704-16.3668L37.8004-16.3668C38.4231-16.3668 38.9076-16.1869 39.2675-15.827L60.5956 4.35894C62.4032 6.06263 64.0443 6.92119 65.9833 6.92119ZM88.9874-14.7342C90.3033-13.8754 92.0349-14.1386 93.06-15.5724C96.7983-20.4738 99.2002-27.5491 99.2002-35.2606C99.2002-42.9722 96.7983-50.0129 93.06-54.9489C92.0349-56.3827 90.3033-56.6459 88.9874-55.7524C87.519-54.6927 87.2558-52.8642 88.4194-51.2781C91.6724-46.8692 93.3337-41.4764 93.3337-35.2606C93.3337-29.0449 91.6378-23.6867 88.4194-19.2432C87.2904-17.6225 87.519-15.8286 88.9874-14.7342ZM106.13-1.94806C107.55-1.01995 109.247-1.29011 110.272-2.75156C116.53-11.1353 120.365-23.1045 120.365-35.2606C120.365-47.4168 116.564-59.4553 110.272-67.7697C109.247-69.2312 107.55-69.5013 106.13-68.5732C104.738-67.6175 104.502-65.8858 105.624-64.2998C111.321-56.4776 114.498-46.1285 114.498-35.2606C114.498-24.3927 111.252-14.0784 105.624-6.22151C104.537-4.63544 104.738-2.90383 106.13-1.94806Z"/>
  </g>
  <g id="Thin-M" transform="matrix(1 0 0 1 792.049 1126)">
   <path d="M63.9465 5.69914C66.1663 5.69914 67.3749 4.06193 67.3749 1.98106L67.3749-72.4183C67.3749-74.4871 66.1663-76.1964 63.9225-76.1964C62.4362-76.1964 61.2186-75.439 59.9619-74.2687L37.9549-52.9906C37.5045-52.5402 36.9295-52.3532 36.1031-52.3532L20.849-52.3532C16.2991-52.3532 12.9752-49.0293 12.9752-44.3714L12.9752-25.6109C12.9752-21.0153 16.2991-17.6794 20.849-17.6794L36.1031-17.6794C36.9295-17.6794 37.5045-17.4542 37.9549-17.0038L59.9619 3.79317C61.1585 4.95373 62.4602 5.69914 63.9465 5.69914ZM87.0638-15.1189C87.9271-14.5769 88.9345-14.7496 89.5749-15.5724C93.3131-20.4059 95.8962-27.2549 95.8962-35.2606C95.8962-43.2664 93.3131-50.1034 89.5749-54.9489C88.9345-55.7717 87.9271-55.9443 87.0638-55.3903C86.229-54.738 86.0564-53.6562 86.7448-52.6586C90.5183-47.5481 92.3153-42.1779 92.3153-35.2606C92.3153-28.3434 90.5063-22.9852 86.7448-17.8627C86.0684-16.853 86.229-15.7833 87.0638-15.1189ZM102.939-2.21962C103.838-1.6536 104.834-1.78798 105.474-2.66104C111.755-10.8185 115.771-22.9461 115.771-35.2606C115.771-47.5752 111.767-59.7269 105.474-67.8603C104.834-68.7333 103.838-68.8677 102.939-68.3017C102.09-67.6854 101.967-66.6779 102.682-65.6802C108.809-57.4733 112.19-46.7622 112.19-35.2606C112.19-23.7591 108.785-13.06 102.682-4.84104C101.979-3.84337 102.09-2.83594 102.939-2.21962Z"/>
  </g>
  <g id="Ultralight-M" transform="matrix(1 0 0 1 496.793 1126)">
   <path d="M62.9033 5.07321C64.8449 5.07321 65.7289 3.63305 65.7289 1.87674L65.7289-72.3951C65.7289-74.151 64.8449-75.5937 62.9025-75.5937C61.648-75.5937 60.5231-74.9058 59.6374-74.0832L37.2826-52.2951C36.7859-51.7983 36.1645-51.6114 35.2337-51.6114L19.6087-51.6114C15.6616-51.6114 12.4188-48.3686 12.4188-44.4178L12.4188-25.4834C12.4188-21.5949 15.6616-18.3517 19.6087-18.3517L35.2337-18.3517C36.1645-18.3517 36.7859-18.1033 37.2826-17.6065L59.6374 3.50339C60.521 4.38576 61.6488 5.07321 62.9033 5.07321ZM86.0785-15.316C86.71-14.9363 87.3465-15.0626 87.7898-15.5724C91.5281-20.3711 94.2038-27.1042 94.2038-35.2606C94.2038-43.4171 91.5281-50.1498 87.7898-54.9489C87.3465-55.4587 86.71-55.585 86.0785-55.2049C85.5683-54.7612 85.442-54.0619 85.887-53.3656C89.9271-47.8959 91.7937-42.5372 91.7937-35.2606C91.7937-27.984 89.9267-22.6258 85.887-17.1557C85.4425-16.4589 85.5683-15.7601 86.0785-15.316ZM101.304-2.35872C101.937-1.97816 102.573-2.04299 103.017-2.61467C109.309-10.6562 113.418-22.865 113.418-35.2606C113.418-47.6563 109.309-59.8659 103.017-67.9066C102.573-68.4783 101.937-68.5431 101.304-68.1626C100.734-67.7201 100.669-67.0836 101.175-66.3873C107.522-57.9833 111.008-47.0868 111.008-35.2606C111.008-23.4345 107.521-12.5384 101.175-4.13397C100.67-3.43768 100.734-2.80116 101.304-2.35872Z"/>
  </g>
  <g id="Black-S" transform="matrix(1 0 0 1 2867.9 696)">
   <path d="M58.1055 1.36719C62.5977 1.36719 66.0645-2.09961 66.0645-6.5918L66.0645-63.8184C66.0645-68.3105 62.5977-71.7773 58.1055-71.7773C55.4199-71.7773 53.1738-70.8008 50.3906-68.2129L35.8398-54.7852C35.6445-54.6387 35.498-54.541 35.3027-54.541L25-54.541C17.3828-54.541 13.1836-50.0977 13.1836-42.2363L13.1836-28.1738C13.1836-20.3125 17.3828-15.8691 25-15.8691L35.2539-15.8691C35.4492-15.8691 35.5957-15.8691 35.791-15.7227L50.3906-2.19727C53.0762 0.292969 55.2246 1.36719 58.1055 1.36719ZM79.541-14.8926C82.7148-12.9883 86.4746-13.7695 88.3301-16.3574C92.0898-21.6797 94.2871-28.2227 94.2871-35.2539C94.2871-42.2852 92.0898-48.8281 88.3301-54.1992C86.4746-56.7383 82.7148-57.5195 79.541-55.6152C76.2207-53.6621 75.3418-49.707 78.1738-44.7266C79.7852-41.9434 80.6641-38.6719 80.6641-35.2539C80.6641-31.8359 79.7852-28.5645 78.1738-25.7812C75.3418-20.8008 76.2207-16.8457 79.541-14.8926ZM100.342-3.41797C103.564-1.66016 107.471-2.44141 109.424-5.56641C114.844-14.1602 117.822-24.3652 117.822-35.2539C117.822-46.1426 114.844-56.3477 109.424-64.9414C107.471-68.0664 103.564-68.8477 100.342-67.0898C96.582-65.0391 96.1914-60.5957 98.584-56.543C102.197-50.3418 104.248-43.0176 104.248-35.2539C104.248-27.4902 102.197-20.166 98.584-13.9648C96.1914-9.91211 96.582-5.46875 100.342-3.41797Z"/>
  </g>
  <g id="Heavy-S" transform="matrix(1 0 0 1 2573.57 696)">
   <path d="M57.0567 0.802489C61.1225 0.802489 64.2551-2.30705 64.2551-6.38436L64.2551-63.9682C64.2551-68.034 61.1225-71.2126 57.0337-71.2126C54.521-71.2126 52.5054-70.2707 49.849-67.798L34.9409-54.013C34.7456-53.855 34.5646-53.7458 34.3462-53.7458L23.9513-53.7458C16.8066-53.7458 12.9185-49.6713 12.9185-42.2363L12.9185-28.1623C12.9185-20.7389 16.8066-16.6528 23.9513-16.6528L34.3089-16.6528C34.5273-16.6528 34.7083-16.6298 34.9036-16.4717L49.849-2.543C52.3732-0.202583 54.3948 0.802489 57.0567 0.802489ZM77.6625-15.8145C80.433-14.1292 83.7894-14.7952 85.4835-17.1757C89.0474-22.1637 91.1294-28.5223 91.1294-35.2539C91.1294-41.9855 89.0474-48.3326 85.4835-53.3695C83.7894-55.7126 80.433-56.3786 77.6625-54.6818C74.711-52.9015 73.9704-49.3728 76.4567-45.1414C78.1717-42.3582 79.1198-38.8563 79.1198-35.2539C79.1198-31.6515 78.1602-28.1611 76.4567-25.3664C73.9819-21.1235 74.711-17.6063 77.6625-15.8145ZM97.0112-4.70871C99.8536-3.11224 103.31-3.78977 105.079-6.58056C110.372-14.7479 113.316-24.7225 113.316-35.2539C113.316-45.7853 110.384-55.783 105.079-63.9273C103.31-66.718 99.8536-67.3956 97.0112-65.7991C93.7585-63.9788 93.391-60.1002 95.5185-56.5775C99.2355-50.4801 101.344-43.0522 101.344-35.2539C101.344-27.4557 99.2124-20.0392 95.5185-13.9303C93.4025-10.4077 93.7585-6.529 97.0112-4.70871Z"/>
  </g>
  <g id="Bold-S" transform="matrix(1 0 0 1 2279.53 696)">
   <path d="M55.8838 0.170898C59.4727 0.170898 62.2314-2.53906 62.2314-6.15234L62.2314-64.1357C62.2314-67.7246 59.4727-70.5811 55.835-70.5811C53.5156-70.5811 51.7578-69.6777 49.2432-67.334L33.9355-53.1494C33.7402-52.9785 33.5205-52.8564 33.2764-52.8564L22.7783-52.8564C16.1621-52.8564 12.6221-49.1943 12.6221-42.2363L12.6221-28.1494C12.6221-21.2158 16.1621-17.5293 22.7783-17.5293L33.252-17.5293C33.4961-17.5293 33.7158-17.4805 33.9111-17.3096L49.2432-2.92969C51.5869-0.756836 53.4668 0.170898 55.8838 0.170898ZM75.5615-16.8457C77.8809-15.4053 80.7861-15.9424 82.2998-18.0908C85.6445-22.7051 87.5977-28.8574 87.5977-35.2539C87.5977-41.6504 85.6445-47.7783 82.2998-52.4414C80.7861-54.5654 77.8809-55.1025 75.5615-53.6377C73.0225-52.0508 72.4365-48.999 74.5361-45.6055C76.3672-42.8223 77.3926-39.0625 77.3926-35.2539C77.3926-31.4453 76.3428-27.71 74.5361-24.9023C72.4609-21.4844 73.0225-18.457 75.5615-16.8457ZM93.2861-6.15234C95.7031-4.73633 98.6572-5.29785 100.22-7.71484C105.371-15.4053 108.276-25.1221 108.276-35.2539C108.276-45.3857 105.396-55.1514 100.22-62.793C98.6572-65.21 95.7031-65.7715 93.2861-64.3555C90.6006-62.793 90.2588-59.5459 92.0898-56.6162C95.9229-50.6348 98.0957-43.0908 98.0957-35.2539C98.0957-27.417 95.874-19.8975 92.0898-13.8916C90.2832-10.9619 90.6006-7.71484 93.2861-6.15234Z"/>
  </g>
  <g id="Semibold-S" transform="matrix(1 0 0 1 1984.66 696)">
   <path d="M55.0751-0.264551C58.3352-0.264551 60.8362-2.69902 60.8362-5.99238L60.8362-64.2513C60.8362-67.5113 58.3352-70.1456 55.0085-70.1456C52.8225-70.1456 51.2424-69.2689 48.8255-67.0141L33.2424-52.554C33.0471-52.3742 32.8007-52.2433 32.5388-52.2433L21.9696-52.2433C15.7178-52.2433 12.4177-48.8655 12.4177-42.2363L12.4177-28.1405C12.4177-21.5446 15.7178-18.1336 21.9696-18.1336L32.5232-18.1336C32.7852-18.1336 33.0315-18.067 33.2269-17.8872L48.8255-3.19629C51.0448-1.13896 52.827-0.264551 55.0751-0.264551ZM74.113-17.5566C76.1213-16.2851 78.7155-16.7333 80.1048-18.7218C83.2984-23.0783 85.1627-29.0885 85.1627-35.2539C85.1627-41.4193 83.2984-47.3962 80.1048-51.8016C78.7155-53.7745 76.1213-54.2228 74.113-52.9179C71.8583-51.4643 71.379-48.7413 73.212-45.9254C75.123-43.1422 76.2018-39.2047 76.2018-35.2539C76.2018-31.3031 75.0897-27.3989 73.212-24.5824C71.4123-21.7332 71.8583-19.0436 74.113-17.5566ZM90.7179-7.14766C92.8416-5.85605 95.4491-6.3376 96.8694-8.49687C101.923-15.8585 104.802-25.3976 104.802-35.2539C104.802-45.1103 101.956-54.7159 96.8694-62.0109C95.4491-64.1702 92.8416-64.6518 90.7179-63.3602C88.4233-61.9754 88.0993-59.1638 89.726-56.6429C93.639-50.7414 95.8563-43.1175 95.8563-35.2539C95.8563-27.3903 93.5724-19.7997 89.726-13.8649C88.1326-11.344 88.4233-8.53242 90.7179-7.14766Z"/>
  </g>
  <g id="Medium-S" transform="matrix(1 0 0 1 1689.34 696)">
   <path d="M54.4619-0.594727C57.4727-0.594727 59.7783-2.82031 59.7783-5.87109L59.7783-64.3389C59.7783-67.3496 57.4727-69.8154 54.3818-69.8154C52.2969-69.8154 50.8516-68.959 48.5088-66.7715L32.7168-52.1025C32.5215-51.916 32.2549-51.7783 31.9795-51.7783L21.3564-51.7783C15.3809-51.7783 12.2627-48.6162 12.2627-42.2363L12.2627-28.1338C12.2627-21.7939 15.3809-18.5918 21.3564-18.5918L31.9707-18.5918C32.2461-18.5918 32.5127-18.5117 32.708-18.3252L48.5088-3.39844C50.6338-1.42871 52.3418-0.594727 54.4619-0.594727ZM73.0146-18.0957C74.7871-16.9521 77.1455-17.333 78.4404-19.2002C81.5195-23.3613 83.3164-29.2637 83.3164-35.2539C83.3164-41.2441 81.5195-47.1064 78.4404-51.3164C77.1455-53.1748 74.7871-53.5557 73.0146-52.3721C70.9756-51.0195 70.5771-48.5459 72.208-46.168C74.1797-43.3848 75.2988-39.3125 75.2988-35.2539C75.2988-31.1953 74.1396-27.1631 72.208-24.3398C70.6172-21.9219 70.9756-19.4883 73.0146-18.0957ZM88.7705-7.90234C90.6719-6.70508 93.0166-7.12598 94.3291-9.08984C99.3086-16.2021 102.167-25.6064 102.167-35.2539C102.167-44.9014 99.3486-54.3857 94.3291-61.418C93.0166-63.3818 90.6719-63.8027 88.7705-62.6055C86.7725-61.3555 86.4619-58.874 87.9336-56.6631C91.9072-50.8223 94.1582-43.1377 94.1582-35.2539C94.1582-27.3701 91.8271-19.7256 87.9336-13.8447C86.502-11.6338 86.7725-9.15234 88.7705-7.90234Z"/>
  </g>
  <g id="Regular-S" transform="matrix(1 0 0 1 1394.45 696)">
   <path d="M53.6621-1.02539C56.3477-1.02539 58.3984-2.97852 58.3984-5.71289L58.3984-64.4531C58.3984-67.1387 56.3477-69.3848 53.5645-69.3848C51.6113-69.3848 50.3418-68.5547 48.0957-66.4551L32.0312-51.5137C31.8359-51.3184 31.543-51.1719 31.25-51.1719L20.5566-51.1719C14.9414-51.1719 12.0605-48.291 12.0605-42.2363L12.0605-28.125C12.0605-22.1191 14.9414-19.1895 20.5566-19.1895L31.25-19.1895C31.543-19.1895 31.8359-19.0918 32.0312-18.8965L48.0957-3.66211C50.0977-1.80664 51.709-1.02539 53.6621-1.02539ZM71.582-18.7988C73.0469-17.8223 75.0977-18.1152 76.2695-19.8242C79.1992-23.7305 80.9082-29.4922 80.9082-35.2539C80.9082-41.0156 79.1992-46.7285 76.2695-50.6836C75.0977-52.3926 73.0469-52.6855 71.582-51.6602C69.8242-50.4395 69.5312-48.291 70.8984-46.4844C72.9492-43.7012 74.1211-39.4531 74.1211-35.2539C74.1211-31.0547 72.9004-26.8555 70.8984-24.0234C69.5801-22.168 69.8242-20.0684 71.582-18.7988ZM86.2305-8.88672C87.8418-7.8125 89.8438-8.1543 91.0156-9.86328C95.8984-16.6504 98.7305-25.8789 98.7305-35.2539C98.7305-44.6289 95.9473-53.9551 91.0156-60.6445C89.8438-62.3535 87.8418-62.6953 86.2305-61.6211C84.6191-60.5469 84.3262-58.4961 85.5957-56.6895C89.6484-50.9277 91.9434-43.1641 91.9434-35.2539C91.9434-27.3438 89.5508-19.6289 85.5957-13.8184C84.375-12.0117 84.6191-9.96094 86.2305-8.88672Z"/>
  </g>
  <g id="Light-S" transform="matrix(1 0 0 1 1099.64 696)">
   <path d="M52.2998-1.84277C54.6221-1.84277 56.249-3.53857 56.249-5.84912L56.249-64.4229C56.249-66.6997 54.6221-68.5977 52.2324-68.5977C50.582-68.5977 49.4336-67.8584 47.6719-66.2129L31.1533-50.6055C30.8975-50.3496 30.544-50.2031 30.1148-50.2031L18.937-50.2031C14.1089-50.2031 11.334-47.4282 11.334-42.2969L11.334-27.9585C11.334-22.876 14.1089-20.0674 18.937-20.0674L30.1148-20.0674C30.544-20.0674 30.8975-19.9394 31.1533-19.6836L47.6719-4.04052C49.2651-2.54833 50.6494-1.84277 52.2998-1.84277ZM70.2954-19.0562C71.4575-18.2915 73.0239-18.5239 73.9385-19.8242C76.8682-23.6851 78.6983-29.2954 78.6983-35.2539C78.6983-41.2124 76.8682-46.7891 73.9385-50.6836C73.0239-51.9839 71.4575-52.2163 70.2954-51.418C68.9614-50.4697 68.729-48.8208 69.7783-47.4077C72.1773-44.1553 73.4399-39.9224 73.4399-35.2539C73.4399-30.5855 72.1436-26.3862 69.7783-23.1001C68.7627-21.6533 68.9614-20.0381 70.2954-19.0562ZM84.0962-9.06836C85.3594-8.23632 86.8921-8.4873 87.8067-9.80273C92.7046-16.4385 95.6577-25.773 95.6577-35.2539C95.6577-44.7349 92.7383-54.1367 87.8067-60.7051C86.8921-62.0205 85.3594-62.2715 84.0962-61.4395C82.8482-60.5923 82.6309-59.0259 83.6279-57.6128C87.9683-51.5937 90.3994-43.5879 90.3994-35.2539C90.3994-26.9199 87.9009-18.9478 83.6279-12.895C82.6646-11.4819 82.8482-9.91553 84.0962-9.06836Z"/>
  </g>
  <g id="Thin-S" transform="matrix(1 0 0 1 805.439 696)">
   <path d="M50.4981-2.92381C52.3399-2.92381 53.4063-4.27929 53.4063-6.02929L53.4063-64.3828C53.4063-66.1191 52.3399-67.5567 50.4707-67.5567C49.2207-67.5567 48.2324-66.9375 47.1113-65.8926L29.9922-49.4043C29.6563-49.0684 29.2227-48.9219 28.6133-48.9219L16.795-48.9219C13.0078-48.9219 10.3731-46.2871 10.3731-42.377L10.3731-27.7383C10.3731-23.8769 13.0078-21.2285 16.795-21.2285L28.6133-21.2285C29.2227-21.2285 29.6563-21.0605 29.9922-20.7246L47.1113-4.54101C48.1641-3.52928 49.2481-2.92381 50.4981-2.92381ZM68.5938-19.3965C69.3555-18.9121 70.2813-19.0644 70.8555-19.8242C73.7852-23.625 75.7754-29.0352 75.7754-35.2539C75.7754-41.4727 73.7852-46.8691 70.8555-50.6836C70.2813-51.4434 69.3555-51.5957 68.5938-51.0977C67.8203-50.5098 67.668-49.5215 68.2969-48.6289C71.1563-44.7559 72.5391-40.543 72.5391-35.2539C72.5391-29.9649 71.1426-25.7656 68.2969-21.8789C67.6817-20.9727 67.8203-19.998 68.5938-19.3965ZM81.2735-9.30859C82.0762-8.79687 82.9883-8.92773 83.5626-9.72266C88.4805-16.1582 91.5938-25.6328 91.5938-35.2539C91.5938-44.875 88.4942-54.3769 83.5626-60.7852C82.9883-61.5801 82.0762-61.7109 81.2735-61.1992C80.5059-60.6523 80.3887-59.7266 81.0254-58.834C85.7461-52.4746 88.3575-44.1484 88.3575-35.2539C88.3575-26.3594 85.7188-18.0469 81.0254-11.6738C80.4024-10.7813 80.5059-9.85547 81.2735-9.30859Z"/>
  </g>
  <g id="Ultralight-S" transform="matrix(1 0 0 1 510.015 696)">
   <path d="M49.5752-3.47752C51.1709-3.47752 51.9502-4.65868 51.9502-6.12158L51.9502-64.3623C51.9502-65.8218 51.1709-67.0235 49.5684-67.0235C48.5235-67.0235 47.6172-66.4658 46.8242-65.7285L29.3975-48.7891C29.0205-48.4121 28.5459-48.2656 27.8443-48.2656L15.6978-48.2656C12.4439-48.2656 9.88088-45.7027 9.88088-42.418L9.88088-27.6255C9.88088-24.3896 12.4439-21.8232 15.6978-21.8232L27.8443-21.8232C28.5459-21.8232 29.0205-21.6347 29.3975-21.2578L46.8242-4.79735C47.6001-4.03172 48.5303-3.47752 49.5752-3.47752ZM67.7222-19.5708C68.2788-19.23 68.8765-19.3413 69.2764-19.8242C72.2061-23.5942 74.2784-28.9019 74.2784-35.2539C74.2784-41.606 72.2061-46.9102 69.2764-50.6836C68.8765-51.1665 68.2788-51.2778 67.7222-50.9336C67.2359-50.5303 67.1245-49.8804 67.5381-49.2544C70.6333-45.0635 72.0777-40.8608 72.0777-35.2539C72.0777-29.647 70.6299-25.4478 67.5381-21.2534C67.1279-20.624 67.2359-19.9775 67.7222-19.5708ZM79.8277-9.43164C80.3946-9.08397 80.9888-9.15331 81.3887-9.68164C86.317-16.0147 89.5123-25.561 89.5123-35.2539C89.5123-44.9468 86.3204-54.5 81.3887-60.8262C80.9888-61.3545 80.3946-61.4238 79.8277-61.0762C79.3062-60.6831 79.2403-60.0854 79.6924-59.4595C84.6079-52.9258 87.3116-44.4355 87.3116-35.2539C87.3116-26.0723 84.6011-17.5855 79.6924-11.0484C79.2437-10.4224 79.3062-9.82471 79.8277-9.43164Z"/>
  </g>
 </g>
</svg>
